<?xml version="1.0" encoding="UTF-8"?>
<svg viewBox="0 0 4e3 4e3" xmlns="http://www.w3.org/2000/svg">
<defs>
<style>.cls-1{fill:#fff;stroke:#333;}.cls-1,.cls-3{stroke-linecap:round;stroke-linejoin:round;stroke-width:5px;}.cls-2{opacity:0.1;}.cls-3{stroke:#000;}</style>
</defs>
<title>shoe2</title>
<path class="cls-1" d="m2019 3458.8a31 31 0 0 1-0.26-3.49l-0.93-51.66c-0.37-20 18.11-36.6 41.27-37l95.87-1.63c31.08-0.53 58.46 13.67 73.28 35.2q13.8-0.09 27.61 0c67.74 0.27 123.43 50.93 124.48 109.43l0.53 29.24c0.28 15.71-14.19 27.66-32.34 27a2653.1 2653.1 0 0 0-266.36 3.1c-33.88 2.09-61.71-19.27-62.24-48.63l-1-57.42c-0.1-1.43-0.05-2.79 0.09-4.14z"/>
<path class="cls-1" d="m1978.9 3459a31 31 0 0 0 0.2-3.49v-51.68c0-20-18.75-36.28-41.91-36.27l-95.89 0.05c-31.08 0-58.21 14.69-72.65 36.47q-13.8 0.16-27.61 0.46c-67.72 1.46-122.52 53.08-122.55 111.59v29.24c0 15.71 14.67 27.41 32.81 26.39a2656.2 2656.2 0 0 1 266.37-1.55c33.91 1.5 61.37-20.34 61.39-49.7v-57.43c0.04-1.33-0.08-2.69-0.16-4.08z"/>
<g class="cls-2">
<path class="cls-3" d="M2380.81,3538.83c.29,15.7-14.19,27.66-32.34,27a2653.09,2653.09,0,0,0-266.36,3.1c-33.88,2.08-61.71-19.27-62.24-48.63q-.52-28.71-1-57.42c0-1.37,0-2.73.13-4.08a31.16,31.16,0,0,1-.26-3.49l-.93-51.66a31.51,31.51,0,0,1,.55-6.48l.38,20.64a31.16,31.16,0,0,0,.26,3.49c-.1,1.35-.15,2.71-.13,4.08q.51,28.71,1,57.42c.53,29.36,28.36,50.71,62.24,48.63a2653.09,2653.09,0,0,1,266.36-3.1c15.81.62,28.83-8.38,31.74-21.08,0,.8.06,1.58.07,2.38Q2380.55,3524.2,2380.81,3538.83Z"/>
<path class="cls-3" d="m1979.1 3461.8v1.33q0 28.73 0 57.42c0 29.37-27.47 51.2-61.38 49.72a2650.2 2650.2 0 0 0-266.37 1.55c-18.13 1-32.82-10.69-32.81-26.39q0-14.62 0-29.25c0-1.79 0-3.56 0.15-5.33 1.7 14.2 15.67 24.42 32.65 23.47a2650.2 2650.2 0 0 1 266.37-1.55c33.91 1.48 61.37-20.35 61.38-49.72-0.01-7.04 0.01-14.16 0.01-21.25z"/>
</g>
</svg>
