<svg xmlns="http://www.w3.org/2000/svg" viewBox="0 0 4000 4000">
    <defs>
        <style>.cls-1{fill:#fff;}.cls-2,.cls-3{fill:#333;}.cls-3{stroke:#333;stroke-miterlimit:10;stroke-width:5px;opacity:0.6;}</style>
    </defs>
    <title>shoe5</title>
    <g id="shoe5">
        <path class="cls-1" d="M2352.4,3505.21a73.53,73.53,0,0,1-4.32,16.51c-.15.39-.31.8-.48,1.2a71.52,71.52,0,0,1-4.47,9.08h0a68.26,68.26,0,0,1-9.78,13,65.51,65.51,0,0,1-9.77,8.29c-.81.56-1.63,1.1-2.47,1.61-.52.34-1.05.66-1.58,1s-1.07.61-1.61.91c-1.16.63-2.32,1.22-3.5,1.78-.5.23-1,.47-1.51.68s-.94.41-1.41.59l-.28.11c-.41.18-.83.33-1.25.49s-1,.36-1.47.53-1.18.4-1.77.59c-.83.26-1.68.51-2.51.72l-1.08.27c-.3.09-.62.17-.93.23s-.46.11-.7.15-.73.17-1.09.23a.78.78,0,0,1-.21,0c-.91.18-1.81.33-2.72.47l-1,.14-1.38.16H2295a1.84,1.84,0,0,1-.33,0c-.43.05-.87.1-1.3.13l-.84.05c-1.18.07-2.35.11-3.54.11a58.79,58.79,0,0,1-23.18-4.75q-1.34-.56-2.67-1.2a112.47,112.47,0,0,0-12.5-5.06c-18.54-6.32-40.31-9.09-61.86-9.51q-4.89-.11-9.73,0c-7.71.08-15.32.46-22.69,1.05h0c-1.26.11-2.52.21-3.76.33h0a281.26,281.26,0,0,0-42.37,7c-4.61,1.16-8.74,2.41-12.28,3.67l-.53.18a59.71,59.71,0,0,1-13.25,3,57.47,57.47,0,0,1-8.19.31c-.37,0-.73,0-1.1-.05s-.93,0-1.39-.08-1.05-.08-1.58-.14l-.41,0-1.11-.13-1-.14c-.57-.08-1.14-.18-1.71-.28-.26,0-.52-.08-.79-.14l-.4-.08a8.15,8.15,0,0,1-.83-.17q-1-.2-2-.45c-.5-.12-1-.25-1.48-.39-.3-.07-.58-.16-.87-.24-1.21-.34-2.42-.73-3.6-1.16l-1.85-.69-.41-.17c-.41-.17-.84-.34-1.26-.53s-.52-.22-.79-.35-.77-.34-1.16-.53l-.83-.4c-.3-.15-.61-.3-.9-.46h0c-.86-.42-1.69-.88-2.51-1.36h0c-.53-.3-1.06-.61-1.58-.93s-1.06-.65-1.58-1a62.81,62.81,0,0,1-7.26-5.52h0a66.54,66.54,0,0,1-11.63-13.33A69.88,69.88,0,0,1,2020,3520a72.29,72.29,0,0,1-3.12-8.3,75.64,75.64,0,0,1-1.94-7.82,74.83,74.83,0,0,1,.15-29,73.86,73.86,0,0,1,5.15-15.94,71.62,71.62,0,0,1,5.79-10.35,67.59,67.59,0,0,1,11.8-13.34,62.27,62.27,0,0,1,19.8-11.61c2.76-1,5.7-2,8.79-2.93,5.3-1.65,11.05-3.24,17.2-4.74,5-1.21,10.24-2.38,15.72-3.45h0c3.11-.62,6.3-1.21,9.55-1.76h0a437.85,437.85,0,0,1,73.44-6.26,367.43,367.43,0,0,1,70.49,6.51c3.66.71,7.29,1.49,10.92,2.35h0c4.9,1.14,9.77,2.42,14.57,3.83q8.58,2.49,16.9,5.56c6.69,2.47,13.26,5.23,19.66,8.29a63.13,63.13,0,0,1,12.24,7.69,66.11,66.11,0,0,1,11.58,12,70.75,70.75,0,0,1,4.78,7.28,72.67,72.67,0,0,1,6.87,16.46A75.06,75.06,0,0,1,2352.4,3505.21Z" />
        <path class="cls-1" d="M1984.33,3503.84a75.64,75.64,0,0,1-1.94,7.82,71.6,71.6,0,0,1-3.12,8.3,68.91,68.91,0,0,1-5.76,10.48,66.88,66.88,0,0,1-11.63,13.34h0a64,64,0,0,1-7.26,5.52c-.52.34-1,.67-1.58,1s-1.06.63-1.59.92h0c-.82.48-1.65.94-2.51,1.36h0a9.69,9.69,0,0,1-.91.46c-.27.14-.55.28-.82.4s-.78.37-1.16.53l-.79.36-1.27.53-.4.16-1.85.69c-1.18.43-2.39.82-3.6,1.17l-.87.23c-.49.14-1,.28-1.48.39-.66.17-1.34.33-2,.46-.27.06-.56.12-.84.16l-.39.08-.79.15q-.86.15-1.71.27l-1,.14c-.37.06-.75.1-1.12.14l-.4,0c-.53.05-1.05.1-1.59.13s-.91.07-1.38.08-.74,0-1.1.05a57.66,57.66,0,0,1-8.2-.3,59.62,59.62,0,0,1-13.24-3l-.53-.19c-3.54-1.26-7.67-2.51-12.28-3.67a281.62,281.62,0,0,0-42.38-7h0c-1.24-.12-2.5-.22-3.76-.32h0c-7.37-.6-15-1-22.69-1.05q-4.85-.09-9.73,0c-21.55.41-43.32,3.18-61.87,9.51a111.17,111.17,0,0,0-12.49,5.06c-.89.42-1.78.82-2.68,1.19a58.31,58.31,0,0,1-23.18,4.75c-1.18,0-2.35,0-3.54-.11l-.83-.05c-.43,0-.87-.07-1.3-.12l-.34,0h-.15c-.46-.05-.92-.1-1.38-.17l-1-.14c-.9-.13-1.8-.28-2.71-.47a.78.78,0,0,1-.21,0c-.36-.06-.73-.14-1.1-.22s-.46-.1-.69-.16-.63-.14-.94-.22-.71-.17-1.07-.28c-.84-.21-1.68-.46-2.51-.72-.59-.18-1.18-.38-1.78-.58l-1.47-.53-1.25-.49-.28-.11-1.4-.6c-.5-.21-1-.45-1.51-.68-1.19-.55-2.35-1.14-3.5-1.78q-.81-.43-1.62-.9c-.53-.32-1.06-.64-1.58-1-.83-.51-1.66-1.05-2.47-1.61a65.58,65.58,0,0,1-9.77-8.3,67.9,67.9,0,0,1-9.77-13h0a69,69,0,0,1-4.48-9.08q-.25-.6-.48-1.2a74.07,74.07,0,0,1-4.32-16.51,75.06,75.06,0,0,1,2-30.82,73.13,73.13,0,0,1,6.87-16.46,70.75,70.75,0,0,1,4.78-7.28,66.45,66.45,0,0,1,11.58-12,63.21,63.21,0,0,1,12.25-7.69c6.39-3.07,13-5.82,19.66-8.29q8.33-3.08,16.89-5.56c4.81-1.42,9.68-2.69,14.57-3.84h0c3.64-.85,7.27-1.64,10.93-2.34a367.43,367.43,0,0,1,70.49-6.51,439.16,439.16,0,0,1,73.45,6.25h0q4.89.82,9.56,1.77h0q8.22,1.61,15.71,3.45c6.15,1.5,11.91,3.09,17.2,4.74q4.65,1.44,8.8,2.93a62.27,62.27,0,0,1,19.8,11.61,67.82,67.82,0,0,1,11.8,13.33,72.26,72.26,0,0,1,5.79,10.36,73.86,73.86,0,0,1,5.15,15.94A74.83,74.83,0,0,1,1984.33,3503.84Z" />
        <path class="cls-2" d="M1762,3403.65a8.75,8.75,0,0,1-9.63,1.56Q1757.15,3404.35,1762,3403.65Z" />
        <path class="cls-2" d="M1793.83,3400.47a8.6,8.6,0,0,1-2.23,3.23,8.76,8.76,0,0,1-13.48-2C1783.36,3401.16,1788.61,3400.76,1793.83,3400.47Z" />
        <path class="cls-2" d="M1823.72,3399.87a8.77,8.77,0,0,1-8.37,6.14,8.79,8.79,0,0,1-8.35-6.08Q1815.43,3399.74,1823.72,3399.87Z" />
        <path class="cls-2" d="M1852.79,3401.31a8.85,8.85,0,0,1-2.46,2.91,8.78,8.78,0,0,1-13.54-3.94Q1844.91,3400.66,1852.79,3401.31Z" />
        <path class="cls-2" d="M1879.77,3404.39a8.78,8.78,0,0,1-11.84-1.56C1872,3403.3,1875.9,3403.83,1879.77,3404.39Z" />
        <path class="cls-2" d="M1693,3422.42a8.75,8.75,0,0,1-3.25,4.85,8.83,8.83,0,0,1-5.24,1.74,8.73,8.73,0,0,1-3.75-.84c1.14-.63,2.3-1.22,3.48-1.79Q1688.6,3424.31,1693,3422.42Z" />
        <path class="cls-2" d="M1723,3420.24a8.77,8.77,0,0,1-17.52.62c0-.2,0-.41,0-.62a8.77,8.77,0,0,1,.48-2.87q6.55-2.37,13.25-4.36a8.84,8.84,0,0,1,3.63,5.44A8.84,8.84,0,0,1,1723,3420.24Z" />
        <circle class="cls-2" cx="1743.87" cy="3420.23" r="8.77" />
        <circle class="cls-2" cx="1773.55" cy="3420.23" r="8.77" />
        <circle class="cls-2" cx="1803.22" cy="3420.23" r="8.77" />
        <circle class="cls-2" cx="1832.89" cy="3420.23" r="8.77" />
        <circle class="cls-2" cx="1862.56" cy="3420.23" r="8.77" />
        <circle class="cls-2" cx="1892.24" cy="3420.23" r="8.77" />
        <path class="cls-2" d="M1930.68,3420.24a8.27,8.27,0,0,1-.16,1.66,8.76,8.76,0,1,1-11.81-9.83q5.28,1.36,10.12,2.78a8.76,8.76,0,0,1,1.85,5.39Z" />
        <path class="cls-2" d="M1957.06,3427.09a8.77,8.77,0,0,1-14.25-6.85,6.34,6.34,0,0,1,0-.76A66.83,66.83,0,0,1,1957.06,3427.09Z" />
        <path class="cls-2" d="M1675.76,3443.23A8.77,8.77,0,0,1,1667,3452a8.76,8.76,0,0,1-6-2.4,8.47,8.47,0,0,1-1.9-2.6,70.76,70.76,0,0,1,11.39-11.82,8.57,8.57,0,0,1,2.7,1.82,9,9,0,0,1,1.8,2.56A8.83,8.83,0,0,1,1675.76,3443.23Z" />
        <circle class="cls-2" cx="1696.66" cy="3443.23" r="8.77" />
        <circle class="cls-2" cx="1726.33" cy="3443.23" r="8.77" />
        <circle class="cls-2" cx="1756.01" cy="3443.23" r="8.77" />
        <circle class="cls-2" cx="1785.68" cy="3443.23" r="8.77" />
        <circle class="cls-2" cx="1815.35" cy="3443.23" r="8.77" />
        <circle class="cls-2" cx="1845.02" cy="3443.23" r="8.77" />
        <circle class="cls-2" cx="1874.69" cy="3443.23" r="8.77" />
        <circle class="cls-2" cx="1904.37" cy="3443.23" r="8.77" />
        <circle class="cls-2" cx="1934.04" cy="3443.23" r="8.77" />
        <path class="cls-2" d="M1972.48,3443.23a9,9,0,0,1-.55,3.08,8.62,8.62,0,0,1-1.82,2.91,8.76,8.76,0,1,1-11.56-13.07,8.28,8.28,0,0,1,3.11-1.44,8.16,8.16,0,0,1,2-.25,8.8,8.8,0,0,1,2.58.38h0a70.11,70.11,0,0,1,6,6.85v0A8.32,8.32,0,0,1,1972.48,3443.23Z" />
        <path class="cls-2" d="M1663.63,3466.23a8.79,8.79,0,0,1-11.44,8.36,8.85,8.85,0,0,1-5.17-4.42,78.77,78.77,0,0,1,5.13-12.28h0a9,9,0,0,1,2.71-.42,8.22,8.22,0,0,1,1,.06,8.45,8.45,0,0,1,3.07.94A8.75,8.75,0,0,1,1663.63,3466.23Z" />
        <circle class="cls-2" cx="1684.53" cy="3466.22" r="8.77" />
        <circle class="cls-2" cx="1714.2" cy="3466.22" r="8.77" />
        <circle class="cls-2" cx="1743.87" cy="3466.22" r="8.77" />
        <circle class="cls-2" cx="1773.55" cy="3466.22" r="8.77" />
        <circle class="cls-2" cx="1803.22" cy="3466.22" r="8.77" />
        <circle class="cls-2" cx="1832.89" cy="3466.22" r="8.77" />
        <circle class="cls-2" cx="1862.56" cy="3466.22" r="8.77" />
        <circle class="cls-2" cx="1892.24" cy="3466.22" r="8.77" />
        <circle class="cls-2" cx="1921.91" cy="3466.22" r="8.77" />
        <circle class="cls-2" cx="1951.58" cy="3466.22" r="8.77" />
        <path class="cls-2" d="M1986.79,3473a8.77,8.77,0,0,1-2.83,1.55,8.94,8.94,0,0,1-2.71.42h-.41a8.77,8.77,0,0,1,.41-17.53h.5A78.37,78.37,0,0,1,1986.79,3473Z" />
        <path class="cls-2" d="M1646.09,3489.22a8.74,8.74,0,0,1-2.87,6.49,79.91,79.91,0,0,1,.76-12.19A8.69,8.69,0,0,1,1646.09,3489.22Z" />
        <circle class="cls-2" cx="1666.99" cy="3489.22" r="8.77" />
        <circle class="cls-2" cx="1696.66" cy="3489.22" r="8.77" />
        <circle class="cls-2" cx="1726.33" cy="3489.22" r="8.77" />
        <circle class="cls-2" cx="1756.01" cy="3489.22" r="8.77" />
        <circle class="cls-2" cx="1785.68" cy="3489.22" r="8.77" />
        <circle class="cls-2" cx="1815.35" cy="3489.22" r="8.77" />
        <circle class="cls-2" cx="1845.02" cy="3489.22" r="8.77" />
        <circle class="cls-2" cx="1874.69" cy="3489.22" r="8.77" />
        <circle class="cls-2" cx="1904.37" cy="3489.22" r="8.77" />
        <circle class="cls-2" cx="1934.04" cy="3489.22" r="8.77" />
        <circle class="cls-2" cx="1963.71" cy="3489.22" r="8.77" />
        <path class="cls-2" d="M1988.27,3496.35a8.81,8.81,0,0,1-2.9-3.55,8.81,8.81,0,0,1,0-7.09,8.83,8.83,0,0,1,2.86-3.56A80.13,80.13,0,0,1,1988.27,3496.35Z" />
        <circle class="cls-2" cx="1654.86" cy="3512.22" r="8.77" />
        <circle class="cls-2" cx="1684.53" cy="3512.22" r="8.77" />
        <circle class="cls-2" cx="1714.2" cy="3512.22" r="8.77" />
        <circle class="cls-2" cx="1743.87" cy="3512.22" r="8.77" />
        <circle class="cls-2" cx="1773.55" cy="3512.22" r="8.77" />
        <circle class="cls-2" cx="1803.22" cy="3512.22" r="8.77" />
        <circle class="cls-2" cx="1832.89" cy="3512.22" r="8.77" />
        <circle class="cls-2" cx="1862.56" cy="3512.22" r="8.77" />
        <circle class="cls-2" cx="1892.24" cy="3512.22" r="8.77" />
        <circle class="cls-2" cx="1921.91" cy="3512.22" r="8.77" />
        <circle class="cls-2" cx="1951.58" cy="3512.22" r="8.77" />
        <path class="cls-2" d="M1987,3505.55h0c-.51,2.48-1.14,4.93-1.89,7.39a76.86,76.86,0,0,1-2.94,8,6.35,6.35,0,0,1-.87,0,8.79,8.79,0,0,1-2.42-.34,8.59,8.59,0,0,1-2.81-1.39,8.77,8.77,0,0,1,5-15.8h.27a8.57,8.57,0,0,1,2.83.47A8.77,8.77,0,0,1,1987,3505.55Z" />
        <circle class="cls-2" cx="1666.99" cy="3535.21" r="8.77" />
        <circle class="cls-2" cx="1696.66" cy="3535.21" r="8.77" />
        <circle class="cls-2" cx="1726.33" cy="3535.21" r="8.77" />
        <circle class="cls-2" cx="1756.01" cy="3535.21" r="8.77" />
        <circle class="cls-2" cx="1785.68" cy="3535.21" r="8.77" />
        <circle class="cls-2" cx="1815.35" cy="3535.21" r="8.77" />
        <circle class="cls-2" cx="1845.02" cy="3535.21" r="8.77" />
        <circle class="cls-2" cx="1874.69" cy="3535.21" r="8.77" />
        <circle class="cls-2" cx="1904.37" cy="3535.21" r="8.77" />
        <circle class="cls-2" cx="1934.04" cy="3535.21" r="8.77" />
        <path class="cls-2" d="M1972.48,3535.22a8.8,8.8,0,0,1-.38,2.58c-1.48,1.87-3,3.67-4.68,5.37a8.69,8.69,0,0,1-3.71.82,8.93,8.93,0,0,1-1.47-.12,8.58,8.58,0,0,1-3.26-1.27h0a8.76,8.76,0,1,1,13.12-10A9,9,0,0,1,1972.48,3535.22Z" />
        <path class="cls-2" d="M1693.3,3558.21a8.28,8.28,0,0,1-.09,1.23,8.39,8.39,0,0,1-1,3,8.64,8.64,0,0,1-2.1,2.55,65,65,0,0,1-10.89-5.12c-1.18-.69-2.33-1.41-3.46-2.17a7.9,7.9,0,0,1,.15-1.19,8.44,8.44,0,0,1,.68-2,8.59,8.59,0,0,1,1.82-2.52,8.73,8.73,0,0,1,12.35.15,8.74,8.74,0,0,1,2.52,6.14Z" />
        <circle class="cls-2" cx="1714.2" cy="3558.21" r="8.77" />
        <path class="cls-2" d="M1752.62,3557.6a107,107,0,0,0-12.2,4.91c-1.06.51-2.12,1-3.19,1.43a8.6,8.6,0,0,1-2.13-5.73V3558a8.77,8.77,0,0,1,14.87-6.13,8.83,8.83,0,0,1,2.65,5.69Z" />
        <path class="cls-2" d="M1779,3551.35c-4.44.68-8.81,1.51-13.06,2.5a8.76,8.76,0,0,1,13.06-2.5Z" />
        <path class="cls-2" d="M1869.83,3553.31c-4-.72-8.32-1.38-12.74-1.95a8.76,8.76,0,0,1,12.74,1.95Z" />
        <path class="cls-2" d="M1901,3558.09v.12a8.74,8.74,0,0,1-.52,3c-1-.3-2-.62-2.92-1a138,138,0,0,0-13.87-4,8.41,8.41,0,0,1,1.28-2.9,8.75,8.75,0,0,1,7.25-3.85,8.79,8.79,0,0,1,8,5.08A8.89,8.89,0,0,1,1901,3558.09Z" />
        <path class="cls-2" d="M1930.68,3558.21a8.84,8.84,0,0,1-1.63,5.09,64.38,64.38,0,0,1-13.8.61h0a8.74,8.74,0,0,1-2.1-5.7,6.34,6.34,0,0,1,0-.76,8.77,8.77,0,0,1,17.37-.76h0A8.32,8.32,0,0,1,1930.68,3558.21Z" />
        <path class="cls-2" d="M1957.48,3551.73c-1.27.91-2.58,1.77-3.91,2.59a65.46,65.46,0,0,1-10.65,5.27,9,9,0,0,1-.11-1.38,8.4,8.4,0,0,1,.24-2,8.75,8.75,0,0,1,3.18-4.93h0a8.48,8.48,0,0,1,2.46-1.33h0a8.78,8.78,0,0,1,5.81.05A8.8,8.8,0,0,1,1957.48,3551.73Z" />
        <path class="cls-2" d="M1988.2,3482.15a81.23,81.23,0,0,0-1.41-9.12,78.37,78.37,0,0,0-5-15.56,76.23,76.23,0,0,0-9.4-15.75v0a70.11,70.11,0,0,0-6-6.85h0a68.51,68.51,0,0,0-9.23-7.75,66.83,66.83,0,0,0-14.21-7.61c-.53-.21-1.06-.41-1.6-.6-3.82-1.37-8-2.72-12.42-4q-4.83-1.42-10.12-2.78a382.11,382.11,0,0,0-38.94-7.68c-3.87-.56-7.82-1.09-11.84-1.56q-7.42-.87-15.14-1.52-7.87-.64-16-1-6.46-.32-13.07-.41-8.28-.13-16.72.06-6.55.15-13.17.54c-5.22.29-10.47.69-15.71,1.21s-10.76,1.19-16.13,2h0q-4.83.7-9.63,1.56h0a292.26,292.26,0,0,0-33.18,7.8q-6.69,2-13.25,4.36t-12.89,5.05q-4.43,1.89-8.76,4c-1.18.57-2.34,1.16-3.48,1.79a67.87,67.87,0,0,0-10.32,7,70.76,70.76,0,0,0-11.39,11.82,73.87,73.87,0,0,0-6.92,10.88h0a78.77,78.77,0,0,0-5.13,12.28,80.23,80.23,0,0,0-3.8,25.54,78.76,78.76,0,0,0,5.87,28.82,72.51,72.51,0,0,0,25.84,32.57l.85.57c1.13.76,2.28,1.48,3.46,2.17a66.33,66.33,0,0,0,33.14,9.11,64.14,64.14,0,0,0,24.85-5c1.07-.45,2.13-.92,3.19-1.43a107,107,0,0,1,12.2-4.91,136.16,136.16,0,0,1,13.32-3.75h0c4.25-1,8.62-1.82,13.06-2.5,25.82-4,54.26-3.11,78.08,0,4.42.57,8.69,1.23,12.74,1.95,5,.88,9.61,1.84,13.87,2.88a138,138,0,0,1,13.87,4c1,.35,1.94.67,2.92,1a64.7,64.7,0,0,0,14.75,2.71h0a65.26,65.26,0,0,0,26-3.69c.55-.2,1.1-.4,1.65-.62h0a65.46,65.46,0,0,0,10.65-5.27c1.33-.82,2.64-1.68,3.91-2.59l.33-.23a69.19,69.19,0,0,0,9.61-8.33c1.64-1.7,3.2-3.5,4.68-5.37l.78-1a75.47,75.47,0,0,0,9.24-15.86,76.86,76.86,0,0,0,2.94-8c.75-2.46,1.38-4.91,1.89-7.39h0a79.76,79.76,0,0,0,1.25-23.4Zm-7.22,21.31a72.57,72.57,0,0,1-1.9,7.66,69.53,69.53,0,0,1-3.06,8.14,68,68,0,0,1-5.64,10.27,65.72,65.72,0,0,1-11.4,13.07h0a62.35,62.35,0,0,1-7.12,5.41c-.51.34-1,.66-1.55,1s-1,.62-1.55.91h0c-.81.47-1.62.92-2.46,1.33h0c-.29.16-.59.31-.89.45s-.54.27-.81.39-.76.36-1.14.52-.51.24-.77.35l-1.24.52-.4.16-1.81.68c-1.16.42-2.34.8-3.53,1.14l-.85.23c-.48.14-1,.27-1.45.38-.65.17-1.31.32-2,.45-.27.06-.55.12-.82.16l-.39.08c-.26.06-.52.1-.77.14q-.84.15-1.68.27l-1,.14-1.09.13-.4,0c-.52.05-1,.1-1.55.13s-.9.07-1.36.08-.72,0-1.08.05a56.75,56.75,0,0,1-8-.3,58.4,58.4,0,0,1-13-2.93l-.52-.18c-3.47-1.24-7.52-2.46-12-3.6a275.84,275.84,0,0,0-41.53-6.82h0c-1.22-.12-2.45-.22-3.69-.32h0c-7.22-.58-14.68-1-22.24-1q-4.74-.07-9.53,0c-21.13.41-42.46,3.12-60.64,9.32a110.69,110.69,0,0,0-12.25,5c-.87.42-1.74.81-2.62,1.17a57.41,57.41,0,0,1-22.72,4.66c-1.16,0-2.31,0-3.47-.11l-.82-.05c-.42,0-.85-.07-1.27-.12a1.84,1.84,0,0,1-.33,0h-.15l-1.35-.16-1-.14c-.89-.13-1.77-.28-2.66-.46a.78.78,0,0,1-.21,0c-.35-.06-.71-.14-1.07-.22s-.45-.09-.68-.15-.62-.14-.92-.22-.7-.17-1-.27c-.82-.21-1.65-.45-2.46-.71l-1.74-.57-1.44-.52c-.41-.16-.82-.31-1.23-.48l-.27-.11c-.46-.18-.92-.38-1.38-.58s-1-.44-1.48-.67c-1.16-.54-2.3-1.12-3.43-1.74-.53-.29-1.06-.58-1.58-.89s-1-.62-1.55-.95c-.82-.5-1.63-1-2.42-1.58a64.07,64.07,0,0,1-9.58-8.13,66.67,66.67,0,0,1-9.58-12.72h0a70.07,70.07,0,0,1-4.39-8.9c-.16-.39-.32-.79-.47-1.18a72.19,72.19,0,0,1-4.23-16.18,73.51,73.51,0,0,1,2-30.21,71.51,71.51,0,0,1,6.73-16.13,69.13,69.13,0,0,1,4.69-7.14,64.8,64.8,0,0,1,11.35-11.76,61.93,61.93,0,0,1,12-7.54c6.27-3,12.71-5.7,19.27-8.12q8.16-3,16.56-5.45,7.07-2.09,14.28-3.76h0c3.56-.84,7.12-1.61,10.71-2.3a360,360,0,0,1,69.09-6.38,429.83,429.83,0,0,1,72,6.13h0c3.19.54,6.32,1.12,9.37,1.73h0c5.37,1.05,10.51,2.19,15.4,3.38,6,1.47,11.67,3,16.86,4.65,3,.94,5.91,1.9,8.62,2.87a61.19,61.19,0,0,1,19.41,11.38,66.06,66.06,0,0,1,11.56,13.07,70.34,70.34,0,0,1,5.68,10.15,73.27,73.27,0,0,1,5.19,44.09Z" />
        <path class="cls-3" d="M1951.94,3551.65a61.47,61.47,0,0,1-53.31,5.63c-31.71-11.36-112.15-20.29-159.56,2.41a61.63,61.63,0,0,1-26.69,6.13,62.4,62.4,0,0,1-31.56-8.68,63.45,63.45,0,0,1,5.8-3.15c85.84-41.09,201.7-26.32,254.59-7.37A63.79,63.79,0,0,1,1951.94,3551.65Z" />
        <path class="cls-2" d="M2237.25,3403.65a8.75,8.75,0,0,0,9.63,1.56Q2242.08,3404.35,2237.25,3403.65Z" />
        <path class="cls-2" d="M2205.4,3400.47a8.6,8.6,0,0,0,2.23,3.23,8.76,8.76,0,0,0,13.48-2C2215.87,3401.16,2210.62,3400.76,2205.4,3400.47Z" />
        <path class="cls-2" d="M2175.51,3399.87a8.77,8.77,0,0,0,8.37,6.14,8.79,8.79,0,0,0,8.35-6.08Q2183.8,3399.74,2175.51,3399.87Z" />
        <path class="cls-2" d="M2146.44,3401.31a8.85,8.85,0,0,0,2.46,2.91,8.78,8.78,0,0,0,13.54-3.94Q2154.33,3400.66,2146.44,3401.31Z" />
        <path class="cls-2" d="M2119.46,3404.39a8.78,8.78,0,0,0,11.84-1.56C2127.28,3403.3,2123.33,3403.83,2119.46,3404.39Z" />
        <path class="cls-2" d="M2306.21,3422.42a8.75,8.75,0,0,0,3.25,4.85,8.83,8.83,0,0,0,5.24,1.74,8.73,8.73,0,0,0,3.75-.84c-1.14-.63-2.3-1.22-3.48-1.79Q2310.64,3424.31,2306.21,3422.42Z" />
        <path class="cls-2" d="M2276.26,3420.24a8.77,8.77,0,0,0,17.52.62c0-.2,0-.41,0-.62a8.77,8.77,0,0,0-.48-2.87q-6.56-2.37-13.25-4.36a8.84,8.84,0,0,0-3.63,5.44A8.84,8.84,0,0,0,2276.26,3420.24Z" />
        <circle class="cls-2" cx="2255.36" cy="3420.23" r="8.77" />
        <circle class="cls-2" cx="2225.69" cy="3420.23" r="8.77" />
        <circle class="cls-2" cx="2196.01" cy="3420.23" r="8.77" />
        <circle class="cls-2" cx="2166.34" cy="3420.23" r="8.77" />
        <circle class="cls-2" cx="2136.67" cy="3420.23" r="8.77" />
        <circle class="cls-2" cx="2107" cy="3420.23" r="8.77" />
        <path class="cls-2" d="M2068.55,3420.24a8.27,8.27,0,0,0,.16,1.66,8.76,8.76,0,1,0,11.81-9.83q-5.28,1.36-10.12,2.78a8.76,8.76,0,0,0-1.85,5.39Z" />
        <path class="cls-2" d="M2042.17,3427.09a8.77,8.77,0,0,0,14.25-6.85,6.34,6.34,0,0,0,0-.76A66.83,66.83,0,0,0,2042.17,3427.09Z" />
        <path class="cls-2" d="M2323.47,3443.23a8.77,8.77,0,0,0,8.77,8.77,8.76,8.76,0,0,0,6-2.4,8.47,8.47,0,0,0,1.9-2.6,70.76,70.76,0,0,0-11.39-11.82,8.57,8.57,0,0,0-2.7,1.82,9,9,0,0,0-1.8,2.56A8.83,8.83,0,0,0,2323.47,3443.23Z" />
        <circle class="cls-2" cx="2302.57" cy="3443.23" r="8.77" />
        <circle class="cls-2" cx="2272.9" cy="3443.23" r="8.77" />
        <circle class="cls-2" cx="2243.23" cy="3443.23" r="8.77" />
        <circle class="cls-2" cx="2213.55" cy="3443.23" r="8.77" />
        <circle class="cls-2" cx="2183.88" cy="3443.23" r="8.77" />
        <circle class="cls-2" cx="2154.21" cy="3443.23" r="8.77" />
        <circle class="cls-2" cx="2124.54" cy="3443.23" r="8.77" />
        <circle class="cls-2" cx="2094.87" cy="3443.23" r="8.77" />
        <circle class="cls-2" cx="2065.19" cy="3443.23" r="8.77" />
        <path class="cls-2" d="M2026.75,3443.23a9,9,0,0,0,.55,3.08,8.62,8.62,0,0,0,1.82,2.91,8.76,8.76,0,1,0,11.56-13.07,8.28,8.28,0,0,0-3.11-1.44,8.16,8.16,0,0,0-2-.25,8.8,8.8,0,0,0-2.58.38h0a70.11,70.11,0,0,0-6,6.85v0A8.32,8.32,0,0,0,2026.75,3443.23Z" />
        <path class="cls-2" d="M2335.6,3466.23a8.79,8.79,0,0,0,11.44,8.36,8.85,8.85,0,0,0,5.17-4.42,78.77,78.77,0,0,0-5.13-12.28h0a9,9,0,0,0-2.71-.42,8.22,8.22,0,0,0-1,.06,8.45,8.45,0,0,0-3.07.94A8.75,8.75,0,0,0,2335.6,3466.23Z" />
        <circle class="cls-2" cx="2314.7" cy="3466.22" r="8.77" />
        <circle class="cls-2" cx="2285.03" cy="3466.22" r="8.77" />
        <circle class="cls-2" cx="2255.36" cy="3466.22" r="8.77" />
        <circle class="cls-2" cx="2225.69" cy="3466.22" r="8.77" />
        <circle class="cls-2" cx="2196.01" cy="3466.22" r="8.77" />
        <circle class="cls-2" cx="2166.34" cy="3466.22" r="8.77" />
        <circle class="cls-2" cx="2136.67" cy="3466.22" r="8.77" />
        <circle class="cls-2" cx="2107" cy="3466.22" r="8.77" />
        <circle class="cls-2" cx="2077.32" cy="3466.22" r="8.77" />
        <circle class="cls-2" cx="2047.65" cy="3466.22" r="8.77" />
        <path class="cls-2" d="M2012.44,3473a8.77,8.77,0,0,0,2.83,1.55,8.94,8.94,0,0,0,2.71.42h.41a8.77,8.77,0,0,0-.41-17.53h-.5A78.37,78.37,0,0,0,2012.44,3473Z" />
        <path class="cls-2" d="M2353.14,3489.22a8.74,8.74,0,0,0,2.87,6.49,79.91,79.91,0,0,0-.76-12.19A8.69,8.69,0,0,0,2353.14,3489.22Z" />
        <circle class="cls-2" cx="2332.24" cy="3489.22" r="8.77" />
        <circle class="cls-2" cx="2302.57" cy="3489.22" r="8.77" />
        <circle class="cls-2" cx="2272.9" cy="3489.22" r="8.77" />
        <circle class="cls-2" cx="2243.23" cy="3489.22" r="8.77" />
        <circle class="cls-2" cx="2213.55" cy="3489.22" r="8.77" />
        <circle class="cls-2" cx="2183.88" cy="3489.22" r="8.77" />
        <circle class="cls-2" cx="2154.21" cy="3489.22" r="8.77" />
        <circle class="cls-2" cx="2124.54" cy="3489.22" r="8.77" />
        <circle class="cls-2" cx="2094.87" cy="3489.22" r="8.77" />
        <circle class="cls-2" cx="2065.19" cy="3489.22" r="8.77" />
        <circle class="cls-2" cx="2035.52" cy="3489.22" r="8.77" />
        <path class="cls-2" d="M2011,3496.35a8.81,8.81,0,0,0,2.9-3.55,8.81,8.81,0,0,0,0-7.09,8.83,8.83,0,0,0-2.86-3.56A80.13,80.13,0,0,0,2011,3496.35Z" />
        <circle class="cls-2" cx="2344.37" cy="3512.22" r="8.77" />
        <circle class="cls-2" cx="2314.7" cy="3512.22" r="8.77" />
        <circle class="cls-2" cx="2285.03" cy="3512.22" r="8.77" />
        <circle class="cls-2" cx="2255.36" cy="3512.22" r="8.77" />
        <circle class="cls-2" cx="2225.69" cy="3512.22" r="8.77" />
        <circle class="cls-2" cx="2196.01" cy="3512.22" r="8.77" />
        <circle class="cls-2" cx="2166.34" cy="3512.22" r="8.77" />
        <circle class="cls-2" cx="2136.67" cy="3512.22" r="8.77" />
        <circle class="cls-2" cx="2107" cy="3512.22" r="8.77" />
        <circle class="cls-2" cx="2077.32" cy="3512.22" r="8.77" />
        <circle class="cls-2" cx="2047.65" cy="3512.22" r="8.77" />
        <path class="cls-2" d="M2012.28,3505.55h0c.51,2.48,1.14,4.93,1.89,7.39a76.86,76.86,0,0,0,2.94,8,6.35,6.35,0,0,0,.87,0,8.79,8.79,0,0,0,2.42-.34,8.59,8.59,0,0,0,2.81-1.39,8.77,8.77,0,0,0-5-15.8H2018a8.57,8.57,0,0,0-2.83.47A8.77,8.77,0,0,0,2012.28,3505.55Z" />
        <circle class="cls-2" cx="2332.24" cy="3535.21" r="8.77" />
        <circle class="cls-2" cx="2302.57" cy="3535.21" r="8.77" />
        <circle class="cls-2" cx="2272.9" cy="3535.21" r="8.77" />
        <circle class="cls-2" cx="2243.23" cy="3535.21" r="8.77" />
        <circle class="cls-2" cx="2213.55" cy="3535.21" r="8.77" />
        <circle class="cls-2" cx="2183.88" cy="3535.21" r="8.77" />
        <circle class="cls-2" cx="2154.21" cy="3535.21" r="8.77" />
        <circle class="cls-2" cx="2124.54" cy="3535.21" r="8.77" />
        <circle class="cls-2" cx="2094.87" cy="3535.21" r="8.77" />
        <circle class="cls-2" cx="2065.19" cy="3535.21" r="8.77" />
        <path class="cls-2" d="M2026.75,3535.22a8.8,8.8,0,0,0,.38,2.58c1.48,1.87,3,3.67,4.68,5.37a8.69,8.69,0,0,0,3.71.82,8.93,8.93,0,0,0,1.47-.12,8.58,8.58,0,0,0,3.26-1.27h0a8.76,8.76,0,1,0-13.12-10A9,9,0,0,0,2026.75,3535.22Z" />
        <path class="cls-2" d="M2305.93,3558.21a8.28,8.28,0,0,0,.09,1.23,8.39,8.39,0,0,0,1,3,8.64,8.64,0,0,0,2.1,2.55,65,65,0,0,0,10.89-5.12c1.18-.69,2.33-1.41,3.46-2.17a7.9,7.9,0,0,0-.15-1.19,8.44,8.44,0,0,0-.68-2,8.59,8.59,0,0,0-1.82-2.52,8.73,8.73,0,0,0-12.35.15,8.74,8.74,0,0,0-2.52,6.14Z" />
        <circle class="cls-2" cx="2285.03" cy="3558.21" r="8.77" />
        <path class="cls-2" d="M2246.61,3557.6a107,107,0,0,1,12.2,4.91c1.06.51,2.12,1,3.19,1.43a8.6,8.6,0,0,0,2.13-5.73V3558a8.77,8.77,0,0,0-14.87-6.13,8.83,8.83,0,0,0-2.65,5.69Z" />
        <path class="cls-2" d="M2220.22,3551.35c4.44.68,8.81,1.51,13.06,2.5a8.76,8.76,0,0,0-13.06-2.5Z" />
        <path class="cls-2" d="M2129.4,3553.31c4-.72,8.32-1.38,12.74-1.95a8.76,8.76,0,0,0-12.74,1.95Z" />
        <path class="cls-2" d="M2098.22,3558.09v.12a8.74,8.74,0,0,0,.52,3c1-.3,2-.62,2.92-1a138,138,0,0,1,13.87-4,8.41,8.41,0,0,0-1.28-2.9,8.75,8.75,0,0,0-7.25-3.85,8.79,8.79,0,0,0-8,5.08A8.89,8.89,0,0,0,2098.22,3558.09Z" />
        <path class="cls-2" d="M2068.55,3558.21a8.84,8.84,0,0,0,1.63,5.09,64.38,64.38,0,0,0,13.8.61h0a8.74,8.74,0,0,0,2.1-5.7,6.34,6.34,0,0,0,0-.76,8.77,8.77,0,0,0-17.37-.76h0A8.32,8.32,0,0,0,2068.55,3558.21Z" />
        <path class="cls-2" d="M2041.75,3551.73c1.27.91,2.58,1.77,3.91,2.59a65.46,65.46,0,0,0,10.65,5.27,9,9,0,0,0,.11-1.38,8.4,8.4,0,0,0-.24-2,8.75,8.75,0,0,0-3.18-4.93h0a8.48,8.48,0,0,0-2.46-1.33h0a8.78,8.78,0,0,0-5.81.05A8.8,8.8,0,0,0,2041.75,3551.73Z" />
        <path class="cls-2" d="M2011,3496.35a80.87,80.87,0,0,0,1.32,9.2h0c.51,2.48,1.14,4.93,1.89,7.39a76.86,76.86,0,0,0,2.94,8,75.47,75.47,0,0,0,9.24,15.86l.78,1c1.48,1.87,3,3.67,4.68,5.37a69.19,69.19,0,0,0,9.61,8.33l.33.23c1.27.91,2.58,1.77,3.91,2.59a65.46,65.46,0,0,0,10.65,5.27h0c.55.22,1.1.42,1.65.62a65.26,65.26,0,0,0,26,3.69h0a64.7,64.7,0,0,0,14.75-2.71c1-.3,2-.62,2.92-1a138,138,0,0,1,13.87-4c4.26-1,8.91-2,13.87-2.88,4-.72,8.32-1.38,12.74-1.95,23.82-3.12,52.26-4,78.08,0,4.44.68,8.81,1.51,13.06,2.5h0a136.16,136.16,0,0,1,13.32,3.75,107,107,0,0,1,12.2,4.91c1.06.51,2.12,1,3.19,1.43a64.09,64.09,0,0,0,47.1,1,65,65,0,0,0,10.89-5.12c1.18-.69,2.33-1.41,3.46-2.17l.85-.57a72.51,72.51,0,0,0,25.84-32.57,78.76,78.76,0,0,0,5.87-28.82,80.23,80.23,0,0,0-3.8-25.54,78.77,78.77,0,0,0-5.13-12.28h0a73.87,73.87,0,0,0-6.92-10.88,70.76,70.76,0,0,0-11.39-11.82,67.87,67.87,0,0,0-10.32-7c-1.14-.63-2.3-1.22-3.48-1.79q-4.33-2.07-8.76-4-6.36-2.72-12.89-5.05t-13.25-4.36a292.26,292.26,0,0,0-33.18-7.8h0q-4.8-.86-9.63-1.56h0q-8.05-1.17-16.13-2c-5.24-.52-10.49-.92-15.71-1.21q-6.62-.39-13.17-.54-8.43-.19-16.72-.06-6.6.11-13.07.41-8.11.38-16,1-7.71.64-15.14,1.52c-4,.47-8,1-11.84,1.56a382.11,382.11,0,0,0-38.94,7.68q-5.28,1.36-10.12,2.78c-4.45,1.31-8.6,2.66-12.42,4-.54.19-1.07.39-1.6.6a66.83,66.83,0,0,0-14.21,7.61,68.51,68.51,0,0,0-9.23,7.75h0a70.11,70.11,0,0,0-6,6.85v0a76.23,76.23,0,0,0-9.4,15.75,78.37,78.37,0,0,0-5,15.56,81.23,81.23,0,0,0-1.41,9.12A80.13,80.13,0,0,0,2011,3496.35Zm7.43-21.36a72.74,72.74,0,0,1,5-15.62,70.34,70.34,0,0,1,5.68-10.15,66.06,66.06,0,0,1,11.56-13.07,61.19,61.19,0,0,1,19.41-11.38c2.71-1,5.59-1.93,8.62-2.87,5.19-1.62,10.83-3.18,16.86-4.65,4.89-1.19,10-2.33,15.4-3.38h0c3.05-.61,6.18-1.19,9.37-1.73h0a429.83,429.83,0,0,1,72-6.13,360,360,0,0,1,69.09,6.38c3.59.69,7.15,1.46,10.71,2.3h0q7.2,1.68,14.28,3.76,8.4,2.43,16.56,5.45c6.56,2.42,13,5.12,19.27,8.12a61.93,61.93,0,0,1,12,7.54,64.8,64.8,0,0,1,11.35,11.76,69.13,69.13,0,0,1,4.69,7.14,71.51,71.51,0,0,1,6.73,16.13,73.51,73.51,0,0,1,2,30.21,72.19,72.19,0,0,1-4.23,16.18c-.15.39-.31.79-.47,1.18a70.07,70.07,0,0,1-4.39,8.9h0a66.67,66.67,0,0,1-9.58,12.72,64.07,64.07,0,0,1-9.58,8.13c-.79.55-1.6,1.08-2.42,1.58-.51.33-1,.64-1.55.95s-1,.6-1.58.89c-1.13.62-2.27,1.2-3.43,1.74-.49.23-1,.46-1.48.67s-.92.4-1.38.58l-.27.11c-.41.17-.82.32-1.23.48l-1.44.52-1.74.57c-.81.26-1.64.5-2.46.71q-.53.15-1.05.27c-.3.08-.61.16-.92.22s-.45.11-.68.15-.72.16-1.07.22a.78.78,0,0,1-.21,0c-.89.18-1.77.33-2.66.46l-1,.14-1.35.16h-.15a1.84,1.84,0,0,1-.33,0c-.42,0-.85.09-1.27.12l-.82.05c-1.16.07-2.31.11-3.47.11a57.41,57.41,0,0,1-22.72-4.66c-.88-.36-1.75-.75-2.62-1.17a110.69,110.69,0,0,0-12.25-5c-18.18-6.2-39.51-8.91-60.64-9.32q-4.78-.11-9.53,0c-7.56.08-15,.45-22.24,1h0c-1.24.1-2.47.2-3.69.32h0a275.84,275.84,0,0,0-41.53,6.82c-4.52,1.14-8.57,2.36-12,3.6l-.52.18a58.4,58.4,0,0,1-13,2.93,56.75,56.75,0,0,1-8,.3c-.36,0-.72,0-1.08-.05s-.91,0-1.36-.08-1-.08-1.55-.13l-.4,0-1.09-.13-1-.14q-.84-.12-1.68-.27c-.25,0-.51-.08-.77-.14l-.39-.08c-.27,0-.55-.1-.82-.16-.66-.13-1.32-.28-2-.45-.49-.11-1-.24-1.45-.38l-.85-.23c-1.19-.34-2.37-.72-3.53-1.14l-1.81-.68-.4-.16-1.24-.52c-.26-.11-.51-.22-.77-.35s-.76-.33-1.14-.52-.54-.25-.81-.39-.6-.29-.89-.45h0c-.84-.41-1.65-.86-2.46-1.33h0c-.52-.29-1-.6-1.55-.91s-1-.64-1.55-1a62.35,62.35,0,0,1-7.12-5.41h0a65.72,65.72,0,0,1-11.4-13.07,68,68,0,0,1-5.64-10.27,69.53,69.53,0,0,1-3.06-8.14,73.67,73.67,0,0,1-1.76-36.13Z" />
        <path class="cls-3" d="M2047.3,3551.65a61.46,61.46,0,0,0,53.31,5.63c31.71-11.36,112.15-20.29,159.55,2.41a61.64,61.64,0,0,0,26.7,6.13,62.39,62.39,0,0,0,31.55-8.68,63.28,63.28,0,0,0-5.79-3.15c-85.84-41.09-201.71-26.32-254.6-7.37A63.69,63.69,0,0,0,2047.3,3551.65Z" />
    </g>
</svg>