<?xml version="1.0" encoding="UTF-8"?>
<svg viewBox="0 0 4e3 4e3" xmlns="http://www.w3.org/2000/svg">
<defs>
<style>.cls-1{fill:#010101;}.cls-1,.cls-2,.cls-3{stroke:#333;stroke-linecap:round;stroke-linejoin:round;stroke-width:5px;}.cls-2{fill:#f2f2f2;}.cls-3{fill:#d4145a;}</style>
</defs>
<title>shoe6(colorable)</title>
<g data-name="shoe6(colorable)">
<path class="cls-1" d="m1714.6 3565.8a58.64 58.64 0 0 0 25.31-5.41c47-21.24 126.73-12.67 158.18-2.29 34.31 11.66 71.29-10.21 82.6-48.2s-7.31-77.3-41.61-88.46c-52.41-16.64-167.34-30.37-252.34 6.75-33 14.58-47.86 55.8-33.18 92.63 11.01 27.6 35.54 44.66 61.04 44.98z"/>
<path class="cls-2" d="m1653.6 3520.8c9.87 24.73 30.57 41 53.12 44.33-12.19-18.12-23.37-43.12-31.14-71.73a282.48 282.48 0 0 1-9.09-50.75c-18.11 19.4-24.08 50.08-12.89 78.15z"/>
<path class="cls-2" d="m1912.5 3473.7a283.94 283.94 0 0 0 7.16 33.72c5.48 19.62 12.69 36.46 20.77 49a65 65 0 0 0 12.23-6.8 70.21 70.21 0 0 0 14.65-13.85 222.36 222.36 0 0 1-12.36-36.21c-2.2-8.7-4.07-17.89-5.51-27.45a289.69 289.69 0 0 1-3-31.22c-0.24-5.69-0.29-11.26-0.16-16.65a59.91 59.91 0 0 0-7.12-2.82 275.86 275.86 0 0 0-29.25-7.59c-0.25 3.41-0.44 6.91-0.53 10.49a277.84 277.84 0 0 0 3.12 49.38z"/>
<path class="cls-2" d="m1709.8 3419.5c0.31 19.35 3.5 41.66 9.8 64.76 7.84 28.79 19.16 53.84 31.5 71.82a152.17 152.17 0 0 1 23.11-5.58c7.25-1.21 14.74-2 22.32-2.56-10.06-18.26-18.71-42.24-24.17-69.2-5.27-26-6.79-50.72-5-71.33q-12.15 1.41-24.15 3.69a282.59 282.59 0 0 0-33.41 8.4z"/>
<path class="cls-2" d="m1824.3 3475.8c4.28 28.46 12.21 53.81 21.91 72.84 6.55 0.58 12.85 1.32 18.79 2.18a231.59 231.59 0 0 1 25 4.89c-8.26-13.74-15.53-32-20.82-53-2.2-8.75-4.07-18-5.51-27.59a291.67 291.67 0 0 1-3-31.29 234.87 234.87 0 0 1 1.24-37.08c-4.56-0.43-9.22-0.8-13.94-1.12-8.16-0.54-16.54-0.88-25.05-1-2.81 20.48-2.54 45.13 1.38 71.17z"/>
<path class="cls-3" d="m1702.1 3564.3-0.24-0.05-0.77-0.19c0.34 0.09 0.67 0.17 1.01 0.24z"/>
<path class="cls-3" d="m1954.8 3548q1.88-1.44 3.68-3c-1.19 1.04-2.42 2.04-3.68 3z"/>
<path class="cls-3" d="m1965.7 3537.8a67.5 67.5 0 0 1-5.27 5.54 72.79 72.79 0 0 0 5.27-5.54z"/>
<path class="cls-3" d="m1946.2 3424.3-1.64-0.77c0.55 0.27 1.1 0.49 1.64 0.77z"/>
<path class="cls-3" d="m1965.7 3537.8c0.56-0.65 1.09-1.33 1.63-2-0.53 0.68-1.08 1.34-1.63 2z"/>
<path class="cls-1" d="m2286.7 3565.8a58.64 58.64 0 0 1-25.31-5.41c-47-21.24-126.73-12.67-158.18-2.29-34.31 11.66-71.29-10.21-82.6-48.2s7.31-77.3 41.61-88.46c52.41-16.64 167.34-30.37 252.34 6.75 33 14.58 47.85 55.8 33.18 92.63-11.01 27.6-35.54 44.66-61.04 44.98z"/>
<path class="cls-2" d="m2347.7 3520.8c-9.87 24.73-30.57 41-53.12 44.33 12.19-18.12 23.37-43.12 31.14-71.73a282.48 282.48 0 0 0 9.09-50.75c18.11 19.4 24.08 50.08 12.89 78.15z"/>
<path class="cls-2" d="M2088.82,3473.71a283.94,283.94,0,0,1-7.16,33.72c-5.48,19.62-12.69,36.46-20.77,49a65,65,0,0,1-12.23-6.8,70.51,70.51,0,0,1-14.66-13.85,221.39,221.39,0,0,0,12.37-36.21c2.2-8.7,4.07-17.89,5.51-27.45a289.69,289.69,0,0,0,3-31.22c.24-5.69.29-11.26.16-16.65a59.91,59.91,0,0,1,7.12-2.82,275.86,275.86,0,0,1,29.25-7.59c.25,3.41.44,6.91.53,10.49A277.84,277.84,0,0,1,2088.82,3473.71Z"/>
<path class="cls-2" d="m2291.5 3419.5c-0.31 19.35-3.5 41.66-9.8 64.76-7.85 28.79-19.16 53.84-31.5 71.82a152.46 152.46 0 0 0-23.11-5.58c-7.25-1.21-14.74-2-22.32-2.56 10.06-18.26 18.7-42.24 24.17-69.2 5.27-26 6.79-50.72 5.05-71.33q12.15 1.41 24.15 3.69a282.59 282.59 0 0 1 33.36 8.4z"/>
<path class="cls-2" d="m2177 3475.8c-4.28 28.46-12.21 53.81-21.91 72.84-6.55 0.58-12.86 1.32-18.79 2.18a231.59 231.59 0 0 0-25 4.89c8.25-13.74 15.52-32 20.82-53 2.2-8.75 4.07-18 5.51-27.59a291.67 291.67 0 0 0 3-31.29 234.87 234.87 0 0 0-1.24-37.08c4.56-0.43 9.22-0.8 13.94-1.12 8.16-0.54 16.54-0.88 25-1 2.89 20.48 2.67 45.13-1.33 71.17z"/>
</g>
</svg>
