<?xml version="1.0" encoding="UTF-8"?>
<svg viewBox="0 0 4e3 4e3" xmlns="http://www.w3.org/2000/svg">
<defs>
<style>.cls-1,.cls-3{fill:#333;}.cls-1{opacity:0.2;}.cls-2{fill:#ffe600;}.cls-2,.cls-3{stroke:#333;stroke-linecap:round;stroke-linejoin:round;stroke-width:5px;}.cls-3{opacity:0.1;}</style>
</defs>
<title>hand_neck7</title>
<path class="cls-1" d="M1844.93,3171.59h0l-19.59,4.42-.37.08h6.75a133.3,133.3,0,0,0,15.14-1.64,39.88,39.88,0,0,0,10.79-2.85Zm0,0h0l-19.59,4.42-.37.08h6.75a133.3,133.3,0,0,0,15.14-1.64,39.88,39.88,0,0,0,10.79-2.85Zm0,0h0l-19.59,4.42-.37.08h6.75a133.3,133.3,0,0,0,15.14-1.64,39.88,39.88,0,0,0,10.79-2.85Zm0,0h0l-19.59,4.42-.37.08h6.75a133.3,133.3,0,0,0,15.14-1.64,39.88,39.88,0,0,0,10.79-2.85Zm414.49-290.76a37.22,37.22,0,0,0,17-13.77q-3.88,1.07-7.77,2.09-18.63,4.95-37.19,9.21c-2.77.64-5.53,1.26-8.3,1.87a18.94,18.94,0,0,1,.43,10.57,18.5,18.5,0,0,1-8.54,11.45,19,19,0,0,1-4,1.81,18.68,18.68,0,0,1-21.54-8.27,18.49,18.49,0,0,1-2.58-8.19c-2.22.42-4.44.82-6.66,1.22q-6,1.07-11.9,2.06a37.1,37.1,0,0,0,4.56,13.79c.13.26.29.51.43.77l.5.74a35.93,35.93,0,0,0-6.15,2.92c-.33.2-.66.4-1,.62a36.18,36.18,0,0,0-5.41,4.19,37,37,0,0,0-10.73,18.19,37.21,37.21,0,0,0,4.14,28.36,34.3,34.3,0,0,0,2.73,4c.21.27.45.52.67.79l0,0c-.35.19-.71.36-1.06.58a37.65,37.65,0,0,0-17.14,23,38.36,38.36,0,0,0-1.14,9.23,37.17,37.17,0,0,0,5.3,19.13c.25.41.49.8.76,1.19.52.82,1.09,1.6,1.66,2.36h-8.21l-259.51-.3h-13.55a37.39,37.39,0,0,0-14.12-48.73c-.25-.17-.5-.31-.76-.46-.48-.28-1-.54-1.45-.79h0c-1.09-.56-2.21-1.06-3.34-1.51l.35-.42a34.75,34.75,0,0,0,2.65-4,37.44,37.44,0,0,0-7.56-46.6,33.1,33.1,0,0,0-3.14-2.5,36.94,36.94,0,0,0-3.16-2,38.11,38.11,0,0,0-3.67-1.84c.7-1,1.39-2,2-3.11.15-.27.3-.52.44-.79a37.26,37.26,0,0,0,4.51-17.67q-6.84-1.14-13.69-2.39-2.7-.48-5.4-1a18.65,18.65,0,0,1-36.37,8.09,18.33,18.33,0,0,1-.63-5.54,18.59,18.59,0,0,1,2.1-7.93c.89-.34,1.77-.71,2.63-1.11q-5.12-1.11-10.23-2.27-14.22-3.2-28.44-6.8-3.36-.84-6.72-1.71a36.94,36.94,0,0,0,10.82,9.37,34.39,34.39,0,0,0,3.75,1.86,36.66,36.66,0,0,0,7.9,2.45c0,.24-.12.47-.16.72-.1.59-.18,1.19-.24,1.79a37.61,37.61,0,0,0,18.61,36.79,34.84,34.84,0,0,0,3.67,1.83c-.7,1-1.38,2-2,3.11-.15.26-.3.52-.43.78a37.49,37.49,0,0,0,14.3,50.35,36.48,36.48,0,0,0,4.81,2.3c-.11.14-.24.27-.35.43a36.54,36.54,0,0,0-2.66,4,37.18,37.18,0,0,0-3.66,28.43,38.9,38.9,0,0,0,2.58,6.83l-28.48,0a46.18,46.18,0,0,0-46.2,46.11l-.1,98a46.12,46.12,0,0,0,45.38,46.19h.71l452.49.51a46.22,46.22,0,0,0,46.22-46.1l.1-98a46.22,46.22,0,0,0-46.09-46.21H2206a35,35,0,0,0,2.33-3.38,37.62,37.62,0,0,0,.12-38.64,36.44,36.44,0,0,0-2.72-3.95c-.23-.28-.48-.54-.7-.82.35-.2.71-.37,1.08-.58a37.53,37.53,0,0,0,13.4-50.6c-.13-.26-.3-.52-.44-.78s-.33-.48-.48-.73a37.7,37.7,0,0,0,6.13-2.92,37.31,37.31,0,0,0,17.13-23,38.43,38.43,0,0,0,1.08-6.85,36.3,36.3,0,0,0,0-5.11c1.09.08,2.17.12,3.26.1A36.94,36.94,0,0,0,2259.42,2880.83Zm-56.48,50.88a18.66,18.66,0,1,1-34.13,5,18.5,18.5,0,0,1,5.15-8.88,18.88,18.88,0,0,1,3.39-2.59,18.61,18.61,0,0,1,3.71-1.67,18,18,0,0,1,5.48-.94,18.68,18.68,0,0,1,16.4,9.09Zm31.51,152.06-.08,81.25a12.33,12.33,0,0,1-12.34,12.3l-32.38,0a47.25,47.25,0,0,0,11.7-3.8c1-.46,1.87-1,2.76-1.48a37.19,37.19,0,0,0,13.54-13.52,41.83,41.83,0,0,0,5.84-21.62,37.39,37.39,0,0,0-4.34-18.07q-4.35-8.07-14-13.54a84.22,84.22,0,0,0-16-6.5l-.17-.06c-2.8-.87-5.84-1.75-9.14-2.62-2.06-.55-4.21-1.09-6.46-1.64a42.71,42.71,0,0,1-8.89-2.87,9.25,9.25,0,0,1-2.46-1.63,7,7,0,0,1-2.46-5.25,8.9,8.9,0,0,1,3-6.77c2-1.86,5-2.79,8.9-2.79.51,0,1,0,1.49.06a15.2,15.2,0,0,1,9.74,3.7q3.42,3.15,4.85,9.49c.18.8.34,1.63.48,2.51l31.89-2.05q-2.07-19-13.08-27.68a37.21,37.21,0,0,0-13.42-6.53l24.71,0h4.18a12.32,12.32,0,0,1,12.11,12.33Zm-43.81,58.28a11.87,11.87,0,0,1-3.94,8.79q-3.91,3.78-11.17,3.77-8.55,0-13.61-5.77h0q-.68-.78-1.29-1.65c-2.13-3-3.55-7.5-4.24-13.32l-5.07.35-27.12,1.86q1.31,17.22,10.71,28.81l0,0c.45.56.92,1.1,1.4,1.64a27.58,27.58,0,0,0,6.69,5.38h0a46.63,46.63,0,0,0,15.47,5.32l-79.28-.09a46.57,46.57,0,0,0,11.7-3.79c.95-.46,1.87-1,2.76-1.49h0a37.32,37.32,0,0,0,13.53-13.52,41.76,41.76,0,0,0,5.84-21.63,37.26,37.26,0,0,0-4.34-18,33,33,0,0,0-11-11.69c-.94-.65-1.94-1.27-3-1.86q-9.59-5.46-31.77-10.82c-6-1.38-9.76-2.89-11.33-4.5a8.51,8.51,0,0,1-1.4-1.67,6.43,6.43,0,0,1-1.07-3.57,8.94,8.94,0,0,1,3-6.78c2-1.86,5-2.79,8.89-2.77a18.28,18.28,0,0,1,8.09,1.62,12.93,12.93,0,0,1,3.15,2.13q3.49,3.21,4.9,9.74c.16.72.3,1.46.42,2.24l31.9-2q-2.09-19-13.09-27.69a37.26,37.26,0,0,0-13.43-6.53l64,.07h8.16a41.3,41.3,0,0,0-7.2,2.59,33.61,33.61,0,0,0-14.73,13.13,34.84,34.84,0,0,0-4.9,17.77,32.19,32.19,0,0,0,5.25,18.45,31.11,31.11,0,0,0,4.28,5.11,36.56,36.56,0,0,0,5.31,4.24h0q9.53,6.35,26.39,10.6a85.73,85.73,0,0,1,10,3h0c3.46,1.31,5.88,2.67,7.29,4.07A11.77,11.77,0,0,1,2190.64,3142.05Zm-143.12-.57a41.27,41.27,0,0,1-1.6-7.74l-1,.07h0l-31.15,2.14,0,.34a.17.17,0,0,0,0,.07q1.49,18.19,12.09,30a27.57,27.57,0,0,0,6.69,5.39h0a46.63,46.63,0,0,0,15.47,5.31l-88.3-.09a49.77,49.77,0,0,0,14.83-5.28h0q.86-.48,1.68-1a49.32,49.32,0,0,0,18.7-21.29q6.46-13.68,6.48-35.08a1,1,0,0,0,0-.24q0-29.27-14.71-45.58a47.7,47.7,0,0,0-23.81-14.19h4l73.72.09h4.09a41.12,41.12,0,0,0-7.21,2.59,33.39,33.39,0,0,0-14.72,13.13,34.72,34.72,0,0,0-4.91,17.76,36.51,36.51,0,0,0,.87,8.18,30.12,30.12,0,0,0,8.66,15.39q9.48,9.24,31.72,14.84c8.73,2.16,14.42,4.42,17.05,6.83a3.45,3.45,0,0,1,.28.26,11.64,11.64,0,0,1-.22,17.26q-3.91,3.81-11.17,3.79-9.7,0-14.92-7.43a20.17,20.17,0,0,1-2.64-5.55Zm-132.36,30.22a52.44,52.44,0,0,0,15.56,5.29l-109.17-.13-52-.06a12.34,12.34,0,0,1-12.29-12.33l.11-98a12.34,12.34,0,0,1,12.32-12.3l3.77,0v.28l-.12,116V3176l51.65.05h6.75a133.3,133.3,0,0,0,15.14-1.64,39.88,39.88,0,0,0,10.79-2.85,16.71,16.71,0,0,0,2.07-1.13,30.38,30.38,0,0,0,7.15-6.37,32.86,32.86,0,0,0,3.69-5.62,36.16,36.16,0,0,0,4-17c0-7.76-1.83-14.21-5.54-19.35s-9.49-8.76-17.35-10.88a33.21,33.21,0,0,0,5.73-2.81l.41-.26a22.48,22.48,0,0,0,5.66-5.08,29.12,29.12,0,0,0,6.07-18.55,29.83,29.83,0,0,0-8.45-21.64c-5-5.23-12.1-8.09-21.11-8.65h11.83l75.06.09a48,48,0,0,0-23.85,14.42q-15,16.64-15,46.5,0,21.39,7.5,35.64t19.61,20.8Zm-100.4-92.91h7.72q7.68,0,10.79,3c2,2,3.09,4.78,3.09,8.33,0,3.83-1,6.76-3.12,8.77-.1.09-.2.19-.3.27-2.11,1.85-5.69,2.76-10.72,2.76l-14.7,0,0-23.13Zm-7.27,46.36h17.19c5.9,0,10.06,1.11,12.41,3.3a11.27,11.27,0,0,1,3.54,8.71,12.92,12.92,0,0,1-2.16,7.59,10.78,10.78,0,0,1-1.43,1.68q-3.58,3.45-12.33,3.43h-17.25ZM1928,3142q-6.14-8.1-6.14-26.56,0-18.61,6.24-26.7a21.05,21.05,0,0,1,5.88-5.33,20.26,20.26,0,0,1,10.56-2.73q10.68,0,16.91,8t6.2,25.18q0,12.79-2.35,20.67v0a23.92,23.92,0,0,1-3.65,7.67,19.49,19.49,0,0,1-4,4,20.91,20.91,0,0,1-12.92,3.92,23.46,23.46,0,0,1-3.4-.24A19.53,19.53,0,0,1,1928,3142Zm243.76-125.93a18.7,18.7,0,0,1-6.57-3.11,18.66,18.66,0,0,1,1.57-31c.27-.16.55-.32.83-.46a18.21,18.21,0,0,1,4.4-1.67,18.41,18.41,0,0,1,4-.52,19,19,0,0,1,7.24,1.33,18.64,18.64,0,0,1-8.32,35.92A17.85,17.85,0,0,1,2171.72,3016.08ZM1848,3013a18.51,18.51,0,0,1-7.8,7.39H1823.4c-.31-.16-.62-.3-.92-.47A18.66,18.66,0,0,1,1840,2987c.35.17.69.36,1,.55a18.54,18.54,0,0,1,8.73,11.29,18.92,18.92,0,0,1,.66,4.92A18.64,18.64,0,0,1,1848,3013Zm-48-76.41a18.48,18.48,0,0,1,4.83-5.53,18.8,18.8,0,0,1,17.55-2.8,18.44,18.44,0,0,1,3.07,1.41,19.35,19.35,0,0,1,3.34,2.44,18.4,18.4,0,0,1,5.4,8.89,19.1,19.1,0,0,1,.66,4.91,18.43,18.43,0,0,1-2.48,9.24,18.66,18.66,0,1,1-32.37-18.56Zm45,235h0l-19.59,4.42-.37.08h6.75a133.3,133.3,0,0,0,15.14-1.64,39.88,39.88,0,0,0,10.79-2.85Zm0,0h0l-19.59,4.42-.37.08h6.75a133.3,133.3,0,0,0,15.14-1.64,39.88,39.88,0,0,0,10.79-2.85Zm0,0h0l-19.59,4.42-.37.08h6.75a133.3,133.3,0,0,0,15.14-1.64,39.88,39.88,0,0,0,10.79-2.85Z"/>
<path class="cls-2" d="m1795.8 2882q-4.55-0.95-9.11-1.93-5.12-1.11-10.23-2.27-14.22-3.2-28.44-6.8a36.08 36.08 0 0 0 13.38 13.43c0.65 0.37 1.31 0.72 2 1.05a36.4 36.4 0 0 0 9.23 3.11 35.57 35.57 0 0 0 6.68 0.63h1c0.56 0 1.13 0 1.69-0.09a36 36 0 0 0 10.18-2.25 35.38 35.38 0 0 0 7.69-4z"/>
<path class="cls-2" d="M1843.83,2890.91c-1.94-.31-3.89-.63-5.83-1q-6.84-1.14-13.69-2.39a18,18,0,1,1-33.62,12.27,17.77,17.77,0,0,1,1.4-13c.11-.23.23-.45.36-.67a18,18,0,0,1,3.3-4.19q-4.55-.95-9.11-1.93-5.12-1.11-10.23-2.27a35.87,35.87,0,0,0-3.86,10.79c0,.23-.09.45-.13.68a36.16,36.16,0,0,0,21.19,38.92c.94.41,1.9.78,2.86,1.1a34.57,34.57,0,0,0,8.27,1.75c1.08.1,2.16.15,3.23.15a36.27,36.27,0,0,0,14.32-3,34.21,34.21,0,0,0,3.54-1.75,36.21,36.21,0,0,0,11.59-10.43l.46-.68c.51-.75,1-1.52,1.45-2.31.14-.26.28-.51.41-.77A35.79,35.79,0,0,0,1843.83,2890.91Z"/>
<path class="cls-2" d="M1857.81,2939.69a35.86,35.86,0,0,0-16.79-21.81l-.08-.05a36.2,36.2,0,0,0-3.52-1.77q-1.41-.61-2.85-1.11a36.2,36.2,0,0,0-41,13.24c-.67.95-1.31,1.95-1.91,3-.14.25-.28.5-.41.76a36.11,36.11,0,0,0,13.77,48.48,34.3,34.3,0,0,0,4.61,2.23l1,.38a36,36,0,0,0,40.49-11.35l.27-.35c.11-.13.21-.27.31-.4a36.5,36.5,0,0,0,2.56-3.87A35.82,35.82,0,0,0,1857.81,2939.69Zm-17.47,4.74a18.69,18.69,0,0,1,.63,4.73,17.77,17.77,0,0,1-2.39,8.91,18,18,0,0,1-24.52,6.64,6.18,6.18,0,0,1-.64-.4,18,18,0,0,1,15.28-32.22,17.56,17.56,0,0,1,3.23,1.45A17.85,17.85,0,0,1,1840.34,2944.43Z"/>
<path class="cls-2" d="M1872.89,2995.39a35.82,35.82,0,0,0-16.87-21.84,34.7,34.7,0,0,0-4.6-2.22q-.5-.21-1-.39c-.49-.18-1-.35-1.49-.51h0a36.08,36.08,0,0,0-39.25,12.23l-.31.39a34.89,34.89,0,0,0-2.56,3.86,35.79,35.79,0,0,0-3.53,27.38,36.18,36.18,0,0,0,2.48,6.56,36.63,36.63,0,0,0,3.39,5.52,36.22,36.22,0,0,0,28.88,14.56,35.92,35.92,0,0,0,29.63-15.43c.61-.88,1.18-1.77,1.72-2.71.35-.62.69-1.24,1-1.87.08-.17.17-.33.24-.5A35.78,35.78,0,0,0,1872.89,2995.39Zm-30.11,26.78a17.8,17.8,0,0,1-12.8-1.3q-.42-.21-.84-.45l-.09-.06a18,18,0,0,1,9.06-33.5,15,15,0,0,1,1.9.11,18,18,0,0,1,6.14,33.92A18.73,18.73,0,0,1,1842.78,3022.17Z"/>
<path class="cls-2" d="M2231.49,2878.36c-2.77.64-5.53,1.26-8.3,1.87s-5.51,1.21-8.27,1.79a35,35,0,0,0,9.24,4.95,33,33,0,0,0,3.42,1.05,38.8,38.8,0,0,0,5.09.91l1.31.12c1.05.07,2.09.1,3.13.08a35.43,35.43,0,0,0,5.82-.58,36.26,36.26,0,0,0,12-4.53,34.8,34.8,0,0,0,4.51-3.19,35.56,35.56,0,0,0,9.26-11.68Q2250.05,2874.1,2231.49,2878.36Z"/>
<path class="cls-2" d="M2234,2889.05c0-.05,0-.09,0-.14a35.43,35.43,0,0,0-2.48-10.55c-2.77.64-5.53,1.26-8.3,1.87s-5.51,1.21-8.27,1.79c-.53.12-1.07.24-1.61.34l.1.16a18,18,0,1,1-33.14,6.3q-6,1.07-11.9,2.06l-6.44,1.06a35.74,35.74,0,0,0,4.67,17.54l.13.24c.09.17.19.32.29.49s.29.48.45.72a35.71,35.71,0,0,0,13.59,12.63,36.34,36.34,0,0,0,17.61,4.22l1.09,0a35.82,35.82,0,0,0,10.38-2l.44-.16a37,37,0,0,0,5.89-2.83,36.27,36.27,0,0,0,17.51-33.65Z"/>
<path class="cls-2" d="M2211.45,2927c-.13-.26-.29-.51-.43-.75s-.28-.47-.44-.7a36.08,36.08,0,0,0-42.67-14.76l-.44.16a33.51,33.51,0,0,0-5.9,2.82l-.25.16a35.76,35.76,0,0,0-16.24,22,36.59,36.59,0,0,0-1.11,8.9,36,36,0,0,0,5.11,18.42,33.79,33.79,0,0,0,2.62,3.81c.21.27.42.53.65.79s.46.56.7.83a35.64,35.64,0,0,0,18.18,11l.72.17a36.41,36.41,0,0,0,8.79.94c.82,0,1.63-.05,2.44-.13a35.08,35.08,0,0,0,9.81-2.27,34,34,0,0,0,4.54-2.13c.34-.18.68-.37,1-.57A36.12,36.12,0,0,0,2211.45,2927Zm-48.82,13.34a17.88,17.88,0,0,1,8.22-11,18.15,18.15,0,0,1,8.85-2.52,18,18,0,0,1,10.3,32.91l-.74.47a17.83,17.83,0,0,1-9.18,2.54,18,18,0,0,1-17.45-22.36Z"/>
<path class="cls-2" d="M2200.8,2980.86a33.38,33.38,0,0,0-2.62-3.81c-.21-.27-.42-.53-.65-.79a36.06,36.06,0,0,0-39.4-11.05c-.41.14-.83.29-1.24.45a33.47,33.47,0,0,0-4.54,2.14c-.34.18-.67.37-1,.57a36,36,0,0,0-12.49,49.45c.23.39.47.76.73,1.14.39.6.79,1.19,1.22,1.76.12.17.25.35.39.52a35.64,35.64,0,0,0,19.8,13.07,36.4,36.4,0,0,0,9.51,1.11,36.27,36.27,0,0,0,27.95-14.12,34,34,0,0,0,2.23-3.25,36.39,36.39,0,0,0,4.11-9.88A35.8,35.8,0,0,0,2200.8,2980.86Zm-48.38,14.08a17.92,17.92,0,0,1,15.13-13.42,15.69,15.69,0,0,1,1.94-.15,18,18,0,1,1-17.07,13.57Z"/>
<path class="cls-2" d="M1844.92,3171.59l-66.76-.08a11.83,11.83,0,0,1-4.84-1m440.74-149.17-15.6,0h-4.07l-53.19-.06h-7.92l-249.89-.3-13,0-24.22,0-16.17,0h-5.11l-19.12,0-27.41,0a44.45,44.45,0,0,0-44.49,44.4l-.11,94.41a44.15,44.15,0,0,0,13,31.44,42.69,42.69,0,0,0,4,3.53c.27.21.54.42.82.62s.59.45.89.67a.47.47,0,0,1,.09.06c.77.55,1.56,1.08,2.37,1.58a43.64,43.64,0,0,0,3.85,2.12,42,42,0,0,0,4.43,1.87l.91.31.92.3c.92.29,1.85.54,2.79.76l.08,0c.6.14,1.2.27,1.81.39l.95.17a44,44,0,0,0,6.82.64h.69l435.72.49a44.24,44.24,0,0,0,31.44-13c.26-.25.5-.5.75-.76l.73-.78c.24-.26.47-.53.71-.8s.69-.81,1-1.23c.67-.83,1.31-1.68,1.92-2.56.31-.44.6-.88.89-1.33.2-.3.38-.6.57-.91l.55-.92c.35-.62.7-1.25,1-1.89l.48-1c.31-.65.61-1.31.89-2a41.44,41.44,0,0,0,1.5-4.08c.21-.69.41-1.4.6-2.1s.35-1.43.5-2.15c.08-.36.15-.72.21-1.09.13-.73.24-1.46.34-2.2s.18-1.49.23-2.24c0-.56.08-1.13.1-1.69s0-1.14,0-1.72l.09-81.84v-12.55A44.51,44.51,0,0,0,2214.06,3021.32Zm-170.91,32.39c-.86.23-1.7.47-2.51.74a31.06,31.06,0,0,0-4.42,1.75,32.11,32.11,0,0,0-14.18,12.64,33.34,33.34,0,0,0-4.73,17.1,34.2,34.2,0,0,0,1.45,10.17,28.89,28.89,0,0,0,7.73,12.52q9.12,8.91,30.55,14.3l1.77.44,1.35.37,1.4.39a63.73,63.73,0,0,1,6.19,2.12l1,.43c.24.11.48.21.71.33s.39.18.57.28l.72.37a16.32,16.32,0,0,1,1.43.87,6,6,0,0,1,.55.4,8.22,8.22,0,0,1,1,.83,12.67,12.67,0,0,1,2.48,3.41,10,10,0,0,1,.6,1.48,8,8,0,0,1,.28,1.07,10.2,10.2,0,0,1,.23,2.22c0,.2,0,.4,0,.6a11.11,11.11,0,0,1-.12,1.16,10.8,10.8,0,0,1-.24,1.13,10.42,10.42,0,0,1-1.11,2.66,12.31,12.31,0,0,1-1.84,2.44l-.46.45c-.11.11-.22.22-.34.32l-.34.3a7.88,7.88,0,0,1-.74.55l-.52.34c-.23.14-.47.28-.72.41a13.33,13.33,0,0,1-2.58,1c-.46.13-.94.24-1.44.34l-1,.16a23.72,23.72,0,0,1-3.12.2,20.34,20.34,0,0,1-4.14-.4,17.83,17.83,0,0,1-2.26-.61,15.58,15.58,0,0,1-4.4-2.37,17.38,17.38,0,0,1-3.57-3.77c-.3-.43-.59-.89-.86-1.37-.11-.19-.21-.39-.31-.59l-.3-.62c-.2-.43-.38-.87-.56-1.33-.12-.31-.23-.62-.34-.94s-.22-.64-.32-1-.15-.51-.22-.77c-.22-.78-.42-1.6-.59-2.46,0-.13-.05-.27-.07-.42s0-.28-.08-.43l-.15-.87c-.1-.66-.2-1.34-.28-2l-21.74,1.49-9.25.64c0,.48.08.94.13,1.41s.12,1.12.18,1.67c0,.3.07.59.12.89,0,0,0,.09,0,.14a.17.17,0,0,0,0,.07l.09.61c.05.4.12.8.2,1.2s.14.84.23,1.25l.09.48c.1.49.2,1,.32,1.44.06.3.14.6.22.9s.11.46.18.69c.11.44.23.88.37,1.31.06.24.14.48.22.72s.2.65.31,1,.24.72.38,1.08.15.43.24.65.26.69.4,1,.26.66.42,1,.24.58.37.86.16.36.26.54c.19.43.4.86.62,1.28s.53,1,.81,1.51c.16.28.32.56.49.84s.33.55.49.82c.37.6.76,1.18,1.17,1.76s.65.93,1,1.39c.74,1,1.52,1.94,2.35,2.86a25.74,25.74,0,0,0,5.51,4.62c.49.31,1,.61,1.52.91a40.41,40.41,0,0,0,9.16,3.62l1.24.32,1.91.44c.64.14,1.28.26,1.94.38h0l-13.77,0h0l-58-.06-13.25,0,1.11-.23c.73-.16,1.46-.33,2.17-.51s1.42-.39,2.12-.6,1.38-.44,2-.67c1-.36,2-.75,3-1.17q1-.42,1.89-.87l.92-.47c.92-.48,1.81-1,2.68-1.53l.51-.32c.17-.11.35-.21.51-.33q1.53-1,2.94-2.1c.42-.33.84-.66,1.25-1,1-.81,1.92-1.67,2.83-2.56a49.15,49.15,0,0,0,10-14.18c.1-.21.2-.42.28-.63.2-.4.38-.8.55-1.21s.43-1.05.63-1.58.3-.79.44-1.19.33-.92.48-1.39a84.83,84.83,0,0,0,3.83-24.81,1,1,0,0,0,0-.24c0-.9,0-1.81,0-2.73q0-28.35-14.18-44.12a45.18,45.18,0,0,0-20.36-12.92c-.84-.26-1.69-.51-2.56-.74ZM1946.63,3079q10.3,0,16.29,7.68t6,24.25q0,15.62-3.64,23.62v0a18.74,18.74,0,0,1-2.14,3.68c-3.85,5.07-9.26,7.6-16.27,7.59q-10.2,0-16.12-7.79t-5.91-25.57q0-17.94,6-25.71a21.54,21.54,0,0,1,3.13-3.31A18.87,18.87,0,0,1,1946.63,3079Zm-131.87-1.82h14.38q7.41,0,10.39,2.9t3,8q0,5.55-3,8.46c-1.42,1.38-3.61,2.26-6.58,2.66a29.27,29.27,0,0,1-4,.25l-14.16,0,0-20.62Zm16.54,68.45h-16.62l0-20.43v-3.38l16.53,0c5.7,0,9.7,1.07,12,3.19a10.77,10.77,0,0,1,3.4,8.37,11.8,11.8,0,0,1-3.46,8.93,10.85,10.85,0,0,1-4.69,2.48A26.26,26.26,0,0,1,1831.3,3145.59Zm83.82,26.09-57.48-.07-12.71,0h0l-66.76-.08a11.83,11.83,0,0,1-4.84-1,12,12,0,0,1-3.53-2.45,11.79,11.79,0,0,1-3.46-8.39l.1-94.41a11.84,11.84,0,0,1,11.87-11.83h3.62l-.12,117.37,56.23.06a127,127,0,0,0,14.59-1.59q8.27-1.18,12.37-3.83c.64-.41,1.27-.85,1.87-1.31a29.94,29.94,0,0,0,8.58-10.22,34.76,34.76,0,0,0,3.82-16.42q0-11.22-5.32-18.63t-16.57-10.44l-.14,0,.55-.22a25.35,25.35,0,0,0,10.81-7.63,28.09,28.09,0,0,0,5.85-17.86,28.8,28.8,0,0,0-8.14-20.84,27.12,27.12,0,0,0-14.52-7.58,40.21,40.21,0,0,0-5.81-.75l83.66.1a46.33,46.33,0,0,0-23,13.88q-14.4,16-14.43,44.78,0,20.6,7.23,34.31a54.35,54.35,0,0,0,7.59,11c.41.45.82.9,1.24,1.33l.09.09c.33.34.66.67,1,1,.15.16.31.31.47.45.32.31.66.61,1,.9l.26.22c.33.3.67.58,1,.84a4.94,4.94,0,0,0,.44.36l.91.7.48.35q.52.39,1.08.75a3.39,3.39,0,0,0,.34.23c.43.29.86.57,1.3.82s1.13.68,1.71,1a44,44,0,0,0,7,3l1.91.61c.77.22,1.56.44,2.36.63,1.2.31,2.44.58,3.71.82Zm246.78-22.85a13.93,13.93,0,0,1-1.94-.95,16.34,16.34,0,0,1-2.45-1.76c-.25-.22-.51-.46-.74-.7a17.53,17.53,0,0,1-1.39-1.56c-.22-.27-.44-.56-.65-.86a15.87,15.87,0,0,1-1.08-1.8,27,27,0,0,1-2.35-7c-.07-.34-.14-.68-.2-1-.18-1-.33-2-.45-3l-31,2.13a54.85,54.85,0,0,0,3.59,16.24c.48,1.22,1,2.41,1.6,3.57s1.2,2.28,1.88,3.37a43.74,43.74,0,0,0,4.61,6.16c.29.32.59.64.9.95a23.7,23.7,0,0,0,2,1.77l.71.56c.19.14.38.29.58.41.35.26.71.5,1.08.74l.81.52c.88.53,1.8,1,2.77,1.5a48.48,48.48,0,0,0,12.53,3.86H2143l-49.34,0-17.31,0h.05c.51-.1,1-.2,1.5-.32a43.74,43.74,0,0,0,9.72-3.33,36.46,36.46,0,0,0,15.69-14.44,40.71,40.71,0,0,0,3-6.14c.11-.29.22-.58.32-.87.2-.55.38-1.09.55-1.65.34-1.1.63-2.22.88-3.36.13-.57.24-1.14.33-1.72a43.52,43.52,0,0,0,.58-7.1c0-1.24,0-2.45-.15-3.65a35,35,0,0,0-3.52-12.76c-.16-.33-.33-.65-.5-1s-.42-.76-.66-1.13-.45-.73-.7-1.1h0a30.42,30.42,0,0,0-5.64-6.33,40.92,40.92,0,0,0-6.41-4.49q-9.24-5.26-30.6-10.41c-5.25-1.22-8.75-2.53-10.47-3.95a4.21,4.21,0,0,1-.44-.39,6.82,6.82,0,0,1-2.38-5,8.59,8.59,0,0,1,2.89-6.53c1.91-1.79,4.77-2.68,8.56-2.67q6.42,0,10.27,3.14c.19.15.37.31.55.48,2.6,2.4,4.32,6.25,5.12,11.54l2.38-.15,28.34-1.81q-2-18.29-12.6-26.66a36,36,0,0,0-12.93-6.29l69.48.08c-.86.23-1.69.47-2.49.74a34.5,34.5,0,0,0-4.44,1.75,32.25,32.25,0,0,0-14.18,12.65,33.34,33.34,0,0,0-4.72,17.11q0,12.49,7.55,21l.07.08a2.5,2.5,0,0,0,.22.24l.41.45c.3.32.61.63.92.93a41.72,41.72,0,0,0,10.34,7.11h0a97.15,97.15,0,0,0,20.19,7.18q9.81,2.41,14.28,5a15.58,15.58,0,0,1,1.34.89,7.49,7.49,0,0,1,.6.49h0l.23.2.2.19h0a11.75,11.75,0,0,1,.84.91c.26.32.5.63.73.95a10.2,10.2,0,0,1,.88,1.47,10.6,10.6,0,0,1,1.14,4.83,11.71,11.71,0,0,1-.06,1.19,10.42,10.42,0,0,1-.18,1.14,10.88,10.88,0,0,1-.3,1.12,11.9,11.9,0,0,1-2.79,4.55l-.46.46a10.19,10.19,0,0,1-1,.85l-.53.38a11.43,11.43,0,0,1-2.07,1.12c-.37.16-.75.3-1.15.43s-.8.24-1.22.34l-.74.16c-.5.09-1,.17-1.54.22a22.53,22.53,0,0,1-2.51.13,20,20,0,0,1-5.42-.7,17.35,17.35,0,0,1-1.76-.6ZM2190,3170a38.44,38.44,0,0,0,7.55-3.66c.77-.48,1.52-1,2.24-1.51s1.42-1.09,2.1-1.66,1.33-1.18,2-1.81a36.67,36.67,0,0,0,5.77-7.46,40.43,40.43,0,0,0,5.63-20.82,37.32,37.32,0,0,0-2-12.38c-.3-.87-.63-1.72-1-2.55s-.76-1.66-1.2-2.47c-.18-.32-.36-.64-.55-1A28.3,28.3,0,0,0,2208,3111c-.49-.59-1-1.16-1.53-1.71a35.19,35.19,0,0,0-4.49-3.93c-.67-.49-1.35-1-2.07-1.43h0c-.71-.46-1.45-.91-2.22-1.34h0c-.38-.22-.78-.44-1.19-.65l-.64-.33-.66-.33c-.89-.43-1.85-.87-2.87-1.31-.51-.22-1-.43-1.58-.65l-.83-.33-.68-.26-.17-.06-.78-.3q-2.85-1-6.18-2.09l-1.36-.42q-6.06-1.85-13.64-3.68c-.89-.21-1.74-.42-2.53-.64-4.3-1.15-7.1-2.39-8.4-3.69a6.86,6.86,0,0,1-2.36-5.06,8.55,8.55,0,0,1,2.89-6.52c1.91-1.79,4.77-2.68,8.56-2.68a17.91,17.91,0,0,1,7.77,1.57,11.77,11.77,0,0,1,3,2.05q3.91,3.6,5.13,11.55l6.42-.41,24.28-1.57q-2-18.27-12.58-26.65a36,36,0,0,0-12.93-6.28l27.64,0h.19a12.17,12.17,0,0,1,4,.75,11.89,11.89,0,0,1,7.68,11.12l0,19.94-.08,74.46a11.45,11.45,0,0,1-.23,2.28c0,.08,0,.16-.05.24-.08.34-.16.68-.27,1a11.64,11.64,0,0,1-2,3.75c-.18.23-.37.46-.57.68l-.39.41a12.63,12.63,0,0,1-1.29,1.12,11.85,11.85,0,0,1-7.11,2.35h-9.76l-21.41,0A50,50,0,0,0,2190,3170Z"/>
<path class="cls-3" d="M2258.43,3078.36l-1.53.35-22.45,5.06-8.61,1.94h0l-.08,74.47a12.05,12.05,0,0,1-.22,2.27c0,.08,0,.16-.05.24-.08.34-.16.68-.27,1a11.64,11.64,0,0,1-2,3.75c-.18.23-.37.46-.57.68l-.39.41a10.57,10.57,0,0,1-1.29,1.12,11.85,11.85,0,0,1-7.11,2.35h-9.76l-21.41,0a50,50,0,0,0,7.34-2,38.44,38.44,0,0,0,7.55-3.66c.77-.48,1.52-1,2.24-1.51s1.42-1.09,2.1-1.66,1.33-1.18,2-1.81a36.67,36.67,0,0,0,5.77-7.46,40.43,40.43,0,0,0,5.63-20.82,37.32,37.32,0,0,0-2-12.38c-.3-.87-.64-1.72-1-2.55s-.78-1.66-1.21-2.47q-.26-.48-.54-1A28.3,28.3,0,0,0,2208,3111c-.49-.59-1-1.16-1.53-1.71a35.19,35.19,0,0,0-4.49-3.93c-.67-.49-1.35-1-2.07-1.43h0c-.71-.46-1.45-.91-2.22-1.34h0c-.38-.22-.78-.44-1.19-.65l-.64-.33-.66-.33c-.89-.44-1.85-.88-2.87-1.31-.51-.22-1-.43-1.58-.65l-.83-.33-.68-.26-.17-.06-.78-.3q-2.85-1-6.18-2.09l-1.36-.42-.82.19-32.61,7.35-13.7,3.09-2.37.54h0l.08.08a2.5,2.5,0,0,0,.22.24l.41.45c.3.32.61.63.92.93a41.72,41.72,0,0,0,10.34,7.11h0a97.15,97.15,0,0,0,20.19,7.18q9.81,2.41,14.28,5a15.58,15.58,0,0,1,1.34.89,7.49,7.49,0,0,1,.6.49h0l.23.2.2.2c.3.3.58.61.84.91s.5.63.73.95a12.41,12.41,0,0,1,.88,1.47,10.6,10.6,0,0,1,1.14,4.83,11.71,11.71,0,0,1-.06,1.19,10.42,10.42,0,0,1-.18,1.14,10.88,10.88,0,0,1-.3,1.12,11.9,11.9,0,0,1-2.79,4.55l-.46.45a11.88,11.88,0,0,1-1,.86l-.53.38a12.82,12.82,0,0,1-2.07,1.12c-.37.16-.75.3-1.15.43s-.8.24-1.22.34l-.74.16c-.5.09-1,.17-1.54.22a22.53,22.53,0,0,1-2.51.13,20,20,0,0,1-5.42-.7,17.35,17.35,0,0,1-1.76-.6h0a15.85,15.85,0,0,1-1.94-.95,16.34,16.34,0,0,1-2.45-1.76c-.25-.23-.5-.46-.74-.7a17.53,17.53,0,0,1-1.39-1.56c-.22-.28-.43-.57-.64-.87a16.37,16.37,0,0,1-1.09-1.79,27,27,0,0,1-2.35-7c-.07-.34-.14-.68-.2-1-.17-1-.32-2-.45-3l-31,2.13a54.85,54.85,0,0,0,3.59,16.24c.49,1.22,1,2.41,1.6,3.57s1.21,2.28,1.88,3.37a43.74,43.74,0,0,0,4.61,6.16c.29.32.59.64.9.95a23.7,23.7,0,0,0,2,1.77l.69.53c.2.15.39.3.6.44s.71.5,1.08.74l.81.52c.88.53,1.8,1,2.77,1.5a48.48,48.48,0,0,0,12.53,3.86H2143l-49.33-.06-17.27,0h-.05l1.55-.32a43.74,43.74,0,0,0,9.72-3.33,36.46,36.46,0,0,0,15.69-14.44,40.71,40.71,0,0,0,3-6.14c.11-.29.22-.58.32-.87.2-.55.38-1.09.55-1.65.34-1.1.64-2.22.88-3.36.13-.57.24-1.14.33-1.72a41.4,41.4,0,0,0,.59-7.1c0-1.24-.05-2.46-.16-3.65a35,35,0,0,0-3.52-12.76l-.51-1c-.21-.38-.42-.76-.65-1.13s-.45-.73-.7-1.1h0l-20.78,4.7-23.31,5.26-.48.1,1.35.37,1.4.39a63.73,63.73,0,0,1,6.19,2.12l1,.43.71.33c.2.09.39.18.57.28l.72.37a16.32,16.32,0,0,1,1.43.87,6,6,0,0,1,.55.4,8.22,8.22,0,0,1,1,.83,12.67,12.67,0,0,1,2.48,3.41,10,10,0,0,1,.6,1.48,8,8,0,0,1,.28,1.07,11.61,11.61,0,0,1,.22,2.22c0,.2,0,.4,0,.6a11.11,11.11,0,0,1-.12,1.16,10.8,10.8,0,0,1-.24,1.13,11.19,11.19,0,0,1-1.11,2.66,12.31,12.31,0,0,1-1.84,2.44c-.15.16-.3.31-.46.46l-.34.31-.34.3a7.88,7.88,0,0,1-.74.55l-.52.34c-.23.14-.47.28-.72.41a13.33,13.33,0,0,1-2.58,1c-.46.13-.94.24-1.44.34l-1,.16a23.77,23.77,0,0,1-3.12.19,21.09,21.09,0,0,1-4.14-.39,17.83,17.83,0,0,1-2.26-.61,15.58,15.58,0,0,1-4.4-2.37,17.38,17.38,0,0,1-3.57-3.77c-.3-.43-.59-.89-.86-1.37v0l-.31-.57-.3-.62c-.2-.43-.38-.87-.56-1.33-.12-.31-.23-.62-.34-.94s-.22-.64-.32-1-.15-.51-.22-.77c-.21-.78-.41-1.6-.58-2.46,0-.14-.06-.28-.08-.42s0-.28-.08-.43l-.15-.87c-.1-.66-.2-1.34-.28-2h0l-21.74,1.5-9.25.64c0,.48.08.94.13,1.41s.12,1.12.18,1.67c0,.3.07.59.12.89,0,0,0,.09,0,.14a.17.17,0,0,0,0,.07l.09.61c.05.4.12.8.2,1.2s.14.84.23,1.25l.09.48c.1.49.2,1,.32,1.44.06.3.14.6.22.9s.11.46.18.69c.11.44.23.88.37,1.31.06.24.14.48.22.72s.2.65.31,1,.24.72.38,1.08.15.43.24.65.26.69.4,1,.26.66.42,1,.24.58.37.86.16.36.26.54c.19.43.4.86.62,1.28s.53,1,.81,1.51c.16.28.32.56.49.84s.33.55.49.82c.37.6.76,1.18,1.17,1.76s.65.93,1,1.39c.74,1,1.52,1.94,2.35,2.86a25.74,25.74,0,0,0,5.51,4.62c.49.31,1,.61,1.52.91a40.41,40.41,0,0,0,9.16,3.62l1.24.32,1.91.44,2,.38h-13.78l-58-.07h-13.25l1.11-.23c.73-.16,1.46-.33,2.17-.51s1.42-.39,2.12-.6,1.38-.44,2-.67c1-.36,2-.75,3-1.17q1-.42,1.89-.87l.92-.47c.92-.47,1.81-1,2.68-1.52l.51-.33c.17-.11.35-.21.51-.33q1.53-1,2.94-2.1c.42-.33.84-.66,1.25-1,1-.81,1.92-1.67,2.83-2.56a49.15,49.15,0,0,0,10-14.18c.1-.21.2-.42.28-.63.2-.4.38-.8.55-1.21s.43-1.05.63-1.58.3-.79.44-1.19.33-.92.48-1.39q.35-1.07.66-2.16l-18.62,4.2-22,5-16.32,3.68-5.87,1.33-28.37,6.39c.41.45.82.9,1.24,1.33l.09.09c.33.34.66.67,1,1,.15.16.31.31.47.45.32.31.66.61,1,.9l.26.22c.33.3.67.58,1,.84a4.94,4.94,0,0,0,.44.36l.91.7.48.35q.52.39,1.08.75a3.39,3.39,0,0,0,.34.23c.43.29.86.57,1.3.82s1.13.68,1.71,1a44,44,0,0,0,7,3l1.91.61c.77.22,1.56.44,2.36.63,1.2.31,2.44.58,3.71.82l-18.25,0-57.48-.07-12.71,0h0l-19.59,4.42-.37.08-3.41.77-30.49,6.87-15.64,3.53-26.36,5.95q.81.7,1.65,1.38c.27.21.54.42.82.62s.59.45.89.67a.47.47,0,0,1,.09.06c.77.55,1.56,1.08,2.37,1.58a43.64,43.64,0,0,0,3.85,2.12,46.62,46.62,0,0,0,4.43,1.87l.91.31.92.3c.92.28,1.85.53,2.79.76l.08,0c.6.14,1.2.27,1.81.39l.95.17a45.39,45.39,0,0,0,6.82.63l.69,0,435.72.49a44.24,44.24,0,0,0,31.44-13c.26-.25.5-.5.75-.76l.73-.78c.24-.26.47-.53.71-.8s.69-.81,1-1.23c.67-.83,1.31-1.68,1.92-2.56.31-.44.6-.88.89-1.33.2-.3.38-.6.57-.91l.55-.92c.36-.62.7-1.25,1-1.89l.48-1c.31-.65.61-1.31.89-2a41.44,41.44,0,0,0,1.5-4.08c.22-.69.42-1.4.6-2.1s.35-1.43.5-2.15c.08-.36.15-.72.21-1.09.13-.73.25-1.46.34-2.2s.18-1.49.23-2.24c0-.56.08-1.13.1-1.69s0-1.14,0-1.72l.09-81.84Z"/>
</svg>
