<?xml version="1.0" encoding="UTF-8"?>
<svg viewBox="0 0 4e3 4e3" xmlns="http://www.w3.org/2000/svg">
<defs>
<style>.cls-1{fill:#e8aa2d;}.cls-2{fill:#333;}.cls-3{fill:#b58024;opacity:0.8;}.cls-4{fill:#fff;opacity:0.1;}.cls-5{fill:#141414;}.cls-6{fill:#00bfbf;}.cls-7{fill:#3d3d3d;}.cls-8{fill:#f7c394;stroke:#333;stroke-miterlimit:10;stroke-width:5px;}.cls-9{opacity:0.08;}</style>
</defs>
<title>hand_neck10</title>
<path class="cls-1" d="m2243.6 3343.3a15.86 15.86 0 0 1-15.74-14.62l-1.85-24.77a14.09 14.09 0 0 1 8.87-14.15l-18.86-252.74a9.45 9.45 0 0 1-9.42-8.61l-1.8-24a9.22 9.22 0 0 1 4.7-8.74 9.53 9.53 0 0 1 4.14-1.28l4.15-0.31c17.32-4.86 32-16.13 40.38-31-2.23-1.53-3.43-3.35-3.58-5.42-0.2-2.66 1.37-5.16 4.66-7.43a139.63 139.63 0 0 1-5.2-70.61s0-0.06 0-0.08a97.4 97.4 0 0 1 2.97-13.52c1.95-7.06 3.64-13.18 1.51-17.74a5 5 0 0 1-2.26-3.93l-4-53.51a7.87 7.87 0 0 1 5.36-7.61 114.85 114.85 0 0 1 55.76-4.17 7.85 7.85 0 0 1 6.42 6.72l4 53.51a5.07 5.07 0 0 1-1.65 4.24c-1.43 4.82 1.15 10.62 4.14 17.31a97.85 97.85 0 0 1 5 13 15 15 0 0 1 0.41 1.93 140 140 0 0 1 4.6 69.31c3 1.68 4.64 3.76 4.82 6.19a7.1 7.1 0 0 1-2.41 5.57c10.51 13.61 26.77 22.68 44.75 24.92l5.73-0.43h0.74a9.66 9.66 0 0 1 4.36 1 9.16 9.16 0 0 1 5.14 7.58l1.8 24a9.43 9.43 0 0 1-7.66 9.85l19 253.39a14.08 14.08 0 0 1 9.12 12.16l1.85 24.77a15.8 15.8 0 0 1-14.53 16.94l-164.2 12.28c-0.43-0.02-0.8 0-1.22 0z"/>
<path class="cls-2" d="M2293.88,2779.81a112.18,112.18,0,0,1,19.09,1.64,5.38,5.38,0,0,1,4.36,4.45q2,26.76,4,53.51a2.55,2.55,0,0,1-.94,2.27,1.87,1.87,0,0,0-.56.87c-2.81,8.91,5.45,19.12,9.1,31.87a10.83,10.83,0,0,1,.35,1.67,1.28,1.28,0,0,0,.07.28,133.38,133.38,0,0,1,6.49,32.73,131.54,131.54,0,0,1-2.06,36,1.67,1.67,0,0,0,.89,1.83c2.45,1.27,3.88,2.76,4,4.44.1,1.35-.65,2.7-2.1,4a1.69,1.69,0,0,0-.27,2.27c10.73,14.27,27.65,24.12,47,26.51h.36l5.8-.43.55,0a7.15,7.15,0,0,1,3.23.77A6.74,6.74,0,0,1,2397,2990l1.8,24a7,7,0,0,1-6.54,7.34l-1.3.1,19.17,256.34a1.66,1.66,0,0,0,1.12,1.46,11.61,11.61,0,0,1,8,10.17l1.86,24.76a13.31,13.31,0,0,1-12.27,14.26l-164.2,12.28c-.34,0-.67,0-1,0a13.29,13.29,0,0,1-13.24-12.31l-1.86-24.77a11.6,11.6,0,0,1,7.79-11.82,1.69,1.69,0,0,0,1.13-1.71l-19-254.1a1.69,1.69,0,0,0-1.69-1.56h-.12a5.24,5.24,0,0,1-.56,0,6.92,6.92,0,0,1-7-6.3l-1.8-24a6.77,6.77,0,0,1,3.46-6.38,6.92,6.92,0,0,1,3.08-.95l4.21-.32a2,2,0,0,0,.35-.06c18.63-5.21,33.82-17.33,42.34-32.89a1.7,1.7,0,0,0-.65-2.26c-1.83-1.14-2.89-2.44-3-3.88-.14-1.86,1.34-3.74,4.07-5.5a1.68,1.68,0,0,0,.67-2,137.14,137.14,0,0,1-5.29-70,.41.41,0,0,1,0-.11c1.71-13.15,8.36-24.48,4.26-32.87a1.72,1.72,0,0,0-.69-.77,2.57,2.57,0,0,1-1.26-2.11q-2-26.76-4-53.51a5.37,5.37,0,0,1,3.64-5,112.55,112.55,0,0,1,35.46-5.72m0-5h0a117.24,117.24,0,0,0-37,6,10.33,10.33,0,0,0-7.06,10.17l2,26.76,2,26.75a7.56,7.56,0,0,0,2.72,5.35c1.37,3.73-.15,9.2-1.88,15.48a99.56,99.56,0,0,0-3.12,13.9v0a142.42,142.42,0,0,0,4.72,70.1c-3.71,3.13-4.37,6.28-4.21,8.5a9,9,0,0,0,2.84,5.81c-8.17,13.33-21.7,23.43-37.58,27.95l-3.89.29a12.22,12.22,0,0,0-5.22,1.61,11.75,11.75,0,0,0-5.94,11.09l1.8,24a11.93,11.93,0,0,0,9.58,10.69l18.62,248.91a16.6,16.6,0,0,0-8.73,15.88l1.85,24.76a18.37,18.37,0,0,0,18.23,16.94c.46,0,.92,0,1.38-.05l164.2-12.29a18.31,18.31,0,0,0,16.88-19.61l-1.85-24.77a16.57,16.57,0,0,0-9.23-13.66l-18.7-249.88a11.87,11.87,0,0,0,7.51-11.86l-1.8-24a11.67,11.67,0,0,0-6.54-9.64,12.18,12.18,0,0,0-5.45-1.29c-.3,0-.62,0-.92,0l-5.49.41c-16.53-2.13-31.52-10.22-41.58-22.39a8.9,8.9,0,0,0,1.67-5.78c-.15-2-1.11-4.78-4.54-7.21a142.79,142.79,0,0,0-4.93-68.69,17.5,17.5,0,0,0-.45-2,102.13,102.13,0,0,0-5.15-13.29c-2.65-5.95-5-11.13-4.17-15a7.57,7.57,0,0,0,1.9-5.69l-2-26.76-2-26.75a10.3,10.3,0,0,0-8.49-9,117.64,117.64,0,0,0-19.94-1.71Z"/>
<path class="cls-3" d="M2387.55,3021.72l19.18,256.34a5,5,0,0,0,3.45,4.45,8.19,8.19,0,0,1,5.62,7.19l1.85,24.76a9.89,9.89,0,0,1-9.12,10.6l-33.79,2.53a9.91,9.91,0,0,0,9.13-10.6l-1.85-24.77a8.22,8.22,0,0,0-5.62-7.19,5,5,0,0,1-3.46-4.44l-19.17-256.34a3.41,3.41,0,0,1,3.14-3.66l1.3-.1a3.54,3.54,0,0,0,3.39-3.67l-1.79-24a3.38,3.38,0,0,0-1.93-2.76,3.82,3.82,0,0,0-2-.37l-5.81.43a4.36,4.36,0,0,1-1,0c-19.85-2.45-37.82-12.61-49.27-27.83a5.11,5.11,0,0,1,.71-6.87,4,4,0,0,0,1-1.21c-.06-.17-.57-.86-2.16-1.67a5.12,5.12,0,0,1-2.68-5.56,134.14,134.14,0,0,0-4.32-66.92,5.16,5.16,0,0,1-.21-.92,7.88,7.88,0,0,0-.26-1.19,95,95,0,0,0-4.73-12.18c-3.37-7.53-6.55-14.66-4.34-21.65a5.37,5.37,0,0,1,1.33-2.19l-4-53.17a2.08,2.08,0,0,0-1.55-1.35c-3.2-.56-6.44-1-9.69-1.23a109.27,109.27,0,0,1,43.47-1.3,2.12,2.12,0,0,1,1.55,1.35l4,53.17a5.34,5.34,0,0,0-1.34,2.19c-2.21,7,1,14.13,4.34,21.65a94.52,94.52,0,0,1,4.73,12.19,7.75,7.75,0,0,1,.26,1.18,5.16,5.16,0,0,0,.21.92,134.14,134.14,0,0,1,4.32,66.92,5.12,5.12,0,0,0,2.68,5.56,4.94,4.94,0,0,1,2.16,1.67,3.45,3.45,0,0,1-1,1.21,5.11,5.11,0,0,0-.71,6.87c11.45,15.23,29.42,25.38,49.27,27.84a5,5,0,0,0,1,0l5.81-.43a3.84,3.84,0,0,1,2,.38,3.38,3.38,0,0,1,1.92,2.76l1.8,24a3.54,3.54,0,0,1-3.4,3.67l-1.3.1A3.42,3.42,0,0,0,2387.55,3021.72Z"/>
<path class="cls-4" d="M2244.33,3337.34a9.91,9.91,0,0,1-10.59-9.12l-1.85-24.77a8.17,8.17,0,0,1,5.49-8.34,5.1,5.1,0,0,0,3.42-5.2l-19-254.09a5.11,5.11,0,0,0-5.47-4.71,3.55,3.55,0,0,1-3.9-3.13l-1.79-24a3.36,3.36,0,0,1,1.74-3.17,3.8,3.8,0,0,1,1.64-.51l4.22-.31a5.78,5.78,0,0,0,1-.18c19.14-5.35,35.32-17.94,44.42-34.54a5.14,5.14,0,0,0-1.85-6.81c-1-.63-1.36-1.12-1.4-1.25s.57-1.09,2.52-2.36a5.06,5.06,0,0,0,2-6,133.6,133.6,0,0,1-5.15-68.19,2.34,2.34,0,0,0,0-.26s0-.09,0-.13a93.4,93.4,0,0,1,2.88-12.69c2.2-8,4.28-15.47,1.06-22.06a5.45,5.45,0,0,0-1.64-2l-4-53.18a2.06,2.06,0,0,1,1.32-1.55,109.19,109.19,0,0,1,52.89-4,2.11,2.11,0,0,1,1.53,1.34l4,53.19a5.22,5.22,0,0,0-1.33,2.18c-2.2,7,1,14.12,4.33,21.66a90.57,90.57,0,0,1,4.75,12.18,9,9,0,0,1,.25,1.19,4.47,4.47,0,0,0,.21.91,133.84,133.84,0,0,1,4.32,66.92,5.13,5.13,0,0,0,2.68,5.56c1.59.82,2.11,1.5,2.16,1.68h0a3.56,3.56,0,0,1-1,1.21,5.08,5.08,0,0,0-.71,6.85c11.46,15.24,29.42,25.39,49.27,27.85a5.07,5.07,0,0,0,1,0l5.81-.43a3.79,3.79,0,0,1,2,.38,3.34,3.34,0,0,1,1.92,2.75l1.8,24A3.55,3.55,0,0,1,2392,3018l-1.3.09a3.42,3.42,0,0,0-3.15,3.66l19.18,256.34a5.05,5.05,0,0,0,3.46,4.46,8.17,8.17,0,0,1,5.62,7.17l1.85,24.77a9.89,9.89,0,0,1-9.12,10.59Z"/>
<path class="cls-5" d="M2335.84,2909.1q.3,3.89.36,7.7a236.87,236.87,0,0,0-80.81,6.58q-.54-4-.85-8.2a132.16,132.16,0,0,1,1.92-35.23s0-.07,0-.11c1.71-13.15,8.36-24.47,4.25-32.87a1.64,1.64,0,0,0-.68-.77,2.61,2.61,0,0,1-1.27-2.11l-4-53.51a5.38,5.38,0,0,1,3.65-5,112.71,112.71,0,0,1,54.55-4.08,5.38,5.38,0,0,1,4.36,4.45l4,53.51a2.56,2.56,0,0,1-.94,2.27,1.77,1.77,0,0,0-.56.86c-2.81,8.92,5.45,19.13,9.11,31.88a16,16,0,0,1,.34,1.67,2.3,2.3,0,0,0,.06.28A133,133,0,0,1,2335.84,2909.1Z"/>
<path class="cls-6" d="m2392.2 3037.6 17.38 232.31q-86 10-172.68 13l-17.38-232.31q86.52-2.97 172.68-13z"/>
<path class="cls-5" d="m2392.2 3037.6 17.38 232.31q-86 10-172.68 13l-17.38-232.31q86.52-2.97 172.68-13z"/>
<path class="cls-7" d="m2283.1 2840.9c4.15 9-2.44 21.14-4.08 35.23v0.11a151.12 151.12 0 0 0-1.73 37.77c0.12 1.59 0.26 3.16 0.42 4.73q-11.23 1.76-22.31 4.63-0.54-4-0.85-8.2a132.16 132.16 0 0 1 1.92-35.23s0-0.07 0-0.11c1.71-13.15 8.36-24.47 4.25-32.87a1.64 1.64 0 0 0-0.68-0.77 2.61 2.61 0 0 1-1.27-2.11l-4-53.51a5.38 5.38 0 0 1 3.65-5 110.83 110.83 0 0 1 18.47-4.42l4.24 56.69a2.84 2.84 0 0 0 1.28 2.28 1.81 1.81 0 0 1 0.69 0.78z"/>
<path class="cls-7" d="m2253.6 3049.2 17.39 232.31q-17.05 0.88-34.13 1.47l-17.38-232.31q17.07-0.58 34.12-1.47z"/>
<path class="cls-8" d="M2492.28,3153.76c0-.46.09-.93.12-1.38.07-.65.12-1.3.14-1.94q.09-1.47.15-2.91c0-.63,0-1.24.07-1.85s0-1.51,0-2.27c0-1.36,0-2.72,0-4.07s-.11-2.67-.18-4a.29.29,0,0,1,0-.13c-.08-1.3-.18-2.6-.33-3.89-.06-.57-.11-1.13-.17-1.7-.1-.76-.19-1.5-.28-2.26-.08-.51-.15-1-.23-1.53,0-.24-.07-.45-.11-.69-.09-.56-.17-1.11-.27-1.67-.13-.73-.26-1.45-.4-2.17-.08-.44-.18-.87-.26-1.31-.29-1.4-.61-2.79-1-4.15-.15-.64-.32-1.27-.49-1.89s-.34-1.24-.52-1.86-.36-1.22-.56-1.84-.38-1.23-.58-1.84c-.62-1.82-1.28-3.63-2-5.4l-.47-1.18c-.57-1.38-1.18-2.74-1.8-4.09a97.66,97.66,0,0,0-22.44-30.55A77.73,77.73,0,0,0,2332,3140.3a77.76,77.76,0,0,0,2.6,111.77h0c.72.67,1.44,1.32,2.18,1.94s1.5,1.25,2.26,1.86l1.07.84c1.46,1.11,3,2.17,4.5,3.18.53.36,1.07.69,1.61,1,1.09.68,2.21,1.34,3.34,2,.53.3,1.07.6,1.62.87l.11.06c.38.21.78.41,1.17.61l2.12,1c.67.33,1.33.62,2,.9.27.12.55.25.85.36.5.22,1,.42,1.52.62l.34.13,1,.39,1.76.62c.39.14.79.26,1.19.39s1.06.35,1.6.51l.83.25c.66.19,1.34.39,2,.55l.26.07c.64.17,1.26.32,1.9.47s1.31.3,2,.42l1.63.32,1.22.2.49.08c.43.09.88.15,1.31.21a77.43,77.43,0,0,0,28.83-1.37,83.35,83.35,0,0,0,10.42-3.2s0,0,0,0a83.86,83.86,0,0,0,9.74-4.39h0c1.25-.65,2.49-1.34,3.71-2,0,0,0,0,0,0,1.22-.71,2.41-1.45,3.59-2.22h0c1.18-.75,2.35-1.54,3.5-2.37h0a103.31,103.31,0,0,0,11.4-9.36q2.28-2.16,4.5-4.47c1-1,1.93-2.05,2.85-3.09q3.49-3.94,6.68-8.15c.86-1.12,1.69-2.25,2.5-3.38s1.6-2.31,2.37-3.47c1.18-1.74,2.3-3.5,3.38-5.28.36-.59.71-1.18,1.07-1.79.71-1.19,1.39-2.38,2.06-3.58s1.33-2.42,2-3.63l.94-1.82q2.33-4.56,4.3-9.14c.8-1.84,1.54-3.66,2.25-5.48.25-.61.48-1.22.7-1.82.48-1.22.92-2.43,1.33-3.63.64-1.79,1.24-3.6,1.79-5.36.75-2.39,1.42-4.72,2-7a137.06,137.06,0,0,0,3.45-17.89C2492,3156.56,2492.17,3155.15,2492.28,3153.76Z"/>
<path class="cls-9" d="M2491.58,3153.28a139.12,139.12,0,0,1-2.52,18c-.47,2.33-1,4.7-1.63,7.12-.47,1.8-1,3.63-1.51,5.46-.36,1.22-.74,2.45-1.13,3.69-.2.61-.39,1.24-.6,1.86q-.93,2.78-2,5.58c-1.17,3.13-2.44,6.24-3.81,9.36-.28.62-.56,1.25-.85,1.86-.57,1.24-1.15,2.49-1.76,3.73s-1.23,2.46-1.87,3.69l-1,1.84c-1,1.84-2,3.65-3.09,5.45-.72,1.2-1.46,2.4-2.19,3.59s-1.53,2.34-2.31,3.5q-3,4.38-6.25,8.5c-.88,1.09-1.78,2.17-2.69,3.23q-2.09,2.41-4.25,4.7a110.26,110.26,0,0,1-10.89,9.95s0,0,0,0c-1.1.87-2.22,1.71-3.36,2.55h0c-1.14.83-2.29,1.62-3.47,2.42,0,0,0,0,0,0-1.18.77-2.38,1.52-3.59,2.25h0a91.39,91.39,0,0,1-9.5,4.89h0a85.57,85.57,0,0,1-10.25,3.73,77.52,77.52,0,0,1-28.72,2.89L2381,3273l-.49-.06-1.23-.14-1.64-.23-2-.31c-.65-.12-1.28-.23-1.92-.37l-.26-.05c-.68-.13-1.36-.29-2-.45-.27-.07-.55-.14-.85-.2l-1.62-.43c-.4-.11-.81-.21-1.21-.33l-1.79-.53-1-.33-.34-.12c-.52-.17-1-.34-1.55-.53-.3-.1-.59-.21-.87-.32-.69-.24-1.36-.5-2-.79s-1.45-.6-2.16-.9l-1.21-.55-.11,0c-.56-.25-1.12-.51-1.66-.79-1.16-.57-2.32-1.17-3.44-1.79-.56-.31-1.11-.61-1.67-.94q-2.39-1.4-4.66-2.94l-1.11-.78c-.79-.57-1.58-1.15-2.35-1.74s-1.53-1.19-2.28-1.83c.53.08,1.07.13,1.6.17a77.76,77.76,0,0,0,28.72-2.88c45.31-13.33,70.35-61.63,78-98.94,5.91-28.71,5.89-76.62-5.91-98.76h0a77.61,77.61,0,0,1,13.82,9.17,97.78,97.78,0,0,1,24,29.33c.7,1.32,1.37,2.64,2,4l.54,1.16c.8,1.73,1.55,3.5,2.26,5.29.23.6.47,1.2.68,1.8s.45,1.21.66,1.81l.62,1.83c.2.62.4,1.23.59,1.86.42,1.34.81,2.71,1.17,4.1.11.43.23.86.33,1.29.18.71.34,1.42.51,2.15.13.55.24,1.1.36,1.65.05.23.09.45.14.68.11.51.21,1,.31,1.52.13.75.27,1.49.4,2.24.09.56.17,1.12.27,1.69.2,1.28.37,2.57.52,3.87a.69.69,0,0,0,0,.13c.14,1.32.28,2.65.39,4s.19,2.71.25,4.06c0,.76.06,1.51.09,2.27,0,.61,0,1.23,0,1.85,0,1,0,1.94,0,2.92,0,.64,0,1.29,0,1.94,0,.45,0,.92-.05,1.39C2491.76,3150.45,2491.68,3151.86,2491.58,3153.28Z"/>
</svg>
