<?xml version="1.0" encoding="UTF-8"?>
<svg viewBox="0 0 4e3 4e3" xmlns="http://www.w3.org/2000/svg">
<defs>
<style>.cls-1{opacity:0.15;}.cls-2{stroke:#000;stroke-width:6.5px;}.cls-2,.cls-3{stroke-miterlimit:10;}.cls-3{fill:#1a1a1a;stroke:#999;stroke-width:5px;}</style>
</defs>
<title>hand_neck8</title>
<g class="cls-1">
<path class="cls-2" d="m1867.8 2863.2c-19.68 2.16-59.89 102.12 14 161.8 17.51 9.34 96.51-48.27 99.18-55.3-0.63-9.3-0.42-48.4-0.69-64.23-10.53-16.11-72.06-46.7-112.49-42.27z"/>
<path class="cls-2" d="m2142.6 2861.9c19.71 1.82 61.66 101.06-11.18 162-17.34 9.64-99.16-46.56-102-53.54 0.46-9.31 0-47.1 0-62.93 10.29-16.28 72.67-49.25 113.18-45.53z"/>
<path class="cls-2" d="m1985.6 2901.2c7.72-1 12.59 2.42 18.58 2.42s11.16-1.95 17.15-2.27 8.12 2.32 8.35 7.61c0.21 5-0.48 55-0.48 59.61s-4.65 5.5-8.46 5.54-7.6-3.18-12.47-3.13-12.34 2.53-17.35 2.57-9.22-1-9.25-5.33-1.23-57.71-1.26-62 5.19-5.02 5.19-5.02z"/>
</g>
<path class="cls-3" d="m1867.8 2846.3c-19.68 2.16-59.89 102.12 14 161.8 17.51 9.34 96.51-48.27 99.18-55.3-0.63-9.3-0.42-48.4-0.69-64.23-10.53-16.11-72.06-46.7-112.49-42.27z"/>
<path class="cls-3" d="m2142.6 2845c19.71 1.82 61.66 101.06-11.18 162-17.34 9.64-99.16-46.56-102-53.54 0.46-9.31 0-47.1 0-62.93 10.29-16.31 72.67-49.28 113.18-45.53z"/>
<path class="cls-3" d="m1985.6 2884.3c7.72-1 12.59 2.42 18.58 2.42s11.16-2 17.15-2.27 8.12 2.32 8.35 7.61c0.21 5-0.48 55-0.48 59.61s-4.65 5.5-8.46 5.54-7.6-3.18-12.47-3.13-12.34 2.53-17.35 2.57-9.22-1-9.25-5.33-1.23-57.71-1.26-62 5.19-5.02 5.19-5.02z"/>
</svg>
