<?xml version="1.0" encoding="UTF-8"?>
<svg viewBox="0 0 4e3 4e3" xmlns="http://www.w3.org/2000/svg">
<defs>
<style>.cls-1{fill:#333;opacity:0.2;}.cls-2{fill:#e6e6e6;}.cls-2,.cls-3,.cls-4,.cls-5,.cls-6,.cls-7{stroke:#333;stroke-width:5px;}.cls-2,.cls-4,.cls-5,.cls-6,.cls-7{stroke-miterlimit:10;}.cls-3{fill:#eaeaea;stroke-linecap:round;stroke-linejoin:round;}.cls-4{fill:#919191;}.cls-5{fill:#4f4f4f;}.cls-6{fill:#cffffe;}.cls-7{fill:#ebfffe;}</style>
</defs>
<title>hand_neck6</title>
<path class="cls-1" d="m2259.5 3260.5v4.08c-13 17.28-27 29.38-44.78 45.33h-0.26q-7.72 7-15.82 13.43l-397.57 3.32q-8-6.24-15.58-13h-2.3c-12.9-11-23.19-19.25-33.12-30.63-0.06-0.54-0.1-1.09-0.13-1.64s0-1.11-0.06-1.67v-2.61q-9.22-11-17.39-22.52l1.53-41.86-1.66-190.8a36.31 36.31 0 0 1 19.5-32.51c0.66-0.34 1.33-0.68 2-1l-9.95-118.46c4.64 1.2 9.29 2.35 13.93 3.49q8.31 2 16.63 3.91l9 107.79 8.69-0.08-0.29-35.12h0.59l82.29-0.71 0.07 8.07 0.23 27 7.22-0.06 333.15-2.9 12.17-0.11 8.52-104q8.52-2 17-4.13c4.72-1.18 9.43-2.39 14.16-3.64l-10.14 118.35a36.31 36.31 0 0 1 15.42 29.4l2.68 220q-7.23 11.9-15.73 23.28z"/>
<path class="cls-2" d="m1800.6 3046.8-28 2.34-4.6-54.87-10.12-120.8q8.31 2 16.63 3.91 6.09 1.38 12.17 2.7l5.85 69.89 3.45 41.18z"/>
<path class="cls-2" d="m2253.2 2873.2-10.31 120.52-4.41 51.4-28-2.29 4.53-55.3 0.5-6.09 8.3-101.31q6.2-1.36 12.39-2.82 8.48-1.97 17-4.11z"/>
<path class="cls-3" d="M2259.63,3275.3c0,.64,0,1.29,0,1.93a.71.71,0,0,0,0,.14l-.06.87c0,.41-.07.82-.11,1.22s-.11.9-.18,1.35-.19,1.12-.3,1.68-.23,1.1-.38,1.64-.26,1-.4,1.44-.25.82-.4,1.22-.31.89-.48,1.32l-.24.59c-.15.38-.31.75-.48,1.12s-.31.67-.48,1c-.32.65-.66,1.28-1,1.91l-.32.53c-.42.72-.88,1.42-1.36,2.1-.26.36-.52.72-.79,1.06a33.84,33.84,0,0,1-6.12,6.19l-.63.48c-.32.24-.64.47-1,.69-.54.39-1.1.75-1.66,1.09s-.89.53-1.34.78a32.71,32.71,0,0,1-5.3,2.35l-1.07.35-.52.16-.13,0-.9.24c-.53.14-1.06.27-1.6.38l-.88.17c-.77.14-1.54.25-2.33.33l-.83.09c-.59,0-1.18.08-1.77.1-.3,0-.59,0-.89,0l-10.9.1h-.26l-429,3.74h-2.3a33.68,33.68,0,0,1-9.19-1.53,28.51,28.51,0,0,1-3.13-1.14c-.77-.32-1.52-.67-2.26-1-.49-.25-1-.51-1.45-.78s-.94-.55-1.4-.85-.91-.58-1.35-.89a34.83,34.83,0,0,1-3.21-2.58c-.41-.36-.81-.74-1.19-1.12l-.09-.09q-.62-.61-1.2-1.26c-.27-.29-.53-.59-.78-.89s-.45-.53-.66-.81l-.39-.49q-.32-.39-.6-.81l0,0c-.29-.39-.56-.79-.82-1.2s-.39-.6-.58-.91-.24-.39-.35-.59c-.51-.88-1-1.78-1.42-2.7-.16-.33-.31-.67-.45-1s-.22-.51-.32-.76-.31-.79-.45-1.18-.33-.93-.47-1.41-.27-.88-.39-1.33-.22-.91-.33-1.36-.13-.63-.2-.95-.11-.64-.17-1a.3.3,0,0,1,0-.1c-.09-.61-.17-1.23-.24-1.85s-.1-1.1-.14-1.66,0-1.11,0-1.67l0-2.59-.56-64v-.63l-1.62-186.61c0-.69,0-1.38,0-2.06s.08-1.16.13-1.73c0-.29.06-.57.1-.85l.12-.85a33.46,33.46,0,0,1,.89-4.14l.24-.81c.17-.53.34-1.06.53-1.58s.38-1,.61-1.55l.33-.76a29.17,29.17,0,0,1,1.5-2.95l.41-.71s0,0,0,0c.29-.46.58-.92.89-1.37l.46-.68c.32-.45.64-.89,1-1.32l.78-1a34.59,34.59,0,0,1,6.75-6.15c.43-.3.87-.59,1.32-.88l.63-.38,1-.61c.35-.19.72-.39,1.09-.57s.92-.45,1.39-.66l0,0a31.75,31.75,0,0,1,4-1.49l.88-.25c.54-.16,1.09-.29,1.64-.42l.93-.19,1-.18,1.3-.19a37.1,37.1,0,0,1,4-.26l14.3-.12,8.21-.08,78.19-.68,332.6-2.9,7.89-.07h.5c.43,0,.84,0,1.27,0l1.16.07a31.24,31.24,0,0,1,3.78.5l.81.17c.44.08.87.18,1.3.3l1.1.3,1.29.41c.53.18,1,.37,1.57.57.27.1.53.2.78.31s.63.27.95.42l.93.44c.8.39,1.59.82,2.36,1.28l.52.32,1,.67h0l.67.46c.67.47,1.33,1,2,1.49.42.35.83.7,1.24,1.07s.8.73,1.19,1.12.71.73,1.06,1.1l.08.08.94,1.07c.23.26.45.53.65.8.34.42.67.86,1,1.3s.55.79.81,1.19c.12.17.23.34.34.52s.22.34.32.52.22.35.32.53q.3.53.6,1.08c.1.18.2.36.29.55a33.44,33.44,0,0,1,2,4.86c.1.31.2.62.29.94l.06.19c.05.15.09.31.14.48s.13.5.19.75.07.26.1.4c.09.38.17.76.25,1.14s.18.91.25,1.36c0,.28.09.57.12.85.08.59.15,1.19.2,1.79.08.84.12,1.7.12,2.56l.47,54.3,1.62,184.82,0,4.08h0Z"/>
<path class="cls-4" d="m2257.9 3075.7-509.71 4.42-0.48-54.28a34.29 34.29 0 0 1 34-34.59l441.18-3.84a34.24 34.24 0 0 1 34.56 34z"/>
<path class="cls-4" d="M2259.62,3275.29c0,.65,0,1.3,0,1.94,0,.34,0,.68-.07,1s-.07.77-.1,1.15l0,.19c0,.18,0,.37-.07.56s-.06.45-.09.67q-.14.84-.3,1.68c-.11.55-.24,1.1-.38,1.64-.17.7-.37,1.38-.59,2-.07.21-.13.41-.21.61a31.07,31.07,0,0,1-1.44,3.53l-.24.5c-.16.32-.32.64-.5,1s-.29.54-.44.81a34.28,34.28,0,0,1-6,7.72l-.6.56a33.2,33.2,0,0,1-2.68,2.22c-.32.24-.64.47-1,.69-.54.39-1.1.75-1.66,1.09s-.89.53-1.34.78-.85.46-1.28.67l-.93.44-.72.32c-.38.17-.77.33-1.16.48l-1.21.44-1.07.35-.83.25-.72.19a31.74,31.74,0,0,1-3.11.65l-.76.12a34.24,34.24,0,0,1-3.54.3l-.88,0-10.9.09h-.26l-429,3.73h-2.29a34.3,34.3,0,0,1-9.17-1.51c-1.07-.33-2.11-.71-3.13-1.14-.77-.32-1.52-.67-2.26-1-.49-.25-1-.51-1.45-.78s-.94-.55-1.4-.85-.91-.59-1.35-.89a35.44,35.44,0,0,1-4.49-3.79q-.62-.61-1.2-1.26c-.27-.29-.53-.59-.78-.89s-.45-.53-.66-.81l-.39-.49q-.32-.39-.6-.81l0,0c-.28-.4-.56-.79-.82-1.2s-.67-1-1-1.58-.48-.83-.7-1.26-.46-.9-.68-1.36-.31-.67-.45-1-.22-.51-.32-.76-.31-.79-.45-1.18l-.15-.42c-.08-.23-.16-.46-.23-.69s-.07-.2-.09-.3c-.14-.44-.27-.88-.39-1.33-.06-.23-.12-.45-.17-.68s-.11-.45-.16-.68-.13-.63-.2-.95-.11-.64-.17-1a.3.3,0,0,1,0-.1c-.1-.61-.18-1.23-.25-1.86h0c-.06-.54-.1-1.09-.13-1.64s0-1.11-.06-1.67l0-2.61-.55-64v-.63l-.82-96.38,188.49-1.65,36.64-.32,62.38-.54,48.89-.43,62.39-.54,36.64-.32,74.28-.65,1.31,148.91,0,4.08Z"/>
<rect class="cls-5" transform="translate(-25.88 16.2) rotate(-.5)" x="1804" y="2957.6" width="78.2" height="33.14"/>
<circle class="cls-5" cx="2060.7" cy="3150.1" r="128.8"/>
<circle class="cls-6" cx="2060.7" cy="3150.1" r="94.28"/>
<circle class="cls-7" cx="2060.7" cy="3150.1" r="44.15"/>
</svg>
