<?xml version="1.0" encoding="UTF-8"?>
<svg viewBox="0 0 4e3 4e3" xmlns="http://www.w3.org/2000/svg">
<defs>
<style>.cls-1{fill:#cb831f;stroke-width:6.5px;}.cls-1,.cls-3,.cls-5{stroke:#333;stroke-miterlimit:10;}.cls-2{opacity:0.3;}.cls-3,.cls-5{fill:#f7c394;}.cls-3{stroke-width:6.8px;}.cls-4{opacity:0.08;}.cls-5{stroke-width:7.12px;}</style>
</defs>
<title>hand_neck3</title>
<path class="cls-1" d="m2512.6 3163.2c-29.11-7.14-220.06-64.82-286.3-82.11-79.79-20.82-412-140.94-504.12-172.07-49-16.56-202.55-97.91-221.08 40.89s149.69 129.18 189.67 131.18c55.37 2.77 716.85 75.78 816.43 117.52 17.13-6.97 5.4-35.41 5.4-35.41z"/>
<ellipse class="cls-1" transform="translate(-1205.8 4808.4) rotate(-75.1)" cx="2524.7" cy="3188.6" rx="38.87" ry="19.64"/>
<path class="cls-2" d="m2543.1 3195.8c-6.14 20.55-19.32 33.95-29.46 29.93-7.46-2.95-11.18-14.52-10.19-28.6-111.6-41.9-765.33-115.18-812.58-119-39.9-3.23-208.3 10.58-189.78-128.22q1-7.5 2.53-14.17c-7.53 125.87 152.17 113.52 190.91 116.35 50 3.65 673.51 76.32 809.91 133.76-1 14.09 32.56 33.78 41.65-13.93a69.57 69.57 0 0 1-2.99 23.88z"/>
<path class="cls-3" d="m1601.8 3264.1a74.45 74.45 0 0 1-26-4.71c-21.88-8.14-39.52-25-52.42-50.18a158.36 158.36 0 0 1-15.71-49.91c-5.6-41.94 8.67-78.53 39.16-100.38a74.7 74.7 0 0 1 114.2 84.87 74.72 74.72 0 0 1-59.19 120.31z"/>
<path class="cls-4" d="M1645.37,3250.08c-1.58,1.13-3.19,2.19-4.85,3.2a.05.05,0,0,1,0,0c-.79.48-1.6,1-2.42,1.4l0,0c-.79.45-1.61.87-2.42,1.29-1,.5-2,1-3,1.46-.67.3-1.35.58-2,.87a2.2,2.2,0,0,1-.34.13c-.73.32-1.48.62-2.24.89l-1.29.46c-.44.16-.89.33-1.35.46l-1.34.44c-.43.14-.88.27-1.33.39-1.33.4-2.68.75-4.05,1.07l-1.36.29c-.41.1-.82.18-1.23.26-.83.17-1.67.32-2.52.44l-1.44.22-.88.12-.86.09a72.26,72.26,0,0,1-8.47.49,74.67,74.67,0,0,1-26-4.7c-21.88-8.14-39.52-25-52.42-50.18-1.14-2.22-2.23-4.49-3.25-6.8s-2.12-4.85-3.09-7.32c-.52-1.34-1-2.67-1.51-4a156.84,156.84,0,0,1-7.4-28.63c-.17-1.05-.33-2.11-.47-3.16a133,133,0,0,1-1.19-17.6c0-.91,0-1.82,0-2.72,0-.39,0-.8,0-1.2,0-1,.07-1.94.13-2.89,0-.77.09-1.52.15-2.28,0-.21,0-.42,0-.62.07-.87.15-1.76.24-2.62,0-.4.1-.81.14-1.19.08-.77.17-1.51.27-2.26q.36-2.64.83-5.21c.08-.48.18-1,.27-1.43.26-1.35.55-2.7.87-4,.14-.61.29-1.19.44-1.79a100.2,100.2,0,0,1,3.31-10.59c.19-.48.36-1,.55-1.44.45-1.16.93-2.3,1.42-3.42.23-.54.47-1.09.73-1.63s.6-1.32.93-2,.67-1.38,1-2.05c1-2,2.12-4,3.29-5.86a93.8,93.8,0,0,1,25.67-27.58,74.46,74.46,0,0,1,13.85-7.87v.08s0,0,0,0h0s0,.08,0,.14h0c-12.81,20.41-16.07,66.08-12.34,94a158,158,0,0,0,15.71,49.9c12.9,25.16,30.54,42.05,52.42,50.18a74.4,74.4,0,0,0,26,4.71C1643.48,3250.13,1644.43,3250.12,1645.37,3250.08Z"/>
<path class="cls-5" d="m2393.3 3264.8a78.14 78.14 0 0 1-62.73-124.73 78.12 78.12 0 0 1 117.86-90.82c32.28 22.29 47.87 60.29 42.77 104.24-4.4 38-25.23 88.58-69.41 105.9a77.93 77.93 0 0 1-28.49 5.41z"/>
<path class="cls-4" d="M2492.1,3135.24a138.92,138.92,0,0,1-.94,18.29q-.4,3.55-1,7.27c-.31,1.84-.65,3.71-1,5.59-.26,1.25-.53,2.52-.81,3.8-.15.63-.29,1.27-.44,1.91-.46,1.91-1,3.83-1.48,5.76q-1.35,4.84-3,9.71c-.23.64-.44,1.29-.69,1.93-.47,1.3-.94,2.59-1.43,3.89s-1,2.57-1.55,3.85c-.26.64-.53,1.3-.82,1.94-.84,1.92-1.7,3.83-2.61,5.72-.6,1.27-1.23,2.52-1.88,3.79s-1.33,2.47-2,3.71c-1.71,3.07-3.54,6.1-5.51,9-.78,1.17-1.59,2.33-2.4,3.47-1.23,1.72-2.51,3.43-3.84,5.08a112.77,112.77,0,0,1-10,10.92h0c-1,1-2.08,1.9-3.15,2.84,0,0,0,0,0,0-1.07.93-2.15,1.83-3.26,2.72h0c-1.11.87-2.25,1.72-3.4,2.56,0,0,0,0,0,0a91,91,0,0,1-9.08,5.74h0a87.41,87.41,0,0,1-9.93,4.64,77.84,77.84,0,0,1-28.49,5.4h-1.33a2.77,2.77,0,0,1-.5,0c-.41,0-.82,0-1.23,0s-1.11,0-1.67-.09-1.36-.08-2-.14-1.3-.11-1.95-.2a1.31,1.31,0,0,1-.27,0c-.69-.07-1.38-.17-2.07-.27l-.86-.13c-.56-.08-1.11-.17-1.67-.28-.41-.07-.83-.14-1.24-.23-.61-.11-1.22-.23-1.83-.37l-1.06-.24-.35-.09c-.53-.12-1.07-.25-1.6-.39-.3-.07-.59-.16-.89-.25-.71-.18-1.41-.38-2.12-.61s-1.5-.45-2.25-.71c-.41-.14-.84-.28-1.25-.44-.05,0-.09,0-.12,0-.58-.2-1.16-.42-1.73-.64-1.21-.46-2.42-1-3.6-1.5-.59-.25-1.17-.51-1.75-.79-1.68-.79-3.32-1.63-4.93-2.54l-1.18-.68c-.84-.5-1.68-1-2.5-1.54s-1.64-1.05-2.45-1.62c.54,0,1.08,0,1.62,0a78.14,78.14,0,0,0,28.49-5.41c44.19-17.33,65-67.88,69.42-105.9,3.38-29.26-.84-77.22-14.6-98.34h0a78.24,78.24,0,0,1,14.64,8,98.22,98.22,0,0,1,26.61,27.25c.83,1.25,1.61,2.52,2.36,3.81l.64,1.11c1,1.67,1.88,3.38,2.74,5.1.28.58.57,1.17.84,1.75s.55,1.17.81,1.75.54,1.18.78,1.78.51,1.19.75,1.81c.54,1.32,1.06,2.64,1.54,4,.14.43.3.84.44,1.27.26.7.49,1.4.7,2.11.18.54.34,1.08.51,1.62.07.21.14.44.2.67.16.5.3,1,.44,1.49.22.74.41,1.47.6,2.21.14.55.27,1.11.41,1.66.32,1.27.6,2.55.87,3.83a.61.61,0,0,0,0,.13c.25,1.31.51,2.63.74,4s.43,2.68.61,4c.1.75.2,1.5.28,2.26s.13,1.22.19,1.85c.11,1,.2,1.93.26,2.92.07.64.11,1.29.14,2,0,.45,0,.92.07,1.39C2492,3132.4,2492.07,3133.82,2492.1,3135.24Z"/>
</svg>
