<?xml version="1.0" encoding="UTF-8"?>
<svg viewBox="0 0 4e3 4e3" xmlns="http://www.w3.org/2000/svg">
<defs>
<style>.cls-1{fill:#4b4bb2;}.cls-2{fill:#333;}.cls-3{fill:#5252cc;}.cls-4{fill:#5bdd9c;}.cls-5{opacity:0.2;}</style>
</defs>
<title>hand_neck9</title>
<path class="cls-1" d="M1979.58,2956.28l-18-28.08-18.22-28.36,4.93.31c9.14.58,18.59,1,28.09,1.34q3.15.11,6.31.18c8.24.22,16.67.34,25.08.34,8.92,0,17.91-.13,26.71-.39,1.84,0,3.67-.11,5.5-.18,9-.31,18-.76,26.89-1.33l5.18-.33-39.59,56.77Z"/>
<path class="cls-2" d="M2067,2902.61,2031.12,2954l-30.32-.15h-.09l-19.76-.1-17.3-26.94-15.55-24.2q14.13.88,28.16,1.34,3.16.11,6.33.18,12.62.35,25.14.34c9,0,17.91-.13,26.79-.39q2.76-.07,5.52-.18,13.44-.46,26.95-1.33m10-5.66-10.36.67c-8.83.57-17.85,1-26.81,1.32l-5.48.18c-8.79.26-17.75.39-26.65.39-8.39,0-16.8-.12-25-.34-2.11-.05-4.2-.11-6.3-.18-9.47-.31-18.89-.76-28-1.33l-9.86-.62,5.34,8.31,15.55,24.2,17.3,26.94,1.47,2.28,2.71,0,19.76.1h.12l30.29.15h2.63l1.5-2.15,35.87-51.43L2077,2897Z"/>
<path class="cls-3" d="m2012.5 3324.8a24.28 24.28 0 0 1-15.75-5.71l-51.36-43.72a31.52 31.52 0 0 1-11.1-28.52l44.3-288.88 54.75 0.43 50.38 289.14a31.49 31.49 0 0 1-9.58 27.85l-44.93 42.84a24 24 0 0 1-16.71 6.57z"/>
<path class="cls-2" d="M1980.71,2960.45l50.5.39,50,287.08a28.88,28.88,0,0,1-8.84,25.63l-44.93,42.83a22.07,22.07,0,0,1-29.12.77L1947,3273.43a29,29,0,0,1-10.24-26.27l44-286.71m-4.29-5-.66,4.28-44,286.71a34,34,0,0,0,11.94,30.83L1995.1,3321a27.07,27.07,0,0,0,35.81-1l44.93-42.84a34,34,0,0,0,10.32-30l-50-287.12-.71-4.11-4.17,0-50.51-.39-4.32,0Z"/>
<path class="cls-4" d="m1945.3 3275.3-0.06-0.06c-6.06-5.95-7.54-10.39-8.16-13.59l-0.26-1.31 126.6-125.58 14.21 77.85-95.55 94z"/>
<path class="cls-2" d="M2061.8,3139.84l13.12,71.88-93,91.47-35-29.76c-6-5.88-7-9.91-7.46-12.28l122.28-121.31m3.22-10.23-6.74,6.69L1936,3257.6l-1.9,1.88.51,2.62c.69,3.55,2.32,8.46,8.87,14.89l.13.13.13.11,35,29.77,3.49,3,3.26-3.21,93-91.47,1.89-1.86-.48-2.61L2066.72,3139l-1.7-9.34Z"/>
<polygon class="cls-4" points="1960.6 3077 2038.6 2988.8 2053.1 3071.9 1944 3182.9"/>
<path class="cls-2" d="m2037.1 2994.4 13.34 76.76-102.71 104.48 15.23-97.46 74.14-83.78m3.15-11.1-6.89 7.79-74.14 83.78-1 1.09-0.23 1.45-15.23 97.46-2.4 15.37 10.91-11.1 102.75-104.48 1.8-1.83-0.44-2.53-13.36-76.75-1.78-10.25z"/>
<polygon class="cls-4" points="1978.5 2957.9 2015.8 2958.2 1971 3012.8"/>
<path class="cls-2" d="m1980.7 2960.4 29.81 0.24-35.85 43.65 6-43.89m-4.36-5-0.6 4.35-6 43.89-2.42 17.53 47.08-57.31 6.65-8.09-10.47-0.09-29.81-0.24h-4.4z"/>
<path class="cls-4" d="M1979.58,2956.28l-19-29.63,16.61-19.87,4.28-5.14,1.22,0c8.23.22,16.66.34,25.07.34,8.92,0,17.91-.13,26.71-.39,1.84,0,3.67-.11,5.5-.18l5.41-.21-43.43,55.16Z"/>
<path class="cls-2" d="M2040,2903.94l-35.14,44.63-4.19,5.32-19.76-.1-17.3-26.94,15.43-18.47,3.51-4.21q12.62.35,25.14.34c9,0,17.91-.13,26.79-.39q2.76-.07,5.52-.18m10.62-5.41-10.81.41c-1.82.07-3.65.13-5.47.18-8.79.26-17.75.39-26.65.39-8.39,0-16.8-.12-25-.34l-2.42-.07-1.55,1.87-3.51,4.21-15.43,18.46-2.35,2.82,2,3.09,17.3,26.94,1.47,2.28,2.71,0,19.76.1h2.44l1.52-1.92,4.19-5.32L2044,2907l6.69-8.5Z"/>
<g class="cls-5">
<path class="cls-2" d="M1980.93,2956.29a2.53,2.53,0,0,1-2.09-1.15l-17.3-26.94L1946,2904a2.5,2.5,0,0,1,2.11-3.85h.15c9.14.58,18.59,1,28.09,1.34a2.51,2.51,0,0,1,2,1.15l32,49.8a2.5,2.5,0,0,1-2.07,3.85l-7.48.1Z"/>
<path class="cls-2" d="M1948.1,2902.65q14.13.88,28.16,1.34l2.82,4.39,25.82,40.19,3.35,5.22-7.45.1h-.09l-19.76-.1-17.3-26.94-15.55-24.2m0-5a5,5,0,0,0-4.21,7.7l15.55,24.2,17.3,26.94a5,5,0,0,0,4.18,2.3l19.76.1h.18l7.46-.1a5,5,0,0,0,4.14-7.7l-3.35-5.22-25.83-40.19-2.82-4.39a5,5,0,0,0-4-2.3c-9.47-.31-18.89-.76-28-1.33Z"/>
<path class="cls-2" d="m2012.5 3324.8a24.29 24.29 0 0 1-15.75-5.7l-16.39-14-35-29.76a31.54 31.54 0 0 1-11.1-28.53s11-71.57 11-71.6l33-215.14a2.5 2.5 0 0 1 2.47-2.12l27.28 0.22a2.53 2.53 0 0 1 1.89 0.88 2.49 2.49 0 0 1 0.56 2s-32.93 214.9-32.94 214.93l-11 71.57a26.57 26.57 0 0 0 9.39 24l35 29.75 16.39 14 0.4 0.31a2.52 2.52 0 0 1 0 3.93 24.4 24.4 0 0 1-15.2 5.26z"/>
<path class="cls-2" d="M1980.7,2960.44l27.26.22L1975,3175.58h0l-11,71.57a29,29,0,0,0,10.24,26.27l35,29.76,16.39,14,.48.39a22.09,22.09,0,0,1-27.78-.39l-16.39-14-35-29.76a29,29,0,0,1-10.24-26.27l11-71.57h0l33-215.14m0-5a5,5,0,0,0-4.94,4.24l-33,215.14a.68.68,0,0,0,0,.14l-11,71.44a34.08,34.08,0,0,0,12,30.84l35,29.76,16.39,14a27.1,27.1,0,0,0,34.15.48,5,5,0,0,0-.06-7.85l-.33-.27-16.37-13.94-35-29.76a24.12,24.12,0,0,1-8.54-21.75l11-71.52a.68.68,0,0,0,0-.14l32.92-214.79a5,5,0,0,0-4.9-5.76l-27.26-.22Z"/>
</g>
</svg>
