<?xml version="1.0" encoding="UTF-8"?>
<svg viewBox="0 0 4e3 4e3" xmlns="http://www.w3.org/2000/svg">
<defs>
<style>.cls-1{fill:#c2c2c2;}.cls-2{fill:#333;}.cls-3{fill:#a0a0a0;}.cls-4{fill:#fff;}.cls-5{fill:#1a1a1a;}.cls-6{fill:#f7c394;stroke:#333;stroke-miterlimit:10;stroke-width:5px;}.cls-7{opacity:0.08;}</style>
</defs>
<title>hand_neck4</title>
<path class="cls-1" d="M2165.7,3117.5a106.29,106.29,0,0,1-103-82.17,97,97,0,0,1,13.58-75.39l.46-.68a97.09,97.09,0,0,1,64-41.36,103.6,103.6,0,0,1,18.33-1.64,106.29,106.29,0,0,1,103,82.17,97,97,0,0,1-13.58,75.39l-.46.68a97.09,97.09,0,0,1-64,41.36A104.46,104.46,0,0,1,2165.7,3117.5Z"/>
<path class="cls-2" d="M2159.11,2918.76A103.81,103.81,0,0,1,2259.66,2999a94.47,94.47,0,0,1-13.23,73.46c-.14.22-.29.44-.44.66a94.68,94.68,0,0,1-62.4,40.3,101.1,101.1,0,0,1-17.89,1.6,103.81,103.81,0,0,1-100.55-80.22,94.47,94.47,0,0,1,13.23-73.46l.44-.67a94.62,94.62,0,0,1,62.41-40.29,100.91,100.91,0,0,1,17.88-1.6m0-5v0a106.62,106.62,0,0,0-18.78,1.68,99.58,99.58,0,0,0-65.66,42.42l-.47.7a99.42,99.42,0,0,0-13.94,77.31,107.88,107.88,0,0,0,124.2,82.45,99.62,99.62,0,0,0,65.66-42.42l.47-.7a99.42,99.42,0,0,0,13.94-77.31,108.8,108.8,0,0,0-105.42-84.13Z"/>
<path class="cls-2" d="M2079.76,2961.28c29.38-43.57,89.88-54.49,135.54-24.3,45.89,30.34,59.4,90.71,30.19,134.83-.14.22-.29.44-.44.66-29.38,43.58-89.88,54.49-135.54,24.31-45.88-30.34-59.4-90.71-30.19-134.83l.44-.67m-1.87-1.26h0l-.45.68A94.35,94.35,0,0,0,2063,2997a97.62,97.62,0,0,0,1,38.05,101.84,101.84,0,0,0,15.41,35.36,105.92,105.92,0,0,0,65.91,43.67,101.93,101.93,0,0,0,38.41.45,97.61,97.61,0,0,0,35.33-13.7,94.42,94.42,0,0,0,27.81-27.07l.46-.68a94.39,94.39,0,0,0,14.4-36.28,97.61,97.61,0,0,0-1-38.05,101.65,101.65,0,0,0-15.41-35.36,105.92,105.92,0,0,0-65.91-43.67,101.93,101.93,0,0,0-38.41-.45,97.68,97.68,0,0,0-35.33,13.7,94.42,94.42,0,0,0-27.81,27.07Z"/>
<path class="cls-3" d="m2215.3 2937c34.4 22.75 50.61 62.37 44.25 99.38-3.7-31.55-22.94-63.24-54.56-84.15-31.22-20.64-67.42-26.08-97.69-17.6 31.51-19.82 73.9-20.2 108 2.37z"/>
<path class="cls-4" d="m2224.1 3086.2a97.43 97.43 0 0 1-149.23-106.09c-0.75 34.47 17.61 70.21 51.14 92.37 31.09 20.51 67.83 24.51 98.09 13.72z"/>
<path class="cls-5" d="m2536 3298.8c-0.63 0-1.28 0-1.92-0.08-3.84-0.33-50.66-25.8-70.62-36.74l-2.35-1.28 37.38-58.21 2.16 1.64c5.76 4.4 56.47 43.44 60.9 59.91 1.44 5.35-1.28 17-7.49 25.07-4.84 6.34-11.06 9.69-18.06 9.69z"/>
<path class="cls-2" d="M2499.15,3206.08s55.67,42.45,60,58.57c1.9,7-5.36,31.61-23.13,31.61-.56,0-1.13,0-1.71-.07-3.73-.33-69.62-36.44-69.62-36.44l34.46-53.67m-1.28-7.26-2.92,4.56-34.47,53.67-2.9,4.51,4.7,2.58c.17.09,16.69,9.14,33.46,18.12,34.79,18.62,36.57,18.77,38.14,18.91.72.06,1.44.09,2.14.09,7.77,0,14.7-3.69,20.05-10.67,6.75-8.81,9.54-21.2,7.91-27.24-.77-2.86-3.1-11.54-33.16-37.8-14.42-12.59-28.5-23.34-28.64-23.44l-4.31-3.29Z"/>
<path class="cls-5" d="m2472.3 3271.7a5.37 5.37 0 0 1-2.09-0.41c-4.88-2-209.59-112.35-243.38-131.18a16.46 16.46 0 0 1-7.53-9l-3.37-9.7 61.5-94.13 14.2 0.79a16.55 16.55 0 0 1 9.59 3.76c22.4 18.58 205.35 171.74 208.85 176.05s2.35 12.2-3.15 23.76a136.35 136.35 0 0 1-16.95 26.4c-5.12 6.24-12.35 13.66-17.67 13.66z"/>
<path class="cls-2" d="M2278.76,3029.85l12.76.71a14,14,0,0,1,8.13,3.19c28,23.23,205.38,171.85,208.51,175.71,8.58,10.57-24.85,59.7-35.83,59.7a2.86,2.86,0,0,1-1.14-.22c-4.89-2-209-112-243.11-131.05a14,14,0,0,1-6.39-7.6l-3-8.54,60-91.9m-2.6-5.15-1.58,2.42-60,91.89-1.35,2.06.81,2.32,3,8.54a18.93,18.93,0,0,0,8.67,10.32c29.58,16.48,237.62,128.82,243.64,131.31a7.83,7.83,0,0,0,3,.6c1.89,0,7.62,0,19.61-14.55a138.83,138.83,0,0,0,17.26-26.9c6-12.68,7-21.32,2.84-26.41-3.85-4.74-194.51-164.22-209.2-176.4a19,19,0,0,0-11-4.33l-12.76-.71-2.88-.16Z"/>
<path class="cls-6" d="M2490,3162c.08-.46.18-.92.26-1.37.13-.64.24-1.28.32-1.91.17-1,.31-1.93.44-2.88.1-.62.17-1.23.26-1.84s.18-1.5.26-2.25c.15-1.35.26-2.71.37-4s.16-2.68.22-4a.56.56,0,0,1,0-.13c.06-1.3.09-2.61.07-3.91,0-.57,0-1.13,0-1.7,0-.77,0-1.52,0-2.28,0-.51,0-1-.07-1.55,0-.23,0-.45,0-.69,0-.56-.06-1.12-.11-1.69,0-.74-.11-1.47-.18-2.2,0-.45-.09-.88-.12-1.33q-.23-2.13-.54-4.23c-.09-.65-.2-1.29-.3-1.92s-.22-1.27-.34-1.91-.23-1.25-.37-1.88-.26-1.26-.4-1.89c-.43-1.87-.9-3.74-1.43-5.57l-.36-1.23c-.42-1.43-.89-2.84-1.38-4.24a97.71,97.71,0,0,0-19.27-32.64,77.74,77.74,0,0,0-135.42,59.9,77.74,77.74,0,0,0-8.57,111.46h0c.65.74,1.3,1.45,2,2.14s1.36,1.4,2.06,2.08l1,.94c1.34,1.25,2.72,2.46,4.16,3.62.49.41,1,.79,1.5,1.18,1,.79,2.07,1.56,3.13,2.3.49.35,1,.7,1.52,1l.1.06,1.11.73c.66.41,1.33.82,2,1.22s1.26.74,1.9,1.09c.26.15.52.3.81.45.47.26,1,.51,1.45.76l.32.16,1,.49,1.69.79q.57.27,1.14.51c.51.23,1,.46,1.54.67l.81.33c.64.26,1.29.52,1.93.75l.26.09c.61.24,1.21.45,1.83.66s1.28.43,1.94.62l1.59.47,1.19.32a3,3,0,0,0,.47.13c.42.14.86.24,1.29.35a77.46,77.46,0,0,0,28.82,1.51,81.56,81.56,0,0,0,10.69-2.15h0a82.46,82.46,0,0,0,10.13-3.39h0c1.31-.52,2.61-1.08,3.89-1.67,0,0,0,0,0,0,1.28-.59,2.54-1.21,3.79-1.86h0c1.25-.63,2.49-1.3,3.72-2,0,0,0,0,0,0a104.79,104.79,0,0,0,12.28-8.18c1.66-1.28,3.3-2.62,4.92-4,1.06-.9,2.12-1.84,3.14-2.79q3.87-3.57,7.47-7.44,1.45-1.55,2.82-3.12c.9-1.06,1.82-2.13,2.71-3.21q2-2.41,3.88-4.91l1.25-1.68c.82-1.11,1.62-2.23,2.41-3.36s1.56-2.27,2.31-3.42c.37-.56.74-1.14,1.11-1.71q2.76-4.3,5.19-8.67c1-1.74,1.9-3.49,2.79-5.22.31-.58.6-1.17.88-1.74q.89-1.75,1.68-3.48c.82-1.73,1.6-3.46,2.32-5.16,1-2.3,1.89-4.56,2.71-6.79a136.86,136.86,0,0,0,5.22-17.46C2489.42,3164.72,2489.72,3163.34,2490,3162Z"/>
<path class="cls-7" d="M2489.32,3161.42a139.72,139.72,0,0,1-4.31,17.7q-1.07,3.4-2.34,6.92c-.64,1.74-1.33,3.51-2,5.28-.48,1.18-1,2.37-1.49,3.57l-.79,1.78c-.8,1.78-1.64,3.56-2.52,5.36q-2.2,4.48-4.72,8.93c-.34.59-.68,1.18-1,1.77-.7,1.18-1.39,2.36-2.12,3.53s-1.47,2.33-2.23,3.48c-.39.59-.77,1.17-1.16,1.74q-1.76,2.59-3.62,5.11c-.83,1.13-1.69,2.25-2.54,3.35s-1.75,2.18-2.65,3.26q-3.37,4.05-7.06,7.83c-1,1-2,2-3,2.95q-2.31,2.19-4.7,4.25a110.34,110.34,0,0,1-11.83,8.81h0c-1.19.76-2.39,1.48-3.61,2.2h0c-1.22.7-2.44,1.38-3.69,2.05,0,0,0,0,0,0-1.24.64-2.51,1.26-3.8,1.87h0a91.21,91.21,0,0,1-9.94,3.92s0,0,0,0a85.17,85.17,0,0,1-10.57,2.69,77.36,77.36,0,0,1-28.86,0c-.43-.08-.86-.16-1.29-.26l-.48-.1-1.21-.26-1.61-.39c-.66-.17-1.32-.34-2-.52s-1.25-.35-1.87-.56l-.26-.07c-.65-.2-1.32-.43-2-.65l-.82-.29c-.53-.18-1-.39-1.58-.59s-.78-.29-1.17-.45c-.57-.22-1.15-.46-1.72-.7l-1-.43-.33-.15c-.49-.22-1-.45-1.48-.69a8,8,0,0,1-.83-.4c-.67-.31-1.31-.64-2-1s-1.39-.74-2.07-1.11c-.38-.22-.77-.44-1.14-.67l-.11-.06c-.53-.3-1.06-.62-1.58-.95-1.09-.68-2.18-1.39-3.24-2.13-.52-.36-1-.72-1.56-1.1-1.5-1.08-2.94-2.22-4.35-3.39l-1-.89c-.73-.64-1.46-1.3-2.17-2s-1.4-1.33-2.09-2c.52.13,1.05.23,1.58.33a77.78,77.78,0,0,0,28.86,0c46.42-8.75,76.15-54.3,87.52-90.66,8.74-28,13.51-75.65,4-98.85v0a77.49,77.49,0,0,1,12.84,10.51,97.79,97.79,0,0,1,21,31.58c.56,1.38,1.11,2.76,1.6,4.17l.43,1.2c.62,1.81,1.19,3.65,1.72,5.49.17.62.34,1.25.5,1.87s.32,1.24.47,1.86.29,1.25.43,1.88.28,1.27.4,1.91c.29,1.38.54,2.78.76,4.2.06.44.14.87.2,1.32.11.72.2,1.45.29,2.19.08.56.13,1.12.2,1.68,0,.23,0,.45.07.69.06.51.11,1,.16,1.54.05.76.11,1.51.17,2.27,0,.57.06,1.13.1,1.7.07,1.3.11,2.6.13,3.91a.62.62,0,0,0,0,.13c0,1.32,0,2.67,0,4s-.08,2.71-.15,4.07l-.15,2.26c0,.61-.1,1.22-.16,1.84-.08,1-.18,1.93-.29,2.9-.05.64-.13,1.29-.22,1.94-.06.45-.13.91-.19,1.37C2489.78,3158.62,2489.56,3160,2489.32,3161.42Z"/>
<path class="cls-4" d="m2109.2 3104.9a9.65 9.65 0 0 1-5.25-1.49l-8.51-5.64a6.48 6.48 0 0 1-3-5 6.67 6.67 0 0 1 2.51-5.43 344.3 344.3 0 0 0 106.19-160.41 6.41 6.41 0 0 1 6-4.8 6.76 6.76 0 0 1 3.73 1.18l8.48 5.61a10.1 10.1 0 0 1 3.84 11 349.38 349.38 0 0 1-107.65 162.8 9.9 9.9 0 0 1-6.34 2.18z"/>
<path class="cls-2" d="m2207.2 2924.6a4.24 4.24 0 0 1 2.35 0.76l8.48 5.6a7.61 7.61 0 0 1 2.83 8.12 347.33 347.33 0 0 1-106.83 161.65 7.36 7.36 0 0 1-4.72 1.61 7 7 0 0 1-3.87-1.08l-8.51-5.64c-2.45-1.62-2.56-4.47-0.29-6.4a347.23 347.23 0 0 0 107-161.58 3.9 3.9 0 0 1 3.64-3m0-5a8.85 8.85 0 0 0-8.41 6.55 341.87 341.87 0 0 1-105.43 159.26 9.12 9.12 0 0 0-3.39 7.48 9 9 0 0 0 4.14 6.9l6.49 4.3 2 1.34a12 12 0 0 0 6.63 1.91 12.26 12.26 0 0 0 8-2.8 351.78 351.78 0 0 0 108.41-164 12.53 12.53 0 0 0-4.85-13.78l-3.46-2.3-5-3.31a9.29 9.29 0 0 0-5.11-1.59z"/>
<path class="cls-4" d="M2205.72,3125.15a16.46,16.46,0,0,1-5.33-.84L2187.8,3120c-3.49-1.2-5.72-3.38-6.13-6-.21-1.36-.09-4,3.09-6.38l.09-.07.1-.06c30.21-18.52,65.38-56,73.49-105.67l0-.17.05-.15c1.58-5.23,4.91-5.8,6.27-5.8,2.47,0,4.91,1.65,6.89,4.66l8.2,12.44c3.06,4.64,4.09,12.08,2.34,16.93-12.19,33.93-37.75,69.36-66.69,92.46A16.23,16.23,0,0,1,2205.72,3125.15Z"/>
<path class="cls-2" d="M2264.79,2998.17c1.53,0,3.25,1.17,4.8,3.53l8.2,12.44c2.64,4,3.56,10.59,2.08,14.71-12.71,35.37-39.21,70.05-65.9,91.35a13.75,13.75,0,0,1-8.25,2.45,14.07,14.07,0,0,1-4.51-.7l-12.6-4.35c-4.92-1.7-6-5.29-2.35-8,32.46-19.9,66.61-58.17,74.65-107.4.81-2.67,2.24-4,3.88-4m0-5c-4,0-7.23,2.83-8.67,7.57l-.09.32-.05.32c-3.62,22.12-12.78,43.16-27.24,62.52a166.19,166.19,0,0,1-45.09,41.42l-.21.13-.19.14c-3.08,2.32-4.56,5.52-4.05,8.77.56,3.55,3.4,6.45,7.78,8l1.15.39,11.44,4a19.29,19.29,0,0,0,6.15,1,18.5,18.5,0,0,0,11.37-3.54c29.28-23.37,55.14-59.22,67.49-93.57,2-5.6.89-13.83-2.61-19.15l-4.44-6.73-3.76-5.71c-3.32-5-7.05-5.78-9-5.78Z"/>
</svg>
