<?xml version="1.0" encoding="UTF-8"?>
<svg viewBox="0 0 4e3 4e3" xmlns="http://www.w3.org/2000/svg">
<defs>
<style>.cls-1{fill:#333;}.cls-2{fill:#fbdd11;}.cls-3{fill:#edcd14;}.cls-4{fill:#f2d214;}.cls-5{fill:#f7c394;stroke:#333;stroke-miterlimit:10;stroke-width:5px;}.cls-6{opacity:0.08;}</style>
</defs>
<title>hand_neck2</title>
<path class="cls-1" d="M2472.37,3363.64c-75.37,0-132.51-25.24-169.85-75-35.64-47.54-43.37-105.49-44.81-135.79a247.43,247.43,0,0,1,1.34-38.1c.18-1.62.38-3.29.59-5a258.73,258.73,0,0,1,9.28-43c.5-1.68,1.08-3.49,1.86-5.84.62-1.82,1.44-4.18,2.32-6.55.57-1.54,1.16-3.13,1.8-4.72,21.74-55.32,72.93-122.52,193.24-128.21l.5,0,1.05,0a19.17,19.17,0,0,1,9.86,35.49,211.63,211.63,0,0,0-90.75,115c-.55,1.69-1,3.16-1.42,4.52-.56,1.86-1.11,3.82-1.8,6.35-.4,1.52-.93,3.56-1.4,5.62a211.75,211.75,0,0,0-5.54,41.72c-.07,1.95-.1,3.53-.11,5,0,4,0,8.08.23,12.05,1.55,32.75,15.84,73.44,38.22,108.85,23.47,37.14,52.3,62.85,79.08,70.52,8.16,2.35,13,9.87,11.93,18.72-1,8.56-7.61,17.5-18.34,18h-.32l-.28,0c-5.6.27-11.2.4-16.64.4Z"/>
<path class="cls-2" d="M2489.39,3358.22a5.3,5.3,0,0,0-.57,0c-180.37,8.53-222.2-123.16-226.11-205.68a239.25,239.25,0,0,1,1.31-37.31c.17-1.6.37-3.23.58-4.88a255.46,255.46,0,0,1,9.09-42.13c.58-1.91,1.2-3.82,1.83-5.74.73-2.12,1.47-4.26,2.26-6.39.57-1.53,1.14-3.06,1.76-4.58,23.79-60.54,77.24-119.81,188.83-125.1l.6,0c14.52-.66,20.36,18.6,8,26.21A216.88,216.88,0,0,0,2384,3070.32c-.5,1.54-1,3.09-1.45,4.64-.65,2.15-1.25,4.3-1.83,6.47-.51,1.93-1,3.85-1.45,5.8a215.45,215.45,0,0,0-5.67,42.68c0,1.69-.1,3.4-.11,5.1q0,6.12.24,12.31c3.26,68.86,60.39,166.6,120.91,183.95C2508.75,3335.32,2504,3357.49,2489.39,3358.22Z"/>
<path class="cls-3" d="m2489.4 3358.2a5.3 5.3 0 0 0-0.57 0c-180.37 8.53-222.2-123.16-226.11-205.68-1.7-35.68 5.37-93.88 38.57-142.35-18.9 41-23.16 84.06-21.81 112.69 3.79 79.75 37.88 211.7 203.35 212.34 5-0.35 12.35-0.54 16.21-1.75 7.46 4.95 4.97 24.02-9.64 24.75z"/>
<path class="cls-4" d="m2476.9 2952.6q-7.26 4.45-14.15 9.45c7.39-9.45-0.93-23.44-16.54-24.51-21.55-1.49-47.34-5.42-103.19 29.19 40.47-31.06 93.1-38.79 125.33-40.32h0.59c14.53-0.69 20.36 18.56 7.96 26.19z"/>
<path class="cls-5" d="M2489.16,3136c0-.44,0-.89-.07-1.32,0-.62-.06-1.23-.13-1.84-.07-.93-.15-1.84-.24-2.76l-.18-1.75c-.09-.71-.17-1.42-.27-2.14-.17-1.28-.37-2.55-.57-3.82s-.46-2.5-.7-3.74a.27.27,0,0,1,0-.12c-.24-1.21-.51-2.42-.82-3.62-.14-.52-.26-1.05-.39-1.57l-.57-2.09c-.13-.47-.27-.94-.41-1.41-.07-.22-.13-.42-.19-.63-.16-.52-.31-1-.49-1.54-.21-.67-.43-1.33-.66-2-.13-.4-.28-.79-.41-1.2-.46-1.28-1-2.54-1.46-3.78-.23-.58-.47-1.14-.71-1.71s-.48-1.11-.74-1.68-.5-1.1-.77-1.65-.52-1.11-.79-1.66q-1.23-2.44-2.58-4.82l-.61-1.05c-.71-1.22-1.47-2.42-2.23-3.6a93,93,0,0,0-25.17-25.77,73.86,73.86,0,0,0-111.43,85.87,73.87,73.87,0,0,0,17.27,104.81h0q1.14.81,2.31,1.53c.78.5,1.57,1,2.37,1.46l1.12.64c1.52.85,3.06,1.66,4.65,2.4.55.27,1.1.51,1.66.75,1.11.5,2.26,1,3.4,1.41.54.22,1.09.42,1.64.61l.11,0c.39.15.79.28,1.18.42l2.13.67c.67.21,1.33.4,2,.58l.85.23,1.51.37.34.08,1,.23,1.74.35,1.17.22,1.57.27.82.12c.65.09,1.31.19,2,.25l.26,0c.62.08,1.22.13,1.84.19s1.28.11,1.93.13l1.57.08q.58,0,1.17,0h.47c.42,0,.85,0,1.27,0a73.74,73.74,0,0,0,26.94-5.11,79.51,79.51,0,0,0,9.37-4.4s0,0,0,0a81.2,81.2,0,0,0,8.58-5.42h0q1.63-1.17,3.21-2.43h0c1-.83,2.07-1.68,3.08-2.57h0c1-.86,2-1.76,3-2.69,0,0,0,0,0,0a99.62,99.62,0,0,0,9.48-10.32q1.86-2.34,3.64-4.8c.78-1.08,1.54-2.18,2.27-3.28q2.76-4.18,5.21-8.56,1-1.76,1.89-3.51c.6-1.19,1.2-2.39,1.78-3.58.88-1.79,1.7-3.6,2.48-5.41.25-.61.51-1.21.76-1.83.51-1.21,1-2.42,1.47-3.65s.93-2.45,1.36-3.67c.21-.61.43-1.23.65-1.83,1-3.07,2-6.12,2.82-9.18.51-1.83,1-3.65,1.4-5.45.15-.6.28-1.21.42-1.8.28-1.21.54-2.41.76-3.59.37-1.78.69-3.56,1-5.29.39-2.34.72-4.63,1-6.88a130.42,130.42,0,0,0,.88-17.29C2489.28,3138.62,2489.24,3137.27,2489.16,3136Z"/>
<path class="cls-6" d="M2489.3,3140a133.93,133.93,0,0,1-.89,17.29q-.39,3.38-1,6.88c-.29,1.73-.62,3.51-1,5.29-.24,1.18-.49,2.38-.76,3.59-.14.59-.27,1.2-.42,1.8q-.65,2.7-1.4,5.45c-.85,3.06-1.79,6.11-2.82,9.18-.22.6-.44,1.22-.65,1.83-.44,1.22-.89,2.45-1.36,3.67s-1,2.44-1.47,3.65c-.25.62-.51,1.22-.76,1.83-.8,1.81-1.62,3.62-2.48,5.41-.58,1.19-1.18,2.39-1.78,3.58s-1.25,2.34-1.89,3.51q-2.45,4.38-5.21,8.56c-.74,1.1-1.51,2.2-2.27,3.28q-1.78,2.46-3.64,4.8a105.2,105.2,0,0,1-9.48,10.32s0,0,0,0c-1,.92-2,1.81-3,2.69h0c-1,.88-2,1.73-3.08,2.57h0q-1.57,1.23-3.21,2.43h0a88.75,88.75,0,0,1-8.58,5.42s0,0,0,0a80.46,80.46,0,0,1-9.39,4.38,73.39,73.39,0,0,1-26.94,5.12c-.41,0-.83,0-1.25,0h-.47q-.59,0-1.17,0l-1.57-.08-1.93-.13c-.62-.06-1.22-.11-1.84-.19l-.26,0c-.64-.06-1.3-.16-2-.25l-.82-.12-1.57-.27-1.17-.22-1.74-.35-1-.23-.34-.08-1.51-.37-.85-.23c-.67-.18-1.33-.37-2-.58l-2.13-.67c-.39-.14-.79-.27-1.18-.42l-.11,0c-.55-.19-1.1-.39-1.64-.61-1.14-.44-2.29-.91-3.4-1.41-.56-.24-1.11-.48-1.66-.75-1.59-.74-3.13-1.55-4.65-2.4l-1.12-.64c-.8-.48-1.59-1-2.37-1.46s-1.55-1-2.31-1.53c.51,0,1,0,1.53,0a74,74,0,0,0,26.94-5.12c41.78-16.39,61.46-64.18,65.63-100.13,3.21-27.67-.79-73-13.8-93h0a73.47,73.47,0,0,1,13.84,7.53,93,93,0,0,1,25.17,25.77c.76,1.18,1.52,2.38,2.23,3.6l.61,1.05q1.35,2.37,2.58,4.82c.27.55.54,1.1.79,1.66s.53,1.1.77,1.65.5,1.12.74,1.68.48,1.13.71,1.71c.51,1.24,1,2.5,1.46,3.78.13.41.28.8.41,1.2.23.66.45,1.32.66,2,.18.51.33,1,.49,1.54.06.21.12.41.19.63.14.47.28.94.41,1.41l.57,2.09c.13.52.25,1.05.39,1.57.29,1.2.56,2.41.82,3.62a.27.27,0,0,0,0,.12c.24,1.24.48,2.49.7,3.74s.4,2.54.57,3.82c.1.72.18,1.43.27,2.14l.18,1.75c.09.92.17,1.83.24,2.76.07.61.11,1.22.13,1.84,0,.43,0,.88.07,1.32C2489.23,3137.27,2489.27,3138.62,2489.3,3140Z"/>
</svg>
