<?xml version="1.0" encoding="UTF-8"?>
<svg viewBox="0 0 4e3 4e3" xmlns="http://www.w3.org/2000/svg">
<defs>
<style>.cls-1{fill:#fff;stroke:#333;stroke-miterlimit:10;stroke-width:5px;}.cls-2{fill:#333;opacity:0.2;}</style>
</defs>
<title>hand_neck1</title>
<path class="cls-1" d="m2472.8 3082.9c9.21-3 14.84-7.11 15.26-12 1.07-12.66-32.6-25.84-75.21-29.43s-78 3.77-79.07 16.43c-0.42 5 4.65 10.14 13.56 14.7-0.92 1.18-1.82 2.38-2.68 3.63a74 74 0 0 0-8.73 67.29 74.09 74.09 0 0 0 86.54 113.19c41.91-16.43 61.67-64.38 65.85-100.46 3.23-27.93-2.37-53.24-15.52-73.35z"/>
<path class="cls-2" d="m2488.4 3156.2c-4.19 36.07-24 84-65.86 100.47a73.94 73.94 0 0 1-65.52-5.67h0.75a73.94 73.94 0 0 0 27-5.13c41.91-16.43 61.67-64.4 65.86-100.47 3.22-27.89-2.34-53.24-15.53-73.3 9.21-3 14.85-7.12 15.26-12 0.45-5.49-5.61-11.07-16.1-15.94 32 5.48 54.77 16.28 53.9 26.74-0.41 4.93-6.05 9.05-15.26 12.05 13.12 20.05 18.72 45.36 15.5 73.25z"/>
<path class="cls-1" d="M1669.5,3215.72A73.77,73.77,0,0,1,1639,3252l-1,.63-.12.07c-1.33.78-2.7,1.52-4.08,2.21-.9.44-1.8.88-2.71,1.29q-1,.43-1.92.84l-1.41.57c-.78.31-1.57.61-2.36.89l-1.19.41-1.28.42q-1,.33-2.07.63l-1.49.41c-.82.22-1.63.42-2.46.6s-1.65.36-2.48.52l-1.24.23-1.31.22-1.2.17-1,.13c-.57.07-1.14.14-1.71.19l-1.13.11q-3.18.29-6.39.28a73.55,73.55,0,0,1-18.63-2.4,75.3,75.3,0,0,1-8.39-2.74,83.34,83.34,0,0,1-20.78-11.88c-.57-.43-1.13-.88-1.69-1.34q-1.66-1.36-3.25-2.79c-1.06-1-2.09-1.93-3.11-2.93a102.47,102.47,0,0,1-8.63-9.66c-.47-.59-.93-1.19-1.39-1.8s-.69-.92-1-1.38c-.63-.85-1.24-1.71-1.84-2.58-.38-.55-.76-1.11-1.13-1.67-.75-1.11-1.47-2.24-2.18-3.38a138.45,138.45,0,0,1-10.21-20.09c-.42-1-.84-2.09-1.24-3.14q-1.07-2.76-2-5.53c-1.63-4.76-3-9.53-4.13-14.23l-.21-.86a154.38,154.38,0,0,1-3-17.19c-3.24-27.9-3.25-51.23,10-71.29-5.11-1.74-13.28-4.31-13.6-13.38,0-.13,0-.29,0-.46,0-3.53,2-6.82,5.48-9.82a0,0,0,0,1,0,0c9.1-7.84,28.64-13.76,52-17.31,6.91-1.05,14.16-1.9,21.58-2.52,42.61-3.59,78,3.77,79.08,16.43.42,5-4.65,10.14-13.57,14.7.93,1.18,1.83,2.38,2.69,3.63a74,74,0,0,1,8.73,67.29A74.09,74.09,0,0,1,1669.5,3215.72Z"/>
<path class="cls-2" d="M1639,3252l-1,.63-.12.07q-2,1.16-4.08,2.21c-.9.44-1.8.88-2.71,1.29q-1,.43-1.92.84l-1.41.57c-.78.31-1.57.61-2.36.89l-1.19.41-1.28.42q-1,.33-2.07.63l-1.49.41c-.82.22-1.63.42-2.46.6s-1.65.36-2.48.52l-1.24.23-1.31.22-1.2.17-1,.13c-.57.07-1.14.14-1.71.19l-1.13.11q-3.18.29-6.39.28a74.34,74.34,0,0,1-27-5.13,82.69,82.69,0,0,1-20.77-11.89c-.57-.43-1.13-.88-1.69-1.34q-1.66-1.36-3.25-2.79c-1.06-1-2.09-1.93-3.11-2.93a102.47,102.47,0,0,1-8.63-9.66c-.47-.59-.93-1.19-1.39-1.8s-.69-.92-1-1.38c-.63-.85-1.24-1.71-1.84-2.58-.38-.55-.76-1.11-1.13-1.67-.75-1.11-1.47-2.24-2.18-3.38a138.45,138.45,0,0,1-10.21-20.09c-.42-1-.84-2.09-1.24-3.14q-1.07-2.76-2-5.53c-1.63-4.76-3-9.53-4.13-14.23l-.21-.86a154.38,154.38,0,0,1-3-17.19c-3.24-27.9-3.25-51.23,10-71.29-5.11-1.74-13.28-4.31-13.6-13.38,0-.13,0-.29,0-.46,0-3.53,2-6.82,5.48-9.82a0,0,0,0,1,0,0c9.1-7.84,28.64-13.76,52-17.31l.27.17c-10.49,4.87-16.55,10.45-16.09,15.94.41,4.93,6,9,15.26,12-13.19,20.06-18.76,45.41-15.53,73.3,4.19,36.07,23.95,84,65.85,100.47a74,74,0,0,0,27,5.13C1638.52,3252,1638.78,3252,1639,3252Z"/>
</svg>
