<?xml version="1.0" encoding="UTF-8"?>
<svg viewBox="0 0 4e3 4e3" xmlns="http://www.w3.org/2000/svg">
<defs>
<style>.cls-1{fill:#ffcd98;stroke:#333;stroke-miterlimit:10;stroke-width:5px;}.cls-2{opacity:0.08;}.cls-3{fill:#fff;}.cls-4{opacity:0.05;}.cls-5{fill:#7f6145;}.cls-6{opacity:0.1;}.cls-7{opacity:0.2;}.cls-8{fill:#634b37;}.cls-9{fill:#d6d6d6;}.cls-10{fill:#ccc;}.cls-11{fill:#eaeaea;}.cls-12{fill:#c1c1c1;}.cls-13{fill:#a3d3a4;}.cls-14{fill:#649167;}.cls-15{fill:#d3d3d3;}.cls-16{fill:#333;}</style>
</defs>
<title>mouth6</title>
<path class="cls-1" d="m2638.4 2122.8c-0.2-23.7 111.61-69.84 111.45-275.69-0.25-318.49-258.75-643.25-482.28-643.25-155.64 0-248.88 116.58-268 116.74-22.73 0.2-95.64-116.75-268-116.74-223.2 0-482.73 324.76-482.47 643.25 0.17 199.4 111.75 254.94 111.93 275.55s-236.85 48.83-236.85 281.27c0 178 449 511.08 910.31 497.74 420.49-12.16 840.86-314.91 840.86-524.16-0.07-232.13-236.76-233.58-236.95-254.71zm-689.76-296.93c-10.8 55.65-39.63 104.35-81.16 137.14-32.82 25.91-70.48 39.45-108.51 39.45a161.3 161.3 0 0 1-30.65-3c-99.16-19.2-161.67-128.41-139.35-243.41s121.16-192.88 220.32-173.63c48.1 9.34 89.08 39.84 115.39 85.9s34.76 101.91 23.96 157.55zm439.53 81c-25.51 46.51-65.95 77.73-113.88 87.9a160.79 160.79 0 0 1-33.39 3.52c-37.09 0-73.93-12.87-106.38-37.58-42.11-32.06-71.77-80.25-83.54-135.7s-4.24-111.53 21.21-157.93 66-77.73 113.88-87.91c98.8-21 199 55.18 223.31 169.76 11.77 55.42 4.23 111.51-21.21 157.91z"/>
<path class="cls-2" d="m2875.3 2377.5c0 209.26-420.37 512-840.86 524.16-461.31 13.34-910.31-319.74-910.31-497.74q0-7.14 0.3-14c38.59 182.8 468.4 486 909.44 473.26 406.19-11.75 812.27-294.09 841-502.25q0.43 8.11 0.43 16.57z"/>
<path class="cls-3" d="m1758.3 1403.1c-172.54-20-337.69 181.45-333.36 371.56 3.24 141.94 101.7 310.86 253.5 328.16 167.19 19 313.5-155.61 329.88-323 16.46-167.97-95.13-358.73-250.02-376.72zm190.38 422.76c-10.8 55.65-39.63 104.35-81.16 137.14-32.82 25.91-70.48 39.45-108.51 39.45a161.3 161.3 0 0 1-30.65-3c-99.16-19.2-161.67-128.41-139.35-243.41s121.16-192.88 220.32-173.63c48.1 9.34 89.08 39.84 115.39 85.9s34.76 101.91 23.96 157.55z"/>
<path class="cls-4" d="m1834.5 1427a214.27 214.27 0 0 0-31.9-6.17c-175.15-20.17-342.8 182.73-338.41 374.18 2.47 107.25 59.36 229.79 152.7 291.65-116.4-48.78-189.2-190.33-192-312-4.33-190.11 160.82-391.59 333.36-371.55a217.6 217.6 0 0 1 76.25 23.89z"/>
<path class="cls-3" d="m2234 1398.9c-154.54 20.68-262.79 213.36-243.4 381.08 19.3 167 168.63 339.1 335.47 317.13 151.47-19.94 247-190.55 247.73-332.52 0.98-190.16-167.66-388.73-339.8-365.69zm154.23 507.88c-25.51 46.51-65.95 77.73-113.88 87.9a160.79 160.79 0 0 1-33.39 3.52c-37.09 0-73.93-12.87-106.38-37.58-42.11-32.06-71.77-80.25-83.54-135.7s-4.24-111.53 21.21-157.93 66-77.73 113.88-87.91c98.8-21 199 55.18 223.31 169.76 11.74 55.45 4.2 111.54-21.24 157.94z"/>
<path class="cls-4" d="m2573.8 1764.6c-0.66 123.27-72.75 268.13-190.88 317.21 95.29-61.62 152.08-188.08 152.66-297.55 1-190.6-168-389.61-340.57-366.52a211.81 211.81 0 0 0-45.38 11.34c26-15.6 54.29-26.14 84.37-30.17 172.17-23.04 340.81 175.53 339.8 365.69z"/>
<path class="cls-5" d="m1784 2081.4c0 75.28 98.57 166.65 215.68 165.63 107.93-0.94 213.18-91.24 213.18-165.41 0-59.68-124.17-112.16-213.18-111.39-82.63 0.72-215.68 40.57-215.68 111.17z"/>
<path class="cls-6" d="m2212.9 2101.6c0 74.17-105.25 164.47-213.18 165.41-117.11 1-215.68-90.35-215.68-165.63a54.18 54.18 0 0 1 0.71-8.78c9 72.83 103.62 155.38 215 154.41 102.38-0.89 202.34-82.18 212.35-153.85a43.67 43.67 0 0 1 0.8 8.44z"/>
<path class="cls-7" d="m2212.9 2081.6c0 74.17-105.25 164.47-213.18 165.41-117.11 1-215.68-90.35-215.68-165.63a55.09 55.09 0 0 1 0.79-9.31c42.18 52.17 123.35 95.66 214.39 94.95 85.09-0.67 168.69-45.29 211.9-97.87a45.3 45.3 0 0 1 1.78 12.45z"/>
<path class="cls-8" d="M2537.36,2484.71a8.77,8.77,0,0,1-8.14,7.35h0a8,8,0,0,1-1.76,0q-52.89-6.33-105.61-13.66l-1.33-.18c-5.77-.81-11.53-1.61-17.3-2.44q-4.53-.63-9.06-1.29-14.64-2.07-29.28-4.1-15.07-2.07-30.14-4.1l-7.11-.94q-6-.8-11.95-1.56-10.66-1.41-21.34-2.76-16.64-2.17-33.27-4.27-33.29-4.14-66.57-8t-66.57-7.57q-33.3-3.61-66.6-6.93t-66.59-6.61c-22.19-2.14-44.4-4.08-66.6-6.13s-44.38-4-66.57-5.92q-16.65-1.42-33.28-2.8t-33.26-2.85q-16.63-1.41-33.26-2.74c-11.08-.93-22.17-1.74-33.24-2.69-87.43-7.13-174.78-13-261.9-18.79l-3.52-.24h0a8.78,8.78,0,0,1-8.16-10.16,10.4,10.4,0,0,1,10.32-8.95l2.88.07q65,1.59,130.11,4.27,33.26,1.37,66.53,3c22.17,1.18,44.36,2.22,66.55,3.41q66.56,3.68,133.15,8.47,33.29,2.4,66.58,5.07t66.61,5.76q33.3,3,66.62,6.35t66.59,7.22q33.3,3.81,66.59,7.92,33.28,4.31,66.55,8.88c4.08.56,8.16,1.14,12.24,1.71l10.57,1.51q30.64,4.39,61.27,9.24l15.36,2.43,5.31.85,7.19,1.16,21,3.43q16.61,2.81,33.2,5.68c5.54.93,11.06,2,16.59,3s11,2.12,16.56,3.24c22.06,4.43,44.13,9,66.14,14.09h0a2.29,2.29,0,0,1,.28.08A10.34,10.34,0,0,1,2537.36,2484.71Z"/>
<path class="cls-8" d="m1475 2340.7a192.63 192.63 0 0 0-5.46 18.77c-0.69 3.09-1.32 6.16-1.73 9.25s-0.81 6.15-1 9.23a103.69 103.69 0 0 0 0.49 18.47 157.5 157.5 0 0 0 3.39 18.64l0.09 0.39a9.75 9.75 0 0 1-6.78 11.31 8.56 8.56 0 0 1-9.33-2.84 62 62 0 0 1-10.27-21.3 76.19 76.19 0 0 1-2.51-24.35 79.5 79.5 0 0 1 5.24-24.47 71.5 71.5 0 0 1 12.8-21.59c3.42-3.89 9.15-4.46 12.79-1.29a8.68 8.68 0 0 1 2.37 9.38c-0.03 0.14-0.09 0.27-0.09 0.4z"/>
<path class="cls-8" d="M2542.38,2442.69a70.59,70.59,0,0,1,10.07,22.86,77.37,77.37,0,0,1,2.14,24.72,74.45,74.45,0,0,1-5.59,23.61,61.33,61.33,0,0,1-13,19.64c-3.43,3.39-9.15,3.16-12.77-.52a9.41,9.41,0,0,1-2.28-9.85c.05-.12.09-.25.14-.37a154.22,154.22,0,0,0,5.77-17.9,103,103,0,0,0,2.83-18.1c.23-3.05.26-6.12.2-9.2s-.26-6.19-.55-9.32a189.06,189.06,0,0,0-3.09-19.14c0-.14-.05-.27-.08-.4a8.41,8.41,0,0,1,7-10.23A9.68,9.68,0,0,1,2542.38,2442.69Z"/>
<path class="cls-9" d="M2977.86,3013.87c-2.42,0-4.9-.06-7.36-.19-2.1-.1-4.19-.25-6.22-.44-16-1.46-33-5.56-50.46-12.16-.64-.23-1.21-.45-1.77-.68l-.88-.35h0c-.85-.32-1.69-.66-2.54-1l-3.38-1.38c-1.21-.51-2.64-1.18-4.39-2.08-8.91-4.6-23.11-13.67-42.17-26.93l-.28-.27-.35-.17c-138.82-96.83-508.48-398.28-638.35-520.57-10.26-9.65-18.88-18-25.77-25.12l2.93.37c22.15,2.86,44.53,5.85,66.49,8.87,2.75.37,5.49.76,8.24,1.15l4,.56q5.28.74,10.55,1.5c19.71,2.83,40.31,5.94,61.21,9.23q7.68,1.2,15.35,2.43l.44.07,4.85.78c2.18.34,4.33.69,6.49,1.05l6.63,1.07c18,8.21,50.46,22,96.44,41.08,90,37.31,221.21,90.33,337,137.11,77.45,31.3,150.63,60.87,202.49,82.1l.76.75h1.08l9.24,3.78,1.66.69.92.38c35,14.38,55.91,23.23,62.25,26.33l38,124.43A279,279,0,0,1,3098.4,2940c-2.93,4.6-6,9.05-9.12,13.24h-.85l-1,2.51C3057.71,2994.32,3020.87,3013.87,2977.86,3013.87Z"/>
<path class="cls-10" d="M2207.82,2429.36c18.23,2.38,36.62,4.85,54.83,7.35l8.25,1.15,3.95.56,10.55,1.5c19.68,2.83,40.24,5.93,61.14,9.22l15.34,2.43.23,0,5,.8h.05c2.11.33,4.2.67,6.3,1l.84.13,3.31.54,2,.32c18.2,8.27,50.48,22,96,40.87,90,37.31,221.23,90.34,337,137.12,76.95,31.09,149.68,60.48,201.47,81.68l0,0,.17.07,1.51,1.46h2.08l8.28,3.4.71.29h0l1.89.77c37.85,15.56,53.77,22.4,60,25.28l1.32,4.32,35.58,116.63a273.29,273.29,0,0,1-31.48,71c-2.4,3.77-4.88,7.43-7.43,10.93h-1.69l-2,5c-28.61,36.92-64,55.63-105.15,55.63-2.34,0-4.73-.06-7.14-.18-2-.1-4-.24-6-.43-15.54-1.42-32.07-5.41-49.13-11.86l-.07,0-.07,0-1.57-.6-1.77-.7h0c-.52-.2-1-.41-1.57-.63l-.06,0-.07,0c-1.17-.46-2.22-.89-3.25-1.32s-2.39-1.08-4-1.89c-8.69-4.49-22.58-13.36-41.29-26.37l-.56-.54-.73-.35c-65.69-45.86-186-139.35-322-250.3-136.28-111.14-254.2-211.92-315.45-269.59q-8.38-7.89-15.28-14.64m-27-13.48c8,8.92,20.08,20.93,35.45,35.4,130.57,122.94,499,423.46,639.19,521.21l0,0,0,0c18.87,13.14,33.6,22.61,43,27.49,1.76.9,3.33,1.65,4.72,2.23,1.14.48,2.27.94,3.4,1.39s2.36.95,3.53,1.4h0c.61.24,1.22.48,1.83.7,18.65,7.05,35.87,11,51.75,12.46q3.27.32,6.45.46c2.57.14,5.11.2,7.61.2,52.6,0,89.24-28.34,113.91-60.62,0,0,0,0,0,0,3.92-5.12,7.53-10.34,10.85-15.56a278.94,278.94,0,0,0,33.43-76.55l-36.4-119.33-1.81-5.92h0l-.76-2.48,0,0-.08,0-.53-.31c-5.05-2.72-28.41-12.57-63.89-27.15h0l-12.69-5.2h0c-129.52-53-390.23-157.33-540.39-219.58-43.58-18.06-77.84-32.59-96.89-41.29l-6.59-1.07-7.19-1.16-5.31-.85q-7.68-1.23-15.36-2.43-30.62-4.83-61.27-9.24l-10.57-1.51c-4.08-.57-8.16-1.15-12.24-1.71q-33.27-4.58-66.55-8.88-8.33-1-16.66-2Z"/>
<g class="cls-4">
<path d="M2977.86,3013.87c-2.42,0-4.89-.06-7.36-.19-2.1-.1-4.19-.25-6.23-.44-16-1.46-33-5.56-50.45-12.16-.64-.23-1.21-.45-1.77-.68l-.88-.35h0c-.85-.32-1.69-.66-2.54-1l-3.38-1.38c-1.21-.51-2.64-1.18-4.39-2.08-8.91-4.6-23.1-13.66-42.17-26.93l-.26-.26-.35-.17c-138.82-96.84-508.5-398.29-638.37-520.58-10.26-9.65-18.88-18-25.77-25.12l2.93.37c8.42,1.09,12.21,1.56,14.91,1.89,4.19.53,5.69.71,18.11,2.42,30.2,23.49,551.81,423.7,688.68,514.29l.24.23.48.24c19.74,13,34.54,22,44,26.56,2.06,1,3.68,1.71,5.15,2.28,1.18.46,2.35.91,3.52,1.34s2.39.9,3.61,1.33l.82.29q.55.21,1.11.39c18.46,6.46,36.4,10.31,53.32,11.43,2,.15,4.23.26,6.67.31,1.36,0,2.73.06,4.08.06a147.72,147.72,0,0,0,17.7-1.06C3035.36,3004.13,3008.06,3013.87,2977.86,3013.87Z"/>
<path d="M2207.79,2429.33l3.32.41c4,.51,5.56.7,16.75,2.23,20.4,15.87,151.63,116.55,290.14,221.32,254.44,192.46,356.85,265.29,397.94,292.48.2.14.4.27.61.39,19.89,13.14,34.88,22.17,44.57,26.88,2.16,1,3.9,1.81,5.47,2.42,1.11.43,2.27.87,3.54,1.34s2.45.93,3.73,1.38l1.64.58h0l.35.12c18.86,6.6,37.22,10.53,54.57,11.69,2.15.16,4.42.26,6.89.32,1.4,0,2.83.06,4.23.06h.46a120.66,120.66,0,0,1-64.15,17.92c-2.33,0-4.73-.06-7.14-.18-2-.1-4-.24-6-.43-15.54-1.42-32.07-5.41-49.13-11.86l-.07,0-.07,0-1.57-.6-1.77-.7h0c-.52-.2-1-.41-1.57-.63l-.06,0-.07,0c-1.17-.46-2.22-.89-3.25-1.32s-2.39-1.08-4-1.89c-8.69-4.49-22.58-13.36-41.29-26.37l-.56-.54-.73-.36c-65.7-45.86-186-139.35-322-250.29-136.28-111.14-254.2-211.92-315.45-269.59q-8.4-7.9-15.31-14.67m-27-13.45c8,8.92,20.08,20.93,35.45,35.4,130.57,122.94,499,423.46,639.19,521.21l0,0,0,0c18.87,13.14,33.6,22.61,43,27.49,1.76.9,3.33,1.65,4.72,2.23,1.14.48,2.27.94,3.4,1.39s2.36.95,3.53,1.4h0c.61.24,1.22.48,1.83.7,18.65,7.05,35.87,11,51.75,12.46q3.27.32,6.45.46c2.57.14,5.11.2,7.61.2,42.22,0,74.16-18.26,97.87-42.16a135.8,135.8,0,0,1-34.18,4.24c-1.32,0-2.64,0-4-.06-2.12,0-4.27-.14-6.46-.3-15.91-1.06-33.22-4.59-52-11.18-.61-.2-1.23-.43-1.85-.65h0c-1.18-.42-2.37-.86-3.56-1.32s-2.28-.85-3.43-1.3c-1.41-.55-3-1.26-4.78-2.12-9.56-4.64-24.52-13.74-43.71-26.42h0l0,0c-142.58-94.27-687.84-513.35-689.81-515.14-22.09-3-12.3-1.64-34.4-4.5q-8.33-1-16.66-2Z"/>
</g>
<path class="cls-9" d="m2988.9 2697.1c-14.72-3.81-40.35-9.08-50.86 3.22-9.91 11.6 0.8 30.47-8.89 38-12.56 9.75-39.53-15-50.7-5.55-8.64 7.27 4.58 24.5-5.67 42.65-8.23 14.58-20.85 10.7-26.58 23.39-8.25 18.26 14.77 33.16 7.88 54.8-5.72 18-25.37 17.2-26.52 31.89-1.32 16.78 23.39 26.52 19.71 43.43-1.57 7.23-6.31 6.47-7.8 13.28-4.51 20.69 35.39 46.87 52.57 55.42 11.76 5.84 20.37 11.31 35 19.71 13.92 8 14.68 9.78 20.33 14 0 0 16.49 9.62 44.61 17.71 45.47 13.09 201.57-39.65 210.74-143.48 2-22.39-3.85-39.07-10-56.63-38.05-108.94-156.91-139.71-203.82-151.84z"/>
<path class="cls-11" d="m2907.3 3004.3c1 0.85 8.81 6.32 10.15 7.41-11.11-5.91-15-9-25.36-14.13-17.19-8.54-57.09-34.72-52.58-55.41 1.49-6.82 6.23-6 7.81-13.28 3.67-16.9-21-26.65-19.73-43.43 1.16-14.69 20.81-13.93 26.53-31.89 6.89-21.64-16.13-36.54-7.88-54.8 5.73-12.7 18.35-8.81 26.58-23.39 10.25-18.15-3-35.38 5.67-42.65 11.16-9.4 38.14 15.3 50.7 5.55 9.69-7.52-1-26.39 8.9-38 10.49-12.29 36.13-7 50.85-3.21 15.8 4.09 39.73 10.27 66 20.85-18.63-6.43-35.11-10.69-47-13.77-14.71-3.8-40.35-9.06-50.85 3.23-9.92 11.6 0.79 30.47-8.9 38-12.55 9.74-39.53-15-50.69-5.56-8.64 7.27 4.58 24.5-5.68 42.65-8.22 14.58-20.85 10.7-26.58 23.39-8.25 18.27 14.77 33.17 7.88 54.8-5.72 18-25.36 17.2-26.52 31.89-1.31 16.78 23.39 26.53 19.72 43.43-1.57 7.24-6.32 6.47-7.8 13.29-4.52 20.69 34.53 47.22 51.72 55.76 1.49 0.73-4.2-1.32-2.94-0.73z"/>
<path class="cls-12" d="M3162.83,2794.22c-.11-.15-.22-.29-.34-.43l-.07-.09c-.08-.1-.15-.2-.24-.3-.4-.5-.8-1-1.21-1.51l-.17-.21q-.74-.91-1.5-1.83c-1-1.23-2.05-2.45-3.1-3.64l-1.57-1.78c-.53-.59-1.06-1.18-1.6-1.76s-1.06-1.16-1.6-1.73q-1.56-1.68-3.16-3.31c-.58-.59-1.17-1.18-1.76-1.76-.33-.34-.66-.67-1-1s-.79-.79-1.19-1.17l-2-1.91c-.37-.36-.75-.71-1.12-1.05-1-1-2.1-1.93-3.16-2.88-.58-.51-1.15-1-1.73-1.53l-1.34-1.16-1.67-1.43-1.54-1.29q-2.6-2.14-5.22-4.2l-1.71-1.33c-1.14-.88-2.3-1.75-3.45-2.6l-2.17-1.59-1.81-1.3-1.46-1c-1-.71-2-1.41-3.05-2.11l-.24-.16-2.21-1.47c-.73-.49-1.47-1-2.21-1.45l-2.22-1.42c-.49-.31-1-.63-1.48-.93s-1-.62-1.48-.92l-3-1.8h0q-.37-.24-.75-.45c-.75-.45-1.49-.89-2.24-1.32l0,0-.08,0a10.77,10.77,0,0,0-1.32-.65c-8.65-3.64-17.1-6.8-25.14-9.55h0c-2.87-1-5.67-1.91-8.42-2.78h0c-14.73-4.73-27.7-8.08-37.52-10.62-14.72-3.82-40.35-9.08-50.85,3.21-6.13,7.17-7.59,17.55-9.83,26.17a11.71,11.71,0,0,1-12.56,8.68c-14.75-1.55-30.39-8.15-37.21-2.4-8.63,7.27,4.58,24.5-5.66,42.65-8.24,14.58-20.85,10.69-26.58,23.38-3.16,7-.51,13.12.83,20,2.55,13.23.24,27.85-.92,32.15-4.94,18.19-23.93,20.79-18.56,34.51,3.68,9.38,6.9,11.92,10.79,25.88,2.35,8.4-1.84,21.91-2.58,25.35-2.88,13.25,6.43,27,18,38l0,0,0,0a115.73,115.73,0,0,0,9,7.65c1.79,1.37,3.58,2.66,5.33,3.86l.07.05c.69.47,1.38.93,2.06,1.37,0,0,0,0,0,0,1.14.74,2.27,1.44,3.35,2.11h0a81.28,81.28,0,0,0,8,4.26.94.94,0,0,0-.1-.1,38,38,0,0,1-5.22-5.86c-18.44-25-31.15-87.43-31.79-93.85-1.24-12.8,9.24-14,12.26-31.1.31-1.75-2.52-17.79,2.2-29.39,4-9.68,14.44-14.67,12.51-18.89a18.77,18.77,0,0,1-2-6.82,13.73,13.73,0,0,1,1.78-7.93c3.6-6.51,7.45-5.07,12.15-12.38,5.4-8.39,1.72-12.95,6.55-17.95a10.73,10.73,0,0,1,.87-.81h0c5.67-4.75,12.24-.33,19.23-5.6a23.64,23.64,0,0,0,4.85-5.17s0,0,0,0c3.15-4.38,5.75-10,8.53-14.93a11.69,11.69,0,0,1,5.14-4.83h0a11.75,11.75,0,0,1,4.55-1.14c5.21-.23,11.24-.6,16.15-1.33l1.64-.27c15.65-2.77,24.46-10.53,31.05-14.33,24.27-14,63.36-.13,81.88,7.81,4.22,1.81,7.36,3.31,9,4.1,19,9,38,24.21,54.27,43.48l.22.26Z"/>
<path class="cls-13" d="M3198.91,2994.1c7-11.31,19.34-9.11,21.64-19.56,1.83-8.35-5.55-12.06-3-21.18,2.3-8.11,8.88-7.72,10.56-16.08,1.44-7.15-2.58-8.64-1.49-17.11,1.26-9.72,7.21-10.61,6.67-17.48-.66-8.32-9.59-9.09-11.78-18-2.52-10.21,7.94-14,6.39-24.26-1.4-9.18-10.48-11.29-20.63-23.12-1.16-1.36-2.2-2.7-3.17-4-1.53-14.72,2.5-22.85-2.89-29.59-3.82-4.76-8.8-4.43-13.36-5.45a59.53,59.53,0,0,0-9.72-11.13c-.6-5.18,1-10.13-2.91-14.28-4.42-4.76-8.83-.76-16.39-5.94-6.58-4.51-5.06-8.54-11-12-6.88-4-10.79,1.3-17.89-2.06-8-3.79-5.88-11.79-12.84-15.66-8.73-4.85-15.07,6-27.36,4.21-15.78-2.33-16.43-17.82-28.38-16-7.87,1.23-11.85,6.08-22.39,6.59-4,.19-4.2-1.07-10.27-1.85-2.22-.29-13-1.07-21.54,2-7.77,2.83-13.47,9.88-23.8,23.57-12.59,1-19.9-2-26.24,3.44-7.91,6.76-2.46,16.46-11,22.52-7.5,5.31-14.75,0-20.69,5.89-4.9,4.83-1,9.41-6.4,17.58-4.71,7.11-8.73,5.6-12.31,11.95-4.2,7.42,1,11.44-2.54,19.08-4,8.58-12,6.55-16.09,14.05-5.1,9.4,5.69,15.87,3.55,29-2.75,16.84-18.36,17.93-16.79,30.59,1,8.33,5.82,12.44,6.06,23.64.09,4.21-1.19,4.49-2.12,11-.35,2.37-1.41,13.88,1.49,22.84,2.62,8.11,9.43,13.94,22.64,24.35a26.74,26.74,0,0,0,3.05,10.89c4.39,7.88,13.07,14.35,14.94,15.58,5.1,3.37,6.11,2.57,9,5.3,7.63,7.27,7.45,13.53,12.58,19.59,7.81,9.21,18.49-2.07,31.94,6.46,10.49,6.65,8.12,19,17.9,21,7.81,1.62,11.48-5.8,20-3.45,7.58,2.1,7.05,8.64,14.88,10.12,6.69,1.25,8.19-2.78,16.14-1.89,9.11,1,9.81,6.91,16.28,6.21,7.85-.86,8.79-9.75,17.25-12.14,9.66-2.74,12.95,7.57,22.67,5.78a13.57,13.57,0,0,0,7.32-4.11c2.19.17,4.42.32,6.71.43,18.94.94,28.57,1.31,36.32-3.37,8-4.88,14.78-14.27,16.06-16.28,3.53-5.51,2.75-6.57,5.57-9.69,7.51-8.29,13.81-8.27,20-13.88C3201.06,3019.7,3190,3008.63,3198.91,2994.1Z"/>
<path class="cls-14" d="m3070.2 2905.2c1.32 1.53 3.78-0.27 9.62 0.27 7 0.66 8.71 3.74 12.95 2.69 3.53-0.88 6.62-4.09 6-6.23-0.38-1.39-2.16-1.78-10.6-4.06-10.3-2.79-11.69-3.3-13.66-2.4-4.05 1.88-6.06 7.71-4.31 9.73z"/>
<path class="cls-14" d="m3100.7 2953.9c-4.24 0.92-4.7 8.45-6.79 8.21-1.1-0.12-2-2.31-2.21-4.1-0.53-4.91 4.34-6.91 3.45-10.23s-6-3.18-6.28-5.82 4.72-6.42 8.15-5.42c2.5 0.73 2 3.31 5.56 6.12 3.79 3 6.6 1.8 8.1 4.24 1.71 2.79 0.08 7.72-2.71 8.64-2.56 0.85-4.35-2.28-7.27-1.64z"/>
<path class="cls-14" d="m3078.7 2873.6c2.15 2.95 8.74 1.8 12.82 1.08 5.29-0.93 4.79-1.85 8.47-2.37 8-1.12 10.79 3.21 18 1.58 1.37-0.31 6.41-1.45 7.23-4.9a5 5 0 0 0-1.82-5.12c-2.71-1.8-5.51 1.78-11.58 1.46-3.21-0.17-2.77-1.19-10.91-3.59a42.69 42.69 0 0 0-9.93-2c-3.45-0.21-8.49 0-8.72 1.38s5.16 3.08 4.88 4.52-6.45 0.17-8.49 3.25a4.4 4.4 0 0 0 0.05 4.71z"/>
<path class="cls-14" d="m3173.6 2963c-0.87 1.41 0.63 2.55 1.2 6.55s-0.53 5.24 0.73 6.58a5.22 5.22 0 0 0 6 0.58c2.84-1.78 1.69-6.22 1.59-6.57-0.42-1.56-1-1.54-1.94-4s-0.61-3.34-1.47-4c-1.49-1.27-5.05-0.83-6.11 0.86z"/>
<path class="cls-14" d="m3101.5 2990.8c1.63 2.44 8.52 0.76 10.07 0.38a23 23 0 0 0 11.53-6.46c0.86-0.91 6.44-6.84 4.4-10.28-0.75-1.26-2.5-2.16-3.5-1.77s-0.57 2.23-2 5.12c-0.63 1.31-1.55 3.23-3.14 3.36s-2.76-1.38-2.9-1.54c-2-2.42-0.72-6-1.14-6.1s-0.56 5.86-4.57 8.91c-3 2.31-6.11 1.25-8.07 4.09-0.69 1.06-1.52 3.03-0.68 4.29z"/>
<path class="cls-14" d="m3154.3 2891.8c-3.33 2.44-4 2.84-3.94 3.55 0.12 1.34 2.77 2.23 4.14 2.68 4.48 1.51 10.68 1.79 11.3-0.07 0.4-1.18-1.42-3.3-3.42-3.95-2.17-0.7-3.84 0.58-4.61-0.23-1-1.05 1.18-3.93 0.52-4.42-0.37-0.31-1.27 0.45-3.99 2.44z"/>
<path class="cls-14" d="m2936.3 2878.1c1.9 0.74-0.85 6.39 1.86 14.9 2.84 8.93 9.06 12.73 8.15 13.76-1.37 1.56-17.94-4.16-19.13-14.74-0.86-7.71 6.78-14.83 9.12-13.92z"/>
<path class="cls-14" d="m2974.7 2964.7c-0.71 2.84 6.45 6.84 9.19 8.36s12.24 6.82 15.75 3.78c1.07-0.93 1.32-2.38 1.62-4.22 0.16-1 0.89-5.38-0.95-6.49-2-1.22-4.36 3.1-8.65 2.81-5-0.34-6.25-6.4-11.55-6.68-2.33-0.13-5.02 0.89-5.41 2.44z"/>
<path class="cls-14" d="m3043 2977.9c1.32 2 4.27 2.46 10.12 3.24 7.51 1 9.23 0 9.81-0.44 1.62-1.12 3.25-3.38 2.54-4.83-0.9-1.82-4.57-0.59-11.67-1.89-6.45-1.18-9-3.21-10.66-1.83-1.45 1.16-1.35 3.97-0.14 5.75z"/>
<path class="cls-14" d="m3009.6 2887.1c0.26 2.65 3.06 4.19 4.32 4.88 3.53 1.93 7.09 1.54 9.86 1.2 3.93-0.49 8.78-1.08 9.9-4.27 0.91-2.58-0.8-6.33-3.16-7-1.75-0.51-3.52 0.76-5.71 2.33-4 2.88-4.31 5.12-6.08 5.09-3-0.07-4.37-6.67-6.81-6.48-1.39 0.12-2.51 2.35-2.32 4.25z"/>
<path class="cls-14" d="m3005.1 2951.8c2.3 3.54 8.46 3 9.22 2.89 0.59-0.07 6.65-0.8 9-5.58 1.69-3.41 0.85-7.57-0.11-7.78s-2 4.55-4.15 4.54c-2.45 0-4.35-6.16-5.31-5.91s1.17 5.28-1 7-6.46-1.29-8.09 0.45c-0.92 1.07-0.35 3.16 0.44 4.39z"/>
<path class="cls-14" d="m3177.7 2870.6c0 1.85 0.19 7.78 4.27 11.31 4.3 3.72 11.75 3.72 12.78 1.67 0.41-0.82-1.3-3.32-4.75-8.27-2.53-3.63-3-4-3.7-5.61-1.61-3.54-0.72-4.54-2.05-7.23-2-4.13-6.58-6.85-7.62-6.15-0.83 0.56 1 3 1.42 8 0.23 3.13-0.42 3.5-0.35 6.28z"/>
<path class="cls-14" d="m3050.5 2857.2c1.12 3.46 5 5.89 8.76 6.11 0.46 0 6.18 0.29 7.45-3.26 1-2.9-1.48-6.74-3.28-6.76-2.12 0-2.4 5.19-5 5.41-3.07 0.27-5.7-6.7-7.41-6.2-0.99 0.28-1.13 2.79-0.52 4.7z"/>
<path class="cls-14" d="m3112 3017.9c1.12 3.45 5 5.89 8.76 6.1 0.46 0 6.18 0.29 7.45-3.26 1-2.9-1.48-6.73-3.28-6.76-2.12 0-2.4 5.19-5 5.42-3.07 0.26-5.7-6.71-7.41-6.21-0.99 0.29-1.13 2.85-0.52 4.71z"/>
<path class="cls-14" d="m2970.4 2920c1.11 3.46 5 5.89 8.76 6.11 0.46 0 6.18 0.28 7.45-3.26 1-2.9-1.48-6.74-3.29-6.77-2.11 0-2.4 5.2-5 5.42-3.07 0.27-5.7-6.71-7.41-6.2-0.98 0.28-1.13 2.79-0.51 4.7z"/>
<path class="cls-14" d="m3075 2830.8c2.15 1.16 3.93-2 9-2.08 5.47-0.08 7.64 3.59 10.86 2.33 2.8-1.1 4.26-5.12 3.12-6.45-1.27-1.49-4.75 1.5-10.46 0.88-7.17-0.78-10-6.4-12.7-5.17s-2.72 8.92 0.18 10.49z"/>
<path class="cls-14" d="m3069.1 3023.3c2.14 1.16 3.92-2 9-2.08 5.47-0.08 7.65 3.59 10.86 2.33 2.81-1.1 4.27-5.12 3.13-6.45-1.27-1.49-4.75 1.5-10.46 0.88-7.17-0.78-10-6.4-12.71-5.17s-2.72 8.91 0.18 10.49z"/>
<path class="cls-14" d="m3085.2 2785.8a24.44 24.44 0 0 0 4 4.89c6.36 6.49 5.86 8.44 8.3 9 4.33 1 11-4 10.17-8.65-0.41-2.42-2.89-5-5.24-5.07-3 0-4 4.07-6.31 3.7-2-0.31-1.86-3.55-5.3-6.61-2.64-2.36-6.44-3.77-7.4-2.84s1.05 4.36 1.78 5.58z"/>
<path class="cls-14" d="m3140.5 2932.4c-5.63 4-8.44 11.43-6.63 13.06 1 0.93 3.7 0.06 5.29-1 2.53-1.74 2.25-4 4.1-7.3 3-5.34 7.67-6.79 7.17-7.65s-5.76-0.09-9.93 2.89z"/>
<path class="cls-14" d="m3181.1 2926.5c-2.5-0.2-6.25 7.29-3.78 9.87 1.42 1.48 4.95 1.38 6.61-0.22 2.9-2.8-0.56-9.48-2.83-9.65z"/>
<path class="cls-14" d="m3151.8 2992.3c-0.35 2.74-0.78 6 0.42 6.58s4.38-1.84 4.81-4.88c0.47-3.32-2.35-6.82-3.67-6.61-0.94 0.15-1.21 2.21-1.56 4.91z"/>
<path class="cls-14" d="m3007.4 2812.9c-1.81 4.18-0.93 7.28-3.06 8-1.89 0.64-4.79-1-6-3.2s-0.29-4.55 0.64-6.79c0.49-1.18 5-11.93 13.31-11.73 1.49 0 4.58 0.46 5.12 2 0.96 2.53-6.8 4.32-10.01 11.72z"/>
<path class="cls-14" d="m3029.4 2793.2c1.39 0.9 3.42 0.33 7.49-0.81 3.59-1 5.38-1.51 5.51-2.47 0.25-1.8-4.48-4.5-8.88-4.93-1.65-0.17-4-0.39-5.29 1-1.75 1.91-0.98 5.8 1.17 7.21z"/>
<path class="cls-14" d="m3021.3 3008.3c1.39 0.91 3.43 0.34 7.49-0.8 3.59-1 5.39-1.51 5.52-2.47 0.25-1.81-4.49-4.5-8.88-4.93-1.66-0.17-4-0.4-5.29 1-1.75 1.91-0.99 5.8 1.16 7.2z"/>
<path class="cls-14" d="m3042.9 2774.2c4.66 0.25 5.38-0.37 8.52-0.1 4.45 0.38 5.94 1.87 7.16 0.91s1.1-3.8-0.15-5.57c-2.7-3.81-10.08-2.47-10.86-2.32-5.34 1-9.86 4.83-9.25 6.24 0.26 0.59 1.72 0.67 4.58 0.84z"/>
<path class="cls-14" d="m3049 2931.5c4.67 0.25 5.38-0.37 8.53-0.1 4.44 0.38 5.93 1.88 7.16 0.91s1.1-3.8-0.16-5.56c-2.7-3.82-10.07-2.48-10.86-2.33-5.34 1-9.86 4.84-9.24 6.24 0.21 0.59 1.66 0.68 4.57 0.84z"/>
<path class="cls-14" d="m2982.9 2793.4c0.31 1.7-5.9 2-9.27 7.15-2.1 3.23-1.49 5.9-3 6.18-1.86 0.35-5.16-3.16-5.3-6.62-0.17-4.48 5-7.9 9.5-8.59 3.6-0.54 7.83 0.46 8.07 1.88z"/>
<path class="cls-14" d="m2980.2 2842.2c0.32 2.73 1.9 4.57 4.14 7.1 4.06 4.58 10 8.81 11.4 7.73 1.06-0.85-2.12-3.8-1.43-8.2 0.73-4.71 5.35-7.48 5-7.88s-7.78 6-10.15 4.37c-1.19-0.8-0.11-2.93-1.46-7.29-0.6-1.93-1.4-4.52-2.75-4.72-1.97-0.34-5.28 4.33-4.75 8.89z"/>
<path class="cls-14" d="m2976.3 2879.9c1.2 5.11-4.08 7.65-2.83 12.29 1 3.62 5 5 4.59 5.7-0.51 0.85-7.37-0.35-10.64-5.17-3-4.44-1.25-9.42-0.62-11.2 0.17-0.5 2.44-6.73 5.5-6.44 1.82 0.18 3.49 2.62 4 4.82z"/>
<path class="cls-14" d="m2972.8 3005.6c1.19 5.11-4.08 7.65-2.83 12.28 1 3.63 5 5 4.59 5.71-0.51 0.85-7.38-0.35-10.64-5.18-3-4.44-1.25-9.41-0.63-11.19 0.18-0.5 2.45-6.74 5.51-6.44 1.82 0.23 3.49 2.61 4 4.82z"/>
<path class="cls-14" d="m2924.9 2932.2c2.65-1.88 7.81-0.9 10.12 1.68 1.61 1.81 0.65 3.1 2.48 5.12 2.3 2.53 5.12 1.93 5.81 3.76 0.61 1.61-0.78 4.25-2.79 4.84-3.93 1.16-8-6.05-11.2-5s-1.42 9.49-4.09 10.05c-1.48 0.32-3.71-1.91-4.49-4.13s0.17-3.23 1.64-8.57c1.59-5.81 1.13-6.76 2.52-7.75z"/>
<path class="cls-14" d="m2940.9 2961.4c2.17-0.8 6.17 3.79 8.14 6.84 1.32 2.05 3.73 6.53 2.49 7.53s-6.15-2.48-8.2-4.24c-1.79-1.53-3.23-2.82-3.72-4.93-0.44-1.89-0.15-4.68 1.29-5.2z"/>
<path class="cls-14" d="m2940.2 2843.4c-2.4 4.62-0.37 8.69-2.21 9.45-1.49 0.61-4.05-1.51-5.35-3.14-2.69-3.38-4-9.62-0.24-12.81 4.06-3.44 11.71-1.35 12.33 0.78 0.42 1.44-2.58 1.98-4.53 5.72z"/>
<path class="cls-14" d="m2962.4 2821c-4.4 1-6.35 9.18-4 11.16a3.5 3.5 0 0 0 4.33-0.31c0.81-1-0.21-2 0.1-3.91 0.53-3.34 4.33-4.34 3.84-5.76-0.39-0.96-2.58-1.56-4.27-1.18z"/>
<path class="cls-14" d="m2926.7 2983.1c-4.4 1-6.35 9.17-4 11.16a3.49 3.49 0 0 0 4.33-0.32c0.81-1-0.2-2 0.1-3.9 0.53-3.35 4.33-4.35 3.84-5.76-0.38-0.99-2.58-1.59-4.27-1.18z"/>
<path class="cls-14" d="m3132.9 2811.5c-1.85 0-4.67 8.19-1.25 11.9 2 2.16 4.35 0.92 11.55 3.27 5.4 1.76 7.63 3.62 8.41 2.83s-0.7-4.76-3.72-6.45-4.88 0.12-7.85-1.08c-5.37-2.16-5.26-10.5-7.14-10.47z"/>
<path class="cls-14" d="m3016.9 3023.7c-1.86 0-4.68 8.19-1.26 11.9 2 2.17 4.35 0.92 11.55 3.27 5.4 1.76 7.63 3.63 8.41 2.84s-0.7-4.77-3.72-6.46-4.88 0.12-7.85-1.07c-5.37-2.14-5.25-10.5-7.13-10.48z"/>
<path class="cls-15" d="M3063.36,2735.28h0a22.8,22.8,0,0,1,3.49,3.35c4,4.37,10.12,11,21.5,12.66a28.94,28.94,0,0,0,4.25.31c6.7,0,11.94-2.36,15.77-4.08a26.77,26.77,0,0,1,4-1.58c.36.24.72.94,1.56,2.81,1.62,3.58,4.32,9.57,11.82,13.13a21.68,21.68,0,0,0,9.45,2.14,32.38,32.38,0,0,0,5.07-.46,16.88,16.88,0,0,1,2-.23c.16,0,.24,0,.62.22.65.38.67.39,1.61,2a28,28,0,0,0,22.86,14.41l.58.06c.06.72.06,1.86.06,2.68a44.3,44.3,0,0,0,.23,5.55l.43,3.72,2.77,2.52a49.73,49.73,0,0,1,8.11,9.24l2.22,3.37,3.93.88c1.28.29,2.5.48,3.58.65,3.25.51,3.69.7,4.16,1.28.85,1.07.83,3.27.57,8.42a97.27,97.27,0,0,0,.18,16l.28,2.67,1.58,2.18c1.22,1.68,2.42,3.2,3.67,4.66a92.29,92.29,0,0,0,12.46,11.8c4.48,3.67,5.64,4.8,5.87,6.31.19,1.22-.12,2-2.06,5.22-2.56,4.25-6.43,10.68-4.15,19.92,1.79,7.32,6.28,11.39,9.25,14.08a20.36,20.36,0,0,1,2.24,2.23c-.21.34-.58.88-.87,1.29a30.07,30.07,0,0,0-5.72,14.25,29.31,29.31,0,0,0,1.22,13.19c.55,1.86.62,2.1.39,3.22s-.28,1.16-2.2,2.92a25.13,25.13,0,0,0-8.18,12.42c-2.3,8.12.15,14,1.77,17.88,1.07,2.56,1.22,3.11,1.05,3.87s-.53,1-4.4,3c-4.72,2.4-11.19,5.69-16,13.5-6.18,10.05-5.41,19.26-4.9,25.36.46,5.62.2,5.86-.59,6.57a26.22,26.22,0,0,1-5.93,3.7,46.82,46.82,0,0,0-14.84,10.91,23.33,23.33,0,0,0-4.37,6.88,26.33,26.33,0,0,1-2.21,4.14c-1.1,1.72-6.82,9.47-12.81,13.09-3,1.81-7,2.51-14.44,2.51-4.32,0-9.44-.23-16.2-.57-2-.09-4-.22-6.45-.41l-4.56-.34-3.25,3.22c-1.21,1.2-1.69,1.29-2.08,1.36a2.37,2.37,0,0,1-.43.05c-.7,0-2.1-.87-3.58-1.79-3.17-2-7.52-4.67-13.66-4.67a21.65,21.65,0,0,0-5.91.85c-7,2-10.92,6.52-13.52,9.52-.54.63-1.3,1.51-1.83,2l-.48-.34a27.43,27.43,0,0,0-13.88-5.58,29.06,29.06,0,0,0-3.32-.19,28.12,28.12,0,0,0-9.52,1.74,7.85,7.85,0,0,1-1.91.52,3.34,3.34,0,0,1-.64-.07c-.57-.11-.59-.11-2-1.72a23.48,23.48,0,0,0-12.1-8.21,22.23,22.23,0,0,0-6-.82,26.33,26.33,0,0,0-11.57,3,13,13,0,0,1-2.91,1.13l-.14,0a27.8,27.8,0,0,1-2-3.77c-2.06-4.45-5.18-11.18-12.67-15.93a31.53,31.53,0,0,0-17.37-5,61.93,61.93,0,0,0-7.19.51c-1.48.16-2.88.32-3.92.32a3.91,3.91,0,0,1-.93-.07,3,3,0,0,1-.26-.26,24.76,24.76,0,0,1-3.24-5.66,44,44,0,0,0-10.08-14.72,21.28,21.28,0,0,0-6.72-4.4,21.76,21.76,0,0,1-3.66-2c-1.55-1-8.51-6.37-11.69-12.09a16.93,16.93,0,0,1-1.83-6.93l-.39-4.28-3.37-2.66c-11.86-9.35-17.63-14.33-19.33-19.57-2.15-6.67-1.41-16.28-1.11-18.33a26.55,26.55,0,0,1,1-4.56,23.26,23.26,0,0,0,1.2-8.08,46.89,46.89,0,0,0-4.07-17.95,26.16,26.16,0,0,1-2.07-6.69c-.13-1.06-.17-1.42,3.85-5.36,4.38-4.27,11-10.73,12.89-22.38,1.48-9-1.26-15.77-3.25-20.68-1.64-4-1.68-4.59-1.39-5.14.38-.7.84-1,3.32-2.24,3.77-1.87,9.47-4.7,13.06-12.37a25.19,25.19,0,0,0,1.93-14.73c-.31-2.59-.27-2.75.24-3.65s.77-1.13,2.4-2.17a29.15,29.15,0,0,0,9.55-9.18,30,30,0,0,0,5-14.51c.05-.5.12-1.14.19-1.54a18.75,18.75,0,0,1,3.12-.21c4-.09,10.07-.22,16.21-4.57,7.79-5.5,9.06-12.9,9.91-17.79.64-3.7.91-4.49,1.85-5.29.57-.48,1.16-1,5-1,1.06,0,2.26,0,3.53.08,1.54,0,3.28.09,5.15.09,2.41,0,4.64-.08,6.81-.26l4.48-.35,2.71-3.59c9.56-12.64,14.27-18.38,19.25-20.19a37.57,37.57,0,0,1,12.19-1.73,39.08,39.08,0,0,1,4.65.23,21.64,21.64,0,0,1,4.06.86,21.55,21.55,0,0,0,6.74,1.09l1.24,0a44.25,44.25,0,0,0,17.25-4.53,24.9,24.9,0,0,1,6.19-2.17,2.23,2.23,0,0,1,.38,0m0-10a13,13,0,0,0-1.92.15c-7.87,1.23-11.85,6.08-22.39,6.59l-.75,0c-3.27,0-3.86-1.15-9.52-1.87a49.29,49.29,0,0,0-5.93-.31,47.66,47.66,0,0,0-15.61,2.33c-7.77,2.83-13.47,9.88-23.8,23.57-2.16.17-4.16.22-6,.22-3.26,0-6.12-.17-8.68-.17-4.54,0-8.17.52-11.53,3.39-7.91,6.76-2.46,16.46-11,22.52-7.5,5.31-14.75,0-20.69,5.89-4.9,4.83-1,9.41-6.4,17.58-4.71,7.11-8.73,5.6-12.31,11.95-4.2,7.42,1,11.44-2.54,19.08-4,8.58-12,6.55-16.09,14.05-5.1,9.4,5.69,15.87,3.55,29-2.75,16.84-18.36,17.93-16.79,30.59,1,8.33,5.82,12.44,6.06,23.64.09,4.21-1.19,4.49-2.12,11-.35,2.37-1.41,13.88,1.49,22.84,2.62,8.11,9.43,13.94,22.64,24.35a26.74,26.74,0,0,0,3.05,10.89c4.39,7.88,13.07,14.35,14.94,15.58,5.1,3.37,6.11,2.57,9,5.3,7.63,7.27,7.45,13.53,12.58,19.59a10.57,10.57,0,0,0,8.82,3.87c3.36,0,7.07-.83,11.11-.83a21.45,21.45,0,0,1,12,3.42c10.49,6.65,8.12,19,17.9,21a11.08,11.08,0,0,0,2.23.24c5.38,0,8.89-4.15,14.48-4.15a12.11,12.11,0,0,1,3.29.46c7.58,2.1,7.05,8.64,14.88,10.12a13.63,13.63,0,0,0,2.49.24c4.18,0,6.28-2.26,11.43-2.26a19.88,19.88,0,0,1,2.22.13c8.6,1,9.71,6.26,15.25,6.26a9.21,9.21,0,0,0,1-.05c7.85-.86,8.79-9.75,17.25-12.14a11.85,11.85,0,0,1,3.19-.47c6.67,0,10.22,6.46,17.24,6.46a12.72,12.72,0,0,0,2.24-.21,13.57,13.57,0,0,0,7.32-4.11c2.19.17,4.42.32,6.71.43,6.59.33,12.05.58,16.7.58,8.71,0,14.57-.9,19.62-4,8-4.87,14.78-14.27,16.06-16.28,3.53-5.51,2.75-6.57,5.57-9.69,7.51-8.29,13.81-8.27,20-13.88,9.47-8.53-1.61-19.6,7.32-34.13,7-11.31,19.34-9.11,21.64-19.56,1.83-8.35-5.55-12.06-3-21.18,2.3-8.11,8.88-7.72,10.56-16.08,1.44-7.15-2.58-8.64-1.49-17.11,1.26-9.72,7.21-10.61,6.67-17.48-.66-8.32-9.59-9.09-11.78-18-2.52-10.21,7.94-14,6.39-24.26-1.4-9.18-10.48-11.29-20.63-23.12-1.16-1.36-2.2-2.7-3.17-4-1.53-14.72,2.5-22.85-2.89-29.59-3.82-4.76-8.8-4.43-13.36-5.45a59.53,59.53,0,0,0-9.72-11.13c-.6-5.18,1-10.13-2.91-14.28-4.42-4.76-8.83-.76-16.39-5.94-6.58-4.51-5.06-8.54-11-12a10.86,10.86,0,0,0-5.64-1.57c-2.4,0-4.6.69-7.08.69a11.81,11.81,0,0,1-5.17-1.18c-8-3.79-5.88-11.79-12.84-15.66a9.37,9.37,0,0,0-4.65-1.26c-6,0-11.52,5.68-19.92,5.68a18.1,18.1,0,0,1-2.79-.21c-14.89-2.2-16.31-16.11-26.46-16.11Z"/>
<path class="cls-4" d="m2448.1 2473c-19.21-2.46-228.72-31.21-243.66-33-15.37-14.47-15.65-15.24-23.66-24.16q8.32 1 16.66 2 33.28 4.3 66.55 8.88c4.08 0.56 8.16 1.14 12.24 1.71l10.57 1.51q30.64 4.39 61.27 9.24 7.68 1.2 15.36 2.43l5.31 0.85 7.19 1.16 6.59 1.07c19.05 8.78 22 10.31 65.58 28.31z"/>
<g class="cls-6">
<path class="cls-16" d="M2595.41,2455.54a45,45,0,0,1,9.37,16.78,51.59,51.59,0,0,1,2.23,19.1,44.82,44.82,0,0,1-5.19,18.1,33.44,33.44,0,0,1-12.47,13.28,7.32,7.32,0,0,1-10.36-8.18c.06-.22.11-.43.17-.64,1.25-4.87,2.49-9.13,3.36-13.41a105.88,105.88,0,0,0,1.86-12.66,107.07,107.07,0,0,0,.26-13.11c-.13-4.55-.6-9.24-.9-14.45l0-.5a6.26,6.26,0,0,1,6.44-6.74A7.45,7.45,0,0,1,2595.41,2455.54Z"/>
</g>
<g class="cls-6">
<path class="cls-16" d="m1421.5 2350.3c-1.23 5.14-2.53 9.73-3.48 14.24a110.73 110.73 0 0 0-2.13 13.12 109.38 109.38 0 0 0-0.48 13c0.07 4.43 0.5 8.9 0.83 14v0.64a7.5 7.5 0 0 1-6.38 7.76 6.43 6.43 0 0 1-5.14-1.46 33.79 33.79 0 0 1-9.68-15.51 46.68 46.68 0 0 1-1.76-19 53.34 53.34 0 0 1 5.62-18.64 45.44 45.44 0 0 1 12.12-15 6.45 6.45 0 0 1 10.56 6.42z"/>
</g>
<path class="cls-4" d="m1390.8 2108.6c0 3.67-23.81 15.25-36.41 20.62 4.23-2.41 6.58-4.54 6.58-6.6-0.18-20.61-111.76-76.15-111.93-275.54v-0.48-5.48-0.52q0-3 0.1-5.95c10.27 177.4 141.49 254.34 141.66 273.95z"/>
<path class="cls-4" d="m2644.3 2128.4c-12.95-5.65-34.48-16.28-34.45-19.77 0.16-18.89 121.63-90.8 139.95-254.23-2.45 199.63-111.6 244.95-111.4 268.37 0.02 1.98 2.12 3.79 5.9 5.63z"/>
</svg>
