<?xml version="1.0" encoding="UTF-8"?>
<svg viewBox="0 0 4e3 4e3" xmlns="http://www.w3.org/2000/svg">
<defs>
<style>.cls-1,.cls-21{fill:none;}.cls-1,.cls-35{stroke:#333;}.cls-1{stroke-linecap:round;stroke-linejoin:round;stroke-width:10.8px;}.cls-2{fill:#c1c1c1;}.cls-3{fill:#a5a5a5;}.cls-4{fill:#161719;}.cls-5{fill:#292c31;}.cls-6{fill:#262827;}.cls-7{fill:#b8a98a;}.cls-8{fill:#a89a80;}.cls-9{fill:#252a28;}.cls-10{fill:#191c1b;}.cls-11{fill:#695624;}.cls-12{fill:#5b4920;}.cls-13{fill:#939393;}.cls-14{fill:#d6d6d6;}.cls-15{fill:#e9e9e9;}.cls-16{fill:#d8d8d8;}.cls-17{fill:#1a1a1a;}.cls-18{fill:#666;}.cls-19{fill:#595959;}.cls-20{fill:#420102;}.cls-21{stroke:#666;stroke-width:1.96px;}.cls-21,.cls-35{stroke-miterlimit:10;}.cls-22{fill:#c4c4c4;}.cls-23{fill:#31353a;}.cls-24{fill:#181919;}.cls-25{fill:#202226;}.cls-26{fill:#191b1e;}.cls-27{fill:#121413;}.cls-28{fill:#414744;}.cls-29{fill:#141615;}.cls-30{fill:#09090a;}.cls-31{fill:#9b8e78;}.cls-32{fill:#dbdbdb;}.cls-33{fill:#330104;}.cls-34{fill:#221f23;}.cls-35{fill:#f7c394;stroke-width:5px;}.cls-36{opacity:0.08;}</style>
</defs>
<title>hand_neck11</title>
<path class="cls-1" d="M3043.19,3045a15.13,15.13,0,0,0-12.13-9.46l-226.72-29h0l-12.86-1.65c8.71,1.12,12.48,28.5,9,62.48v0c3.5-34-.27-61.41-9-62.52-6.39-.82-13.77,12.75-19.29,33.4-24.34.35-62.29-2.38-83.47-3.56-23.94-24.19-56-44.43-62.25-45.52,0,0-1.2-5.94-2.58-6.12-1.16-.14-3.22-.28-4.34-.39a6.77,6.77,0,0,0-3.89-1.9l-30.11-3.85a2.36,2.36,0,0,0-2-2.11l-6.95-.88a2.36,2.36,0,0,0-2.51,1.52l-27.47-3.51a6.78,6.78,0,0,0-5.7,2c-1.7-8.47-6.64-10-8.57-10.21l-3.83-.43-.88,7.81-.12,0-1.91,17-.05.11a3.36,3.36,0,0,1-.16.33h0a2.7,2.7,0,0,1-.53.64l-.09.09-.26.18-.17.11-.26.13a1,1,0,0,1-.22.09l-.25.08-.31,0a1.52,1.52,0,0,1-.21,0,3.39,3.39,0,0,1-.55,0l-3.82-.49a2.92,2.92,0,0,1-2.48-2.3l-5.46-25.79c-2.93-.34-6.15-.69-9.61-1.07l-.88,7.81-.11,0-1.86,16.53s0,.07,0,.11a3.59,3.59,0,0,1-.17.34h0a3.28,3.28,0,0,1-.53.64l-.09.09-.26.19-.17.11-.26.13-.23.09-.25.07a2.84,2.84,0,0,1-.31.06l-.21,0a2.44,2.44,0,0,1-.54,0l-3.82-.49a2.9,2.9,0,0,1-2.48-2.29l-5.35-25.31-10.56-1.17-.89,7.81H2472l-1.81,16,0,.11a2.16,2.16,0,0,1-.17.34h0a3,3,0,0,1-.53.63l-.09.09a2.48,2.48,0,0,1-.26.19l-.17.11-.26.13-.23.09-.25.07-.3.06-.21,0a2.56,2.56,0,0,1-.55,0l-3.82-.48a2.92,2.92,0,0,1-2.48-2.3l-5.23-24.8-9.94-1.09-.89,7.81h-.11l-1.75,15.55,0,.11a3.36,3.36,0,0,1-.16.33h0a2.7,2.7,0,0,1-.53.64.34.34,0,0,1-.09.08,2.48,2.48,0,0,1-.26.19l-.16.11-.27.13-.22.09-.25.08-.31,0a1.52,1.52,0,0,1-.21,0,3.39,3.39,0,0,1-.55,0L2436,2979a2.93,2.93,0,0,1-2.48-2.3l-5.13-24.31-10.08-1.11-.89,7.81h-.11l-1.71,15.08a.54.54,0,0,1,0,.11,3.54,3.54,0,0,1-.16.34h0a3.28,3.28,0,0,1-.53.64l-.09.09a2,2,0,0,1-.26.18l-.17.11-.26.13a1.09,1.09,0,0,1-.23.09l-.25.08a2.84,2.84,0,0,1-.31.06l-.21,0a2.44,2.44,0,0,1-.54,0l-3.82-.49a2.9,2.9,0,0,1-2.48-2.3l-5-23.79-10.26-1.14-.88,7.82-.12,0-1.64,14.59-.05.11a2.16,2.16,0,0,1-.17.34h0a2.91,2.91,0,0,1-.53.63l-.09.09a2.48,2.48,0,0,1-.26.19l-.17.11-.26.13-.23.09-.25.08-.3.05-.21,0a2.56,2.56,0,0,1-.55,0l-3.82-.48a2.92,2.92,0,0,1-2.48-2.3l-4.92-23.31c-3.44-.38-6.92-.77-10.42-1.13l-.88,7.81-.11,0-1.59,14.11-.05.11a3.36,3.36,0,0,1-.16.33h0a2.7,2.7,0,0,1-.53.64.34.34,0,0,1-.09.08,2.48,2.48,0,0,1-.26.19l-.16.11-.27.13-.22.09-.25.08-.31,0a1.52,1.52,0,0,1-.21,0,3.39,3.39,0,0,1-.55,0l-3.82-.49a2.93,2.93,0,0,1-2.48-2.3l-4.81-22.8-126.38-13.89.35-2.76.88.07c7.18.5,14.7-6.28,15-6.24,5.46.69,13.61-1.12,14.39-7.2a.56.56,0,0,0-.26-.5,10.09,10.09,0,0,0,.63-2.4l17-144.35a9.81,9.81,0,0,0-8.5-11l-150-17a7.79,7.79,0,0,0-1.4-1.11c-2.44-1.26-17.13-3.66-32.14-5.5-17.48-2.27-36.84-4-38.73-2.38a2.32,2.32,0,0,0-.53.72l-286.68-32.57a31.67,31.67,0,0,0-27.45,10.07c-8.09,8.88-15,19.55-19.79,39.18-.11.43-.21.88-.31,1.31s-.2.82-.29,1.23c0,.15-.07.28-.1.43.27-1.21.54-2.4.83-3.54l-28.08-3.59a8.52,8.52,0,0,0-9,5.32,79.64,79.64,0,0,0-3.73,13.24v0c0,.09,0,.2-.06.3s0,.28-.08.41c-.09.44-.17.88-.26,1.34l-10.42-1.33a37.36,37.36,0,0,0,6.26-6.73,14.28,14.28,0,0,0,2.2-13.31l-3.87-10.69h0l-.15-.4h0c-3.89-9.88-17.53-14-30.74-9.24s-21,16.69-17.72,26.77h0l.15.39h0l1.77,4.89c-331.79-54.33-345.23,31.25-357.71,77.13l1.23.14c-14.13-1.53-29.9-3.22-42.77-4.57h0c-13.76-1.44-24.2-2.5-25.74-2.54-1,0-14.21-1.18-18.75-1.58l-1.56-.12a2.14,2.14,0,0,0-2.36,1.93,2.23,2.23,0,0,0,1.13,2.13,3.64,3.64,0,0,1,.6.43,3.74,3.74,0,0,1,.53.52,5,5,0,0,1,.82,1.2v0a4.91,4.91,0,0,1,.49,2.71,4.73,4.73,0,0,1-.37,1.48,5.18,5.18,0,0,1-1.25,1.76,2.26,2.26,0,0,0-.31,3.05,5,5,0,0,1,.45.78,5.08,5.08,0,0,1,.49,2.71,5.42,5.42,0,0,1-.39,1.46,3.91,3.91,0,0,1-.54,1,2.12,2.12,0,0,1-.33.43,2.75,2.75,0,0,1-.37.39,2.28,2.28,0,0,0-.31,3.05,3.57,3.57,0,0,1,.46.77,5.13,5.13,0,0,1,.49,2.72,5.42,5.42,0,0,1-.39,1.46,4.1,4.1,0,0,1-.54,1,3.29,3.29,0,0,1-.33.41,3.33,3.33,0,0,1-.36.39,2.28,2.28,0,0,0-.32,3.07,4.33,4.33,0,0,1,.44.75,4.88,4.88,0,0,1,.48,2.74,4.48,4.48,0,0,1-.36,1.45,4.24,4.24,0,0,1-.54.95,2.47,2.47,0,0,1-.33.43,3.41,3.41,0,0,1-.37.39,2.27,2.27,0,0,0-.31,3.07,4,4,0,0,1,.44.75,4.86,4.86,0,0,1,.48,2.73,4.74,4.74,0,0,1-.36,1.46,4.17,4.17,0,0,1-.54.94c-.1.15-.21.29-.33.44a3.5,3.5,0,0,1-.39.38,2.29,2.29,0,0,0-.31,3.05,4,4,0,0,1,.46.77,5,5,0,0,1,.48,2.72,4.73,4.73,0,0,1-.36,1.48,7.18,7.18,0,0,1-.54.94c-.1.15-.22.29-.33.43a2.87,2.87,0,0,1-.39.39,2.26,2.26,0,0,0-.31,3,5.4,5.4,0,0,1,.46.77,5,5,0,0,1,.48,2.72,4.7,4.7,0,0,1-.38,1.45,4,4,0,0,1-.25.51,2.22,2.22,0,0,1-.29.46,4.12,4.12,0,0,1-.33.43,4.59,4.59,0,0,1-.37.39,2.26,2.26,0,0,0-.31,3.05,3.52,3.52,0,0,1,.45.77,5.08,5.08,0,0,1,.49,2.72,5.44,5.44,0,0,1-.38,1.45,5.28,5.28,0,0,1-.54,1,2.56,2.56,0,0,1-.34.44,4.38,4.38,0,0,1-.36.39,2.24,2.24,0,0,0-.31,3,6.15,6.15,0,0,1,.44.75,4.93,4.93,0,0,1,.48,2.73,4.73,4.73,0,0,1-.37,1.48,5.11,5.11,0,0,1-.54.94,1.53,1.53,0,0,1-.28.36,3.39,3.39,0,0,1-.41.44,2.28,2.28,0,0,0-.32,3.07,4.33,4.33,0,0,1,.44.75,5,5,0,0,1,.49,2.74,4.75,4.75,0,0,1-.37,1.46,5.1,5.1,0,0,1-1.25,1.76,2.32,2.32,0,0,0-.32,3.07,3.57,3.57,0,0,1,.46.77,5,5,0,0,1,.48,2.72,4.41,4.41,0,0,1-.36,1.45,5,5,0,0,1-1.25,1.77,2.26,2.26,0,0,0-.32,3,4.24,4.24,0,0,1,.46.77,5,5,0,0,1,.48,2.71,4.61,4.61,0,0,1-.38,1.48,3.07,3.07,0,0,1-.24.48,2.15,2.15,0,0,1-.3.48,5.35,5.35,0,0,1-.7.8,2.28,2.28,0,0,0-.31,3.05,3.63,3.63,0,0,1,.46.78,5,5,0,0,1,.48,2.71,5.07,5.07,0,0,1-.38,1.46,4.26,4.26,0,0,1-.54,1,2.55,2.55,0,0,1-.33.43,2.75,2.75,0,0,1-.37.39,2.24,2.24,0,0,0-.31,3.05,5.4,5.4,0,0,1,.46.77,5.32,5.32,0,0,1,.1,4.2,5.66,5.66,0,0,1-1.24,1.76,2.24,2.24,0,0,0-.31,3.05,6.38,6.38,0,0,1,.44.75,4.86,4.86,0,0,1,.48,2.73,4.73,4.73,0,0,1-.37,1.48,5.71,5.71,0,0,1-.53.94,1.91,1.91,0,0,1-.29.36,2.49,2.49,0,0,1-.41.45,2.26,2.26,0,0,0-.31,3.07,5.47,5.47,0,0,1,.44.75,5.31,5.31,0,0,1,.48,2.73,4.75,4.75,0,0,1-.37,1.46,4.55,4.55,0,0,1-.53.94c-.1.15-.22.29-.34.44a3.41,3.41,0,0,1-.38.38,2.29,2.29,0,0,0-.31,3.07,5.35,5.35,0,0,1,.45.77,5.1,5.1,0,0,1,.49,2.72,4.78,4.78,0,0,1-.39,1.46,3.58,3.58,0,0,1-.24.48,4.23,4.23,0,0,1-.63.89,3.33,3.33,0,0,1-.36.39,2.26,2.26,0,0,0-.31,3.05,4,4,0,0,1,.45.77,5.08,5.08,0,0,1,.49,2.72,5.59,5.59,0,0,1-.39,1.47,4.24,4.24,0,0,1-.54.95,2.88,2.88,0,0,1-.33.43,4.49,4.49,0,0,1-.36.39,2.25,2.25,0,0,0-.32,3,4.61,4.61,0,0,1,.46.77,5.18,5.18,0,0,1,.1,4.19,5.11,5.11,0,0,1-.54.94c-.1.15-.21.29-.33.44a4.51,4.51,0,0,1-.37.39,2.26,2.26,0,0,0-.31,3.05,4.65,4.65,0,0,1,.44.74,4.89,4.89,0,0,1,.48,2.74,4.73,4.73,0,0,1-.36,1.48,5.75,5.75,0,0,1-.54.94,4.46,4.46,0,0,1-.33.43,2.75,2.75,0,0,1-.37.39,2.25,2.25,0,0,0-.31,3.05,6.38,6.38,0,0,1,.44.75,5.25,5.25,0,0,1,.48,2.74,4.73,4.73,0,0,1-.37,1.48,6.15,6.15,0,0,1-.53.94c-.1.12-.19.23-.28.36a4.57,4.57,0,0,1-.44.44,2.32,2.32,0,0,0-.31,3.07,5.4,5.4,0,0,1,.46.77,5,5,0,0,1,.48,2.72,4.68,4.68,0,0,1-.36,1.45,5.07,5.07,0,0,1-1.26,1.77,2.28,2.28,0,0,0-.31,3.07,3.7,3.7,0,0,1,.45.77,4.94,4.94,0,0,1,.49,2.71,5.42,5.42,0,0,1-.39,1.46,2,2,0,0,1-.24.48,2.67,2.67,0,0,1-.29.48,6.54,6.54,0,0,1-.7.8,2.24,2.24,0,0,0-.31,3.05,4.28,4.28,0,0,1,.45.78,5.08,5.08,0,0,1,.49,2.71,5.56,5.56,0,0,1-.39,1.48,2.39,2.39,0,0,1-.24.48,2.73,2.73,0,0,1-.3.48,2.58,2.58,0,0,1-.33.41,2.69,2.69,0,0,1-.36.39,2.24,2.24,0,0,0-.31,3.05,5.35,5.35,0,0,1,.45.77,5.12,5.12,0,0,1,.47,2.72,4.8,4.8,0,0,1-.37,1.48,5.63,5.63,0,0,1-1.23,1.76,2.24,2.24,0,0,0-.31,3,5.59,5.59,0,0,1,.43.75,5.31,5.31,0,0,1,.49,2.73,4.73,4.73,0,0,1-.37,1.48,5.2,5.2,0,0,1-1.26,1.76,2.3,2.3,0,0,0-.31,3,4.32,4.32,0,0,1,.46.78,5,5,0,0,1,.48,2.71,4.73,4.73,0,0,1-.36,1.48,5.11,5.11,0,0,1-.54.94c-.09.13-.19.24-.28.36a4.57,4.57,0,0,1-.44.44,2.31,2.31,0,0,0-.31,3.07,4,4,0,0,1,.46.77,5,5,0,0,1,.48,2.72,6.3,6.3,0,0,1-.24,1.1h0s0,.05,0,.09-.14.34-.22.51a4.16,4.16,0,0,1-.23.42,5.34,5.34,0,0,1-.9,1.1,2.3,2.3,0,0,0-.31,3.07,5,5,0,0,1,.94,3.48,5.1,5.1,0,0,1-1.62,3.22,2.25,2.25,0,0,0-.31,3c.43.62,2.81,2.5,7.79,4.24a58.36,58.36,0,0,0,11.89,2.68,9,9,0,0,1,1.17,1.23h0c3,3.57,9.29,13,15.54,19.88a20.48,20.48,0,0,0,34.6,21.88c8.46,1.81,27.2,5.68,28.81,4.81,1.93-1,12.57-9.72,14-12.59,2.28.29,31,4,33,3.44s103.65-96.47,110.88-102.07c6.76-5.24,127-59.12,145.26-66.67a36.33,36.33,0,0,0,26.34,7.37c8.29,3.41,15.67,6.81,16.36,7.93,1.57,2.49,8.56,20.17,10.28,21.24a4.14,4.14,0,0,0,.76.37c2,.79,5.82,1.11,11,2.47a3,3,0,0,1,.58.24h0a9.79,9.79,0,0,1,1.43.87,11.82,11.82,0,0,1,1,.74c.84.68,1.78,1.52,2.79,2.52.12.11.26.25.38.38s.55.55.83.82.45.48.7.74.61.66.9,1c1.41,1.53,2.87,3.26,4.38,5.14.3.39.63.79.93,1.2s.77,1,1.17,1.52a2.83,2.83,0,0,0,.2.28l1.2,1.62c.22.33.47.66.71,1s.55.81.83,1.22c.91,1.29,1.77,2.6,2.63,4a.24.24,0,0,0,.06.11c1.74,2.8,3.41,5.7,4.92,8.67a.24.24,0,0,0,.06.11c.57,1.14,1.11,2.3,1.62,3.45s1,2.33,1.46,3.48c.25.66.48,1.31.72,2,.17.5.34,1,.5,1.49.09.25.15.51.24.76.22.75.44,1.51.62,2.24.15.54.26,1.07.39,1.6,0,.26.1.5.16.77.13.69.26,1.36.36,2.05a20.32,20.32,0,0,1,.25,2.17c.07.7.12,1.4.13,2.1,0,0,0,0,0,0v.06c0,.57,0,1.15,0,1.7-.87,22.57-14.93,50.33-31.45,55.92-40.85,13.82-80.24,67.1-82.35,70.88a6.78,6.78,0,0,0-.36.76v0a.43.43,0,0,0,0,.05v-.05a15.61,15.61,0,0,0-.62,2.36c0,.27-.1.54-.14.83s-.1.58-.14.89c-.08.53-.15,1.05-.22,1.62v0c-.65,5.58-.82,12.65-1.65,15-1.26,3.49-11.49,7.45-12.64,10.13a4.88,4.88,0,0,0-.27.8v0c0,.19-.11.38-.16.61s-.12.48-.18.77-.19.87-.27,1.36c-1.22,6.42-2.44,18.9.11,21.46,3.13,3.15,90.87,49.43,99.56,52.71a2.51,2.51,0,0,0,.6.18,38.72,38.72,0,0,0,7-.29c6.32-.65,14.62-2.19,17-4.31q.29-.27.57-.6l.17-.21a7.63,7.63,0,0,0,.49-.69c.07-.1.12-.21.18-.31s.22-.38.33-.58.13-.24.19-.37q.19-.43.39-.9c.05-.14.11-.28.16-.43s.2-.55.29-.84a3.38,3.38,0,0,0,.11-.34c.11-.37.22-.76.31-1.15a3.38,3.38,0,0,0,.08-.34c.1-.44.19-.89.27-1.36,0,0,0,0,0-.08.08-.48.14-1,.2-1.49,0,0,0-.07,0-.1q.09-.79.12-1.62V3303c0-.59,0-1.18,0-1.78,0-.3,0-.58,0-.88s0-.44-.06-.66a2,2,0,0,1,0-.25q-.08-.69-.18-1.38l-.06-.4c0-.22-.06-.43-.1-.65s-.11-.47-.17-.7l-.09-.37c-.1-.4-.21-.79-.33-1.18-.05-.17-.1-.34-.16-.51-.13-.39-.29-.78-.44-1.17-.06-.13-.11-.27-.16-.4a16.57,16.57,0,0,0-.76-1.52,14,14,0,0,1-.69-1.47c-.06-.15-.11-.29-.16-.44a11.46,11.46,0,0,1-.39-1.17c0-.14-.09-.29-.12-.43-.13-.48-.23-1-.32-1.47l0-.15c-.1-.58-.17-1.18-.22-1.78v-.1c0-.56-.07-1.12-.08-1.69v-.26c0-.57,0-1.14,0-1.71v-.08c.07-1.25.2-2.51.39-3.74v-.11c.09-.56.18-1.12.28-1.68a1.42,1.42,0,0,0,0-.2c.11-.58.22-1.15.34-1.7v0c.12-.55.24-1.08.37-1.61l.18-.72.15-.62c.1-.36.19-.72.29-1.07.15-.59.33-1.17.48-1.72.08-.31.17-.61.25-.88l.06-.22c.2-.71.39-1.36.55-1.92,1.49-5.48,40.59-51.51,47.27-56.32s16.47-3,21-9.06a4.8,4.8,0,0,0,.58-1l0-.08c.07-.15.13-.32.19-.47s.16-.38.22-.58,0-.15.07-.23a2.17,2.17,0,0,1,.07-.24c0-.06,0-.1,0-.16s.07-.36.11-.55.14-.64.19-1l.09-.55,0-.38c0-.42.09-.85.13-1.3v-.13c.06-.79.1-1.61.13-2.47h0c0-1.2.07-2.46.1-3.77,0-.39,0-.78,0-1.19s0-.83,0-1.24c0-.14,0-.27,0-.4l.06-1.22c0-.27,0-.54,0-.81l.09-1.26c0-.56.1-1.12.16-1.69l.09-.78c.06-.54.14-1.09.22-1.63,0-.18,0-.35.08-.53.11-.66.25-1.32.39-2,.06-.27.13-.55.2-.83.1-.43.22-.85.34-1.28.07-.26.14-.52.22-.79,0-.1.07-.2.1-.3.15-.49.33-1,.51-1.45s.29-.74.44-1.11c.27-.64.55-1.28.87-1.9,2.21-4.3,15.94-13.93,22-18,1.73-1.19,2.84-1.9,2.84-1.9s26.91,2.51,42.25,7.8a27.59,27.59,0,0,1,8.29,4.11,30.3,30.3,0,0,0,9,4.95,48,48,0,0,0,22.64,2.14c6.17-1,36.79-9.06,43.24-11.88,4.88-2.15,14.16-7.49,18.64-12.37l.06-.07q.28-.32.54-.63l.09-.11c.18-.21.34-.43.49-.64l0-.05c.17-.23.32-.47.46-.7h0c.12-.21.23-.42.33-.62l0-.06a2.26,2.26,0,0,1,2.2-1.37h.08l.64.06.18,0,.58.06.33,0,.56.06.36,0,.62.07.43,0,.95.1.13,0,1.2.12.63.07.62.07.73.08.77.09.67.07.7.08.91.1.47.05,1.88.21.88.1.54.06,1.16.13,1.33.15.41,0,1.17.13,1.25.15.61.06,1.3.15,7.09.82.36,0,1.29.15,1.6.19.81.09,1.27.15,1.66.19.45.05,1.88.22,2.12.25,4.89.57,1.16.14,1.82.21.82.1,1.69.2,1.9.22,1.11.13,3.08.36-.93-3.58,21.58,2.57.93,3.57,26.71,3.18-.92-3.56,21.59,2.57.93,3.57c31.61,3.78,67,8,103.59,12.46l-1-3.69,21.6,2.57,1,3.75,26.72,3.23-1-3.79,21.6,2.57,1,3.85,25.38,3.06-1-3.89,21.6,2.58,1,3.93,26.72,3.26-1-4,21.6,2.57,1.06,4.06c37.59,4.57,72.35,8.79,101.29,12.33l-1.13-4.33,21.6,2.58,1.14,4.37c10,1.22,18.94,2.32,26.73,3.26l-1.16-4.45,21.61,2.57,1.18,4.52,11.85,1.46,3.52,4.09,19.92,2.55,17.76-24.87,26.45,3.38.35-2.75a2.82,2.82,0,0,1,3.16-2.45l2.19.28a2.83,2.83,0,0,1,2.44,3.17l-.35,2.75,15.59,2,.36-2.75a2.82,2.82,0,0,1,3.16-2.45l2.18.28a2.83,2.83,0,0,1,2.45,3.17l-.35,2.74,15.59,2,.35-2.75a2.84,2.84,0,0,1,3.17-2.45l2.18.28a2.83,2.83,0,0,1,2.45,3.17l-.35,2.74,15.59,2,.35-2.75a2.84,2.84,0,0,1,3.17-2.45l2.18.28a2.82,2.82,0,0,1,2.45,3.16l-.35,2.75,15.59,2,.35-2.74a2.84,2.84,0,0,1,3.17-2.45l2.18.28a2.82,2.82,0,0,1,2.45,3.16l-.35,2.75,39.95,5.11-.18-19.66.12,0c11.85,1.51,12.49-3.5,14.15-5.49s9.28-43.06,9-51.06a5.22,5.22,0,0,0-.08-.92c-1.06-4.89-.61-13.82,1.8-16.74a7.84,7.84,0,0,0,1.06-2,53.79,53.79,0,0,0,2.08-9.35c3.81,1.1,10.37,2.46,17.58,3.76,11.32,2,24.19,4,30.41,4.63a21.06,21.06,0,0,0,.27,3.87,2,2,0,0,0,1.7,1.56l20.07,2.57c.93,6.45,2.37,11.51,4.26,14.74a3.07,3.07,0,0,0,.17.31s0,0,0,.06a7.46,7.46,0,0,0,3.71,3.4,4.17,4.17,0,0,0,.85.19h0l12.85,1.65h0l227.31,29a14.53,14.53,0,0,0,3,0,15.06,15.06,0,0,0,10.64-5.55c.89-1.11,1.86-2.38,2.86-3.78l.13-.18c.44-.62.9-1.28,1.36-2l.34-.51q.6-.88,1.2-1.83l.46-.74c.37-.59.74-1.2,1.11-1.82l.53-.91c.35-.61.71-1.23,1.06-1.87q.29-.51.57-1.05c.34-.63.68-1.28,1-1.94.2-.39.4-.77.59-1.16l1-2.07.58-1.24c.33-.73.65-1.48,1-2.24l.54-1.27c.34-.82.67-1.66,1-2.51.16-.41.32-.79.47-1.2q.57-1.53,1.11-3.12c.09-.27.19-.53.28-.8q1.37-4.08,2.51-8.58c.09-.36.17-.74.26-1.11.28-1.14.55-2.28.8-3.47.11-.51.21-1,.31-1.56.17-.84.34-1.65.5-2.5h0c.38-2.09.73-4.23,1-6.45A129.18,129.18,0,0,0,3043.19,3045Zm-232-27.74c-1.84-5.75-4.06-8.49-5.47-9.73C2807.15,3008.79,2809.36,3011.52,2811.21,3017.28Zm.13.41c0-.09-.06-.18-.08-.26C2811.28,3017.51,2811.31,3017.6,2811.34,3017.69Zm-5.7-10.23-.11-.09Zm-3.39,112.69c-1,2.74-2.08,5.11-3.1,7.16v0c-.16.32-.32.64-.48.94l-.09.18-.4.74c-.05.09-.09.18-.14.26s-.23.41-.34.61a3.37,3.37,0,0,1-.19.32c-.09.17-.19.34-.29.5s-.05.09-.07.13A69,69,0,0,0,2802.25,3120.15Zm.07-.19c0,.06-.05.12-.07.17S2802.29,3120,2802.32,3120Zm-5.58,11.7-.09.14c.16-.25.32-.51.47-.77l-.12.21Zm-.46.73-.11.16.45-.7-.12.19Zm-.46.69-.13.18c.15-.21.29-.43.44-.65l-.12.18Zm-.45.64-.15.21c.14-.2.29-.4.43-.61l-.12.17Zm-.43.6-.18.23.42-.57-.12.17Zm-.42.55-.22.27.42-.53-.12.15A.76.76,0,0,0,2794.52,3134.87Zm-.41.51-.26.31c.14-.16.27-.33.41-.5a1.34,1.34,0,0,1-.11.14Zm-1408-363c82-9.64,193.52,13.47,228.83,17a4.71,4.71,0,0,0,.92,0l.34-.06c.18,0,.36-.07.53-.12l.38-.14.45-.2.37-.22.42-.28c.12-.09.23-.19.34-.29l.4-.37c.11-.1.21-.22.32-.33s.26-.3.38-.46.19-.24.28-.37.26-.37.39-.57.16-.24.23-.37.27-.47.39-.71l.19-.35c.15-.29.29-.6.42-.92l.1-.22.09-.21,38,4.85c.06,2.36.22,4.36.42,6a8.53,8.53,0,0,0,7.41,7.43l31.18,4c0-.16,0-.34-.05-.5a108.85,108.85,0,0,0,11.34,37.6,31.66,31.66,0,0,0,24,16.66l197.31,23.28c-.08,1.68.61,4,1.94,4.28,1.76.34,9.78,0,12.35,1,2.18.85,10.89,8,14.73,10.68l-8.1-.82-.69,5.31-5.82-.74,0-.26a2.21,2.21,0,0,0-1.92-2.48l-5.2-.67a2.23,2.23,0,0,0-2.25,1.19l-19.91-2.54a2.2,2.2,0,0,0-1.88-1.72l-5.2-.66a2.21,2.21,0,0,0-2.48,1.92l0,.25-5.28-.67.47-4.25-16.79-1.93-1,7.64a1.61,1.61,0,0,1-1.82,1.41l-8.34-1.06a1.64,1.64,0,0,1-1.43-1.83l.95-7.48-10.3-1.18-.94,7.35a1.65,1.65,0,0,1-1.85,1.4l-8.34-1.06a1.63,1.63,0,0,1-1.41-1.83l.92-7.21-11.36-1.29-.9,7.05a1.64,1.64,0,0,1-1.83,1.42l-8.34-1.07a1.64,1.64,0,0,1-1.43-1.83l.88-6.92-10.3-1.18-.87,6.79a1.66,1.66,0,0,1-1.85,1.41l-8.34-1.07a1.63,1.63,0,0,1-1.41-1.82l.85-6.63-9.16-1.05-.83,6.51a1.63,1.63,0,0,1-1.82,1.41l-8.35-1.07a1.63,1.63,0,0,1-1.41-1.82l.82-6.37-10.33-1.19-.8,6.24a1.64,1.64,0,0,1-1.84,1.41l-8.34-1.07a1.61,1.61,0,0,1-1.41-1.82l.77-6.08-11.36-1.31-.76,5.94a1.62,1.62,0,0,1-1.82,1.41l-8.34-1.06a1.63,1.63,0,0,1-1.41-1.83l.73-5.79-10.32-1.18-.73,5.65a1.63,1.63,0,0,1-1.84,1.41l-8.34-1.06a1.63,1.63,0,0,1-1.41-1.83l.7-5.51-31.43-3.6-3.41,4.81s-199-22.48-248.25-25.22-87.56,9.35-80.71,12l3.2,1.23,3.21,1.26c-34.55-4.33-56.39-7.14-57-7.4-2.27-1.11-7.33-13.41-12.08-18.07l0,0c.11-.84.23-1.68.37-2.51C1299.86,2795,1337.89,2778.07,1386.08,2772.4Zm315.41-18.08c-.06.33-.13.64-.19,1,.18-.93.36-1.84.54-2.74-.08.41-.16.85-.25,1.27C1701.56,2754,1701.53,2754.15,1701.49,2754.32Zm-.47,2.5,0,.17c-.08.45-.16.89-.24,1.36.15-.91.32-1.81.48-2.69Zm1047,338.9a2,2,0,0,0-2,1.08,16,16,0,0,0-.85,2.28c-9.27-1.39-26-4.68-35.23-6.77a17.54,17.54,0,0,0,4.42-4.66c13.12,2.85,30.51,6,44.55,9.46ZM1274.81,2967.53l133.29,18a5,5,0,0,1,1.11.28,5.27,5.27,0,0,1,2.6,2.13l3,4.94a10,10,0,0,0,5.67,4.43h0l13.55,4.23a10.25,10.25,0,0,0,2.26.43h0l.7.2.62-.15h0a10,10,0,0,0,2.11-.26l.64-.16,21.84-5a.93.93,0,0,1,.65.08,1,1,0,0,1,.2,1.56h0a.64.64,0,0,1-.24.17l-77.76,35.88a6.52,6.52,0,0,1-5.76-.18l-107.31-58a4.58,4.58,0,0,1,2.78-8.59Zm730-76.36c-6.71,1.18-33-1-35.85-1.94a26,26,0,0,1-4.64-2.84l40.49,4.78ZM1698,2795a2.44,2.44,0,0,0,0-.27c0,.92.09,1.82.15,2.72,0-.31-.05-.6-.07-.91C1698.05,2796,1698,2795.46,1698,2795Zm-.13-4.68c0-.22,0-.44,0-.65,0,.8,0,1.61,0,2.41,0-.18,0-.35,0-.52C1697.88,2791.1,1697.88,2790.68,1697.87,2790.27Zm.45,9.68c.06.78.14,1.54.21,2.31,0-.4-.09-.79-.12-1.19S1698.35,2800.32,1698.32,2800Zm-.24-19.18c.07-1.33.17-2.68.28-4.05C1698.25,2778.09,1698.15,2779.44,1698.08,2780.77Zm-.18,5.16v-.38h0c0-1,0-2,.09-3C1698,2783.71,1697.92,2784.82,1697.9,2785.93Zm-406.36,49.3,0,0Zm-.66-.34-.15-.06Zm-44.94,146.24,15.38,8.11-.45-.25,101.1,53.24a4.74,4.74,0,0,1,1.12,7.57l-85.45,83.63a6,6,0,0,1-5,1.67l-54.54-7a4.31,4.31,0,0,1-3.67-5.09l27.26-139.87A3,3,0,0,1,1245.94,2981.13Zm540.14,166.38c-.83-.39-2.13-1.05-3.73-2-.34-.18-.67-.38-1-.58-1-.61-2.17-1.31-3.36-2.09-.78-.52-1.6-1.1-2.43-1.7s-1.58-1.17-2.39-1.81c-.54-.43-1.09-.89-1.65-1.36l-1-.9c-.36-.33-.73-.65-1.08-1-6.72-6.33-12.52-15-11.4-25.67a34.32,34.32,0,0,1,2.18-9v0c.2-.48.4-1,.6-1.46a25.92,25.92,0,0,1,1.21-2.48c.46-.84.94-1.67,1.44-2.45.25-.39.5-.79.76-1.15q1.05-1.47,2.16-2.82c.26-.3.52-.61.79-.91a37.08,37.08,0,0,1,2.64-2.67,5.9,5.9,0,0,1,.74-.68c.83-.73,1.65-1.41,2.48-2,.6-.46,1.21-.9,1.79-1.3l1.08-.71c.35-.21.67-.41,1-.6,1.08-.66,2.1-1.2,3-1.66.52-.25,1-.46,1.49-.66.31-.12.6-.24.89-.34l.73-.24a10,10,0,0,1,1.8-.45c2.32-.33,14,.68,26.94,2-3.62,18-9.85,43.21-12.25,52.75a4.42,4.42,0,0,0,2.43,5.08,4,4,0,0,0,.52.21.32.32,0,0,0,.09,0c8.74,2.53,14.4-.31,16.84-2a4.33,4.33,0,0,0,1.69-2.6l11.53-51.21c8.48.94,15.51,1.76,18.37,2.1a5.78,5.78,0,0,1,1.08.24,4.48,4.48,0,0,1,.52.16c.21.07.39.15.62.24a19.92,19.92,0,0,1,5.14,3.17c.2.17.37.33.57.49a26.7,26.7,0,0,1,7.56,11.52c.13.38.26.77.37,1.18a10.09,10.09,0,0,1,.34,1.31,8.21,8.21,0,0,1,.31,1.37,13.16,13.16,0,0,1,.25,1.42,23.57,23.57,0,0,1,.33,3v0a40.8,40.8,0,0,1-.26,8.09,34.24,34.24,0,0,1-9.26,19.82l-.08.06h0a.31.31,0,0,0-.09.11c-.43.42-.84.84-1.29,1.24s-.94.87-1.43,1.28c-.33.3-.71.58-1.08.87a12.25,12.25,0,0,1-1,.77c-.68.5-1.38,1-2.07,1.44a11.42,11.42,0,0,1-1,.65c-.71.45-1.42.87-2.14,1.25-1.09.6-2.19,1.15-3.3,1.66l-1.12.49c-.34.16-.68.29-1,.43l-1.3.52-1,.37-1,.35c-.86.29-1.71.57-2.55.83l-.9.28c-.35.11-.72.2-1.07.3s-.72.2-1.06.28c-1.07.27-2.11.52-3.13.74-.34.08-.67.16-1,.21-2.64.56-5.09.92-7.12,1.17-.52.08-1,.13-1.45.18l-.68.07-1.2.12-1,.1c-.24,0-.46,0-.66.06s-.6,0-.82.07l-.22,0a.44.44,0,0,0-.18,0c-3.1.53-8.66,4.68-15.52,3.13-.24-.06-.49-.13-.75-.22C1796.37,3154.62,1791,3149.88,1786.08,3147.51Zm1014.27-79.21c-.2,1.91-.42,3.83-.67,5.78l.06-.51c.21-1.65.39-3.29.57-4.92C2800.32,3068.53,2800.34,3068.42,2800.35,3068.3Zm-6.53,67.43-.42.49Zm-.43.5a19.43,19.43,0,0,1-3.1,2.86A19.43,19.43,0,0,0,2793.39,3136.23Zm-267.76-148.29-.06.19Zm-27.28-3.49c0,.07,0,.13-.07.2A1.59,1.59,0,0,0,2498.35,2984.45Zm-28.09-3.59a1.07,1.07,0,0,1-.07.19A1.07,1.07,0,0,0,2470.26,2980.86Zm-27.29-3.49a1.52,1.52,0,0,1-.06.2Zm-27.28-3.48-.07.19A1.46,1.46,0,0,0,2415.69,2973.89Zm-27.29-3.49a1.59,1.59,0,0,1-.07.2A1.59,1.59,0,0,0,2388.4,2970.4Zm-27.29-3.48-.06.19Zm-164.39-40-149.39-16.41-1.52-1.41c50.64,5.56,112.63,12.13,151.18,15.67Zm-494.52-176c0,.26-.11.51-.17.77s-.09.45-.14.68c.19-.94.39-1.87.6-2.78C1702.39,2750,1702.3,2750.44,1702.2,2750.88Zm-2.6,14.74c-.16,1.14-.32,2.3-.47,3.48q-.37,3-.63,5.88.26-2.88.63-5.88C1699.28,2767.92,1699.44,2766.76,1699.6,2765.62Zm1.05-6.74c-.14.86-.29,1.74-.43,2.63C1700.36,2760.62,1700.51,2759.74,1700.65,2758.88Zm-.54,3.32c-.13.86-.26,1.74-.39,2.62C1699.85,2763.93,1700,2763.06,1700.11,2762.2Zm-444.84,68.62-1.66-.18Zm1532,309.74h0Zm3-1.47-.32.22Zm-.36.24-.27.18C2789.75,3139.45,2789.84,3139.4,2789.93,3139.33Zm-.32.21-.24.15Zm-.3.18-.21.12Zm-.28.16-.19.1Zm-.26.13-.17.09Zm-.24.12-.16.07Zm-.22.1-.14.05Zm-.21.08-.12.05Zm-.18.07-.12,0Zm-.16,0-.1,0Zm-.15.05-.09,0Zm-.12,0-.08,0Zm-.1,0-.07,0Zm-.08,0h0Z"/>
<path class="cls-2" d="m1836 3068.4-14.81 65.78a4.33 4.33 0 0 1-1.69 2.6c-2.44 1.73-8.1 4.57-16.84 2a4.41 4.41 0 0 1-3-5.32c3.35-13.34 14.22-57.3 14.93-69.43 0.75-14.32 21.41 4.37 21.41 4.37z"/>
<path class="cls-3" d="m1801.8 3138.4a3.21 3.21 0 0 0 0.87 0.37c8.73 2.52 14.4-0.32 16.82-2.05a4.32 4.32 0 0 0 1.7-2.59l14.8-65.78s-15-13.6-19.93-8.67a64 64 0 0 1 10.18 7.43l-14.8 65.77a4.3 4.3 0 0 1-1.7 2.6 16.61 16.61 0 0 1-7.94 2.92z"/>
<rect class="cls-3" transform="translate(4029 6109) rotate(187.28)" x="2196.9" y="2919.9" width="23.9" height="12.74"/>
<polygon class="cls-4" points="2449.7 3200.3 1918.6 3137 1898.7 3039.1 2435.9 3103.4"/>
<path class="cls-5" d="M1161.86,2823.7a2.23,2.23,0,0,0,1.13,2.13,4.12,4.12,0,0,1,.6.43,3.74,3.74,0,0,1,.53.52,5,5,0,0,1,.82,1.2v0a4.91,4.91,0,0,1,.49,2.71,4.73,4.73,0,0,1-.37,1.48,5.18,5.18,0,0,1-1.25,1.76,2.26,2.26,0,0,0-.31,3.05,5,5,0,0,1,.45.78,5.08,5.08,0,0,1,.49,2.71,5.42,5.42,0,0,1-.39,1.46,3.91,3.91,0,0,1-.54,1,2.12,2.12,0,0,1-.33.43,3.39,3.39,0,0,1-.36.39,2.27,2.27,0,0,0-.32,3.05,3.57,3.57,0,0,1,.46.77,5.13,5.13,0,0,1,.49,2.72,5.42,5.42,0,0,1-.39,1.46,4.1,4.1,0,0,1-.54,1,3.29,3.29,0,0,1-.33.41,3.33,3.33,0,0,1-.36.39,2.28,2.28,0,0,0-.32,3.07,4.33,4.33,0,0,1,.44.75,4.86,4.86,0,0,1,.48,2.73,4.47,4.47,0,0,1-.36,1.46,4.24,4.24,0,0,1-.54.95,2.47,2.47,0,0,1-.33.43,3.41,3.41,0,0,1-.37.39,2.27,2.27,0,0,0-.31,3.07,4,4,0,0,1,.44.75,4.86,4.86,0,0,1,.48,2.73,4.74,4.74,0,0,1-.36,1.46,4.17,4.17,0,0,1-.54.94c-.1.15-.21.29-.33.44a3.5,3.5,0,0,1-.39.38,2.29,2.29,0,0,0-.31,3.05,4,4,0,0,1,.46.77,5,5,0,0,1,.48,2.72,4.73,4.73,0,0,1-.36,1.48,7.18,7.18,0,0,1-.54.94c-.1.15-.22.29-.33.43a2.87,2.87,0,0,1-.39.39,2.26,2.26,0,0,0-.31,3,5.4,5.4,0,0,1,.46.77,5,5,0,0,1,.48,2.72,4.7,4.7,0,0,1-.38,1.45,3.44,3.44,0,0,1-.25.51,2.22,2.22,0,0,1-.29.46,4.12,4.12,0,0,1-.33.43,4.59,4.59,0,0,1-.37.39,2.26,2.26,0,0,0-.31,3.05,3.52,3.52,0,0,1,.45.77,5.08,5.08,0,0,1,.49,2.72,5.84,5.84,0,0,1-.38,1.45,5.28,5.28,0,0,1-.54,1,2.56,2.56,0,0,1-.34.44,4.38,4.38,0,0,1-.36.39,2.24,2.24,0,0,0-.31,3,7,7,0,0,1,.44.75,4.93,4.93,0,0,1,.48,2.73,4.73,4.73,0,0,1-.37,1.48,5.11,5.11,0,0,1-.54.94,1.53,1.53,0,0,1-.28.36,3.39,3.39,0,0,1-.41.44,2.28,2.28,0,0,0-.32,3.07,4.33,4.33,0,0,1,.44.75,5,5,0,0,1,.49,2.74,4.75,4.75,0,0,1-.37,1.46,5.1,5.1,0,0,1-1.25,1.76,2.32,2.32,0,0,0-.32,3.07,3.57,3.57,0,0,1,.46.77,5,5,0,0,1,.48,2.72,4.54,4.54,0,0,1-.36,1.46,5.1,5.1,0,0,1-1.25,1.76,2.27,2.27,0,0,0-.32,3,4.24,4.24,0,0,1,.46.77,5.08,5.08,0,0,1,.49,2.71,4.9,4.9,0,0,1-.39,1.48,3.07,3.07,0,0,1-.24.48,2.15,2.15,0,0,1-.3.48,5.35,5.35,0,0,1-.7.8,2.28,2.28,0,0,0-.31,3.05,3.63,3.63,0,0,1,.46.78,5,5,0,0,1,.48,2.71,5.07,5.07,0,0,1-.38,1.46,4.26,4.26,0,0,1-.54,1,2.55,2.55,0,0,1-.33.43,2.75,2.75,0,0,1-.37.39,2.24,2.24,0,0,0-.31,3.05,5.4,5.4,0,0,1,.46.77,5.12,5.12,0,0,1,.46,2.72,5,5,0,0,1-.36,1.48,5.66,5.66,0,0,1-1.24,1.76,2.24,2.24,0,0,0-.31,3.05,6.38,6.38,0,0,1,.44.75,4.86,4.86,0,0,1,.48,2.73,4.73,4.73,0,0,1-.37,1.48,5.71,5.71,0,0,1-.53.94,1.91,1.91,0,0,1-.29.36,2.49,2.49,0,0,1-.41.45,2.26,2.26,0,0,0-.31,3.07,5.47,5.47,0,0,1,.44.75,5.31,5.31,0,0,1,.48,2.73,4.75,4.75,0,0,1-.37,1.46,4.55,4.55,0,0,1-.53.94c-.1.15-.22.29-.34.44a3.41,3.41,0,0,1-.38.38,2.29,2.29,0,0,0-.31,3.07,5.35,5.35,0,0,1,.45.77,5.1,5.1,0,0,1,.49,2.72,4.78,4.78,0,0,1-.39,1.46,3.58,3.58,0,0,1-.24.48,4.23,4.23,0,0,1-.63.89,3.33,3.33,0,0,1-.36.39,2.26,2.26,0,0,0-.31,3.05,4,4,0,0,1,.45.77,5.08,5.08,0,0,1,.49,2.72,5.59,5.59,0,0,1-.39,1.47,4.24,4.24,0,0,1-.54.95,2.88,2.88,0,0,1-.33.43,4.49,4.49,0,0,1-.36.39,2.25,2.25,0,0,0-.32,3,4.61,4.61,0,0,1,.46.77,5.05,5.05,0,0,1,.47,2.71,4.73,4.73,0,0,1-.37,1.48,5.11,5.11,0,0,1-.54.94c-.1.15-.21.29-.33.44a4.51,4.51,0,0,1-.37.39,2.26,2.26,0,0,0-.31,3.05,4.33,4.33,0,0,1,.44.75,4.84,4.84,0,0,1,.48,2.73,4.73,4.73,0,0,1-.36,1.48,5.75,5.75,0,0,1-.54.94,4.46,4.46,0,0,1-.33.43,2.75,2.75,0,0,1-.37.39,2.25,2.25,0,0,0-.31,3.05,6.38,6.38,0,0,1,.44.75,5.25,5.25,0,0,1,.48,2.74,5,5,0,0,1-.36,1.48,7.18,7.18,0,0,1-.54.94c-.1.12-.19.23-.28.36a4.57,4.57,0,0,1-.44.44,2.32,2.32,0,0,0-.31,3.07,5.4,5.4,0,0,1,.46.77,5,5,0,0,1,.48,2.72,4.68,4.68,0,0,1-.36,1.45,5.07,5.07,0,0,1-1.26,1.77,2.28,2.28,0,0,0-.31,3.07,3.7,3.7,0,0,1,.45.77,4.94,4.94,0,0,1,.49,2.71,5.42,5.42,0,0,1-.39,1.46,2,2,0,0,1-.24.48,2.67,2.67,0,0,1-.29.48,6.54,6.54,0,0,1-.7.8,2.24,2.24,0,0,0-.31,3.05,4.28,4.28,0,0,1,.45.78,5.08,5.08,0,0,1,.49,2.71,5.56,5.56,0,0,1-.39,1.48,2.39,2.39,0,0,1-.24.48,2.73,2.73,0,0,1-.3.48,2.58,2.58,0,0,1-.33.41,2.69,2.69,0,0,1-.36.39,2.24,2.24,0,0,0-.31,3.05,5.35,5.35,0,0,1,.45.77,5.12,5.12,0,0,1,.47,2.72,4.8,4.8,0,0,1-.37,1.48,5.63,5.63,0,0,1-1.23,1.76,2.25,2.25,0,0,0-.32,3,4.74,4.74,0,0,1,.44.75,5.31,5.31,0,0,1,.49,2.73,4.73,4.73,0,0,1-.37,1.48,5.07,5.07,0,0,1-1.26,1.76,2.3,2.3,0,0,0-.31,3,4.32,4.32,0,0,1,.46.78,5,5,0,0,1,.48,2.71,4.73,4.73,0,0,1-.36,1.48,5.11,5.11,0,0,1-.54.94c-.09.13-.19.24-.28.36a4.57,4.57,0,0,1-.44.44,2.31,2.31,0,0,0-.31,3.07,4,4,0,0,1,.46.77,5,5,0,0,1,.48,2.72,6.3,6.3,0,0,1-.24,1.1s0,.05,0,.09-.14.34-.22.51l-.23.43a5.28,5.28,0,0,1-.9,1.09,2.3,2.3,0,0,0-.31,3.07,5,5,0,0,1,.94,3.49,5.13,5.13,0,0,1-1.62,3.22,2.24,2.24,0,0,0-.31,3.05c.69,1,6.37,5.21,19.68,6.91,2.34,1.84,11.31,16.12,19.34,23.82-2.87,16.38,6.24,21.66,12.07,22.41s14.11-1.55,16.23-4c3.79.84,30.54,6.65,32.48,5.61s12.57-9.72,14-12.59c2.28.29,31,4,33,3.44s103.65-96.47,110.88-102.07,144.48-66.93,147.53-67.55,38.88,13.66,40.44,16.18,8.56,20.17,10.28,21.24,5.84,1.28,11.72,2.85a2.46,2.46,0,0,1,.59.23h0a9.61,9.61,0,0,1,1.43.88c.31.22.63.46,1,.73a34.11,34.11,0,0,1,2.78,2.52,3.59,3.59,0,0,1,.39.39c.27.25.55.52.83.81s.45.48.69.75.62.63.91,1c1.41,1.53,2.87,3.26,4.37,5.14.31.37.63.79.94,1.21s.78,1,1.17,1.51c.05.09.14.2.2.29.41.53.82,1.07,1.2,1.62.22.32.47.65.71,1s.57.8.83,1.21c.91,1.29,1.77,2.61,2.63,4,0,.05,0,.09.06.11,1.77,2.78,3.43,5.71,4.92,8.67a.17.17,0,0,0,.06.11c.57,1.14,1.11,2.3,1.62,3.45s1,2.33,1.46,3.48c.25.67.5,1.31.72,2,.19.5.34,1,.5,1.49.09.25.15.52.24.77.24.74.44,1.5.62,2.24q.23.8.39,1.59c0,.26.1.51.16.77.15.7.26,1.38.35,2.05a20.36,20.36,0,0,1,.26,2.17,18.64,18.64,0,0,1,.13,2.1v0c0,.58,0,1.15,0,1.7-.87,22.57-14.93,50.33-31.45,55.92-40.85,13.82-80.24,67.1-82.35,70.88a6.78,6.78,0,0,0-.36.76v0a15.61,15.61,0,0,0-.62,2.36c0,.27-.11.56-.14.83s-.1.58-.14.9c-.08.52-.15,1.05-.22,1.61v0c-.65,5.58-.82,12.65-1.65,15-1.26,3.49-11.49,7.45-12.64,10.13a4.88,4.88,0,0,0-.27.8c0,.2-.1.38-.15.62s-.12.48-.18.77-.19.86-.27,1.35c-1.22,6.42-2.44,18.9.11,21.46,3.23,3.25,96.56,52.44,100.15,52.89a38.72,38.72,0,0,0,7-.29c6.32-.65,14.62-2.19,17-4.31,2.28-2,4.06-7.45,3.91-13.25,0-.3,0-.58,0-.88a27.22,27.22,0,0,0-.42-3.34,20.29,20.29,0,0,0-2.11-5.85c-3.57-6.42-1.67-15.77.09-22.22.15-.59.33-1.17.48-1.72.08-.31.17-.61.25-.88s.22-.78.32-1.15.21-.68.29-1c1.49-5.48,40.59-51.51,47.27-56.32s16.47-3,21-9.06a4.8,4.8,0,0,0,.58-1,8.85,8.85,0,0,0,.44-1.13,4.73,4.73,0,0,0,.18-.63,9.21,9.21,0,0,0,.27-1.35,6.33,6.33,0,0,0,.12-.74c.07-.57.12-1.13.16-1.74.13-1.61.16-3.41.21-5.32,0-.76,0-1.53,0-2.31,0-.5,0-1,.06-1.52a49.59,49.59,0,0,1,1.89-12.8c.07-.24.14-.47.23-.72s.23-.68.37-1a25.39,25.39,0,0,1,1.32-3c2.21-4.3,15.94-13.93,22-18,1.73-1.19,2.84-1.9,2.84-1.9s40.77,3.8,50.55,11.91c8.13,6.74,22.09,8.66,31.66,7.09,6.17-1,36.79-9.06,43.24-11.88s20.44-11.16,21.15-16.73c.42-.19,22.93,2.37,58.84,6.6l-4.25-16.33-14.59-55.9a10.13,10.13,0,0,1,3.36-10.36,9.13,9.13,0,0,1,1.88-1.21,6.6,6.6,0,0,1,.89-.42.13.13,0,0,0,.08,0c.33-.12.68-.23,1-.33a10.16,10.16,0,0,1,12.37,7.25l20.81,79.89,26.71,3.18-4.25-16.33-14.45-55.45a10.07,10.07,0,0,1,3.37-10.37,5.76,5.76,0,0,1,.7-.52,8,8,0,0,1,1.09-.65,7.7,7.7,0,0,1,1-.45l.08,0c.34-.12.69-.23,1-.33a10.12,10.12,0,0,1,12.34,7.25l20.71,79.46c31.61,3.78,67,8,103.59,12.46l-4.25-16.33-15.81-60.61a10.14,10.14,0,0,1,3.37-10.37,9,9,0,0,1,1.88-1.2,4.45,4.45,0,0,1,.88-.42l.08,0c.34-.12.69-.23,1-.33a10.14,10.14,0,0,1,12.36,7.25l22.07,84.67,26.72,3.23-4.25-16.35h0l-15.69-60.26a10.07,10.07,0,0,1,3.36-10.37,6.66,6.66,0,0,1,.7-.52,8.21,8.21,0,0,1,1.1-.66c.32-.17.63-.31,1-.45,0,0,.06,0,.08,0,.33-.12.68-.23,1-.33a10.12,10.12,0,0,1,12.35,7.24l22,84.35,25.38,3.06-4.25-16.35h0l-15.61-59.94a10.11,10.11,0,0,1,3.36-10.36,9.28,9.28,0,0,1,1.88-1.21,6.47,6.47,0,0,1,.88-.42.16.16,0,0,0,.09,0c.33-.12.68-.23,1-.32a10.14,10.14,0,0,1,12.37,7.24l21.89,84,26.72,3.26-4.25-16.35-15.54-59.63a10.08,10.08,0,0,1,3.35-10.37,1.07,1.07,0,0,1,.19-.13,2.92,2.92,0,0,1,.48-.37,6.94,6.94,0,0,1,1.14-.67,7.1,7.1,0,0,1,1-.45l.08,0c.33-.12.68-.23,1-.33a10.14,10.14,0,0,1,12.35,7.25l21.81,83.7c37.59,4.57,72.35,8.79,101.29,12.33l-4.27-16.35-15.34-58.85a10.13,10.13,0,0,1,3.37-10.37,9,9,0,0,1,1.88-1.2,5.13,5.13,0,0,1,.88-.43s.06,0,.08,0l1-.32a10.14,10.14,0,0,1,12.36,7.25l21.61,82.92c10,1.22,18.94,2.32,26.73,3.26l-4.25-16.35h0l-15.24-58.54a10.12,10.12,0,0,1,19.59-5.11l21.55,82.64,11.85,1.46,3.52,4.09,19.92,2.55,17.76-24.87,26.45,3.38.35-2.75a2.82,2.82,0,0,1,3.16-2.45l2.19.28a2.83,2.83,0,0,1,2.44,3.17l-.35,2.75,15.6,2,.35-2.75a2.82,2.82,0,0,1,3.16-2.45l2.18.28a2.83,2.83,0,0,1,2.45,3.17l-.35,2.74,15.59,2,.35-2.75a2.84,2.84,0,0,1,3.17-2.45l2.18.28a2.83,2.83,0,0,1,2.45,3.17l-.35,2.74,15.59,2,.35-2.75a2.84,2.84,0,0,1,3.17-2.45l2.18.28a2.82,2.82,0,0,1,2.45,3.16l-.35,2.75,15.59,2,.35-2.74a2.84,2.84,0,0,1,3.17-2.45l2.18.28a2.83,2.83,0,0,1,2.45,3.16l-.35,2.75,39.95,5.11-.35-38.52-25.61-147.89-801-102.12s-532.41-64.66-535.18-66-9.6-19.14-15-19.83-100.63-11-105.54-11.19c-1,0-14.21-1.18-18.76-1.58l-1.54-.12A2.15,2.15,0,0,0,1161.86,2823.7Zm607.57,312.41c-6.72-6.33-12.53-15-11.4-25.67a34.32,34.32,0,0,1,2.18-9v0c.2-.48.4-1,.6-1.46a25.92,25.92,0,0,1,1.21-2.48c.46-.84.94-1.67,1.44-2.45.25-.39.5-.79.76-1.15q1.05-1.47,2.16-2.82c.26-.3.52-.61.79-.91a37.08,37.08,0,0,1,2.64-2.67,5.9,5.9,0,0,1,.74-.68c.83-.73,1.65-1.41,2.48-2,.6-.46,1.21-.9,1.79-1.3l1.08-.71c.35-.21.67-.41,1-.6,1.08-.66,2.1-1.2,3-1.66.52-.25,1-.46,1.49-.66.31-.12.6-.24.89-.34l.73-.24a10,10,0,0,1,1.8-.45c5.2-.74,57,5.23,66.16,6.32a5.78,5.78,0,0,1,1.08.24,4.48,4.48,0,0,1,.52.16c.21.07.39.15.62.24a19.92,19.92,0,0,1,5.14,3.17l.57.49a26.61,26.61,0,0,1,7.56,11.52c.13.38.26.77.37,1.18a10.09,10.09,0,0,1,.34,1.31,8.21,8.21,0,0,1,.31,1.37,13.16,13.16,0,0,1,.25,1.42,21.88,21.88,0,0,1,.33,3v0a40.8,40.8,0,0,1-.26,8.09,34.17,34.17,0,0,1-9.32,19.88h0a.44.44,0,0,0-.09.11c-.43.42-.84.84-1.29,1.24s-.94.87-1.43,1.28c-.34.3-.71.59-1.08.88a12.12,12.12,0,0,1-1,.76c-.68.51-1.38,1-2.07,1.44-.34.23-.69.44-1,.66-.71.44-1.42.86-2.14,1.25-1.09.59-2.21,1.14-3.3,1.66l-1.12.49c-1.11.47-2.23.92-3.33,1.31-1.5.55-3,1-4.43,1.46-.35.11-.72.2-1.07.3l-1.06.28c-1.07.28-2.11.52-3.13.75l-1,.21c-2.64.55-5.09.91-7.12,1.17-.5.07-1,.13-1.45.17l-.68.07-1.2.12c-.39,0-.73.07-1,.11l-.66.05c-.32,0-.6,0-.82.07l-.22,0a.48.48,0,0,0-.18,0c-3.1.54-8.66,4.68-15.52,3.13-3.94-.9-9.69-6.13-15-8.67-.83-.38-2.13-1-3.73-2-.34-.18-.67-.38-1-.58-1-.61-2.17-1.31-3.36-2.09-.78-.52-1.6-1.1-2.43-1.7s-1.58-1.17-2.39-1.81c-.54-.43-1.09-.89-1.65-1.36l-1-.9C1770.15,3136.77,1769.78,3136.45,1769.43,3136.11Zm-555-13.06,27.26-139.87a3,3,0,0,1,4.27-2l116,61.1a4.74,4.74,0,0,1,1.12,7.57l-85.45,83.63a6,6,0,0,1-5,1.67l-54.54-7A4.31,4.31,0,0,1,1214.41,3123.05Zm248.45-124.68-77.76,35.88a6.52,6.52,0,0,1-5.76-.18l-107.31-58a4.58,4.58,0,0,1,2.78-8.59l133.29,18a5.25,5.25,0,0,1,3.72,2.41l3,4.94a10,10,0,0,0,5.67,4.43l13.55,4.23a10.25,10.25,0,0,0,2.26.43,7.55,7.55,0,0,0,1.34.05,10,10,0,0,0,2.11-.26l.64-.16,21.84-5a1,1,0,0,1,.86,1.64A.64.64,0,0,1,1462.86,2998.37Z"/>
<path class="cls-6" d="m2787.2 3140.6 227.31 29a15 15 0 0 0 13.65-5.5c7.23-9 18.92-27.42 22.56-55.88a129.18 129.18 0 0 0-7.54-63.21 15.13 15.13 0 0 0-12.13-9.46l-226.73-29s15.88 5.88 7.8 69.08-24.92 64.97-24.92 64.97z"/>
<ellipse class="cls-7" transform="translate(-616.98 5443) rotate(-82.72)" cx="2782.9" cy="3071.9" rx="67.53" ry="16.91"/>
<path class="cls-8" d="m2766.1 3069.8c-4.73 37-1.06 67.95 8.2 69.13s20.61-27.85 25.34-64.84c0.29-2.3 0.56-4.57 0.79-6.81-5.17 33.66-15.7 59.12-24.39 58s-12.45-28.39-9-62.28q-0.51 3.36-0.94 6.8z"/>
<path class="cls-7" d="m2675.4 3034.3c14.81-0.11 94.31 7.09 114.7 2.7 2.67 17.62-4.2 60.07-10.18 67.42-15.82-9.76-82.2-17.16-85-23.12s-19.52-47-19.52-47z"/>
<path class="cls-8" d="m2685.2 3058.1c4.21 10.2 8.43 20.39 9.75 23.13 2.84 6 69.22 13.37 85.05 23.13 2.56-3.16 5.3-12.77 7.36-24.13-23.05-8.42-83.57-16.41-102.16-22.13z"/>
<path class="cls-9" d="m2751 3099.8c-6-0.07-43.88-7.63-47.25-9.05s-11.58 9-11.9 11.51 47.38 10.06 54.38 10.24 4.77-12.7 4.77-12.7z"/>
<path class="cls-10" d="m2691.8 3102.2c-0.32 2.49 47.39 10.06 54.38 10.24 4.54 0.12 5.19-5.3 5.1-9.1-0.7 1.91-2 3.31-4.36 3.25-6.12-0.15-43.43-6-52.42-9.1-1.51 1.97-2.59 3.83-2.7 4.71z"/>
<path class="cls-9" d="m1734.2 2859.2 506.25 59.77a9.83 9.83 0 0 0 11-8.5l17-144.35a9.81 9.81 0 0 0-8.5-11l-509.51-57.89a31.67 31.67 0 0 0-27.45 10.07c-10.76 11.81-19.39 26.79-23.86 61.79s3.59 59.34 11 73.47a31.7 31.7 0 0 0 24.07 16.64z"/>
<rect class="cls-11" transform="translate(2913 5730.7) rotate(187.28)" x="1609.2" y="2760.1" width="59.3" height="25.21"/>
<rect class="cls-12" transform="translate(-1325.4 4051.1) rotate(-82.72)" x="1631.2" y="2748.7" width="13.75" height="59.3"/>
<path class="cls-11" d="m1660.9 2770.6c-1.42 11.11-1.2 18.72-0.62 23.51a8.51 8.51 0 0 0 7.41 7.42l31.18 4a143.75 143.75 0 0 1 0.25-36.38 202.24 202.24 0 0 1 4.21-23.17l-28.08-3.59a8.52 8.52 0 0 0-9 5.32c-1.81 4.48-3.93 11.8-5.35 22.89z"/>
<path class="cls-4" d="m1251.8 2830.4c17.12 1.85 36.29 4 38.26 4.22a5.65 5.65 0 0 1 3 1.78c13.86-108.46 265.38-52.7 321.86-47 10.56 1.06 12.42-33.1 5.45-34.28-342.38-58.04-355.95 28.91-368.57 75.28z"/>
<rect class="cls-3" transform="translate(4758.5 6285.3) rotate(187.28)" x="2537.5" y="2976.3" width="83.32" height="29.91" rx="6.84" ry="6.84"/>
<path class="cls-13" d="m2538.8 2973.9-2 20.11a6.84 6.84 0 0 0 5.94 7.65l69.07 8.83a6.83 6.83 0 0 0 7.65-5.92l2-20.11a6.84 6.84 0 0 1-7.65 5.92l-69.07-8.83a6.84 6.84 0 0 1-5.94-7.65z"/>
<rect class="cls-5" transform="translate(4757.2 6278.2) rotate(187.28)" x="2572.4" y="2974.4" width="11.73" height="26.78" rx="2.36" ry="2.36"/>
<rect class="cls-5" transform="translate(3462.2 6060.7) rotate(187.28)" x="1894.6" y="2899.6" width="58.53" height="41.18"/>
<rect class="cls-14" transform="translate(3464 6051.4) rotate(187.28)" x="1904.9" y="2898.6" width="39.16" height="33.71" rx="4.9" ry="4.9"/>
<rect class="cls-15" transform="translate(3492.5 6058.8) rotate(187.28)" x="1934.2" y="2899" width="9.69" height="38.55" rx="2.22" ry="2.22"/>
<rect class="cls-15" transform="translate(3434.7 6047.7) rotate(187.28)" x="1904.9" y="2895.3" width="9.69" height="38.55" rx="2.22" ry="2.22"/>
<path class="cls-16" d="M2176.51,3022.86c2,1.62,18,25.75,20.92,26.13s359.21,41.55,362.75,43,30.06,87.51,35.24,88.17l71.81,9.18c11.85,1.51,12.49-3.5,14.15-5.48s9.28-43.07,9-51.07a5.22,5.22,0,0,0-.08-.92c-1.06-4.89-.61-13.82,1.8-16.74a7.84,7.84,0,0,0,1.06-2c1.57-4,2.13-11.37,2.89-13,.91-1.9,19.14-6.74,19.7-17Z"/>
<path class="cls-15" d="M1355.64,2859.4c6.83,2.65,37.4,14.26,51.12,21.13s38.68,36.48,41.16,41.15,9.12,8.87,12.4,9.29,71.88,9.19,73,8.05,3.65-18.12,33.17-14.34,24.32,28.91,30,30.43,577.94,66.13,579.94,67.75l539.28,60.33c2.06-37.83-78.95-92.12-89.34-93.92,0,0-1.2-5.94-2.58-6.12s-4.1-.34-4.9-.44-.78,15.27-2.72,15.56-30.36-1.43-36.79-2.25-38.93-5-38.41-9c2.3-20.15-6.09-22.86-8.76-23.2l-3.83-.43-2.72,24a2.91,2.91,0,0,1-3.26,2.58l-3.82-.49a2.92,2.92,0,0,1-2.48-2.3l-5.46-25.79c-2.93-.34-6.15-.69-9.61-1.07l-2.65,23.59a2.91,2.91,0,0,1-3.26,2.57l-3.82-.49a2.9,2.9,0,0,1-2.48-2.29l-5.35-25.31-10.56-1.17-2.62,23.1a2.91,2.91,0,0,1-3.26,2.57l-3.82-.48a2.92,2.92,0,0,1-2.48-2.3l-5.23-24.8-9.94-1.09-2.56,22.61a2.92,2.92,0,0,1-3.26,2.58L2436,2979a2.93,2.93,0,0,1-2.48-2.3l-5.13-24.31-10.08-1.11-2.51,22.15a2.91,2.91,0,0,1-3.26,2.57l-3.82-.49a2.9,2.9,0,0,1-2.48-2.3l-5-23.79-10.26-1.14-2.45,21.66a2.91,2.91,0,0,1-3.26,2.57l-3.82-.48a2.92,2.92,0,0,1-2.48-2.3l-4.93-23.31c-3.43-.38-6.91-.77-10.41-1.13l-2.39,21.16A2.92,2.92,0,0,1,2358,2969l-3.82-.49a2.93,2.93,0,0,1-2.48-2.3l-4.81-22.8-299.52-32.92-3.82-3.56-91.07-9.24-4,30.61-49.56-5.64,3.36-30.29-16.79-1.93-1,7.64a1.61,1.61,0,0,1-1.82,1.41l-8.34-1.06a1.64,1.64,0,0,1-1.43-1.83l.95-7.48-10.3-1.18-.94,7.35a1.65,1.65,0,0,1-1.85,1.4l-8.34-1.06a1.63,1.63,0,0,1-1.41-1.83l.92-7.21-11.36-1.29-.9,7.05a1.64,1.64,0,0,1-1.83,1.42l-8.34-1.07a1.65,1.65,0,0,1-1.43-1.83l.88-6.92-10.3-1.18-.87,6.79a1.66,1.66,0,0,1-1.85,1.41l-8.34-1.07a1.63,1.63,0,0,1-1.41-1.82l.85-6.63-9.16-1.05-.83,6.51a1.63,1.63,0,0,1-1.82,1.41l-8.35-1.07a1.63,1.63,0,0,1-1.41-1.82l.82-6.37-10.33-1.19-.8,6.24a1.64,1.64,0,0,1-1.84,1.41l-8.34-1.07a1.61,1.61,0,0,1-1.41-1.82l.77-6.08-11.36-1.31-.76,5.94a1.62,1.62,0,0,1-1.82,1.41l-8.34-1.06a1.63,1.63,0,0,1-1.41-1.83l.73-5.79-10.32-1.18-.73,5.65a1.63,1.63,0,0,1-1.84,1.41l-8.34-1.06a1.63,1.63,0,0,1-1.41-1.83l.7-5.51-31.43-3.6-3.41,4.81s-199-22.48-248.25-25.22S1348.79,2856.72,1355.64,2859.4Z"/>
<circle class="cls-14" cx="2668.3" cy="3043.8" r="10.42"/>
<circle class="cls-14" cx="2639.3" cy="3038.2" r="10.42"/>
<circle class="cls-14" cx="2650.2" cy="3061.4" r="10.42"/>
<path class="cls-17" d="m2453.8 3146.4c1.52 3 3.64 5 6.39 5.35 13.59 1.74 24.5 2.54 32.86 2.2 6.23-0.25 11.08-1.16 14.54-2.8 8.12-3.83 8.6-8.74 9.3-13.13s10.12-9.56 13.08-14.87c1.77-3.16 2.91-22.31-12.18-24.24l-49.45-6.31c-2.9-0.38-5.51 0.8-7.78 3.06-9.57 9.59-12.89 38.61-6.76 50.74z"/>
<path class="cls-18" d="m2453.8 3146.4c1.52 3 3.64 5 6.39 5.35 13.59 1.74 24.5 2.54 32.86 2.2 8.37-14 21.54-43 13.42-56.48l-38.13-4.87c-2.9-0.38-5.51 0.8-7.78 3.06 4.98 12.36 7.5 30.93-6.76 50.74z"/>
<path class="cls-19" d="M2458,3151a6.35,6.35,0,0,0,2.21.7c13.59,1.74,24.5,2.54,32.86,2.2,8.37-14,21.54-43,13.42-56.48L2487,3095c8.12,13.47-5.06,42.47-13.42,56.48A136.49,136.49,0,0,1,2458,3151Z"/>
<path class="cls-20" d="m2461.3 3134.6 42.84 5.47a4.54 4.54 0 0 0 4.84-3 41.39 41.39 0 0 0 2.27-17.79 4.54 4.54 0 0 0-3.93-4.1l-42.85-5.47a4.5 4.5 0 0 0-4.72 2.68 34.69 34.69 0 0 0-2.43 9 34.27 34.27 0 0 0 0.08 9.36 4.51 4.51 0 0 0 3.9 3.85z"/>
<circle class="cls-9" cx="2595.8" cy="3084.6" r="8.49"/>
<circle class="cls-21" cx="2595.8" cy="3084.6" r="3.79"/>
<circle class="cls-9" cx="2243.1" cy="3042.5" r="8.49"/>
<circle class="cls-21" cx="2243.1" cy="3042.5" r="3.79"/>
<polygon class="cls-3" points="2285.6 3051.9 2561.4 3082.8 2571.7 3067.1 2273.7 3033.7"/>
<polygon class="cls-14" points="1685.6 2965.7 2176.5 3022.8 2155.3 2994.1 1704.9 2943.1"/>
<path class="cls-22" d="m2627 3115.7c-0.69 5.38 3 9.24 7.91 9.86l55.51 7.27a5.22 5.22 0 0 0-0.08-0.92c-1.06-4.89-0.61-13.82 1.8-16.74a7.84 7.84 0 0 0 1.06-2l-56.25-5.74c-5.03-0.41-9.26 2.89-9.95 8.27z"/>
<path class="cls-23" d="m1612.2 3318.8c6.32-0.65 14.62-2.19 17-4.31 3.63-3.18 6-15 1.35-23.32s-0.09-21.47 1.43-27 40.59-51.51 47.27-56.32 16.47-3 21-9.06c4-5.28-0.58-20.72 5.88-33.26 2.21-4.3 15.94-13.93 22-18l-48.12-4.56a29.89 29.89 0 0 0-26.7 11.78l-48.27 64.09a29.91 29.91 0 0 0-4.58 27.14c6.48 20.11 17.2 54.09 16.87 57.7-0.37 5.19-0.04 11.26-5.13 15.12z"/>
<path class="cls-5" d="m1611.6 2759.1a14.28 14.28 0 0 0 10.21 8.82 32.93 32.93 0 0 0 36.11-13.06 14.28 14.28 0 0 0 2.2-13.31l-4-11.09-48.53 17.53z"/>
<ellipse class="cls-5" transform="translate(-834.63 718.56) rotate(-19.89)" cx="1632" cy="2739.6" rx="25.79" ry="19.57"/>
<ellipse class="cls-4" transform="translate(-834.63 718.56) rotate(-19.89)" cx="1632" cy="2739.6" rx="20.74" ry="15.74"/>
<path class="cls-24" d="m2787.2 3140.6 227.32 29a15.06 15.06 0 0 0 13.66-5.5c6.66-8.28 17.13-24.62 21.57-49.42l-238.75-30.48c-8.49 54.83-23.8 56.4-23.8 56.4z"/>
<path class="cls-10" d="m1699.1 2769.1c-4.47 35 3.61 59.36 11 73.48a31.66 31.66 0 0 0 24 16.66l506.32 59.76a9.8 9.8 0 0 0 11-8.5l5.18-43.93a9.83 9.83 0 0 1-10.19 5.65l-506.25-59.73a31.69 31.69 0 0 1-24-16.66c-5.78-11-12-28.19-12.29-51.81a194.22 194.22 0 0 0-4.77 25.08z"/>
<path class="cls-12" d="m1660.9 2770.6c-1.42 11.11-1.2 18.72-0.62 23.51a8.51 8.51 0 0 0 7.41 7.42l31.18 4a132.19 132.19 0 0 1-1-19.93l-27.71-3.55a8.51 8.51 0 0 1-7.41-7.42 79.79 79.79 0 0 1-0.29-13.7c-0.56 2.82-1.09 6.04-1.56 9.67z"/>
<path class="cls-25" d="m1610.8 2756.7 0.85 2.37a14.32 14.32 0 0 0 10.2 8.83 32.95 32.95 0 0 0 36.12-13.08 14.28 14.28 0 0 0 2.19-13.3l-4-11.09-0.75 0.28 1.61 4.46a14.3 14.3 0 0 1-2.19 13.31 33 33 0 0 1-36.12 13.07 14.75 14.75 0 0 1-7.91-4.85z"/>
<path class="cls-26" d="M1704.29,3170.33c.07-.25.14-.48.23-.72s.23-.67.37-1a26.34,26.34,0,0,1,1.32-3c2.21-4.3,15.94-13.93,22-18,1.74-1.18,2.84-1.89,2.84-1.89s40.77,3.8,50.55,11.9c8.13,6.75,22.09,8.67,31.66,7.1,6.17-1,36.8-9.06,43.24-11.89s20.44-11.15,21.15-16.73c.42-.18,22.93,2.38,58.84,6.61l-4.25-16.33c-32.26-3.79-52.2-6-52.6-5.87-.71,5.56-14.62,13.84-21.07,16.7h0a.31.31,0,0,0-.09.11c-.43.42-.84.84-1.29,1.24s-.94.87-1.43,1.28c-.33.3-.71.58-1.08.87a12.25,12.25,0,0,1-1,.77c-.68.5-1.37,1-2.07,1.44a11.42,11.42,0,0,1-1,.65c-.71.45-1.42.87-2.14,1.25-1.09.6-2.19,1.15-3.3,1.66l-1.12.49c-1.11.5-2.21.93-3.33,1.32-1.5.56-3,1.05-4.43,1.46-.35.11-.72.2-1.07.3s-.72.2-1.06.28c-1.07.27-2.11.52-3.13.74-.35.08-.67.16-1,.21-2.64.56-5.09.92-7.12,1.17-.52.08-1,.13-1.45.18l-.68.07-1.2.12-1,.1c-.24,0-.46,0-.66.06s-.6,0-.82.07l-.22,0a.44.44,0,0,0-.18,0c-3.1.53-8.66,4.68-15.52,3.13-3.94-.9-9.69-6.13-15-8.67-.83-.38-2.13-1-3.73-2l-1-.58q-1.58-.91-3.36-2.1c-.78-.51-1.6-1.07-2.43-1.69s-1.58-1.16-2.39-1.81c-.54-.43-1.09-.9-1.65-1.36-.33-.3-.67-.59-1-.91s-.73-.64-1.08-1c-15.47-4.07-36.41-6-36.41-6s-1.1.71-2.84,1.89c-6,4.08-19.76,13.72-22,18C1704.8,3156.59,1704.45,3164,1704.29,3170.33ZM1630.72,3269c.16-.6.33-1.17.48-1.72.08-.31.17-.6.25-.88l.32-1.15c.11-.34.21-.69.29-1,1.49-5.48,40.59-51.51,47.27-56.32s16.47-3,21-9.06a4.8,4.8,0,0,0,.58-1,9.47,9.47,0,0,0,.44-1.13,4.73,4.73,0,0,0,.18-.63,9.49,9.49,0,0,0,.28-1.35c0-.26.08-.49.11-.74.07-.57.12-1.14.16-1.75.13-1.6.16-3.4.21-5.32,0-.75,0-1.52,0-2.31,0-.49,0-1,.06-1.52l-.07.11c-4.54,6.06-14.31,4.26-21,9.07s-45.78,50.84-47.27,56.31C1632.9,3252.79,1630,3261.41,1630.72,3269Zm-110.61-52.86a2.15,2.15,0,0,0,.33-.61,25.89,25.89,0,0,0,.79-5.09,15.61,15.61,0,0,0-.62,2.36c0,.27-.1.54-.14.83s-.1.58-.14.89C1520.25,3215,1520.18,3215.52,1520.11,3216.09Zm-15.06,50.11c3.23,3.25,96.56,52.43,100.15,52.89a39.66,39.66,0,0,0,7-.29c6.32-.66,14.62-2.19,17-4.32,2.28-2,4.06-7.44,3.91-13.25a8.53,8.53,0,0,0,0-.87,27,27,0,0,0-.42-3.34,7.71,7.71,0,0,1-1.47,1.87c-2.43,2.13-10.73,3.66-17,4.32a39.66,39.66,0,0,1-7,.29c-3.59-.46-96.92-49.65-100.15-52.89-1.21-1.22-1.56-4.66-1.49-8.61,0,.19-.11.38-.16.61s-.12.48-.18.77-.19.87-.27,1.35C1503.72,3251.16,1502.5,3263.64,1505.05,3266.2Zm-369.12-158.59a2.25,2.25,0,0,0-.31,3c.69,1,6.37,5.22,19.68,6.92,2.34,1.84,11.31,16.12,19.34,23.82-2.86,16.37,6.25,21.66,12.07,22.4s14.11-1.54,16.23-4c3.79.85,30.54,6.66,32.48,5.62s12.57-9.72,14-12.6c2.28.3,31,4,33,3.45s103.65-96.48,110.88-102.07,144.48-66.93,147.53-67.55,38.88,13.66,40.44,16.18,8.56,20.17,10.28,21.24,5.84,1.28,11.72,2.84a2.53,2.53,0,0,1,.59.24h0a9.79,9.79,0,0,1,1.43.87,11.82,11.82,0,0,1,1,.74c.84.68,1.78,1.52,2.79,2.52.12.11.26.25.38.38s.55.55.83.82.45.48.7.74.61.66.9,1c1.41,1.53,2.87,3.26,4.37,5.14.31.39.64.79.94,1.2s.76,1,1.17,1.52a2.83,2.83,0,0,0,.2.28l1.2,1.62c.22.33.47.66.71,1s.55.81.83,1.22c.91,1.29,1.77,2.6,2.63,4a.24.24,0,0,0,.06.11c1.74,2.8,3.41,5.7,4.92,8.67a.24.24,0,0,0,.06.11c.57,1.14,1.11,2.3,1.62,3.45s1,2.33,1.46,3.48c.25.66.48,1.31.72,2,.17.5.34,1,.5,1.49.09.25.15.51.24.76.22.75.44,1.51.62,2.24.15.54.26,1.07.39,1.6,0,.26.1.5.16.77.13.69.27,1.36.36,2.05a20.32,20.32,0,0,1,.25,2.17c.07.7.12,1.4.13,2.09a71.7,71.7,0,0,0,2-13.86c.86-22.56-26.27-54.39-32.13-55.93s-10-1.76-11.72-2.84-8.72-18.75-10.28-21.25-37.41-16.8-40.45-16.18-140.29,61.95-147.53,67.56-108.89,101.55-110.87,102.07-30.74-3.16-33-3.45c-1.4,2.87-12,11.56-14,12.6s-28.69-4.78-32.48-5.62c-2.12,2.48-10.4,4.78-16.22,4s-14.94-6-12.08-22.4c-8-7.7-17-22-19.34-23.83-11.26-1.44-17-4.69-19-6.26,0,0,0,.05,0,.09s-.14.34-.22.51a4.16,4.16,0,0,1-.23.42,5.34,5.34,0,0,1-.9,1.1,2.3,2.3,0,0,0-.31,3.07,5,5,0,0,1,.94,3.48A5.1,5.1,0,0,1,1135.93,3107.61Zm111.63-149,23.08,16.46h0a4.61,4.61,0,0,1,4.13-7.52l133.29,18a5.29,5.29,0,0,1,3.72,2.42l3,4.94a10,10,0,0,0,5.67,4.43l15.81,4.65.71.21.63-.15,2.75-.42,21.84-5a1,1,0,0,1,.86,1.64l13.72-5.1a2.57,2.57,0,0,0-.26-5c-11.74-1.48-38.67-1.53-40.52-2.11l-13.54-4.22a10.13,10.13,0,0,1-5.68-4.43l-3-4.94a5.24,5.24,0,0,0-3.71-2.42L1250.34,2950A4.59,4.59,0,0,0,1247.56,2958.57Z"/>
<circle class="cls-27" cx="1189.6" cy="3149.1" r="20.48"/>
<path d="m1172 3146.9a17.82 17.82 0 1 0 19.93-15.42 17.8 17.8 0 0 0-19.93 15.42z"/>
<path class="cls-28" d="m1190.9 3146.9-0.72 5.62 13.9 7.16a17.86 17.86 0 0 0 2.45-16.29z"/>
<path class="cls-28" d="m1188.6 3146.2-0.72 5.62-15.26 3.44a17.86 17.86 0 0 1 1.73-16.38z"/>
<circle class="cls-27" cx="1189.6" cy="3149.1" r="5.9"/>
<circle class="cls-27" cx="1560.8" cy="2958.7" r="36.37"/>
<path d="m1529.4 2954.7a31.63 31.63 0 1 0 35.39-27.37 31.64 31.64 0 0 0-35.39 27.37z"/>
<path class="cls-28" d="m1563 2954.7-1.28 10 24.68 12.72a31.57 31.57 0 0 0 4.35-28.91z"/>
<path class="cls-28" d="m1559 2953.5-1.28 10-27.08 6.11a31.63 31.63 0 0 1 3.06-29.08z"/>
<circle class="cls-27" cx="1560.8" cy="2958.7" r="10.47"/>
<path class="cls-26" d="M1161.86,2823.7a2.23,2.23,0,0,0,1.13,2.13,4.12,4.12,0,0,1,.6.43,3.74,3.74,0,0,1,.53.52,5,5,0,0,1,.82,1.2v0a4.91,4.91,0,0,1,.49,2.71,4.73,4.73,0,0,1-.37,1.48,5.18,5.18,0,0,1-1.25,1.76,2.26,2.26,0,0,0-.31,3.05,5,5,0,0,1,.45.78,5.08,5.08,0,0,1,.49,2.71,5.42,5.42,0,0,1-.39,1.46,3.91,3.91,0,0,1-.54,1,2.12,2.12,0,0,1-.33.43,3.39,3.39,0,0,1-.36.39,2.27,2.27,0,0,0-.32,3.05,3.57,3.57,0,0,1,.46.77,5.13,5.13,0,0,1,.49,2.72,5.42,5.42,0,0,1-.39,1.46,4.1,4.1,0,0,1-.54,1,3.29,3.29,0,0,1-.33.41,3.33,3.33,0,0,1-.36.39,2.28,2.28,0,0,0-.32,3.07,4.33,4.33,0,0,1,.44.75,4.86,4.86,0,0,1,.48,2.73,4.47,4.47,0,0,1-.36,1.46,4.24,4.24,0,0,1-.54.95,2.47,2.47,0,0,1-.33.43,3.41,3.41,0,0,1-.37.39,2.27,2.27,0,0,0-.31,3.07,4,4,0,0,1,.44.75,4.86,4.86,0,0,1,.48,2.73,4.74,4.74,0,0,1-.36,1.46,4.17,4.17,0,0,1-.54.94c-.1.15-.21.29-.33.44a3.5,3.5,0,0,1-.39.38,2.29,2.29,0,0,0-.31,3.05,4,4,0,0,1,.46.77,5,5,0,0,1,.48,2.72,4.73,4.73,0,0,1-.36,1.48,7.18,7.18,0,0,1-.54.94c-.1.15-.22.29-.33.43a2.87,2.87,0,0,1-.39.39,2.26,2.26,0,0,0-.31,3,5.4,5.4,0,0,1,.46.77,5,5,0,0,1,.48,2.72,4.7,4.7,0,0,1-.38,1.45,3.44,3.44,0,0,1-.25.51,2.22,2.22,0,0,1-.29.46,4.12,4.12,0,0,1-.33.43,4.59,4.59,0,0,1-.37.39,2.26,2.26,0,0,0-.31,3.05,3.52,3.52,0,0,1,.45.77,5.08,5.08,0,0,1,.49,2.72,5.84,5.84,0,0,1-.38,1.45,5.28,5.28,0,0,1-.54,1,2.56,2.56,0,0,1-.34.44,4.38,4.38,0,0,1-.36.39,2.24,2.24,0,0,0-.31,3,7,7,0,0,1,.44.75,4.93,4.93,0,0,1,.48,2.73,4.73,4.73,0,0,1-.37,1.48,5.11,5.11,0,0,1-.54.94,1.53,1.53,0,0,1-.28.36,3.39,3.39,0,0,1-.41.44,2.28,2.28,0,0,0-.32,3.07,4.33,4.33,0,0,1,.44.75,5,5,0,0,1,.49,2.74,4.75,4.75,0,0,1-.37,1.46,5.1,5.1,0,0,1-1.25,1.76,2.32,2.32,0,0,0-.32,3.07,3.57,3.57,0,0,1,.46.77,5,5,0,0,1,.48,2.72,4.54,4.54,0,0,1-.36,1.46,5.1,5.1,0,0,1-1.25,1.76,2.27,2.27,0,0,0-.32,3,4.24,4.24,0,0,1,.46.77,5.08,5.08,0,0,1,.49,2.71,4.9,4.9,0,0,1-.39,1.48,3.07,3.07,0,0,1-.24.48,2.15,2.15,0,0,1-.3.48,5.35,5.35,0,0,1-.7.8,2.28,2.28,0,0,0-.31,3.05,3.63,3.63,0,0,1,.46.78,5,5,0,0,1,.48,2.71,5.07,5.07,0,0,1-.38,1.46,4.26,4.26,0,0,1-.54,1,2.55,2.55,0,0,1-.33.43,2.75,2.75,0,0,1-.37.39,2.24,2.24,0,0,0-.31,3.05,5.4,5.4,0,0,1,.46.77,5.12,5.12,0,0,1,.46,2.72,5,5,0,0,1-.36,1.48,5.66,5.66,0,0,1-1.24,1.76,2.24,2.24,0,0,0-.31,3.05,6.38,6.38,0,0,1,.44.75,4.86,4.86,0,0,1,.48,2.73,4.73,4.73,0,0,1-.37,1.48,5.71,5.71,0,0,1-.53.94,1.91,1.91,0,0,1-.29.36,2.49,2.49,0,0,1-.41.45,2.26,2.26,0,0,0-.31,3.07,5.47,5.47,0,0,1,.44.75,5.31,5.31,0,0,1,.48,2.73,4.75,4.75,0,0,1-.37,1.46,4.55,4.55,0,0,1-.53.94c-.1.15-.22.29-.34.44a3.41,3.41,0,0,1-.38.38,2.29,2.29,0,0,0-.31,3.07,5.35,5.35,0,0,1,.45.77,5.1,5.1,0,0,1,.49,2.72,4.78,4.78,0,0,1-.39,1.46,3.58,3.58,0,0,1-.24.48,4.23,4.23,0,0,1-.63.89,3.33,3.33,0,0,1-.36.39,2.26,2.26,0,0,0-.31,3.05,4,4,0,0,1,.45.77,5.08,5.08,0,0,1,.49,2.72,5.59,5.59,0,0,1-.39,1.47,4.24,4.24,0,0,1-.54.95,2.88,2.88,0,0,1-.33.43,4.49,4.49,0,0,1-.36.39,2.25,2.25,0,0,0-.32,3,4.61,4.61,0,0,1,.46.77,5.05,5.05,0,0,1,.47,2.71,4.73,4.73,0,0,1-.37,1.48,5.11,5.11,0,0,1-.54.94c-.1.15-.21.29-.33.44a4.51,4.51,0,0,1-.37.39,2.26,2.26,0,0,0-.31,3.05,4.33,4.33,0,0,1,.44.75,4.84,4.84,0,0,1,.48,2.73,4.73,4.73,0,0,1-.36,1.48,5.75,5.75,0,0,1-.54.94,4.46,4.46,0,0,1-.33.43,2.75,2.75,0,0,1-.37.39,2.25,2.25,0,0,0-.31,3.05,6.38,6.38,0,0,1,.44.75,5.25,5.25,0,0,1,.48,2.74,5,5,0,0,1-.36,1.48,7.18,7.18,0,0,1-.54.94c-.1.12-.19.23-.28.36a4.57,4.57,0,0,1-.44.44,2.32,2.32,0,0,0-.31,3.07,5.4,5.4,0,0,1,.46.77,5,5,0,0,1,.48,2.72,4.68,4.68,0,0,1-.36,1.45,5.07,5.07,0,0,1-1.26,1.77,2.28,2.28,0,0,0-.31,3.07,3.7,3.7,0,0,1,.45.77,4.94,4.94,0,0,1,.49,2.71,5.42,5.42,0,0,1-.39,1.46,2,2,0,0,1-.24.48,2.67,2.67,0,0,1-.29.48,6.54,6.54,0,0,1-.7.8,2.24,2.24,0,0,0-.31,3.05,4.28,4.28,0,0,1,.45.78,5.08,5.08,0,0,1,.49,2.71,5.56,5.56,0,0,1-.39,1.48,2.39,2.39,0,0,1-.24.48,2.73,2.73,0,0,1-.3.48,2.58,2.58,0,0,1-.33.41,2.69,2.69,0,0,1-.36.39,2.24,2.24,0,0,0-.31,3.05,5.35,5.35,0,0,1,.45.77,5.12,5.12,0,0,1,.47,2.72,4.8,4.8,0,0,1-.37,1.48,5.63,5.63,0,0,1-1.23,1.76,2.25,2.25,0,0,0-.32,3,4.74,4.74,0,0,1,.44.75,5.31,5.31,0,0,1,.49,2.73,4.73,4.73,0,0,1-.37,1.48,5.07,5.07,0,0,1-1.26,1.76,2.3,2.3,0,0,0-.31,3,4.32,4.32,0,0,1,.46.78,5,5,0,0,1,.48,2.71,4.73,4.73,0,0,1-.36,1.48,5.11,5.11,0,0,1-.54.94c-.09.13-.19.24-.28.36a4.57,4.57,0,0,1-.44.44,2.31,2.31,0,0,0-.31,3.07,4,4,0,0,1,.46.77,5,5,0,0,1,.48,2.72,6.3,6.3,0,0,1-.24,1.1s0,.05,0,.09-.14.34-.22.51l-.23.43a5.28,5.28,0,0,1-.9,1.09,2.3,2.3,0,0,0-.31,3.07,5,5,0,0,1,.94,3.49,5.13,5.13,0,0,1-1.62,3.22,2.24,2.24,0,0,0-.31,3.05c.69,1,6.37,5.21,19.68,6.91,1.94,1.54,8.47,11.66,15.22,19.44l1.23-9.59c-3.14-4.27-5.63-7.75-6.71-8.61-13.31-1.7-19-5.93-19.67-6.91a2.24,2.24,0,0,1,.31-3,5.23,5.23,0,0,0,1.62-3.22,5.14,5.14,0,0,0-.94-3.49,2.29,2.29,0,0,1,.31-3.07,5.24,5.24,0,0,0,.89-1.09,4.34,4.34,0,0,0,.23-.43,4.52,4.52,0,0,0,.23-.5s0-.06,0-.1a7.11,7.11,0,0,0,.24-1.1,5,5,0,0,0-.49-2.71,4,4,0,0,0-.45-.77,2.29,2.29,0,0,1,.31-3.07,4.47,4.47,0,0,0,.43-.44l.29-.36a6.15,6.15,0,0,0,.53-.94,4.73,4.73,0,0,0,.37-1.48,5.13,5.13,0,0,0-.49-2.72,4.56,4.56,0,0,0-.45-.77,2.28,2.28,0,0,1,.31-3,5.24,5.24,0,0,0,1.25-1.76,4.73,4.73,0,0,0,.37-1.48,5.26,5.26,0,0,0-.48-2.74,6.38,6.38,0,0,0-.44-.75,2.24,2.24,0,0,1,.31-3.05,5.55,5.55,0,0,0,1.24-1.76,4.73,4.73,0,0,0,.36-1.48,5,5,0,0,0-.46-2.71,5.4,5.4,0,0,0-.46-.77,2.26,2.26,0,0,1,.31-3.05,4.51,4.51,0,0,0,.37-.39,4.71,4.71,0,0,0,.33-.42,2.66,2.66,0,0,0,.3-.47,2.77,2.77,0,0,0,.24-.49,5.22,5.22,0,0,0,.38-1.47,5,5,0,0,0-.48-2.72,4.61,4.61,0,0,0-.46-.77,2.25,2.25,0,0,1,.31-3.05,3.41,3.41,0,0,0,.37-.39,3.29,3.29,0,0,0,.33-.41,3.15,3.15,0,0,0,.3-.48,2.16,2.16,0,0,0,.24-.48,5.15,5.15,0,0,0,.38-1.46,5,5,0,0,0-.48-2.72,3.57,3.57,0,0,0-.46-.77,2.3,2.3,0,0,1,.32-3.07,4.92,4.92,0,0,0,1.25-1.76,4.75,4.75,0,0,0,.37-1.46,5.06,5.06,0,0,0-.49-2.72,4.61,4.61,0,0,0-.46-.77,2.32,2.32,0,0,1,.32-3.07,4.49,4.49,0,0,0,.43-.44c.1-.12.19-.23.28-.36a5.11,5.11,0,0,0,.54-.94,4.73,4.73,0,0,0,.37-1.48,5.31,5.31,0,0,0-.48-2.73,7,7,0,0,0-.44-.75,2.24,2.24,0,0,1,.31-3.05,3.33,3.33,0,0,0,.36-.39c.12-.14.24-.29.34-.43a6.26,6.26,0,0,0,.53-1,4.74,4.74,0,0,0,.37-1.47,5,5,0,0,0-.48-2.74,6.38,6.38,0,0,0-.44-.75,2.24,2.24,0,0,1,.31-3,4.59,4.59,0,0,0,.37-.39l.33-.43a6.15,6.15,0,0,0,.53-.94,4.73,4.73,0,0,0,.37-1.48,5,5,0,0,0-.46-2.72,5.4,5.4,0,0,0-.46-.77,2.24,2.24,0,0,1,.31-3.05,3.46,3.46,0,0,0,.37-.39,2.55,2.55,0,0,0,.33-.43,5.11,5.11,0,0,0,.54-.94,5.55,5.55,0,0,0,.38-1.48,5,5,0,0,0-.48-2.71,3.74,3.74,0,0,0-.46-.77,2.27,2.27,0,0,1,.31-3.05,4.51,4.51,0,0,0,.37-.39,5,5,0,0,0,.63-.89,3.71,3.71,0,0,0,.24-.49,4.78,4.78,0,0,0,.38-1.45,5.08,5.08,0,0,0-.48-2.72,5.4,5.4,0,0,0-.46-.77,2.3,2.3,0,0,1,.31-3.07,3.59,3.59,0,0,0,.39-.39c.12-.14.23-.29.33-.43a4.4,4.4,0,0,0,.54-.94,4.47,4.47,0,0,0,.36-1.46,5.25,5.25,0,0,0-.48-2.74,4.33,4.33,0,0,0-.44-.75,2.28,2.28,0,0,1,.32-3.07,3.39,3.39,0,0,0,.41-.44,1.84,1.84,0,0,0,.28-.36,5.11,5.11,0,0,0,.54-.94,5.15,5.15,0,0,0-.12-4.22,5.24,5.24,0,0,0-.44-.75,2.26,2.26,0,0,1,.31-3,5.39,5.39,0,0,0,1.24-1.76,4.73,4.73,0,0,0,.37-1.48,5.07,5.07,0,0,0-.47-2.71,5.35,5.35,0,0,0-.45-.77,2.24,2.24,0,0,1,.31-3.05,3.33,3.33,0,0,0,.36-.39,2.56,2.56,0,0,0,.34-.44,4,4,0,0,0,.53-1,5.45,5.45,0,0,0,.39-1.45,5.12,5.12,0,0,0-.49-2.72,4,4,0,0,0-.45-.77,2.26,2.26,0,0,1,.31-3.05,5.9,5.9,0,0,0,.7-.8,2.92,2.92,0,0,0,.29-.48,3.58,3.58,0,0,0,.24-.48,4.9,4.9,0,0,0,.39-1.48,5.13,5.13,0,0,0-.48-2.72,5.4,5.4,0,0,0-.46-.77,2.26,2.26,0,0,1,.31-3.05,4.94,4.94,0,0,0,1.26-1.76,5.15,5.15,0,0,0-.12-4.17,4.1,4.1,0,0,0-.46-.78,2.31,2.31,0,0,1,.31-3.07,4.94,4.94,0,0,0,1.26-1.76,4.74,4.74,0,0,0,.36-1.46,4.86,4.86,0,0,0-.48-2.73,4,4,0,0,0-.44-.75,2.28,2.28,0,0,1,.31-3.07,2.89,2.89,0,0,0,.42-.44,2.93,2.93,0,0,0,.28-.36,5.85,5.85,0,0,0,.54-.95,4.73,4.73,0,0,0,.36-1.47,4.89,4.89,0,0,0-.48-2.74,6.38,6.38,0,0,0-.44-.75,2.26,2.26,0,0,1,.31-3.05,2.75,2.75,0,0,0,.37-.39,3,3,0,0,0,.33-.43,4.31,4.31,0,0,0,.54-1,5.07,5.07,0,0,0,.38-1.46,5,5,0,0,0-.48-2.72,3.82,3.82,0,0,0-.46-.77,2.28,2.28,0,0,1,.31-3,2.75,2.75,0,0,0,.37-.39,2.15,2.15,0,0,0,.33-.43,2,2,0,0,0,.3-.46,4.59,4.59,0,0,0,.24-.5,4.78,4.78,0,0,0,.39-1.46,5,5,0,0,0-.49-2.71,4.86,4.86,0,0,0-.45-.77,2.26,2.26,0,0,1,.31-3,4.64,4.64,0,0,0,.38-.39c.12-.14.24-.29.34-.43a5.81,5.81,0,0,0,.53-.95,4.74,4.74,0,0,0,.37-1.47,5.08,5.08,0,0,0-.49-2.72,4,4,0,0,0-.45-.77,2.28,2.28,0,0,1,.31-3.05,3.5,3.5,0,0,0,.38-.39c.12-.14.24-.29.34-.43a4.83,4.83,0,0,0,.53-.94,4.75,4.75,0,0,0,.37-1.46,5,5,0,0,0-.48-2.74,6.15,6.15,0,0,0-.44-.75,2.26,2.26,0,0,1,.31-3.07,3.46,3.46,0,0,0,.37-.39,3.28,3.28,0,0,0,.33-.43,4.55,4.55,0,0,0,.53-.94,4.75,4.75,0,0,0,.37-1.46,5,5,0,0,0-.48-2.74,5.08,5.08,0,0,0-.44-.75,2.26,2.26,0,0,1,.31-3.07,3.32,3.32,0,0,0,.37-.38,5.33,5.33,0,0,0,.87-1.38,5.41,5.41,0,0,0,.38-1.46,5.09,5.09,0,0,0-.48-2.71,4,4,0,0,0-.46-.77,2.27,2.27,0,0,1,.31-3.05,4.59,4.59,0,0,0,.37-.39,3.15,3.15,0,0,0,.33-.44,4.43,4.43,0,0,0,.54-1,5.44,5.44,0,0,0,.38-1.45,5,5,0,0,0-.48-2.72,5.4,5.4,0,0,0-.46-.77,2.27,2.27,0,0,1,.31-3.05,5.41,5.41,0,0,0,1.26-1.76,4.73,4.73,0,0,0,.36-1.48,4.86,4.86,0,0,0-.48-2.72v0a5.15,5.15,0,0,0-.82-1.19,3.2,3.2,0,0,0-.52-.52,5.13,5.13,0,0,0-.6-.44,2.21,2.21,0,0,1-1.14-2.12A2.17,2.17,0,0,1,1174,2823s.59.06,1.55.12c4.54.4,17.71,1.55,18.75,1.59s7.25.62,16,1.52l0-.23c-13.76-1.44-24.2-2.5-25.74-2.54-1,0-14.21-1.18-18.76-1.58l-1.54-.12A2.15,2.15,0,0,0,1161.86,2823.7Z"/>
<path d="m1927.6 2882 32.9 3.89c-4-2.75-9.21-6.55-12.5-7.15-5-0.91-19.3 0.65-20.07 1.91a2.94 2.94 0 0 0-0.33 1.35zm73.32 8.61a0.32 0.32 0 0 1-0.17 0l239.68 28.34a6.28 6.28 0 0 0 1.22 0.06c2.86-1.1 5.11-3.09 5.5-6.15s-28.42-2.05-33.88-4.13c-2.45-0.93-13.34-20.35-25.95-43.53-15.52-28.49-33.65-62.7-42.05-75.42-12-18.23-36.43-51.14-40.65-53.31-5.11-2.63-63.62-10.23-67-7.39-8.08 6.83 35.88 85.07 30.94 108.41-0.79 3.68-3.86 8.06-8.32 12.72-16.97 17.74-54.02 39.48-59.32 40.4zm96.69-131.49-26.42-2.43a5.56 5.56 0 0 1-4.22-2.62l-8.25-13.37a3.12 3.12 0 0 1 3-4.75l24.85 2.74a11.27 11.27 0 0 1 7 3.6l8 8.76a4.84 4.84 0 0 1-3.96 8.07zm26.12 45.17-34.73-2.16a5.67 5.67 0 0 1-4.71-3.15l-9.07-18.58a7.87 7.87 0 0 1 7.47-11.32l27.7 1.42a13.77 13.77 0 0 1 11 6.54l9.45 15.37a7.81 7.81 0 0 1-7.11 11.88zm-78.92 85.28c20.28-13 31.57-26 37.75-36.76 7.08-12.29 7.49-21.56 7.1-24.35-0.83-5.79 3.17-11 9-10.69l33.35 2.08a21 21 0 0 1 18.14 13.51 205 205 0 0 0 14.48 29.13 392.31 392.31 0 0 0 27 39.72 2.29 2.29 0 0 1-2 3.67c-19.6-1.47-90.91-7.06-144.32-13.7a1.42 1.42 0 0 1-0.5-2.61z"/>
<path class="cls-29" d="m1933.5 2886.8c1.76 0.34 9.78 0 12.35 1s14.24 10.81 16.27 11.63c1.79 0.72 207.46 23.7 259.62 27.37 7.18 0.5 14.7-6.28 15-6.24 5.46 0.69 13.61-1.12 14.39-7.2 0.37-2.9-28.43-2.05-33.9-4.13s-52.76-95.87-68-118.95c-12-18.23-36.44-51.14-40.66-53.32-5.1-2.63-63.61-10.23-67-7.38-8.07 6.84 35.88 85.06 30.93 108.4-3.75 17.72-60.95 52-67.66 53.17s-33-1-35.85-1.94-12.13-9.05-17.07-9.94-19.28 0.64-20.07 1.91-0.1 5.28 1.65 5.62zm168.07-127.14-26.42-2.41a5.56 5.56 0 0 1-4.22-2.62l-8.26-13.38a3.13 3.13 0 0 1 3-4.75l24.86 2.74a11.21 11.21 0 0 1 7.05 3.59l8 8.77a4.83 4.83 0 0 1-4.01 8.06zm26.12 45.17-34.73-2.16a5.61 5.61 0 0 1-4.72-3.15l-9.06-18.57a7.86 7.86 0 0 1 7.47-11.31l27.71 1.41a13.75 13.75 0 0 1 11 6.55l9.43 15.36a7.8 7.8 0 0 1-7.1 11.87zm-78.92 85.28c43.5-27.89 45.6-55.86 44.85-61.09-0.82-5.79 3.17-11.06 9-10.7l33.35 2.09a21 21 0 0 1 18.15 13.51c10.71 27.67 33.2 58.08 41.52 68.85a2.28 2.28 0 0 1-2 3.66c-19.59-1.48-90.91-7.06-144.31-13.71a1.42 1.42 0 0 1-0.56-2.61z"/>
<path class="cls-26" d="M1917.3,3067.61a10.57,10.57,0,0,0,.33,2.81l14.58,55.84.4,0-4.25-16.33Zm59.36,48.11-10.94-42a10,10,0,0,0,.34,2.86L1980.5,3132l.41.05Zm125.19,15-12.27-47.06a10,10,0,0,0,.31,2.79l15.8,60.55.41.05Zm48.32,5.84L2138,3089.82a10.09,10.09,0,0,0,.35,2.86L2154,3152.9l.43,0-4.25-16.35Zm47,5.69-12.08-46.39a9.66,9.66,0,0,0,.32,2.79l15.6,59.9.43,0-4.25-16.35Zm48.35,5.88-12-46.15a10.42,10.42,0,0,0,.35,2.86l15.52,59.59.41.05Zm122.89,14.95-11.8-45.31a10,10,0,0,0,.31,2.8l15.33,58.81.43,0Zm48.33,5.88L2405,3124a9.93,9.93,0,0,0,.33,2.84l15.22,58.5.43,0-4.25-16.35Z"/>
<path class="cls-26" d="M2401.49,3110.46,2405,3124a10.13,10.13,0,0,1,19.92-2.27l21.55,82.64,11.85,1.46,3.52,4.09,19.92,2.55,17.76-24.87,26.45,3.38.35-2.75a2.82,2.82,0,0,1,3.16-2.45l2.19.28a2.83,2.83,0,0,1,2.44,3.17l-.35,2.75,15.6,2,.35-2.75a2.82,2.82,0,0,1,3.16-2.45l2.18.28a2.83,2.83,0,0,1,2.45,3.17l-.35,2.74,15.59,2,.35-2.75a2.84,2.84,0,0,1,3.17-2.45l2.18.28a2.83,2.83,0,0,1,2.45,3.17l-.35,2.74,15.59,2,.35-2.75a2.84,2.84,0,0,1,3.17-2.45l2.18.28a2.82,2.82,0,0,1,2.45,3.16l-.35,2.75,15.59,2,.35-2.74a2.84,2.84,0,0,1,3.17-2.45l2.18.28a2.83,2.83,0,0,1,2.45,3.16l-.35,2.75,39.95,5.11-.13-14.13-172.61-22-16.62,23.27-19.92-2.54-3.52-4.1-11.86-1.45-21.55-82.65a10.12,10.12,0,0,0-19.59,5.11Z"/>
<path class="cls-26" d="m2376.5 3115.5 21.61 82.92c10 1.22 18.94 2.32 26.73 3.26l-4.25-16.35-26.29-3.21-21.61-82.92a10.15 10.15 0 0 0-12.37-7.25c-0.35 0.1-0.7 0.21-1 0.33h-0.08a5.23 5.23 0 0 0-0.89 0.43 9.23 9.23 0 0 0-1.88 1.2 10.14 10.14 0 0 0-3.36 10.37l3.54 13.54a10.1 10.1 0 0 1 3.68-7.57 9 9 0 0 1 1.88-1.2 5.13 5.13 0 0 1 0.88-0.43s0.06 0 0.08 0l1-0.32a10.14 10.14 0 0 1 12.33 7.2z"/>
<path class="cls-26" d="M2253.42,3099.78l21.81,83.7c37.59,4.57,72.35,8.79,101.29,12.33l-4.27-16.35v0c-28.85-3.53-63.45-7.73-100.86-12.28l-21.81-83.7a10.14,10.14,0,0,0-12.35-7.25c-.35.1-.7.21-1,.33l-.09,0a7,7,0,0,0-1,.45,7.24,7.24,0,0,0-1.14.67,2.55,2.55,0,0,0-.48.37,1.13,1.13,0,0,0-.2.13,10.08,10.08,0,0,0-3.34,10.37l3.51,13.44a10.12,10.12,0,0,1,3.69-7.47,1.07,1.07,0,0,1,.19-.13,2.92,2.92,0,0,1,.48-.37,6.94,6.94,0,0,1,1.14-.67,7.1,7.1,0,0,1,1-.45l.08,0c.33-.12.68-.23,1-.33A10.14,10.14,0,0,1,2253.42,3099.78Z"/>
<path class="cls-26" d="M2205,3093.59l21.89,84,26.72,3.26-4.25-16.35,0,0q-13-1.6-26.31-3.21l-21.89-84a10.14,10.14,0,0,0-12.37-7.24c-.34.09-.7.2-1,.32a.13.13,0,0,1-.08,0,6.6,6.6,0,0,0-.89.42,9.21,9.21,0,0,0-1.87,1.21,10.11,10.11,0,0,0-3.37,10.36l3.54,13.55a10.1,10.1,0,0,1,3.68-7.57,9.28,9.28,0,0,1,1.88-1.21,6.47,6.47,0,0,1,.88-.42.16.16,0,0,0,.09,0c.33-.12.68-.23,1-.32A10.14,10.14,0,0,1,2205,3093.59Z"/>
<path class="cls-26" d="m2157.9 3087.6 22 84.35 25.38 3.06-4.25-16.35-24.95-3-22-84.35a10.12 10.12 0 0 0-12.34-7.24c-0.35 0.1-0.7 0.21-1 0.33h-0.08a9.51 9.51 0 0 0-1 0.46 7.13 7.13 0 0 0-1.09 0.65 5.76 5.76 0 0 0-0.7 0.52 10.05 10.05 0 0 0-3.37 10.37l3.51 13.44a10.12 10.12 0 0 1 3.71-7.47 6.66 6.66 0 0 1 0.7-0.52 8.21 8.21 0 0 1 1.1-0.66c0.32-0.17 0.63-0.31 1-0.45h0.08c0.33-0.12 0.68-0.23 1-0.33a10.12 10.12 0 0 1 12.3 7.19z"/>
<path class="cls-26" d="M2109.5,3081.39l22.07,84.67,26.72,3.23-4.25-16.35h0v0l-26.3-3.18-22.06-84.67a10.15,10.15,0,0,0-12.37-7.25c-.35.1-.7.21-1,.33l-.08,0a5.19,5.19,0,0,0-.89.42,9.23,9.23,0,0,0-1.88,1.2,10.15,10.15,0,0,0-3.36,10.37l3.54,13.55a10.1,10.1,0,0,1,3.68-7.58,9,9,0,0,1,1.88-1.2,4.45,4.45,0,0,1,.88-.42l.08,0c.34-.12.69-.23,1-.33A10.14,10.14,0,0,1,2109.5,3081.39Z"/>
<path class="cls-26" d="M1985.65,3071.51l20.71,79.46c31.61,3.78,67,8,103.59,12.46l-4.25-16.33V3147c-36.5-4.4-71.69-8.64-103.18-12.41l-20.71-79.46a10.14,10.14,0,0,0-12.35-7.25c-.35.1-.7.21-1,.33l-.08,0a7.1,7.1,0,0,0-1,.45,8.14,8.14,0,0,0-1.1.65,7.9,7.9,0,0,0-.7.52,10.07,10.07,0,0,0-3.36,10.37l3.51,13.44a10.12,10.12,0,0,1,3.71-7.47,5.76,5.76,0,0,1,.7-.52,8,8,0,0,1,1.09-.65,7.7,7.7,0,0,1,1-.45l.08,0c.34-.12.69-.23,1-.33A10.12,10.12,0,0,1,1985.65,3071.51Z"/>
<path class="cls-26" d="M1937.24,3065.32l20.81,79.89,26.71,3.18-4.25-16.33V3132l-26.3-3.13L1933.38,3049a10.13,10.13,0,0,0-12.36-7.24c-.35.09-.7.2-1,.32l-.09,0a6.47,6.47,0,0,0-.88.42,8.87,8.87,0,0,0-1.88,1.21,10.11,10.11,0,0,0-3.36,10.36l3.52,13.53a10.22,10.22,0,0,1,3.69-7.55,9.13,9.13,0,0,1,1.88-1.21,6.6,6.6,0,0,1,.89-.42.13.13,0,0,0,.08,0c.33-.12.68-.23,1-.33A10.16,10.16,0,0,1,1937.24,3065.32Z"/>
<path class="cls-26" d="m1858.5 3137.2 5.29 11.77c5.58-3.31 11.63-7.74 13.35-11.4a2.28 2.28 0 0 1 2.21-1.37c6 0.55 26.75 2.93 57.09 6.5l-4.25-16.33v-0.06c-35.68-4.2-58-6.74-58.43-6.55-0.34 2.53-11.36 14.55-15.26 17.44z"/>
<path class="cls-9" d="m2745.2 3117.6 30.15 3.85a2 2 0 0 0 1.89-0.83 21.64 21.64 0 0 0 2.53-19.82 2 2 0 0 0-1.62-1.27l-30.15-3.86a2 2 0 0 0-2 1.08c-0.66 1.36-1.59 4.13-2.28 9.51s-0.48 8.29-0.18 9.78a2 2 0 0 0 1.66 1.56z"/>
<path class="cls-10" d="m2743.7 3106.3c-0.69 5.38-0.46 8.3-0.18 9.78a2 2 0 0 0 1.7 1.56l30.16 3.86a2 2 0 0 0 1.88-0.83 21.75 21.75 0 0 0 3.71-9.61 20.52 20.52 0 0 0 0.13-4 21.74 21.74 0 0 1-2.84 5.76 2 2 0 0 1-1.89 0.83l-30.15-3.85a2 2 0 0 1-1.7-1.57 24.46 24.46 0 0 1-0.2-5.87c-0.23 1.17-0.43 2.46-0.62 3.94z"/>
<path class="cls-30" d="m1251.8 2830.4c17.12 1.85 36.28 4 38.25 4.22a5.65 5.65 0 0 1 3 1.78c13.86-108.46 265.37-52.69 321.86-47 4.81 0.48 7.82-6.35 9-14a4.77 4.77 0 0 1-3.46 1.06c-59.27-5.85-323-67-338.38 53.73-1.83-0.24-16.34-1.39-29.19-3.63-0.39 1.26-0.74 2.56-1.08 3.84z"/>
<path class="cls-31" d="m2774.3 3138.9 12.86 1.65s16.86-1.69 24.93-64.9-7.81-69.08-7.81-69.08l-12.86-1.65c9.28 1.19 12.95 32.14 8.22 69.14s-16.06 66.03-25.34 64.84z"/>
<path class="cls-32" d="M2618,2990.5c-.37,0-.57,2.9-.84,6.26a44,44,0,0,0,.88-6.25Z"/>
<path class="cls-32" d="m2527.6 2971.2h-0.12l-1.91 17a2.3 2.3 0 0 0 0.19-0.75z"/>
<path class="cls-32" d="m2500.2 2968.2h-0.11l-1.86 16.55a2.77 2.77 0 0 0 0.2-0.75z"/>
<path class="cls-32" d="M2472.11,2965.07H2472l-1.81,16.05a2.76,2.76,0,0,0,.19-.75Z"/>
<path class="cls-32" d="M2444.76,2962.07h-.12l-1.75,15.56a2.3,2.3,0,0,0,.19-.75Z"/>
<path class="cls-32" d="m2417.4 2959.1h-0.12l-1.71 15.09a2.61 2.61 0 0 0 0.2-0.74z"/>
<path class="cls-32" d="m2390.1 2956.1h-0.12l-1.64 14.61a2.76 2.76 0 0 0 0.19-0.75z"/>
<path class="cls-32" d="m2362.6 2953-1.59 14.12a2.3 2.3 0 0 0 0.19-0.75l1.51-13.35z"/>
<path class="cls-32" d="m2618 2990.5c0.81 0.1 3.49 0.27 4.85 0.44s2.59 6.12 2.59 6.12c9.67 1.67 80.63 48.89 88.62 85.92l1.71 0.2c2.06-37.83-78.95-92.12-89.34-93.92 0 0-1.2-5.94-2.58-6.12s-4.1-0.34-4.9-0.44c-0.41-0.06-0.61 3.88-0.95 7.8z"/>
<path class="cls-32" d="M2527.58,2971.19l3.71.41c2.67.34,11.06,3.06,8.76,23.21-.51,4,32,8.18,38.41,9s34.83,2.55,36.8,2.24c1.08-.16,1.35-7.85,1-7.79-2,.3-30.36-1.43-36.79-2.25s-38.93-5-38.41-9c2.3-20.15-6.09-22.86-8.76-23.2l-3.83-.43Z"/>
<path class="cls-32" d="M2500.23,2968.17c3.42.38,6.61.72,9.5,1l5.46,25.8a2.92,2.92,0,0,0,2.48,2.3l3.82.48a2.91,2.91,0,0,0,3.26-2.57l.8-7.05a2.91,2.91,0,0,1-3.07,1.83l-3.82-.49a2.92,2.92,0,0,1-2.48-2.3l-5.46-25.79c-2.93-.34-6.15-.69-9.61-1.07Z"/>
<path class="cls-32" d="M2472.11,2965.07l10.45,1.16,5.34,25.3a2.92,2.92,0,0,0,2.48,2.3l3.82.49a2.92,2.92,0,0,0,3.26-2.58l.8-7a2.91,2.91,0,0,1-3.06,1.82l-3.82-.49a2.9,2.9,0,0,1-2.48-2.29l-5.35-25.31-10.56-1.17Z"/>
<path class="cls-32" d="M2444.76,2962.07l9.82,1.08,5.23,24.79a2.92,2.92,0,0,0,2.48,2.3l3.82.49a2.9,2.9,0,0,0,3.26-2.57l.81-7a2.92,2.92,0,0,1-3.07,1.82l-3.82-.48a2.92,2.92,0,0,1-2.48-2.3l-5.23-24.8-9.94-1.09Z"/>
<path class="cls-32" d="M2417.43,2959.06l10,1.09,5.14,24.31a2.92,2.92,0,0,0,2.48,2.3l3.82.48a2.91,2.91,0,0,0,3.26-2.57l.8-7.05a2.91,2.91,0,0,1-3.07,1.83L2436,2979a2.93,2.93,0,0,1-2.48-2.3l-5.13-24.31-10.08-1.11Z"/>
<path class="cls-32" d="M2390.08,2956.06l10.14,1.11,5,23.8a2.92,2.92,0,0,0,2.48,2.3l3.82.49a2.92,2.92,0,0,0,3.26-2.58l.8-7a2.9,2.9,0,0,1-3.06,1.83l-3.82-.49a2.9,2.9,0,0,1-2.48-2.3l-5-23.79-10.26-1.14Z"/>
<path class="cls-32" d="M2362.73,2953.06c3.46.36,6.9.74,10.3,1.11l4.92,23.31a2.91,2.91,0,0,0,2.48,2.3l3.82.49a2.9,2.9,0,0,0,3.26-2.57l.81-7a2.92,2.92,0,0,1-3.07,1.82l-3.82-.48a2.92,2.92,0,0,1-2.48-2.3l-4.93-23.31c-3.43-.38-6.91-.77-10.41-1.13Z"/>
<path class="cls-32" d="M1355.64,2859.4c1.4.53,3.76,1.45,6.78,2.63,13.3-4.13,40.8-8.68,72.94-6.87,49.23,2.75,248.25,25.23,248.25,25.23l3.4-4.82,31.44,3.6-.71,5.52a1.63,1.63,0,0,0,1.41,1.82l8.34,1.07a1.65,1.65,0,0,0,1.85-1.41l.72-5.65,10.33,1.18-.74,5.79a1.62,1.62,0,0,0,1.41,1.82l8.34,1.07a1.64,1.64,0,0,0,1.83-1.41l.76-5.95,11.36,1.31-.78,6.09a1.62,1.62,0,0,0,1.41,1.82l8.34,1.07a1.66,1.66,0,0,0,1.85-1.41l.79-6.24,10.33,1.18-.81,6.37a1.63,1.63,0,0,0,1.41,1.83l8.34,1.06a1.61,1.61,0,0,0,1.82-1.41l.84-6.51,9.15,1.06-.84,6.62a1.63,1.63,0,0,0,1.41,1.83l8.34,1.06a1.63,1.63,0,0,0,1.84-1.41l.87-6.78,10.31,1.18-.89,6.92a1.66,1.66,0,0,0,1.43,1.83l8.35,1.06a1.62,1.62,0,0,0,1.82-1.41l.9-7.06,11.37,1.3-.93,7.21a1.63,1.63,0,0,0,1.41,1.82l8.35,1.07a1.64,1.64,0,0,0,1.84-1.41l.94-7.35,10.31,1.18-1,7.49a1.65,1.65,0,0,0,1.43,1.82l8.34,1.07a1.64,1.64,0,0,0,1.83-1.41l1-7.64,16.79,1.93-3.35,30.29,49.55,5.64,4-30.61,91.07,9.24,3.83,3.55,299.52,32.93,4.81,22.8a2.92,2.92,0,0,0,2.48,2.3l3.82.48a2.91,2.91,0,0,0,3.26-2.57l.8-7.05A2.91,2.91,0,0,1,2358,2969l-3.82-.49a2.93,2.93,0,0,1-2.48-2.3l-4.81-22.8-299.52-32.92-3.82-3.56-91.07-9.24-4,30.61-49.56-5.64,3.36-30.29-16.79-1.93-1,7.64a1.61,1.61,0,0,1-1.82,1.41l-8.34-1.06a1.64,1.64,0,0,1-1.43-1.83l.95-7.48-10.3-1.18-.94,7.35a1.65,1.65,0,0,1-1.85,1.4l-8.34-1.06a1.63,1.63,0,0,1-1.41-1.83l.92-7.21-11.36-1.29-.9,7.05a1.64,1.64,0,0,1-1.83,1.42l-8.34-1.07a1.65,1.65,0,0,1-1.43-1.83l.88-6.92-10.3-1.18-.87,6.79a1.66,1.66,0,0,1-1.85,1.41l-8.34-1.07a1.63,1.63,0,0,1-1.41-1.82l.85-6.63-9.16-1.05-.83,6.51a1.63,1.63,0,0,1-1.82,1.41l-8.35-1.07a1.63,1.63,0,0,1-1.41-1.82l.82-6.37-10.33-1.19-.8,6.24a1.64,1.64,0,0,1-1.84,1.41l-8.34-1.07a1.61,1.61,0,0,1-1.41-1.82l.77-6.08-11.36-1.31-.76,5.94a1.62,1.62,0,0,1-1.82,1.41l-8.34-1.06a1.63,1.63,0,0,1-1.41-1.83l.73-5.79-10.32-1.18-.73,5.65a1.63,1.63,0,0,1-1.84,1.41l-8.34-1.06a1.63,1.63,0,0,1-1.41-1.83l.7-5.51-31.43-3.6-3.41,4.81s-199-22.48-248.25-25.22S1348.79,2856.72,1355.64,2859.4Z"/>
<path class="cls-26" d="m1204.7 3121.7a4.37 4.37 0 0 0 3.66 5.2l9.74 1.25a4.31 4.31 0 0 1-3.67-5.09l27.26-139.87a3 3 0 0 1 4.27-2l15.38 8.11-24.63-13.29a3 3 0 0 0-4.27 2.12z"/>
<path class="cls-33" d="m2457.4 3121.4a33.8 33.8 0 0 0 0.09 9.36 4.48 4.48 0 0 0 3.89 3.79l42.84 5.47a4.55 4.55 0 0 0 4.84-3 40.71 40.71 0 0 0 2.11-8.76 40.3 40.3 0 0 0 0.33-4.91 36.66 36.66 0 0 1-1.19 3.93 4.56 4.56 0 0 1-4.84 3l-42.84-5.47a4.46 4.46 0 0 1-3.89-3.79 30.94 30.94 0 0 1-0.37-4.44 32.94 32.94 0 0 0-0.97 4.82z"/>
<path class="cls-34" d="M2423.27,3015.24a11.66,11.66,0,0,0-.35,1.19,17.65,17.65,0,0,1-15.67,14.76,22.31,22.31,0,0,1-11.59-1.54,17.4,17.4,0,0,1-10.59-12.26,22.17,22.17,0,0,1,1.39-14.87,17.06,17.06,0,0,1,11.5-9.78,23,23,0,0,1,11.9.05,17.49,17.49,0,0,1,8.6,4.84,18.75,18.75,0,0,1,3.81,6.23c.17.43-.1.51-.4.59l-5,1.45-3.31.95c-.67.2-.66.2-.91-.49a8.61,8.61,0,0,0-3.13-4.43,9.13,9.13,0,0,0-12.69,2.52,14.56,14.56,0,0,0-2.32,7.68,11.68,11.68,0,0,0,1.21,6.1,8.76,8.76,0,0,0,7.05,4.66,9.15,9.15,0,0,0,5.64-.73,6.38,6.38,0,0,0,3.11-3.88c.15-.45-.19-.48-.49-.51l-6.53-.73c-.78-.09-.78-.08-.7-.84.22-2,.44-4,.67-6,.07-.69.08-.7.76-.62l18.44,2C2423.54,3012.82,2423.4,3014,2423.27,3015.24Z"/>
<path class="cls-34" d="M2158.78,2962.58a2.34,2.34,0,0,1,.13.73c-.22,2.12-.45,4.25-.71,6.37-.06.52.08.74.62.79q3.1.32,6.2.69c.52.07.7-.11.76-.61.21-2.15.47-4.29.69-6.43.05-.46.2-.62.66-.56,1.33.17,2.65.32,4,.44.5.05.61.25.56.73q-1,9.27-2.07,18.55c-.08.72-.12.75-.84.67-1.25-.13-2.5-.29-3.75-.4-.52-.05-.66-.27-.6-.77.27-2.23.51-4.47.75-6.7.1-.84.07-.87-.74-1l-5.92-.65c-.75-.09-.8,0-.89.69-.24,2.24-.49,4.47-.74,6.71-.08.72-.12.75-.84.67-1.25-.14-2.5-.29-3.75-.41-.46,0-.66-.2-.6-.7q1-9.39,2.08-18.78c.05-.46.25-.55.66-.5,1.12.14,2.24.26,3.36.38.22,0,.44,0,.67,0Z"/>
<path d="M2187.17,2965.73a6.5,6.5,0,0,1,0,.88c-.09,1-.22,2-.31,3,0,.44-.23.56-.66.51-1.64-.2-3.28-.36-4.91-.56-.51-.06-.73.07-.77.6,0,.71-.12,1.42-.23,2.12-.08.47.09.64.55.68,1.53.15,3,.35,4.58.49.5,0,.69.21.61.74-.15,1-.26,2.05-.34,3.08,0,.5-.25.62-.73.56-1.47-.19-2.94-.34-4.41-.5-.78-.09-.81-.06-.9.74s-.13,1.34-.23,2c-.08.51.12.71.62.76,1.62.16,3.24.36,4.86.52.5.05.64.24.57.72-.14,1-.25,2-.34,3.07,0,.47-.2.65-.71.59q-5-.59-10.05-1.12c-.49-.05-.63-.23-.58-.71q1.05-9.36,2.08-18.72c.05-.51.26-.6.72-.54q4.86.55,9.73,1.08a5.72,5.72,0,0,0,.72,0Z"/>
<path class="cls-34" d="M2151.29,2961.75a2.35,2.35,0,0,1,.13.57c-.11,1.1-.25,2.2-.36,3.29,0,.41-.21.55-.62.5-1-.12-2-.2-3-.34-.54-.08-.73.09-.79.63-.5,4.69-1,9.38-1.55,14.07-.09.84-.09.84-.93.75l-3.51-.39c-.81-.09-.83-.11-.74-.89l1.55-14c.09-.86.1-.85-.79-1l-3.4-.42.49-4.36.56.07a4.15,4.15,0,0,0,.48.11l11.54,1.28a4.17,4.17,0,0,0,.5,0Z"/>
<path class="cls-34" d="m2247.8 3014.2a21.25 21.25 0 0 1-13.37-6.51 18.27 18.27 0 0 1-5-11.53c-0.45-7.19 2.07-13.11 7.86-17.5a18.66 18.66 0 0 1 8.79-3.55 23 23 0 0 1 11.36 1.11c6.68 2.44 11.14 7.05 12.74 14.07a19.42 19.42 0 0 1-9.06 21.23 19.71 19.71 0 0 1-9.31 2.7c-1.34 0.06-2.68-0.01-4.01-0.02z"/>
<path class="cls-34" d="M2363.79,3011.1a5.4,5.4,0,0,0,.11-.58l2.34-21c.08-.76.08-.76.86-.68,2.73.31,5.45.62,8.19.9.45.05.58.2.52.66q-2,17.93-4,35.85c0,.48-.22.6-.69.55q-4.17-.49-8.34-.93a1.16,1.16,0,0,1-1-.6q-6-9.73-12.06-19.45c-.81-1.31-1.63-2.62-2.43-3.94a2.53,2.53,0,0,1-.18-.55l-.3.16c0,.16-.08.31-.1.47l-2.34,21.14c-.08.69-.1.71-.76.64-2.77-.31-5.53-.63-8.29-.92-.49-.05-.65-.2-.59-.71q2-17.88,4-35.75c.07-.64.09-.65.75-.58,2.8.31,5.59.63,8.39.92a1.06,1.06,0,0,1,.86.56q7.29,11.78,14.58,23.52a2.24,2.24,0,0,1,.16.5A1.82,1.82,0,0,0,2363.79,3011.1Z"/>
<path class="cls-34" d="M2216.4,2989.56c.84.39,1.58.68,2.28,1.05a7.51,7.51,0,0,1,4.19,6.72,11.9,11.9,0,0,1-1.47,6.58,9.79,9.79,0,0,1-6.88,4.68,18.56,18.56,0,0,1-5.76.13c-4.92-.54-9.84-1.1-14.77-1.63-.48-.05-.64-.2-.58-.71q2-17.9,4-35.8c0-.42.16-.61.63-.55,4.87.56,9.74,1.07,14.61,1.66a11.3,11.3,0,0,1,5.32,2,7.77,7.77,0,0,1,3.25,5.76,12.61,12.61,0,0,1-.7,5.74,7.74,7.74,0,0,1-3.54,4C2216.79,2989.28,2216.63,2989.4,2216.4,2989.56Zm-12.19,7.13c-.13,1.14-.25,2.28-.38,3.41,0,.31,0,.58.38.6,1.68.1,3.36.27,5,.27a5.17,5.17,0,0,0,2.2-.57,3.26,3.26,0,0,0,1.75-3.29,3.3,3.3,0,0,0-2.27-3.17,19.9,19.9,0,0,0-5.8-1.14c-.36,0-.5.13-.53.47C2204.47,2994.41,2204.34,2995.55,2204.21,2996.69Zm1.63-14.7c-.11,1-.22,2.07-.34,3.11-.05.34.06.55.41.57a27.56,27.56,0,0,0,3.27.11,3.06,3.06,0,0,0,2.91-2.43,3.35,3.35,0,0,0-1.65-4.12,9.63,9.63,0,0,0-3.85-.77c-.12,0-.37.29-.39.47C2206.05,2980,2206,2981,2205.84,2982Z"/>
<path class="cls-34" d="M2309.23,3019.83a5.08,5.08,0,0,1-.61,0l-10.68-1.17a1,1,0,0,1-.87-.61q-3.43-6.93-6.9-13.85a1.19,1.19,0,0,0-.44-.5,6,6,0,0,0-.13.61q-.7,6.28-1.4,12.59c-.07.65-.08.66-.74.58l-8.24-.91c-.68-.08-.7-.1-.63-.77l4-35.65c0-.44.12-.7.68-.64,5,.58,10,1.1,15,1.71a12.18,12.18,0,0,1,7.16,3.17,10.47,10.47,0,0,1,3.25,7.72,13.16,13.16,0,0,1-1.24,6.07,9.06,9.06,0,0,1-6.61,5c-.27.06-.54.12-.81.16-.55.08-.61.19-.33.65l3,5q3.16,5.22,6.31,10.44C2309.05,3019.47,2309.11,3019.59,2309.23,3019.83Zm-18.32-27.36c-.15,1.35-.29,2.69-.45,4,0,.33,0,.61.4.62a39,39,0,0,0,4,.09,4.06,4.06,0,0,0,3.72-3.51,4.2,4.2,0,0,0-2.48-4.86,13.56,13.56,0,0,0-4.15-.92c-.43,0-.59.08-.64.5C2291.22,2989.78,2291.06,2991.13,2290.91,2992.47Z"/>
<path class="cls-34" d="M2327,3003.13q-1,9-2,17.93c0,.42-.19.57-.62.52q-4.26-.49-8.5-.95c-.5-.05-.58-.27-.53-.72q.87-7.6,1.7-15.22l2.27-20.47c.08-.69.09-.69.77-.62l8.29.92c.66.07.66.08.58.74l-2,17.87Z"/>
<path class="cls-34" d="M2496.22,3030.84a2.55,2.55,0,0,0-.27.4q-2.41,4.4-4.82,8.82a.81.81,0,0,1-.94.51c-1.54-.21-1.21,0-1.58-1.36-.82-3-1.62-6.07-2.44-9.11a4.17,4.17,0,0,0-.19-.44h-.15c-.16.55-.32,1.11-.47,1.66q-1.07,4-2.12,8c-.08.32-.22.44-.55.4l-3.83-.43c-.44,0-.44-.29-.34-.62.32-1.11.65-2.23,1-3.35l2.16-7.56c.59-2,1.18-4.07,1.75-6.11.12-.42.31-.59.78-.53,1.17.17,2.34.3,3.52.4a.73.73,0,0,1,.77.66c.68,2.73,1.38,5.45,2.07,8.18.11.42.23.84.35,1.26h.18c.21-.39.42-.77.62-1.17,1.27-2.5,2.55-5,3.8-7.53a.69.69,0,0,1,.81-.45c1.23.16,2.45.29,3.68.41.39,0,.52.19.54.59q.36,6.24.74,12.48c.1,1.77.18,3.54.3,5.31,0,.44-.13.54-.53.5-1.21-.15-2.42-.29-3.63-.4-.45,0-.59-.25-.6-.67-.06-1.89-.14-3.78-.21-5.67-.05-1.23-.09-2.47-.14-3.7a3.94,3.94,0,0,0-.1-.47Z"/>
<path class="cls-34" d="M2550.09,3035.89a7.72,7.72,0,0,0-.17.77l-1.08,9.69c-.08.7-.09.71-.81.63-1.16-.12-2.31-.26-3.47-.37-.42,0-.57-.2-.52-.64q1-8.7,1.93-17.4c.05-.39.19-.55.6-.5,1.28.16,2.56.27,3.83.45a1.11,1.11,0,0,1,.68.46q3.48,5.57,6.93,11.15c.1.16.24.31.45.59.07-.35.12-.55.14-.74l1.08-9.74c.08-.7.08-.7.76-.62,1.16.13,2.31.27,3.47.37.44,0,.6.18.55.65q-1,8.7-1.93,17.4c-.05.45-.24.54-.65.49-1.2-.15-2.41-.29-3.62-.4a1.06,1.06,0,0,1-.87-.56q-3.45-5.58-6.92-11.16C2550.39,3036.27,2550.28,3036.15,2550.09,3035.89Z"/>
<path class="cls-34" d="m2464 3038.2c-4.06-0.62-7.09-2.4-8.65-6.12a9.71 9.71 0 0 1 7.54-13.42 10.81 10.81 0 0 1 9.29 2.66 9.16 9.16 0 0 1 3 8.35 9.58 9.58 0 0 1-9.11 8.49c-0.77 0.05-1.51 0.03-2.07 0.04zm-4.31-10.45a5.27 5.27 0 1 0 5.78-4.52 5.15 5.15 0 0 0-5.77 4.52z"/>
<path class="cls-34" d="M2537.21,3045.78c-.61-.07-1.21-.17-1.82-.19a.72.72,0,0,1-.78-.71c-.15-.74-.35-1.48-.49-2.23a.61.61,0,0,0-.62-.57q-3-.32-5.91-.66a.65.65,0,0,0-.73.43c-.34.74-.7,1.48-1,2.22a.57.57,0,0,1-.66.38L2521,3044c-.39,0-.46-.19-.28-.55q4.29-8.3,8.54-16.62a.86.86,0,0,1,1-.57c1.34.2,2.69.33,4,.46a.67.67,0,0,1,.66.59l4.18,16.12.54,2.07c.12.41,0,.59-.44.53C2538.59,3045.92,2537.9,3045.86,2537.21,3045.78Zm-5.53-13.66a3.35,3.35,0,0,0-.37.47c-.77,1.59-1.52,3.18-2.3,4.77-.2.4-.13.56.32.61,1.08.1,2.17.23,3.25.36.46.05.54-.11.43-.53-.22-.84-.39-1.69-.58-2.53S2532,3033.29,2531.68,3032.12Z"/>
<path class="cls-34" d="M2507.66,3033.11l1-8.59c.07-.65.09-.66.74-.59,2.45.28,4.91.5,7.35.86a9.61,9.61,0,0,1,2.84.95,4.83,4.83,0,0,1,2.55,4.16,7.69,7.69,0,0,1-.84,4.49c-1.18,2.14-3.14,2.82-5.45,2.73-1,0-2.07-.19-3.11-.32-.44-.06-.62.07-.67.53-.16,1.67-.37,3.35-.54,5,0,.43-.2.57-.62.51-1.21-.15-2.42-.29-3.63-.4-.48,0-.6-.23-.55-.7C2507,3038.88,2507.34,3036,2507.66,3033.11Zm5.13-2.5c-.07.62-.13,1.24-.21,1.86,0,.3.07.47.39.49.53.05,1.07.14,1.6.16a2.24,2.24,0,0,0,2.51-2.68,1.9,1.9,0,0,0-1.44-1.78c-.7-.17-1.43-.25-2.15-.36-.34-.05-.46.14-.49.45Z"/>
<path class="cls-34" d="M2451.75,3030.41l-.1.92c-.15,1.29-.31,2.59-.42,3.88a.73.73,0,0,1-.7.74,11.29,11.29,0,0,1-4.33.24,9.56,9.56,0,0,1-7.68-6.43,9.71,9.71,0,0,1,7-12.88,10,10,0,0,1,7.15,1.06.68.68,0,0,1,.34.55c-.15,1.65-.34,3.28-.53,4.92,0,.05,0,.09-.08.16-2.56-2.62-5.33-3.29-8.14-.54a5.13,5.13,0,0,0-.42,6.5,4.89,4.89,0,0,0,3.67,2.1,5.72,5.72,0,0,0,4.06-1.31Z"/>
<path class="cls-34" d="M2568.22,3030.51l.6,0c1.51.17,3,.35,4.51.49a.88.88,0,0,1,.76.53q1.15,2.22,2.34,4.42c.28.53.35.54.75.08,1.06-1.24,2.12-2.48,3.16-3.74a1,1,0,0,1,1-.4c1.49.19,3,.34,4.46.51.16,0,.32.06.58.11-.14.19-.22.32-.32.43-2.36,2.68-4.74,5.35-7.1,8a1.86,1.86,0,0,0-.4.92q-.47,3.85-.86,7.71c0,.51-.23.64-.73.58-1.19-.17-2.38-.29-3.57-.4-.43,0-.55-.21-.5-.64.3-2.57.59-5.14.85-7.71a2.09,2.09,0,0,0-.22-1.13c-1.65-3.07-3.34-6.13-5-9.19C2568.4,3031,2568.34,3030.78,2568.22,3030.51Z"/>
<path class="cls-35" d="m2311.6 3285.1a74.13 74.13 0 0 1 72.29-111 74.11 74.11 0 0 1 130.73 53.25c-2.86 37.1-26.56 68-65 84.83-33.27 14.55-84.65 21.61-120-6.33a74.1 74.1 0 0 1-18.02-20.75z"/>
<path class="cls-35" d="m1562.7 3257.9a74 74 0 0 1-23-12.73c-18-14.63-29.13-36.12-33.22-63.87a156.75 156.75 0 0 1 1.17-51.89c8.12-41.19 33.2-71 68.81-81.79a74.11 74.11 0 0 1 80.19 116.17 74.13 74.13 0 0 1-94 94.11z"/>
<path class="cls-36" d="m1589.8 3230.9a73.55 73.55 0 0 1-23-12.73c-18-14.63-29.14-36.11-33.23-63.87a157 157 0 0 1 1.18-51.89 119 119 0 0 1 17.43-43.41c-22.6 14.85-38.33 39.41-44.43 70.41a157 157 0 0 0-1.18 51.89c4.09 27.76 15.27 49.24 33.23 63.87a74.15 74.15 0 0 0 110.94-20.3 74.31 74.31 0 0 1-60.94 6.03z"/>
<path class="cls-36" d="m2514.6 3227.3c0.07-1 0.13-1.94 0.16-2.9-10.85 20.71-29.62 37.61-54.64 48.54-33.28 14.54-84.66 21.61-120-6.34a73.91 73.91 0 0 1-28.08-57 74 74 0 0 0 17.54 96.21c35.29 28 86.68 20.89 120 6.35 38.45-16.83 62.15-47.75 65.02-84.86z"/>
</svg>
