<?xml version="1.0" encoding="UTF-8"?>
<svg viewBox="0 0 4e3 4e3" xmlns="http://www.w3.org/2000/svg">
<defs>
<style>.cls-1{fill:#ffcd98;stroke:#333;stroke-miterlimit:10;stroke-width:5px;}.cls-2{opacity:0.08;}.cls-3{fill:#fff;}.cls-4{opacity:0.05;}.cls-5{fill:#7f6145;}.cls-6{opacity:0.1;}.cls-7{opacity:0.2;}.cls-8{fill:#3d0c0c;}.cls-9{fill:#b34a31;}.cls-10{fill:#d6d6d6;}.cls-11{fill:#181818;}.cls-12{fill:#eaeaea;}.cls-13{fill:#c1c1c1;}.cls-14{fill:#933b2a;}.cls-15{fill:#b5482c;}</style>
</defs>
<title>mouth4</title>
<path class="cls-1" d="m2638.4 2122.8c-0.2-23.7 111.61-69.84 111.45-275.69-0.25-318.49-258.75-643.25-482.28-643.25-155.64 0-248.88 116.58-268 116.74-22.73 0.2-95.64-116.75-268-116.74-223.2 0-482.73 324.76-482.47 643.25 0.17 199.4 111.75 254.94 111.93 275.55s-236.85 48.83-236.85 281.27c0 178 449 511.08 910.31 497.74 420.49-12.16 840.86-314.91 840.86-524.16-0.07-232.13-236.76-233.58-236.95-254.71zm-689.76-296.93c-10.8 55.65-39.63 104.35-81.16 137.14-32.82 25.91-70.48 39.45-108.51 39.45a161.3 161.3 0 0 1-30.65-3c-99.16-19.2-161.67-128.41-139.35-243.41s121.16-192.88 220.32-173.63c48.1 9.34 89.08 39.84 115.39 85.9s34.76 101.91 23.96 157.55zm439.53 81c-25.51 46.51-65.95 77.73-113.88 87.9a160.79 160.79 0 0 1-33.39 3.52c-37.09 0-73.93-12.87-106.38-37.58-42.11-32.06-71.77-80.25-83.54-135.7s-4.24-111.53 21.21-157.93 66-77.73 113.88-87.91c98.8-21 199 55.18 223.31 169.76 11.77 55.42 4.23 111.51-21.21 157.91z"/>
<path class="cls-2" d="m2875.3 2377.5c0 209.26-420.37 512-840.86 524.16-461.31 13.34-910.31-319.74-910.31-497.74q0-7.14 0.3-14c38.59 182.8 468.4 486 909.44 473.26 406.19-11.75 812.27-294.09 841-502.25q0.43 8.11 0.43 16.57z"/>
<path class="cls-3" d="m1758.3 1403.1c-172.54-20-337.69 181.45-333.36 371.56 3.24 141.94 101.7 310.86 253.5 328.16 167.19 19 313.5-155.61 329.88-323 16.46-167.97-95.13-358.73-250.02-376.72zm190.38 422.76c-10.8 55.65-39.63 104.35-81.16 137.14-32.82 25.91-70.48 39.45-108.51 39.45a161.3 161.3 0 0 1-30.65-3c-99.16-19.2-161.67-128.41-139.35-243.41s121.16-192.88 220.32-173.63c48.1 9.34 89.08 39.84 115.39 85.9s34.76 101.91 23.96 157.55z"/>
<path class="cls-4" d="m1834.5 1427a214.27 214.27 0 0 0-31.9-6.17c-175.15-20.17-342.8 182.73-338.41 374.18 2.47 107.25 59.36 229.79 152.7 291.65-116.4-48.78-189.2-190.33-192-312-4.33-190.11 160.82-391.59 333.36-371.55a217.6 217.6 0 0 1 76.25 23.89z"/>
<path class="cls-3" d="m2234 1398.9c-154.54 20.68-262.79 213.36-243.4 381.08 19.3 167 168.63 339.1 335.47 317.13 151.47-19.94 247-190.55 247.73-332.52 0.98-190.16-167.66-388.73-339.8-365.69zm154.23 507.88c-25.51 46.51-65.95 77.73-113.88 87.9a160.79 160.79 0 0 1-33.39 3.52c-37.09 0-73.93-12.87-106.38-37.58-42.11-32.06-71.77-80.25-83.54-135.7s-4.24-111.53 21.21-157.93 66-77.73 113.88-87.91c98.8-21 199 55.18 223.31 169.76 11.74 55.45 4.2 111.54-21.24 157.94z"/>
<path class="cls-4" d="m2573.8 1764.6c-0.66 123.27-72.75 268.13-190.88 317.21 95.29-61.62 152.08-188.08 152.66-297.55 1-190.6-168-389.61-340.57-366.52a211.81 211.81 0 0 0-45.38 11.34c26-15.6 54.29-26.14 84.37-30.17 172.17-23.04 340.81 175.53 339.8 365.69z"/>
<path class="cls-5" d="m1784 2081.4c0 75.28 98.57 166.65 215.68 165.63 107.93-0.94 213.18-91.24 213.18-165.41 0-59.68-124.17-112.16-213.18-111.39-82.63 0.72-215.68 40.57-215.68 111.17z"/>
<path class="cls-6" d="m2212.9 2101.6c0 74.17-105.25 164.47-213.18 165.41-117.11 1-215.68-90.35-215.68-165.63a54.18 54.18 0 0 1 0.71-8.78c9 72.83 103.62 155.38 215 154.41 102.38-0.89 202.34-82.18 212.35-153.85a43.67 43.67 0 0 1 0.8 8.44z"/>
<path class="cls-7" d="m2212.9 2081.6c0 74.17-105.25 164.47-213.18 165.41-117.11 1-215.68-90.35-215.68-165.63a55.09 55.09 0 0 1 0.79-9.31c42.18 52.17 123.35 95.66 214.39 94.95 85.09-0.67 168.69-45.29 211.9-97.87a45.3 45.3 0 0 1 1.78 12.45z"/>
<path class="cls-8" d="m2604.8 2327.5c32.86-4.67 56.78 23.09 47.76 56.23-11.92 43.71-35.48 86.91-68.72 127.63q-11.32 13.9-24.2 27.4c-117.14 123.43-325 216.52-562.28 216.12-237.33 0.4-445.14-92.69-562.28-216.12q-12.84-13.48-24.2-27.4c-33.25-40.72-56.79-83.92-68.71-127.63-9-33.14 14.89-60.9 47.75-56.23a4319.3 4319.3 0 0 0 1214.9 0z"/>
<path class="cls-8" d="m1998.9 2773.6h-3.05c-114.34 0-229-21.76-331.62-63-97-39-180.93-93.93-242.66-159-8.9-9.34-17.37-18.93-25.14-28.47-35.44-43.4-59.75-88.66-72.25-134.51-6.06-22.23-1.46-44.13 12.62-60.09 13.71-15.53 34-22.65 55.79-19.56a4300.7 4300.7 0 0 0 604.81 42.75 4300.6 4300.6 0 0 0 604.81-42.7c21.75-3.09 42.09 4 55.79 19.56 14.08 16 18.68 37.86 12.63 60.08-12.5 45.85-36.82 91.11-72.27 134.53-7.83 9.61-16.3 19.2-25.16 28.49-61.7 65-145.61 120-242.63 158.94-102.58 41.22-217.28 62.98-331.67 62.98zm-1.53-37.38h1.47c109.73 0 219.56-20.83 317.8-60.28 92.07-37 171.42-88.84 229.48-150 8.23-8.62 16-17.47 23.28-26.34 32.13-39.36 54.05-80 65.17-120.73 2.68-9.87 1-19.17-4.6-25.53-5.3-6-13.29-8.6-22.5-7.29a4336 4336 0 0 1-1220.1 0c-9.2-1.31-17.2 1.28-22.5 7.29-5.61 6.36-7.28 15.66-4.59 25.53 11.12 40.77 33 81.38 65.15 120.72 7.18 8.81 15 17.66 23.26 26.33 58.09 61.2 137.44 113.08 229.51 150 98.23 39.45 208.08 60.28 317.75 60.28z"/>
<path class="cls-3" d="m2442.1 2633.4c-117.54 73.35-273.43 121.75-444.69 121.46-171.25 0.29-327.12-48.1-444.66-121.44a6224.6 6224.6 0 0 0 889.35-0.02z"/>
<path class="cls-2" d="m1928.8 2752.4c-144.13-10.75-274.43-55.51-376.06-118.93q44 3.15 88 5.68c81.46 53.77 179.83 94.24 288.06 113.25z"/>
<path class="cls-2" d="m2442.1 2633.4a756.16 756.16 0 0 1-119.55 60.26 706.76 706.76 0 0 0 88.11-58.09q15.71-1.04 31.44-2.17z"/>
<path class="cls-9" d="M3132.37,2587s-4,239.11-199.34,207.23c-52.85-8.62-117.39-24.25-184.07-43.3-1.77-.5-3.53-1-5.3-1.52-66.86-19.24-135.61-41.83-196.64-64.17-1.7-.61-3.37-1.23-5-1.85-48-17.68-91-35.14-124.27-50.6-1.65-.76-3.26-1.52-4.85-2.27-32.88-15.55-55.37-28.92-62.39-38.22-32.1-42.53-34.93-87.15,39.69-112.08,13.5-4.51,42.37-7.47,80.89-9.23l6.31-.27c39.67-1.63,88.76-2.08,141.51-1.69l6.44,0c58.28.49,120.68,2,179.54,4l5.91.2c121.78,4.18,227.26,10.48,247.94,14.62Z"/>
<path class="cls-10" d="m2934.5 2481.8c-15.11 1.72-40.92 6-46.34 21.21-5.1 14.38 11.65 28.17 5.29 38.66-8.24 13.6-42.26 0.18-49.33 13-5.46 9.88 13.05 21.24 10 41.85-2.47 16.56-15.64 17.45-16.45 31.35-1.17 20 25.65 25.68 27 48.36 1.09 18.82-17.53 25.13-13.35 39.27 4.77 16.14 31.33 16.39 33.95 33.49 1.12 7.32-3.58 8.3-2.53 15.2 3.19 20.94 49.81 31.11 68.92 32.93 13.07 1.25 18-0.16 34.65 2.44 15.85 2.48 26.88 6.39 33.67 8.3 0 0 14.25 4 43.4 1.52 47.14-4.05 174-109.15 145.45-209.39-6.16-21.62-17.58-35.11-29.59-49.31-74.6-88.15-196.59-74.33-244.74-68.88z"/>
<path class="cls-11" d="m2986.2 2799.5a190.21 190.21 0 0 1 25.26 5.79c-10.48-2.39-19.12-4.37-25.26-5.79z"/>
<path class="cls-12" d="m2976.5 2797.2c1.2 0.45 2.64 1 4.28 1.5-12.49-1.55-17.65-0.58-29.17-1.68-19.11-1.82-65.74-12-68.92-32.93-1.06-6.9 3.65-7.88 2.53-15.19-2.61-17.11-29.18-17.36-33.95-33.51-4.18-14.12 14.44-20.44 13.35-39.26-1.3-22.68-28.13-28.35-27-48.36 0.82-13.9 14-14.79 16.46-31.35 3.08-20.61-15.43-32-10-41.85 7.06-12.78 41.08 0.64 49.32-13 6.36-10.49-10.4-24.27-5.28-38.67 5.4-15.23 31.23-19.48 46.34-21.19 16.21-1.84 40.77-4.63 69.08-4.14-19.7 0.66-36.62 2.57-48.81 4-15.1 1.72-40.92 6-46.33 21.21-5.11 14.38 11.64 28.17 5.29 38.67-8.24 13.59-42.27 0.17-49.33 13-5.47 9.88 13 21.24 10 41.86-2.46 16.55-15.64 17.44-16.45 31.35-1.17 20 25.66 25.68 27 48.35 1.08 18.82-17.54 25.13-13.36 39.27 4.78 16.14 31.33 16.4 34 33.49 1.11 7.33-3.59 8.31-2.54 15.21 3.19 20.93 49.81 31.1 68.92 32.93 1.62 0.08 3.11 0.21 4.57 0.29z"/>
<path class="cls-13" d="M3050.27,2481.61a10.57,10.57,0,0,0-1.59-.15c-30.63-1-57.35,2.06-74.61,4-15.11,1.7-40.92,6-46.34,21.2-3.15,8.89-.8,19.1.19,27.95a11.71,11.71,0,0,1-8.62,12.6c-14.33,3.83-31.3,3.26-35.61,11.07-5.45,9.88,13,21.24,10,41.85-2.47,16.57-15.64,17.45-16.45,31.35-.45,7.65,4.22,12.43,7.95,18.42,7.11,11.44,10.19,25.91,10.64,30.35,1.9,18.75-14.91,28-5,38.86,6.79,7.44,10.7,8.66,19.34,20.3,5.19,7,6.08,21.13,6.65,24.6,2.84,17.24,35.74,29.52,57.25,34h0c2,.14,4.18.34,6.66.66-1.64-.54-3.07-1-4.28-1.5h0l-1.89-.49c-.6-.15-1.21-.32-1.82-.49l-.32-.08c-1-.28-2.1-.58-3.16-.89-2.81-.8-5.7-1.7-8.67-2.67-17.35-5.73-26.14-8.74-31.59-15.94,8-6.8-16-49.14-19.11-55.45-5.75-11.5,3.62-16.35.31-33.42-.34-1.75-8.72-15.71-8.46-28.24.22-10.45,8.24-18.86,4.92-22.11a18.9,18.9,0,0,1-4.29-5.66,13.78,13.78,0,0,1-1.17-8.05c1-7.36,5.14-7.39,6.92-15.9,2-9.77-3-12.71-.31-19.11,3.31-7.76,11.6-5.38,16.48-13.18,3.74-5.95,4.11-15.32,5.31-23.59a11.69,11.69,0,0,1,6.91-9,149.69,149.69,0,0,0,16-7.86c13.62-8.19,19.07-18.59,23.87-24.49,21.67-26.69,79.21-22.19,89.15-21.41,21,1.64,44.4,9.07,66.54,21.35C3105.92,2494.7,3077.58,2486,3050.27,2481.61Zm-122.78,292.84-.38-.6c-.45-.74-.88-1.5-1.28-2.27.88,1.49,1.63,2.74,2.2,3.68C2927.85,2775,2927.66,2774.73,2927.49,2774.45Z"/>
<path class="cls-11" d="m3011.5 2805.3c-10.45-2.39-19.12-4.37-25.26-5.79 3.05 0.47 5.93 1 8.63 1.56 6.55 1.36 12.08 2.88 16.63 4.23z"/>
<path class="cls-11" d="m3057.1 2809.7-1.22 0.23c-6.32 0.31-12.06 0.25-17 0 5.03 0.22 11.11 0.2 18.22-0.23z"/>
<path class="cls-14" d="m2810.8 2473.2-5.91-0.2a405.12 405.12 0 0 0-36 70.81 415.83 415.83 0 0 0-28.5 156 422.19 422.19 0 0 0 3.31 49.57c1.77 0.52 3.53 1 5.3 1.52a422.68 422.68 0 0 1-3.54-51.13 410.89 410.89 0 0 1 28.15-154.11 399 399 0 0 1 37.19-72.46z"/>
<path class="cls-14" d="M2618.87,2469a363.07,363.07,0,0,0-48.32,81.61A354.29,354.29,0,0,0,2542,2683.34c1.67.62,3.34,1.24,5,1.85a349.51,349.51,0,0,1,28.19-132.6,358,358,0,0,1,50.1-83.57Z"/>
<path class="cls-14" d="m2471 2470.9a362.6 362.6 0 0 0-31.69 58.64 354.33 354.33 0 0 0-26.5 100.89c1.59 0.75 3.2 1.51 4.85 2.27a349.15 349.15 0 0 1 26.29-101.17 356 356 0 0 1 33.33-60.9z"/>
<path class="cls-7" d="m2936.1 2794.7c-1-0.15-2.06-0.32-3.09-0.49-195.34-31.87-550.47-159.41-582.56-201.93-16.48-21.84-25.25-44.23-19.77-64.22a150.44 150.44 0 0 0 9.18 13.6c29.57 39.16 333.08 150.42 533.46 192.66 5.84 3.56 10.79 7.72 11.84 14.62 1.12 7.31-3.59 8.29-2.53 15.19 2.49 16.43 31.76 26.23 53.47 30.57z"/>
<path class="cls-6" d="m2611.3 2479q-10.77 1.22-21.54 2.39l-9.9 1.07-15.75 1.67-6.82 0.72q-10.68 1.1-21.37 2.16-7.08 0.72-14.18 1.4-86.85 8.39-174 14a93.44 93.44 0 0 1 16.27-11.08q78.9-5.29 157.62-12.9 7.09-0.69 14.18-1.4 10.68-1 21.36-2.16c2.27-0.23 5.06-0.39 7.33-0.63 5.25-0.55 9.65-0.86 14.9-1.43 3.3-0.35 7-0.87 10.28-1.1 8.72-0.61 24.23-3.2 29.14-2.7-0.53 0.66-5.84 7.49-7.52 9.99z"/>
<path class="cls-11" d="M3221.58,2648c.23,76.11-62.09,127.59-98,144.95-30.55,14.77-67.87,17.34-75.51,17.57-8.82.27-23.21-1.2-28.16-2.76-.4-.12-3-.95-6.51-1.92,0,0-2.85-.8-5.59-1.43-7.1-1.62-10.66-1.55-15.76-2.65a110.37,110.37,0,0,1-15.57-4.56c-5-1.25-10.3-2.77-15.85-4.61-17.36-5.73-26.15-8.74-31.6-15.94-5.66-7.5-8.66-18.87-9.16-21.25-1.38-6.53-.33-7.27-1.85-11.25-4.06-10.59-9.74-12.77-13.53-20.33-5.74-11.51,7.85-18.26,4.54-35.33-2.58-13.29-14.44-15.51-13.11-26.35,1.08-8.65,8.93-9.63,9.58-19.29.57-8.59-5.48-10.51-4.27-19.13,1-7.36,5.14-7.39,6.92-15.9,2-9.77-3-12.71-.31-19.11,3.31-7.76,11.6-5.37,16.48-13.18,5.59-8.92-2.6-16.18,2.15-25.52,4.25-8.33,13.12-7.17,26.11-15,13.62-8.19,19.07-18.59,23.87-24.49,21.67-26.69,79.21-22.19,89.15-21.41C3131.71,2494.31,3221.29,2556.67,3221.58,2648Z"/>
<path class="cls-15" d="m3077.4 2639c1.7 1 3.29-1.64 8.69-3.25 6.48-1.94 9.07 0.37 12.5-2.18 2.85-2.13 4.52-6.32 3.26-8.15-0.82-1.18-2.55-0.91-10.87 0-10.17 1.11-11.59 1.13-13 2.72-3.04 3.27-2.84 9.57-0.58 10.86z"/>
<path class="cls-15" d="m3121.4 2674.3c-3.48 2.43-1.32 9.78-3.26 10.32-1 0.28-2.59-1.47-3.38-3.11-2.16-4.49 1.51-8.18-0.43-11s-6.4-0.87-7.6-3.26 2-7.85 5.43-8.15c2.48-0.22 2.93 2.42 7.06 3.8 4.42 1.47 6.52-0.69 8.69 1.09 2.5 2 2.73 7.33 0.55 9.23-2.01 1.77-4.67-0.59-7.06 1.08z"/>
<path class="cls-15" d="m3074.2 2605.8c2.93 2 8.42-1.49 11.83-3.66 4.41-2.83 3.64-3.52 6.76-5.35 6.78-4 10.74-0.89 16.61-5.07 1.12-0.8 5.24-3.73 4.79-7.32a5.08 5.08 0 0 0-3.38-4.23c-3.05-0.72-4.32 3.72-9.86 5.63-2.93 1-2.88-0.12-11 0.57a38.57 38.57 0 0 0-9.57 1.69c-3.16 1.06-7.58 3.13-7.33 4.5s5.67 1.05 5.92 2.54-5.71 2.52-6.48 6.19a4.65 4.65 0 0 0 1.71 4.51z"/>
<path class="cls-15" d="m3189.7 2656.4c-0.3 1.67 1.43 2.21 3.32 5.81s1.32 5.2 2.9 6 4.38 0.07 5.6-1.66c1.93-2.73-0.62-6.55-0.83-6.85-0.91-1.33-1.43-1.1-3.11-3.11s-1.69-3-2.7-3.32c-1.8-0.62-4.86 1.09-5.18 3.13z"/>
<path class="cls-15" d="m3134.7 2709.3c2.29 1.74 7.87-2.38 9.13-3.32a23 23 0 0 0 8.09-10.37c0.46-1.19 3.42-8.88 0.42-11.42-1.11-0.92-3-1.14-3.74-0.41s0.25 2.33 0 5.6c-0.11 1.49-0.28 3.66-1.66 4.36s-2.94-0.31-3.11-0.41c-2.62-1.59-2.7-5.45-3.12-5.4s1.51 5.79-1 10.17c-1.92 3.31-5 3.42-5.81 6.85-0.33 1.28-0.39 3.46 0.8 4.35z"/>
<path class="cls-15" d="m3148 2595.4c-2.15 3.54-2.61 4.18-2.31 4.83 0.56 1.23 3.23 1.11 4.62 1 4.52-0.21 10.16-2.2 10.08-4.2-0.05-1.27-2.41-2.64-4.41-2.52-2.18 0.12-3.24 1.95-4.2 1.47-1.27-0.64-0.29-4.19-1.05-4.42-0.44-0.07-1 0.95-2.73 3.84z"/>
<path class="cls-15" d="m2948.5 2662.1c1.95 0 1.43 6.41 6.76 13.53 5.6 7.48 12.47 8.84 12 10.16-0.69 2-17.46 2.59-22.15-7.08-3.41-7.04 0.99-16.67 3.39-16.61z"/>
<path class="cls-15" d="m3012.4 2730.7c0.34 3 8.11 4.16 11.08 4.61s13.28 2 15.38-2.15c0.64-1.28 0.36-2.75 0-4.62-0.19-1-1-5.46-3.08-5.84-2.21-0.43-2.83 4.55-6.77 5.84-4.54 1.49-7.77-3.82-12.61-2.15-2.13 0.73-4.19 2.64-4 4.31z"/>
<path class="cls-15" d="m3078 2718.4c1.87 1.45 4.66 0.78 10.16-0.62 7.05-1.79 8.23-3.41 8.61-4 1.07-1.66 1.75-4.41 0.62-5.53-1.43-1.41-4.29 1.1-11.08 2.46-6.17 1.23-9.13 0.22-10.15 2.15-0.88 1.62 0.17 4.26 1.84 5.54z"/>
<path class="cls-15" d="m3017.1 2643.9c1.14 2.44 4.17 2.88 5.53 3.08 3.82 0.55 6.87-1.12 9.23-2.46 3.35-1.9 7.48-4.24 7.39-7.69-0.07-2.79-2.88-5.75-5.23-5.54-1.74 0.15-2.89 2-4.31 4.31-2.61 4.22-2.1 6.46-3.69 7.07-2.73 1-6.2-4.76-8.31-3.69-1.21 0.61-1.43 3.19-0.61 4.92z"/>
<path class="cls-15" d="m3035.2 2707.3c3.26 2.54 8.58-0.26 9.23-0.61s5.67-3.19 6.15-8.62c0.34-3.87-1.83-7.53-2.77-7.38s-0.21 5.07-2.15 5.85c-2.19 0.88-6-4.28-6.77-3.7s2.86 4.62 1.54 7.08-6.23 1.13-7.08 3.38c-0.5 1.34 0.72 3.12 1.85 4z"/>
<path class="cls-15" d="m3161.7 2566.7c0.68 1.75 2.84 7.35 7.69 9.23 5.12 2 11.78-0.75 12-3.08 0.09-0.93-2.3-2.68-7.08-6.15-3.5-2.54-4-2.74-5.23-4-2.64-2.79-2.2-4.06-4.3-6.15-3.23-3.2-8.23-4.13-8.93-3.08-0.55 0.84 2 2.43 4 7.08 1.29 2.93 0.84 3.53 1.85 6.15z"/>
<path class="cls-15" d="m3043.4 2600.4c2.18 2.89 6.51 3.79 9.92 2.63 0.42-0.15 5.63-2 5.55-5.84-0.07-3.15-3.64-5.88-5.26-5.25-1.9 0.74-0.36 5.83-2.62 7-2.66 1.38-7.4-4.31-8.76-3.21-0.77 0.63-0.03 3.07 1.17 4.67z"/>
<path class="cls-15" d="m3153.4 2731.2c2.18 2.89 6.51 3.78 9.92 2.62 0.42-0.14 5.62-2 5.54-5.83-0.06-3.15-3.63-5.89-5.25-5.26-1.91 0.74-0.37 5.84-2.63 7-2.65 1.37-7.39-4.32-8.75-3.21-0.77 0.63-0.04 3.08 1.17 4.68z"/>
<path class="cls-15" d="m2993.3 2689.7c2.18 2.89 6.51 3.79 9.92 2.63 0.42-0.14 5.62-2 5.54-5.84-0.06-3.14-3.63-5.88-5.25-5.25-1.91 0.74-0.37 5.83-2.63 7-2.65 1.38-7.39-4.31-8.75-3.21-0.77 0.63-0.04 3.08 1.17 4.67z"/>
<path class="cls-15" d="m3056.2 2566.3c2.31 0.32 2.82-3.34 7.3-5.25 4.86-2.08 8.06 0.63 10.5-1.76 2.13-2.07 2.06-6.43 0.58-7.29-1.64-0.95-3.72 3.17-9 4.67-6.68 1.88-11.17-2.45-13.13-0.29s0.62 9.48 3.75 9.92z"/>
<path class="cls-15" d="m3116.8 2752.1c2.32 0.32 2.83-3.35 7.3-5.26 4.86-2.08 8.06 0.63 10.5-1.75 2.14-2.07 2.07-6.44 0.59-7.29-1.65-1-3.73 3.17-9 4.67-6.68 1.87-11.17-2.45-13.13-0.3s0.61 9.49 3.74 9.93z"/>
<path class="cls-15" d="m3050 2519.6a23.25 23.25 0 0 0 5.25 3.21c7.91 3.87 8.14 5.91 10.51 5.54 4.21-0.64 8.43-7.81 6.13-12-1.2-2.16-4.3-3.74-6.42-2.92-2.69 1.05-2.18 5.34-4.38 5.84-1.92 0.43-2.88-2.71-7-4.38-3.16-1.28-7.05-1.24-7.59 0s2.38 3.82 3.5 4.71z"/>
<path class="cls-15" d="m3149.6 2639.2c-3.65 5.91-3.63 14-1.46 14.88 1.25 0.52 3.33-1.29 4.38-2.91 1.67-2.59 0.65-4.61 1.17-8.47 0.82-6.18 4.53-9.28 3.79-9.92s-5.17 2.05-7.88 6.42z"/>
<path class="cls-15" d="m3183.9 2618.8c-2.3 0.73-3.09 9.24 0 10.8 1.77 0.89 4.89-0.49 5.83-2.63 1.63-3.73-3.73-8.84-5.83-8.17z"/>
<path class="cls-15" d="m3180.2 2692.3c0.62 2.75 1.38 6.06 2.63 6.13s3.28-3.36 2.62-6.42c-0.71-3.33-4.43-5.64-5.54-5-0.79 0.53-0.33 2.58 0.29 5.29z"/>
<path class="cls-15" d="m2989.7 2573.9c-0.19 4.64 1.65 7.28 0 8.75-1.47 1.3-4.64 0.77-6.42-0.88s-1.82-4.22-1.76-6.71c0-1.3 0.35-13.19 7.88-16.05 1.35-0.51 4.25-1.24 5.26 0 1.69 2.1-4.67 6.65-4.96 14.89z"/>
<path class="cls-15" d="m3002.6 2547c1.55 0.36 3.17-0.93 6.42-3.5 2.86-2.28 4.29-3.41 4.08-4.38-0.4-1.81-5.55-2.65-9.63-1.46-1.54 0.45-3.68 1.08-4.38 2.92-0.92 2.47 1.1 5.91 3.51 6.42z"/>
<path class="cls-15" d="m3069 2755.2c1.56 0.36 3.18-0.93 6.42-3.5 2.86-2.27 4.3-3.41 4.09-4.38-0.4-1.81-5.55-2.65-9.63-1.46-1.54 0.45-3.68 1.08-4.38 2.92-0.88 2.43 1.14 5.87 3.5 6.42z"/>
<path class="cls-15" d="m3008.1 2524c4.26-1.46 4.68-2.31 7.59-3.21 4.1-1.25 5.94-0.38 6.71-1.75s-0.32-4-2-5.25c-3.73-2.65-9.86 1.32-10.51 1.75-4.42 2.94-7.16 8.22-6.13 9.34 0.39 0.45 1.71 0.01 4.34-0.88z"/>
<path class="cls-15" d="m3067.4 2671.9c4.26-1.46 4.69-2.31 7.59-3.21 4.1-1.25 5.95-0.38 6.71-1.75s-0.31-4-2-5.25c-3.72-2.65-9.86 1.32-10.51 1.75-4.42 2.94-7.15 8.22-6.12 9.34 0.39 0.47 1.71 0.03 4.33-0.88z"/>
<path class="cls-15" d="m2961.1 2564.3c0.85 1.51-4.6 4-5.84 10.21-0.77 3.85 0.69 6.17-0.58 7-1.55 1-5.7-1.13-7-4.37-1.69-4.22 1.8-9.39 5.55-11.68 3.03-1.85 7.18-2.42 7.87-1.16z"/>
<path class="cls-15" d="m2975.4 2611.8c1.21 2.49 3.26 3.66 6.12 5.25 5.2 2.89 12 4.74 12.84 3.21 0.66-1.19-3.19-2.85-4.08-7.29-1-4.76 2.22-9.09 1.75-9.34-0.64-0.33-4.91 8.54-7.59 7.88-1.34-0.33-1.09-2.75-3.79-6.42-1.2-1.63-2.8-3.8-4.09-3.5-1.85 0.39-3.2 6.05-1.16 10.21z"/>
<path class="cls-15" d="m2984.8 2649.2c2.82 4.43-1 8.79 1.68 12.75 2.11 3.1 6.2 3 6.06 3.76-0.17 1-6.72 2.37-11.29-1-4.21-3.14-4.34-8.52-4.39-10.45 0-0.54-0.12-7.32 2.72-8.16 1.68-0.53 4.01 1.18 5.22 3.1z"/>
<path class="cls-15" d="m3024.7 2770.4c2.82 4.44-1 8.79 1.68 12.76 2.11 3.1 6.2 3 6.06 3.76-0.17 1-6.72 2.36-11.29-1.05-4.21-3.13-4.34-8.52-4.39-10.45 0-0.54-0.12-7.32 2.72-8.15 1.68-0.5 4.01 1.21 5.22 3.13z"/>
<path class="cls-15" d="m2956.8 2717.9c1.71-2.76 6.67-3.72 9.61-2.09 2.06 1.13 1.65 2.71 4 4 2.92 1.58 5.23 0 6.48 1.46 1.1 1.32 0.76 4.34-0.84 5.65-3.11 2.54-9.26-2.84-11.71-0.63s2 9.57-0.21 11.08c-1.21 0.84-4-0.47-5.43-2.3s-0.95-3.14-1.47-8.78c-0.58-6.2-1.34-6.93-0.43-8.39z"/>
<path class="cls-15" d="m2981.1 2739.9c1.67-1.55 6.81 1.36 9.62 3.56 1.88 1.47 5.57 4.86 4.81 6.27s-6.35-0.12-8.79-1.05c-2.12-0.81-3.85-1.5-5-3.34-1.05-1.65-1.71-4.41-0.64-5.44z"/>
<path class="cls-15" d="m2940.1 2627.6c-0.57 5.29 2.65 8.43 1.25 9.83-1.12 1.13-4.13 0-5.85-1-3.57-2.23-6.86-7.71-4.6-12.12 2.44-4.77 10-5.58 11.29-3.77 0.82 1.17-1.63 2.79-2.09 7.06z"/>
<path class="cls-15" d="m2952.2 2598.1c-3.58 2.62-2.53 11.08 0.2 12.13a3.3 3.3 0 0 0 3.77-1.88c0.38-1.23-0.88-1.84-1.26-3.77-0.67-3.38 2.39-5.72 1.47-6.9-0.64-0.81-2.81-0.58-4.18 0.42z"/>
<path class="cls-15" d="m2975.8 2765.8c-3.57 2.62-2.53 11.08 0.21 12.13a3.28 3.28 0 0 0 3.76-1.88c0.39-1.23-0.87-1.84-1.25-3.77-0.67-3.38 2.38-5.72 1.46-6.9-0.64-0.81-2.81-0.58-4.18 0.42z"/>
<path class="cls-15" d="m3101.4 2526.7c-1.65 0.7-1.37 9.52 3 11.81 2.52 1.34 4.2-0.72 11.45-1.11 5.43-0.29 8.06 0.67 8.49-0.36 0.49-1.2-2.26-4.29-5.54-4.8s-4.32 1.9-7.39 1.84c-5.58-0.08-8.33-8.08-10.01-7.38z"/>
<path class="cls-15" d="m3070.4 2771.5c-1.65 0.7-1.37 9.52 3 11.81 2.52 1.34 4.2-0.72 11.44-1.1 5.43-0.3 8.07 0.67 8.5-0.37 0.49-1.2-2.27-4.29-5.54-4.8s-4.32 1.9-7.39 1.84c-5.58-0.1-8.34-8.09-10.01-7.38z"/>
<path class="cls-3" d="m2652.6 2383.8c-7.43 27.21-19.35 54.23-35.34 80.57-0.9 1.49-1.88 3.24-2.86 4.66-25.67 2.91-52.83 5.47-78.55 8q-7.09 0.72-14.18 1.4a5456.7 5456.7 0 0 1-1030.1 1.7c-6.35-0.59-12.69-1.18-19-1.81q-45.15-4.35-90.2-9.49c-1.86-1.88-3.69-3.78-5.48-5.68-15.61-26-27.3-52.57-34.61-79.36-9-33.15 14.9-60.91 47.75-56.24a4319.8 4319.8 0 0 0 1214.9 0c32.81-4.66 56.74 23.1 47.71 56.25z"/>
<path class="cls-2" d="m1473.8 2478.4-1.24-0.12q-45.16-4.35-90.21-9.49c-1.86-1.88-3.68-3.78-5.48-5.68-15.61-26-27.29-52.57-34.61-79.36-9-33.15 14.9-60.91 47.76-56.24q10.71 1.51 21.42 3a66.63 66.63 0 0 0 1.92 15.9c10.89 45.04 31.53 89.59 60.44 131.99z"/>
<path class="cls-2" d="m2652.6 2383.8c-7.42 27.21-19.35 54.23-35.34 80.57-0.88 1.49-1.4 3.16-2.86 4.66-18.56 2.11-38.6 3.94-57.19 5.86 25.72-42.05 44.25-86 54.37-130.39a74.2 74.2 0 0 0 1.91-17.44c28.25 0.87 47.33 26.57 39.11 56.74z"/>
<path class="cls-4" d="m1390.8 2108.6c0 3.67-23.81 15.25-36.41 20.62 4.23-2.41 6.58-4.54 6.58-6.6-0.18-20.61-111.76-76.15-111.93-275.54v-0.48-5.48-0.52q0-3 0.1-5.95c10.27 177.4 141.49 254.34 141.66 273.95z"/>
<path class="cls-4" d="m2644.3 2128.4c-12.95-5.65-34.48-16.28-34.45-19.77 0.16-18.89 121.63-90.8 139.95-254.23-2.45 199.63-111.6 244.95-111.4 268.37 0.02 1.98 2.12 3.79 5.9 5.63z"/>
</svg>
