<?xml version="1.0" encoding="UTF-8"?>
<svg viewBox="0 0 4e3 4e3" xmlns="http://www.w3.org/2000/svg">
<defs>
<style>.cls-1{fill:#ffcd98;stroke:#333;stroke-miterlimit:10;stroke-width:5px;}.cls-2{opacity:0.08;}.cls-3{fill:#fff;}.cls-4{opacity:0.05;}.cls-5{fill:#7f6145;}.cls-6{opacity:0.1;}.cls-7{opacity:0.2;}.cls-8{fill:#634b37;}.cls-9{fill:#333;}</style>
</defs>
<title>mouth1</title>
<path class="cls-1" d="m2638.4 2122.8c-0.2-23.7 111.61-69.84 111.45-275.69-0.25-318.49-258.75-643.25-482.28-643.25-155.64 0-248.88 116.58-268 116.74-22.73 0.2-95.64-116.75-268-116.74-223.2 0-482.73 324.76-482.47 643.25 0.17 199.4 111.75 254.94 111.93 275.55s-236.85 48.83-236.85 281.27c0 178 449 511.08 910.31 497.74 420.49-12.16 840.86-314.91 840.86-524.16-0.07-232.13-236.76-233.58-236.95-254.71zm-689.76-296.93c-10.8 55.65-39.63 104.35-81.16 137.14-32.82 25.91-70.48 39.45-108.51 39.45a161.3 161.3 0 0 1-30.65-3c-99.16-19.2-161.67-128.41-139.35-243.41s121.16-192.88 220.32-173.63c48.1 9.34 89.08 39.84 115.39 85.9s34.76 101.91 23.96 157.55zm439.53 81c-25.51 46.51-65.95 77.73-113.88 87.9a160.79 160.79 0 0 1-33.39 3.52c-37.09 0-73.93-12.87-106.38-37.58-42.11-32.06-71.77-80.25-83.54-135.7s-4.24-111.53 21.21-157.93 66-77.73 113.88-87.91c98.8-21 199 55.18 223.31 169.76 11.77 55.42 4.23 111.51-21.21 157.91z"/>
<path class="cls-2" d="m2875.3 2377.5c0 209.26-420.37 512-840.86 524.16-461.31 13.34-910.31-319.74-910.31-497.74q0-7.14 0.3-14c38.59 182.8 468.4 486 909.44 473.26 406.19-11.75 812.27-294.09 841-502.25q0.43 8.11 0.43 16.57z"/>
<path class="cls-3" d="m1758.3 1403.1c-172.54-20-337.69 181.45-333.36 371.56 3.24 141.94 101.7 310.86 253.5 328.16 167.19 19 313.5-155.61 329.88-323 16.46-167.97-95.13-358.73-250.02-376.72zm190.38 422.76c-10.8 55.65-39.63 104.35-81.16 137.14-32.82 25.91-70.48 39.45-108.51 39.45a161.3 161.3 0 0 1-30.65-3c-99.16-19.2-161.67-128.41-139.35-243.41s121.16-192.88 220.32-173.63c48.1 9.34 89.08 39.84 115.39 85.9s34.76 101.91 23.96 157.55z"/>
<path class="cls-4" d="m1834.5 1427a214.27 214.27 0 0 0-31.9-6.17c-175.15-20.17-342.8 182.73-338.41 374.18 2.47 107.25 59.36 229.79 152.7 291.65-116.4-48.78-189.2-190.33-192-312-4.33-190.11 160.82-391.59 333.36-371.55a217.6 217.6 0 0 1 76.25 23.89z"/>
<path class="cls-3" d="m2234 1398.9c-154.54 20.68-262.79 213.36-243.4 381.08 19.3 167 168.63 339.1 335.47 317.13 151.47-19.94 247-190.55 247.73-332.52 0.98-190.16-167.66-388.73-339.8-365.69zm154.23 507.88c-25.51 46.51-65.95 77.73-113.88 87.9a160.79 160.79 0 0 1-33.39 3.52c-37.09 0-73.93-12.87-106.38-37.58-42.11-32.06-71.77-80.25-83.54-135.7s-4.24-111.53 21.21-157.93 66-77.73 113.88-87.91c98.8-21 199 55.18 223.31 169.76 11.74 55.45 4.2 111.54-21.24 157.94z"/>
<path class="cls-4" d="m2573.8 1764.6c-0.66 123.27-72.75 268.13-190.88 317.21 95.29-61.62 152.08-188.08 152.66-297.55 1-190.6-168-389.61-340.57-366.52a211.81 211.81 0 0 0-45.38 11.34c26-15.6 54.29-26.14 84.37-30.17 172.17-23.04 340.81 175.53 339.8 365.69z"/>
<path class="cls-5" d="m1784 2081.4c0 75.28 98.57 166.65 215.68 165.63 107.93-0.94 213.18-91.24 213.18-165.41 0-59.68-124.17-112.16-213.18-111.39-82.63 0.72-215.68 40.57-215.68 111.17z"/>
<path class="cls-6" d="m2212.9 2101.6c0 74.17-105.25 164.47-213.18 165.41-117.11 1-215.68-90.35-215.68-165.63a54.18 54.18 0 0 1 0.71-8.78c9 72.83 103.62 155.38 215 154.41 102.38-0.89 202.34-82.18 212.35-153.85a43.67 43.67 0 0 1 0.8 8.44z"/>
<path class="cls-7" d="m2212.9 2081.6c0 74.17-105.25 164.47-213.18 165.41-117.11 1-215.68-90.35-215.68-165.63a55.09 55.09 0 0 1 0.79-9.31c42.18 52.17 123.35 95.66 214.39 94.95 85.09-0.67 168.69-45.29 211.9-97.87a45.3 45.3 0 0 1 1.78 12.45z"/>
<path class="cls-8" d="M1471.65,2367.25q30,17.86,61,33.64c20.73,10.47,41.76,20.32,63.12,29.36s43,17.52,64.86,25.11,44,14.58,66.34,20.7c5.56,1.6,11.18,3,16.78,4.45l8.41,2.17,8.45,2c11.23,2.76,22.55,5.2,33.86,7.62,22.67,4.66,45.51,8.45,68.42,11.58l17.21,2.22,17.24,1.87c5.75.68,11.51,1.12,17.27,1.61l8.65.72,4.32.36,4.33.26,17.31,1c5.77.32,11.56.44,17.33.67l8.67.3c2.89.08,5.78.07,8.67.11l17.35.19q34.67.08,69.29-2.35c23.08-1.57,46.09-4.09,69-7.16s45.77-6.94,68.45-11.59q17-3.49,33.89-7.53c5.65-1.27,11.25-2.74,16.87-4.15,2.8-.71,5.61-1.39,8.41-2.14l8.38-2.29q33.51-9.15,66.36-20.56t64.85-25.06c21.37-9,42.31-19,63.06-29.46l15.45-8c2.59-1.31,5.12-2.73,7.66-4.14l7.63-4.21,7.64-4.2c2.55-1.39,5-2.9,7.55-4.35l15.09-8.76.15-.09a9.54,9.54,0,0,1,10.1,16.18c-19.73,13.19-39.89,25.8-60.61,37.47-2.56,1.52-5.18,2.91-7.79,4.34l-7.84,4.25-7.84,4.24-8,4.05-7.95,4c-2.65,1.34-5.29,2.73-8,4l-16.1,7.71q-32.42,15-65.83,27.67l-16.77,6.16c-5.61,2-11.27,3.86-16.9,5.79l-4.23,1.44-4.25,1.36-8.52,2.7c-2.84.89-5.67,1.83-8.52,2.68l-8.57,2.53-8.57,2.54c-2.86.83-5.74,1.59-8.61,2.38-5.75,1.57-11.48,3.21-17.27,4.63-11.53,3-23.15,5.67-34.78,8.23q-34.93,7.6-70.35,12.82a1010.75,1010.75,0,0,1-142.63,10.48l-17.89-.25c-3-.06-6-.07-9-.16l-8.94-.35c-6-.26-11.92-.41-17.87-.77l-17.86-1.14-4.46-.29-4.46-.38-8.91-.79c-5.94-.53-11.89-1-17.81-1.73l-17.78-2-17.72-2.45c-23.59-3.52-47.07-7.73-70.37-12.83-11.62-2.65-23.25-5.26-34.77-8.32l-8.66-2.24-8.6-2.41c-5.74-1.61-11.49-3.18-17.18-4.95-22.83-6.81-45.45-14.32-67.71-22.78s-44.21-17.68-65.79-27.71-42.76-20.87-63.49-32.52q-15.52-8.76-30.73-18.07c-10.1-6.26-20.1-12.69-29.91-19.36a9.54,9.54,0,0,1,10.24-16.09Z"/>
<path class="cls-8" d="M2505.19,2339.05a60.59,60.59,0,0,1,24.45,10.12,65.38,65.38,0,0,1,18.77,19.89l1.75,3c.57,1,1.05,2.07,1.56,3.12,1,2.08,1.83,4.29,2.66,6.46a66.4,66.4,0,0,1,3,13.56,56.65,56.65,0,0,1-3.35,26.85,10,10,0,0,1-19.31-3.09l-.05-.9a85.12,85.12,0,0,0-2.84-18.39,73.78,73.78,0,0,0-3-8.36c-.69-1.31-1.18-2.68-1.93-4-.37-.63-.67-1.3-1-1.93l-1.15-1.89a72.46,72.46,0,0,0-11.34-13.91,125,125,0,0,0-15.08-12l-.56-.4a10.05,10.05,0,0,1,7.39-18.15Z"/>
<path class="cls-8" d="M1504.07,2356.89a139.6,139.6,0,0,0-15.08,12.59,88.37,88.37,0,0,0-6.29,6.91,67.59,67.59,0,0,0-5.38,7.42l-1.22,1.93c-.36.67-.73,1.33-1.11,2s-.73,1.33-1.06,2-.71,1.34-1,2a75.82,75.82,0,0,0-3.34,8.53,94.44,94.44,0,0,0-3.85,18.65l-.08.73a10,10,0,0,1-19.53,1.71,60.19,60.19,0,0,1-1.52-26.68,68.3,68.3,0,0,1,3.51-13.19c.39-1.08.85-2.12,1.3-3.17s.92-2.1,1.45-3.11,1-2,1.58-3l1.77-2.93a69.87,69.87,0,0,1,18.37-19.71,64.22,64.22,0,0,1,23.84-10.9,10,10,0,0,1,8.14,17.86Z"/>
<g class="cls-6">
<path class="cls-9" d="M1453.74,2339.93c-3.33,4-6.48,7.45-9.29,11a106.54,106.54,0,0,0-7.62,10.69,110.53,110.53,0,0,0-6.14,11.38c-1.89,4-3.49,8.25-5.44,13l-.25.59a6.84,6.84,0,0,1-12.74-.21,37.34,37.34,0,0,1-1.54-18.88,47.59,47.59,0,0,1,6.87-18,49.83,49.83,0,0,1,13.07-13.86,40.79,40.79,0,0,1,17.11-7.29,6.85,6.85,0,0,1,6.31,11.14Z"/>
</g>
<g class="cls-6">
<path class="cls-9" d="M2555,2326.73a40.71,40.71,0,0,1,17.23,7,49.69,49.69,0,0,1,13.32,13.63,47.56,47.56,0,0,1,7.18,17.83,37.42,37.42,0,0,1-1.21,18.91,6.85,6.85,0,0,1-12.73.46l-.27-.62c-2-4.69-3.71-8.9-5.67-12.87a104,104,0,0,0-14.14-21.84c-2.87-3.52-6.08-6.92-9.48-10.85l-.33-.38a6.84,6.84,0,0,1,6.1-11.26Z"/>
</g>
<path class="cls-4" d="m1390.8 2108.6c0 3.67-23.81 15.25-36.41 20.62 4.23-2.41 6.58-4.54 6.58-6.6-0.18-20.61-111.76-76.15-111.93-275.54v-0.48-5.48-0.52q0-3 0.1-5.95c10.27 177.4 141.49 254.34 141.66 273.95z"/>
<path class="cls-4" d="m2644.3 2128.4c-12.95-5.65-34.48-16.28-34.45-19.77 0.16-18.89 121.63-90.8 139.95-254.23-2.45 199.63-111.6 244.95-111.4 268.37 0.02 1.98 2.12 3.79 5.9 5.63z"/>
</svg>
