<?xml version="1.0" encoding="UTF-8"?>
<svg viewBox="0 0 4e3 4e3" xmlns="http://www.w3.org/2000/svg">
<defs>
<style>.cls-1{fill:#ffcd98;stroke:#333;stroke-miterlimit:10;stroke-width:5px;}.cls-2{opacity:0.08;}.cls-3{fill:#fff;}.cls-4{opacity:0.05;}.cls-5{fill:#7f6145;}.cls-6{opacity:0.1;}.cls-7{opacity:0.2;}.cls-8{fill:#634b37;}.cls-9{fill:#333;}</style>
</defs>
<title>mouth2</title>
<path class="cls-1" d="m2638.4 2122.8c-0.2-23.7 111.61-69.84 111.45-275.69-0.25-318.49-258.75-643.25-482.28-643.25-155.64 0-248.88 116.58-268 116.74-22.73 0.2-95.64-116.75-268-116.74-223.2 0-482.73 324.76-482.47 643.25 0.17 199.4 111.75 254.94 111.93 275.55s-236.85 48.83-236.85 281.27c0 178 449 511.08 910.31 497.74 420.49-12.16 840.86-314.91 840.86-524.16-0.07-232.13-236.76-233.58-236.95-254.71zm-689.76-296.93c-10.8 55.65-39.63 104.35-81.16 137.14-32.82 25.91-70.48 39.45-108.51 39.45a161.3 161.3 0 0 1-30.65-3c-99.16-19.2-161.67-128.41-139.35-243.41s121.16-192.88 220.32-173.63c48.1 9.34 89.08 39.84 115.39 85.9s34.76 101.91 23.96 157.55zm439.53 81c-25.51 46.51-65.95 77.73-113.88 87.9a160.79 160.79 0 0 1-33.39 3.52c-37.09 0-73.93-12.87-106.38-37.58-42.11-32.06-71.77-80.25-83.54-135.7s-4.24-111.53 21.21-157.93 66-77.73 113.88-87.91c98.8-21 199 55.18 223.31 169.76 11.77 55.42 4.23 111.51-21.21 157.91z"/>
<path class="cls-2" d="m2875.3 2377.5c0 209.26-420.37 512-840.86 524.16-461.31 13.34-910.31-319.74-910.31-497.74q0-7.14 0.3-14c38.59 182.8 468.4 486 909.44 473.26 406.19-11.75 812.27-294.09 841-502.25q0.43 8.11 0.43 16.57z"/>
<path class="cls-3" d="m1758.3 1403.1c-172.54-20-337.69 181.45-333.36 371.56 3.24 141.94 101.7 310.86 253.5 328.16 167.19 19 313.5-155.61 329.88-323 16.46-167.97-95.13-358.73-250.02-376.72zm190.38 422.76c-10.8 55.65-39.63 104.35-81.16 137.14-32.82 25.91-70.48 39.45-108.51 39.45a161.3 161.3 0 0 1-30.65-3c-99.16-19.2-161.67-128.41-139.35-243.41s121.16-192.88 220.32-173.63c48.1 9.34 89.08 39.84 115.39 85.9s34.76 101.91 23.96 157.55z"/>
<path class="cls-4" d="m1834.5 1427a214.27 214.27 0 0 0-31.9-6.17c-175.15-20.17-342.8 182.73-338.41 374.18 2.47 107.25 59.36 229.79 152.7 291.65-116.4-48.78-189.2-190.33-192-312-4.33-190.11 160.82-391.59 333.36-371.55a217.6 217.6 0 0 1 76.25 23.89z"/>
<path class="cls-3" d="m2234 1398.9c-154.54 20.68-262.79 213.36-243.4 381.08 19.3 167 168.63 339.1 335.47 317.13 151.47-19.94 247-190.55 247.73-332.52 0.98-190.16-167.66-388.73-339.8-365.69zm154.23 507.88c-25.51 46.51-65.95 77.73-113.88 87.9a160.79 160.79 0 0 1-33.39 3.52c-37.09 0-73.93-12.87-106.38-37.58-42.11-32.06-71.77-80.25-83.54-135.7s-4.24-111.53 21.21-157.93 66-77.73 113.88-87.91c98.8-21 199 55.18 223.31 169.76 11.74 55.45 4.2 111.54-21.24 157.94z"/>
<path class="cls-4" d="m2573.8 1764.6c-0.66 123.27-72.75 268.13-190.88 317.21 95.29-61.62 152.08-188.08 152.66-297.55 1-190.6-168-389.61-340.57-366.52a211.81 211.81 0 0 0-45.38 11.34c26-15.6 54.29-26.14 84.37-30.17 172.17-23.04 340.81 175.53 339.8 365.69z"/>
<path class="cls-5" d="m1784 2081.4c0 75.28 98.57 166.65 215.68 165.63 107.93-0.94 213.18-91.24 213.18-165.41 0-59.68-124.17-112.16-213.18-111.39-82.63 0.72-215.68 40.57-215.68 111.17z"/>
<path class="cls-6" d="m2212.9 2101.6c0 74.17-105.25 164.47-213.18 165.41-117.11 1-215.68-90.35-215.68-165.63a54.18 54.18 0 0 1 0.71-8.78c9 72.83 103.62 155.38 215 154.41 102.38-0.89 202.34-82.18 212.35-153.85a43.67 43.67 0 0 1 0.8 8.44z"/>
<path class="cls-7" d="m2212.9 2081.6c0 74.17-105.25 164.47-213.18 165.41-117.11 1-215.68-90.35-215.68-165.63a55.09 55.09 0 0 1 0.79-9.31c42.18 52.17 123.35 95.66 214.39 94.95 85.09-0.67 168.69-45.29 211.9-97.87a45.3 45.3 0 0 1 1.78 12.45z"/>
<path class="cls-8" d="M1466.34,2415.32c10.38-.58,21.07-2.59,32.05-4.87s22.16-4.69,33.43-6.84,22.65-4.08,34-5.66,22.85-2.9,34.3-4c22.9-2.2,45.83-3.28,68.73-3.81l17.12-.3,8.57-.15,4.28-.08h4.28c11.43.06,22.86,0,34.29.32l17.16.39,17.15.68c5.72.18,11.44.51,17.16.86s11.44.66,17.15,1.12c22.86,1.68,45.68,4,68.45,6.91s45.39,6.71,67.9,10.88c5.64,1,11.24,2.15,16.85,3.24s11.21,2.24,16.79,3.4c11.19,2.28,22.32,4.73,33.4,7.23,22.18,5,44.22,10.09,66.21,14.85s43.93,9.27,66,13c5.5.93,11,1.91,16.53,2.71s11,1.75,16.56,2.43,11.05,1.53,16.59,2.16l16.63,2c22.19,2.38,44.48,3.89,66.83,4.86l16.77.66,16.8.32c2.8,0,5.61.14,8.39.12s5.57,0,8.35-.05c5.56-.07,11.12-.18,16.67-.4a527.51,527.51,0,0,0,66.08-6.19,377.1,377.1,0,0,0,63.92-15.87,316.75,316.75,0,0,0,30.33-12.49,283.64,283.64,0,0,0,28.67-15.86l.06,0a9.54,9.54,0,0,1,10.53,15.9,291.27,291.27,0,0,1-30.08,18.26,315.94,315.94,0,0,1-32,14.51,382,382,0,0,1-67.31,19,540.24,540.24,0,0,1-69,8.32c-11.52.67-23.11,1-34.55,1.16l-17.19.26-17.2-.08q-34.43-.51-68.85-3.26l-17.18-1.6c-5.72-.55-11.42-1.31-17.14-2s-11.4-1.5-17.1-2.25-11.37-1.66-17-2.54q-34-5.34-67.55-12.54c-22.32-4.71-44.45-9.73-66.51-14.56l-16.54-3.59c-5.5-1.21-11-2.41-16.5-3.56s-11-2.34-16.5-3.42-11-2.25-16.51-3.26q-33-6.36-66.25-11.05c-22.15-3.14-44.38-5.77-66.69-7.73s-44.68-3.62-67.11-4.47c-22.42-1-44.9-1.48-67.39-1.8-22.41,0-44.79.46-67.07,1.8s-44.43,3.71-66.53,7c-11.07,1.64-22.11,3.62-33.42,5.43s-23,3.55-35.33,3.57a9.54,9.54,0,0,1-.57-19.06Z"/>
<path class="cls-8" d="M2551,2368.91a226.86,226.86,0,0,0-2.16,33.41,159.54,159.54,0,0,0,1.06,16.39,150.92,150.92,0,0,0,2.61,16.13,162.47,162.47,0,0,0,10,31.17,212.12,212.12,0,0,0,15.9,29.47l.11.17a10.79,10.79,0,0,1-16.16,13.94,108.22,108.22,0,0,1-13.69-14.37,127.63,127.63,0,0,1-11.19-16.54,133.84,133.84,0,0,1-14.3-37.49,131.47,131.47,0,0,1-2.83-20,127.09,127.09,0,0,1,.25-20.09,125.35,125.35,0,0,1,3.33-19.69,105.18,105.18,0,0,1,6.58-18.74,10.8,10.8,0,0,1,20.49,6Z"/>
<g class="cls-6">
<path class="cls-9" d="M2596.13,2395.88c.59,5.16.92,9.82,1.57,14.32a105.38,105.38,0,0,0,2.49,12.89,107.58,107.58,0,0,0,4,12.3c1.6,4.13,3.56,8.21,5.64,12.89l.26.59a6.84,6.84,0,0,1-8.94,9.08,37.36,37.36,0,0,1-14.74-11.91,47.48,47.48,0,0,1-8.27-17.35,49.9,49.9,0,0,1-1-19,40.8,40.8,0,0,1,6.52-17.42,6.85,6.85,0,0,1,12.42,3.1Z"/>
</g>
<path class="cls-8" d="M1467.89,2362a104.84,104.84,0,0,1,6.91,18.62,129.5,129.5,0,0,1,4.27,39.72,132,132,0,0,1-2.48,20,133.86,133.86,0,0,1-13.65,37.73,128,128,0,0,1-10.89,16.73,108.2,108.2,0,0,1-13.44,14.6,10.79,10.79,0,0,1-16.41-13.64l.12-.18a213.46,213.46,0,0,0,15.37-29.74,162,162,0,0,0,9.49-31.34,151.69,151.69,0,0,0,2.33-16.17,157.33,157.33,0,0,0,.77-16.41,227.47,227.47,0,0,0-2.73-33.37l0-.2a10.8,10.8,0,0,1,20.37-6.35Z"/>
<g class="cls-6">
<path class="cls-9" d="M1415.29,2392.44a40.73,40.73,0,0,1,6.81,17.3,49.76,49.76,0,0,1-.69,19.05,47.53,47.53,0,0,1-8,17.49,37.39,37.39,0,0,1-14.52,12.16,6.84,6.84,0,0,1-9.11-8.9l.26-.62c2-4.71,3.89-8.82,5.41-13a109.86,109.86,0,0,0,3.81-12.37,106.53,106.53,0,0,0,2.26-12.93c.57-4.51.82-9.18,1.32-14.35l.05-.5a6.85,6.85,0,0,1,12.37-3.35Z"/>
</g>
<path class="cls-4" d="m1390.8 2108.6c0 3.67-23.81 15.25-36.41 20.62 4.23-2.41 6.58-4.54 6.58-6.6-0.18-20.61-111.76-76.15-111.93-275.54v-0.48-5.48-0.52q0-3 0.1-5.95c10.27 177.4 141.49 254.34 141.66 273.95z"/>
<path class="cls-4" d="m2644.3 2128.4c-12.95-5.65-34.48-16.28-34.45-19.77 0.16-18.89 121.63-90.8 139.95-254.23-2.45 199.63-111.6 244.95-111.4 268.37 0.02 1.98 2.12 3.79 5.9 5.63z"/>
</svg>
