<?xml version="1.0" encoding="UTF-8"?>
<svg viewBox="0 0 4e3 4e3" xmlns="http://www.w3.org/2000/svg">
<defs>
<style>.cls-1{fill:#ffcd98;stroke:#333;stroke-miterlimit:10;stroke-width:5px;}.cls-2{opacity:0.08;}.cls-3{fill:#fff;}.cls-4{opacity:0.05;}.cls-5{fill:#7f6145;}.cls-6{opacity:0.1;}.cls-7{opacity:0.2;}.cls-8{fill:#634b37;}.cls-9{fill:#333;}</style>
</defs>
<title>mouth3</title>
<path class="cls-1" d="m2638.4 2122.8c-0.2-23.7 111.61-69.84 111.45-275.69-0.25-318.49-258.75-643.25-482.28-643.25-155.64 0-248.88 116.58-268 116.74-22.73 0.2-95.64-116.75-268-116.74-223.2 0-482.73 324.76-482.47 643.25 0.17 199.4 111.75 254.94 111.93 275.55s-236.85 48.83-236.85 281.27c0 178 449 511.08 910.31 497.74 420.49-12.16 840.86-314.91 840.86-524.16-0.07-232.13-236.76-233.58-236.95-254.71zm-689.76-296.93c-10.8 55.65-39.63 104.35-81.16 137.14-32.82 25.91-70.48 39.45-108.51 39.45a161.3 161.3 0 0 1-30.65-3c-99.16-19.2-161.67-128.41-139.35-243.41s121.16-192.88 220.32-173.63c48.1 9.34 89.08 39.84 115.39 85.9s34.76 101.91 23.96 157.55zm439.53 81c-25.51 46.51-65.95 77.73-113.88 87.9a160.79 160.79 0 0 1-33.39 3.52c-37.09 0-73.93-12.87-106.38-37.58-42.11-32.06-71.77-80.25-83.54-135.7s-4.24-111.53 21.21-157.93 66-77.73 113.88-87.91c98.8-21 199 55.18 223.31 169.76 11.77 55.42 4.23 111.51-21.21 157.91z"/>
<path class="cls-2" d="m2875.3 2377.5c0 209.26-420.37 512-840.86 524.16-461.31 13.34-910.31-319.74-910.31-497.74q0-7.14 0.3-14c38.59 182.8 468.4 486 909.44 473.26 406.19-11.75 812.27-294.09 841-502.25q0.43 8.11 0.43 16.57z"/>
<path class="cls-3" d="m1758.3 1403.1c-172.54-20-337.69 181.45-333.36 371.56 3.24 141.94 101.7 310.86 253.5 328.16 167.19 19 313.5-155.61 329.88-323 16.46-167.97-95.13-358.73-250.02-376.72zm190.38 422.76c-10.8 55.65-39.63 104.35-81.16 137.14-32.82 25.91-70.48 39.45-108.51 39.45a161.3 161.3 0 0 1-30.65-3c-99.16-19.2-161.67-128.41-139.35-243.41s121.16-192.88 220.32-173.63c48.1 9.34 89.08 39.84 115.39 85.9s34.76 101.91 23.96 157.55z"/>
<path class="cls-4" d="m1834.5 1427a214.27 214.27 0 0 0-31.9-6.17c-175.15-20.17-342.8 182.73-338.41 374.18 2.47 107.25 59.36 229.79 152.7 291.65-116.4-48.78-189.2-190.33-192-312-4.33-190.11 160.82-391.59 333.36-371.55a217.6 217.6 0 0 1 76.25 23.89z"/>
<path class="cls-3" d="m2234 1398.9c-154.54 20.68-262.79 213.36-243.4 381.08 19.3 167 168.63 339.1 335.47 317.13 151.47-19.94 247-190.55 247.73-332.52 0.98-190.16-167.66-388.73-339.8-365.69zm154.23 507.88c-25.51 46.51-65.95 77.73-113.88 87.9a160.79 160.79 0 0 1-33.39 3.52c-37.09 0-73.93-12.87-106.38-37.58-42.11-32.06-71.77-80.25-83.54-135.7s-4.24-111.53 21.21-157.93 66-77.73 113.88-87.91c98.8-21 199 55.18 223.31 169.76 11.74 55.45 4.2 111.54-21.24 157.94z"/>
<path class="cls-4" d="m2573.8 1764.6c-0.66 123.27-72.75 268.13-190.88 317.21 95.29-61.62 152.08-188.08 152.66-297.55 1-190.6-168-389.61-340.57-366.52a211.81 211.81 0 0 0-45.38 11.34c26-15.6 54.29-26.14 84.37-30.17 172.17-23.04 340.81 175.53 339.8 365.69z"/>
<path class="cls-5" d="m1784 2081.4c0 75.28 98.57 166.65 215.68 165.63 107.93-0.94 213.18-91.24 213.18-165.41 0-59.68-124.17-112.16-213.18-111.39-82.63 0.72-215.68 40.57-215.68 111.17z"/>
<path class="cls-6" d="m2212.9 2101.6c0 74.17-105.25 164.47-213.18 165.41-117.11 1-215.68-90.35-215.68-165.63a54.18 54.18 0 0 1 0.71-8.78c9 72.83 103.62 155.38 215 154.41 102.38-0.89 202.34-82.18 212.35-153.85a43.67 43.67 0 0 1 0.8 8.44z"/>
<path class="cls-7" d="m2212.9 2081.6c0 74.17-105.25 164.47-213.18 165.41-117.11 1-215.68-90.35-215.68-165.63a55.09 55.09 0 0 1 0.79-9.31c42.18 52.17 123.35 95.66 214.39 94.95 85.09-0.67 168.69-45.29 211.9-97.87a45.3 45.3 0 0 1 1.78 12.45z"/>
<path class="cls-8" d="m1471.5 2478.2c22-4 44-7.5 66-11 5.51-0.89 11-1.73 16.53-2.56s11-1.68 16.55-2.4l33.13-4.49c44.21-5.77 88.42-11.6 132.68-16.95l66.39-8.06 66.42-7.67 66.44-7.54 66.44-7.24 66.44-7.23 66.43-7.11 132.85-14.27c22.14-2.36 44.3-4.65 66.42-7.18l66.41-7.36 132.84-14.72a9.54 9.54 0 0 1 2.52 18.91c-88.14 13.56-176.49 25.67-264.88 37.55-11 1.54-22.11 2.9-33.16 4.36l-33.17 4.28-33.17 4.24-33.2 4.05-66.4 8c-22.13 2.64-44.28 5.09-66.42 7.62l-66.42 7.53-66.43 7.28-66.41 7.35-66.43 7.19-33.21 3.65-33.21 3.57-66.43 7.19q-66.42 7.34-133.18 11.94a9.55 9.55 0 0 1-2.4-18.92z"/>
<path class="cls-8" d="M2538.22,2317.78a65.37,65.37,0,0,1,13.18,20.46,76,76,0,0,1,5.66,24,78,78,0,0,1-2.08,24.57,67.49,67.49,0,0,1-9.9,22.21,9,9,0,0,1-16.26-7.06l.09-.4a165.1,165.1,0,0,0,3.07-18.93,105.07,105.07,0,0,0,.16-18.51c-.21-3.07-.62-6.11-1.12-9.15s-1.15-6.07-1.89-9.1a185,185,0,0,0-5.78-18.29l-.14-.39a9.06,9.06,0,0,1,15-9.41Z"/>
<path class="cls-8" d="M1474.3,2454.24a184.53,184.53,0,0,0-2.75,19c-.24,3.11-.43,6.2-.39,9.28s.08,6.15.36,9.21a105,105,0,0,0,3.15,18.24,163.87,163.87,0,0,0,6.09,18.19l.15.37a9.05,9.05,0,0,1-14.9,9.61,67.11,67.11,0,0,1-13.36-20.33,77.93,77.93,0,0,1-6-23.9,75.81,75.81,0,0,1,1.72-24.6A65.21,65.21,0,0,1,1458,2447a9.06,9.06,0,0,1,16.34,6.86Z"/>
<g class="cls-6">
<path class="cls-9" d="M1417,2472.34c-.21,5.19-.6,9.85-.64,14.4a104.78,104.78,0,0,0,.48,13.12,109.72,109.72,0,0,0,2.09,12.76c.95,4.33,2.26,8.66,3.6,13.6l.17.63a6.85,6.85,0,0,1-10.23,7.6,37.38,37.38,0,0,1-12.74-14,47.61,47.61,0,0,1-5.52-18.42,49.68,49.68,0,0,1,1.91-19,40.72,40.72,0,0,1,9.1-16.22,6.85,6.85,0,0,1,11.8,5Z"/>
</g>
<g class="cls-6">
<path class="cls-9" d="M2587.29,2324.51a40.68,40.68,0,0,1,12.38,13.87,50,50,0,0,1,5.94,18.1,47.58,47.58,0,0,1-1.42,19.18,37.33,37.33,0,0,1-9.42,16.43,6.85,6.85,0,0,1-11.63-5.2l0-.67c.25-5.11.6-9.62.59-14a104.33,104.33,0,0,0-3.06-25.84c-1-4.42-2.41-8.89-3.73-13.91l-.13-.49a6.85,6.85,0,0,1,10.45-7.42Z"/>
</g>
<path class="cls-4" d="m1390.8 2108.6c0 3.67-23.81 15.25-36.41 20.62 4.23-2.41 6.58-4.54 6.58-6.6-0.18-20.61-111.76-76.15-111.93-275.54v-0.48-5.48-0.52q0-3 0.1-5.95c10.27 177.4 141.49 254.34 141.66 273.95z"/>
<path class="cls-4" d="m2644.3 2128.4c-12.95-5.65-34.48-16.28-34.45-19.77 0.16-18.89 121.63-90.8 139.95-254.23-2.45 199.63-111.6 244.95-111.4 268.37 0.02 1.98 2.12 3.79 5.9 5.63z"/>
</svg>
