<?xml version="1.0" encoding="UTF-8"?>
<svg viewBox="0 0 4e3 4e3" xmlns="http://www.w3.org/2000/svg">
<defs>
<style>.cls-1{fill:#ffcd98;stroke:#333;stroke-miterlimit:10;stroke-width:5px;}.cls-2{opacity:0.08;}.cls-3{fill:#fff;}.cls-4{opacity:0.05;}.cls-5{fill:#7f6145;}.cls-6{opacity:0.1;}.cls-7{opacity:0.2;}.cls-8{fill:#634b37;}.cls-9{fill:#333;}.cls-10{fill:#42240d;}.cls-11{opacity:0.3;}.cls-12{fill:#542d10;}.cls-13{fill:#6b3917;}.cls-14{opacity:0.15;}</style>
</defs>
<title>mouth5</title>
<path class="cls-1" d="m2638.4 2122.8c-0.2-23.7 111.61-69.84 111.45-275.69-0.25-318.49-258.75-643.25-482.28-643.25-155.64 0-248.88 116.58-268 116.74-22.73 0.2-95.64-116.75-268-116.74-223.2 0-482.73 324.76-482.47 643.25 0.17 199.4 111.75 254.94 111.93 275.55s-236.85 48.83-236.85 281.27c0 178 449 511.08 910.31 497.74 420.49-12.16 840.86-314.91 840.86-524.16-0.07-232.13-236.76-233.58-236.95-254.71zm-689.76-296.93c-10.8 55.65-39.63 104.35-81.16 137.14-32.82 25.91-70.48 39.45-108.51 39.45a161.3 161.3 0 0 1-30.65-3c-99.16-19.2-161.67-128.41-139.35-243.41s121.16-192.88 220.32-173.63c48.1 9.34 89.08 39.84 115.39 85.9s34.76 101.91 23.96 157.55zm439.53 81c-25.51 46.51-65.95 77.73-113.88 87.9a160.79 160.79 0 0 1-33.39 3.52c-37.09 0-73.93-12.87-106.38-37.58-42.11-32.06-71.77-80.25-83.54-135.7s-4.24-111.53 21.21-157.93 66-77.73 113.88-87.91c98.8-21 199 55.18 223.31 169.76 11.77 55.42 4.23 111.51-21.21 157.91z"/>
<path class="cls-2" d="m2875.3 2377.5c0 209.26-420.37 512-840.86 524.16-461.31 13.34-910.31-319.74-910.31-497.74q0-7.14 0.3-14c38.59 182.8 468.4 486 909.44 473.26 406.19-11.75 812.27-294.09 841-502.25q0.43 8.11 0.43 16.57z"/>
<path class="cls-3" d="m1758.3 1403.1c-172.54-20-337.69 181.45-333.36 371.56 3.24 141.94 101.7 310.86 253.5 328.16 167.19 19 313.5-155.61 329.88-323 16.46-167.97-95.13-358.73-250.02-376.72zm190.38 422.76c-10.8 55.65-39.63 104.35-81.16 137.14-32.82 25.91-70.48 39.45-108.51 39.45a161.3 161.3 0 0 1-30.65-3c-99.16-19.2-161.67-128.41-139.35-243.41s121.16-192.88 220.32-173.63c48.1 9.34 89.08 39.84 115.39 85.9s34.76 101.91 23.96 157.55z"/>
<path class="cls-4" d="m1834.5 1427a214.27 214.27 0 0 0-31.9-6.17c-175.15-20.17-342.8 182.73-338.41 374.18 2.47 107.25 59.36 229.79 152.7 291.65-116.4-48.78-189.2-190.33-192-312-4.33-190.11 160.82-391.59 333.36-371.55a217.6 217.6 0 0 1 76.25 23.89z"/>
<path class="cls-3" d="m2234 1398.9c-154.54 20.68-262.79 213.36-243.4 381.08 19.3 167 168.63 339.1 335.47 317.13 151.47-19.94 247-190.55 247.73-332.52 0.98-190.16-167.66-388.73-339.8-365.69zm154.23 507.88c-25.51 46.51-65.95 77.73-113.88 87.9a160.79 160.79 0 0 1-33.39 3.52c-37.09 0-73.93-12.87-106.38-37.58-42.11-32.06-71.77-80.25-83.54-135.7s-4.24-111.53 21.21-157.93 66-77.73 113.88-87.91c98.8-21 199 55.18 223.31 169.76 11.74 55.45 4.2 111.54-21.24 157.94z"/>
<path class="cls-4" d="m2573.8 1764.6c-0.66 123.27-72.75 268.13-190.88 317.21 95.29-61.62 152.08-188.08 152.66-297.55 1-190.6-168-389.61-340.57-366.52a211.81 211.81 0 0 0-45.38 11.34c26-15.6 54.29-26.14 84.37-30.17 172.17-23.04 340.81 175.53 339.8 365.69z"/>
<path class="cls-5" d="m1784 2081.4c0 75.28 98.57 166.65 215.68 165.63 107.93-0.94 213.18-91.24 213.18-165.41 0-59.68-124.17-112.16-213.18-111.39-82.63 0.72-215.68 40.57-215.68 111.17z"/>
<path class="cls-6" d="m2212.9 2101.6c0 74.17-105.25 164.47-213.18 165.41-117.11 1-215.68-90.35-215.68-165.63a54.18 54.18 0 0 1 0.71-8.78c9 72.83 103.62 155.38 215 154.41 102.38-0.89 202.34-82.18 212.35-153.85a43.67 43.67 0 0 1 0.8 8.44z"/>
<path class="cls-7" d="m2212.9 2081.6c0 74.17-105.25 164.47-213.18 165.41-117.11 1-215.68-90.35-215.68-165.63a55.09 55.09 0 0 1 0.79-9.31c42.18 52.17 123.35 95.66 214.39 94.95 85.09-0.67 168.69-45.29 211.9-97.87a45.3 45.3 0 0 1 1.78 12.45z"/>
<path class="cls-8" d="M2537.36,2484.71a8.77,8.77,0,0,1-8.14,7.35h0a8,8,0,0,1-1.76,0q-52.89-6.33-105.61-13.66l-1.33-.18c-5.77-.81-11.53-1.61-17.3-2.44q-4.53-.63-9.06-1.29-14.64-2.07-29.28-4.1-15.07-2.07-30.14-4.1l-7.11-.94q-6-.8-11.95-1.56-10.66-1.41-21.34-2.76-16.64-2.17-33.27-4.27-33.29-4.14-66.57-8t-66.57-7.57q-33.3-3.61-66.6-6.93t-66.59-6.61c-22.19-2.14-44.4-4.08-66.6-6.13s-44.38-4-66.57-5.92q-16.65-1.42-33.28-2.8t-33.26-2.85q-16.63-1.41-33.26-2.74c-11.08-.93-22.17-1.74-33.24-2.69-87.43-7.13-174.78-13-261.9-18.79l-3.52-.24h0a8.78,8.78,0,0,1-8.16-10.16,10.4,10.4,0,0,1,10.32-8.95l2.88.07q65,1.59,130.11,4.27,33.26,1.37,66.53,3c22.17,1.18,44.36,2.22,66.55,3.41q66.56,3.68,133.15,8.47,33.29,2.4,66.58,5.07t66.61,5.76q33.3,3,66.62,6.35t66.59,7.22q33.3,3.81,66.59,7.92,33.28,4.31,66.55,8.88c4.08.56,8.16,1.14,12.24,1.71l10.57,1.51q30.64,4.39,61.27,9.24l15.36,2.43,5.31.85,7.19,1.16,21,3.43q16.61,2.81,33.2,5.68c5.54.93,11.06,2,16.59,3s11,2.12,16.56,3.24c22.06,4.43,44.13,9,66.14,14.09h0a2.29,2.29,0,0,1,.28.08A10.34,10.34,0,0,1,2537.36,2484.71Z"/>
<path class="cls-8" d="m1475 2340.7a192.63 192.63 0 0 0-5.46 18.77c-0.69 3.09-1.32 6.16-1.73 9.25s-0.81 6.15-1 9.23a103.69 103.69 0 0 0 0.49 18.47 157.5 157.5 0 0 0 3.39 18.64l0.09 0.39a9.75 9.75 0 0 1-6.78 11.31 8.56 8.56 0 0 1-9.33-2.84 62 62 0 0 1-10.27-21.3 76.19 76.19 0 0 1-2.51-24.35 79.5 79.5 0 0 1 5.24-24.47 71.5 71.5 0 0 1 12.8-21.59c3.42-3.89 9.15-4.46 12.79-1.29a8.68 8.68 0 0 1 2.37 9.38c-0.03 0.14-0.09 0.27-0.09 0.4z"/>
<path class="cls-8" d="M2542.38,2442.69a70.59,70.59,0,0,1,10.07,22.86,77.37,77.37,0,0,1,2.14,24.72,74.45,74.45,0,0,1-5.59,23.61,61.33,61.33,0,0,1-13,19.64c-3.43,3.39-9.15,3.16-12.77-.52a9.41,9.41,0,0,1-2.28-9.85c.05-.12.09-.25.14-.37a154.22,154.22,0,0,0,5.77-17.9,103,103,0,0,0,2.83-18.1c.23-3.05.26-6.12.2-9.2s-.26-6.19-.55-9.32a189.06,189.06,0,0,0-3.09-19.14c0-.14-.05-.27-.08-.4a8.41,8.41,0,0,1,7-10.23A9.68,9.68,0,0,1,2542.38,2442.69Z"/>
<g class="cls-6">
<path class="cls-9" d="M2595.41,2455.54a45,45,0,0,1,9.37,16.78,51.59,51.59,0,0,1,2.23,19.1,44.82,44.82,0,0,1-5.19,18.1,33.44,33.44,0,0,1-12.47,13.28,7.32,7.32,0,0,1-10.36-8.18c.06-.22.11-.43.17-.64,1.25-4.87,2.49-9.13,3.36-13.41a105.88,105.88,0,0,0,1.86-12.66,107.07,107.07,0,0,0,.26-13.11c-.13-4.55-.6-9.24-.9-14.45l0-.5a6.26,6.26,0,0,1,6.44-6.74A7.45,7.45,0,0,1,2595.41,2455.54Z"/>
</g>
<g class="cls-6">
<path class="cls-9" d="m1421.5 2350.3c-1.23 5.14-2.53 9.73-3.48 14.24a110.73 110.73 0 0 0-2.13 13.12 109.38 109.38 0 0 0-0.48 13c0.07 4.43 0.5 8.9 0.83 14v0.64a7.5 7.5 0 0 1-6.38 7.76 6.43 6.43 0 0 1-5.14-1.46 33.79 33.79 0 0 1-9.68-15.51 46.68 46.68 0 0 1-1.76-19 53.34 53.34 0 0 1 5.62-18.64 45.44 45.44 0 0 1 12.12-15 6.45 6.45 0 0 1 10.56 6.42z"/>
</g>
<path class="cls-10" d="m2823.1 2869.6a32 32 0 0 1-25.27 12 34.09 34.09 0 0 1-5.25-0.41 32 32 0 0 1-12.38-4.67l-0.18-0.12c-1.21-0.82-338.48-300.42-464.35-412.65-18-16.05-31.67-28.27-39.42-35.24l10.57 1.51q30.64 4.39 61.27 9.24l15.36 2.43 39.76 34.05 412.25 353a28.55 28.55 0 0 1 13.14 19.25 27.29 27.29 0 0 1-5.5 21.61z"/>
<g class="cls-11">
<path d="m2389 2463.6c-3-0.42-81.53-10.18-85.51-10.69-18-16-19.53-17.44-27.28-24.41l10.57 1.51q30.64 4.39 61.27 9.24l15.36 2.43z"/>
</g>
<path class="cls-7" d="M2807.81,2880.08a33.3,33.3,0,0,1-10,1.53,34.09,34.09,0,0,1-5.25-.41,32,32,0,0,1-12.38-4.67l-.18-.12c-1.21-.82-338.48-300.42-464.35-412.65-18-16.05-31.67-28.27-39.42-35.24l10.57,1.51q6.63.94,13.26,1.93c8.07,7.23,20.26,18.13,35.59,31.8C2461.54,2576,2798.81,2875.59,2800,2876.41l.18.12A31.57,31.57,0,0,0,2807.81,2880.08Z"/>
<path class="cls-12" d="m3028.2 2806.2c4.22 123.23-70 225.79-165.77 229.06s-176.84-93.94-181.07-217.16c-1.49-43.55 6.81-84.51 22.41-119.42 17-38.44 85.89-9.14 147.82-11.26 63.43-2.17 133.94-17.69 150.95 10.86 0.72 1.53 1.43 3 2.12 4.59 13.82 30.62 22.25 65.76 23.54 103.33z"/>
<path class="cls-13" d="m3004.7 2702.8c-39.27 23.38-86.35 37.76-137.31 39.5-61.3 2.11-118.24-14.4-163.58-43.69 17-38.44 87.06-16 149-16.52 65.68-0.57 132.74-12.43 149.75 16.12a25.32 25.32 0 0 1 2.14 4.59z"/>
<path class="cls-14" d="m2862.4 3035.2c-95.78 3.29-176.84-93.94-181.07-217.17a286.05 286.05 0 0 1 0.91-34.9c10 116 88.33 205.22 180.16 202.07 86.57-3 155.51-87 164.86-194.14q0.64 7.47 0.91 15.08c4.22 123.22-69.99 225.81-165.77 229.06z"/>
<path class="cls-4" d="m1390.8 2108.6c0 3.67-23.81 15.25-36.41 20.62 4.23-2.41 6.58-4.54 6.58-6.6-0.18-20.61-111.76-76.15-111.93-275.54v-0.48-5.48-0.52q0-3 0.1-5.95c10.27 177.4 141.49 254.34 141.66 273.95z"/>
<path class="cls-4" d="m2644.3 2128.4c-12.95-5.65-34.48-16.28-34.45-19.77 0.16-18.89 121.63-90.8 139.95-254.23-2.45 199.63-111.6 244.95-111.4 268.37 0.02 1.98 2.12 3.79 5.9 5.63z"/>
</svg>
