<?xml version="1.0" encoding="UTF-8"?>
<svg viewBox="0 0 4e3 4e3" xmlns="http://www.w3.org/2000/svg">
<defs>
<style>.cls-1{fill:#fff;stroke:#333;stroke-linecap:round;stroke-linejoin:round;stroke-width:5px;}.cls-2{opacity:0.08;}</style>
</defs>
<title>shirt1</title>
<path class="cls-1" d="M2456.09,2938.39c-11.58,9.34-36.1,22.39-59.88,29.4-21.91,6.44-49,8-63.75,7.12a1,1,0,0,1-.86-.64,367.74,367.74,0,0,0-25.35-53.54c-.56-1-2.27-.37-1.85.68,26.89,67.13,17.06,243.22-12.92,286.29a2,2,0,0,1-.12.19c-52.73,67.75-162.12,92.05-291.36,93.17-118.33,1-232.92-30.72-293.72-90.49a2.92,2.92,0,0,1-.21-.28c-35.33-42.52-44.66-222.67-5.47-293.28.56-1-1.21-1.77-1.81-.79a408.64,408.64,0,0,0-31.08,62s0,0,0,.06c-.6,1.25-1.06,2.27-1.35,3a1,1,0,0,1-.78.61c-13.86,1.91-38.59-.48-62.86-7.16-22.82-6.29-49.43-17.74-61.84-26.41a1,1,0,0,1-.37-1.16,519.3,519.3,0,0,1,42.48-90.61q9.48-16.09,20.24-31.92c.47-.71,1-1.41,1.44-2.12,132.06,51.39,280.29,83.45,429.8,79.13,125.23-3.62,250.46-33,364.57-78l1.39,2.12q10.5,16,19.6,32a487.83,487.83,0,0,1,36.39,79.54A1,1,0,0,1,2456.09,2938.39Z"/>
<path class="cls-2" d="M2420,2857.74c-25.06,10.43-50.46,20-76,28.65-104.54,35.39-208.68,54.81-309.51,57.73-8.88.26-17.83.39-26.79.39-137.66,0-283.72-30.22-424.76-88q9.48-16.09,20.24-31.92c134.73,52.5,273.43,79.9,404.52,79.9,9,0,17.91-.13,26.79-.39,100.83-2.92,205-22.34,309.51-57.73q28.33-9.6,56.38-20.7Q2410.91,2841.65,2420,2857.74Z"/>
<path class="cls-2" d="M1684.79,2941a389.49,389.49,0,0,0-17.08,37.22s0,0,0,.06c-.6,1.25-1.06,2.27-1.35,3a1,1,0,0,1-.78.61c-13.86,1.91-38.59-.48-62.86-7.16-22.82-6.29-49.43-17.74-61.84-26.41a1,1,0,0,1-.37-1.16q2.71-7.72,5.74-15.42c13.72,8.07,36.54,17.5,56.47,23,24.27,6.68,49,9.07,62.86,7.16a1,1,0,0,0,.78-.61c.29-.73.75-1.75,1.35-3,0,0,0,0,0-.06,9.15-23.13,24.81-48.79,32.94-44.35A55,55,0,0,0,1684.79,2941Z"/>
<path class="cls-2" d="M2320,3029.86c1.09,71.84-9.78,150.89-28.54,177.84a2,2,0,0,1-.12.19c-52.73,67.75-162.12,92.05-291.36,93.17-118.33,1-232.92-30.72-293.72-90.49a2.92,2.92,0,0,1-.21-.28c-20.39-24.54-32.12-94.92-30.86-163.63,1.1,61.93,12.45,121.47,30.86,143.63a2.92,2.92,0,0,0,.21.28c60.8,59.77,175.39,91.53,293.72,90.49,129.24-1.12,238.63-25.42,291.36-93.17a2,2,0,0,0,.12-.19C2308.52,3163.23,2319,3095.83,2320,3029.86Z"/>
<path class="cls-2" d="m2456.1 2938.4c-11.58 9.34-36.1 22.39-59.88 29.4-21.91 6.44-49 8-63.75 7.12a1 1 0 0 1-0.86-0.64 354.85 354.85 0 0 0-18.38-40.83c-3.94-5.91-9.86-4.86-8.43-14.38 1-6.78 20.29 17.74 26.81 35.21a1 1 0 0 0 0.86 0.64c14.72 0.91 41.84-0.68 63.75-7.12 20.64-6.09 41.84-16.72 54.65-25.53q2.92 7.53 5.54 15a1 1 0 0 1-0.31 1.13z"/>
</svg>
