<?xml version="1.0" encoding="UTF-8"?>
<svg viewBox="0 0 4e3 4e3" xmlns="http://www.w3.org/2000/svg">
<defs>
<style>.cls-1{fill:#e8dc4b;}.cls-1,.cls-2,.cls-4{stroke:#333;}.cls-1,.cls-2,.cls-3{stroke-linecap:round;stroke-linejoin:round;}.cls-1,.cls-2,.cls-3,.cls-4{stroke-width:5px;}.cls-2{fill:#b092c2;}.cls-3{stroke:#000;opacity:0.15;}.cls-4{fill:#d8ca48;stroke-miterlimit:10;}.cls-5{opacity:0.13;}</style>
</defs>
<title>shirt2</title>
<path class="cls-1" d="M2306.86,3160.54a299.42,299.42,0,0,1-21.59,54,329.67,329.67,0,0,1-69.13,90.5c-.7.66-1.41,1.31-2.12,2l-.4.35-.5.46-1.8,1.61-.69.62c-.69.61-1.39,1.23-2.09,1.83-.85.75-1.71,1.49-2.58,2.23a334.4,334.4,0,0,1-64.59,43.33q-3.9,2-7.86,3.9t-8,3.7l-2.77,1.22c-1,.44-2,.88-3,1.3l-2.85,1.2-1.23.5c-1,.42-2,.83-3.05,1.23s-2.25.89-3.38,1.32l-.22.08c-1.31.5-2.62,1-3.93,1.47q-5.85,2.16-11.79,4.09l-3.09,1-2.7.82-1.56.47c-.9.27-1.8.54-2.71.79s-1.67.49-2.51.72c-.63.18-1.27.36-1.91.52-1.14.32-2.28.62-3.42.91-.35.11-.71.2-1.06.28-1.29.34-2.58.67-3.88,1l-1.17.28-2.07.49q-5.13,1.2-10.3,2.22l-2.58.51-.67.12c-1.19.23-2.38.44-3.58.65l-.13,0q-2.14.38-4.32.72c-1.44.24-2.88.46-4.33.67l-1.71.25-3.4.46-.36.05-3.14.38-1.94.23-2.66.29q-15,1.59-30.47,1.73a297.55,297.55,0,0,1-34.84-1.75l-2-.23c-.7-.07-1.41-.16-2.11-.25l-3.15-.41q-3.13-.42-6.26-.91-6.11-.95-12.12-2.15-2.88-.57-5.75-1.2-9.69-2.12-19.17-4.86-2.25-.64-4.47-1.32c-1.21-.37-2.41-.74-3.62-1.13l-.25-.08q-.65-.19-1.29-.42l-.7-.22-2.72-.9-.92-.32-1.73-.59-.18-.07-1.82-.63-.51-.19-.82-.29c-.84-.3-1.67-.6-2.49-.91l-.66-.25-.39-.14c-.59-.21-1.17-.43-1.75-.66l-1.5-.58-1.29-.49q-11.64-4.54-22.83-10c-1.1-.54-2.21-1.08-3.3-1.63q-9.81-4.87-19.21-10.41c-.68-.39-1.35-.79-2-1.19q-3.12-1.86-6.21-3.8l-2.11-1.33c-.76-.48-1.51-1-2.26-1.46l-1.38-.89-.24-.16-2.16-1.43-.65-.44c-.6-.4-1.2-.8-1.79-1.21-.82-.55-1.63-1.11-2.44-1.67l-.62-.43-.94-.66-2.45-1.73-1.08-.78c-1.2-.86-2.38-1.72-3.56-2.61l-1.38-1c-.72-.54-1.44-1.08-2.15-1.63s-1.65-1.25-2.46-1.89a.48.48,0,0,1-.11-.09l-.77-.59-1.94-1.53-1.32-1a1.74,1.74,0,0,0-.22-.18l-.88-.72-1.71-1.39-1.32-1.09-2.84-2.37q-1.82-1.54-3.6-3.1c-.9-.78-1.8-1.57-2.69-2.37l-2.66-2.39-.1-.09-2.53-2.32c-.87-.8-1.73-1.61-2.59-2.43s-1.78-1.68-2.66-2.54c-1.28-1.24-2.56-2.49-3.82-3.75-32.07-32-57.37-70-73.52-110.59q-4.59-11.49-8.16-23.25a786.64,786.64,0,0,0,89.21,25q12.27,2.7,24.82,5.08,15.45,2.93,31.3,5.38,17.91,2.76,36.29,4.9,31.25,3.63,63.7,5.36,19.35,1,39.11,1.34c2.64.05,5.28.08,7.92.11q9.59.09,19.26,0,10.37-.09,20.62-.38,15.27-.41,30.31-1.26,33.66-1.86,66.1-5.81h0q14.09-1.68,27.92-3.77,4.65-.69,9.26-1.44,3-.47,5.9-1l2.36-.39,6.83-1.18.75-.13c2.39-.42,4.77-.86,7.15-1.3l.12,0,.29-.06c2.51-.46,5-.94,7.51-1.43l2-.38c2.54-.49,5.06-1,7.58-1.52h0q10.7-2.19,21.16-4.61A794.05,794.05,0,0,0,2306.86,3160.54Z"/>
<path class="cls-2" d="m1969.5 3273.7c-10.12 20.33-71 4.29-74.6 18.43-3.54 13.79 56.26 29.44 55 53.68a18.85 18.85 0 0 1-2.55 8.15c-6.21 11.09-22.73 21.58-39.63 25.93a313.3 313.3 0 0 1-45.47-17.86c-6.94-17-5.61-39.1-14.65-40.42-6.56-1-11.75 10-18.2 22.06a338.57 338.57 0 0 1-57.32-46c10.11-1.94 21.2-2.71 29.14-5 5.6-1.59 9.63-3.92 10.67-7.92 3.73-14.39-37.34-25.41-37.79-50.61-0.28-15.23 14.79-32.56 30.33-40.24q15.45 2.93 31.3 5.38c11.42 17.34 11.06 52.58 19.23 52.49 7.34 0 8.31-28.57 17.06-47.59q31.25 3.63 63.7 5.36c22.6 20.56 40.75 50.11 33.78 64.16z"/>
<path class="cls-2" d="m2246.3 3270.3c-3.73 7.29-14.35 9.25-26.45 9.52-20.74 0.47-45.86-4-48.11 4.76-1.36 5.23 6.52 11.18 16.71 17.92 5.52 3.65 11.71 7.53 17.49 11.65a334.4 334.4 0 0 1-64.59 43.33c-4.22-7.88-6.07-17.42-7.67-25.77-2-10.52-3.69-19.16-9.2-20.27-8.74-1.75-15.08 17.86-25.22 32.77-5.43 8-12 14.62-20.52 15.88-6.85 1-14.39-1.49-21.64-6.09-20.8-13.2-39.23-43.75-32.35-58.76 9.09-19.89 59.91-7.14 64-22.61 3.74-14.18-37.38-27.5-37.83-52.72a27.48 27.48 0 0 1 2-10.44q33.66-1.86 66.1-5.81c5.28 17.68 6.54 38.1 12.76 38.39 6.77 0.33 8.13-23.85 15.16-42.16q25.34-3.79 49.72-8.81c22.55 15.81 45.36 45.08 50.15 65.11 1.41 5.59 1.35 10.45-0.51 14.11z"/>
<path class="cls-3" d="M2285.27,3214.55a329.67,329.67,0,0,1-69.13,90.5c-.7.66-1.41,1.31-2.12,2l-.4.35-.5.46-1.8,1.61-.69.62c-.69.61-1.39,1.23-2.09,1.83-.85.75-1.71,1.49-2.58,2.23a334.4,334.4,0,0,1-64.59,43.33q-3.9,2-7.86,3.9t-8,3.7l-2.77,1.22c-1,.44-2,.88-3,1.3l-2.85,1.2-1.23.5c-1,.42-2,.83-3.05,1.23s-2.25.89-3.38,1.32l-.22.08c-1.31.5-2.62,1-3.93,1.47q-5.85,2.16-11.79,4.09l-3.09,1-2.7.82-1.56.47c-.9.27-1.8.54-2.71.79s-1.67.49-2.51.72c-.63.18-1.27.36-1.91.52-1.14.32-2.28.62-3.42.91-.35.11-.71.2-1.06.28-1.29.34-2.58.67-3.88,1l-1.17.28-2.07.49q-5.13,1.2-10.3,2.22l-2.58.51-.67.12c-1.19.23-2.38.44-3.58.65l-.13,0q-2.14.38-4.32.72c-1.44.24-2.88.46-4.33.67l-1.71.25-3.4.46-.36.05-3.14.38-1.94.23-2.66.29q-15,1.59-30.47,1.73a297.55,297.55,0,0,1-34.84-1.75l-2-.23c-.7-.07-1.41-.16-2.11-.25l-3.15-.41q-3.13-.42-6.26-.91-6.11-.95-12.12-2.15-2.88-.57-5.75-1.2-9.69-2.12-19.17-4.86-2.25-.64-4.47-1.32c-1.21-.37-2.41-.74-3.62-1.13l-.25-.08q-.65-.19-1.29-.42l-.7-.22-2.72-.9-.92-.32-1.73-.59-.18-.07-1.82-.63-.51-.19-.82-.29c-.84-.3-1.67-.6-2.49-.91l-.66-.25-.39-.14c-.59-.21-1.17-.43-1.75-.66l-1.5-.58-1.29-.49q-11.64-4.54-22.83-10c-1.1-.54-2.21-1.08-3.3-1.63q-9.81-4.87-19.21-10.41c-.68-.39-1.35-.79-2-1.19q-3.12-1.86-6.21-3.8l-2.11-1.33c-.76-.48-1.51-1-2.26-1.46l-1.38-.89-.24-.16-2.16-1.43-.65-.44c-.6-.4-1.2-.8-1.79-1.21-.82-.55-1.63-1.11-2.44-1.67l-.62-.43-.94-.66-2.45-1.73-1.08-.78c-1.2-.86-2.38-1.72-3.56-2.61l-1.38-1c-.72-.54-1.44-1.08-2.15-1.63s-1.65-1.25-2.46-1.89a.48.48,0,0,1-.11-.09l-.77-.59-1.94-1.53-1.32-1a1.74,1.74,0,0,0-.22-.18l-.88-.72-1.71-1.39-1.32-1.09-2.84-2.37q-1.82-1.54-3.6-3.1c-.9-.78-1.8-1.57-2.69-2.37l-2.66-2.39-.1-.09-2.53-2.32c-.87-.8-1.73-1.61-2.59-2.43s-1.78-1.68-2.66-2.54c-1.28-1.24-2.56-2.49-3.82-3.75-32.07-32-57.37-70-73.52-110.59a443.91,443.91,0,0,0,38.56,48.63q9.06,9.89,18.8,19.28a401.82,401.82,0,0,0,45.3,37.71q7.89,5.63,16.08,10.87a362.4,362.4,0,0,0,42.13,23.16q13.92,6.49,28.54,11.77a336.41,336.41,0,0,0,37.25,11.06q10.9,2.55,22.13,4.4a338.36,338.36,0,0,0,57.26,4.43q12.87-.1,25.37-1.13,13.79-1.12,27.1-3.34,13.82-2.27,27.13-5.62,7.59-1.92,15-4.17a339.34,339.34,0,0,0,34.42-12.5q13.59-5.77,26.5-12.62,14.57-7.68,28.27-16.59,10.55-6.83,20.57-14.31,5.49-4.09,10.83-8.37,4.44-3.54,8.75-7.21,9.4-8,18.28-16.42,11.91-11.36,22.86-23.49Q2277.79,3223.78,2285.27,3214.55Z"/>
<path class="cls-4" d="M1962.77,3391.26c0,.39-.09.77-.13,1.16-.19,1.63-.37,3.27-.55,4.93-.14,1.33-.28,2.67-.41,4,0,.23,0,.46-.07.7-.12,1.19-.23,2.4-.34,3.61q-.12,1.37-.24,2.76c-.12,1.36-.23,2.73-.34,4.1s-.22,2.89-.32,4.34q-.09,1.07-.15,2.13c-.11,1.62-.22,3.25-.31,4.9s-.18,3.14-.25,4.72c-.12,2.12-.21,4.25-.3,6.4,0,.68-.06,1.36-.1,2,0,.37,0,.73-.08,1.09s0,.72-.08,1.07-.08.88-.13,1.32a.11.11,0,0,1,0,.08c-.06.6-.13,1.2-.2,1.79l0,0a67.17,67.17,0,0,0-27.5-17.37c-20.06-6.65-44.41-11.44-70.68-14-11.21-1.1-22.78-1.79-34.51-2.05-6.45-.14-13.59-.16-21.28,0-10.57.25-22.17.88-34.44,2.11q.35-5.7.77-11.27c.07-1,.15-2,.24-3,.29-3.77.62-7.51,1-11.2a.15.15,0,0,0,0-.07l.12-1.26c.08-.87.17-1.72.25-2.58,0-.43.09-.87.13-1.3.17-1.62.34-3.23.52-4.84s.36-3.29.55-4.92.38-3.26.58-4.87q.36-3,.75-6c.16-1.18.31-2.35.47-3.51q.87-6.42,1.83-12.67l.51-3.32c.17-1.08.34-2.15.52-3.21.22-1.36.44-2.72.67-4.06.25-1.51.51-3,.77-4.5.22-1.27.44-2.53.67-3.78.89-5,1.83-9.84,2.79-14.64h0c0-.05,0-.11,0-.15s0,0,0,0c.11-.34.21-.69.33-1a336.14,336.14,0,0,0,45.62,34.87l2.11,1.33q13.31,8.36,27.44,15.4c1.09.55,2.2,1.09,3.3,1.63q11.19,5.43,22.83,10,11.13,4.35,22.64,7.87,2.22.68,4.47,1.32A300.8,300.8,0,0,0,1962.77,3391.26Z"/>
<path class="cls-2" d="M1885.12,3372.06c-4,13.23-11.57,33.65-24.55,39-11.21-1.1-22.78-1.79-34.51-2.05-6.45-.14-13.59-.16-21.28,0-9.12-16-7.62-39.75-17-41.06-5.8-.8-10.23,7.65-15.45,17.66a.15.15,0,0,0,0-.07l.12-1.26c.08-.87.17-1.72.25-2.58,0-.43.09-.87.13-1.3.17-1.62.34-3.23.52-4.84s.36-3.29.55-4.92.38-3.26.58-4.87q.36-3,.75-6c.16-1.18.31-2.35.47-3.51q.87-6.42,1.83-12.67l.51-3.32c.17-1.08.34-2.15.52-3.21.22-1.36.44-2.72.67-4.06.25-1.51.51-3,.77-4.5.22-1.27.44-2.53.67-3.78.89-5,1.83-9.84,2.79-14.64h0c0-.05,0-.11,0-.15s0,0,0,0c.07-.37.15-.75.23-1.12l.1.09a336.14,336.14,0,0,0,45.62,34.87l2.11,1.33q13.31,8.36,27.44,15.4c1.09.55,2.2,1.09,3.3,1.63Q1873.48,3367.5,1885.12,3372.06Z"/>
<path class="cls-4" d="M2229.17,3411c-10.54-1.05-20.58-1.64-29.89-1.94s-17.76-.31-25.33-.14c-12.52.27-24.86,1-36.78,2.27-25.41,2.62-48.94,7.33-68.42,13.79a67.23,67.23,0,0,0-27.8,17.68c-.15-1.38-.26-2.78-.34-4.19-1-17.05-2.63-33.05-4.79-48.13l.36-.05,3.4-.46,1.71-.25c1.45-.21,2.89-.43,4.33-.67s2.89-.47,4.32-.72l.13,0c1.2-.21,2.39-.42,3.58-.65l.67-.12,2.58-.51q5.17-1,10.3-2.22l2.07-.49,1.17-.28c1.3-.31,2.59-.64,3.88-1,.35-.08.71-.17,1.06-.28,1.14-.29,2.28-.59,3.42-.91.64-.16,1.28-.34,1.91-.52.84-.23,1.68-.47,2.51-.72s1.81-.52,2.71-.79l1.56-.47,2.7-.82,3.09-1q5.94-1.93,11.79-4.09c1.31-.47,2.62-1,3.93-1.47l.22-.08c1.13-.43,2.26-.87,3.38-1.32s2-.81,3.05-1.23l1.23-.5,2.85-1.2c1-.42,2-.86,3-1.3l2.77-1.22q4-1.8,8-3.7t7.86-3.9a334.4,334.4,0,0,0,64.59-43.33c.87-.74,1.73-1.48,2.58-2.23.7-.6,1.4-1.22,2.09-1.83l.69-.62,1.8-1.61.5-.46c3.74,16.67,7.09,34.36,9.86,53.18C2225.84,3376.54,2227.78,3393.36,2229.17,3411Z"/>
<path class="cls-2" d="M2223.48,3360.54c-2.52-2.56-5.09-3.9-7.83-3.38-11,2.07-5.72,33-16.37,51.94-9.24-.31-17.76-.31-25.33-.14-12.52.27-24.86,1-36.78,2.27-11.1-1.83-31.61-25.88-28-39.42,1.13-.43,2.26-.87,3.38-1.32s2-.81,3.05-1.23l1.23-.5,2.85-1.2c1-.42,2-.86,3-1.3l2.77-1.22q4-1.8,8-3.7t7.86-3.9a334.4,334.4,0,0,0,64.59-43.33c.87-.74,1.73-1.48,2.58-2.23.7-.6,1.4-1.22,2.09-1.83l.69-.62,1.8-1.61.5-.46C2217.36,3324,2220.71,3341.72,2223.48,3360.54Z"/>
<g class="cls-5">
<path d="M1959.44,3433.13c0,.63,0,1.27-.08,1.9q-.15,3.73-.58,7.39a67.23,67.23,0,0,0-27.53-17.4c-28.62-9.49-66-15.2-105.2-16.06a459.31,459.31,0,0,0-55.71,2.13c.2-3.39.43-6.74.68-10.07a462.82,462.82,0,0,1,55-2.06c39.22.86,76.58,6.57,105.2,16.06A67.16,67.16,0,0,1,1959.44,3433.13Z"/>
<path d="m2229.2 3411a462.3 462.3 0 0 0-55.17-2c-39.22 0.86-76.58 6.57-105.2 16.06a67.16 67.16 0 0 0-27.8 17.69c-0.15-1.39-0.26-2.79-0.34-4.2-0.1-1.71-0.2-3.4-0.32-5.09a67.14 67.14 0 0 1 28.46-18.4c28.62-9.49 66-15.2 105.2-16.06a462.57 462.57 0 0 1 54.36 2q0.4 4.95 0.81 10z"/>
</g>
<g class="cls-5">
<path d="m1783.7 3308.8c48.55 44.14 110.63 75 179.06 82.49q-0.87 7.27-1.54 14.83c-69-7.92-131.44-39.58-180-84.59q1.2-6.49 2.48-12.73z"/>
<path d="m2216.3 3319.9c-47.76 44.29-109.47 75.84-178.59 85.21q-0.87-7.51-1.91-14.74c68.6-8.88 130-39.6 177.8-83q1.38 6.18 2.7 12.53z"/>
</g>
</svg>
