<?xml version="1.0" encoding="UTF-8"?>
<svg viewBox="0 0 4e3 4e3" xmlns="http://www.w3.org/2000/svg">
<defs>
<style>.cls-1{fill:#446593;}.cls-1,.cls-7{stroke:#333;}.cls-1,.cls-7,.cls-8{stroke-miterlimit:10;}.cls-1,.cls-4,.cls-7,.cls-8{stroke-width:5px;}.cls-2,.cls-5{opacity:0.3;}.cls-3,.cls-5{fill:none;}.cls-4,.cls-8{stroke:#000;}.cls-4{stroke-linecap:round;stroke-linejoin:round;opacity:0.15;}.cls-6{opacity:0.13;}.cls-7{fill:#755841;}.cls-8,.cls-9{opacity:0.1;}</style>
</defs>
<title>shirt5</title>
<path class="cls-1" d="M2306.86,3160.54c-.32,1.1-.64,2.2-1,3.29a1.54,1.54,0,0,0,0,.17q-1.05,3.47-2.19,6.9c-.36,1.11-.74,2.21-1.12,3.32q-2.52,7.35-5.44,14.58c-.43,1.06-.86,2.11-1.3,3.17s-.76,1.81-1.15,2.72c-.48,1.11-1,2.23-1.46,3.34s-1,2.23-1.5,3.34-1,2.21-1.54,3.31-.9,1.9-1.36,2.84c-.6,1.26-1.22,2.51-1.85,3.76-.54,1.09-1.1,2.18-1.66,3.27-.45.88-.91,1.75-1.37,2.62-.12.23-.24.45-.35.68l-1.58,2.92c-.56,1-1.13,2.07-1.7,3.09-.48.85-.95,1.7-1.43,2.54-.21.38-.43.75-.65,1.12-.47.83-1,1.65-1.44,2.47s-1.1,1.88-1.67,2.81c-.12.21-.24.41-.37.61-.53.88-1.07,1.77-1.62,2.65s-1.24,2-1.88,3q-.67,1.08-1.38,2.16c-.36.57-.73,1.13-1.1,1.69-.45.71-.92,1.41-1.39,2.11q-2,3-4,5.89t-4.14,5.8c-1.41,1.93-2.83,3.83-4.28,5.73-.72.95-1.45,1.9-2.19,2.83s-1.47,1.88-2.22,2.82-1.49,1.87-2.25,2.79-1.52,1.85-2.29,2.77c-.5.61-1,1.21-1.53,1.82l-1.42,1.68-1.55,1.79-.42.47c-.7.81-1.41,1.61-2.12,2.41s-1.6,1.79-2.41,2.68-1.42,1.56-2.14,2.33l-.71.76c-.58.63-1.18,1.26-1.77,1.89l-.8.84-1.87,1.95c-1,1-1.94,2-2.92,3-.76.77-1.53,1.53-2.3,2.29l-2.6,2.54c-.87.84-1.74,1.68-2.62,2.5s-1.76,1.66-2.65,2.48c-.7.67-1.41,1.31-2.12,2l-.4.35-.5.46-1.8,1.61-.69.62-1,.92-1.05.91c-.85.75-1.71,1.49-2.58,2.23q-3.67,3.13-7.44,6.17l-1.84,1.48-1.86,1.46-.09.08-.06,0,0,0-.5.39c-1.07.85-2.15,1.68-3.24,2.5q-1.89,1.44-3.81,2.86l-.07,0c-1,.75-2,1.49-3.05,2.22l-.88.63-.23.17q-1.86,1.32-3.75,2.63l-1.26.88-2.53,1.72-.28.19c-1.07.72-2.15,1.43-3.23,2.14l-1,.63-.45.29-.84.54-1.8,1.15-.74.47-.09.06-.78.49-.3.18q-1,.63-2,1.23l-.06,0-.3.18-.19.12-.45.28-.46.28-.72.43-.31.19c-.93.56-1.86,1.12-2.8,1.67l0,0-.45.26-1.47.86-1.94,1.12-.33.19c-1,.58-2,1.15-3.06,1.72l-1.22.68-.33.18-.44.23a.39.39,0,0,1-.11.06l-.35.2-.33.18-1.44.78-.72.39-.6.32-.61.32-.7.37-3.05,1.58c-1.3.67-2.6,1.33-3.91,2h0l-2.89,1.42-.62.3-.43.2-2,.95c-.24.11-.47.23-.71.33l-.42.2-.87.4-3.22,1.46-.68.31a2.41,2.41,0,0,1-.33.15c-.65.3-1.31.59-2,.87-1,.43-1.95.86-2.93,1.27l-.05,0-.28.13-.13.05-.06,0a.47.47,0,0,1-.15.06l-1,.41c-.36.15-.72.31-1.08.45l-.81.34-1.23.5-.81.33-1,.41-.61.24-.69.28-1,.4-.14,0c-.64.27-1.3.52-2,.76l-.34.13-.65.25-1.62.61-.86.32c-.66.25-1.32.5-2,.73l-.21.08-.73.26-1.44.52-.77.27-1.6.56-.69.23a5.17,5.17,0,0,1-.51.18l-.18.07-.33.11-1.25.42-2.24.74-.67.22-1.49.48-1.65.53-.3.09-.21.06-.84.26-1.53.46q-.69.22-1.38.42l-1.35.4-.68.2-.68.19-1.06.31c-.36.11-.71.21-1.07.3l-.38.11-1.34.37-.36.1-.83.22-1,.28-.5.13-1.56.41-.26.07-1.25.32-1.22.31-3.11.76-1.85.44-2.65.61-.14,0-.38.08-.61.14-1.42.32-1,.21q-.86.2-1.71.36l-1.42.29-1.57.32-1.36.26-.21,0-.6.12-.67.12-1.22.23c-.56.11-1.13.21-1.69.3-.22.05-.45.09-.67.12l-.13,0-.35.06a2.25,2.25,0,0,1-.36.06l-.63.11-1.95.32-1,.17-.92.15-.18,0-1.06.17-1.23.18-.94.14c-.75.12-1.5.23-2.26.33l-2.85.38-.36.05a1,1,0,0,1-.25,0l-2.89.35-1.94.23-1.54.17-.31,0-.81.09-1.23.12c-1,.1-2.1.21-3.15.3s-2.11.2-3.16.28-2.09.17-3.15.24c-.63.05-1.27.1-1.91.13-1,.07-2,.13-3,.18-.14,0-.28,0-.42,0l-2.91.14q-1.89.09-3.81.15h-.4c-1.15,0-2.3.07-3.46.09s-2.57.05-3.85.06c-3.16,0-6.3,0-9.43-.08-.68,0-1.35,0-2,0s-1.21,0-1.82-.06l-1.85-.07q-3.73-.15-7.46-.41l-1.56-.11-2.6-.2c-1.52-.12-3-.26-4.55-.4l-3.06-.32-.48,0h0l-2-.23-.61-.07-1-.12-.37-.05h-.12l-1.86-.24-.61-.08-.68-.09-.58-.08-.22,0-.76-.11-.77-.11a1,1,0,0,1-.24,0l-.92-.13c-.33,0-.67-.09-1-.15l-.68-.11-.33,0h0l-.73-.11-1.92-.31-.14,0-.25,0-.1,0-.64-.1q-1.31-.21-2.61-.45l-.12,0-.4-.07H1943a1.09,1.09,0,0,1-.26,0l-.33-.06-.13,0-.17,0-.33-.06-.29-.06-.32-.05-.38-.07-.22,0h0l-.19,0h0l-.78-.15-1.66-.32-.45-.09c-.39-.07-.78-.14-1.16-.23l-.2,0-.5-.1-.3-.06-.08,0-.54-.11-.34-.07q-.48-.09-1-.21c-.34-.06-.67-.13-1-.21l-.73-.15h0l-.32-.07-.07,0c-.36-.07-.73-.15-1.09-.24l-.24-.05-.88-.2h0l-.42-.1-.16,0-.3-.07-1.15-.27-1.17-.28c-.26-.05-.51-.11-.77-.18l-.29-.07-.56-.14-1.5-.37-.9-.23c-.36-.08-.71-.17-1.06-.27l-1.33-.34-.29-.08-.14,0h0s0,0,0,0a.79.79,0,0,1-.22-.06l-.17,0-.74-.2-.75-.2-1.17-.32-.51-.14-.7-.2-2.37-.67-2.5-.73-1-.29-.42-.12-1-.32c-.46-.13-.91-.27-1.36-.42l-2.49-.79-1.56-.5-.61-.2-2.11-.7-.14,0-.23-.08,0,0-.19-.06-.31-.11-.27-.09-1.46-.5-.18-.07-.25-.08q-.35-.13-.69-.24l-.34-.12-.54-.19-.29-.11h-.11l-.06,0,0,0-.1,0-.18-.06h0l-.44-.16c-.19-.06-.39-.13-.58-.21q-1.07-.37-2.13-.78l-.65-.25-.16,0-.07,0c-.59-.21-1.17-.43-1.75-.66l-1.3-.49-.19-.07-1.1-.43-.72-.28-2.34-.93-.16-.07-2.77-1.13-.14-.06-2.74-1.15-1.08-.46-1-.45-1.1-.48-.31-.14-.24-.11-1-.43-1-.43-2.23-1-.61-.28-2.91-1.36-2.71-1.3-1.39-.68-1.91-.95-1-.47-.72-.37-.14-.07-1-.5-1.5-.77-.19-.1-.27-.14-.4-.21-.54-.28-.55-.29-.76-.4,0,0-.1,0-.16-.09-.52-.28-.82-.44-1.25-.67-.59-.33-.74-.4-1.93-1.07-.45-.25-.33-.18-.2-.12-.35-.19-.11-.07c-.36-.2-.72-.4-1.07-.61s-.73-.41-1.09-.62l-.1-.06-.49-.28-1.21-.7-1.35-.79-.34-.2-.46-.27-.45-.27-.08,0,0,0-.28-.17h0l-.12-.07-.54-.33,0,0-1.69-1-.13-.08-.24-.15-2.38-1.47-.72-.45-.2-.12-.21-.13c-.12-.08-.25-.15-.37-.24a2.12,2.12,0,0,1-.2-.12l-1-.62-.21-.13-.06,0c-.86-.55-1.72-1.1-2.57-1.66l-.09-.06a.2.2,0,0,1-.08,0l-.18-.12-.61-.4-.14-.09-.1-.07-2.16-1.43-.33-.21-.28-.2,0,0-.09-.06c-.57-.38-1.14-.76-1.7-1.15,0,0,0,0,0,0l-.53-.36-.56-.39-.79-.54-.3-.21-.69-.47,0,0-.09-.06,0,0-.45-.31h0l-.33-.24-.15-.11-1.61-1.13-.84-.6-1.08-.78-1.47-1.06-.06-.05a.88.88,0,0,1-.17-.12l-.09-.06h0l-.09-.07s0,0,0,0h0l-.13-.1a1.33,1.33,0,0,1-.19-.14,1.49,1.49,0,0,1-.2-.15l-.5-.37-.41-.29-.17-.12-.28-.22a.35.35,0,0,1-.1-.08,4,4,0,0,1-.35-.26l-.23-.16-.11-.09-.06,0-.29-.22c-.25-.18-.51-.37-.76-.57l-.15-.11-1.24-.95-.45-.33-.05,0-.41-.31-.53-.42-.37-.29-.13-.1-.21-.15-.31-.25h0l0,0,0,0-.65-.5-.15-.12-1.94-1.53c-.32-.24-.63-.49-.94-.74l-.27-.22-.12-.1-.06,0-.15-.12-.44-.36-.13-.1,0,0-.19-.17-.09-.07-1.25-1-.06-.05-.45-.37-1-.78-.38-.32-.67-.55c-.13-.12-.26-.22-.39-.32l-.31-.26,0,0-.06-.05-.16-.13-.16-.14-.25-.21-.12-.1-.1-.09-.53-.44-.6-.52-.29-.24-.08-.07-2.63-2.27-.09-.07-2.6-2.3-.13-.11-.1-.09-.12-.11-.68-.61-1.63-1.47-.1-.09-2.53-2.32c-.87-.8-1.73-1.61-2.59-2.43-1.19-1.12-2.36-2.25-3.53-3.39-.35-.33-.7-.68-1-1-.84-.82-1.67-1.65-2.5-2.48l-1.62-1.64c-.63-.64-1.26-1.28-1.87-1.93s-1.09-1.11-1.61-1.67q-1.64-1.71-3.24-3.43c-.93-1-1.85-2-2.76-3-1.12-1.23-2.22-2.47-3.32-3.71-.77-.87-1.53-1.75-2.29-2.63s-1.58-1.84-2.36-2.77-1.63-1.93-2.43-2.91q-1.66-2-3.3-4.06-.85-1-1.68-2.13l-1.81-2.31-1-1.31c-.59-.76-1.17-1.52-1.74-2.29s-1.22-1.62-1.82-2.44l-2-2.73-.6-.83c-.56-.77-1.11-1.55-1.66-2.34-.26-.36-.52-.73-.77-1.1-.62-.87-1.23-1.76-1.83-2.64-.06-.08-.11-.16-.16-.24-.77-1.12-1.52-2.24-2.27-3.36s-1.45-2.2-2.17-3.3l-.19-.31c-.46-.7-.91-1.41-1.36-2.11l-.28-.44-1.15-1.83q-3-4.86-5.88-9.8c-.64-1.11-1.28-2.22-1.9-3.34s-1.12-2-1.67-3c-.28-.5-.56-1-.83-1.52l-.08-.15c-.48-.89-1-1.78-1.43-2.68l-.11-.22c-.63-1.18-1.24-2.38-1.85-3.57-.46-.9-.92-1.8-1.37-2.71l-.15-.31c-.61-1.22-1.2-2.44-1.79-3.67a.16.16,0,0,1,0-.07c-.45-.94-.9-1.88-1.33-2.82q-2-4.18-3.8-8.42l-.87-2-.87-2.08c-.11-.25-.21-.51-.31-.76l-.12-.3c-.42-1-.84-2-1.24-3.05s-.76-1.92-1.13-2.88q-2.28-5.88-4.29-11.82c-.3-.9-.6-1.79-.89-2.69s-.59-1.8-.87-2.71-.67-2.1-1-3.15a786.64,786.64,0,0,0,89.21,25q12.27,2.7,24.82,5.08,15.45,2.93,31.3,5.38,17.91,2.76,36.29,4.9,25.17,2.92,51.13,4.61c4.17.28,8.37.53,12.57.75q19.35,1,39.11,1.34c2.64.05,5.28.08,7.92.11q9.59.09,19.26,0,10.37-.09,20.62-.38,15.27-.41,30.31-1.26,22.55-1.24,44.56-3.45,10.85-1.07,21.54-2.36h0q14.09-1.68,27.92-3.77,4.65-.69,9.26-1.44,3-.47,5.9-1l2.36-.39,6.83-1.18.75-.13c2.39-.42,4.77-.86,7.15-1.3l.12,0,.29-.06c2.51-.46,5-.94,7.51-1.43l2-.38c2.54-.49,5.06-1,7.58-1.52h0q10.7-2.19,21.16-4.61A794.05,794.05,0,0,0,2306.86,3160.54Z"/>
<path class="cls-1" d="M1962.77,3391.26c0,.39-.09.77-.13,1.16-.19,1.63-.37,3.27-.55,4.93-.14,1.33-.28,2.67-.41,4,0,.23,0,.46-.07.7-.12,1.19-.23,2.4-.34,3.61q-.12,1.37-.24,2.76c-.12,1.36-.23,2.73-.34,4.1s-.22,2.89-.32,4.34q-.09,1.07-.15,2.13c-.11,1.62-.22,3.25-.31,4.9s-.18,3.14-.25,4.72c-.12,2.12-.21,4.25-.3,6.4,0,.68-.06,1.36-.1,2,0,.37,0,.73-.08,1.09s0,.72-.08,1.07-.08.88-.13,1.32a.11.11,0,0,1,0,.08c-.06.6-.13,1.2-.2,1.79l0,0a67.17,67.17,0,0,0-27.5-17.37c-20.06-6.65-44.41-11.44-70.68-14-11.21-1.1-22.78-1.79-34.51-2.05-6.45-.14-13.59-.16-21.28,0-10.57.25-22.17.88-34.44,2.11q.35-5.7.77-11.27c.07-1,.15-2,.24-3,.29-3.77.62-7.51,1-11.2a.15.15,0,0,0,0-.07l.12-1.26c.08-.87.17-1.72.25-2.58,0-.43.09-.87.13-1.3.17-1.62.34-3.23.52-4.84s.36-3.29.55-4.92.38-3.26.58-4.87q.36-3,.75-6c.16-1.18.31-2.35.47-3.51q.87-6.42,1.83-12.67l.51-3.32c.17-1.08.34-2.15.52-3.21.22-1.36.44-2.72.67-4.06.25-1.51.51-3,.77-4.5.22-1.27.44-2.53.67-3.78.89-5,1.83-9.84,2.79-14.64h0c0-.05,0-.11,0-.15s0,0,0,0c.11-.34.21-.69.33-1a336.14,336.14,0,0,0,45.62,34.87l2.11,1.33q13.31,8.36,27.44,15.4c1.09.55,2.2,1.09,3.3,1.63q11.19,5.43,22.83,10,11.13,4.35,22.64,7.87,2.22.68,4.47,1.32A300.8,300.8,0,0,0,1962.77,3391.26Z"/>
<path class="cls-1" d="M2229.17,3411c-10.54-1.05-20.58-1.64-29.89-1.94s-17.76-.31-25.33-.14c-12.52.27-24.86,1-36.78,2.27-25.41,2.62-48.94,7.33-68.42,13.79a67.23,67.23,0,0,0-27.8,17.68c-.15-1.38-.26-2.78-.34-4.19-1-17.05-2.63-33.05-4.79-48.13l.36-.05,3.4-.46,1.71-.25c1.45-.21,2.89-.43,4.33-.67s2.89-.47,4.32-.72l.13,0c1.2-.21,2.39-.42,3.58-.65l.67-.12,2.58-.51q5.17-1,10.3-2.22l2.07-.49,1.17-.28c1.3-.31,2.59-.64,3.88-1,.35-.08.71-.17,1.06-.28,1.14-.29,2.28-.59,3.42-.91.64-.16,1.28-.34,1.91-.52.84-.23,1.68-.47,2.51-.72s1.81-.52,2.71-.79l1.56-.47,2.7-.82,3.09-1q5.94-1.93,11.79-4.09c1.31-.47,2.62-1,3.93-1.47l.22-.08c1.13-.43,2.26-.87,3.38-1.32s2-.81,3.05-1.23l1.23-.5,2.85-1.2c1-.42,2-.86,3-1.3l2.77-1.22q4-1.8,8-3.7t7.86-3.9a334.4,334.4,0,0,0,64.59-43.33c.87-.74,1.73-1.48,2.58-2.23.7-.6,1.4-1.22,2.09-1.83l.69-.62,1.8-1.61.5-.46c3.74,16.67,7.09,34.36,9.86,53.18C2225.84,3376.54,2227.78,3393.36,2229.17,3411Z"/>
<g class="cls-2">
<path class="cls-3" d="M2306.86,3160.54c-.32,1.1-.64,2.2-1,3.29a1.54,1.54,0,0,0,0,.17q-1.05,3.47-2.19,6.9c-.36,1.11-.74,2.21-1.12,3.32q-2.52,7.35-5.44,14.58c-.43,1.06-.86,2.11-1.3,3.17s-.76,1.81-1.15,2.72c-.48,1.11-1,2.23-1.46,3.34s-1,2.23-1.5,3.34-1,2.21-1.54,3.31-.9,1.9-1.36,2.84c-.6,1.26-1.22,2.51-1.85,3.76-.54,1.09-1.1,2.18-1.66,3.27-.45.88-.91,1.75-1.37,2.62-.12.23-.24.45-.35.68l-1.58,2.92c-.56,1-1.13,2.07-1.7,3.09-.48.85-.95,1.7-1.43,2.54-.21.38-.43.75-.65,1.12-.47.83-1,1.65-1.44,2.47s-1.1,1.88-1.67,2.81c-.12.21-.24.41-.37.61-.53.88-1.07,1.77-1.62,2.65s-1.24,2-1.88,3q-.67,1.08-1.38,2.16c-.36.57-.73,1.13-1.1,1.69-.45.71-.92,1.41-1.39,2.11q-2,3-4,5.89t-4.14,5.8c-1.41,1.93-2.83,3.83-4.28,5.73-.72.95-1.45,1.9-2.19,2.83s-1.47,1.88-2.22,2.82-1.49,1.87-2.25,2.79-1.52,1.85-2.29,2.77c-.5.61-1,1.21-1.53,1.82l-1.42,1.68-1.55,1.79-.42.47c-.7.81-1.41,1.61-2.12,2.41s-1.6,1.79-2.41,2.68-1.42,1.56-2.14,2.33l-.71.76c-.58.63-1.18,1.26-1.77,1.89l-.8.84-1.87,1.95c-1,1-1.94,2-2.92,3-.76.77-1.53,1.53-2.3,2.29l-2.6,2.54c-.87.84-1.74,1.68-2.62,2.5s-1.76,1.66-2.65,2.48c-.7.67-1.41,1.31-2.12,2l-.4.35-.5.46-1.8,1.61-.69.62-1,.92-1.05.91c-.85.75-1.71,1.49-2.58,2.23q-3.67,3.13-7.44,6.17l-1.84,1.48-1.86,1.46-.09.08-.06,0,0,0-.5.39c-1.07.85-2.15,1.68-3.24,2.5q-1.89,1.44-3.81,2.86l-.07,0c-1,.75-2,1.49-3.05,2.22l-.88.63-.23.17q-1.86,1.32-3.75,2.63l-1.26.88-2.53,1.72-.28.19c-1.07.72-2.15,1.43-3.23,2.14l-1,.63-.45.29-.84.54-1.8,1.15-.74.47-.09.06-.78.49-.3.18q-1,.63-2,1.23l-.06,0-.3.18-.19.12-.45.28-.46.28-.72.43-.31.19c-.93.56-1.86,1.12-2.8,1.67l0,0-.45.26-1.47.86-1.94,1.12-.33.19c-1,.58-2,1.15-3.06,1.72l-1.22.68-.33.18-.44.23a.39.39,0,0,1-.11.06l-.35.2-.33.18-1.44.78-.72.39-.6.32-.61.32-.7.37-3.05,1.58c-1.3.67-2.6,1.33-3.91,2h0l-2.89,1.42-.62.3-.43.2-2,.95c-.24.11-.47.23-.71.33l-.42.2-.87.4-3.22,1.46-.68.31a2.41,2.41,0,0,1-.33.15c-.65.3-1.31.59-2,.87-1,.43-1.95.86-2.93,1.27l-.05,0-.28.13-.13.05-.06,0a.47.47,0,0,1-.15.06l-1,.41c-.36.15-.72.31-1.08.45l-.81.34-1.23.5-.81.33-1,.41-.61.24-.69.28-1,.4-.14,0c-.64.27-1.3.52-2,.76l-.34.13-.65.25-1.62.61-.86.32c-.66.25-1.32.5-2,.73l-.21.08-.73.26-1.44.52-.77.27-1.6.56-.69.23a5.17,5.17,0,0,1-.51.18l-.18.07-.33.11-1.25.42-2.24.74-.67.22-1.49.48-1.65.53-.3.09-.21.06-.84.26-1.53.46q-.69.22-1.38.42l-1.35.4-.68.2-.68.19-1.06.31c-.36.11-.71.21-1.07.3l-.38.11-1.34.37-.36.1-.83.22-1,.28-.5.13-1.56.41-.26.07-1.25.32-1.22.31-3.11.76-1.85.44-2.65.61-.14,0-.38.08-.61.14-1.42.32-1,.21q-.86.2-1.71.36l-1.42.29-1.57.32-1.36.26-.21,0-.6.12-.67.12-1.22.23c-.56.11-1.13.21-1.69.3-.22.05-.45.09-.67.12l-.13,0-.35.06a2.25,2.25,0,0,1-.36.06l-.63.11-1.95.32-1,.17-.92.15-.18,0-1.06.17-1.23.18-.94.14c-.75.12-1.5.23-2.26.33l-2.85.38-.36.05a1,1,0,0,1-.25,0l-2.89.35-1.94.23-1.54.17-.31,0-.81.09-1.23.12c-1,.1-2.1.21-3.15.3s-2.11.2-3.16.28-2.09.17-3.15.24c-.63.05-1.27.1-1.91.13-1,.07-2,.13-3,.18-.14,0-.28,0-.42,0l-2.91.14q-1.89.09-3.81.15h-.4c-1.15,0-2.3.07-3.46.09s-2.57.05-3.85.06c-3.16,0-6.3,0-9.43-.08-.68,0-1.35,0-2,0s-1.21,0-1.82-.06l-1.85-.07q-3.73-.15-7.46-.41l-1.56-.11-2.6-.2c-1.52-.12-3-.26-4.55-.4l-3.06-.32-.48,0h0l-2-.23-.61-.07-1-.12-.37-.05h-.12l-1.86-.24-.61-.08-.68-.09-.58-.08-.22,0-.76-.11-.77-.11a1,1,0,0,1-.24,0l-.92-.13c-.33,0-.67-.09-1-.15l-.68-.11-.33,0h0l-.73-.11-1.92-.31-.14,0-.25,0-.1,0-.64-.1q-1.31-.21-2.61-.45l-.12,0-.4-.07H1943a1.09,1.09,0,0,1-.26,0l-.33-.06-.13,0-.17,0-.33-.06-.29-.06-.32-.05-.38-.07-.22,0h0l-.19,0h0l-.78-.15-1.66-.32-.45-.09c-.39-.07-.78-.14-1.16-.23l-.2,0-.5-.1-.3-.06-.08,0-.54-.11-.34-.07q-.48-.09-1-.21c-.34-.06-.67-.13-1-.21l-.73-.15h0l-.32-.07-.07,0c-.36-.07-.73-.15-1.09-.24l-.24-.05-.88-.2h0l-.42-.1-.16,0-.3-.07-1.15-.27-1.17-.28c-.26-.05-.51-.11-.77-.18l-.29-.07-.56-.14-1.5-.37-.9-.23c-.36-.08-.71-.17-1.06-.27l-1.33-.34-.29-.08-.14,0h0s0,0,0,0a.79.79,0,0,1-.22-.06l-.17,0-.74-.2-.75-.2-1.17-.32-.51-.14-.7-.2-2.37-.67-2.5-.73-1-.29-.42-.12-1-.32c-.46-.13-.91-.27-1.36-.42l-2.49-.79-1.56-.5-.61-.2-2.11-.7-.14,0-.23-.08,0,0-.19-.06-.31-.11-.27-.09-1.46-.5-.18-.07-.25-.08q-.35-.13-.69-.24l-.34-.12-.54-.19-.29-.11h-.11l-.06,0,0,0-.1,0-.18-.06h0l-.44-.16c-.19-.06-.39-.13-.58-.21q-1.07-.37-2.13-.78l-.65-.25-.16,0-.07,0c-.59-.21-1.17-.43-1.75-.66l-1.3-.49-.19-.07-1.1-.43-.72-.28-2.34-.93-.16-.07-2.77-1.13-.14-.06-2.74-1.15-1.08-.46-1-.45-1.1-.48-.31-.14-.24-.11-1-.43-1-.43-2.23-1-.61-.28-2.91-1.36-2.71-1.3-1.39-.68-1.91-.95-1-.47-.72-.37-.14-.07-1-.5-1.5-.77-.19-.1-.27-.14-.4-.21-.54-.28-.55-.29-.76-.4,0,0-.1,0-.16-.09-.52-.28-.82-.44-1.25-.67-.59-.33-.74-.4-1.93-1.07-.45-.25-.33-.18-.2-.12-.35-.19-.11-.07c-.36-.2-.72-.4-1.07-.61s-.73-.41-1.09-.62l-.1-.06-.49-.28-1.21-.7-1.35-.79-.34-.2-.46-.27-.45-.27-.08,0,0,0-.28-.17h0l-.12-.07-.54-.33,0,0-1.69-1-.13-.08-.24-.15-2.38-1.47-.72-.45-.2-.12-.21-.13c-.12-.08-.25-.15-.37-.24a2.12,2.12,0,0,1-.2-.12l-1-.62-.21-.13-.06,0c-.86-.55-1.72-1.1-2.57-1.66l-.09-.06a.2.2,0,0,1-.08,0l-.18-.12-.61-.4-.14-.09-.1-.07-2.16-1.43-.33-.21-.28-.2,0,0-.09-.06c-.57-.38-1.14-.76-1.7-1.15,0,0,0,0,0,0l-.53-.36-.56-.39-.79-.54-.3-.21-.69-.47,0,0-.09-.06,0,0-.45-.31h0l-.33-.24-.15-.11-1.61-1.13-.84-.6-1.08-.78-1.47-1.06-.06-.05a.88.88,0,0,1-.17-.12l-.09-.06h0l-.09-.07s0,0,0,0h0l-.13-.1a1.33,1.33,0,0,1-.19-.14,1.49,1.49,0,0,1-.2-.15l-.5-.37-.41-.29-.17-.12-.28-.22a.35.35,0,0,1-.1-.08,4,4,0,0,1-.35-.26l-.23-.16-.11-.09-.06,0-.29-.22c-.25-.18-.51-.37-.76-.57l-.15-.11-1.24-.95-.45-.33-.05,0-.41-.31-.53-.42-.37-.29-.13-.1-.21-.15-.31-.25h0l0,0,0,0-.65-.5-.15-.12-1.94-1.53c-.32-.24-.63-.49-.94-.74l-.27-.22-.12-.1-.06,0-.15-.12-.44-.36-.13-.1,0,0-.19-.17-.09-.07-1.25-1-.06-.05-.45-.37-1-.78-.38-.32-.67-.55c-.13-.12-.26-.22-.39-.32l-.31-.26,0,0-.06-.05-.16-.13-.16-.14-.25-.21-.12-.1-.1-.09-.53-.44-.6-.52-.29-.24-.08-.07-2.63-2.27-.09-.07-2.6-2.3-.13-.11-.1-.09-.12-.11-.68-.61-1.63-1.47-.1-.09-2.53-2.32c-.87-.8-1.73-1.61-2.59-2.43-1.19-1.12-2.36-2.25-3.53-3.39-.35-.33-.7-.68-1-1-.84-.82-1.67-1.65-2.5-2.48l-1.62-1.64c-.63-.64-1.26-1.28-1.87-1.93s-1.09-1.11-1.61-1.67q-1.64-1.71-3.24-3.43c-.93-1-1.85-2-2.76-3-1.12-1.23-2.22-2.47-3.32-3.71-.77-.87-1.53-1.75-2.29-2.63s-1.58-1.84-2.36-2.77-1.63-1.93-2.43-2.91q-1.66-2-3.3-4.06-.85-1-1.68-2.13l-1.81-2.31-1-1.31c-.59-.76-1.17-1.52-1.74-2.29s-1.22-1.62-1.82-2.44l-2-2.73-.6-.83c-.56-.77-1.11-1.55-1.66-2.34-.26-.36-.52-.73-.77-1.1-.62-.87-1.23-1.76-1.83-2.64-.06-.08-.11-.16-.16-.24-.77-1.12-1.52-2.24-2.27-3.36s-1.45-2.2-2.17-3.3l-.19-.31c-.46-.7-.91-1.41-1.36-2.11l-.28-.44-1.15-1.83q-3-4.86-5.88-9.8c-.64-1.11-1.28-2.22-1.9-3.34s-1.12-2-1.67-3c-.28-.5-.56-1-.83-1.52l-.08-.15c-.48-.89-1-1.78-1.43-2.68l-.11-.22c-.63-1.18-1.24-2.38-1.85-3.57-.46-.9-.92-1.8-1.37-2.71l-.15-.31c-.61-1.22-1.2-2.44-1.79-3.67a.16.16,0,0,1,0-.07c-.45-.94-.9-1.88-1.33-2.82q-2-4.18-3.8-8.42l-.87-2-.87-2.08c-.11-.25-.21-.51-.31-.76l-.12-.3c-.42-1-.84-2-1.24-3.05s-.76-1.92-1.13-2.88q-2.28-5.88-4.29-11.82c-.3-.9-.6-1.79-.89-2.69s-.59-1.8-.87-2.71-.67-2.1-1-3.15a786.64,786.64,0,0,0,89.21,25q12.27,2.7,24.82,5.08,15.45,2.93,31.3,5.38,17.91,2.76,36.29,4.9,25.17,2.92,51.13,4.61c4.17.28,8.37.53,12.57.75q19.35,1,39.11,1.34c2.64.05,5.28.08,7.92.11q9.59.09,19.26,0,10.37-.09,20.62-.38,15.27-.41,30.31-1.26,22.55-1.24,44.56-3.45,10.85-1.07,21.54-2.36h0q14.09-1.68,27.92-3.77,4.65-.69,9.26-1.44,3-.47,5.9-1l2.36-.39,6.83-1.18.75-.13c2.39-.42,4.77-.86,7.15-1.3l.12,0,.29-.06c2.51-.46,5-.94,7.51-1.43l2-.38c2.54-.49,5.06-1,7.58-1.52h0q10.7-2.19,21.16-4.61A794.05,794.05,0,0,0,2306.86,3160.54Z"/>
</g>
<path class="cls-4" d="M2285.27,3214.55a329.67,329.67,0,0,1-69.13,90.5c-.7.66-1.41,1.31-2.12,2l-.4.35-.5.46-1.8,1.61-.69.62c-.69.61-1.39,1.23-2.09,1.83-.85.75-1.71,1.49-2.58,2.23a334.4,334.4,0,0,1-64.59,43.33q-3.9,2-7.86,3.9t-8,3.7l-2.77,1.22c-1,.44-2,.88-3,1.3l-2.85,1.2-1.23.5c-1,.42-2,.83-3.05,1.23s-2.25.89-3.38,1.32l-.22.08c-1.31.5-2.62,1-3.93,1.47q-5.85,2.16-11.79,4.09l-3.09,1-2.7.82-1.56.47c-.9.27-1.8.54-2.71.79s-1.67.49-2.51.72c-.63.18-1.27.36-1.91.52-1.14.32-2.28.62-3.42.91-.35.11-.71.2-1.06.28-1.29.34-2.58.67-3.88,1l-1.17.28-2.07.49q-5.13,1.2-10.3,2.22l-2.58.51-.67.12c-1.19.23-2.38.44-3.58.65l-.13,0q-2.14.38-4.32.72c-1.44.24-2.88.46-4.33.67l-1.71.25-3.4.46-.36.05-3.14.38-1.94.23-2.66.29q-15,1.59-30.47,1.73a297.55,297.55,0,0,1-34.84-1.75l-2-.23c-.7-.07-1.41-.16-2.11-.25l-3.15-.41q-3.13-.42-6.26-.91-6.11-.95-12.12-2.15-2.88-.57-5.75-1.2-9.69-2.12-19.17-4.86-2.25-.64-4.47-1.32c-1.21-.37-2.41-.74-3.62-1.13l-.25-.08q-.65-.19-1.29-.42l-.7-.22-2.72-.9-.92-.32-1.73-.59-.18-.07-1.82-.63-.51-.19-.82-.29c-.84-.3-1.67-.6-2.49-.91l-.66-.25-.39-.14c-.59-.21-1.17-.43-1.75-.66l-1.5-.58-1.29-.49q-11.64-4.54-22.83-10c-1.1-.54-2.21-1.08-3.3-1.63q-9.81-4.87-19.21-10.41c-.68-.39-1.35-.79-2-1.19q-3.12-1.86-6.21-3.8l-2.11-1.33c-.76-.48-1.51-1-2.26-1.46l-1.38-.89-.24-.16-2.16-1.43-.65-.44c-.6-.4-1.2-.8-1.79-1.21-.82-.55-1.63-1.11-2.44-1.67l-.62-.43-.94-.66-2.45-1.73-1.08-.78c-1.2-.86-2.38-1.72-3.56-2.61l-1.38-1c-.72-.54-1.44-1.08-2.15-1.63s-1.65-1.25-2.46-1.89a.48.48,0,0,1-.11-.09l-.77-.59-1.94-1.53-1.32-1a1.74,1.74,0,0,0-.22-.18l-.88-.72-1.71-1.39-1.32-1.09-2.84-2.37q-1.82-1.54-3.6-3.1c-.9-.78-1.8-1.57-2.69-2.37l-2.66-2.39-.1-.09-2.53-2.32c-.87-.8-1.73-1.61-2.59-2.43s-1.78-1.68-2.66-2.54c-1.28-1.24-2.56-2.49-3.82-3.75-32.07-32-57.37-70-73.52-110.59a443.91,443.91,0,0,0,38.56,48.63q9.06,9.89,18.8,19.28a401.82,401.82,0,0,0,45.3,37.71q7.89,5.63,16.08,10.87a362.4,362.4,0,0,0,42.13,23.16q13.92,6.49,28.54,11.77a336.41,336.41,0,0,0,37.25,11.06q10.9,2.55,22.13,4.4a338.36,338.36,0,0,0,57.26,4.43q12.87-.1,25.37-1.13,13.79-1.12,27.1-3.34,13.82-2.27,27.13-5.62,7.59-1.92,15-4.17a339.34,339.34,0,0,0,34.42-12.5q13.59-5.77,26.5-12.62,14.57-7.68,28.27-16.59,10.55-6.83,20.57-14.31,5.49-4.09,10.83-8.37,4.44-3.54,8.75-7.21,9.4-8,18.28-16.42,11.91-11.36,22.86-23.49Q2277.79,3223.78,2285.27,3214.55Z"/>
<path class="cls-5" d="M1962.77,3391.26c0,.39-.09.77-.13,1.16-.19,1.63-.37,3.27-.55,4.93-.14,1.33-.28,2.67-.41,4,0,.23,0,.46-.07.7-.12,1.19-.23,2.4-.34,3.61q-.12,1.37-.24,2.76c-.12,1.36-.23,2.73-.34,4.1s-.22,2.89-.32,4.34q-.09,1.07-.15,2.13c-.11,1.62-.22,3.25-.31,4.9s-.18,3.14-.25,4.72c-.12,2.12-.21,4.25-.3,6.4,0,.68-.06,1.36-.1,2,0,.37,0,.73-.08,1.09s0,.72-.08,1.07-.08.88-.13,1.32a.11.11,0,0,1,0,.08c-.06.6-.13,1.2-.2,1.79l0,0a67.17,67.17,0,0,0-27.5-17.37c-20.06-6.65-44.41-11.44-70.68-14-11.21-1.1-22.78-1.79-34.51-2.05-6.45-.14-13.59-.16-21.28,0-10.57.25-22.17.88-34.44,2.11q.35-5.7.77-11.27c.07-1,.15-2,.24-3,.29-3.77.62-7.51,1-11.2a.15.15,0,0,0,0-.07l.12-1.26c.08-.87.17-1.72.25-2.58,0-.43.09-.87.13-1.3.17-1.62.34-3.23.52-4.84s.36-3.29.55-4.92.38-3.26.58-4.87q.36-3,.75-6c.16-1.18.31-2.35.47-3.51q.87-6.42,1.83-12.67l.51-3.32c.17-1.08.34-2.15.52-3.21.22-1.36.44-2.72.67-4.06.25-1.51.51-3,.77-4.5.22-1.27.44-2.53.67-3.78.89-5,1.83-9.84,2.79-14.64h0c0-.05,0-.11,0-.15s0,0,0,0c.11-.34.21-.69.33-1a336.14,336.14,0,0,0,45.62,34.87l2.11,1.33q13.31,8.36,27.44,15.4c1.09.55,2.2,1.09,3.3,1.63q11.19,5.43,22.83,10,11.13,4.35,22.64,7.87,2.22.68,4.47,1.32A300.8,300.8,0,0,0,1962.77,3391.26Z"/>
<path class="cls-5" d="M2229.17,3411c-10.54-1.05-20.58-1.64-29.89-1.94s-17.76-.31-25.33-.14c-12.52.27-24.86,1-36.78,2.27-25.41,2.62-48.94,7.33-68.42,13.79a67.23,67.23,0,0,0-27.8,17.68c-.15-1.38-.26-2.78-.34-4.19-1-17.05-2.63-33.05-4.79-48.13l.36-.05,3.4-.46,1.71-.25c1.45-.21,2.89-.43,4.33-.67s2.89-.47,4.32-.72l.13,0c1.2-.21,2.39-.42,3.58-.65l.67-.12,2.58-.51q5.17-1,10.3-2.22l2.07-.49,1.17-.28c1.3-.31,2.59-.64,3.88-1,.35-.08.71-.17,1.06-.28,1.14-.29,2.28-.59,3.42-.91.64-.16,1.28-.34,1.91-.52.84-.23,1.68-.47,2.51-.72s1.81-.52,2.71-.79l1.56-.47,2.7-.82,3.09-1q5.94-1.93,11.79-4.09c1.31-.47,2.62-1,3.93-1.47l.22-.08c1.13-.43,2.26-.87,3.38-1.32s2-.81,3.05-1.23l1.23-.5,2.85-1.2c1-.42,2-.86,3-1.3l2.77-1.22q4-1.8,8-3.7t7.86-3.9a334.4,334.4,0,0,0,64.59-43.33c.87-.74,1.73-1.48,2.58-2.23.7-.6,1.4-1.22,2.09-1.83l.69-.62,1.8-1.61.5-.46c3.74,16.67,7.09,34.36,9.86,53.18C2225.84,3376.54,2227.78,3393.36,2229.17,3411Z"/>
<g class="cls-6">
<path d="M1959.44,3433.13c0,.63,0,1.27-.08,1.9q-.15,3.73-.58,7.39a67.23,67.23,0,0,0-27.53-17.4c-28.62-9.49-66-15.2-105.2-16.06a459.31,459.31,0,0,0-55.71,2.13c.2-3.39.43-6.74.68-10.07a462.82,462.82,0,0,1,55-2.06c39.22.86,76.58,6.57,105.2,16.06A67.16,67.16,0,0,1,1959.44,3433.13Z"/>
<path d="m2229.2 3411a462.3 462.3 0 0 0-55.17-2c-39.22 0.86-76.58 6.57-105.2 16.06a67.16 67.16 0 0 0-27.8 17.69c-0.15-1.39-0.26-2.79-0.34-4.2-0.1-1.71-0.2-3.4-0.32-5.09a67.14 67.14 0 0 1 28.46-18.4c28.62-9.49 66-15.2 105.2-16.06a462.57 462.57 0 0 1 54.36 2q0.4 4.95 0.81 10z"/>
</g>
<g class="cls-6">
<path d="m1783.7 3308.8c48.55 44.14 110.63 75 179.06 82.49q-0.87 7.27-1.54 14.83c-69-7.92-131.44-39.58-180-84.59q1.2-6.49 2.48-12.73z"/>
<path d="m2216.3 3319.9c-47.76 44.29-109.47 75.84-178.59 85.21q-0.87-7.51-1.91-14.74c68.6-8.88 130-39.6 177.8-83q1.38 6.18 2.7 12.53z"/>
</g>
<path class="cls-7" d="M2316.85,3105.66a268.18,268.18,0,0,1-7.84,47c-.67,2.64-1.39,5.26-2.15,7.88-.32,1.1-.64,2.2-1,3.29h0q-28.4,10.11-59.72,18.37-4.62,1.22-9.3,2.39l-4.7,1.16q-7.07,1.73-14.25,3.36-9.59,2.17-19.38,4.17-29.37,6-60.54,10.27-5.19.7-10.42,1.37l-5.24.65q-7.89.94-15.86,1.8-4.44.47-8.91.9l-1.76.17q-8,.76-16.15,1.41c-1.8.15-3.61.29-5.42.42q-4.41.33-8.85.62-31.07,2.06-63.23,2.36-26.81.23-52.92-.8-.36,0-.69,0-12.75-.51-25.29-1.3l-1.06-.07c-25.37-1.63-50.13-4.14-74.13-7.47q-8.22-1.12-16.31-2.39-13.15-2.05-26-4.42-4.79-.89-9.53-1.82c-2.21-.43-4.4-.87-6.59-1.32q-10.89-2.22-21.5-4.67a745.8,745.8,0,0,1-76.74-21.94c-.34-1.05-.67-2.1-1-3.15-.77-2.5-1.5-5-2.19-7.54a270.3,270.3,0,0,1-8.63-47.34c68.83,25.32,152.25,42.39,243.55,48.15,25.6,1.62,51.82,2.34,78.51,2.11,32.34-.28,64-1.95,94.6-4.9C2178.53,3146.45,2253.74,3129.42,2316.85,3105.66Z"/>
<path class="cls-8" d="M2309,3152.66c-.67,2.64-1.39,5.26-2.15,7.88-.32,1.1-.64,2.2-1,3.29h0q-28.4,10.11-59.72,18.37-4.62,1.22-9.3,2.39l-4.7,1.16q-7.07,1.74-14.25,3.36-9.59,2.17-19.38,4.17-29.37,6-60.54,10.27-5.19.7-10.42,1.37l-5.24.65q-7.89,1-15.86,1.8-4.44.47-8.91.9l-1.76.17q-8,.76-16.15,1.41c-1.8.15-3.61.29-5.42.42q-4.41.33-8.85.62-31.07,2.07-63.22,2.37-26.81.22-52.93-.81-.36,0-.69,0-12.74-.49-25.29-1.3l-1.06-.07c-25.37-1.63-50.13-4.14-74.13-7.47q-8.22-1.12-16.31-2.39-13.15-2.05-26-4.42-4.79-.89-9.53-1.82c-2.21-.43-4.4-.87-6.59-1.32q-10.89-2.22-21.5-4.67a745.8,745.8,0,0,1-76.74-21.94c-.34-1.05-.67-2.1-1-3.15-.77-2.5-1.5-5-2.19-7.54,67.61,22.46,147.75,37.55,234.85,42.77.33,0,.67.05,1,.06,25.24,1.51,51.07,2.17,77.34,2,32.63-.28,64.54-1.92,95.48-4.79l.53-.05h0C2175.54,3189,2247.45,3173.79,2309,3152.66Z"/>
<rect class="cls-7" transform="translate(-27.71 17.66) rotate(-.5)" x="1923" y="3145.4" width="174.37" height="78.48" rx="14.51" ry="14.51"/>
<path class="cls-9" d="M2097.56,3208.58a14.51,14.51,0,0,1-14.38,14.64l-145.35,1.27a14.53,14.53,0,0,1-14.64-14.38l-.13-16.2a14.5,14.5,0,0,0,14.63,14.38L2083,3207a14.52,14.52,0,0,0,14.4-14.31Z"/>
</svg>
