<?xml version="1.0" encoding="UTF-8"?>
<svg viewBox="0 0 4e3 4e3" xmlns="http://www.w3.org/2000/svg">
<defs>
<style>.cls-1{fill:#e24040;}.cls-1,.cls-4{stroke:#333;}.cls-1,.cls-3,.cls-4{stroke-miterlimit:10;}.cls-1,.cls-2,.cls-3,.cls-4{stroke-width:5px;}.cls-2,.cls-3{stroke:#000;opacity:0.1;}.cls-2{stroke-linecap:round;stroke-linejoin:round;}.cls-4{fill:#ede72f;}</style>
</defs>
<title>shirt3_1</title>
<path class="cls-1" d="M2317.27,3098.93a265.07,265.07,0,0,1-6.12,44.84c-29.44,131.85-156.72,247.89-313.54,249.24-157.48,1.35-289.18-122.89-314.59-259.39a257.46,257.46,0,0,1-4.37-42.27c.82-.11,1.65-.24,2.48-.38,43-7.49,94.74-61.83,122.22-105.9,1.12-1.81,2.22-3.6,3.26-5.36l.42.19.63.27c.17.08.35.16.56.24l1.23.52c.31.14.64.28,1,.42,1.25.53,2.79,1.17,4.61,1.9l1.62.66,1.76.7c1.43.57,3,1.18,4.65,1.82l1,.37c9.17,3.53,21.56,8,36.22,12.74l3.5,1.11c2.42.76,4.89,1.53,7.42,2.29l3.58,1.07c38.11,11.27,87.37,22.13,134.76,21.7a472.45,472.45,0,0,0,121.33-17.08l1.38-.38,2.53-.71q7.14-2.05,13.59-4.12l1.45-.46,1.81-.59,2.38-.79,5.19-1.77q2.91-1,5.62-2l3-1.1,2.75-1,3.9-1.52c1.16-.45,2.29-.9,3.37-1.34q4.24-1.72,7.7-3.23l1.55-.67,1.46-.65.69-.31,1.44-.65,2.13-1c1.62-.75,2.94-1.39,3.95-1.89l.64-.32,1.15-.58.26-.13a.09.09,0,0,1,.06,0l.13-.07.2-.11c.76,2,1.54,4,2.35,6,.44,1.1.9,2.23,1.38,3.33,21.61,51.51,60.84,107.27,106.2,106.87,1.9,0,3.79-.09,5.67-.23C2315.6,3099.09,2316.43,3099,2317.27,3098.93Z"/>
<path class="cls-2" d="M2203.09,3048.58a15.46,15.46,0,0,1-5,11.39l-21.21,19.51a15,15,0,0,1-20.46-.07l-20.62-19.29a15.47,15.47,0,0,1-4.86-11.22l-.12-40.27,1.38-.38c42-11.74,66.92-25.06,66.92-25.06.75,2,1.54,4,2.35,6,.44,1.1.9,2.22,1.37,3.33Z"/>
<path class="cls-2" d="m1874.8 3004-0.31 44.46a15.38 15.38 0 0 1-4.89 11.12l-20.55 19a14.89 14.89 0 0 1-20.29 0l-21-19.48a15.34 15.34 0 0 1-4.86-11.33l0.43-62.74c1.12-1.81 2.22-3.6 3.25-5.37 0.05 0.04 27.91 12.42 68.22 24.34z"/>
<path class="cls-3" d="m2311.2 3143.8c-29.44 131.85-156.72 247.89-313.54 249.24-157.48 1.35-289.18-122.89-314.59-259.39q1.79 2.85 3.65 5.67c64.63 98.92 175.37 183.61 316.13 182.53 134.6-1.05 239.14-80.08 304.45-172.43q1.98-2.8 3.9-5.62z"/>
<path class="cls-1" d="m1872 2892.6-0.79 110.3-0.28 39.74a13.82 13.82 0 0 1-4.39 10l-18.47 17.1a13.37 13.37 0 0 1-18.24 0l-18.83-17.52a13.73 13.73 0 0 1-4.37-10.17l0.42-62.19 0.67-98q31.86 6.31 64.28 10.74z"/>
<path class="cls-1" d="M2199.16,3042.09a13.78,13.78,0,0,1-4.41,10.16l-18.92,17.4a13.37,13.37,0,0,1-18.24-.07l-18.38-17.19a13.74,13.74,0,0,1-4.35-10l-.09-34.84-.31-114.13q32.25-4.3,64.17-10.64l.33,100.53Z"/>
<ellipse class="cls-4" cx="1839.6" cy="3033.1" rx="19.38" ry="19.63"/>
<ellipse class="cls-4" cx="2166.8" cy="3030.2" rx="19.38" ry="19.63"/>
</svg>
