<?xml version="1.0" encoding="UTF-8"?>
<svg viewBox="0 0 4e3 4e3" xmlns="http://www.w3.org/2000/svg">
<defs>
<style>.cls-1{fill:#fff;}.cls-1,.cls-3,.cls-4,.cls-5{stroke:#333;stroke-width:5px;}.cls-1,.cls-3,.cls-5{stroke-linecap:round;stroke-linejoin:round;}.cls-2{opacity:0.08;}.cls-3{fill:#010101;}.cls-4,.cls-5{fill:#37af53;}.cls-4{stroke-miterlimit:10;}</style>
</defs>
<title>shirt6(colorable)</title>
<g data-name="shirt6(colorable)">
<path class="cls-1" d="m1533.3 2978.2c38 13.79 78.83 27.37 119 38.81a298.48 298.48 0 0 0-9 54.7 72.53 72.53 0 0 0-95.44-9.65 90.74 90.74 0 0 0-29.88 36.41 62.55 62.55 0 0 1-0.34-6.31 418.63 418.63 0 0 1 15.66-113.96z"/>
<path class="cls-1" d="m2301.8 2908.3q-1.85-3-3.76-6c0.49 2.36 1 4.68 1.42 7 2.75 13.71 5.09 26.67 7.08 39-112.76 21.82-232.64 33-356.74 29a1585.7 1585.7 0 0 1-254.69-27.7q-1.64 7.13-3.08 13.95c6-33.38 12-60.32 14.32-63.81-0.65 1-1.28 1.92-1.92 2.89-3.52 5.37-7 11-10.53 16.86q-62.75-16.53-122.39-37.16 6.51-12.46 13.78-24.8 9.5-16.11 20.28-31.95l1.45-2.12c131.45 50.85 278.8 82.5 427.41 78.21 124.36-3.59 248.72-32.61 362.18-77.11l1.41 2.11q10.52 16 19.65 32.08 7.51 13.24 14.07 26.54-58.78 20.88-121.13 38.15-4.19-7.58-8.81-15.14z"/>
<path class="cls-1" d="m2269.1 3242.2a331.44 331.44 0 0 1-39.6 49.7 49.85 49.85 0 0 1-18.54 12.06c-60.3 22.34-143 38.38-213.43 39-69.53 0.62-155.92-18.74-215.76-41.91a50.28 50.28 0 0 1-18.71-12.7 337.9 337.9 0 0 1-35.2-45 1620.3 1620.3 0 0 0 541.2-1.1z"/>
<path class="cls-1" d="m2281 3222.5c1.23-2.23 2.43-4.48 3.61-6.73q-1.73 3.39-3.61 6.73z"/>
<path class="cls-1" d="m2289.7 3205.5q2.45-5.16 4.7-10.38-2.23 5.24-4.7 10.38z"/>
<path class="cls-1" d="m2309.1 3152.3q0.87-3.42 1.67-6.85c-0.53 2.29-1.08 4.53-1.67 6.85z"/>
<path class="cls-1" d="m2317.6 3086.4a260.08 260.08 0 0 1-3.83 44.19c-114.85 22.74-237.19 34.53-363.93 30.43a1588.5 1588.5 0 0 1-267.31-30.15 292.7 292.7 0 0 0 26.17 78.94c-19.88-39.9-31.22-83.17-31.22-125.61a394.82 394.82 0 0 1 2.71-40.38c-0.18 2.35-0.34 4.67-0.49 7a1608.3 1608.3 0 0 0 269.4 30.37c128.13 3.84 251.84-8.23 367.83-31.51 0.49 12.57 0.67 24.72 0.67 36.72z"/>
<path class="cls-1" d="m2461.9 2963.3q-1.2-4.32-2.51-8.65c0.88 2.89 1.71 5.77 2.51 8.65z"/>
<path class="cls-1" d="m2473.5 3081.2c-0.08 0.78-0.17 1.55-0.29 2.32-0.56 0.43-1.14 0.87-1.75 1.31a90.3 90.3 0 0 0-23.68-23.9 72.47 72.47 0 0 0-98.94 15.83 62 62 0 0 1 0.29-8.15 175.88 175.88 0 0 0-2.14-47.49q61.49-18.15 119.42-40c7.85 34.5 10.32 68.19 7.09 100.08z"/>
<path class="cls-2" d="m2417.7 2858.7c-24.31 10.06-48.93 19.32-73.66 27.69-104.54 35.39-208.68 54.81-309.51 57.73-8.88 0.26-17.83 0.39-26.79 0.39-97.36 0-198.93-15.12-300-44.41l-1.41-0.41a1237.8 1237.8 0 0 1-121.06-42.21q9.5-16.11 20.28-31.95c134 51.9 271.82 79 402.14 79 9 0 17.91-0.13 26.79-0.39 100.83-2.92 205-22.34 309.51-57.73q27.13-9.19 54-19.77 10.58 15.96 19.71 32.06z"/>
<path class="cls-3" d="m1693.9 2919.4c-16.52 27.78-32.08 60.85-41.66 97.6-40.13-11.44-80.94-25-119-38.81a492.59 492.59 0 0 1 38.23-95.95q59.64 20.52 122.43 37.16z"/>
<path class="cls-3" d="m2316.9 3049.6c-116 23.28-239.7 35.35-367.83 31.51a1608.3 1608.3 0 0 1-269.4-30.37c1.9-30.17 6.52-62.27 15.45-101.23a1585.7 1585.7 0 0 0 254.69 27.7c124.1 4 244-7.2 356.74-29a812.08 812.08 0 0 1 10.35 101.39z"/>
<path class="cls-3" d="m2466.4 2981.1q-57.87 21.75-119.42 40c-5.26-30.69-17.67-64-36.39-97.7q62.28-17.16 121.13-38.15c15.89 32.17 27.52 64.35 34.68 95.85z"/>
<path class="cls-4" d="m1517.6 3089.4 4.33 1.32c-1.44 2.52-2.78 5.13-4 7.81a62.55 62.55 0 0 1-0.34-6.31c0-0.94 0-1.88 0.01-2.82z"/>
<path class="cls-3" d="m2313.8 3130.6c-6.74 39.17-22.19 77.24-44.61 111.68a1620.4 1620.4 0 0 1-541.28 1.09c-22.69-34.74-38.45-73.13-45.35-112.49a1588.5 1588.5 0 0 0 267.31 30.15c126.74 4.1 249.08-7.69 363.93-30.43z"/>
<path class="cls-5" d="m2333.9 2973.4c0.73 1.94 1.42 3.87 2.1 5.8q-0.97-2.9-2.1-5.8z"/>
<path class="cls-5" d="m1710 3212.3a332.46 332.46 0 0 0 18 31h-0.07a323.28 323.28 0 0 1-17.93-31z"/>
</g>
</svg>
