<?xml version="1.0" encoding="UTF-8"?>
<svg viewBox="0 0 4e3 4e3" xmlns="http://www.w3.org/2000/svg">
<defs>
<style>.cls-1{fill:#ffdf8f;}.cls-1,.cls-2{stroke:#333;}.cls-1,.cls-2,.cls-3{stroke-miterlimit:10;}.cls-1,.cls-2,.cls-3,.cls-5{stroke-width:5px;}.cls-2{fill:#f7ca4d;}.cls-3,.cls-5{stroke:#000;opacity:0.08;}.cls-4{fill:#ffe8b6;}.cls-5{stroke-linecap:round;stroke-linejoin:round;}.cls-6{opacity:0.05;}.cls-7{opacity:0;}.cls-8{opacity:0.1;}.cls-9{opacity:0.2;}</style>
</defs>
<title>hat8</title>
<path class="cls-1" d="m1090.7 932.83c53.75 66.75 147.11 174.85 218.67 240.53 24.85-89.71 186.71-206 286.85-247.77s486.93-141.11 519.5-139.24c-1.83-35.7-37-308.27-37-308.27s-131.56 22.1-269.2 66c-98.86 31.53-208.41 85.25-239.32 99.07-73.98 33.05-533.24 222.94-479.5 289.68z"/>
<path class="cls-2" d="M2012.56,48.32a45.93,45.93,0,0,0-2.25,82.47c7.2,78.7,17.68,299.79-85.53,347-74.16,33.92-111,4.34-132.57-31.11a46.92,46.92,0,1,0-26.64,8.95c-2.17,52.87-19.35,101.35-78,128.18-65.78,30.08-151.51-60.06-201.9-118a45.35,45.35,0,1,0-19.78,8.68c16.65,77.17,20.24,197-40.58,224.86-57.93,26.51-121,3.14-159.92-23.1a45.43,45.43,0,1,0-15.93,10.4c8.59,39.55,1.86,91.57-57.81,118.86-78,35.68-143.46-5.23-320.81-155.27A46.92,46.92,0,1,0,849,670.82a55.51,55.51,0,0,0,5.47-3c63.26,64.84,364.33,411.95,364.33,411.95s91.29-101.75,415.26-250c306.08-140,469-146.38,469-146.38l-64.76-547.8a46,46,0,1,0-25.69-87.31ZM1371.28,877.45l-56.22-35.89,10.76-65.83,55.4,35.87ZM1612.73,767l-56.2-35.9,10.72-65.84,55.44,35.88ZM1855,656.16l-56.23-35.91,10.75-65.83,55.41,35.87Z"/>
<path class="cls-2" d="m1309.4 1173.4c238.14-213.14 513.81-329.76 809.11-358.54-3.63-34.82-7.23-71.53-10.81-106.16a2046.9 2046.9 0 0 0-872.55 390q37.02 37.22 74.25 74.7z"/>
<path class="cls-3" d="m2118.5 814.81c-295.29 28.79-571 145.41-809.1 358.55q-37.23-37.5-74.26-74.68 5.89-4.54 11.82-9c14.12 14.2 39.54 38.7 53.71 53 238.14-213.2 502.23-325.68 797.52-354.51-2.12-20.35-3.91-55.7-6-76.55q7.76-1.51 15.52-3c3.57 34.67 7.17 71.38 10.79 106.19z"/>
<circle class="cls-4" cx="1220" cy="639.07" r="26.77"/>
<circle class="cls-4" cx="1447.3" cy="420.76" r="26.77"/>
<circle class="cls-4" cx="1752.2" cy="397.88" r="26.77"/>
<circle class="cls-4" cx="2020.1" cy="80.17" r="26.77"/>
<circle class="cls-4" cx="817.21" cy="617.53" r="26.77"/>
<path class="cls-5" d="m2038.2 135.63c-18.15 7.55 44.41 520.53 44.41 520.53s-153.89 2-460 142c-324 148.21-406.76 248.65-406.76 248.65s-325.05-385.39-361.46-379c63.26 64.84 364.33 411.95 364.33 411.95s91.29-101.75 415.26-250c306.08-140 469-146.39 469-146.39z"/>
<path class="cls-3" d="m2010.9 137.22c0.14 1.55 0.28 3.15 0.41 4.8 0.84 0.57 0.26-2.02-0.41-4.8zm0.41 4.8c6.94 86.66 12.17 290.66-86.49 335.78-64.58 29.55-100.87 10.93-123.4-17.78-0.06 0.05-0.16 0-0.29-0.13 23.81 31.94 65.56 62.71 130.69 32.91 98.65-45.15 87-262.95 79.49-350.8zm-1-11.24c-1.13-0.59-0.21 3.12 0.58 6.44q-0.29-3.37-0.57-6.44zm-210.8 326.91a14.33 14.33 0 0 0 1.59 2.18c-0.54-0.72-1.09-1.45-1.59-2.18zm-7.29-11c2.19 3.61 4.62 7.31 7.29 11-2.5-3.92-6.75-11.4-7.29-11.01zm-27 17.34q0.24-4.23 0.41-8.39c-1.52 0.02-0.9 4.43-0.46 8.36zm0 0c-0.12 2-0.25 4-0.4 6.08 0.93-0.11 0.69-2.98 0.35-6.11zm-0.59 6.08c-4.68 47.14-23.75 89.35-77 113.7-61.4 28.08-140.17-48.57-191.37-106 52 59.22 137 149.12 198.42 121 53.37-24.41 66.6-79.19 70.18-128.7zm-273.32 2.06c2.18 3 4.3 5.94 4.91 5.63zm-5.57-6.39c1.8 2.07 3.65 4.2 5.57 6.39-2.47-3.37-4.98-6.89-5.62-6.4zm-16.73 24.22s0 0 0 0c13.78 76.82 13.24 183.31-43.64 209.34-52 23.8-108.13 7.41-147.21-15.15a0.55 0.55 0 0 1-0.18 0.19c40.23 25.11 102.24 53.83 154.39 30 56.88-26.12 51.25-145.91 36.64-224.38zm-1.25-6.57c0.42 2.15 0.84 4.35 1.25 6.57 0.51-0.24-0.3-3.28-1.25-6.62zm-1.85-8.93c-0.72 0.13 0.66 4.74 1.84 8.9-0.6-3.09-1.22-6.06-1.84-8.95zm-193.17 206.56c2.24 2.13 4.32 4 5.2 3.29q-2.67-1.65-5.2-3.29zm-7.33-4.84q3.49 2.35 7.33 4.84c-2.94-2.77-6.15-6.06-7.33-4.84zm-13.18 26.55a0.37 0.37 0 0 1-0.22 0.3c3.31 36.58-8.65 78.77-60.34 102.41-75.57 34.57-139.37-2.77-304.55-141.53 165.61 139.68 236 191.1 311.55 156.53 52.14-23.85 58.51-78.03 53.56-117.71zm-0.57-4.12c0.21 1.35 0.4 2.72 0.57 4.12a13 13 0 0 0-0.57-4.12zm-2.18-12c-1 0.38 1.1 7.29 2.18 12-0.65-4.23-1.36-8.26-2.18-12.04zm-373.36-32c2.16 2.57 4.25 5 4.63 3.91q-2.31-1.92-4.63-3.9zm-5.27-4.45 5.27 4.45c-2.3-2.65-4.69-5.54-5.27-4.44z"/>
<g class="cls-6">
<polygon points="1327 784.01 1350.2 832.74 1318.1 838.48"/>
<path d="m1328.2 792.29 18.4 38.56-25.44 4.55 7-43.11m-2.36-16.56-10.76 65.83 38.86-6.94-28.1-58.89z"/>
</g>
<g class="cls-7">
<polygon points="1331.9 782.64 1377 811.86 1354.8 830.62"/>
<path d="m1338 789.54 34.89 22.59-17.2 14.49-17.69-37.08m-12.13-13.81 28.1 58.89 27.3-23-55.4-35.87z"/>
</g>
<g class="cls-8">
<polygon points="1321.8 842.9 1352.4 837.44 1366 871.12"/>
<path d="m1350.8 840.25 10 24.55-32.22-20.57 22.27-4m3.11-5.63-38.86 6.94 56.22 35.89-17.36-42.83z"/>
</g>
<g class="cls-9">
<polygon points="1356.9 835.36 1377.8 817.79 1370.2 868.06"/>
<path d="m1374.3 824-5.24 34.68-9.15-22.56 14.39-12.12m6.92-12.38-27.3 23 17.36 42.83 9.94-65.85z"/>
</g>
<g class="cls-6">
<polygon points="1568.5 673.54 1591.7 722.27 1559.6 728.01"/>
<path d="m1569.6 681.82 18.4 38.56-25.44 4.55 7-43.11m-2.36-16.56-10.76 65.83 38.86-6.94-28.1-58.89z"/>
</g>
<g class="cls-7">
<polygon points="1573.4 672.17 1618.5 701.4 1596.2 720.15"/>
<path d="m1579.4 679.07 34.89 22.59-17.2 14.5-17.69-37.09m-12.13-13.81 28.1 58.89 27.3-23-55.4-35.87z"/>
</g>
<g class="cls-8">
<polygon points="1563.3 732.43 1593.8 726.97 1607.5 760.65"/>
<path d="m1592.3 729.79 10 24.54-32.28-20.57 22.27-4m3.11-5.64-38.86 6.94 56.24 35.94-17.37-42.83z"/>
</g>
<g class="cls-9">
<polygon points="1598.4 724.89 1619.2 707.32 1611.6 757.59"/>
<path d="m1615.8 713.51-5.24 34.68-9.14-22.55 14.38-12.13m6.92-12.38-27.3 23 17.37 42.87 9.93-65.85z"/>
</g>
<g class="cls-6">
<polygon points="1810.7 562.71 1834 611.44 1801.8 617.18"/>
<path d="m1811.9 571 18.4 38.56-25.44 4.55 7-43.11m-2.36-16.56-10.75 65.83 38.85-6.94-28.1-58.89z"/>
</g>
<g class="cls-7">
<polygon points="1815.6 561.34 1860.7 590.57 1838.5 609.32"/>
<path d="m1821.7 568.24 34.89 22.59-17.19 14.5-17.7-37.09m-12.13-13.81 28.1 58.89 27.31-23-55.41-35.87z"/>
</g>
<g class="cls-8">
<polygon points="1805.5 621.6 1836.1 616.14 1849.7 649.83"/>
<path d="m1834.5 619 10 24.54-32.23-20.57 22.27-4m3.11-5.64-38.85 6.94 56.18 35.88-17.37-42.83z"/>
</g>
<g class="cls-9">
<polygon points="1840.6 614.06 1861.5 596.49 1853.9 646.76"/>
<path d="m1858 602.68-5.23 34.68-9.15-22.56 14.38-12.12m6.93-12.38-27.31 23 17.38 42.85 9.94-65.85z"/>
</g>
</svg>
