<svg xmlns="http://www.w3.org/2000/svg" xmlns:xlink="http://www.w3.org/1999/xlink" viewBox="0 0 4000 4000"><defs><style>.cls-1,.cls-11,.cls-2{fill:none;}.cls-2{stroke:#4d4d4d;stroke-width:4px;}.cls-11,.cls-2{stroke-linecap:round;}.cls-3{fill:#fff;}.cls-4{fill:#179917;}.cls-5{fill:#efe800;}.cls-6{fill:#d80000;}.cls-7{fill:#1a1a1a;}.cls-8{opacity:0.2;}.cls-9{fill:url(#New_Pattern_6);}.cls-10{opacity:0.3;}.cls-11{stroke:#333;stroke-linejoin:round;stroke-width:15px;}</style><pattern id="New_Pattern_6" data-name="New Pattern 6" width="72" height="72" patternUnits="userSpaceOnUse" viewBox="0 0 72 72"><rect class="cls-1" width="72" height="72"/><path class="cls-2" d="M71.72,62a44.3,44.3,0,0,0,72.5,0"/><path class="cls-2" d="M71.76,26a44.3,44.3,0,0,0,72.5,0"/><path class="cls-2" d="M71.72,43a44.3,44.3,0,0,0,72.5,0"/><path class="cls-2" d="M71.57,9a44.3,44.3,0,0,0,72.5,0"/><path class="cls-2" d="M-.28,62a44.3,44.3,0,0,0,72.5,0"/><path class="cls-2" d="M-.24,26a44.3,44.3,0,0,0,72.5,0"/><path class="cls-2" d="M-.28,43a44.3,44.3,0,0,0,72.5,0"/><path class="cls-2" d="M-.43,9a44.3,44.3,0,0,0,72.5,0"/><path class="cls-2" d="M-72.28,62A44.3,44.3,0,0,0,.22,62"/><path class="cls-2" d="M-72.24,26A44.3,44.3,0,0,0,.26,26"/><path class="cls-2" d="M-72.28,43A44.3,44.3,0,0,0,.22,43"/><path class="cls-2" d="M-72.43,9A44.3,44.3,0,0,0,.07,9"/><path class="cls-2" d="M71.72-10a44.3,44.3,0,0,0,72.5,0"/><path class="cls-2" d="M-.28-10a44.3,44.3,0,0,0,72.5,0"/><path class="cls-2" d="M-72.28-10A44.3,44.3,0,0,0,.22-10"/></pattern></defs><title>hat9</title><g id="hat9"><path class="cls-3" d="M3306.75,1804q-.42,3.93-.87,7.86-.47,4.17-1,8.33-.54,4.46-1.12,8.91-1,7.38-2,14.72-.75,5.22-1.55,10.44-.92,5.94-1.88,11.86t-2,11.82a1.18,1.18,0,0,1,0,.2q-3,16.9-6.46,33.67c-.34,1.64-.69,3.29-1,4.93q-2.31,10.77-4.81,21.46l-.84,3.57c-.28,1.19-.57,2.37-.86,3.56-.39,1.61-.78,3.21-1.18,4.82l-.54,2.2c0,.14-.07.27-.1.41l-.18.7c-.31,1.27-.63,2.53-1,3.79-.21.84-.42,1.67-.64,2.51-.17.67-.34,1.34-.52,2-.53,2-1.07,4.11-1.62,6.16-.2.79-.41,1.59-.63,2.38l-.84,3.14-.09.31c-.42,1.57-.86,3.15-1.29,4.72-.12.43-.24.85-.35,1.28l-.45,1.58c-.09.33-.18.66-.26,1s-.12.41-.17.61c0,0,0,0,0,0l-.06.18v0c-.12.42-.24.83-.35,1.24,0,0,0,.11-.05.16a2.5,2.5,0,0,0-.07.26h0a1,1,0,0,0,0,.17l0,.08a.24.24,0,0,0,0,.08,4.77,4.77,0,0,0-.13.47c-.14.44-.26.89-.38,1.33l0,.1s0,0,0,0a0,0,0,0,0,0,0v.06a.19.19,0,0,0,0,.07v0a.09.09,0,0,0,0,0s0,0,0,0h0v0l0,.09,0,.11a.23.23,0,0,0,0,.11.65.65,0,0,0,0,.13c-.1.35-.21.7-.3,1,0,.13-.08.26-.11.39-.1.33-.2.65-.29,1l-.57,2v0a.74.74,0,0,0,0,.14,0,0,0,0,0,0,0v0h0v0h0v0l0,.1c-.44,1.52-.89,3-1.34,4.55-.24.81-.48,1.63-.73,2.44h0c-.15.53-.31,1.07-.48,1.6,0,0,0,0,0,.06s0,.09,0,.14h0c0,.08-.05.15-.07.23l0,0v0h0l0,.11,0,.11c0,.11-.06.22-.1.33l0,.05,0,0a.25.25,0,0,1,0,.07s0,0,0,.06l0,.05s0,0,0,0,0,0,0,.08a206042137002.87,206042137002.87,0,0,1-.08.24s0,0,0,.06a2.58,2.58,0,0,1-.08.26,1.54,1.54,0,0,1,0,.17s0,0,0,.08-.09.29-.13.43-.16.51-.23.76-.25.76-.36,1.15-.18.56-.26.84l0,.08-.21.68q-.69,2.24-1.41,4.47t-1.49,4.67q-3.54,10.92-7.42,21.89c-.47,1.33-.94,2.65-1.42,4q-.95,2.63-1.9,5.23-1.68,4.62-3.44,9.23l-1.77,4.61c-.94,2.43-1.89,4.85-2.85,7.28q-1,2.64-2.11,5.28c-.51,1.27-1,2.53-1.55,3.8q-3,7.5-6.28,15c-.06.16-.13.32-.2.47a861.92,861.92,0,0,1-46.13,91.61q-14.83,25.54-31.57,50.07l0,.05q-17,24.88-35.9,48.34c-.2.26-.41.51-.62.76h0l0,.06,0,0q-6.37,7.89-13,15.57l-.05.06q-11.91,13.86-24.51,27-20.31,21.2-42.37,40.28h0a536.91,536.91,0,0,1-76.91,55.62q-8.31,4.92-16.78,9.51-2.84,1.51-5.68,3l-3.26,1.69c-1.24.64-2.49,1.27-3.74,1.9-1.84.92-3.69,1.84-5.54,2.74l-3.38,1.63c-2.26,1.08-4.53,2.13-6.81,3.18l-3.43,1.55-4.6,2q-2.31,1-4.63,2l-4.07,1.69-2.66,1.07c-2,.81-4,1.59-6,2.36-1.23.48-2.45.94-3.68,1.4s-2.76,1-4.14,1.53-2.77,1-4.16,1.49c-2.78,1-5.57,1.94-8.37,2.86l-1.47.48-.86.28c-2.44.79-4.88,1.56-7.34,2.31.36-.82.72-1.65,1.07-2.47l.84-2s0,0,0-.05c.08-.17.15-.34.22-.51l.2-.48c.62-1.5,1.24-3,1.85-4.52q1-2.53,2-5.12c.33-.86.66-1.73,1-2.59q1-2.6,1.93-5.24.83-2.28,1.62-4.59c32-92.36,39.53-216.64,45.18-316.54q.28-4.92.55-9.77c.11-1.9.21-3.79.32-5.67q.32-5.64.63-11.14t.64-10.9q.21-3.42.37-6.81c.11-2.26.21-4.52.29-6.76q.16-4.5.27-8.94c3-129.25-36.63-231.34-95.22-341q-6-11.34-12.37-22.79-2-3.59-4-7.17-4.4-7.9-8.89-15.89-1.59-2.82-3.21-5.61c-.26-.45-.52-.91-.8-1.36q-1.09-1.92-2.24-3.82l-1.18-2q-1.56-2.62-3.17-5.24c-1.2-2-2.42-3.92-3.66-5.87s-2.47-3.89-3.73-5.81c-1.1-1.69-2.21-3.38-3.32-5-70.14-105.62-170.39-177.85-284.08-225.62-.18-.09-.36-.16-.54-.23C2348.61,1355,2181,1334,2026.38,1334.18c-156.69.22-301.9-21.89-443.72,53.94l-.11.06q-5,2.68-10,5.54c-100.8,57.35-194.18,143.11-275.42,228.73l-.08.08-.09.1-.08.09-.09.1-.08.09-.09.1-.08.09-.09.1q-14,14.82-27.57,29.57c-99.38,108.16-160.08,288.83-174.79,466.43,0,.2,0,.39,0,.58-1.8,21.81-2.91,43.57-3.28,65.14q-.09,4.22-.13,8.43c0,1.58,0,3.16,0,4.74s0,3.12,0,4.68,0,3,0,4.53c.22,46.8,3.83,92.45,11,135.52a626.77,626.77,0,0,0,22.6,93.49c.49,1.49,1,3,1.49,4.44.34,1,.69,2.05,1.05,3.07q1.11,3.21,2.25,6.38c.43,1.19.87,2.37,1.31,3.54.18.5.37,1,.56,1.49.1.29.21.58.32.87s.29.77.43,1.15l-3-1-.2-.07-.46-.15-.67-.23-2.79-.95c-.28-.1-.57-.19-.85-.3-.95-.32-1.9-.65-2.84-1l-2.31-.82-.57-.2-.67-.24-1.44-.53-.4-.15-4.82-1.76-4.89-1.84-4.24-1.64q-14.79-5.8-28.86-12.2-18.75-8.51-36.28-18.11-12.84-7-25-14.56h0l0,0-.54-.33h0q-18.12-11.25-34.85-23.67-2.22-1.64-4.43-3.3-3.66-2.78-7.26-5.62c-.36-.27-.73-.56-1.09-.85l0,0c-2.23-1.76-4.45-3.53-6.64-5.33l-.2-.16c-.52-.42-1-.85-1.54-1.28l-2.21-1.84-.5-.42-2.28-1.93q-7.07-6-13.84-12.15h0q-10.2-9.32-19.8-19.08-3.51-3.55-6.93-7.18a0,0,0,0,1,0,0c-32.67-34.54-60.06-73.11-82.75-114.76q-5.16-9.45-10-19.09c-22.66-45.25-40.1-93.83-53-144.58v0h0c0-.06,0-.12,0-.18q-4-15.55-7.37-31.37s0-.06,0-.08q-1.59-9.09-3-18.24a.77.77,0,0,1,0-.15c-4.8-31.42-7.89-63.37-9.69-95.69V1894c-2.05-17.38-3.34-34.9-4.05-52.52v0c-.76-19-.84-38.16-.45-57.37q.14,21.68.93,43.31.59-14.15,1.63-28.29v0c.68-68.71,5.26-138.38,10-207.59l1-15q.29-4.23.61-8.45s0-.1,0-.14c.23-3,.47-6,.73-9,0,.14,0,.28-.07.42a.57.57,0,0,0,0,.13q-3.4,23.05-6.2,46.48c2.56-26.18,5.6-52,9-77.43q.75-5.58,1.62-11.2s0-.1,0-.15v0q1.08-8.82,2.35-17.59a.22.22,0,0,1,0-.08,1077.8,1077.8,0,0,1,61.66-236.14h0a.42.42,0,0,0,0-.1h0c.06-.17.13-.32.19-.49q14.88-40.44,32.9-79.76l.2-.44q11.53-25.7,24.55-50a.41.41,0,0,1,.05-.09q25-47.86,55.18-94,3.32-5.74,6.72-11.43,13.21-19.35,27.21-38.13a1186.33,1186.33,0,0,1,133.4-150.45q38.36-36.57,79.86-69.75,30.3-24.24,62.13-46.58l.18-.13q6.3-4.58,12.66-9.08l0,0q7.14-5.07,14.37-10h0l7-3.93c191.4-107.14,418-211.3,641.62-213h.08A662.17,662.17,0,0,1,2064,500c61.95,13.25,123.48,25.2,184.09,38.07h0c25.35,5.39,50.53,10.94,75.52,16.82l4.56,1.08.1,0c101.63,24.09,199.9,53.79,292.23,100.18,0,0,0,0,0,0a828.39,828.39,0,0,1,139.07,87.62l.12.09.47.37q8.22,6.44,16.34,13.14,65.54,54.17,129.08,112.24,30,27.38,59.23,55.45,4.46,4.26,8.9,8.57,9.48,9.15,18.87,18.38,39.29,38.52,77,78l1.47,1.54q20.66,21.67,39.46,44.77l0,0c64.85,79.47,113.62,170.83,147,268.33a997.75,997.75,0,0,1,30,107s0,.06,0,.09q9.67,43.56,15.62,88a.77.77,0,0,1,0,.15q4.85,36,7.25,72.37v.05A1117.36,1117.36,0,0,1,3306.75,1804Z"/><path class="cls-4" d="M1049.69,2237.54a56.1,56.1,0,0,1-7.69,10.7c-1.13,1.24-2.34,2.46-3.61,3.64a77.85,77.85,0,0,1-20.14,13.92c-1.54.71-3.08,1.36-4.63,1.93-12,4.49-24.28,4.83-36.62,2-1.55-.36-3.1-.77-4.66-1.24a101.44,101.44,0,0,1-19.25-8.1c-17.88-9.65-35.56-24.84-52.33-42.72-5-5.39-10-11-14.89-16.82-39.53-47.09-72.31-105.16-88-132.55-1.91-3.33-3.75-6.67-5.55-10h0c-25.05-46.79-39.35-95.85-46.84-146.22q-1.34-8.94-2.38-17.92V1894c-2.05-17.38-3.34-34.9-4.05-52.52v0c-.76-19-.84-38.16-.45-57.37q.14,21.68.93,43.31.59-14.15,1.63-28.29v0c.68-68.71,5.26-138.38,10-207.59l1-15q1.26,13.17,3.07,26.15h0v0q3.39,24.31,8.64,47.94h0q3.71,16.77,8.28,33.18a713.4,713.4,0,0,0,41.44,111.12q1.33,2.86,2.7,5.7h0c10.2,21.4,21.36,42.38,33.31,63,17.5,30.16,36.7,59.49,57.11,88.1q10.45,14.64,21.29,29c3,4,6.85,8.87,11.23,14.34h0l3.78,4.72c8.85,11,19.55,24.3,30.8,39,22,28.72,46.18,62.83,62.8,96.22C1055.59,2173.15,1064.76,2210.37,1049.69,2237.54Z"/><path class="cls-4" d="M935,1038.32q-9.78,16.8-19,34l-.06.1q-4.06,7.47-8,15a.09.09,0,0,0,0,.06v0l0,0c-28.71,54.33-54.53,110.35-80.43,164.35l0,.06q-2.7,5.64-5.42,11.25c.06-.17.13-.32.19-.49q14.88-40.44,32.9-79.76l.2-.44q11.53-25.7,24.55-50a.41.41,0,0,1,.05-.09Q904.8,1084.48,935,1038.32Z"/><path class="cls-4" d="M3280.57,1952.38c0,.14-.07.27-.1.41l-.18.7c-.31,1.27-.63,2.53-1,3.79-.21.84-.42,1.67-.64,2.51-.17.67-.34,1.34-.52,2-.53,2-1.07,4.11-1.62,6.16-.2.79-.41,1.59-.63,2.38l-.84,3.14-.09.31c-.42,1.57-.86,3.15-1.29,4.72-.12.43-.24.85-.35,1.28-.24.85-.47,1.71-.71,2.56-.06.2-.12.41-.17.61,0,0,0,0,0,0l-.06.18v0c-.36,1.27-.72,2.53-1.07,3.8l-.06.19,0,.11a.09.09,0,0,0,0,0,.32.32,0,0,0,0,.09l0,.09,0,.11a.23.23,0,0,0,0,.11.65.65,0,0,0,0,.13c-.1.35-.21.7-.3,1,0,.13-.08.26-.11.39-.1.33-.2.65-.29,1l-.57,2v0a.74.74,0,0,0,0,.14,0,0,0,0,0,0,0v0a.08.08,0,0,0,0,0h0v0l0,.1c-.44,1.52-.89,3-1.34,4.55-.24.81-.48,1.63-.73,2.44h0c-.15.53-.31,1.07-.48,1.6,0,.17-.1.35-.15.52l-.33,1.09a.56.56,0,0,0,0,.12s0,0,0,.06a2.58,2.58,0,0,1-.08.26,1.54,1.54,0,0,1,0,.17s0,0,0,.08-.09.29-.13.43-.16.51-.23.76-.25.76-.36,1.15-.18.56-.26.84l0,.08c-.14.49-.29,1-.44,1.46-.36,1.15-.71,2.3-1.07,3.44l-.42,1.33q-1.07,3.36-2.14,6.72c-23.54,73-55.79,144-98.84,207.66q-3.2,4.73-6.47,9.38l-.18.26q-16.92,24.09-36,46.57l-.1-.15s0,0,0,0l-.07-.09c-.82-1.21-1.6-2.43-2.33-3.66-.89-1.49-1.71-3-2.46-4.5a67.75,67.75,0,0,1-3-6.93c-.5-1.34-1-2.69-1.36-4a77.78,77.78,0,0,1-3.19-22.87s0,0,0,0c.07-23.4,9.06-48.32,20.24-72.3,12.62-27.08,28-53,36.51-74.14q7.35-18.36,14-37a0,0,0,0,0,0,0A1307,1307,0,0,0,3219,1920.45c9.79-40.62,17.86-81.62,24.54-122.61,3.4-20.9,6.67-42.26,9.6-63.95a0,0,0,0,0,0,0q.53-3.88,1-7.78s0,0,0,0c5.57-42.43,9.81-86,11.34-129.71,1.81-50.91-.06-102-7.78-151.46-8.79-56.4-25.17-110.8-52.34-160.69a545.29,545.29,0,0,0-47.24-72h0c-31.54-40.93-68.19-77.94-107-112.83-48.49-43.59-100.32-83.87-149.72-124.33C2777,873.13,2658.51,699,2499.59,656c-80.41-21.74-167.53-8.6-249.64-15.18-84.11-6.73-165.83-28.44-248.39-44.47-185.61-36.05-329.49-9.1-496.68,76.24-74.48,38-163.34,61.09-247.3,90.91-50.89,18.08-100,38.64-142.94,66.5h0q-6.24,4.05-12.3,8.31,38.36-36.57,79.86-69.75,30.3-24.24,62.13-46.58l.18-.13q8.16-5.72,16.42-11.32,8.77-6,17.67-11.76,41-26.82,84.13-50.42c130.78-71.56,275.86-120.47,421.92-151.26q15-3.16,29.87-5.39l.2,0q17.88-2.67,35.66-4.14h.07a616.76,616.76,0,0,1,69.77-1.71h.08c127.25,3.81,252.09,42.65,379,64.76q9,1.56,18,3.18l.13,0,.19,0,6.05,1.11q26.28,4.8,52.09,10.18l.17,0,.48.1c47.41,10,93.54,21.78,137.81,37.09l1.36.48a714.58,714.58,0,0,1,85.1,35.6c113.83,56.94,204.65,136.05,299.59,226.16a2.19,2.19,0,0,1,.23.21l5.16,4.89c27.4,26,56.21,52.78,84.76,80.23l.68.66,1.56,1.51c34.18,32.94,67.91,66.77,98.3,101q13,14.64,25.18,29.84a.48.48,0,0,1,.09.11c74.14,92.35,126.59,199.54,158.72,313.34q9.2,32.55,16.17,65.77a1.89,1.89,0,0,1,.05.23q3,14.29,5.62,28.71l0,.15a1065.27,1065.27,0,0,1,15.51,135.13s0,0,0,0A1112.43,1112.43,0,0,1,3280.57,1952.38Z"/><path class="cls-5" d="M3277.54,1964.45c-.38,1.46-.77,2.91-1.16,4.36s-.83,3.06-1.25,4.59c-.59,2.13-1.18,4.27-1.78,6.39-.23.86-.47,1.71-.71,2.56-.06.2-.12.41-.17.61,0,0,0,0,0,0l-.06.18v0c-.12.42-.24.83-.35,1.24,0,0,0,.11-.05.16a2.5,2.5,0,0,0-.07.26h0l-.07.25a.24.24,0,0,0,0,.08,4.77,4.77,0,0,0-.13.47c-.14.44-.26.89-.38,1.33l0,.1s0,0,0,0a0,0,0,0,0,0,0v.06a.19.19,0,0,0,0,.07v0a.09.09,0,0,0,0,0s0,0,0,0h0v0l0,.09,0,.11a.23.23,0,0,0,0,.11.65.65,0,0,0,0,.13c-.1.35-.21.7-.3,1,0,.13-.08.26-.11.39-.1.33-.2.65-.29,1l-.57,2v0a.74.74,0,0,0,0,.14,0,0,0,0,0,0,0v0h0v0h0v0l0,.1c-.44,1.52-.89,3-1.34,4.55-.24.81-.48,1.63-.73,2.44h0c-.15.53-.31,1.07-.48,1.6,0,0,0,0,0,.06s0,.09,0,.14h0a.68.68,0,0,0-.07.23l0,0v0l0,.11,0,.11c0,.11-.06.22-.1.33l0,.05,0,0a.25.25,0,0,1,0,.07s0,0,0,.06l0,.05s0,0,0,0,0,0,0,.08a206042137002.87,206042137002.87,0,0,1-.08.24s0,0,0,.06a2.58,2.58,0,0,1-.08.26c-2.5,7.87-5.58,16.93-9.19,26.9v0a1172.09,1172.09,0,0,1-68.6,152.11.05.05,0,0,1,0,0l-1.44,2.63c-5.43,9.93-11,19.78-16.81,29.44a.05.05,0,0,1,0,.05c-.29.49-.58,1-.88,1.47a.37.37,0,0,1-.07.12q-2.4,4-4.85,8l-.14.22c-.64,1.06-1.3,2.1-1.95,3.15-24.93,40-52.5,75.84-81,99.55l-.69.57h0q-3,2.49-6.06,4.8s0,0,0,0c-1.35,1-2.69,2-4,3l-.06.06c-2.49,1.76-5,3.43-7.5,5-1.93,1.22-3.87,2.37-5.8,3.46q-4.17,2.35-8.35,4.28c-.8.38-1.6.74-2.41,1.08l-1.2.52a81.72,81.72,0,0,1-29.41,6.7h0q-6.94.18-13-.21c-1.72-.11-3.38-.26-5-.45-59.58-6.7-44.22-60-4.24-122.51,11.62-18.16,25.3-37.07,39.83-55.89a.06.06,0,0,0,0,0c17.25-22.35,35.7-44.52,53.28-65q5.4-6.3,10.69-12.36c7.54-8.67,14.82-17,21.7-24.71,4-4.54,7.87-8.89,11.56-13.05,19.43-21.9,33.83-38.12,38.05-44.85q11.08-17.67,21.07-36.13a664.58,664.58,0,0,0,29.07-60.86,672.75,672.75,0,0,0,31-92.54.09.09,0,0,0,0-.05q6.57-25.66,11-51.8h0c10.22-59.5,12.11-120.26,4.5-179.69q-2-15.43-4.8-30.74c-20.1-108.31-77.52-197-148.63-276.37h0c-60.67-67.75-131.34-128.65-197.26-189.08-124.91-114.48-263.55-260-430.45-308.36-35-10.15-70.76-16.72-106.81-21.59h0c-51.15-6.91-102.89-10.41-154-15.9-101.21-10.87-199.3-40.19-301.29-36.86q-28.07.91-54.89,2.3h0c-153.16,8-279.56,30.17-421.91,102.91-29.14,14.89-58,27.49-86.35,39-30.37,12.28-60.19,23.27-89.22,34.38l-.15,0c-59,22.59-114.71,45.69-165.22,81.19-41.87,29.42-80.14,67.36-113.69,120.59C898.4,1244.32,776.8,1413,756.6,1588.73c-.53,4.63-1,9.25-1.39,13.9h0v0a520.06,520.06,0,0,0,.21,88c5.43,64.25,21.83,128.79,45.67,190.41,8.44,21.84,17.83,43.32,28,64.29q11.79,24.36,24.92,47.73c11.17,19.92,23,39.24,35.28,57.8v0c.06.1.12.2.19.3q10.1,15.21,20.59,29.74c9,12.43,22.37,27.77,37.57,45,3.15,3.59,6.39,7.25,9.68,11l6,6.82c27.84,31.82,58.53,68.36,78.7,104.47a230.3,230.3,0,0,1,11.06,22.28.08.08,0,0,1,0,0,155.16,155.16,0,0,1,8.37,24.77c4,16.53,4.21,32.45-.7,47.21-.23.7-.47,1.4-.73,2.09a126.76,126.76,0,0,1-5.41,12.63c-9.41,18.87-21.33,28.57-34.92,31.14-8.24,1.57-17.09.52-26.37-2.69a98.79,98.79,0,0,1-17.52-8.23l-.47-.28-.07,0c-1.36-.79-2.71-1.63-4.08-2.5-2-1.25-4-2.59-6-4l-.61-.44a239.47,239.47,0,0,1-24.72-20.37h0c-7.94-7.39-15.93-15.58-23.9-24.36l-3.63-4.05-.11-.12-1.4-1.59c-24.9-28.28-49.29-61.91-70.53-94.27a.33.33,0,0,1-.06-.1c-4.83-7.37-9.5-14.67-14-21.83q-3.62-5.82-7.07-11.48-4.37-7.17-8.41-14.05h0c-3.35-5.68-6.53-11.2-9.52-16.49v0l0-.06s0,0,0,0h0c-21.62-48.94-36.07-100.23-45.36-153.11,0,0,0-.06,0-.08q-1.59-9.09-3-18.24a.77.77,0,0,1,0-.15c-4.8-31.42-7.89-63.37-9.69-95.69V1894c-2.05-17.38-3.34-34.9-4.05-52.52v0c-.76-19-.84-38.16-.45-57.37q.14,21.68.93,43.31.59-14.15,1.63-28.29v0c.68-68.71,5.26-138.38,10-207.59l1-15q.29-4.23.61-8.45s0-.1,0-.14c.23-3,.47-6,.73-9,0,.14,0,.28-.07.42,0-.33.07-.67.12-1h0l.72-6.11c.53-4.45,1.07-8.88,1.65-13.31q3.66-28.8,8.47-57.11a1.55,1.55,0,0,1,0-.21c12.77-75.37,31.66-148.1,57.47-218.27h0a.42.42,0,0,0,0-.1h0c.06-.17.13-.32.19-.49q14.88-40.44,32.9-79.76l.2-.44q11.61-25.25,24.55-50a.41.41,0,0,1,.05-.09q25-47.86,55.18-94,6.48-9.93,13.24-19.78,10.14-14.79,20.69-29.78a1186.33,1186.33,0,0,1,133.4-150.45q38.36-36.57,79.86-69.75c1.67-.87,3.35-1.73,5-2.56,31.68-15.89,65-27.08,98.74-38.72,28.44-9.8,57.18-19.92,85.51-33.44,80.85-38.56,147.52-92.35,236.85-112.68,87.23-19.85,180.38-15.62,269.29-17.7,117.73-2.77,219.17,24.13,334.36,41.67,108.91,16.59,221,8.85,327.84,39.36,42.73,12.2,82.38,30.1,119.87,51.89h0c124.18,72.13,224.63,186.79,334.24,277.48,124.51,103,211.73,230.51,263.65,370.91q2.52,6.81,4.93,13.66s0,0,0,0l.07.22q6.58,18.71,12.32,37.69,5.37,17.71,10,35.66c0,.06,0,.11,0,.16,19.76,76.21,29.89,155.31,30.7,235.66v0C3316.68,1766,3303.79,1865.82,3277.54,1964.45Z"/><path class="cls-6" d="M3277.54,1964.45c-.38,1.46-.77,2.91-1.16,4.36s-.83,3.06-1.25,4.59c-.59,2.13-1.18,4.27-1.78,6.39-.23.86-.47,1.71-.71,2.56-.06.2-.12.41-.17.61,0,0,0,0,0,0l-.06.18v0c-.12.42-.24.83-.35,1.24,0,0,0,.11-.05.16a2.5,2.5,0,0,0-.07.26h0a1,1,0,0,0,0,.17l0,.08a.24.24,0,0,0,0,.08,4.77,4.77,0,0,0-.13.47c-.14.44-.26.89-.38,1.33l0,.1s0,0,0,0a0,0,0,0,0,0,0v.06a.19.19,0,0,0,0,.07v0a.09.09,0,0,0,0,0s0,0,0,0h0v0l0,.09,0,.11a.23.23,0,0,0,0,.11.65.65,0,0,0,0,.13c-.1.35-.21.7-.3,1,0,.13-.08.26-.11.39-.1.33-.2.65-.29,1l-.57,2v0a.74.74,0,0,0,0,.14,0,0,0,0,0,0,0v0h0v.06l0,.1c-.44,1.52-.89,3-1.34,4.55-.24.81-.48,1.63-.73,2.44h0c-.15.53-.31,1.07-.48,1.6,0,0,0,0,0,.06s0,.09,0,.14h0c0,.08-.05.15-.07.23l0,0v0h0l0,.11,0,.11c0,.11-.06.22-.1.33l0,.05,0,0a.25.25,0,0,1,0,.07s0,0,0,.06l0,.05s0,0,0,0,0,0,0,.08a206042137002.87,206042137002.87,0,0,1-.08.24s0,0,0,.06a2.58,2.58,0,0,1-.08.26,1.54,1.54,0,0,1,0,.17s0,0,0,.08-.09.29-.13.43-.16.51-.23.76-.25.76-.36,1.15-.18.56-.26.84l0,.08-.21.68a3.37,3.37,0,0,1-.1.34c-.83,2.71-1.69,5.43-2.55,8.13-.43,1.35-.86,2.71-1.3,4.06l-1.32,4c-.5,1.52-1,3-1.51,4.54s-1,2.95-1.5,4.43q-1.46,4.28-2.94,8.54-1.87,5.33-3.81,10.63-2,5.55-4.11,11.07-2.89,7.62-5.91,15.18-1.79,4.47-3.63,8.92-1.51,3.71-3.1,7.39-1.7,4.07-3.48,8.1t-3.57,8.07c-1.19,2.69-2.4,5.36-3.65,8l-1.86,4c-.62,1.33-1.25,2.66-1.88,4s-1.2,2.53-1.81,3.8-1.33,2.76-2,4.15c-.5,1-1,2-1.51,3.07q-1.18,2.41-2.39,4.83-1.31,2.6-2.62,5.18-4.86,9.54-10,19l-1.88,3.43q-.46.87-1,1.74-1.8,3.26-3.64,6.48c-1.22,2.15-2.46,4.3-3.7,6.44q-3.75,6.42-7.61,12.77c-.17.3-.34.59-.53.88q-4.85,7.94-9.91,15.75a.05.05,0,0,1,0,.05q-3.48,5.4-7.06,10.72a104.06,104.06,0,0,1-7.67,9.86l0,.05-.52.6c-6.81,7.81-15.59,16.43-25.24,25.53h0c-4.83,4.55-9.87,9.21-15,13.95-3.45,3.2-6.94,6.42-10.42,9.67h0l-5.17,4.85c-9,8.47-17.76,17-25.55,25.34-10.85,11.62-19.8,22.88-24.8,33.1a44.82,44.82,0,0,0-3.65,10.09c-.06.25-.11.49-.15.73s-.06.29-.08.43l-.06.33c0-.09,0-.18,0-.27,0-.3,0-.6,0-.91a63.72,63.72,0,0,1,.37-8.8,86.62,86.62,0,0,1,3.66-16.87,0,0,0,0,1,0,0c7.06-22.28,22.62-46.22,41.14-70.16,5.52-7.13,11.31-14.26,17.2-21.35h0q6.84-8.18,13.79-16.27c5.06-5.9,10.12-11.75,15.09-17.51h0c22.59-26.13,43.44-50.58,54.42-70.9l.83-1.54v0c49.71-92.61,74-192.64,72.92-297.87q-.33-30.78-3.41-61.2h0q-2.52-25.15-6.84-50s0,0,0,0c-.32-1.88-.66-3.77-1-5.64,0,0,0,0,0,0-20.22-111.34-66.65-217-131.14-310.37h0c-.57-.84-1.15-1.67-1.74-2.51v0a907.7,907.7,0,0,0-107-127c-123.9-122.46-269.48-295-421.28-381.65-88.51-50.55-186.71-52-286.15-55.2-109.25-3.55-206-23-313.48-40.53C1745,762.7,1584,866.33,1366.58,957c-99.28,41.42-207.84,48.25-288.66,124.76a445.71,445.71,0,0,0-54.43,62.88q-9.63,13.3-18.53,27.21c-31.54,49.05-57,102.72-81.9,154.17-42.51,87.88-99.25,174.85-132.76,266.49a297.58,297.58,0,0,0-18.17,91.26c-2.34,58.44,12.26,114.85,33.07,171.81h0c4.32,11.84,8.92,23.68,13.68,35.59h0q4.64,11.57,9.45,23.21,11.5,27.86,23.71,55.63v0q17.85,40.64,37.24,80.79v0l.18.38c19.65,40.63,40.51,80.73,62.66,119.84h0q3.52,6.26,7.12,12.47c1.44,2.51,2.9,5,4.36,7.53h0q8.88,15.24,18,30.25c6.52,10.7,14.86,22.5,23.9,35.09l8.1,11.27c14.67,20.44,30.24,42.58,42.33,65.33v0q2.5,4.71,4.79,9.44c14.86,30.77,22.34,62.26,11.82,91.65a.06.06,0,0,1,0,0h0l-.14.38c-.06.15-.11.31-.17.46q-13.71-5.85-26.77-12.31l-.21-.1c-2.33-1.15-4.62-2.33-6.91-3.51,0,0,0,0,0,0-1.52-.78-3-1.57-4.54-2.37A492.45,492.45,0,0,1,970.18,2377c-.95-.69-1.9-1.4-2.84-2.12q-4.05-3-8-6.14l-.45-.34c-1.57-1.24-3.13-2.48-4.68-3.74a483,483,0,0,1-69.56-68.79l-.25-.29q-11.43-13.86-21.86-28.51l-.1-.12q-1.7-2.37-3.35-4.76l0,0q-6.27-9-12.16-18.24l0-.07q-10.19-16-19.31-32.73v0s0-.05,0-.08l0,0q-8.84-16.17-16.68-33h0c-20.33-43.4-35.95-89.8-47.52-138.13v0h0c0-.06,0-.12,0-.18q-5.88-24.52-10.38-49.69a.77.77,0,0,1,0-.15c-4.8-31.42-7.89-63.37-9.69-95.69V1894c-2.05-17.38-3.34-34.9-4.05-52.52v0c-.76-19-.84-38.16-.45-57.37q.14,21.68.93,43.31.59-14.15,1.63-28.29v0c.68-68.71,5.26-138.38,10-207.59l1-15q.29-4.23.61-8.45s0-.1,0-.14c.23-3,.47-6,.73-9v0c.29-2,.6-4.06.91-6.09v0c6.19-41.1,13.7-81.17,22.16-119.63a0,0,0,0,1,0,0c8.15-37.11,17.2-72.71,26.8-106.26q11-38.43,24-74.88l0-.06q4.59-12.84,9.47-25.4l0-.07q8.61-22.17,18.14-43.47l.2-.44q11.53-25.7,24.55-50a.41.41,0,0,1,.05-.09,681.84,681.84,0,0,1,36.09-60l.06-.1q5.47-8.08,11.18-16l0,0h0l0,0c62.81-86.89,146.77-155,261.5-197.47l4.43-1.66c192.57-72.16,370-190.63,577.68-214.72,202.48-23.48,408.34,40.36,610.6,54.43C2630.94,714.15,2742.36,836,2920.9,996.56c49.12,44.17,98.39,84.13,144.54,125h0c32.88,29.12,64.16,58.71,92.66,90.63l0,0,0,0c54.63,61.19,99,130.92,124.81,222.25q2.42,8.58,4.65,17.22s0,.06,0,.09q1,4,2,8.09,2.43,9.75,4.59,19.57a1.18,1.18,0,0,1,0,.2c.85,3.78,1.67,7.59,2.45,11.39a2,2,0,0,1,.05.26A922.89,922.89,0,0,1,3315.25,1660v.09C3317.25,1762.91,3303.47,1866.65,3277.54,1964.45Z"/><path class="cls-7" d="M3271.88,1985.05l0,.08a.24.24,0,0,0,0,.08,4.77,4.77,0,0,0-.13.47c-.14.44-.26.89-.38,1.33l0,.1s0,0,0,0a.07.07,0,0,1,0,.07v0a.19.19,0,0,0,0,.07v0a.09.09,0,0,0,0,0s0,0,0,0,0,0,0,0a1.81,1.81,0,0,1-.09.31c-.1.39-.22.79-.34,1.18,0,.13-.08.26-.11.39-.1.33-.2.65-.29,1l-.57,2v0a.74.74,0,0,0,0,.14,0,0,0,0,0,0,0v0h0v.06l0,.1c-.44,1.52-.89,3-1.34,4.55-.24.81-.48,1.63-.73,2.44h0c-.15.53-.31,1.07-.48,1.6,0,0,0,0,0,.06s0,.09,0,.14h0c0,.08-.05.15-.07.23s0,0,0,.08,0,.08,0,.12l0,.11c0,.11-.06.22-.1.33l0,.05a1.21,1.21,0,0,1-.05.18.38.38,0,0,0,0,.1s0,0,0,.08a206042137002.87,206042137002.87,0,0,1-.08.24s0,0,0,.06a2.58,2.58,0,0,1-.08.26,1.54,1.54,0,0,1,0,.17s0,0,0,.08-.09.29-.13.43-.16.51-.23.76-.25.76-.36,1.15-.18.56-.26.84l0,.08-.21.68a3.37,3.37,0,0,1-.1.34c-.83,2.71-1.69,5.43-2.55,8.13-.43,1.35-.86,2.71-1.3,4.06l-1.32,4c-.5,1.52-1,3-1.51,4.54s-1,2.95-1.5,4.43q-1.46,4.28-2.94,8.54-1.87,5.33-3.81,10.63-2,5.55-4.11,11.07-2.89,7.62-5.91,15.18-13.12,32.75-28.89,64.35-1.31,2.6-2.62,5.18-4.86,9.54-10,19l-1.88,3.43q-.46.87-1,1.74-1.8,3.26-3.64,6.48c-1.22,2.15-2.46,4.3-3.7,6.44q-4.5,7.79-9.2,15.45l-.08.13q-4.72,7.74-9.68,15.34a.37.37,0,0,1-.07.12,679.33,679.33,0,0,1-49.7,67.4l-.63.74h0l0,.06,0,0q-1.59,1.89-3.21,3.77l-.12.15q-13,15.21-27,29.6c.73-1.47,1.46-2.93,2.18-4.41h0q7-14.22,13.55-28.54h0q3.8-8.28,7.42-16.6,13.18-30.17,24.33-60.71h0a993.83,993.83,0,0,0,41.91-149.66,0,0,0,0,0,0,0q7.51-38.28,11.76-76.59a861,861,0,0,0,1.11-182.44v0c-19.23-188.21-103.27-366.25-260.44-507.1-79.7-71.42-164.31-136.62-242.66-209.65C2626,1024.37,2567.07,965,2483.78,939.79c-102.75-31.13-217.33-14.59-322.7-32.16-106.32-17.72-206.4-57.36-315.78-54.07-191.36,5.77-348.58,128.14-527.18,181.72-156.23,46.86-245.83,134.76-322.23,257.22h0c-21.85,35-42.61,72.84-63.54,113.34-66.18,128.05-115.05,255.27-118.78,389.06q-.29,9.39-.23,18.85v0a572,572,0,0,0,5.54,77.39h0q3.74,26.83,10.2,54.12a616.14,616.14,0,0,0,17.4,59.64c4,11.61,8.39,23.29,13.09,35h0c7.52,18.68,15.92,37.32,25.17,55.65,20,39.57,44,77.64,72,111.22.88,1.08,1.78,2.15,2.69,3.21q4.07,4.81,8.26,9.5h0q13.33,14.89,27.76,28.35c3.21,3,6.6,5.84,10.11,8.59,4.1,3.23,8.37,6.32,12.73,9.34,12,8.29,24.6,16,36.36,24.47,2.32,1.65,4.6,3.33,6.83,5.06a147.82,147.82,0,0,1,17.43,15.44,129.58,129.58,0,0,1,21.71,30.21h0l.78,1.55h0c.05.09.1.18.14.27,17.16,34.86,13.73,70.07,29.26,112.41.24.68.5,1.35.75,2l-3-1h0l-.18-.07-.46-.15-.67-.23-2.79-.95c-.28-.1-.57-.19-.85-.3-.95-.32-1.9-.65-2.84-1l-2.31-.82-.57-.2-.67-.24-1.44-.53c-.42-.14-.84-.3-1.25-.45l-.84-.3-.38-.14c-.92-.33-1.84-.67-2.75-1l-4.89-1.84q-17-6.5-33.11-13.79h0q-18.73-8.49-36.18-18h0q-12.54-6.83-24.43-14.16h0l-1.63-1,0,0q-18.21-11.33-34.94-23.8l-.07,0q-2-1.46-3.9-2.94-3.65-2.76-7.21-5.58l-1.12-.88h0q-3.37-2.65-6.68-5.39l-.2-.16c-.52-.42-1-.85-1.54-1.28l-2.21-1.84-.5-.42-2.28-1.93q-7.18-6.13-14.08-12.48-12-11.09-23.2-22.81l-.11-.12c-.59-.62-1.19-1.25-1.77-1.88a522.61,522.61,0,0,1-70.16-94,.33.33,0,0,1-.06-.1A594.5,594.5,0,0,1,811.06,2169h0c-35.63-78.64-56-166.31-65.58-257q-1.89-17.68-3.22-35.5c0-.07,0-.13,0-.2q-1.83-24.35-2.72-48.87a0,0,0,0,1,0,0q.59-14.15,1.63-28.29v0c.68-68.71,5.26-138.38,10-207.59l1-15q.29-4.23.61-8.45s0-.1,0-.14c.23-3,.47-6,.73-9,0,.14,0,.28-.07.42a.57.57,0,0,0,0,.13q-3.4,23.05-6.2,46.48c2.56-26.18,5.6-52,9-77.43q.75-5.58,1.62-11.2s0-.1,0-.15v0q.63-4,1.3-8v0q2.28-13.61,5.21-27.32a1.55,1.55,0,0,1,0-.21q5.13-24.13,12.14-48.47a0,0,0,0,1,0,0c43.77-152.48,139.62-307.3,247.16-412.45,32-31.25,66.76-53.63,103.7-71.51h0c44.67-21.63,92.47-36.71,142.2-53l.15,0,9.78-3.21c27.22-9,53.56-19.65,79.44-31.17,80.26-35.73,156-79.78,239.8-108.17,93.79-31.78,181.57-38.31,268.46-33.71h0c116.69,6.17,231.77,32.39,357.64,44.4,50.29,4.8,101.58,4.17,152.55,6.06h0c50,1.85,99.7,6.14,147.83,20.39C2625.48,820.23,2699.62,890,2773.43,961c106.45,102.4,230.25,192.71,336.32,298h0c43.64,43.3,84.26,89.14,119.44,139.4a447.59,447.59,0,0,1,28.5,46.49c26.85,50.41,43.3,104.31,51.74,159.89h0q.57,3.77,1.1,7.56v.05c.1.68.19,1.36.28,2q.81,6,1.49,11.93v0q1.92,16.72,2.94,33.61v.09q.24,3.87.43,7.74v0C3320.88,1774.1,3301,1883.82,3271.88,1985.05Z"/><path class="cls-4" d="M3253.14,1722.69c0,3.69,0,7.41,0,11.14,0,0,0,0,0,0s0,0,0,0h0v0c-.18,30.32-1.15,61.83-3.16,94a.09.09,0,0,1,0,.05c-6.35,101.74-23.11,209.87-58.46,307.22v0c-16.3,44.9-36.57,87.51-61.59,126.13h0q-6.08,9.39-12.53,18.45-12.48,17.51-26.44,33.71h0q-9.75,11.33-20.26,21.93l-.06.06q-10.87,11-22.56,21.08h0c-.95.84-1.91,1.66-2.88,2.48l0,0c0-.23.07-.45.1-.68l1.32-9.09q1.22-8.18,2.46-16.35a0,0,0,0,1,0,0q5-32.58,10.51-65.3h0c8.67-51.52,18.11-103.3,27.33-155.18q4.65-26.13,9.17-52.3v0c16.63-96.42,31.3-193,37.53-288.65,12.43-190.89-92.94-302.34-232.67-414.89-120.13-96.76-231.4-259.17-373.23-320.62-81.8-35.43-172.66-23.27-259-25.92-99.89-3.06-194.95-27.13-293.25-43.22-199.21-32.6-340.78,14.75-515.67,104.08-131.74,67.29-283.15,94.23-386,207.81a819.67,819.67,0,0,0-96.15,130.07v0c-81.85,137-123.41,295.14-127.9,454.84A1044.54,1044.54,0,0,0,852,1970.05v0q.86,11.51,2,23,2.25,23.49,5.57,46.86h0a1044.48,1044.48,0,0,0,22.17,112.22q8.43,33.09,19,65.48a992.06,992.06,0,0,0,63.34,150.93.16.16,0,0,0,0,.07c.35.68.7,1.36,1.06,2s.66,1.27,1,1.9a0,0,0,0,0,0,0c.06.13.13.26.2.39l.36.69-.24-.18h0q-10.59-8.16-20.62-16.71h0a552.25,552.25,0,0,1-61.25-60.88l-.25-.29a550.41,550.41,0,0,1-40-52.67c.78,1.11,1.58,2.2,2.38,3.3q7.65,10.5,15.63,20.74-1.7-2.37-3.35-4.76l0,0a543.52,543.52,0,0,1-57.8-100.65v0l0-.06s0,0,0,0h0c-21.62-48.94-36.07-100.23-45.36-153.11,0,0,0-.06,0-.08q-1.59-9.09-3-18.24a.77.77,0,0,1,0-.15c-4.8-31.42-7.89-63.37-9.69-95.69V1894c-2.05-17.38-3.34-34.9-4.05-52.52v0q.18-7,.48-14a0,0,0,0,1,0,0q.59-14.15,1.63-28.29v0a956,956,0,0,1,14.26-108.45q3.8-20.12,8.43-40h0a1010.23,1010.23,0,0,1,32.95-112.13C841.69,1413,910,1272.08,1005,1171.87q7.68-8.11,15.6-15.85,12.75-12.46,26.12-23.9c73.07-62.39,155.19-81.6,242.26-117.21,83.59-34.18,161.46-80.87,244.86-115.46,181-75.07,351.91-61.41,540.57-29.36,174.78,29.69,394.9-6.45,549.73,88.34,143.53,87.86,258.31,233.63,386.39,342.77,38.79,33,76.29,68.29,109.74,106.28v0c.55.61,1.08,1.22,1.62,1.84h0c76.1,87,130.85,188.41,131.26,311,0,0,0,0,0,0C3253.14,1721.18,3253.14,1721.94,3253.14,1722.69Z"/><path class="cls-5" d="M3130.67,1616.54c-49.23-146.5-180.62-232.39-291.62-329-108.23-94.16-204.29-246.8-351.52-281.69-76.78-18.2-160.67.17-238.62-6.37-83.54-7-162.73-32.84-245.06-46.35-183.77-30.16-347.6,6.76-508.11,96.85-131.7,73.92-298,75.55-407.84,184.6-40.7,40.42-74.8,88.74-104.4,140.48-41.55,72.63-74.24,152-103.86,225.68-25.78,64.14-47.76,131.32-63.37,199.85h0c-1,4.38-2,8.74-2.93,13.14v0q-4.49,20.82-8.14,41.79h0q-2.22,12.71-4.11,25.43a897.88,897.88,0,0,0-10,127.91c-.07,16.22.28,32.71,1.26,49.28h0c2.22,37.4,7.65,75.11,18.74,110.72h0q2.43,7.8,5.24,15.46,1.4,3.83,2.89,7.61,3.81,9.61,8.27,18.92l0,0s0,.05,0,.08v0c1.25,2.62,2.55,5.23,3.89,7.81,3.12,6,8.75,15,15.42,24.92l0,.07c7.64,11.34,16.62,23.91,24.78,34.67a1.13,1.13,0,0,1,.1.13c1.74,2.28,3.43,4.47,5.06,6.55a.79.79,0,0,0,.12.15c4.9,6.24,9.27,11.47,12.56,14.91,0,0,0,0,0,0q2.73,2.85,5.34,5.39c5,4.87,9.68,9,14.15,12.57a0,0,0,0,0,0,0l1.42,1.13.37.29c5.85,4.62,11.3,8.45,16.5,12.18h0c12.83,9.21,24.07,17.76,35.65,35.78l0,0v0h0c.53.8,1.05,1.63,1.57,2.47.41.68.83,1.37,1.24,2.07l.25.41.44.75h0l0,.05h0c.26.44.52.88.78,1.34.69,1.22,1.39,2.47,2.09,3.77.25-.55.5-1.09.75-1.65l.36-.84a.42.42,0,0,0,0-.1.75.75,0,0,0,.06-.13c.18-.42.36-.85.53-1.27l.18-.44s0,0,0,0a96.83,96.83,0,0,0,3.87-11.87c7.2-27.89,3.56-60.89-2.89-93.86-3.88-19.86-8.79-39.72-13-58.44q-1-4.68-2-9.25h0c-2.19-10.37-4-20.33-5.25-29.64h0c-.17-1.32-.33-2.62-.47-3.91q-2.28-20.57-4-41.24c-3-36.3-4.77-72.79-4.78-109.25q0-8.46.13-16.91c.44-30.62,2.14-61.2,5.32-91.6,18.61-178,93.37-363.46,194.75-510.88,87.88-127.79,230.34-137.67,363.16-193.54,167.15-70.31,293.9-142.39,482.41-111.13,81,13.43,159.42,39,241.58,46.15,68.73,5.94,144.63-12.53,212.2,2.53,133.79,29.81,267,215.5,368.3,302.44,106,90.93,181.73,183.28,189.22,328,1.17,22.57,1.85,45.12,2.17,67.65,1.85,131.43-8.8,262.3-8.4,393.95.12,40.75,1.3,81.57,4.24,122.51q.32,4.53.68,9.08.65,8.2,1.38,16.43.57,6.36,1.21,12.72a462.3,462.3,0,0,0,43.73-35.47l.25-.23.08-.08q2.61-2.41,5.12-4.85h0q6.72-6.49,12.66-13c15.47-16.79,27.23-33.52,36.2-50.7a212.38,212.38,0,0,0,11.24-25.5,249.17,249.17,0,0,0,10.6-39.15c3.36-17.61,5.26-36.15,6.45-56,1.9-31.64,2-66.68,3.21-106.79.05-1.93.12-3.87.18-5.83q.48-14.58,1.43-29.29h0C3141,1891.43,3175,1748.37,3130.67,1616.54Z"/><path class="cls-6" d="M3095,2016c0,90.91,18.26,225.93-26.09,308.86-29.64,55.42-96.14,110.12-127.5,97.74-22.46-8.88-14.79-67.83-18.47-113.38-8.7-107.82,26.4-217.14,27.62-324.52,1.46-128.42-44.48-304.43-117.32-411.9-57.83-85.32-154.42-125.45-233.92-186-46.6-35.47-87.5-84-144.07-104.62-73.92-26.89-157.11-3.74-233.7-9.67-146.92-11.38-284.12-63.6-434.06-44.8-136.17,17.07-287.24,91.54-412.57,148.16-131.62,59.46-159.6,147.64-210.47,273.74C1102.84,1802.33,1040.59,1931,1034,2099.89c-1.84,47.36,49.66,278.94.93,302.12-21.71,10.33-51.36-18.49-68.19-28.36-67.73-39.73-86.47-184-84.94-229.16,4.7-138.84,40.38-276,87.51-405.91,46.54-128.27,89.88-287,189.65-385.24,78.34-77.16,183.59-105.44,280.72-150.18,139.41-64.22,254-126.08,412.44-129.15,170.4-3.31,329.21,61.67,498.73,59.18,172.67-2.55,240,76.5,376.92,165.23,130,84.24,228.2,143.82,290.66,293C3072.72,1721,3108.05,1874.93,3095,2016Z"/><path class="cls-7" d="M3033.63,2174.28c-4,142-21.41,247.44-172,293.32,50.91-116.14,57.39-297.62,59.92-424.49,3-151.49-64.3-278.4-143.39-404-139.15-221-458-302.64-706.44-305.2-141.28-1.46-300.42-23.53-435.26,28.81-134.09,52.06-258.24,167.21-352,274-175,199.17-247.39,571.35-152.91,820.56-147.55-49-192.72-93.15-174.71-251.43,17.93-157.57,23.22-331.73,87.91-477.81,125.23-282.77,414-505.2,722.1-553,183.11-28.42,364.51,35,545.41,53.46,167.63,17.12,316.69,81.44,449.68,188.07C2977.41,1589.32,3040.92,1912.43,3033.63,2174.28Z"/><g class="cls-8"><path class="cls-9" d="M3306.75,1804q-.42,3.93-.87,7.86-.47,4.17-1,8.33-.54,4.46-1.12,8.91-1,7.38-2,14.72-.75,5.22-1.55,10.44-.92,5.94-1.88,11.86t-2,11.82a1.18,1.18,0,0,1,0,.2q-3,16.9-6.46,33.67c-.34,1.64-.69,3.29-1,4.93q-2.31,10.77-4.81,21.46l-.84,3.57c-.28,1.19-.57,2.37-.86,3.56-.39,1.61-.78,3.21-1.18,4.82l-.54,2.2c0,.14-.07.27-.1.41l-.18.7c-.31,1.27-.63,2.53-1,3.79-.21.84-.42,1.67-.64,2.51-.17.67-.34,1.34-.52,2-.53,2-1.07,4.11-1.62,6.16-.2.79-.41,1.59-.63,2.38l-.84,3.14-.09.31c-.42,1.57-.86,3.15-1.29,4.72-.12.43-.24.85-.35,1.28l-.45,1.58c-.09.33-.18.66-.26,1s-.12.41-.17.61c0,0,0,0,0,0l-.06.18v0c-.12.42-.24.83-.35,1.24,0,0,0,.11-.05.16a2.5,2.5,0,0,0-.07.26h0a1,1,0,0,0,0,.17l0,.08a.24.24,0,0,0,0,.08,4.77,4.77,0,0,0-.13.47c-.14.44-.26.89-.38,1.33l0,.1s0,0,0,0a0,0,0,0,0,0,0v.06a.19.19,0,0,0,0,.07v0a.09.09,0,0,0,0,0s0,0,0,0h0v0l0,.09,0,.11a.23.23,0,0,0,0,.11.65.65,0,0,0,0,.13c-.1.35-.21.7-.3,1,0,.13-.08.26-.11.39-.1.33-.2.65-.29,1l-.57,2v0a.74.74,0,0,0,0,.14,0,0,0,0,0,0,0v0h0v0h0v0l0,.1c-.44,1.52-.89,3-1.34,4.55-.24.81-.48,1.63-.73,2.44h0c-.15.53-.31,1.07-.48,1.6,0,0,0,0,0,.06s0,.09,0,.14h0c0,.08-.05.15-.07.23l0,0v0h0l0,.11,0,.11c0,.11-.06.22-.1.33l0,.05,0,0a.25.25,0,0,1,0,.07s0,0,0,.06l0,.05s0,0,0,0,0,0,0,.08a206042137002.87,206042137002.87,0,0,1-.08.24s0,0,0,.06a2.58,2.58,0,0,1-.08.26,1.54,1.54,0,0,1,0,.17s0,0,0,.08-.09.29-.13.43-.16.51-.23.76-.25.76-.36,1.15-.18.56-.26.84l0,.08-.21.68q-.69,2.24-1.41,4.47t-1.49,4.67q-3.54,10.92-7.42,21.89c-.47,1.33-.94,2.65-1.42,4q-.95,2.63-1.9,5.23-1.68,4.62-3.44,9.23l-1.77,4.61c-.94,2.43-1.89,4.85-2.85,7.28q-1,2.64-2.11,5.28c-.51,1.27-1,2.53-1.55,3.8q-3,7.5-6.28,15c-.06.16-.13.32-.2.47a861.92,861.92,0,0,1-46.13,91.61q-14.83,25.54-31.57,50.07l0,.05q-17,24.88-35.9,48.34c-.2.26-.41.51-.62.76h0l0,.06,0,0q-6.37,7.89-13,15.57l-.05.06q-11.91,13.86-24.51,27-20.31,21.2-42.37,40.28h0a536.91,536.91,0,0,1-76.91,55.62q-8.31,4.92-16.78,9.51-2.84,1.51-5.68,3l-3.26,1.69c-1.24.64-2.49,1.27-3.74,1.9-1.84.92-3.69,1.84-5.54,2.74l-3.38,1.63c-2.26,1.08-4.53,2.13-6.81,3.18l-3.43,1.55-4.6,2q-2.31,1-4.63,2l-4.07,1.69-2.66,1.07c-2,.81-4,1.59-6,2.36-1.23.48-2.45.94-3.68,1.4s-2.76,1-4.14,1.53-2.77,1-4.16,1.49c-2.78,1-5.57,1.94-8.37,2.86l-1.47.48-.86.28c-2.44.79-4.88,1.56-7.34,2.31.36-.82.72-1.65,1.07-2.47l.84-2s0,0,0-.05c.08-.17.15-.34.22-.51l.2-.48c.62-1.5,1.24-3,1.85-4.52q1-2.53,2-5.12c.33-.86.66-1.73,1-2.59q1-2.6,1.93-5.24.83-2.28,1.62-4.59c32-92.36,39.53-216.64,45.18-316.54q.28-4.92.55-9.77c.11-1.9.21-3.79.32-5.67q.32-5.64.63-11.14t.64-10.9q.21-3.42.37-6.81c.11-2.26.21-4.52.29-6.76q.16-4.5.27-8.94c3-129.25-36.63-231.34-95.22-341q-6-11.34-12.37-22.79-2-3.59-4-7.17-4.4-7.9-8.89-15.89-1.59-2.82-3.21-5.61c-.26-.45-.52-.91-.8-1.36q-1.09-1.92-2.24-3.82l-1.18-2q-1.56-2.62-3.17-5.24c-1.2-2-2.42-3.92-3.66-5.87s-2.47-3.89-3.73-5.81c-1.1-1.69-2.21-3.38-3.32-5-70.14-105.62-170.39-177.85-284.08-225.62-.18-.09-.36-.16-.54-.23C2348.61,1355,2181,1334,2026.38,1334.18c-156.69.22-301.9-21.89-443.72,53.94l-.11.06q-5,2.68-10,5.54c-100.8,57.35-194.18,143.11-275.42,228.73l-.08.08-.09.1-.08.09-.09.1-.08.09-.09.1-.08.09-.09.1q-14,14.82-27.57,29.57c-99.38,108.16-160.08,288.83-174.79,466.43,0,.2,0,.39,0,.58-1.8,21.81-2.91,43.57-3.28,65.14q-.09,4.22-.13,8.43c0,1.58,0,3.16,0,4.74s0,3.12,0,4.68,0,3,0,4.53c.22,46.8,3.83,92.45,11,135.52a626.77,626.77,0,0,0,22.6,93.49c.49,1.49,1,3,1.49,4.44.34,1,.69,2.05,1.05,3.07q1.11,3.21,2.25,6.38c.43,1.19.87,2.37,1.31,3.54.18.5.37,1,.56,1.49.1.29.21.58.32.87s.29.77.43,1.15l-3-1-.2-.07-.46-.15-.67-.23-2.79-.95c-.28-.1-.57-.19-.85-.3-.95-.32-1.9-.65-2.84-1l-2.31-.82-.57-.2-.67-.24-1.44-.53-.4-.15-4.82-1.76-4.89-1.84-4.24-1.64q-14.79-5.8-28.86-12.2-18.75-8.51-36.28-18.11-12.84-7-25-14.56h0l0,0-.54-.33h0q-18.12-11.25-34.85-23.67-2.22-1.64-4.43-3.3-3.66-2.78-7.26-5.62c-.36-.27-.73-.56-1.09-.85l0,0c-2.23-1.76-4.45-3.53-6.64-5.33l-.2-.16c-.52-.42-1-.85-1.54-1.28l-2.21-1.84-.5-.42-2.28-1.93q-7.07-6-13.84-12.15h0q-10.2-9.32-19.8-19.08-3.51-3.55-6.93-7.18a0,0,0,0,1,0,0c-32.67-34.54-60.06-73.11-82.75-114.76q-5.16-9.45-10-19.09c-22.66-45.25-40.1-93.83-53-144.58v0h0c0-.06,0-.12,0-.18q-4-15.55-7.37-31.37s0-.06,0-.08q-1.59-9.09-3-18.24a.77.77,0,0,1,0-.15c-4.8-31.42-7.89-63.37-9.69-95.69V1894c-2.05-17.38-3.34-34.9-4.05-52.52v0c-.76-19-.84-38.16-.45-57.37q.14,21.68.93,43.31.59-14.15,1.63-28.29v0c.68-68.71,5.26-138.38,10-207.59l1-15q.29-4.23.61-8.45s0-.1,0-.14c.23-3,.47-6,.73-9,0,.14,0,.28-.07.42a.57.57,0,0,0,0,.13q-3.4,23.05-6.2,46.48c2.56-26.18,5.6-52,9-77.43q.75-5.58,1.62-11.2s0-.1,0-.15v0q1.08-8.82,2.35-17.59a.22.22,0,0,1,0-.08,1077.8,1077.8,0,0,1,61.66-236.14h0a.42.42,0,0,0,0-.1h0c.06-.17.13-.32.19-.49q14.88-40.44,32.9-79.76l.2-.44q11.53-25.7,24.55-50a.41.41,0,0,1,.05-.09q25-47.86,55.18-94,3.32-5.74,6.72-11.43,13.21-19.35,27.21-38.13a1186.33,1186.33,0,0,1,133.4-150.45q38.36-36.57,79.86-69.75,30.3-24.24,62.13-46.58l.18-.13q6.3-4.58,12.66-9.08l0,0q7.14-5.07,14.37-10h0l7-3.93c191.4-107.14,418-211.3,641.62-213h.08A662.17,662.17,0,0,1,2064,500c61.95,13.25,123.48,25.2,184.09,38.07h0c25.35,5.39,50.53,10.94,75.52,16.82l4.56,1.08.1,0c101.63,24.09,199.9,53.79,292.23,100.18,0,0,0,0,0,0a828.39,828.39,0,0,1,139.07,87.62l.12.09.47.37q8.22,6.44,16.34,13.14,65.54,54.17,129.08,112.24,30,27.38,59.23,55.45,4.46,4.26,8.9,8.57,9.48,9.15,18.87,18.38,39.29,38.52,77,78l1.47,1.54q20.66,21.67,39.46,44.77l0,0c64.85,79.47,113.62,170.83,147,268.33a997.75,997.75,0,0,1,30,107s0,.06,0,.09q9.67,43.56,15.62,88a.77.77,0,0,1,0,.15q4.85,36,7.25,72.37v.05A1117.36,1117.36,0,0,1,3306.75,1804Z"/></g><g class="cls-10"><path d="M1343.2,667.19A590.44,590.44,0,0,0,1286,727.28c-9.89,11.87-19.3,24-28.38,36.21-22.59,30.46-43.22,61.92-64.44,93.6-20.56,30.69-41.68,61.58-65.71,92h0q-8,10.11-16.43,20.13-3.37,4-6.59,8c-41.22,51.55-65.09,108.17-80.92,167.42q-1.51,5.67-2.93,11.36c-11.08,44.45-18,90.27-24.67,136.48h0c-4,27.46-7.82,55-12.39,82.57-1.87,11.24-3.85,22.47-6,33.66v0c-4.74,24.57-10.32,49-17.33,73.16-44.53,153.5-61.18,265.45-39.71,412.19,3.58,24.49,8.23,50,14,76.75q2.6,12.06,4.78,24.2h0q2,10.8,3.65,21.63C949.14,2056.63,953,2097,957.32,2137q1.68,15.83,3.5,31.57,1.32,11.33,2.79,22.59h0q1.86,14.27,4,28.39h0c2.62,16.9,5.67,33.63,9.35,50.17,9.16,41.13,22.26,81,42.68,118.71q4.23,7.83,8.91,15.54,3.71,6.11,7.69,12.14l.09.13h0c.35.53.7,1.05,1.06,1.57h0l.7,1c.08.1.14.22.22.32s0,0,0,0c-1.52-.78-3-1.57-4.54-2.37a451.3,451.3,0,0,1-63.28-40.66l-1.12-.86h0l-.06,0-.05,0-2.89-2.25-.33-.26q-5.58-4.36-11-8.89l-.38-.31q-6-5-11.85-10.16h0a586.78,586.78,0,0,1-47.93-47.62q-11.88-13.18-23.09-27a1.13,1.13,0,0,0-.1-.13q-2.56-3.17-5.11-6.36a0,0,0,0,1,0,0,.39.39,0,0,1-.08-.1c-1.32-1.67-2.64-3.35-3.94-5l-.1-.12q-1.7-2.37-3.35-4.76l0,0a543.52,543.52,0,0,1-57.8-100.65v0l0-.06s0,0,0,0h0c-21.62-48.94-36.07-100.23-45.36-153.11,0,0,0-.06,0-.08q-1.59-9.09-3-18.24a.77.77,0,0,1,0-.15c-4.8-31.42-7.89-63.37-9.69-95.69V1894c-2.05-17.38-3.34-34.9-4.05-52.52v0c-.76-19-.84-38.16-.45-57.37q.14,21.68.93,43.31.59-14.15,1.63-28.29v0c.68-68.71,5.26-138.38,10-207.59l1-15q.29-4.23.61-8.45s0-.1,0-.14q.82-7.61,1.64-15.16v0q.75-6.95,1.51-13.84,1.64-15,3.26-29.77v0c.36-3.21.7-6.39,1.05-9.58a.22.22,0,0,1,0-.08,1077.8,1077.8,0,0,1,61.66-236.14h0a.42.42,0,0,0,0-.1h0c.06-.17.13-.32.19-.49q14.88-40.44,32.9-79.76l.2-.44q11.53-25.7,24.55-50a.41.41,0,0,1,.05-.09q25-47.86,55.18-94,3.32-5.74,6.72-11.43,13.21-19.35,27.21-38.13a1186.33,1186.33,0,0,1,133.4-150.45q38.36-36.57,79.86-69.75,30.3-24.24,62.13-46.58l.18-.13q6.3-4.58,12.66-9.08l0,0c1.24-.74,2.48-1.5,3.73-2.22A881,881,0,0,1,1343.2,667.19Z"/></g><g class="cls-10"><path d="M3169.88,2215.83c-48.11,76.52-115.55,143.41-190.52,193.55,109.36-137.43,126-320.42,184.34-482.23,62.44-173.27,9.54-320.1-36-491.18-21.38-80.31-7.07-164.52-29.85-242.6-21.72-74.45-80.48-142-133.7-196-55.32-56.17-118.37-104.12-175.82-158-66.78-62.64-118.05-142-187.68-200.91,143.53,74.33,258.27,191.61,375.15,300.87,115.75,108.19,224.78,221.42,276.48,374.63C3349.23,1601.24,3332.93,1956.45,3169.88,2215.83Z"/></g><path class="cls-11" d="M3306.75,1804q-.42,3.93-.87,7.86-.47,4.17-1,8.33-.54,4.46-1.12,8.91-1,7.38-2,14.72-.75,5.22-1.55,10.44-.92,5.94-1.88,11.86t-2,11.82a1.18,1.18,0,0,1,0,.2q-3,16.92-6.46,33.67c-.34,1.64-.69,3.29-1,4.93q-2.3,10.77-4.81,21.46l-.84,3.57c-.28,1.19-.57,2.37-.86,3.56-.39,1.61-.78,3.21-1.18,4.82l-.54,2.2c0,.14-.07.27-.1.41l-.18.7c-.31,1.27-.63,2.53-1,3.79-.21.84-.42,1.67-.64,2.51-.17.67-.34,1.34-.52,2-.53,2-1.07,4.11-1.62,6.16-.2.79-.41,1.59-.63,2.38q-.45,1.73-.93,3.45c-.42,1.57-.86,3.15-1.29,4.72-.26,1-.53,1.91-.8,2.86l-.51,1.82v0c-.12.42-.24.83-.35,1.24,0,0,0,.11-.05.16a2.5,2.5,0,0,0-.07.26h0l-.07.25a.24.24,0,0,0,0,.08,4.77,4.77,0,0,0-.13.47c-.14.44-.26.89-.38,1.33l0,.1s0,0,0,0a0,0,0,0,0,0,0v.06a.19.19,0,0,0,0,.07v0a.09.09,0,0,0,0,0s0,0,0,0h0v0l0,.09,0,.11a.23.23,0,0,0,0,.11.65.65,0,0,0,0,.13c-.1.35-.21.7-.3,1,0,.13-.08.26-.11.39-.1.33-.2.65-.29,1l-.57,2v0a.74.74,0,0,0,0,.14,0,0,0,0,0,0,0v0h0v.06l0,.1c-.44,1.52-.89,3-1.34,4.55-.24.81-.48,1.63-.73,2.44h0c-.15.53-.31,1.07-.48,1.6,0,0,0,0,0,.06s0,.09,0,.14h0c0,.08-.05.15-.07.23s0,0,0,.08,0,.08,0,.12l0,.11c0,.11-.06.22-.1.33l0,.05,0,0a.25.25,0,0,1,0,.07s0,0,0,.06l0,.05s0,0,0,0,0,0,0,.08a206042137002.87,206042137002.87,0,0,1-.08.24s0,0,0,.06a2.58,2.58,0,0,1-.08.26,1.54,1.54,0,0,1,0,.17s0,0,0,.08-.09.29-.13.43-.16.51-.23.76-.25.76-.36,1.15-.18.56-.26.84l0,.08-.21.68q-.69,2.24-1.41,4.47t-1.49,4.67q-3.54,10.92-7.42,21.89c-.47,1.33-.94,2.65-1.42,4q-.95,2.63-1.9,5.23-1.7,4.62-3.44,9.23l-1.77,4.61c-.94,2.43-1.89,4.85-2.85,7.28q-1,2.64-2.11,5.28c-.51,1.27-1,2.53-1.55,3.8q-2.34,5.7-4.78,11.39l-.27.63c-.09.24-.2.48-.3.72a863.49,863.49,0,0,1-45.8,91.66.05.05,0,0,1,0,0q-15.71,27.24-33.56,53.35-16.79,24.52-35.45,47.65c-1.27,1.58-2.55,3.16-3.84,4.72l-.12.15q-6.21,7.55-12.61,14.9-10.86,12.49-22.3,24.4h0q-19.83,20.65-41.33,39.31a537.23,537.23,0,0,1-77.35,56,0,0,0,0,0,0,0q-8.25,4.89-16.68,9.48-2.84,1.51-5.68,3l-3.26,1.69c-1.24.64-2.49,1.27-3.74,1.9-1.84.92-3.69,1.84-5.54,2.74l-3.38,1.63c-2.26,1.08-4.53,2.13-6.81,3.18l-3.43,1.55-4.6,2q-2.31,1-4.63,2l-4.07,1.69-2.66,1.07c-2,.81-4,1.59-6,2.36-1.23.48-2.45.94-3.68,1.4s-2.76,1-4.14,1.53-2.77,1-4.16,1.49c-2.78,1-5.57,1.94-8.37,2.86l-1.47.48-.86.28c-2.44.79-4.88,1.56-7.34,2.31.36-.82.72-1.65,1.07-2.47l.84-2s0,0,0-.05c.08-.17.15-.34.22-.51l.2-.48c.62-1.5,1.24-3,1.85-4.52q1-2.53,2-5.12c.34-.86.67-1.72,1-2.59q1-2.6,1.93-5.24.83-2.28,1.62-4.59c32.4-93,39.59-216.39,45.18-316.54q.28-4.92.55-9.77c.11-1.9.21-3.79.32-5.67q.32-5.64.63-11.14t.64-10.9q.21-3.42.37-6.81c.11-2.26.21-4.52.29-6.76q.16-4.5.27-8.94c2.91-128.83-36.73-231.37-95.22-341q-6.06-11.34-12.37-22.79-2-3.59-4-7.17-4.4-7.9-8.89-15.89-1.59-2.82-3.21-5.61c-.26-.45-.52-.91-.8-1.36q-1.09-1.92-2.24-3.82l-1.18-2q-1.56-2.62-3.17-5.24c-1.2-2-2.42-3.92-3.66-5.87s-2.47-3.89-3.73-5.81c-1.1-1.69-2.21-3.38-3.32-5-69.64-104.52-170.18-177.23-284.08-225.62-.18-.09-.36-.16-.54-.23q-22.47-9.54-45.58-17.82c-.92-.34-1.84-.66-2.77-1-1.66-.59-3.33-1.18-5-1.75l-.75-.26a1005,1005,0,0,0-116.23-32.61c-.74-.17-1.47-.33-2.21-.48-91.17-19.78-185-28.16-274.42-28.24-117.12-.1-237.08-15.47-349.86,10.18-.78.18-1.56.35-2.33.54l-3.51.84q-1.75.42-3.51.87c-1.17.29-2.34.58-3.51.89s-2.33.6-3.49.92a413.16,413.16,0,0,0-62.16,21.7l-.29.13-.12,0q-12.51,5.54-24.85,12.08-5.52,2.92-11,6l-.11.06c-112.86,62.61-208.5,156.66-298.12,248.51-103.93,106.5-169.18,284.13-188.15,461.36,0,0,0,.09,0,.14-3.11,29-5,58-5.56,86.73q-.09,4.22-.13,8.43c0,1.58,0,3.16,0,4.74s0,3.12,0,4.68,0,3,0,4.53a840.22,840.22,0,0,0,10.83,135.24h0a626.86,626.86,0,0,0,22.74,93.76c.49,1.49,1,3,1.49,4.44.34,1,.69,2.05,1.05,3.07q1.11,3.21,2.25,6.38c.43,1.19.87,2.37,1.31,3.54.18.5.37,1,.56,1.49.1.29.21.58.32.87s.29.77.43,1.15l-3-1-.2-.07-.46-.15-.67-.23-2.79-.95c-.28-.1-.57-.19-.85-.3-.95-.32-1.9-.65-2.84-1l-2.31-.82-.57-.2-.67-.24-1.44-.53-.4-.15-.85-.3-.84-.3-.38-.14q-21-7.54-40.89-16.27-17.9-7.87-35-16.82h0c-4.16-2.18-8.32-4.42-12.41-6.71h0l0,0,0,0-.05,0q-14.26-8-28-16.86l-.2-.13-.12-.07a.05.05,0,0,1,0,0q-5.56-3.6-11-7.36l-1.39-1q-5.29-3.68-10.49-7.48l-.19-.14-.09-.06-2.7-2c-1.48-1.11-3-2.22-4.43-3.35a0,0,0,0,1,0,0,3.18,3.18,0,0,1-.37-.27q-5.45-4.15-10.79-8.48l-.38-.31q-5.52-4.47-10.94-9.14l0,0q-12.36-10.64-24.26-22.32-15.82-15.55-29.91-31.7s0,0,0,0Q883,2292.92,877,2285.4a.79.79,0,0,1-.12-.15q-5.28-6.48-10.27-13a0,0,0,0,1,0,0,.39.39,0,0,1-.08-.1q-3.76-4.93-7.39-9.92l0,0a543.52,543.52,0,0,1-57.8-100.65v0l0-.06s0,0,0,0h0c-21.62-48.94-36.07-100.23-45.36-153.11,0,0,0-.06,0-.08q-1.59-9.09-3-18.24a.77.77,0,0,1,0-.15c-4.8-31.42-7.89-63.37-9.69-95.69V1894q-.5-8.73-.84-17.52c0-.07,0-.13,0-.2-1.06-25.54-1.36-51.29-1.09-77.19v0c.68-68.71,5.26-138.38,10-207.59l1-15q.29-4.23.61-8.45s0-.1,0-.14c.23-3,.47-6,.73-9v0c0-.18,0-.36,0-.54h0q1.76-20.61,4.31-41s0-.1,0-.15v0q1.08-8.82,2.35-17.59a.22.22,0,0,1,0-.08,1077.8,1077.8,0,0,1,61.66-236.14h0a.42.42,0,0,0,0-.1h0c.06-.17.13-.32.19-.49q7.05-18.26,14.73-36.22l0-.07a1147,1147,0,0,1,70.93-138.88l0,0v0a.09.09,0,0,1,0-.06q9.39-15.69,19.28-31.07l0,0h0l0,0A1231.27,1231.27,0,0,1,1114.63,830h0q35-33.35,72.58-64,27.9-22.8,57.1-44l.18-.13q6.3-4.58,12.66-9.08l0,0q7.14-5.07,14.37-10h0c160.75-110.62,347.32-185.19,542.94-211l.2,0q17.77-2.34,35.66-4.14h.07q18.75-1.89,37.6-3.18c119.53-8.14,241.18,25.37,360.08,53.76h0c23.17,5.53,46.23,10.86,69.15,15.65l.13,0,.19,0q5.31,1.13,10.61,2.19l.1,0q12.14,2.44,24.2,4.65,11.68,2.13,23.23,4.43l.17,0,.48.1c47.62,9.51,93.39,21.38,137.81,37.09l1.36.48a753.91,753.91,0,0,1,86.66,36.93h0q18.2,9.16,36.14,19.53l.32.18.22.13.17.1,1.21.71c3.24,1.88,6.46,3.78,9.69,5.73,42,25.31,81.46,54.46,119.4,85.39,44.43,36.22,88.14,74.05,130.86,113.05a2.19,2.19,0,0,1,.23.21q32.59,29.73,64.39,60.34,4.46,4.26,8.9,8.57,8.34,8.09,16.63,16.21l.68.66q40,39.32,78.52,79.53l1.47,1.54.6.62q22.57,23.63,43,49l.06.08c66.06,81.94,115.05,176.43,147.81,277.16,0,0,0,0,0,0l.07.22a1002.64,1002.64,0,0,1,27.08,101.24q6.54,30.69,11.22,61.81l0,.19q6.93,46,9.88,92.51A1116,1116,0,0,1,3306.75,1804Z"/></g></svg>