<?xml version="1.0" encoding="UTF-8"?>
<svg viewBox="0 0 4e3 4e3" xmlns="http://www.w3.org/2000/svg">
<defs>
<style>.cls-1,.cls-8{opacity:0.1;}.cls-2{fill:#035883;}.cls-2,.cls-3,.cls-4,.cls-5,.cls-6,.cls-8,.cls-9{stroke:#000;stroke-miterlimit:10;}.cls-2,.cls-3,.cls-4,.cls-5,.cls-6,.cls-8{stroke-width:5.06px;}.cls-3{fill:#ffff02;}.cls-4{fill:#a81d24;}.cls-10,.cls-5{opacity:0.15;}.cls-6,.cls-9{fill:#ff9901;}.cls-7{opacity:0.2;}.cls-9{stroke-width:5px;}</style>
</defs>
<title>hat11</title>
<path class="cls-1" d="M2930.51,1569l-.17.12c-.18.13-.35.27-.54.39l-.08,0c-.27.17-.53.33-.8.48l-.06,0-.15.08-.07,0-.64.31-.12,0-.07,0-.11,0c-.19.08-.39.14-.58.2l-.29.11-.07,0c-.32.09-.63.17-1,.23a10.29,10.29,0,0,1-1.06.14h-.31c-.26,0-.51,0-.76,0h-.06c-.22,0-.43,0-.64-.06l-.36,0h0l-.38-.08c-.22,0-.45-.08-.66-.14l-.06,0-.33-.1h0c-.22-.07-.43-.13-.64-.21l-.05,0a12.83,12.83,0,0,1-1.37-.62l-.08,0-.62-.34-.09-.06-.28-.17-.07,0-.31-.21c-.24-.15-.47-.31-.71-.48l0,0-.63-.47-.08-.07c-.29-.23-.59-.47-.88-.73l-.12-.09-.08-.07-.27-.24-.1-.08-.55-.52-.55-.52c-.21-.22-.44-.43-.66-.66l-.15-.16c-.83-.86-1.67-1.8-2.53-2.81h0l-.08-.1c-.83-1-1.67-2-2.53-3.15l-.21-.27-.61-.81-.36-.48-.29-.39-.65-.88-.08-.12-.43-.58-.1-.14-.07-.11c-.37-.5-.74-1-1.11-1.54l-.08-.12-.08-.11c-1-1.45-2.07-3-3.15-4.55l-.05-.07,0-.06c-.36-.52-.71-1-1.08-1.58l-.25-.37-.12-.18-1-1.5c-.07-.09-.13-.19-.19-.28l-1.78-2.64-1.78-2.65-.08-.12-1.2-1.77c-.13-.21-.27-.41-.42-.62l-.51-.76c-4.15-6.13-8.76-12.81-14-19.86l-.18-.23c-.62-.84-1.26-1.68-1.9-2.53l-.29-.38-1.89-2.47-.33-.43-2-2.49-.27-.33c-2.86-3.61-5.88-7.29-9.1-11-.13-.16-.26-.32-.4-.47l-1.79-2-1-1.09-1.67-1.84-1.18-1.31q-.8-.87-1.62-1.74c-.44-.47-.88-1-1.33-1.42s-1.05-1.12-1.59-1.67-1-1-1.45-1.51l-1.59-1.62-1.56-1.57-1.59-1.58-1.68-1.63-1.57-1.51-1.85-1.74-1.51-1.41c-.69-.64-1.4-1.28-2.1-1.91l-1.37-1.24c-.94-.84-1.89-1.67-2.85-2.5l-.73-.65q-1.83-1.58-3.71-3.14l-1-.79c-.94-.79-1.9-1.57-2.86-2.35l-1.34-1.06-2.61-2.06-1.51-1.15c-.85-.65-1.7-1.3-2.57-2l-1.6-1.18c-.86-.64-1.73-1.27-2.61-1.91l-1.65-1.17-2.7-1.89-1.68-1.16-2.82-1.89-1.68-1.11c-1-.65-2-1.3-3-1.94l-1.62-1-3.31-2-1.44-.88c-1.31-.79-2.65-1.58-4-2.36l-.88-.52q-2.52-1.46-5.11-2.88l-3.39-1.86c-3.68-2-6.88-3.64-11-5.56l-1.36-.64c-3.54-1.65-7.38-3.31-11.67-5l-2-.77-.49-.19c-11.86-4.55-27.14-9.4-48.94-15.07L2701,1402l-1.62-.42c-45.79-11.69-119.14-26.85-246-49.71l-4.86-.87c-64.66-11.66-104.58-18.82-130-22.78-3.48-.54-6.69-1-9.65-1.45h.12l-.49-.07c-10.63-1.32-25.2-3.21-45.74-5.15-14.72-1.39-8.07-.53-165.74-6.14-126-4.48-186.19-6.88-218.49-8.2-33.44-1.36-37.06-1.57-53-1.73h-3l-4.66.09c-42.47,1.08-191,11-259.1,24.16-2.06.4-4.14.82-6.21,1.26l-1.26.26c-1.94.42-3.88.84-5.84,1.29l-.4.09c-2.11.48-4.23,1-6.36,1.5l-1.15.29q-2.77.67-5.56,1.4l-1,.25q-3.19.84-6.41,1.72l-.9.25q-2.82.78-5.65,1.6l-1.22.35c-2.16.63-4.32,1.28-6.5,1.94l-.3.09-6.16,1.92-1.33.42q-6.49,2.09-13,4.32l-1.34.46c-2,.69-4,1.38-6,2.09l-.63.22q-3.3,1.17-6.61,2.39l-1.23.45-5.7,2.12-1.11.42c-2.2.84-4.4,1.68-6.61,2.54l-1,.37c-1.92.75-3.85,1.51-5.77,2.28l-1.38.54c-2.21.89-4.43,1.78-6.65,2.69l-.3.12L1439,1368l-1.51.63-6.45,2.73-.12,0-6.65,2.87-1.52.66c-1.9.84-3.81,1.67-5.71,2.52l-1,.44c-2.19,1-4.38,2-6.57,3l-1.4.63-5.48,2.5-1.41.65-6.52,3-1.15.54-5.51,2.6-1.66.79q-3.25,1.53-6.49,3.09l-.54.27-6,2.9-1.75.85-5.77,2.83-.77.38-6.36,3.16-1.81.9-5.12,2.57-1.47.74-6.22,3.16-1.76.9-4.82,2.47-1.87,1-6.09,3.15-1.56.81-4.82,2.52-2.08,1.09-5.63,3-1.58.83-5,2.64-2.25,1.19-4.43,2.37-1.81,1-5.65,3-2.43,1.31-3.81,2.06-2.36,1.27-5.37,2.92-2.68,1.46-3.24,1.77-2.88,1.57-3.69,2-4.45,2.43-2.52,1.39-3.42,1.89-1.64.9c-27.87,15.36-54.24,30.16-78.27,43.2l-.2.11c-1.84,1-3.68,2-5.5,3l-.14.08-5.55,3-.12.06-5.07,2.71-.62.33q-5.14,2.73-10.11,5.31l-.79.42q-4.89,2.54-9.61,4.93l-.85.43-4.25,2.14-.39.19-4.53,2.24-.28.14-.73.36-.65.31-1.45.71-.37.18-1.23.59-.55.26-1.26.61-.43.2-1.32.63-.4.19-1.23.58-.49.23-1.32.61-.32.15-1.12.52-.65.3-1.26.58-.27.12-.89.4-1,.47-1.08.48-.22.1h0c-.88.4-1.76.78-2.63,1.16l-.32.14-3.12,1.35-1,.39-1.12.47-.77.32-.21.09-1.15.47-.61.25-1,.41-.21.08c-.4.17-.81.32-1.21.48l-.43.17-1,.4-.26.1-1.21.46-.32.12-1,.38-.33.12-1.16.43-.21.08-1.09.39-.35.12-1.09.39-.2.06-1,.35-.49.16-.1,0c131.18-375.41,489.6-697.26,912.71-727,319.41-22.45,464.56,50.1,499.6,20.46C2542.64,803.15,2376,763,2353.81,699.51,2327,623,2749.4,826.61,2685.38,960.59c-5,10.51-55.44,94-417.61-23.77C2585.94,1040.05,2841.42,1235.76,2930.51,1569Z"/>
<path class="cls-2" d="m3001.5 1136.6c-47.94-0.61-77.55-48.71-86.63-63.46-16.22-26.35-14.95-41.94-25.81-77.43 0 0-14.49-47.34-58.07-114.52-32.66-50.36-79.88-85.19-173-152.82-143.54-104.25-213.49-127.38-265.5-138-10.74-2.18-18.91-3.52-23.83-4.34-16-2.69-272.2-43.09-356.32 94.89-57.62 94.59-16.36 225.73-12.36 237.67 27 82.26 76.61 115.3 60.29 162.47-5.38 15.55-20.11 39-107.93 71.34-132.15 48.75-196.67 77.18-245.62 49.45-62-35.14-34.49-120-74.13-320.44-43.64-220.61-102.48-246.83-89.15-349.89 10.39-80.33 63-194.95 273.81-317.74 116.14-67.66 225.77-74.08 280.85-78.1 32.68-2.39 188.81-11.61 368.34 66.15 148.69 64.42 236.55 155.21 297.7 218.39a917.07 917.07 0 0 1 133.4 176.26c6.51 11.21 11 19.65 20.12 36.53 29.1 54.14 80.62 154.3 134.37 299.79 37.12 100.48 41.69 131.58 25.72 159.21-14.84 25.58-45.38 44.98-76.25 44.59z"/>
<path class="cls-1" d="m3080.4 1086.8c-5.51-21.17-14.6-48.18-27.84-84-53.75-145.49-105.27-245.65-134.37-299.81-9.07-16.88-13.61-25.32-20.12-36.53a917.07 917.07 0 0 0-133.4-176.26c-61.15-63.18-149-154-297.7-218.39-179.52-77.77-335.65-68.54-368.34-66.15-55.07 4-164.71 10.44-280.85 78.1-205.41 119.67-260.63 231.57-272.93 311.53-3.76-19.35-4.64-39.42-1.49-63.77 10.39-80.33 63-194.95 273.81-317.74 116.14-67.66 225.78-74.07 280.85-78.1 32.69-2.38 188.81-11.61 368.34 66.15 148.69 64.42 236.55 155.21 297.7 218.4a916.75 916.75 0 0 1 133.4 176.25c6.51 11.21 11 19.65 20.12 36.53 29.1 54.14 80.62 154.31 134.37 299.8 34.81 94.18 41 127.43 28.45 153.99z"/>
<path class="cls-3" d="m3153.3 871.55c-48.73-15.55-54.45-69.37-95.74-124.31-16.16-21.51-85.77-109.14-184.29-113.84-53.68-2.55-130.16 18.82-157.8 73.44a73.31 73.31 0 0 0-6.49 17.76c-16.2 75.33 22.57 159.85 50.59 214.27 59.63 115.8 90 173.42 110.46 217.19 53.7 114.74 65 164.23 70.09 204.3 9.63 76.22 1.37 156.59-20.09 160.79-23 4.51-39.45-82.55-139.91-139.52-5.61-3.18-9.41-5.26-15.28-8.06-32.38-15.47-89.49-31.92-304.32-71.73-84.5-15.66-126.75-23.45-149.57-26.35-78.85-10-148.76-12.9-277.45-17.89-58.69-2.28-71.83-1.74-95.07-3.21-85.48-5.4-398.47-25.17-405-90.73-7.07-70.56 341.7-185.1 404.43-310.31a879 879 0 0 0 36.46-83.3c23.07-64 22-95.93 73.7-191.21 124.8-230.19 273.8-317.74 273.8-317.74 180-104.59 363.94-78.8 416.82-69.35 152.72 27.28 254.78 104.43 297.5 140.89 99.45 84.88 144.49 177.1 167.57 226 29 61.39 107.44 227.74 44.5 291.52-23.48 23.78-64.39 31.13-94.91 21.39z"/>
<path class="cls-4" d="M804.64,873c48.46-16.4,53.24-70.31,93.56-126,63.23-87.29,164-112.31,182.27-117,13.22-3.41,188.81-46,283.54,63.8,61.89,71.76,53.14,166.71,50.17,198.85-8.56,92.88-53,147.51-124.51,252.74-105.85,155.76-219.48,323-192.75,350.92,35,36.6,299-177.9,493.4-216.56,71.1-14.14,232.59-24.53,259.45-24.25,30.54.32,14.64.81,264.09,9.93,153.36,5.61,146.89,4.75,161.21,6.14,57.74,5.61,67,10.79,75.23,3.07,32.33-30.29-52.22-161.88-184.28-395.2C2015.1,612.74,2034.07,623,1982.5,555.2c-81.88-107.69-179.47-236-357.12-307.1-181.87-72.76-345.72-44.84-419-32.18-84.83,14.66-190.79,33-294,116.17C817.47,408.63,777.28,497.84,748.82,561c-27.89,61.89-103.45,229.58-39.41,292.25C733.27,876.59,774.29,883.23,804.64,873Z"/>
<path class="cls-5" d="m1286.3 205.22c-84.83 14.66-190.79 33-294 116.17-94.94 76.55-135.14 165.75-163.6 228.92-27.89 61.89-103.45 229.59-39.4 292.25 9.57 9.37 21.92 16.05 35.23 20a71 71 0 0 1-19.91 10.44c-30.34 10.27-71.37 3.64-95.22-19.7-64-62.67 11.51-230.36 39.4-292.25 28.46-63.17 68.66-152.38 163.6-228.92 103.2-83.19 209.16-101.51 294-116.17 22.54-3.89 53.64-9.23 91.21-12.64z"/>
<ellipse class="cls-6" transform="translate(-8.24 6.53) rotate(-.5)" cx="744.7" cy="948.05" rx="131.05" ry="107.47"/>
<path class="cls-7" d="m775.59 1052.4a159.2 159.2 0 0 1-30 3.09c-72.38 0.63-131.47-47-132-106.33s57.74-108 130.11-108.61a159.05 159.05 0 0 1 30 2.57c-57.7 11.62-100.5 54.63-100.05 105.52s43.94 93.13 101.94 103.76z"/>
<path class="cls-8" d="m3248.1 850.19c-16.4 16.62-41.35 25.21-65.32 25.52a68.5 68.5 0 0 0 5.5-5c62.94-63.77-15.54-230.12-44.5-291.52-23.08-48.93-68.12-141.15-167.57-226-42.72-36.46-144.78-113.62-297.5-140.9-39.86-7.12-154.18-23.53-285.17 13.63 154.86-62.81 299.15-42.34 345-34.15 152.73 27.28 254.78 104.43 297.5 140.89 99.45 84.88 144.49 177.1 167.57 226 28.96 61.4 107.43 227.75 44.49 291.53z"/>
<ellipse class="cls-6" transform="translate(-109.77 619.08) rotate(-10.72)" cx="3245.1" cy="894.65" rx="131.05" ry="107.47"/>
<path class="cls-7" d="m3314.2 982.19a155.54 155.54 0 0 1-49 18.06c-71.12 13.46-137.72-22.9-148.76-81.23s37.67-116.51 108.78-130a161.5 161.5 0 0 1 20.8-2.55c-42.89 24.82-68 68.33-59.76 111.91 9.93 52.62 65.06 87.36 127.94 83.81z"/>
<ellipse class="cls-9" transform="translate(-149.61 581.51) rotate(-10.72)" cx="3025" cy="1088.3" rx="129.45" ry="119.06"/>
<path class="cls-7" d="m3076.3 1196.4a140.12 140.12 0 0 1-29.23 8.89c-70.25 13.3-137.11-28.3-149.33-92.91s34.8-127.75 105.05-141a139.6 139.6 0 0 1 40.68-1.72c-53.51 22.91-86.26 77-75.82 132.16 9.81 51.85 54.88 88.9 108.65 94.58z"/>
<path class="cls-1" d="M2942.85,1456s0,.11,0,.17c-.07.95-.15,1.89-.23,2.83a.45.45,0,0,0,0,.11q-.27,3-.57,5.81v0c-.09.88-.19,1.76-.29,2.62l-.06.47-.27,2.25-.06.45c-.11.86-.23,1.71-.34,2.55a0,0,0,0,1,0,0c-.12.89-.25,1.78-.38,2.65l0,.18c-.11.76-.23,1.51-.35,2.26l-.09.58c-.11.62-.21,1.24-.32,1.86,0,.2-.07.41-.1.61q-.18,1-.36,2c0,.13,0,.26-.07.39-.15.79-.3,1.57-.46,2.34l0,.14c-.14.69-.28,1.38-.43,2,0,.2-.08.39-.13.58-.12.54-.23,1.07-.36,1.59,0,.21-.09.43-.14.64l-.39,1.58-.12.5c-.35,1.37-.71,2.7-1.08,4,0,.17-.1.34-.14.51l-.42,1.38-.18.57c-.14.45-.29.9-.43,1.33l-.16.49c-.4,1.18-.81,2.31-1.23,3.4l-.16.39c-.16.41-.32.81-.49,1.2-.06.16-.13.32-.2.47-.16.37-.32.74-.48,1.09-.06.14-.12.29-.19.43q-.3.65-.6,1.26l-.08.15c-.23.47-.47.92-.71,1.37l-.15.26-.57,1c-.07.12-.14.24-.22.36-.17.29-.35.58-.53.85l-.22.34c-.21.31-.41.6-.62.89-.05.06-.09.13-.14.2-.26.35-.52.69-.79,1l-.12.14c-.22.27-.44.52-.67.77l-.24.25c-.19.21-.39.4-.58.59l-.26.24c-.21.2-.42.38-.63.55l-.21.17c-.28.23-.56.44-.85.64l-.08,0q-.39.26-.78.48l-.27.14-.62.31-.3.13c-.21.09-.43.16-.64.23l-.27.1c-.31.09-.61.17-.92.23a9.59,9.59,0,0,1-1,.14h-.3c-.25,0-.49,0-.74,0l-.36,0a5.08,5.08,0,0,1-.67-.07l-.39-.08c-.21,0-.43-.08-.64-.14l-.4-.13c-.21-.07-.42-.13-.62-.21l-.42-.18-.61-.28-.43-.22-.6-.34-.43-.27-.6-.41-.44-.31-.61-.47c-.14-.12-.29-.23-.43-.36l-.62-.53-.44-.39-.62-.6-.44-.43-.65-.67-.42-.45c-.23-.25-.47-.51-.7-.78l-.39-.44c-.27-.3-.53-.62-.8-1l-.31-.36c-.36-.44-.74-.91-1.11-1.39l-.33-.43-.81-1.05-.49-.65c-.22-.3-.45-.6-.67-.91s-.37-.52-.56-.77l-.63-.88-.59-.84-.62-.89-.61-.88-.63-.93c-.22-.31-.43-.63-.64-.94s-.42-.61-.62-.92l-.69-1c-.2-.3-.4-.61-.61-.91l-.72-1.09-.61-.92-.79-1.21-.5-.75-3.32-5.08-.22-.33-1.16-1.77c-.13-.21-.27-.41-.41-.62l-1.1-1.68-.49-.74-1.25-1.88-.36-.55c-19.5-29.25-49.32-69.39-104.25-100.54-5.6-3.18-9.41-5.26-15.28-8.06-32.38-15.47-89.49-31.92-304.32-71.73-74.44-13.8-116.1-21.49-140.56-25.1,19.25,2.45,25,2.88,30.38-2.13,5.06-4.74,7.25-11.95,6.85-21.64,24.53,4.33,57.71,10.46,103.07,18.87,214.83,39.81,271.94,56.26,304.32,71.73,5.87,2.81,9.67,4.88,15.28,8.06,55,31.2,84.84,71.42,104.34,100.69a506.61,506.61,0,0,0-3.9-71.43c-5.06-40.07-16.39-89.57-70.1-204.31-20.48-43.76-50.82-101.39-110.45-217.19-28-54.42-66.79-138.94-50.59-214.26a72.74,72.74,0,0,1,6.49-17.76c20.17-39.87,66.35-62,110.7-70.08-21.6,11.75-40,28.08-50.87,49.55a72.93,72.93,0,0,0-6.5,17.76c-16.2,75.33,22.57,159.85,50.6,214.27,59.63,115.8,90,173.42,110.45,217.19,53.7,114.74,65,164.23,70.1,204.3,1.85,14.65,3,29.45,3.6,43.83A444.55,444.55,0,0,1,2942.85,1456Z"/>
<path class="cls-10" d="M2356.47,1245.85a19.23,19.23,0,0,1-3.95,5.23c-8.35,7.83-17.75,2.58-76.36-3.11-14.53-1.42-8-.54-163.63-6.24-253.21-9.26-237.07-9.76-268.06-10.08-27.27-.29-191.19,10.26-263.36,24.61-132.92,26.43-297.86,133.83-402.25,189.79,23.08-64.7,109.19-191.45,190.72-311.39,71.51-105.23,116-159.87,124.52-252.75,3-32.14,11.71-127.09-50.18-198.84-94.59-109.67-269.83-67.33-283.47-63.82,62.37-2.19,147.25,9.23,203.56,74.51,61.89,71.76,53.14,166.71,50.18,198.85-8.56,92.88-53,147.52-124.52,252.74-93.08,137-192.16,282.77-196.53,335h0c0,.26,0,.5,0,.76,0,.53-.08,1.06-.09,1.57s0,.78,0,1.16,0,.88,0,1.31,0,.81.09,1.21.05.74.09,1.09.13.82.2,1.22.1.62.17.92.21.79.32,1.18.15.53.23.78.3.75.46,1.11.18.45.29.67c.19.37.41.72.63,1.06a5.48,5.48,0,0,0,.31.52,11.62,11.62,0,0,0,1.13,1.39,10.52,10.52,0,0,0,.92.85c.11.1.23.18.34.27l.67.49.44.27c.22.13.44.26.67.38l.5.25.7.31.54.21.75.25.58.17.82.2.6.12c.3.06.61.11.92.15l.58.08c.37,0,.76.08,1.14.1l.44,0c.55,0,1.11,0,1.68,0h.36c.46,0,.92,0,1.4,0l.65,0,1.2-.1.75-.08,1.19-.14.82-.12,1.2-.19.86-.16,1.27-.24.86-.18,1.36-.31.85-.2,1.53-.4.75-.19,2.06-.59.3-.08c.8-.24,1.62-.49,2.45-.76l.69-.22,1.83-.6,1-.33,1.64-.57,1.06-.39,1.61-.59,1.13-.43,1.61-.62,1.18-.46,1.66-.67,1.18-.48,1.78-.74,1.12-.47c.68-.28,1.36-.58,2-.88l.92-.4c1-.43,2-.88,3-1.34l.31-.14,2.8-1.27,1-.48,2.13-1,1.23-.57,2-1,1.28-.62,2.06-1,1.29-.63,2.17-1.07,1.2-.59,2.4-1.2.72-.36h0c100.6-50.67,276.93-170,417.11-197.83,71.11-14.14,232.59-24.53,259.45-24.25,30.54.32,14.64.81,264.09,9.93,153.36,5.61,146.89,4.75,161.21,6.14,57.74,5.61,67,10.79,75.23,3.08C2356.52,1268.78,2358.42,1259.19,2356.47,1245.85Z"/>
</svg>
