<?xml version="1.0" encoding="UTF-8"?>
<svg viewBox="0 0 4e3 4e3" xmlns="http://www.w3.org/2000/svg">
<defs>
<style>.cls-1{fill:#46a341;}.cls-2{fill:#333;}.cls-3{fill:#4ab247;}.cls-4{fill:#3f8e39;}.cls-5{fill:#41933b;}.cls-12,.cls-6,.cls-7{stroke:#000;}.cls-11,.cls-6,.cls-7,.cls-8{stroke-miterlimit:10;}.cls-6,.cls-7{stroke-width:5.1px;}.cls-12,.cls-6{opacity:0.15;}.cls-7{opacity:0.1;}.cls-8{fill:#4cbf4b;}.cls-11,.cls-8{stroke:#333;}.cls-12,.cls-8{stroke-width:5px;}.cls-9{fill:#fbdd11;}.cls-10{opacity:0.2;}.cls-11{fill:none;stroke-width:4.08px;}.cls-12{stroke-linecap:round;stroke-linejoin:round;}</style>
</defs>
<title>hat12</title>
<path class="cls-1" d="m1244.4 1143.8c-29.31 0-56.89-8-75.09-14-20.92-6.9-40-11.13-55.25-14.53-20.06-4.45-31.11-6.9-33.17-12a5.21 5.21 0 0 1 0.78-5c49-73.25 66-81.43 107-101.18 3.55-1.72 7.29-3.52 11.25-5.46 40.79-20 87.1-22.15 105.11-22.15a160.85 160.85 0 0 1 20.41 1.05c30.21 4 49.41 14.55 57.08 31.35 8.32 18.23 2.32 43-17.82 73.55-29.92 45.41-70.38 68.44-120.25 68.44z"/>
<path class="cls-2" d="M1305,971.11a164.7,164.7,0,0,1,20.18,1c15.95,2.12,97,12.86,38.06,102.27-34.75,52.76-78.56,67.67-118.83,67.67-28,0-54.23-7.2-74.56-13.91-52.27-17.25-94-18.12-86.75-29,53-79.2,68-81.77,117.54-106.06,36.7-18,78.61-22,104.36-22m0-3.41c-18.13,0-64.75,2.18-105.86,22.33-3.95,1.94-7.66,3.72-11.24,5.45-41.28,19.9-58.36,28.13-107.64,101.77a6.85,6.85,0,0,0-.94,6.61c2.39,6,13.08,8.35,34.39,13.08,15.25,3.39,34.24,7.6,55.07,14.48,18.31,6,46.08,14.08,75.63,14.08,50.49,0,91.43-23.28,121.68-69.2,20.49-31.1,26.53-56.4,18-75.2-5.13-11.23-15.3-19.85-30.24-25.63-11.69-4.52-23.24-6.05-28.17-6.7A170,170,0,0,0,1305,967.7Z"/>
<path class="cls-3" d="M1380.67,1028.29c-2.1,0-4.38-.06-6.78-.19-31-1.57-47.6-13.93-66.79-28.24-7.48-5.58-15.21-11.35-24.39-16.91-21.72-13.19-62.94-41.55-95-83.39-13.67-17.84-19.84-59.24-21.85-76.21-3.55-29.92-3.52-58,.08-65.28,1-2.11,2.38-2.56,3.31-2.56,1.32,0,2.54.85,3.73,2.59C1191.24,785,1195,790.55,1233.49,818c10.49,7.5,23.31,13.84,38.16,21.18,37.59,18.58,89.08,44,137.69,110.1,17.68,24,13.19,33.46,9.22,41.79-1.31,2.76-2.55,5.36-2.76,8.32-1.51,20.77-11.36,28.87-35.13,28.87Z"/>
<path class="cls-2" d="M1169.22,757.22c.69,0,1.46.59,2.32,1.84,18.59,27.31,22.68,33,61,60.36s108.61,40,175.47,130.9c23.24,31.57,7,36.6,6.13,49-1.48,20.28-11,27.28-33.43,27.28q-3.17,0-6.69-.18c-42.5-2.16-57.59-25-90.38-44.91-16.18-9.82-60.18-38.13-94.56-83-23.47-30.61-29.29-141.3-19.82-141.3m0-3.42c-1.16,0-3.34.46-4.84,3.52-4.29,8.69-3.37,39.9-.25,66.23,2,17.11,8.27,58.87,22.2,77.05,32.25,42.06,73.67,70.56,95.5,83.8,9.1,5.53,16.8,11.28,24.25,16.83,19.41,14.48,36.17,27,67.72,28.58,2.44.12,4.75.18,6.87.18,12.43,0,20.92-2.15,26.71-6.78,6.09-4.86,9.3-12.38,10.12-23.66.19-2.65,1.31-5,2.61-7.72,4-8.33,8.89-18.69-9.39-43.54-21.69-29.46-45.56-53.36-73-73-23.63-17-45.79-27.92-65.33-37.58-14.78-7.31-27.55-13.62-37.93-21-38.2-27.3-42-32.85-60.12-59.5-1.51-2.21-3.24-3.34-5.14-3.34Z"/>
<path class="cls-4" d="m1363.2 1074.4c-58.88 89.42-143.78 70.14-193.38 53.77-52.27-17.24-94-18.11-86.75-29 3-4.43 5.81-8.6 8.53-12.57 14 4.78 44.28 9 79.25 20.54 49.6 16.37 134.5 35.65 193.39-53.77 10.75-16.31 16.83-30 19.5-41.52 2.53 14.66-2.27 34.82-20.54 62.55z"/>
<path class="cls-1" d="m1374 1026.4c-42.52-2.15-57.6-25-90.4-44.91-16.16-9.82-60.15-38.12-94.55-83-25.17-32.86-30-157.89-17.5-139.47 3.41 5 6.35 9.3 9.08 13.13 0.62 35 8.43 91.11 24.09 111.52 34.39 44.85 78.38 73.16 94.54 83 32.8 19.89 47.89 42.77 90.4 44.91 9.29 0.47 16.73 0 22.54-1.58-4.41 13.54-15.95 17.52-38.2 16.4z"/>
<path class="cls-3" d="M1407.09,1107.54a2.69,2.69,0,0,1-.4,0c-4.83-.69-21.69-5.4-35.25-17.58-10.06-9-19-25.25-19.41-35.42-.89-19.38,16.76-31.62,25.24-37.5,1.57-1.09,2.94-2,3.73-2.71l.77-.65.94.35c1.45.55,35.61,13.59,45.06,27.71,4,6,2.37,17.29.26,25.66a136,136,0,0,1-11.13,28.85c-6,11.25-8.85,11.32-9.79,11.32Z"/>
<path class="cls-2" d="M1382.11,1015.6s35,13.23,44.24,27.06-13,63.17-19.26,63.17h-.16c-3.48-.49-20.49-4.7-34.35-17.16-10-9-18.43-25-18.85-34.23-1-22,23-34.29,28.38-38.83m-.68-3.91-1.54,1.31c-.73.62-2.06,1.54-3.59,2.61-8.74,6-26.91,18.65-26,39,.48,10.55,9.63,27.32,20,36.61,13.88,12.47,31.18,17.29,36.15,18a4.6,4.6,0,0,0,.64,0c2.37,0,5.56-1.46,11.33-12.24,7-13.12,18.86-44.13,10.76-56.25-9.74-14.57-44.4-27.8-45.87-28.35l-1.88-.72Z"/>
<path class="cls-1" d="m1406.9 1105.8c-3.48-0.49-20.5-4.7-34.35-17.14-10-9-18.42-25-18.84-34.24-1-22 23-34.28 28.38-38.82 0 0 4.48 1.69 10.65 4.51-8.64 6-25.15 17.58-24.33 35.89 0.42 9.23 8.82 25.23 18.84 34.24a75.06 75.06 0 0 0 22.59 13.66c-1.18 1.32-2.18 1.99-2.94 1.9z"/>
<path class="cls-1" d="M1444,1055.3a61.62,61.62,0,0,1-9-.71c-40.79-6.07-58.5-21.8-55.72-49.49,2.19-21.8,32.74-33.41,54-33.41a41.27,41.27,0,0,1,6.59.49c12.57,2.06,24.25,13.26,34.73,33.29a35.18,35.18,0,0,1-.92,34.72c-6.22,10-16.18,15.11-29.59,15.11Z"/>
<path class="cls-2" d="M1433.16,973.4a39.29,39.29,0,0,1,6.32.46c14.19,2.33,25.19,16.54,33.49,32.4a33.38,33.38,0,0,1-.86,33c-4.74,7.63-13.16,14.3-28.14,14.3a59.68,59.68,0,0,1-8.79-.69c-44-6.54-56.67-23.68-54.27-47.63,2.14-21.35,33.22-31.87,52.25-31.87m0-3.41a79.93,79.93,0,0,0-34,8.3c-13.07,6.65-20.55,15.86-21.63,26.64-2.89,28.8,15.27,45.11,57.16,51.35a63.55,63.55,0,0,0,9.29.73c13.85,0,24.58-5.51,31-15.92a36.92,36.92,0,0,0,1-36.42c-10.89-20.81-22.65-32-36-34.18a43.69,43.69,0,0,0-6.87-.5Z"/>
<path class="cls-5" d="m1457.8 1051.3c-5.75 2.2-13.12 3.07-22.57 1.65-44-6.55-56.66-23.7-54.28-47.65 2.06-20.45 30.65-31 49.79-31.81-16.39 4.18-33.16 14-34.73 29.48-2.37 24 10.33 41.1 54.28 47.64a61.81 61.81 0 0 0 7.51 0.69z"/>
<path class="cls-6" d="m2802.4 1294.6c-272.37 94.6-1403.3 62-1529.9-75.23a1151.9 1151.9 0 0 1 114.21-122.58 1119.7 1119.7 0 0 1 144.89-113.87q9.21-6.07 18.54-12a51.3 51.3 0 0 1 18.69 1.15c117.09 29.37 761.75 50.17 862.48 45.36a93.68 93.68 0 0 1 43.23 8.17c37.9 17.18 100.32 55.55 161.41 98.55a867.89 867.89 0 0 1 131.74 126.17q18.06 21.49 34.68 44.28z"/>
<path class="cls-7" d="m2774.8 1258.8c-263.5 94.52-1353.4 61.56-1471.3-76.3a1147.2 1147.2 0 0 1 83.27-85.73 1119.7 1119.7 0 0 1 144.89-113.87q9.21-6.07 18.54-12 13.13-8.28 26.51-16.19 3.3-1.95 6.62-3.88 10.13-5.89 20.4-11.56c132.74 25.63 639.32 43.93 787 42.78q24.57 10.5 48.45 21.88 5.84 2.78 11.62 5.63 33.06 16.19 64.64 34.19a1019.5 1019.5 0 0 1 120.55 80.42 867.89 867.89 0 0 1 131.74 126.17q3.56 4.2 7.03 8.46z"/>
<path class="cls-8" d="m2784 1260.3a9.64 9.64 0 0 1-5.41 13.08c-262.35 98.43-1406.8 62.11-1481.6-84.4-7.87-15.4 108.35-137 202-198.65 11.8-7.78 36.73-23.36 54.89-33.61a47.46 47.46 0 0 1 35.3-4.6c112.59 29.37 732.48 50.16 829.35 45.35a87.36 87.36 0 0 1 41.57 8.17c84.42 39.76 295.3 193.24 323.89 254.66z"/>
<path class="cls-9" d="m2105.4 1263.6c-8-1-16.36-1.3-24.63-2.47a193 193 0 0 1-38.32-9 157.91 157.91 0 0 1-68.84-47.82 197.11 197.11 0 0 1-27.08-41.91 35.16 35.16 0 0 1-3.61-12c-0.41-4.69 1.15-8.38 5.13-10.95 3.62-2.35 7.72-3.24 11.92-3.82a83.69 83.69 0 0 1 12.94-0.66 77.47 77.47 0 0 1 13.61 1.78c13.63 2.66 26 8.55 38.15 15 13.52 7.15 27.23 13.94 40.13 22.23a188.5 188.5 0 0 1 16.72 12.06 19.29 19.29 0 0 0 12.61 4.7 21.92 21.92 0 0 0 8.73-2.1 186.07 186.07 0 0 0 27.31-15.75c16.5-11.11 30.2-25 41.91-41.06a63.51 63.51 0 0 1 41.72-26c7.81-1.36 15.71-1.81 23.61-0.29 6.81 1.31 11 5 12.27 11.23a22.28 22.28 0 0 1-0.2 8.38 181.66 181.66 0 0 1-9 33.82 177.73 177.73 0 0 1-50.65 72.67c-11.59 10.06-24.22 18.38-38.51 24.06a108.81 108.81 0 0 1-28.94 7.22c-5.56 0.51-11.14 0.58-16.98 0.68z"/>
<path class="cls-9" d="M1822.7,1178.46l.24-6.6a121.13,121.13,0,0,1,4.37-20.56,184.25,184.25,0,0,1,42.17-72.68c13.11-14.06,28.11-25.61,45.54-33.84a115.15,115.15,0,0,1,33.28-10.14c10.64-1.5,21.31-1,32-.26a179.25,179.25,0,0,1,19.2,2.44c15.62,2.79,30.78,7.1,45.12,14,14.88,7.14,28.62,16,40.54,27.52a193.5,193.5,0,0,1,31.86,39.84,139.59,139.59,0,0,1,10.55,20.53,29.69,29.69,0,0,1,2,9.09c.24,4-1.12,7.25-4.6,9.47s-7.4,2.93-11.38,3.47c-9.37,1.25-18.74.67-28.09-.15-6.31-.55-12.09-3-17.72-5.7-18.37-9-36.59-18.22-54.26-28.54-7.16-4.18-13.84-9.08-20.57-13.91-3.25-2.32-6.42-4.8-10.44-5.79-4.34-1.07-8.42-.28-12.48,1.35-7.69,3.09-14.63,7.49-21.56,11.94A177.22,177.22,0,0,0,1919,1143a197,197,0,0,0-19,22.39c-9.78,13.15-22.52,21.75-38.59,25.26a70.31,70.31,0,0,1-26.22.77C1827.87,1190.28,1823,1185.1,1822.7,1178.46Z"/>
<g class="cls-10">
<path class="cls-11" d="m2105.4 1263.6c-8-1-16.36-1.3-24.63-2.47a193 193 0 0 1-38.32-9 157.91 157.91 0 0 1-68.84-47.82 197.11 197.11 0 0 1-27.08-41.91 35.16 35.16 0 0 1-3.61-12c-0.41-4.69 1.15-8.38 5.13-10.95 3.62-2.35 7.72-3.24 11.92-3.82a83.69 83.69 0 0 1 12.94-0.66 77.47 77.47 0 0 1 13.61 1.78c13.63 2.66 26 8.55 38.15 15 13.52 7.15 27.23 13.94 40.13 22.23a188.5 188.5 0 0 1 16.72 12.06 19.29 19.29 0 0 0 12.61 4.7 21.92 21.92 0 0 0 8.73-2.1 186.07 186.07 0 0 0 27.31-15.75c16.5-11.11 30.2-25 41.91-41.06a63.51 63.51 0 0 1 41.72-26c7.81-1.36 15.71-1.81 23.61-0.29 6.81 1.31 11 5 12.27 11.23a22.28 22.28 0 0 1-0.2 8.38 181.66 181.66 0 0 1-9 33.82 177.73 177.73 0 0 1-50.65 72.67c-11.59 10.06-24.22 18.38-38.51 24.06a108.81 108.81 0 0 1-28.94 7.22c-5.56 0.51-11.14 0.58-16.98 0.68z"/>
<path class="cls-11" d="M1822.7,1178.46l.24-6.6a121.13,121.13,0,0,1,4.37-20.56,184.25,184.25,0,0,1,42.17-72.68c13.11-14.06,28.11-25.61,45.54-33.84a115.15,115.15,0,0,1,33.28-10.14c10.64-1.5,21.31-1,32-.26a179.25,179.25,0,0,1,19.2,2.44c15.62,2.79,30.78,7.1,45.12,14,14.88,7.14,28.62,16,40.54,27.52a193.5,193.5,0,0,1,31.86,39.84,139.59,139.59,0,0,1,10.55,20.53,29.69,29.69,0,0,1,2,9.09c.24,4-1.12,7.25-4.6,9.47s-7.4,2.93-11.38,3.47c-9.37,1.25-18.74.67-28.09-.15-6.31-.55-12.09-3-17.72-5.7-18.37-9-36.59-18.22-54.26-28.54-7.16-4.18-13.84-9.08-20.57-13.91-3.25-2.32-6.42-4.8-10.44-5.79-4.34-1.07-8.42-.28-12.48,1.35-7.69,3.09-14.63,7.49-21.56,11.94A177.22,177.22,0,0,0,1919,1143a197,197,0,0,0-19,22.39c-9.78,13.15-22.52,21.75-38.59,25.26a70.31,70.31,0,0,1-26.22.77C1827.87,1190.28,1823,1185.1,1822.7,1178.46Z"/>
</g>
<path class="cls-12" d="m2784.7 1266.5a9.68 9.68 0 0 1-6.06 6.93c-262.37 98.43-1406.8 62.11-1481.6-84.44-7.86-15.4 108.35-137 202-198.65 11.81-7.78 36.73-23.36 54.89-33.61a47.41 47.41 0 0 1 16.18-5.58c-14.24 8.56-28.84 17.77-37.07 23.19-93.66 61.65-209.87 183.25-202 198.65 72.42 141.84 1146.8 180.42 1453.7 93.51z"/>
</svg>
