<?xml version="1.0" encoding="UTF-8"?>
<svg viewBox="0 0 4e3 4e3" xmlns="http://www.w3.org/2000/svg">
<defs>
<style>.cls-1{fill:#fff;}.cls-1,.cls-2{stroke:#333;}.cls-1,.cls-2,.cls-4{stroke-linecap:round;stroke-linejoin:round;stroke-width:5px;}.cls-2,.cls-5{fill:#333;}.cls-3{opacity:0.05;}.cls-4{stroke:#000;opacity:0.2;}.cls-6{fill:#f7cc58;}.cls-7{fill:#e1e8ed;}.cls-8{fill:#e89026;}.cls-9{fill:#5e460c;}.cls-10{fill:#2a2f33;}</style>
</defs>
<title>hat3_7</title>
<path class="cls-1" d="M2898.54,1468c-429.33,147.72-1706.79-116.49-1647.32-292.14a51.08,51.08,0,0,1,4.54-8.17c29.52-213.62,327.48-624.16,966-539.55C2772,701,2951.27,1061.8,2898.54,1468Z"/>
<path class="cls-2" d="m2898.5 1468c-962.22 820-2805.9-6.73-1642.5-302-112.42 175.41 1205.2 452.44 1642.5 302z"/>
<path class="cls-3" d="m2896.3 1466.1c-46.15 15.7-103.88 27.23-171.63 34.27q-19.14 2-39.36 3.5c50.31-404.07-90.84-803.51-699.5-882.24l-0.82-0.1c75.57-4.81 154.6-1.8 236.44 9.05 132.59 17.57 248.49 52.76 344.48 104.6 90 48.58 163.43 112.29 218.37 189.34 51.76 72.49 87.29 157.18 105.76 251.6 17.4 89.23 19.51 186.78 6.26 289.98z"/>
<path class="cls-4" d="m2898.5 1468c-536.66 457.31-1347.5 402.43-1758 213.19 389.28 107.25 951.55 105.41 1393.1-170 145.71 0.81 274.16-12.05 364.81-43.19z"/>
<path class="cls-4" d="m1280.4 1239.1c-265 63.46-380.46 148.56-387 236.06-44.54-113.29 51.54-230.19 362.61-309.19-14.77 23-4.89 47.81 24.39 73.13z"/>
<path class="cls-5" d="M1856.85,1309.34c-9.1,0-13.45-4.22-15.5-7.76-2.29-4-2.38-8.3-2.44-11.47l0-1.1-1.1,0c-5,.56-8.61,2.27-12.79,4.25-5.48,2.6-11.69,5.55-20.7,5.55-10,0-21.84-3.74-37.25-11.77-21.09-11-32.86-23-36-36.68-2.07-9.06-.25-18.2,5.56-28l.49-.81-.79-.53c-42.67-28.6-73.1-62.89-88-99.18-7.85-19.12-6.94-57.73,2.23-93.88,6.21-24.51,21.71-69,55.69-91.52l.35-.23.08-.42a31.55,31.55,0,0,1,12.79-20.1l66.35-47.19a31.71,31.71,0,0,1,41.5,4.16l43.21,46.08.39,0a485.63,485.63,0,0,1,73.67,11.2c7,1.64,14,3.49,21,5.49l.25.07,62.51-14.3a31.73,31.73,0,0,1,30.34,52.46l-.82.89,1,.64c34.41,21.27,57,46.2,67,74.11,12.12,33.6,17.8,79.93,14.83,120.91-2.06,28.53-10.48,79.58-43.63,100.88-25.85,16.61-63.74,25.4-109.56,25.4-29.59,0-62.4-3.79-94.89-10.95l-.8-.18-.33.76c-5.75,13.18-16.58,21.3-30.47,22.88A37.13,37.13,0,0,1,1856.85,1309.34Z"/>
<path class="cls-6" d="m1719.7 939.13c22.42-11 128.44-22.69 222.84-0.34 63.94 15.13 152.34 51 174.93 113.65s24 179.54-25.2 211.17c-99.24 63.78-377.95-4.85-435.58-145.13-13.82-33.63 1.71-149.33 63.01-179.35z"/>
<ellipse class="cls-7" transform="translate(624.23 2801.3) rotate(-80.9)" cx="1954.9" cy="1034.6" rx="72.85" ry="60.32"/>
<path class="cls-8" d="m1757.4 1137.8c19.91-4.65 54.27 31 47.54 63.64 33.8-6.52 179.82-36 185.6-5.26s-37.76 41-107.61 44.21c6.48 10.1 10.07 56-22.84 59.76-23.4 2.65-1.28-22.42-23.08-20.08s-22.91 21.35-65.76-1c-58.58-30.54-19.25-58.22-16.22-67.91s6.65-18.26 0.24-27.41-20.17-40.74 2.13-45.95z"/>
<path class="cls-9" d="m1933.3 998.28a22.71 22.71 0 0 1-5-44.85l102.1-23.37a22.71 22.71 0 1 1 10.13 44.27l-102.1 23.37a22.76 22.76 0 0 1-5.13 0.58z"/>
<ellipse class="cls-7" transform="translate(541.74 2624.4) rotate(-80.9)" cx="1809.9" cy="994.52" rx="71.56" ry="59.25"/>
<circle class="cls-10" cx="1924.1" cy="1057.1" r="21.29"/>
<circle class="cls-10" cx="1779.7" cy="1015.4" r="20.91"/>
<path class="cls-9" d="m1851.6 967.69a22.66 22.66 0 0 1-16.57-7.17l-33.86-36.12-50.19 35.69a22.71 22.71 0 0 1-26.32-37l66.32-47.19a22.72 22.72 0 0 1 29.73 3l47.42 50.59a22.71 22.71 0 0 1-16.56 38.23z"/>
<path class="cls-9" d="m2078.3 1200.7a23.33 23.33 0 0 1-6.2-0.85l-276-77a23.06 23.06 0 0 1 12.39-44.42l276 77a23.06 23.06 0 0 1-6.19 45.27z"/>
</svg>
