<?xml version="1.0" encoding="UTF-8"?>
<svg viewBox="0 0 4e3 4e3" xmlns="http://www.w3.org/2000/svg">
<defs>
<style>.cls-1,.cls-15{fill:#fff;}.cls-1,.cls-2{stroke:#333;}.cls-1,.cls-2,.cls-4{stroke-linecap:round;stroke-linejoin:round;stroke-width:5px;}.cls-2{fill:#333;}.cls-3{opacity:0.05;}.cls-4{stroke:#000;opacity:0.2;}.cls-5{fill:#161616;}.cls-6{fill:#242f1c;}.cls-7{fill:#fbdd11;}.cls-8{fill:#edcd14;}.cls-9{fill:#f2d214;}.cls-10{fill:#e3f6cf;}.cls-11{fill:#1a1a1a;}.cls-12{fill:#997f11;}.cls-13{fill:#a5bed4;}.cls-14{fill:#9b221d;}</style>
</defs>
<title>hat3_3</title>
<path class="cls-1" d="M2898.54,1468c-429.33,147.72-1706.79-116.49-1647.32-292.14a51.08,51.08,0,0,1,4.54-8.17c29.52-213.62,327.48-624.16,966-539.55C2772,701,2951.27,1061.8,2898.54,1468Z"/>
<path class="cls-2" d="m2898.5 1468c-962.22 820-2805.9-6.73-1642.5-302-112.42 175.41 1205.2 452.44 1642.5 302z"/>
<path class="cls-3" d="m2896.3 1466.1c-46.15 15.7-103.88 27.23-171.63 34.27q-19.14 2-39.36 3.5c50.31-404.07-90.84-803.51-699.5-882.24l-0.82-0.1c75.57-4.81 154.6-1.8 236.44 9.05 132.59 17.57 248.49 52.76 344.48 104.6 90 48.58 163.43 112.29 218.37 189.34 51.76 72.49 87.29 157.18 105.76 251.6 17.4 89.23 19.51 186.78 6.26 289.98z"/>
<path class="cls-4" d="m2898.5 1468c-536.66 457.31-1347.5 402.43-1758 213.19 389.28 107.25 951.55 105.41 1393.1-170 145.71 0.81 274.16-12.05 364.81-43.19z"/>
<path class="cls-4" d="m1280.4 1239.1c-265 63.46-380.46 148.56-387 236.06-44.54-113.29 51.54-230.19 362.61-309.19-14.77 23-4.89 47.81 24.39 73.13z"/>
<path class="cls-5" d="M2001.77,995.73v-.16a.5.5,0,0,0,0,.16Z"/>
<path class="cls-6" d="M2011,1322.73c-38.67-5.44-73.16-17.77-102.52-36.67a228.4,228.4,0,0,1-66-65.2c-15.31-22.73-27.54-48.93-36.36-77.85a366.38,366.38,0,0,1-14.39-75.33,298,298,0,0,1-.94-32v-.37c0-.87,0-1.75.07-2.64l0-.7c0-.83.06-1.66.1-2.5l0-.59c.18-4.23.45-8.53.79-12.79l0-.47c.07-.85.15-1.69.22-2.53l.07-.79c.07-.75.14-1.5.22-2.25l.11-1.09c.06-.64.13-1.28.2-1.92l.15-1.35c0-.49.21-1.81.21-1.81,0-.48.11-1,.17-1.44l.11-.93a329.35,329.35,0,0,1,8-42l.22-.86.27-1c.55-2.15,1.2-4.48,2.09-7.52.71-2.37,1.63-5.42,2.63-8.46q.71-2.14,1.44-4.29l.65-1.87c.41-1.15.81-2.28,1.22-3.41l.12-.33c.44-1.2.88-2.38,1.33-3.57l0-.06c.94-2.45,1.91-4.91,2.91-7.33l.29-.69c.38-.92.77-1.85,1.17-2.77l.48-1.12c.34-.79.68-1.57,1-2.35.19-.43.38-.86.58-1.28.33-.74.66-1.47,1-2.21l.62-1.34c.35-.75.71-1.49,1.06-2.23l.61-1.27c.53-1.09,1.07-2.18,1.61-3.26l.58-1.14.43-.84.72-1.39.93-1.77,0-.09.8-1.49c.35-.65.7-1.3,1.06-1.95l.75-1.35c.38-.69.76-1.37,1.15-2.05l.67-1.16c.43-.74.85-1.47,1.29-2.21l.29-.49a237.62,237.62,0,0,1,55.89-64.59h0c21-17.44,46.75-31.44,76.5-41.6a342.8,342.8,0,0,1,73.39-16.18l4-.44.91-.09c2.14-.22,4.29-.42,6.37-.6l.4,0h.37a25.12,25.12,0,0,1,5.76.15c12.54,1.76,21.55,12.9,21,25.91a24.32,24.32,0,0,1-11,19.25l-.52.35c-1.08.72-2.15,1.45-3.21,2.18l-1,.67c-1.17.82-2.33,1.65-3.49,2.48l-.91.66c-1.19.86-2.37,1.74-3.54,2.62l-.7.53c-1.36,1-2.56,2-3.67,2.83a269.1,269.1,0,0,0-92.63,138.07l-1,3.48a33.74,33.74,0,0,1,6.19,22.88c-.61,5.72-3.13,14.17-11.63,22-.87.79-1.79,1.56-2.74,2.28-.33,4-.57,7.93-.72,11.91a28.12,28.12,0,0,1,10.35,7.52c11.76,13.66,5.89,33.12-.92,42.87a33.8,33.8,0,0,1-5.24,5.9c8.29,39.81,29.4,85.38,57,122.75,30.56,41.43,65.09,68.59,97.23,76.49a23.51,23.51,0,0,1,3.11,1l.17-.15,1.43.87a21.25,21.25,0,0,1,3.11,1.88c4.6,2.93,7.67,8.32,8.44,14.85.05.34.08.68.11,1,0,.11,0,.19,0,.27,0,.51.06,1,.07,1.55v.18c0,.47,0,.94,0,1.39-.43,10.72-7.1,22.55-21,24.73-.65.11-1.25.19-1.83.24l-.22,0h-.16l-.24,0h-.13c-30.43,2.61-59.21,2.06-85.55-1.64Z"/>
<path class="cls-7" d="M2113.4,1298c0-.16,0-.31,0-.46s0-.29,0-.44,0-.38,0-.57a14.84,14.84,0,0,0-5.62-10.88,15.14,15.14,0,0,0-5.63-2.64c-72-17.68-143.61-123-159.87-207.86,0-.23-.09-.45-.13-.68s-.09-.45-.12-.68c-.49-2.62-.93-5.22-1.3-7.8-.05-.3-.09-.61-.13-.91s-.09-.63-.13-.93q-.65-4.64-1-9.16c-.45-5.23-.75-10.46-.91-15.64,0-1.53-.07-3.06-.09-4.58,0-.26,0-.53,0-.79s0-.52,0-.78,0-.22,0-.33c0-2.17,0-4.32,0-6.47,0-.22,0-.44,0-.66s0-.41,0-.62q.21-9.59,1.07-19c0-.28,0-.56.08-.84l.09-.9q1.29-13.18,3.82-26c.48-2.49,1-5,1.56-7.45.51-2.22,1-4.43,1.59-6.64.07-.28.14-.56.22-.84s.14-.54.21-.82h0c.51-2,1.05-4,1.62-6a275.88,275.88,0,0,1,97.51-143.53c.81-.62,1.62-1.24,2.43-1.84l2.45-1.82,2.47-1.78c.77-.56,1.55-1.11,2.33-1.66l.23-.16,2.15-1.48c.94-.64,1.87-1.28,2.82-1.91a17.6,17.6,0,0,0,7.27-20c-.08-.28-.16-.55-.26-.83a18.34,18.34,0,0,0-.81-2l-.39-.77a17.59,17.59,0,0,0-17.22-9.34h-.1l-.28,0a2.31,2.31,0,0,0-.37,0q-3,.26-5.92.55l-2,.21c-28.06,3-53,8.55-75.19,16.25l0,0c-29.36,10.19-53.85,24-74.2,40.34a229.41,229.41,0,0,0-51,57.3h0l-.08.12-1.43,2.3a2.53,2.53,0,0,1-.13.22c-.51.84-1,1.68-1.52,2.52l-1,1.73c-1,1.74-2,3.47-3,5.22-.62,1.11-1.22,2.22-1.81,3.33l-.09.18q-1.87,3.49-3.62,7-1.32,2.65-2.56,5.32t-2.41,5.34c-.27.6-.53,1.19-.78,1.79s-.52,1.19-.77,1.78c-.75,1.8-1.49,3.59-2.2,5.37-.16.4-.32.8-.47,1.19q-2.23,5.69-4.2,11.38c-.55,1.56-1.06,3.12-1.57,4.67-.9,2.75-1.74,5.5-2.56,8.24-.72,2.46-1.41,4.92-2,7.38-.11.41-.22.81-.32,1.22q-2.1,8-3.73,15.93l-.36,1.76c-.34,1.66-.66,3.31-1,5,0,.09,0,.18-.05.28-.2,1-.38,2.11-.57,3.17-.14.82-.28,1.63-.41,2.45s-.27,1.61-.39,2.41-.27,1.7-.39,2.54c-.08.49-.16,1-.23,1.48s-.17,1.21-.26,1.82c-.11.79-.21,1.57-.32,2.36s-.23,1.82-.34,2.73q-.14,1-.24,1.92c-.12,1-.23,2-.34,3-.22,2-.42,4-.6,6,0,.52-.1,1-.14,1.57-.09,1-.17,2.08-.25,3.12,0,.51-.08,1-.11,1.54-.09,1.11-.16,2.21-.23,3.3s-.13,2.19-.19,3.27-.11,2.16-.15,3.23c0,.54,0,1.07-.06,1.6q-.18,4.82-.22,9.44c-.06,8.59.23,16.64.78,24,0,.07,0,.15,0,.23,0,.39.07.79.1,1.19s.07.85.1,1.27c9,104.75,68.6,270.17,297.54,250.54.23,0,.49-.06.73-.07s.6-.06.88-.09C2107.62,1316.1,2113.43,1306.73,2113.4,1298Z"/>
<path class="cls-8" d="m2096.7 1317.6a5.67 5.67 0 0 0-0.73 0.06c-228.94 19.63-288.55-145.79-297.54-250.53-3.89-45.29 2.26-119.64 42.12-182.89-22 53-25.36 108-22.24 144.35 8.7 101.23 58.48 267.36 268.92 260.11 6.36-0.69 15.67-1.28 20.52-3 9.72 5.88 7.51 30.25-11.05 31.9z"/>
<path class="cls-9" d="m2061.1 802.43q-9 6-17.54 12.71c8.94-12.37-2.33-29.76-22.22-30.37-27.48-0.84-60.46-4.58-129.8 42.15 50-41.47 116.49-53.86 157.4-57.38 0.25 0 0.5 0 0.75-0.06 18.44-1.54 26.8 22.67 11.41 32.95z"/>
<path class="cls-10" d="m1835.4 973.13c-1.22 12 5.88 20.3 7.73 22.32a30.07 30.07 0 0 0 19.71 9.61c11.33 0.78 19.12-5.37 21.4-7.23 2.12-1.74 10.06-8.22 11.27-19.33a28.15 28.15 0 0 0-3.72-16.89 30.26 30.26 0 0 0-23.72-15 30.92 30.92 0 0 0-21 6.51c-2.27 1.76-10.47 8.36-11.67 20.01z"/>
<path class="cls-11" d="M1896.32,975.31c0-.67,0-1.36-.12-2.1a29.77,29.77,0,0,0-3.84-12,31.25,31.25,0,0,0-9-9.83,30.75,30.75,0,0,0-15.31-5.56,31.82,31.82,0,0,0-21.43,6.66c-6.71,5.21-10.79,11.93-11.85,19.46,0,.36-.09.71-.13,1.07-1.18,11.54,5.13,19.83,7.9,22.86a30.88,30.88,0,0,0,18.12,9.62q1,.13,2.07.21c5.39.37,13.57-.6,21.88-7.38A31.29,31.29,0,0,0,1895,984.08c.22-.67.41-1.35.58-2h0a28.26,28.26,0,0,0,.61-3.47A27.17,27.17,0,0,0,1896.32,975.31ZM1843.6,995a31,31,0,0,1-5.19-7.86,26.67,26.67,0,0,1-2.35-13.92c.77-7.58,4.73-14.35,11.45-19.57a30.42,30.42,0,0,1,20.47-6.37c.61,0,1.21.12,1.8.2A29.64,29.64,0,0,1,1891.15,962a27.21,27.21,0,0,1,3.63,16.47c-.79,7.18-4.49,13.53-11,18.87-8,6.49-15.76,7.43-20.91,7.07A29.31,29.31,0,0,1,1843.6,995Z"/>
<path class="cls-6" d="M1877.43,976.32a1.27,1.27,0,0,0-1.16-1.39h0a1.27,1.27,0,0,0-1.16-1.19,1.12,1.12,0,0,0-.41,0,1.25,1.25,0,0,0-.9-.5,1.26,1.26,0,0,0-1.17.55,1.14,1.14,0,0,0-.33-.08,1.26,1.26,0,0,0-1.38,1.16,1.23,1.23,0,0,0,.24.86,1.26,1.26,0,0,0-.81,1.07,2.12,2.12,0,0,0,3.32,2.32l.24.05a1.24,1.24,0,0,0,.86-.25,1.19,1.19,0,0,0,.26,0,1.24,1.24,0,0,0,1.18-.58,1.27,1.27,0,0,0,.73-1v-.15A1.24,1.24,0,0,0,1877.43,976.32Z"/>
<path class="cls-11" d="M1898.6,1034.05c-2.57-.36-4.51-3.52-6.23-6.33a42.63,42.63,0,0,1-5.68-15.55.69.69,0,0,1,.57-.8.7.7,0,0,1,.8.58,41.51,41.51,0,0,0,5.49,15c1.6,2.6,3.59,5.84,5.69,5.69,1.57-.11,3.15-2,4.45-5.4,1.2-3.13,1-5.76.74-8.55l-.09-1a77.68,77.68,0,0,1,.39-15.33.71.71,0,0,1,.78-.61.69.69,0,0,1,.6.78,75.61,75.61,0,0,0-.38,15l.09,1c.24,2.82.49,5.74-.83,9.16-1.93,5-4.14,6.19-5.65,6.29A3.64,3.64,0,0,1,1898.6,1034.05Z"/>
<path class="cls-10" d="m1895.7 978.9c-1.18 11.53 5.66 19.58 7.39 21.48a29.34 29.34 0 0 0 19.09 9.34c11.63 0.87 19.65-5.74 22.06-8 2.08-1.91 8.42-7.89 9.47-17.68 1.49-14-9.1-23.21-10.22-24.16a28 28 0 0 0-16.26-6.66 31.38 31.38 0 0 0-21.35 7.14c-2.09 1.84-9.11 8.03-10.18 18.54z"/>
<path class="cls-11" d="M1954.39,984.16c1.06-9.88-3.83-17.5-7.31-21.57a30.29,30.29,0,0,0-3.15-3.19,28.58,28.58,0,0,0-16.68-6.82,31.92,31.92,0,0,0-21.83,7.3,29.63,29.63,0,0,0-9.22,13.33c-.23.7-.42,1.38-.58,2a25.66,25.66,0,0,0-.5,2.6q-.07.51-.12,1a26.89,26.89,0,0,0-.14,3.07c0,.74.05,1.47.12,2.18a29.84,29.84,0,0,0,7.58,16.77,28.1,28.1,0,0,0,2.11,2.08c.39.35.82.71,1.28,1.08a29.63,29.63,0,0,0,14.28,6.2c.62.09,1.24.16,1.89.2a29.27,29.27,0,0,0,17.39-4.29,33,33,0,0,0,5.18-3.83C1950.4,997.07,1953.67,991,1954.39,984.16Zm-48.29,18.16a7.54,7.54,0,0,1-.59-.52h0a24.55,24.55,0,0,1-1.91-1.89,29.61,29.61,0,0,1-4.95-7.56,25.6,25.6,0,0,1-2.26-13.37c.49-4.77,2.61-11.77,9.95-18a30.46,30.46,0,0,1,20.85-7c.73,0,1.44.11,2.12.2a27.83,27.83,0,0,1,13.73,6.29,29.33,29.33,0,0,1,3.62,3.79c3.25,4,7.3,11,6.35,19.77-.69,6.45-3.8,12.26-9.24,17.24a31.46,31.46,0,0,1-4.08,3.12,27.66,27.66,0,0,1-33.58-2.06Z"/>
<path class="cls-11" d="M1855.64,1016a33.85,33.85,0,0,1-3.84-.76c-3.94-1-9.34-2.39-12.9-7.35a16.17,16.17,0,0,1-2.56-5.58.7.7,0,0,1,1.35-.34,14.82,14.82,0,0,0,2.34,5.11c3.27,4.55,8.38,5.86,12.11,6.81a35.18,35.18,0,0,0,17.27,0,.69.69,0,0,1,.84.51.69.69,0,0,1-.51.84A37.12,37.12,0,0,1,1855.64,1016Z"/>
<path class="cls-11" d="M1918.25,1020.5a26.25,26.25,0,0,1-7.74-2.22.7.7,0,0,1-.32-.94.71.71,0,0,1,.94-.31,28.62,28.62,0,0,0,14.12,2.29,24.94,24.94,0,0,0,11.16-4.47.7.7,0,0,1,.93,1,26.12,26.12,0,0,1-12,4.82A33.15,33.15,0,0,1,1918.25,1020.5Z"/>
<path class="cls-7" d="m1925.6 1025.2c1.11-0.18 16.25-2.49 25 7.68 9 10.52 4.41 26.36-1.34 34.59-4.32 6.18-10 9-17.19 12.72a80.14 80.14 0 0 1-25.56 7.93z"/>
<path class="cls-11" d="M1906.39,1088.74a.63.63,0,0,1-.54-.54.64.64,0,0,1,.54-.71,79.19,79.19,0,0,0,25.35-7.86c7.12-3.62,12.73-6.47,17-12.52,5.28-7.56,10.33-23.43,1.39-33.82-8.61-10-23.8-7.57-24.44-7.47a.62.62,0,0,1-.72-.51.63.63,0,0,1,.51-.73c.67-.11,16.53-2.63,25.6,7.89,4.16,4.84,5.9,11.28,5,18.64a38.34,38.34,0,0,1-6.33,16.72c-4.41,6.31-10.15,9.22-17.42,12.92a80.28,80.28,0,0,1-25.75,8Z"/>
<path class="cls-11" d="M1838.5,1081.59l-.14,0c-15.56-5.53-25.5-20.79-23.64-36.27,1.47-12.33,10.43-23.2,22.81-27.7a.7.7,0,1,1,.48,1.31c-11.89,4.32-20.49,14.74-21.91,26.55-1.78,14.85,7.78,29.48,22.73,34.8a.7.7,0,0,1-.33,1.35Z"/>
<path class="cls-12" d="M1823,1053.9a24.42,24.42,0,0,0,7.69,13A54.72,54.72,0,0,0,1839,1073l1.78,1.1c.59.37,1.19.72,1.79,1.06a50.53,50.53,0,0,0,6.73,3.21q1.31.51,2.61,1a83.39,83.39,0,0,0,11.37,2.78,8.82,8.82,0,0,0,.92.16l2.51.47c3,.53,6,.93,8.74,1.19.59.08,1.17.12,1.75.17a110.12,110.12,0,0,0,11.69.36l2.1-.06a93.14,93.14,0,0,0,11.81-1.19l.12,0,.81-.13a112.18,112.18,0,0,0,12-2.61.17.17,0,0,0,.11,0,51.17,51.17,0,0,0,13.2-5.77,49,49,0,0,0,4.32-3c4.55-3.56,10.63-8.47,12.43-16.86.27-1.3,2.51-12.64-4.6-18.86a15.86,15.86,0,0,0-8.79-3.6l-1.09-.11c-3.94-.27-6,.83-10.35,2.67l-3,1.21c-.82.32-1.72.66-2.7,1-2.82,1-5.55,2-8.35,2.67l-.82.21a33,33,0,0,1-8.78,1,3.59,3.59,0,0,1-.47,0h0a21.41,21.41,0,0,1-2.48-.2,26.84,26.84,0,0,1-6.61-1.74h0c-.29-.11-.62-.23-1-.37-1.26-.49-2.66-1.1-4.31-1.8a59,59,0,0,1-6.27-3l-.34-.18c-3.38-1.93-5.11-3.43-9-5.15-.54-.24-1.36-.59-2.41-1l-1.31-.49a39.81,39.81,0,0,0-12.71-2.32,31.34,31.34,0,0,0-9.7,1.39c-2.51.79-10.48,3.3-15.1,11.33A24.76,24.76,0,0,0,1823,1053.9Z"/>
<path class="cls-11" d="M1941.67,1035.38a15,15,0,0,0-3.28-2.15,17.65,17.65,0,0,0-5.15-1.52l-.38,0-.36,0c-.45-.06-.84-.09-1.12-.11-3.28-.23-5.36.46-8.25,1.68l-1.28.55-.84.36-.3.13-3,1.2h0l-2.67,1c-2.79,1-5.51,2-8.29,2.66l-.36.09-.46.11c-.74.18-1.46.33-2.18.46-.35.07-.71.13-1.06.17l-.59.08-.58.08c-1,.11-2,.17-3,.18h-1.21l-.4,0h-.31a4.71,4.71,0,0,1-.53,0c-.53,0-1.07-.08-1.63-.16a26.78,26.78,0,0,1-6.46-1.7l-.34-.13-.3-.11-.31-.12c-1-.41-2.11-.87-3.39-1.41l-.92-.39c-.58-.24-1.13-.48-1.67-.73s-.95-.42-1.4-.64c-1.09-.52-2.11-1-3.12-1.62l0,0a1.4,1.4,0,0,1-.17-.09h0l-.07,0c-1.18-.67-2.15-1.29-3.09-1.88a41.12,41.12,0,0,0-6-3.29c-.64-.29-1.43-.63-2.45-1l-.48-.18h0l-.19-.07-.31-.11-.33-.13a40.43,40.43,0,0,0-13-2.36h-.66a32.45,32.45,0,0,0-9.26,1.42c-2.65.84-10.73,3.39-15.48,11.65a25.93,25.93,0,0,0-3,8.9,23.91,23.91,0,0,0,.23,8.12,24.66,24.66,0,0,0,7.45,12.92l.45.42a55.17,55.17,0,0,0,8.38,6.21l1.62,1,.16.1c.6.37,1.22.73,1.82,1.07l.48.27a50.34,50.34,0,0,0,6.33,3l1.74.66h0c.28.11.57.2.87.31,1,.33,2,.64,3,.92l.09,0,.77.21.39.1c2.62.68,5.07,1.16,7.08,1.53l.07,0h0l.16,0a5.77,5.77,0,0,0,.78.13l.09,0c.8.16,1.62.31,2.43.45,1.4.25,2.78.47,4.12.66,1.61.22,3.17.41,4.65.54.6.08,1.19.13,1.78.18l1.06.08c3.42.25,6.92.35,10.4.28h.31l2.1-.06h.07l.46,0a94.45,94.45,0,0,0,10.22-1l1.17-.18.14,0,.32-.06.43-.07h0l.79-.15h0l.63-.11,2.74-.51c.57-.1,1.14-.22,1.71-.34l1.56-.34c.85-.19,1.7-.39,2.56-.62l.52-.13.68-.18h0l.26-.07.15,0,.39-.11.08,0,.17,0,.75-.22.25-.08c.28-.08.56-.18.84-.27,1.24-.4,2.45-.83,3.62-1.3l.71-.29,1.06-.45.59-.27c.68-.31,1.34-.63,2-1l.42-.22.78-.42c.52-.28,1-.58,1.54-.88l.77-.47,0,0,.81-.53c1.19-.77,2.37-1.61,3.52-2.51a49.49,49.49,0,0,0,6.86-6.15,24,24,0,0,0,5.82-11.11C1946.94,1052.75,1948.83,1041.66,1941.67,1035.38Zm3.45,19.24a22.26,22.26,0,0,1-4.71,9.56,45.21,45.21,0,0,1-7.46,6.9c-1.26,1-2.56,1.9-3.88,2.73l-.38.24-.27.17-.68.4-1.27.73h0c-.41.23-.83.45-1.25.67l-.3.15-1.07.52c-.89.42-1.81.82-2.75,1.2-.44.18-.88.35-1.33.51l-.18.07c-.45.16-.9.33-1.37.48l-1.37.44-.12,0-.68.2H1916a1.61,1.61,0,0,1-.29.09l-.15,0h0l-.2.06-.09,0c-.21.07-.42.12-.63.17a2.85,2.85,0,0,1-.39.11l-1.74.45-1.33.31-1.68.37-1,.19h0l-.53.1c-.49.1-1,.2-1.46.28l-2.32.42-.38.07-.18,0-.13,0-.35.06-.11,0-.22,0h0l-.07,0h0l-.42.06a93.11,93.11,0,0,1-10.64,1.08l-.65,0h-.06l-.73,0-1,0h-1.52c-3.34,0-6.69-.07-10-.34l-.47,0-.28,0-.76-.07-.2,0-.48-.06-.23,0-.69-.07c-2.45-.24-5.06-.61-7.77-1.09l-1.55-.28-.68-.13h-.07l-.24-.05-.38-.06-.16,0h0l-.3-.06h0l-.42-.07c-3.06-.58-5.56-1.14-7.86-1.78l-.51-.14-.38-.11-.33-.1-.71-.22-.13,0-.7-.23-.22-.07-.48-.16-.37-.13c-.6-.22-1.17-.43-1.74-.66a46.46,46.46,0,0,1-4.35-1.93l-.62-.32-.93-.5-.62-.34-.11-.06-.5-.29-.57-.33-.71-.43-.16-.1-1.61-1c-1.62-1-3.3-2.12-4.95-3.36-.29-.22-.58-.44-.87-.68l-.36-.28-.6-.49-.91-.79,0,0-.45-.42-.06-.06c-.17-.16-.35-.32-.51-.49a23,23,0,0,1-6.91-12,23.94,23.94,0,0,1,2.56-16c4.49-7.79,12.18-10.22,14.71-11a30,30,0,0,1,8.81-1.35c.22,0,.45,0,.67,0h.73l.42,0,1,.06h.22l1,.09.12,0,1.11.13.9.14.89.16c.3,0,.59.11.89.18h0c1.2.25,2.4.56,3.61.94.3.09.61.19.91.3s.44.14.65.21h0l.32.11.22.09.12,0,.53.2.1,0,.55.22c.73.29,1.33.55,1.83.77a39.78,39.78,0,0,1,5.78,3.2l1.82,1.13.47.29,0,0,.15.08c.17.1.34.21.53.31l.07,0,.07,0,.1,0,.23.12.22.12,0,0,.71.38.71.38c.44.22.88.45,1.33.66l.69.33.21.1,1.41.63,1,.44.92.38.48.21.72.3c.26.11.5.22.75.31l.68.29h0l.37.15.38.15.26.1.13.05.25.1.27.1.16.06h0l.57.21a26.67,26.67,0,0,0,6.11,1.53,10.56,10.56,0,0,0,1.1.12,7.18,7.18,0,0,0,.8.06l.63,0h0l.27,0h1.84l.56,0,1.1-.06a33.82,33.82,0,0,0,3.74-.51,7.51,7.51,0,0,0,.75-.14l1-.22.08,0,.12,0,.57-.14.26-.07h.07l.82-.22.1,0,.7-.2c.25-.06.49-.14.74-.22,1-.28,1.89-.59,2.83-.91s2.1-.73,3.16-1.1l2.23-.83.49-.19.21-.09c.24-.1.49-.19.71-.29l1.43-.57.27-.11.36-.16.3-.13.66-.28.19-.08.2-.08c3.4-1.47,5.34-2.27,8.67-2l.3,0,.71.07h.07l.62.07a16,16,0,0,1,5.42,1.73,12.78,12.78,0,0,1,2.36,1.63C1947.33,1042.19,1945.55,1052.6,1945.12,1054.62Z"/>
<path class="cls-13" d="M1899.31,908.83a84.64,84.64,0,0,0-34.1,4.87c-9.25,3.13-21.82,7.39-24,16.55-.33,1.36-1,5.14,1.12,7.24,6.51,6.49,26.63-16.53,54.57-13.94,7.92.74,15.9,1.84,23.82,7.2s11.21,12.22,19.45,13.07c3.25.33,4.84-.51,5.7-1.25,2.74-2.38,2.3-7.21,1.42-10-.49-1.57-1.54-3.84-6.22-7.91a56.87,56.87,0,0,0-11.72-7.89A79.82,79.82,0,0,0,1899.31,908.83Z"/>
<path class="cls-11" d="m1948.1 932.34c-0.56-1.81-1.78-4.21-6.47-8.28a57.81 57.81 0 0 0-11.89-8 80 80 0 0 0-24.31-7.42c-2.2-0.31-4.22-0.5-6-0.62a85.87 85.87 0 0 0-34.43 4.9c-9.39 3.18-22.25 7.54-24.56 17.15-0.39 1.62-1 5.64 1.35 8a4.65 4.65 0 0 0 2.73 1.35c3.32 0.47 8-1.89 13.88-4.89 9.65-4.89 22.87-11.6 38.47-10.16 7.93 0.74 15.69 1.83 23.42 7.07a56.55 56.55 0 0 1 7.08 5.9c3.85 3.62 7.17 6.73 12.76 7.3 2.8 0.29 4.87-0.19 6.32-1.44 3.14-2.74 2.52-8.12 1.65-10.86zm-19.61 3.8a58.52 58.52 0 0 0-7.29-6.07c-8.06-5.46-16.05-6.59-24.2-7.34-16.08-1.49-29.54 5.34-39.37 10.32-7.14 3.62-12.29 6.24-14.69 3.85-1.84-1.83-1.16-5.4-0.91-6.45 2.1-8.72 14.45-12.91 23.48-16a84.4 84.4 0 0 1 33.79-4.82 79.54 79.54 0 0 1 29.7 7.87 56.13 56.13 0 0 1 11.55 7.78c4.38 3.8 5.48 5.94 6 7.53 0.69 2.19 1.33 6.92-1.18 9.1-1.08 0.94-2.78 1.29-5.07 1.06-5.05-0.49-8.04-3.29-11.81-6.83z"/>
<path class="cls-14" d="m1830.7 1066.9a54.72 54.72 0 0 0 8.29 6.13l1.78 1.1c0.59 0.37 1.19 0.72 1.79 1.06 1.68-1.82 3-4.9 7.74-8.71 3.46-2.83 6.92-5.65 11.94-6.27 3-0.36 4.81 0.23 9-0.79 2.93-0.71 5.74-1.41 6.13-3 0.63-2.63-5.3-6.66-10.42-8.41a25.34 25.34 0 0 0-11.69-0.94 25 25 0 0 0-11.24 3.8c-1.71 1.13-2.2 1.81-8.91 10.38-2.12 2.64-3.51 4.39-4.41 5.65z"/>
<path class="cls-11" d="M1867.15,1047.28a26.08,26.08,0,0,0-12-1,25.71,25.71,0,0,0-11.54,3.91c-1.71,1.13-2.18,1.74-8,9.16l-1.42,1.81c-1.6,2-2.74,3.5-3.57,4.62l-.42.57-.06.08-.35.5h0l.45.41a55.17,55.17,0,0,0,8.38,6.21l1.62,1,.16.1c.6.37,1.22.73,1.82,1.07l.48.27h0l.37-.41.11-.12c.16-.17.31-.36.46-.55.34-.41.66-.87,1-1.37a30.5,30.5,0,0,1,6.12-6.63c3.46-2.83,6.75-5.5,11.54-6.09a22.63,22.63,0,0,1,2.92-.13,23.4,23.4,0,0,0,6.14-.67c3.16-.78,6.15-1.5,6.64-3.56C1878.8,1053.22,1872.09,1049,1867.15,1047.28Zm9.52,8.91c-.3,1.23-3.13,1.91-5.63,2.52a21.73,21.73,0,0,1-5.8.63,24.31,24.31,0,0,0-3.09.15c-5.2.64-8.78,3.56-12.3,6.42a31.93,31.93,0,0,0-6.32,6.86c-.4.56-.76,1.07-1.12,1.5l-.57-.33-.71-.43-.16-.1-1.61-1c-1.62-1-3.3-2.12-4.95-3.36l-.87-.68-.36-.28-.6-.49-.91-.79,0,0c.82-1.13,2-2.62,3.65-4.73l1.42-1.81c5.68-7.26,6.14-7.85,7.66-8.86a24.56,24.56,0,0,1,10.94-3.69,24.87,24.87,0,0,1,11.39.91C1872.09,1050.44,1877.12,1054.27,1876.67,1056.19Z"/>
<path class="cls-15" d="m1915.9 1080.4a51.17 51.17 0 0 0 13.2-5.77 25.75 25.75 0 0 0-3.09-1.76c-2.29-1.18-4.11-2.12-5.9-1.45-2.37 0.88-3.12 4-3.62 6a21.81 21.81 0 0 0-0.59 2.98z"/>
<path class="cls-11" d="M1930.29,1074.68l-.6-.44-.22-.16-.4-.27a29.76,29.76,0,0,0-2.69-1.5l-.11-.06c-2.34-1.21-4.37-2.25-6.45-1.48-2.71,1-3.52,4.31-4,6.5l0,.2c-.1.41-.21.85-.3,1.3s-.14.65-.18,1a.5.5,0,0,0,0,.12c0,.17,0,.32-.06.47l0,.28-.07.74h0l.26-.08.15,0,.58-.17h.06l.75-.22.25-.08c.28-.08.56-.18.84-.27,1.24-.4,2.45-.83,3.62-1.3l.71-.29,1.06-.45.59-.27c.68-.31,1.34-.63,2-1l.42-.22.78-.42c.52-.28,1-.58,1.54-.88l.77-.47,0,0,.82-.52Zm-13.21,3.12.05-.2c.46-1.9,1.16-4.77,3.18-5.52a3.07,3.07,0,0,1,1.51-.14,13.21,13.21,0,0,1,3.83,1.56l.1,0c.71.37,1.39.72,2,1.07l-1.27.73h0c-.41.23-.83.45-1.25.67l-.3.15-1.07.52c-.89.42-1.81.82-2.75,1.2-.44.18-.88.35-1.33.51l-.18.07-1.37.48-1.37.44-.12,0C1916.81,1078.88,1917,1078.32,1917.08,1077.8Z"/>
<path class="cls-15" d="M1918,1036.08a13,13,0,0,0,3.5,2.76s0,0,.06,0c1.81,1.11,4.46,2.73,6.73,1.72,1.76-.78,2.4-2.71,3.21-5.16a22.54,22.54,0,0,0,.91-3.13l-1.09-.11c-3.94-.27-6,.83-10.35,2.67Z"/>
<path class="cls-11" d="M1932.86,1031.66l-.36,0c-.45-.06-.84-.09-1.12-.11-3.28-.23-5.36.46-8.25,1.68l-1.28.55-.84.36-.3.13-3,1.2h0l-.83.33.41.57.11.16c.1.14.22.28.34.42a14.7,14.7,0,0,0,3,2.28c.12.07.24.14.35.22l.1.06h0l.14.09.62.37a11.2,11.2,0,0,0,4,1.62,4.69,4.69,0,0,0,2.6-.33c2.05-.9,2.76-3.06,3.59-5.56a26.64,26.64,0,0,0,.8-2.6c0-.22.1-.43.14-.64v0l.13-.68h0Zm-2,3.57c-.75,2.27-1.35,4.07-2.83,4.73-1.78.79-4-.43-5.65-1.41l-.4-.25-.09-.06a.57.57,0,0,1-.13-.08l-.12-.06-.51-.33a15.28,15.28,0,0,1-1.93-1.42l1.43-.57.27-.11.36-.16.3-.13.66-.28.19-.08.2-.08c3.4-1.47,5.34-2.27,8.67-2l.3,0C1931.39,1033.66,1931.12,1034.45,1930.85,1035.23Z"/>
<path class="cls-15" d="M1850.47,1024.65a11.59,11.59,0,0,0,1.47,5c.79,1.66,2.23,4.68,4.59,4.81,2.11.09,3.86-2.2,4.61-3.19a11.21,11.21,0,0,0,1.59-3.09c.18-.44.33-.86.45-1.23A39.81,39.81,0,0,0,1850.47,1024.65Z"/>
<path class="cls-11" d="M1863.42,1026.31a40.43,40.43,0,0,0-13-2.36h-.66l0,.66v0a4.24,4.24,0,0,0,0,.71,13.68,13.68,0,0,0,1.53,4.61c.8,1.7,2.27,4.81,4.87,5.17l.31,0c2.49.11,4.39-2.4,5.2-3.47a11,11,0,0,0,1.43-2.6c.11-.24.18-.47.25-.65s.16-.42.23-.59.17-.46.23-.66v-.06l.2-.6h0Zm-1.34,1.65a10.3,10.3,0,0,1-1.5,2.9c-.68.9-2.26,3-4,2.92-2-.11-3.27-2.9-4-4.4a13.34,13.34,0,0,1-1.38-4h0l.42,0,1,.06h.22l1,.09.12,0,1.11.13.9.14.89.16c.3,0,.59.11.89.18h0c1.19.26,2.4.57,3.61.94l.91.3C1862.23,1027.59,1862.15,1027.77,1862.08,1028Z"/>
<path class="cls-15" d="m1902.8 1083.2h0.12l0.81-0.13a112.18 112.18 0 0 0 12-2.61c-0.18-0.26-0.42-0.55-0.66-0.92-1.81-2.63-1.63-3.35-2.95-4.74-0.5-0.51-2.68-2.83-4.56-2.32-1.19 0.33-1.7 1.6-2.9 5.12-0.56 1.65-1 3-1.4 4.1-0.16 0.55-0.32 1.06-0.46 1.5z"/>
<path class="cls-11" d="M1916.86,1080.85l-.41-.61-.13-.19-.25-.35-.1-.12c-.1-.14-.2-.28-.31-.45l-.24-.36a20.85,20.85,0,0,1-1.3-2.25,8.09,8.09,0,0,0-1.51-2.24,15,15,0,0,0-1.52-1.37,4.27,4.27,0,0,0-3.69-1.11c-1.57.44-2.17,2-3.38,5.56l-.61,1.79-.45,1.32c-.12.36-.24.69-.35,1l-.06.2-.3.91-.13.41-.11.34-.26.74,0,.11,1.21-.29.14,0,.32-.06.43-.07h0l.79-.15h0l.63-.11,2.74-.51,1.71-.34,1.56-.34c.85-.18,1.7-.39,2.56-.62l.52-.13.68-.19.26-.07.15,0,.39-.11.08,0,.17,0,.76-.22Zm-10.36,1-2.32.42-.38.07.14-.42c0-.07,0-.14.07-.21.36-1.06.81-2.35,1.33-3.9,1.17-3.42,1.63-4.45,2.43-4.67a1.68,1.68,0,0,1,.62,0,4.77,4.77,0,0,1,2.26,1.24,11.52,11.52,0,0,1,1,.93,6.41,6.41,0,0,1,1.24,1.87,23,23,0,0,0,1.63,2.76l.09.13h0l-.4.1-1.74.45-1.33.31-1.68.37-1,.19-.53.1C1907.47,1081.68,1907,1081.77,1906.5,1081.85Z"/>
<path class="cls-15" d="m1888.4 1083.6a2.16 2.16 0 0 0 0.52 0.88l2.1-0.06a93.14 93.14 0 0 0 11.81-1.19h0.12l0.81-0.13a14.18 14.18 0 0 1-0.44-1.37c0-0.17-0.11-0.34-0.16-0.55-0.79-3.09-0.37-3.69-1.13-5.45-0.28-0.67-1.55-3.58-3.48-3.75-1.23-0.1-2.16 0.92-4.49 3.79-1.9 2.34-3.18 4-4 5.06-1.72 2.19-1.74 2.44-1.66 2.77z"/>
<path class="cls-11" d="M1904.66,1083.6h0l-.23-.66,0-.12c-.07-.16-.13-.34-.2-.55s-.11-.35-.17-.56l-.06-.2-.06-.21a2.93,2.93,0,0,1-.09-.33c0-.16-.08-.32-.12-.46-.12-.53-.21-1-.27-1.36s-.12-.83-.16-1.17a7.92,7.92,0,0,0-.62-2.56c-.77-1.81-2.1-4-4.06-4.18-1.63-.13-2.74,1.15-5.09,4-1.16,1.42-2.18,2.71-3.13,3.9l-.57.72-.35.45-.14.18h0a.36.36,0,0,1-.07.1c-1.56,2.06-1.69,2.47-1.54,3.1v0a2.36,2.36,0,0,0,.33.7,2.6,2.6,0,0,0,.36.46l.21.22h.31l2.1-.06h.07l.46,0a94.45,94.45,0,0,0,10.22-1l1.17-.18.14,0,.32-.06.43-.07h0l.81-.12Zm-13.7.1h-.06l-1.69.06a1.35,1.35,0,0,1-.18-.36,5.33,5.33,0,0,1,.66-1c.14-.2.31-.43.52-.7s.2-.28.32-.43l.09-.14.11-.14c1.13-1.43,2.39-3,3.83-4.78,2.27-2.8,3.06-3.61,3.89-3.54s2,1.33,2.9,3.33a7,7,0,0,1,.52,2.19,22.66,22.66,0,0,0,.57,3.14,3.64,3.64,0,0,0,.11.39s0,0,0,0l0,.17c.06.23.12.44.18.62l-.07,0h0l-.42.06a93.11,93.11,0,0,1-10.64,1.08Z"/>
<path class="cls-15" d="M1875.29,1083.55a2.3,2.3,0,0,0,.15.38c.59.08,1.17.12,1.75.17a110.12,110.12,0,0,0,11.69.36l2.1-.06c.14-.54-.29-.88-.92-3.3l-.09-.3h0c-.69-2.81-.32-3.44-1-5.13-.28-.67-1.55-3.58-3.49-3.75-1.21-.12-2.15.92-4.48,3.79s-3.72,4.6-4.54,5.71C1875.21,1083,1875.2,1083.27,1875.29,1083.55Z"/>
<path class="cls-11" d="M1891.61,1083.67a4.16,4.16,0,0,0-.18-.53,21.16,21.16,0,0,1-.69-2.18h0c0-.07,0-.15,0-.22l0-.11c-.05-.19-.09-.36-.13-.53-.07-.33-.12-.64-.17-.9-.08-.49-.13-.88-.17-1.25a8,8,0,0,0-.62-2.56c-.77-1.8-2.1-4-4.06-4.17-1.61-.15-2.73,1.14-5.09,4-1.59,2-2.75,3.39-3.59,4.46l-.59.76-.38.51-.19.26a5.07,5.07,0,0,0-1.07,1.89,1.11,1.11,0,0,0,0,.6l0,.11a2.23,2.23,0,0,0,.16.4l.17.32.36,0c.6.08,1.19.13,1.78.18l1.06.08c3.42.25,6.92.35,10.4.28h.31l2.1-.06h.53l.13-.5c0-.07,0-.14,0-.21A1.52,1.52,0,0,0,1891.61,1083.67Zm-3.18.1h-.74c-3.34,0-6.69-.07-10-.34l-.47,0-.28,0-.76-.07-.2,0h0s.06-.13.13-.25.25-.4.51-.75l.34-.47.2-.25c.83-1.12,2.18-2.81,4.32-5.43s3-3.62,3.88-3.54h.07c1,.13,2,1.34,2.84,3.33a6.73,6.73,0,0,1,.52,2.16,20.7,20.7,0,0,0,.42,2.54c0,.06,0,.13,0,.2l0,.13s0,.11,0,.16a.75.75,0,0,1,0,.15l.06.23c.09.32.17.6.25.85.17.56.32,1,.43,1.27,0,0,0,.07.05.1l-1,0h-.78Z"/>
<path class="cls-15" d="M1863.27,1082.11a8.82,8.82,0,0,0,.92.16l2.51.47c3,.53,6,.93,8.74,1.19.59.08,1.17.12,1.75.17-.15-.44-.36-1-.58-1.9-.07-.28-.14-.54-.2-.79-.53-2.4-.26-3.05-.94-4.65-.28-.66-1.55-3.58-3.47-3.75-1.23-.11-2.17.91-4.5,3.8-1.29,1.57-2.29,2.82-3.06,3.8C1864,1081.2,1863.59,1081.69,1863.27,1082.11Z"/>
<path class="cls-11" d="M1877.94,1084.16l-.15-.44-.09-.28c-.12-.37-.27-.82-.42-1.4l-.07-.29c0-.06,0-.13,0-.18s-.06-.21-.08-.31-.08-.41-.12-.59c-.07-.35-.11-.67-.15-1l-.09-.66a8,8,0,0,0-.62-2.57c-.77-1.81-2.1-4-4-4.17-1.64-.16-2.75,1.13-5.1,4-.81,1-1.52,1.87-2.14,2.64l-.57.72-.35.44c-.08.1-.15.19-.21.28-.27.32-.5.62-.7.89h0l-.11.14-.35.46h0l-.44.58,1,.23.07,0h0l.16,0a5.77,5.77,0,0,0,.78.13l.09,0c.8.16,1.62.31,2.43.45,1.4.25,2.78.47,4.12.66,1.61.22,3.17.41,4.65.54.6.08,1.19.13,1.78.18l1.06.08h0Zm-3.35-1c-2.45-.24-5.06-.61-7.77-1.09l-1.55-.28-.68-.13h-.07a.76.76,0,0,0,.08-.11l.39-.48.21-.26c.75-1,1.7-2.14,2.84-3.53,2.27-2.82,3.06-3.62,3.9-3.55s2,1.33,2.89,3.33a7,7,0,0,1,.52,2.2,20.43,20.43,0,0,0,.31,2c0,.1,0,.21.07.31s.08.34.13.53v.06h0l.06.23c.06.24.12.46.19.66s.05.19.07.27l-.2,0-.48-.06-.23,0Z"/>
<path class="cls-15" d="M1851.9,1079.33c1.26.41,2.3.72,3,.91,3.64,1,7.58,1.69,8.35,1.87l.41.08.51.08a1.11,1.11,0,0,0,.32-.4c.18-.34.09-.57-.07-1.26,0-.17-.09-.38-.14-.62-.15-.69-.23-1.22-.28-1.6a36.74,36.74,0,0,0-1.09-5.6c-.5-1.62-1.24-4-2.39-4.08-.63,0-.93.63-3.1,3.48-1.21,1.57-.53.6-2.81,3.56C1853.51,1077.19,1852.58,1078.42,1851.9,1079.33Z"/>
<path class="cls-11" d="M1865.2,1080.78l0-.12-.05-.22c0-.14-.08-.32-.13-.53,0,0,0,0,0-.06-.07-.32-.12-.6-.16-.84s-.08-.51-.1-.71a37.26,37.26,0,0,0-1.13-5.71c-.61-2-1.37-4.47-3-4.57-.86-.07-1.26.47-2.44,2.06l-1.26,1.69c-.52.67-.68.86-.89,1.11s-.46.56-1.15,1.45c-.21.27-.47.59-.77,1,0,0,0,0,0,0l-.79,1c-.62.8-1.16,1.51-1.61,2.11l0,0-.29.39-.13.17h0l-.42.58h0l.19.06.73.25c1,.33,2,.64,3,.92h.09l.77.21.39.1c2.4.6,4.76,1.07,6.12,1.33l1,.2.07,0h0l.16,0,.27.06h.07l.13,0,.23,0,.17,0,.23,0,.23-.17a1.66,1.66,0,0,0,.38-.41,1.27,1.27,0,0,0,.13-.22,1.3,1.3,0,0,0,.15-.43A2.27,2.27,0,0,0,1865.2,1080.78Zm-1.48.71-.3-.06h0l-.4-.08-.64-.13c-1.57-.31-4.5-.88-7.24-1.64l-.51-.14-.38-.11-.33-.1-.71-.22-.13,0,.13-.17.7-.92.74-1h0l.56-.73c1.29-1.66,1.62-2.07,1.9-2.4s.38-.46.91-1.16.94-1.24,1.27-1.69a9.54,9.54,0,0,1,1.23-1.51c.67,0,1.5,2.71,1.77,3.59a37,37,0,0,1,1.08,5.48,15.63,15.63,0,0,0,.28,1.65,2.55,2.55,0,0,0,.07.32,2.13,2.13,0,0,0,.08.32l0,.21c0,.15,0,.25.07.33a.52.52,0,0,1,0,.21l-.16,0h0Z"/>
<path class="cls-15" d="M1845.1,1075.9l.79.43c2.71,1.49,4.09,2.24,5.44,2.82.61.26,1.5.61,2.62,1a19.94,19.94,0,0,1-.06-2.51c0-.47,0-.89.07-1.25.19-2.38.37-3.18.39-4.31,0-1.53.08-3.43-.77-3.83s-2.43,1-4.25,2.81A39.57,39.57,0,0,0,1845.1,1075.9Z"/>
<path class="cls-11" d="m1854.7 1080.9-0.06-0.74v-0.17-0.59-1.8-0.18-0.55-0.49s0-0.55 0.07-0.79c0-0.51 0.09-0.93 0.13-1.29v-0.37c0.08-0.74 0.15-1.26 0.16-1.91 0-1.82 0.08-3.88-1.18-4.47s-3 0.94-5 2.94a38.37 38.37 0 0 0-4.28 4.94l-0.4 0.54-0.07 0.1 1.49 0.82c2.46 1.35 3.89 2.14 5.21 2.73a0.42 0.42 0 0 0 0.14 0.06h0.11c0.86 0.37 1.77 0.7 2.68 1l1 0.27zm-1.43-12.07c0.44 0.21 0.39 2.37 0.37 3.18a17.35 17.35 0 0 1-0.14 1.78c-0.07 0.62-0.16 1.38-0.25 2.49v0.1c0 0.3 0 0.63-0.06 1v0.23 1.17 0.21a0.62 0.62 0 0 1 0 0.13l-0.89-0.33-0.67-0.28-0.32-0.14c-1.2-0.53-2.5-1.25-5-2.65h-0.09a39 39 0 0 1 3.68-4.15c0.88-1.01 2.89-2.96 3.37-2.74z"/>
<path class="cls-15" d="M1906.86,1040.26v.06c0,1,.8,1.93,1.88,2.75.67.51,1.44,1,2.14,1.43,1.8,1.11,4.48,2.78,6.78,1.75,1.76-.77,2.41-2.71,3.21-5.15.26-.77.51-1.52.7-2.22.41-1.51.56-2.8-.08-3.59a1.91,1.91,0,0,0-.51-.42l-3,1.21c-.82.32-1.72.66-2.7,1-2.82,1-5.55,2-8.35,2.67A1.78,1.78,0,0,0,1906.86,1040.26Z"/>
<path class="cls-11" d="M1922.42,1035.52a4.11,4.11,0,0,0-.21-.42,2.48,2.48,0,0,0-.19-.26,2,2,0,0,0-.29-.29,1.8,1.8,0,0,0-.43-.29l-.29-.16-.3.13-3,1.2h0l-2.67,1c-2.79,1-5.51,2-8.29,2.66l-.36.09,0,.14-.08.21a2.47,2.47,0,0,0-.1.43,0,0,0,0,0,0,0v0c0,.06,0,.12,0,.18v.1c0,.12,0,.25,0,.37a.07.07,0,0,0,0,0,4.44,4.44,0,0,0,1.82,2.65l.31.25.32.23.62.44c.36.24.73.46,1.07.68l.23.14a13.15,13.15,0,0,0,4.79,2.1,4.66,4.66,0,0,0,2.59-.33,4.29,4.29,0,0,0,1.3-.89c1.11-1.11,1.67-2.8,2.29-4.68.15-.45.31-.91.45-1.38.08-.23.14-.46.21-.68l0-.2a4.77,4.77,0,0,0,.13-.51A5.23,5.23,0,0,0,1922.42,1035.52Zm-11.13,8.42-.22-.14c-.54-.35-1.1-.7-1.61-1.07l-.29-.21c-.17-.14-.33-.26-.47-.39a3,3,0,0,1-1.11-1.47.9.9,0,0,1,0-.28v-.05l.46-.12.1,0,.7-.2c.25-.06.49-.14.74-.22,1-.28,1.89-.59,2.83-.91s2.1-.73,3.16-1.1l2.23-.83.49-.19.21-.09c.24-.1.49-.19.71-.29l1.43-.57.27-.11.06.07a2.64,2.64,0,0,1,.17,2c0,.25-.11.49-.17.72a1.17,1.17,0,0,1,0,.2c0,.17-.09.34-.14.51-.17.56-.37,1.13-.55,1.68-.75,2.28-1.35,4.08-2.83,4.73C1915.44,1046.48,1913,1045,1911.29,1043.94Z"/>
<path class="cls-15" d="M1897,1047.22c.26.45.54.86.77,1.23,1,1.54,2.81,4.34,5.16,4.17,2.11-.19,3.55-2.68,4.16-3.77a11.51,11.51,0,0,0,1.2-3.26,18.35,18.35,0,0,0,.47-2.52,2.6,2.6,0,0,0-.16-1.34,3.28,3.28,0,0,0-1.72-1.47,5.7,5.7,0,0,0-.72-.29,33,33,0,0,1-8.78,1,2.14,2.14,0,0,0-.26-.19.65.65,0,0,0-.21.16h0a3.35,3.35,0,0,0-1,1.19C1895.16,1043.69,1896.06,1045.66,1897,1047.22Z"/>
<path class="cls-11" d="M1897.59,1040.25h-.24l-.4,0h-.33l-.11.09-.07.06a5.27,5.27,0,0,0-.55.5,4.1,4.1,0,0,0-.49.65c-.05.1-.1.2-.14.3-.82,1.78.06,3.85.91,5.38.06.12.13.24.2.36h0l.19.32.34.55.06.09.19.3c1,1.49,2.67,4.13,5,4.46a4,4,0,0,0,.78,0c2.51-.21,4.1-3,4.7-4.1a12,12,0,0,0,1.23-3.33l0-.14c.11-.5.23-1,.31-1.44.06-.27.1-.52.13-.76s0-.28,0-.41,0-.28,0-.4a3.23,3.23,0,0,0-.24-1.29,3.11,3.11,0,0,0-1.1-1.26,4.88,4.88,0,0,0-.85-.5l-.11,0a7,7,0,0,0-.78-.31h0l-.19-.06-.19,0c-.74.18-1.46.33-2.18.46-.35.07-.71.13-1.06.17l-.59.08-.58.08c-1,.11-2,.17-3,.18h-1m.74,7.84-.25-.39c-.09-.16-.2-.32-.3-.49l-.22-.35-.2-.35q-.19-.36-.39-.75a4.18,4.18,0,0,1-.46-3.36,2.21,2.21,0,0,1,.58-.75h1.84l.56,0,1.1-.06a33.82,33.82,0,0,0,3.74-.51,7.51,7.51,0,0,0,.75-.14l1-.22.09,0,.38.17a3.61,3.61,0,0,1,.44.22,2.11,2.11,0,0,1,.93.89,1.41,1.41,0,0,1,.11.49,2.25,2.25,0,0,1,0,.52c0,.11,0,.24,0,.36-.08.59-.25,1.3-.42,2l0,.13a10.32,10.32,0,0,1-1.1,3c-.5.89-1.82,3.26-3.6,3.41C1900.91,1052.07,1899.24,1049.47,1898.34,1048.09Z"/>
<path class="cls-15" d="M1886.49,1046.58c.58,1.75,1.64,4.92,4,5.34,2.08.36,4.1-1.69,5-2.58a10.07,10.07,0,0,0,1.57-2.12c.15-.27.3-.52.41-.74.86-1.62,1.44-2.72,1.28-3.65a3.25,3.25,0,0,0-1.31-1.88,2.14,2.14,0,0,0-.26-.19.65.65,0,0,0-.21.16h0a21.41,21.41,0,0,1-2.48-.2,26.84,26.84,0,0,1-6.61-1.74h0a3.8,3.8,0,0,0-1,.56,2.73,2.73,0,0,0-.46.44,3.28,3.28,0,0,0-.65,1.6A12.1,12.1,0,0,0,1886.49,1046.58Z"/>
<path class="cls-11" d="M1899.36,1042.71a2.87,2.87,0,0,0-.42-1.06,4.07,4.07,0,0,0-.54-.69,7,7,0,0,0-.62-.57l-.18-.13h-.25l-.4,0h-.31l-.53,0c-.53,0-1.07-.08-1.63-.16a26.78,26.78,0,0,1-6.46-1.7l-.1,0-.25,0-.15.06-.06,0a5.5,5.5,0,0,0-.6.28l0,0a3.08,3.08,0,0,0-.46.31,2.31,2.31,0,0,0-.19.14l0,0a2.59,2.59,0,0,0-.4.41,3.93,3.93,0,0,0-.76,1.76l0,.16a5.87,5.87,0,0,0,0,1.19,7.05,7.05,0,0,0,.11,1,19.59,19.59,0,0,0,.77,3l0,.16c.62,1.86,1.76,5.31,4.5,5.81h.12c2.42.34,4.54-1.85,5.46-2.8a10.1,10.1,0,0,0,1.06-1.29,5.35,5.35,0,0,0,.41-.64c.07-.1.13-.21.19-.31s.15-.26.22-.37.15-.28.21-.4C1898.91,1045.11,1899.56,1043.89,1899.36,1042.71Zm-2.6,3.46a3.79,3.79,0,0,1-.18.34c-.07.12-.13.24-.21.37l-.2.33a9.38,9.38,0,0,1-1.26,1.64c-.71.73-2.61,2.69-4.34,2.38-1.92-.34-2.89-3.28-3.41-4.86l-.06-.16a11.49,11.49,0,0,1-.78-4.39.77.77,0,0,1,0-.15,2.53,2.53,0,0,1,.5-1.26,1.61,1.61,0,0,1,.35-.33.86.86,0,0,1,.16-.1,1.86,1.86,0,0,1,.43-.25l.41.15a26.67,26.67,0,0,0,6.11,1.53,10.56,10.56,0,0,0,1.1.12,7.18,7.18,0,0,0,.8.06l.63,0h.27a2.49,2.49,0,0,1,.89,1.29,5.73,5.73,0,0,1-1,2.82Z"/>
<path class="cls-15" d="M1874.32,1041.09c.36,1.81,1,5.08,3.27,5.77,2,.62,4.28-1.17,5.25-1.95a11.21,11.21,0,0,0,2.3-2.59l.5-.74a7.64,7.64,0,0,0,1.11-2,1.88,1.88,0,0,0,.11-.69,1,1,0,0,0,0-.24c-1.26-.49-2.66-1.1-4.31-1.8a59,59,0,0,1-6.27-3,2.36,2.36,0,0,0-.63.24h0a2.7,2.7,0,0,0-.68.48,3.29,3.29,0,0,0-.88,1.69A12.27,12.27,0,0,0,1874.32,1041.09Z"/>
<path class="cls-11" d="M1887.55,1039.07v-.3a2.29,2.29,0,0,0-.07-.36l0-.06-.08-.26-.31-.12c-1-.41-2.11-.87-3.39-1.41l-.92-.39c-.58-.24-1.13-.48-1.67-.73s-.95-.42-1.4-.64c-1.09-.52-2.11-1-3.12-1.62l0,0-.19-.11h0l-.25.06a4.34,4.34,0,0,0-.64.22l-.13.07-.36.18v0l-.18.13h0c-.11.09-.22.18-.31.27a3.87,3.87,0,0,0-1,1.85c0,.06,0,.12-.05.18a6.83,6.83,0,0,0-.15,1c0,.31,0,.63,0,.94a20.07,20.07,0,0,0,.46,3.24c.38,1.91,1.1,5.48,3.75,6.29l.54.12c2.24.31,4.46-1.48,5.34-2.19a10.6,10.6,0,0,0,1.74-1.77c.24-.3.43-.58.6-.83l.11-.16.29-.43.21-.3.1-.15a10,10,0,0,0,1-1.84l.07-.22a.83.83,0,0,0,0-.15A2,2,0,0,0,1887.55,1039.07Zm-2.57,2.24-.12.17c-.09.15-.2.3-.29.44a10.51,10.51,0,0,1-2.17,2.45c-.8.64-2.91,2.34-4.61,1.82s-2.46-3.6-2.79-5.23h0a11.59,11.59,0,0,1-.32-4.44.77.77,0,0,1,0-.15,2.61,2.61,0,0,1,.7-1.34,1.91,1.91,0,0,1,.51-.36l.13-.08h0l.08,0,.71.38.71.38c.44.22.88.45,1.33.66l.69.33.21.1,1.41.63,1,.44.92.38.48.21.72.3c.26.11.5.22.75.31l.68.29h0l.35.14v0a1.15,1.15,0,0,1-.06.21,7.21,7.21,0,0,1-1,1.84Z"/>
<path class="cls-15" d="m1864.2 1033.7c0.36 1.79 1 5.08 3.28 5.77 2 0.62 4.27-1.18 5.25-2a10.64 10.64 0 0 0 1.31-1.27 14.53 14.53 0 0 0 1-1.33c0.21-0.3 0.42-0.59 0.58-0.85l0.29-0.42c-3.38-1.93-5.11-3.43-9-5.15-0.54-0.24-1.36-0.59-2.41-1-1.22 1.67-0.65 4.58-0.3 6.25z"/>
<path class="cls-11" d="M1876.35,1033.06h0l-.07,0c-1.18-.67-2.15-1.29-3.09-1.88a41.12,41.12,0,0,0-6-3.29c-.64-.29-1.43-.63-2.45-1l-.48-.18h0l-.32.42-.07.11,0,.06a3.34,3.34,0,0,0-.33.62,5,5,0,0,0-.36,1.28,14.34,14.34,0,0,0,.38,4.7c.38,1.92,1.1,5.49,3.75,6.3a3.73,3.73,0,0,0,.56.12c2.17.3,4.33-1.41,5.33-2.2l0,0a8.17,8.17,0,0,0,.7-.62,9.16,9.16,0,0,0,.68-.71,1,1,0,0,1,.13-.16,13.28,13.28,0,0,0,.85-1.15l.21-.3c.11-.17.23-.33.32-.48l0-.06.06-.09.25-.36.08-.13.38-.57Zm-8.68,5.72a3.54,3.54,0,0,1-2-2.23,16.87,16.87,0,0,1-.83-3c-.27-1.35-.75-3.74-.08-5.21.73.29,1.33.55,1.83.77a39.78,39.78,0,0,1,5.78,3.2l1.82,1.13.47.29.06,0,.14.08c-.09.15-.19.29-.29.44l-.21.3a13,13,0,0,1-.89,1.19l-.1.11a8.59,8.59,0,0,1-1.16,1.09C1871.37,1037.66,1869.33,1039.28,1867.67,1038.78Z"/>
<path class="cls-6" d="M1938.29,982.28a1.28,1.28,0,0,0-1.16-1.39h0a1.28,1.28,0,0,0-1.16-1.19,1.46,1.46,0,0,0-.42,0,1.27,1.27,0,0,0-2.06,0,1.32,1.32,0,0,0-.33-.08,1.27,1.27,0,0,0-1.39,1.16,1.26,1.26,0,0,1-.57,1.93,2.12,2.12,0,0,0,3.33,2.32l.23,0a1.25,1.25,0,0,0,.87-.25,1,1,0,0,0,.25.05,2.6,2.6,0,0,0,1.91-1.62.75.75,0,0,0,0-.15A1.28,1.28,0,0,0,1938.29,982.28Z"/>
</svg>
