<?xml version="1.0" encoding="UTF-8"?>
<svg viewBox="0 0 4e3 4e3" xmlns="http://www.w3.org/2000/svg">
<defs>
<style>.cls-1{fill:#fff;}.cls-1,.cls-2,.cls-5{stroke:#333;}.cls-1,.cls-2,.cls-4{stroke-linecap:round;stroke-linejoin:round;}.cls-1,.cls-2,.cls-4,.cls-5{stroke-width:5px;}.cls-2{fill:#333;}.cls-3{opacity:0.05;}.cls-10,.cls-11,.cls-12,.cls-13,.cls-4,.cls-6,.cls-7,.cls-8,.cls-9{stroke:#000;}.cls-4{opacity:0.2;}.cls-5{fill:#00c600;}.cls-10,.cls-11,.cls-12,.cls-13,.cls-5,.cls-6,.cls-7,.cls-8,.cls-9{stroke-miterlimit:10;}.cls-13,.cls-6{fill:#f2f2f2;}.cls-10,.cls-6{stroke-width:2.08px;}.cls-13,.cls-7{stroke-width:0.69px;}.cls-8{fill:#944400;}.cls-11,.cls-8{stroke-width:2.78px;}.cls-10,.cls-11,.cls-9{fill:none;}.cls-9{stroke-width:1.39px;}.cls-12{stroke-width:0.71px;}</style>
</defs>
<title>hat3_5</title>
<path class="cls-1" d="M2898.54,1468c-429.33,147.72-1706.79-116.49-1647.32-292.14a51.08,51.08,0,0,1,4.54-8.17c29.52-213.62,327.48-624.16,966-539.55C2772,701,2951.27,1061.8,2898.54,1468Z"/>
<path class="cls-2" d="m2898.5 1468c-962.22 820-2805.9-6.73-1642.5-302-112.42 175.41 1205.2 452.44 1642.5 302z"/>
<path class="cls-3" d="m2896.3 1466.1c-46.15 15.7-103.88 27.23-171.63 34.27q-19.14 2-39.36 3.5c50.31-404.07-90.84-803.51-699.5-882.24l-0.82-0.1c75.57-4.81 154.6-1.8 236.44 9.05 132.59 17.57 248.49 52.76 344.48 104.6 90 48.58 163.43 112.29 218.37 189.34 51.76 72.49 87.29 157.18 105.76 251.6 17.4 89.23 19.51 186.78 6.26 289.98z"/>
<path class="cls-4" d="m2898.5 1468c-536.66 457.31-1347.5 402.43-1758 213.19 389.28 107.25 951.55 105.41 1393.1-170 145.71 0.81 274.16-12.05 364.81-43.19z"/>
<path class="cls-4" d="m1280.4 1239.1c-265 63.46-380.46 148.56-387 236.06-44.54-113.29 51.54-230.19 362.61-309.19-14.77 23-4.89 47.81 24.39 73.13z"/>
<path class="cls-5" d="m2014.4 1326.4c-73.74 3.59-370.76-68.83-390.06-128.14s83.84-326.72 161.65-354.49c86.9-31 358.65 56.15 374.82 115.08s-72.67 363.96-146.41 367.55z"/>
<path class="cls-6" d="m2055.6 1072.1c-7.15 11.81-22.39 14.67-41.86 10.78-14-2.79-30.12-9-47-18q-6.26-3.3-12.62-7.08c7.54-20.82 22.69-28.36 34.43-28.34a26.93 26.93 0 0 1 3 0.18c5 0.6 16.12 3.9 27.71 9.31 16.08 7.53 33.16 19.11 36.34 33.15z"/>
<path class="cls-6" d="m1888.9 1042.2c-2.27-0.83-4.56-1.8-6.85-2.89-17.34-8.25-35.14-23.62-48.44-38.25-12.4-13.62-20.9-26.58-21.53-32.57 3.89 0.34 18.93 4.39 37.77 10 14.44 4.28 31.12 9.47 46.7 14.59 10.42 3.42 20.35 6.81 28.8 9.87 20.34 42.89-1.1 52.08-36.45 39.25z"/>
<path class="cls-7" d="m1893.6 1023.3a48.22 48.22 0 0 1-11.52 16c-17.34-8.25-35.14-23.62-48.44-38.25 0.46-1.35 1-2.69 1.6-4a47.17 47.17 0 0 1 14.64-18.56c14.44 4.28 31.12 9.47 46.7 14.59 2.42 9.1 1.66 19.95-2.98 30.22z"/>
<path class="cls-8" d="m2013.6 1174.6c0.86 9.26-2.19 70-124.66 17.08s-148.45-125.68-142.3-138 32.35 13.67 53.13 28 126.06 82 177.23 85.46 55.48-19.89 60.81-28.86c5.79 18.03-5.11 33.65-24.21 36.32z"/>
<path class="cls-9" d="m1735.1 1044c4.78-4.79 26.64-5.14 35.06-0.78"/>
<path class="cls-9" d="m1754.3 1024.5c3.79 0.41 14.53 3.09 17.68 6.4"/>
<path class="cls-9" d="m1952.9 1014.3c3.7-10.23 0.9-44.28-48.93-67.09-55.73-25.52-106.76-22.38-118.54 10.16 13.63 5.87 26.64 11.06 26.64 11.06"/>
<path class="cls-10" d="m1799.1 963.17c9.5-8.39 76.4-35.7 126.24 39.73"/>
<path class="cls-9" d="m1893.3 942.65c25 9.57 68 66.4 52.14 96.45"/>
<path class="cls-9" d="M1921,1046.79c5.64.34,15,2.42,19.76,5.88a14.41,14.41,0,0,1-3.58,8.45c-1.93,2.13-6.13,3.92-7.52,4.27-11,2.81-48,25.95-86.59,15.85"/>
<path class="cls-9" d="m1810.7 996.23c4.11 19.87 50.19 62.23 116.82 69.74"/>
<path class="cls-9" d="m1993.5 1089.6c-3.66 2.7-18.42 7.65-40.78-12.75"/>
<path class="cls-9" d="m1965.4 1086.4c1.88 6.5 10.93 29 16 33.44"/>
<path class="cls-9" d="m2055.6 1072.1c3.55 11.73-22.27 49.26-54.32 37"/>
<path class="cls-9" d="m2009.9 1095.6c9.57 4.41 19.57 9.43 36.32-0.65"/>
<path class="cls-9" d="m2032.7 1106.3c3.11 4.3 12.08 17.1 5.1 32"/>
<path class="cls-10" d="m1972.8 1033.8c14.23-16.79 85.46-16.72 82.83 38.24"/>
<path class="cls-9" d="m2055.2 1061.8c9.17-2.84 48.44-46.66-51-60.76"/>
<path class="cls-9" d="m1978.4 1021.4c10.46-16 67.18-8.36 92 18.1"/>
<path class="cls-11" d="m1762.6 1070.6c15.41 19.48 182.58 149.34 251 104"/>
<path class="cls-12" d="m2020.5 1070.6a44.43 44.43 0 0 1-6.78 12.31c-14-2.79-30.12-9-47-18a44.74 44.74 0 0 1 2.64-12.86c3.82-10.57 11-18.61 19.17-22.56a26.93 26.93 0 0 1 3 0.18c5 0.6 16.12 3.9 27.71 9.31 4.61 8.45 5.41 20.17 1.26 31.62z"/>
<circle class="cls-13" cx="2009" cy="1060.3" r="9.78"/>
<circle class="cls-13" cx="1991.3" cy="1043.4" r="7.1"/>
<circle class="cls-13" cx="1985.1" cy="1060.3" r="6.4"/>
<circle class="cls-13" cx="1879.2" cy="1011.2" r="10.13"/>
<circle class="cls-13" cx="1856.4" cy="992.06" r="5.42"/>
<circle class="cls-13" cx="1854.8" cy="1006.6" r="6.63"/>
</svg>
