<?xml version="1.0" encoding="UTF-8"?>
<svg viewBox="0 0 4e3 4e3" xmlns="http://www.w3.org/2000/svg">
<defs>
<style>.cls-1{fill:#fff;}.cls-1,.cls-2{stroke:#333;}.cls-1,.cls-2,.cls-4{stroke-linecap:round;stroke-linejoin:round;stroke-width:5px;}.cls-2,.cls-6{fill:#333;}.cls-3{opacity:0.05;}.cls-4{stroke:#000;opacity:0.2;}.cls-5{fill:#fbdd11;}</style>
</defs>
<title>hat3</title>
<path class="cls-1" d="M2898.54,1468c-429.33,147.72-1706.79-116.49-1647.32-292.14a51.08,51.08,0,0,1,4.54-8.17c29.52-213.62,327.48-624.16,966-539.55C2772,701,2951.27,1061.8,2898.54,1468Z"/>
<path class="cls-2" d="m2898.5 1468c-962.22 820-2805.9-6.73-1642.5-302-112.42 175.41 1205.2 452.44 1642.5 302z"/>
<path class="cls-3" d="m2896.3 1466.1c-46.15 15.7-103.88 27.23-171.63 34.27q-19.14 2-39.36 3.5c50.31-404.07-90.84-803.51-699.5-882.24l-0.82-0.1c75.57-4.81 154.6-1.8 236.44 9.05 132.59 17.57 248.49 52.76 344.48 104.6 90 48.58 163.43 112.29 218.37 189.34 51.76 72.49 87.29 157.18 105.76 251.6 17.4 89.23 19.51 186.78 6.26 289.98z"/>
<path class="cls-4" d="m2898.5 1468c-536.66 457.31-1347.5 402.43-1758 213.19 389.28 107.25 951.55 105.41 1393.1-170 145.71 0.81 274.16-12.05 364.81-43.19z"/>
<path class="cls-4" d="m1280.4 1239.1c-265 63.46-380.46 148.56-387 236.06-44.54-113.29 51.54-230.19 362.61-309.19-14.77 23-4.89 47.81 24.39 73.13z"/>
<path class="cls-5" d="m1996.1 1251.9h-2.63c-6.61-0.13-13.08-0.83-19.92-1.57l-1.43-0.15h-0.17c-4.46-1.16-9.16-2.14-13.7-3.1-5.31-1.12-10.8-2.27-16.18-3.74-18.23-5-32.89-10.4-46.14-17.11a198.94 198.94 0 0 1-78.11-70.21 247.15 247.15 0 0 1-27-56.19 45.34 45.34 0 0 1-2.7-16.2c0.25-6.95 3.41-11.94 9.39-14.83 5.4-2.61 11-3 16.28-3.1h1a107.12 107.12 0 0 1 15.37 1.22 97.53 97.53 0 0 1 16.86 4.38c15.77 5.19 29.47 13.59 45.18 24.62q4.55 3.18 9.11 6.34c12.34 8.56 25.1 17.42 36.89 27.27a233.41 233.41 0 0 1 18.87 17.58c3.94 4.11 8.27 6.39 13.24 7a19.29 19.29 0 0 0 2.29 0.13 26 26 0 0 0 7.74-1.27c13.47-4.14 26.08-10.17 35.56-15 20.77-10.49 39.44-24.7 57.09-43.43 15.45-16.41 34.61-25.27 56.94-26.32 1.9-0.09 3.78-0.14 5.56-0.14a77.83 77.83 0 0 1 24.36 3.54c9.11 3 14.32 9.14 15 17.85 0.32 3.75-0.42 7.19-1.62 11.19a228.36 228.36 0 0 1-16.48 40.57 223.43 223.43 0 0 1-74.21 82.32c-17.29 11.57-34.22 19.4-51.76 23.94a138.38 138.38 0 0 1-34.68 4.41z"/>
<path class="cls-6" d="M1814.71,1068.16a107.6,107.6,0,0,1,15,1.19,96.18,96.18,0,0,1,16.43,4.29c16.33,5.36,30.6,14.51,44.53,24.28,15.49,10.87,31.28,21.33,45.83,33.49a229,229,0,0,1,18.66,17.39,23.89,23.89,0,0,0,14.77,7.71,22.25,22.25,0,0,0,2.57.14,28.44,28.44,0,0,0,8.47-1.38c12.49-3.84,24.33-9.24,36-15.12,22-11.09,40.93-26.05,57.78-44,14.9-15.82,33.42-24.51,55.24-25.53,1.81-.09,3.63-.14,5.44-.14A75.53,75.53,0,0,1,2159,1074c8.16,2.65,12.68,7.88,13.33,15.68a27.29,27.29,0,0,1-1.53,10.26A224.16,224.16,0,0,1,2154.5,1140a219.9,219.9,0,0,1-73.39,81.41c-15.78,10.56-32.57,18.83-51,23.6a135.62,135.62,0,0,1-34.06,4.42l-2.58,0c-6.89-.14-13.75-.92-20.94-1.7-9.68-2.51-19.88-4.12-29.85-6.83-15.73-4.29-31.08-9.55-45.66-16.93a195.55,195.55,0,0,1-77.14-69.34,243.68,243.68,0,0,1-26.77-55.62,43.31,43.31,0,0,1-2.57-15.32c.2-5.83,2.69-10.12,8-12.67,4.82-2.32,10-2.78,15.24-2.85h1m0-5h-1c-5.29.07-11.48.52-17.34,3.35-6.79,3.28-10.52,9.15-10.8,17a47.89,47.89,0,0,0,2.82,17.08,250.51,250.51,0,0,0,27.32,56.76,201.4,201.4,0,0,0,79.08,71.08c13.41,6.79,28.22,12.29,46.61,17.29,5.46,1.49,11,2.65,16.33,3.78,4.72,1,9.18,1.93,13.58,3.07l.35.09.37,0,1.23.13c6.91.75,13.43,1.46,20.15,1.59l2.67,0a141.1,141.1,0,0,0,35.32-4.58c17.81-4.61,35-12.56,52.52-24.29a225.83,225.83,0,0,0,75-83.23,230.75,230.75,0,0,0,16.66-41,32.42,32.42,0,0,0,1.73-12.11c-.82-9.8-6.62-16.72-16.77-20a80.3,80.3,0,0,0-25.13-3.66c-1.82,0-3.73,0-5.68.14-23,1.09-42.72,10.2-58.64,27.11-17.44,18.51-35.89,32.55-56.4,42.91-9.39,4.74-21.87,10.71-35.17,14.81a23.6,23.6,0,0,1-7,1.15,16.81,16.81,0,0,1-2-.11,18.89,18.89,0,0,1-11.71-6.2,238.58,238.58,0,0,0-19.08-17.77c-11.87-9.92-24.68-18.81-37.07-27.4-3-2.11-6.07-4.22-9.09-6.34-15.9-11.15-29.78-19.66-45.84-24.94a101.15,101.15,0,0,0-17.29-4.49,110.47,110.47,0,0,0-15.72-1.24Z"/>
<path class="cls-5" d="M1997.71,1125.22c-12,0-24-2.36-34.28-4.57-8.24-1.78-15.31-5.89-21.71-10.08-17.55-11.47-40.5-26.77-62.37-43.51-7.46-5.72-14.41-12.17-21.14-18.41l-3.1-2.88c-3.22-3-6.26-5.83-10.16-7.33a18.52,18.52,0,0,0-6.77-1.23,28.63,28.63,0,0,0-7.24,1c-10,2.63-19.49,7.17-27.86,11.17-15.93,7.61-28.44,15.09-39.36,23.52a238.42,238.42,0,0,0-26.54,24.3c-14.66,15.29-32.44,24-52.85,25.82-2.74.25-5.52.38-8.24.38a89.59,89.59,0,0,1-25-3.57c-9.76-2.83-15.81-11-15-20.44v-.1l1.36-8.28,0-.1a153.13,153.13,0,0,1,8.68-25,231.55,231.55,0,0,1,63.66-83.62c19.24-16.05,40.08-27.81,62-35a145.83,145.83,0,0,1,43.15-7.43l1.72,0c13.28,0,26.11,2.31,38.11,4.67a226.57,226.57,0,0,1,23.46,6c20.78,6.46,38.39,14.44,53.84,24.4,18.85,12.15,33.93,25.42,46.12,40.57a243.68,243.68,0,0,1,33.3,54.39c3.7,8.41,7.46,17.52,9.93,27.22a39.69,39.69,0,0,1,1.17,12.25c-.39,6.06-3.34,10.56-8.53,13s-10.75,2.7-15.56,2.74Z"/>
<path class="cls-6" d="M1816.59,942.42c12.73,0,25.19,2.18,37.63,4.63a221.62,221.62,0,0,1,23.2,6c18.74,5.83,36.69,13.46,53.23,24.12,17.17,11.07,32.67,24,45.53,40a239.44,239.44,0,0,1,33,53.83c3.85,8.74,7.44,17.55,9.79,26.83a36.71,36.71,0,0,1,1.1,11.47c-.31,4.92-2.48,8.73-7.1,10.92s-9.54,2.46-14.51,2.5h-.71c-11.45,0-22.63-2.12-33.75-4.52-7.67-1.65-14.39-5.48-20.87-9.72-21.18-13.84-42.12-28-62.22-43.41-8.15-6.24-15.59-13.28-23.11-20.25-3.63-3.36-7.14-6.88-11.92-8.72a21.09,21.09,0,0,0-7.66-1.39,31.15,31.15,0,0,0-7.87,1.12c-9.92,2.61-19.12,6.94-28.31,11.34-14,6.69-27.48,14.27-39.81,23.79a242.51,242.51,0,0,0-26.81,24.55c-14,14.63-31,23.23-51.28,25.06-2.68.24-5.35.37-8,.37a86.91,86.91,0,0,1-24.29-3.47c-8.73-2.53-13.92-9.65-13.26-17.84l1.32-8.07a149.63,149.63,0,0,1,8.53-24.56,228.14,228.14,0,0,1,63-82.73c18.26-15.23,38.46-27.1,61.14-34.52a142.52,142.52,0,0,1,42.41-7.31l1.67,0m0-5v0h0l-1.75,0A148.18,148.18,0,0,0,1771,945c-22.18,7.26-43.3,19.18-62.78,35.43a234,234,0,0,0-64.34,84.52,155,155,0,0,0-8.82,25.39l0,.2,0,.22-1.32,8.06,0,.2,0,.21c-.85,10.61,5.92,19.87,16.85,23a92.32,92.32,0,0,0,25.69,3.67c2.8,0,5.65-.13,8.46-.39,21-1.9,39.34-10.84,54.44-26.58a234.47,234.47,0,0,1,26.26-24c10.78-8.32,23.14-15.71,38.9-23.24,8.28-4,17.66-8.45,27.43-11a25.83,25.83,0,0,1,6.6-1,16.17,16.17,0,0,1,5.87,1.06c3.45,1.33,6.32,4,9.35,6.83l1,.89,2.15,2c6.77,6.28,13.76,12.77,21.32,18.56,21.93,16.79,44.93,32.13,62.52,43.62,6.61,4.32,13.91,8.57,22.55,10.43,10.4,2.24,22.52,4.63,34.81,4.63h.75c5.07,0,11-.31,16.61-3,6.06-2.88,9.5-8.1,10-15.12a41.87,41.87,0,0,0-1.24-13c-2.51-9.88-6.32-19.11-10.06-27.61a246,246,0,0,0-33.64-55c-12.36-15.36-27.64-28.8-46.72-41.1-15.64-10.08-33.45-18.16-54.45-24.69a225.8,225.8,0,0,0-23.72-6.1c-12.12-2.39-25.08-4.72-38.59-4.72Z"/>
</svg>
