<?xml version="1.0" encoding="UTF-8"?>
<svg viewBox="0 0 4e3 4e3" xmlns="http://www.w3.org/2000/svg">
<defs>
<style>.cls-1{fill:#fff;}.cls-1,.cls-2{stroke:#333;}.cls-1,.cls-2,.cls-4,.cls-6,.cls-7,.cls-8{stroke-linecap:round;}.cls-1,.cls-2,.cls-4,.cls-6{stroke-linejoin:round;}.cls-1,.cls-2,.cls-4{stroke-width:5px;}.cls-2{fill:#333;}.cls-3{opacity:0.05;}.cls-10,.cls-4,.cls-5,.cls-6,.cls-7,.cls-8{stroke:#000;}.cls-4{opacity:0.2;}.cls-5,.cls-8,.cls-9{fill:#fcff00;}.cls-10,.cls-5,.cls-7,.cls-8{stroke-miterlimit:10;}.cls-10,.cls-5,.cls-6,.cls-7,.cls-8{stroke-width:6.08px;}.cls-6{fill:#ae6646;}.cls-7{fill:none;}.cls-10,.cls-11{fill:#fefefe;}</style>
</defs>
<title>hat3_2</title>
<path class="cls-1" d="M2898.54,1468c-429.33,147.72-1706.79-116.49-1647.32-292.14a51.08,51.08,0,0,1,4.54-8.17c29.52-213.62,327.48-624.16,966-539.55C2772,701,2951.27,1061.8,2898.54,1468Z"/>
<path class="cls-2" d="m2898.5 1468c-962.22 820-2805.9-6.73-1642.5-302-112.42 175.41 1205.2 452.44 1642.5 302z"/>
<path class="cls-3" d="m2896.3 1466.1c-46.15 15.7-103.88 27.23-171.63 34.27q-19.14 2-39.36 3.5c50.31-404.07-90.84-803.51-699.5-882.24l-0.82-0.1c75.57-4.81 154.6-1.8 236.44 9.05 132.59 17.57 248.49 52.76 344.48 104.6 90 48.58 163.43 112.29 218.37 189.34 51.76 72.49 87.29 157.18 105.76 251.6 17.4 89.23 19.51 186.78 6.26 289.98z"/>
<path class="cls-4" d="m2898.5 1468c-536.66 457.31-1347.5 402.43-1758 213.19 389.28 107.25 951.55 105.41 1393.1-170 145.71 0.81 274.16-12.05 364.81-43.19z"/>
<path class="cls-4" d="m1280.4 1239.1c-265 63.46-380.46 148.56-387 236.06-44.54-113.29 51.54-230.19 362.61-309.19-14.77 23-4.89 47.81 24.39 73.13z"/>
<path class="cls-5" d="M1741.91,934.92a80.9,80.9,0,0,0-33.89,8.82c-6.77,3.53-19.85,12.24-49.83,64.6-14.63,25.57-22.41,39.16-29,60.81-3.32,11-9.52,32-9.28,59.76.15,17.23.41,46.28,15.1,71,15,25.24,42.73,35.93,97.61,56.28,47.65,17.67,84.6,26.07,116.25,33.14,71.64,16,102.5,15.9,115.17,15.56,34.86-.94,57.09-6.93,72.68-12.67,19.12-7,32.31-15.18,41.78-21.1,35.62-22.27,61.91-38.7,69.6-69.22,7-27.74-5-52.91-9.44-61.13-9.58-17.58-17.74-17.69-41.89-43-25.61-26.83-44.3-46.42-39.45-61.57,6-18.71,41.18-9.69,64.52-40.09,10.49-13.66,13.34-28.44,14.45-34.56,1.43-7.93,4.9-28.72-6.21-51-11.71-23.45-32-33.19-38.42-36.19-13.62-6.31-25.4-7.16-35.1-7.86a138.17,138.17,0,0,0-46.3,5.09,145.06,145.06,0,0,0-27.89,11"/>
<path class="cls-6" d="M1811.35,1169.87a212.1,212.1,0,0,1,39.62,5.6c21.63,5.19,34.41,11.9,52.24,19.29,24.11,10,42.29,14.93,67.7,21.83,33.92,9.22,57.59,12.27,95.4,17.22,49.51,6.47,69.39,5.69,84.17-7.11,3-2.61,11.26-7.32,11.6-15a14.45,14.45,0,0,0-5.68-11.76c-8.33-6.12-20.71,1.57-37.35,6.29-14.68,4.16-27.84,3.7-54.16,2.77-22.83-.81-39.44-4.15-57.65-7.9-30.19-6.22-65.46-13.48-106.22-32.61-11.28-5.3-27.23-13.5-51.71-21.41-24.78-8-35.61-8.38-45.75-5-4,1.32-23.54,7.83-26.76,25.34-2.22,12,4.18,24.55,13.21,30.47,9.37,6.14,18.33,3.08,31.73,3.07,16.45,0,23.8,4.57,54.2,16.13,0,0,35.3,13.43,82.84,27.44,31.75,9.36,21.3,4.29,70.48,17.39,40.1,10.68,59.08,17.26,80,8.21,14.44-6.24,19.08-11.54,20.49-14.58,3.58-7.67,1.56-15.64.39-19.24"/>
<path class="cls-7" d="m1748.8 1185.8a39.82 39.82 0 0 0 33.59 35.33"/>
<path class="cls-7" d="m1901.9 1099.2a180.4 180.4 0 0 0 75.79-17.45"/>
<path class="cls-7" d="m2066.9 1126.5a33 33 0 0 1-13.46-16.8"/>
<path class="cls-8" d="M2027.55,1098a146.83,146.83,0,0,0,42.87,17s35.46,8.31,65.44-.35c11.12-3.21,17.27-7.77,19.36-9.42,6.05-4.79,9.08-7.19,10.65-11.12a6.29,6.29,0,0,1,2.3-3.38c2.31-1.47,4.6.12,8.73.24,1,0,5.69.08,9.36-2.38,4.59-3.07,5.58-8.79,5.83-10.75"/>
<path class="cls-8" d="m1726.7 980.08a209.05 209.05 0 0 1 36.23-80.29c12.71-17.09 35.23-47.36 76.92-61.82 12.31-4.27 42.22-14.17 77.86-3.66 10.5 3.1 44.82 13.8 64.72 48.36a102.73 102.73 0 0 1 13.39 50.42"/>
<path class="cls-8" d="M1829.48,906.42a122,122,0,0,1,60.92-15.73c32.36.45,55.22,14.21,67.73,22a154.61,154.61,0,0,1,45.92,44"/>
<path class="cls-8" d="M1824.88,966.88a211.06,211.06,0,0,0,39.66-6.81c20.4-5.55,27.67-10.85,42.79-14.44,12-2.85,29.79-4.83,53.41.38,0,0,50.93,6.85,65.11,23.82,1.1,1.31,4,4.77,3.72,9.19a13,13,0,0,1-5.51,9.27c-8.89,5.83-22.75-9.95-52.42-21-9.34-3.48-21.53-7.91-37.77-8.35-15.44-.41-27.76,3-40.95,6.6-16.32,4.47-17.71,6.9-37.22,11.82-22.66,5.73-28.3,4.36-32,2.5-2.16-1.07-6.06-3.5-10.94-2.74-3,.47-7.53,2.33-8.4,6-.92,3.86,2.66,8,5.83,9.88,5.1,3.09,9,.47,16.48,2a29.41,29.41,0,0,1,12.85,6.45"/>
<path class="cls-5" d="m1987.5 936.35c6.34-0.79 15-1.68 25.37-2.11a297.35 297.35 0 0 1 71.87 5.53 274.06 274.06 0 0 1 64.05 22.1c20.13 13 34.07 23.79 35.78 27.2a10.59 10.59 0 0 1 1.11 4.54 9.33 9.33 0 0 1-1.35 4.52"/>
<path class="cls-5" d="m2199.6 1025a14.89 14.89 0 0 0 1.26-8.95c-1-5.27-5.12-8.6-8-10.64-23.79-17-56.17-23.53-56.17-23.53a251.86 251.86 0 0 0-31.32-4.18 246.88 246.88 0 0 0-38.93-0.34 244.34 244.34 0 0 0-38.13 5.94"/>
<path class="cls-8" d="M2029.31,994.32a292.74,292.74,0,0,1,45.35-4c15.94-.16,35.18-.23,59.37,5.85a204.13,204.13,0,0,1,42.11,16c14.53,7.5,15.66,10.58,24.78,16,1.77,1.05,7.59,3.28,8.67,7.85a8.18,8.18,0,0,1-.28,4.43,7.67,7.67,0,0,1-3.78,3.94"/>
<ellipse class="cls-9" transform="translate(707.41 2982.8) rotate(-80.93)" cx="2102.2" cy="1076.7" rx="18.83" ry="62.82"/>
<path class="cls-10" d="m2030 1025.1a128.94 128.94 0 0 1 78.71-22.25c19 0.95 32.28 5.93 45.33 10.81 0 0 29.31 10.95 52.52 34.9a11.65 11.65 0 0 1 3.21 5.58c1 4.73-1.69 9.05-2.95 11a27.26 27.26 0 0 1-11.76 9.72c-19.09 8.48-65.93 3.82-72.83 3.1-16.91-1.76-37.75-4.13-59.44-9.39-8.27-2-19.52-5.13-31.57-13.14a85 85 0 0 1-9.56-7.36"/>
<path d="m2078.1 1034c-0.21 1.39-1.79 13.15 5.9 23.24 11.27 14.81 35.23 16.48 49.42 7 2.16-1.43 9.31-6.35 12-15.63 3.33-11.57-2.8-21.33-4-23.17-4.57-7.35-11-10.54-14.88-12.49-5.48-2.74-15.78-7.9-27.56-4a31.63 31.63 0 0 0-20.88 25.05z"/>
<path class="cls-10" d="m2020 1000.5c2.62 1.16 7.39 3.35 9.79 8.24 0.72 1.46 1.56 3.85 0.66 12.69-1.16 11.44-1.74 17.15-6 22.3a24.31 24.31 0 0 1-9.56 6.82c-13.69 6-32.57 6.94-59.28 4.78-24.86-2-38.22-5.14-45.1-7.2a145.71 145.71 0 0 1-29.34-11.94c-9.68-5.27-10.65-7.25-16.39-12s-6.86-4.67-13.47-9.78c-8.12-6.27-12.18-9.41-11.82-12.94 0.4-4 6.8-6.7 9.77-7.87 29.87-11.86 44.81-17.78 59.35-19.7 13.37-1.77 24-3.17 38.34-1 3.15 0.48 13.52 3.68 34 10.54 1.98 0.64 14.35 6.12 39.05 17.06z"/>
<path d="M1943.24,980.6c1.85.77,16.4,7.12,21.14,23.1.86,2.89,3.75,12.61-1.08,22.79-5.17,10.88-15.56,14.7-19.25,16-11.56,4.25-21.71,1.5-26.45.14-6.93-2-19.14-5.49-24.69-17-5.82-12.1-.92-25.94,5.5-34,7.09-8.9,16.64-11.5,20.25-12.43A38.37,38.37,0,0,1,1943.24,980.6Z"/>
<path class="cls-7" d="m1838.7 1028.7a188 188 0 0 0 40.58 24.51c14.7 6.5 25.93 9.19 44 13.53a274.34 274.34 0 0 0 54.82 7.86c21.08 0.79 28.53-1.55 34-6.48 6.86-6.18 8.83-14.84 9.5-20.07"/>
<ellipse class="cls-11" transform="translate(624.11 2723) rotate(-80.43)" cx="1922.4" cy="992.43" rx="5.13" ry="5.56"/>
<ellipse class="cls-11" transform="translate(602.5 2738.1) rotate(-80.43)" cx="1920.6" cy="1012.8" rx="4.46" ry="4.84"/>
<ellipse class="cls-11" transform="translate(625.23 2756.1) rotate(-80.43)" cx="1942.6" cy="1008.3" rx="6.88" ry="7.46"/>
<ellipse class="cls-11" transform="translate(746.11 2923.1) rotate(-80.43)" cx="2101.8" cy="1020.3" rx="5.13" ry="5.56"/>
<ellipse class="cls-11" transform="translate(724.49 2938.2) rotate(-80.43)" cx="2099.9" cy="1040.6" rx="4.46" ry="4.84"/>
<ellipse class="cls-11" transform="matrix(.17 -.99 .99 .17 747.22 2956.2)" cx="2121.9" cy="1036.2" rx="6.88" ry="7.46"/>
</svg>
