<?xml version="1.0" encoding="UTF-8"?>
<svg viewBox="0 0 4e3 4e3" xmlns="http://www.w3.org/2000/svg">
<defs>
<style>.cls-1{fill:#fff;}.cls-1,.cls-2{stroke:#333;}.cls-1,.cls-2,.cls-4{stroke-linecap:round;stroke-linejoin:round;stroke-width:5px;}.cls-2{fill:#333;}.cls-3{opacity:0.05;}.cls-4{stroke:#000;opacity:0.2;}.cls-5{fill:#7f6202;}.cls-6{fill:#544002;}.cls-7{fill:#43370c;}.cls-8{fill:#594a15;}.cls-9{fill:#524417;}.cls-10{fill:#2a2003;}.cls-11{fill:#4b3b03;}.cls-12{fill:#322603;}.cls-13{fill:#675102;}.cls-14{fill:#765c02;}.cls-15{fill:#755902;}.cls-16{fill:#362901;}.cls-17{fill:#705701;}.cls-18{fill:#9f7c00;}.cls-19{fill:#503e02;}.cls-20{fill:#9a7700;}.cls-21{fill:#a07c00;}.cls-22{fill:#ab8500;}.cls-23{fill:#977701;}.cls-24{fill:#af8a00;}.cls-25{fill:#ae8901;}.cls-26{fill:#c79a00;}.cls-27{fill:#302502;}.cls-28{fill:#251c03;}.cls-29{fill:#292004;}.cls-30{fill:#967401;}.cls-31{fill:#846601;}.cls-32{fill:#cea000;}.cls-33{fill:#c49800;}.cls-34{fill:#c69a00;}.cls-35{fill:#8c6d00;}.cls-36{fill:#d0a200;}.cls-37{fill:#eb0;}.cls-38{fill:#c29700;}.cls-39{fill:#785f02;}.cls-40{fill:#ffc800;}.cls-41{fill:#e9b500;}.cls-42{fill:#f1bc00;}.cls-43{fill:#d9a900;}.cls-44{fill:#e2b100;}.cls-45{fill:#f2be00;}.cls-46{fill:#e7b400;}.cls-47{fill:#5a4502;}.cls-48{fill:#cc9f00;}.cls-49{fill:#fec700;}.cls-50{fill:#f3c100;}.cls-51{fill:#352a01;}.cls-52{fill:#2c2203;}.cls-53{fill:#ad8600;}.cls-54{fill:#191302;}.cls-55{fill:#010100;}.cls-56{fill:#8e6e00;}.cls-57{fill:#664f01;}.cls-58{fill:#352902;}.cls-59{fill:#191400;}</style>
</defs>
<title>hat3_6</title>
<path class="cls-1" d="M2898.54,1468c-429.33,147.72-1706.79-116.49-1647.32-292.14a51.08,51.08,0,0,1,4.54-8.17c29.52-213.62,327.48-624.16,966-539.55C2772,701,2951.27,1061.8,2898.54,1468Z"/>
<path class="cls-2" d="m2898.5 1468c-962.22 820-2805.9-6.73-1642.5-302-112.42 175.41 1205.2 452.44 1642.5 302z"/>
<path class="cls-3" d="m2896.3 1466.1c-46.15 15.7-103.88 27.23-171.63 34.27q-19.14 2-39.36 3.5c50.31-404.07-90.84-803.51-699.5-882.24l-0.82-0.1c75.57-4.81 154.6-1.8 236.44 9.05 132.59 17.57 248.49 52.76 344.48 104.6 90 48.58 163.43 112.29 218.37 189.34 51.76 72.49 87.29 157.18 105.76 251.6 17.4 89.23 19.51 186.78 6.26 289.98z"/>
<path class="cls-4" d="m2898.5 1468c-536.66 457.31-1347.5 402.43-1758 213.19 389.28 107.25 951.55 105.41 1393.1-170 145.71 0.81 274.16-12.05 364.81-43.19z"/>
<path class="cls-4" d="m1280.4 1239.1c-265 63.46-380.46 148.56-387 236.06-44.54-113.29 51.54-230.19 362.61-309.19-14.77 23-4.89 47.81 24.39 73.13z"/>
<path class="cls-5" d="m2129.6 1016.6c52.47-139.48-144.36-226.9-259.51-204.92-74 14.13-126 86.86-130.42 160.4 0 0-2.13 15.41-4.11 33.67-0.56 0.18-1.14 0.38-1.74 0.62-28.82 10.73-18.29 74.71-16.73 97.52l2.86 9.07a61.21 61.21 0 0 0 2.19 8.52c12.86 41.79 14.55 97.37 39.93 134.68 26.22 38.54 66.49 69.12 114 74.85 100.87 12.14 163-92.85 190.31-177.33 16-10.33 51.71-106.46 63.22-137.08z"/>
<path d="m1722.1 1121.5c12.86 41.79 14.55 97.37 39.93 134.68 26.22 38.54 66.49 69.12 114 74.85 108.75 13.08 172.42-110 196.08-196.67"/>
<path d="m2129.6 1016.6c52.47-139.48-144.36-226.9-259.51-204.92-74 14.13-126 86.86-130.42 160.4 0 0-10.71 77.26-6.3 90.87s316.7 98.86 332.28 91.16 52.25-106.41 63.95-137.51z"/>
<path class="cls-6" d="M2051.72,933.31c-26-16.32,48.52-25.08,3.13-41.52-6.92-2.51-14.2,6.49-19.31-1-1.8-2.65,4.66-4.6,2.27-7.85-11.11-15.12-6.94,1.38-15.52,12-19,23.63-32.15-5.37-54.56-5.72-23.44-.36-39.28,28.7-65.5,21.78,1.72-4.13,51.35-17,56.78-19.9,17.57-1.09,23.71,8.36,38.38,11.11,8.32,1.57,14.35,3.16,22.5-5.37,8.3-8.69,2.47-12.42,6.09-21.46,5-12.48,17.74-9,2.7-22.69-13.63-12.4-60.9-15-68.6-35.46,25.91,5.77,68.68,18.83,90.84,33.86,19,12.88,67.73,51.23,65,80.41-7.81,3-48.28-56.68-61.93-56.11-10.09.42-17.16,6.75-10,16.53,1.61,2.21,5.79-3.31,5.87-3.25,1.23.9,11.22,3.33,14.34,7.16,10.09,12.39,1.46,2.9-6.22,14.59-4.94,7.52-17.38,18.06-6.26,22.87,1.78.77,11-6.88,13-7.13,11-1.42,17.81,2.16,28.07,4.63"/>
<path class="cls-7" d="m1965.2 820c-2.29 6.09-65.26 18.79-70.53 18.83-20.37 0.17-59.55 34.68-81 6.87-4.21-5.47-18.84 11.28-27.61 26.53 3.4 1 38.87-31.12 43.85-33.46 16.17-7.57 34.92-20.86 53.07-22.09 16.52-1.11 25.63 0.27 41.85-2.4 2.93-0.45 42.84-0.84 40.37 5.72z"/>
<path class="cls-8" d="m1717 1103.9c-1.56-22.81-12.09-86.79 16.73-97.52 1.91 4.21-11.87 39.44-12.52 44.63-2.48 19.73-1.91 45.15 0.65 64.77 3.71 28.45 32.54 40.54 22.19 74"/>
<path class="cls-9" d="m1736.9 1007.6c-2.2 2.88-21.73 45.46-21 45.37 0.55-7.42 8.25-52.25 21-45.37z"/>
<path class="cls-10" d="m2065.1 949.94c12.27 6.62 3 23.53-7.31 20.79-14.48-3.84-3.13-20.42 7.31-20.79z"/>
<path class="cls-11" d="M2074.43,900.68c.17,7.42-28.34-2.76-22.89-2.77-8.28,0-17.6,15.85-22.56,14.36-8.08-2.44,6.22-14.75-3.1-16.79.9.2-16.58,10.07-20.47,9.91-2.7-.1-22.26-5.12-20.11-9.48,22.38-2.54,18.37,19,39.11-8.35,2.35-3.1,4.4-10.15,9.72-9.48,8.92,1.13,1.45,9.3,6.62,14,2,1.87,28.93-6.93,31.17,10.49,1,7.59-44.14,24.48-18.91,31.36,6.28,1.71,16.55-7.83,23.78-7.66,8.6.2,21.15,12.25,29.07,10.71,16-3.09-1.86-27.07-11.5-37.61-13-14.18-31.66-18.14-46.24-29.91-9-7.27-14.9-19.08-25.63-24-5.18-2.36-50-3.25-45.09-14"/>
<path class="cls-12" d="m1955.2 905.76c2-5.25 19.51-7.46 20-1 0.27 4.74-23.22 10.24-20 1z"/>
<path class="cls-13" d="M2070.1,1071c-2.12,54.78-22.15,109.42-47.13,157.58-13.31,25.66-27.26,36.85-52.7,48.61-18,8.34-27.09,22.52-43.72,32.72-37,22.69-95.16,0-125.16-25.34-17.31-14.61-61.65-62.17-54.6-86.79.07,0,33,55.11,35,58.08,20.23,30.48,33.31,39.66,69.27,50.91,18.09,5.66,35.52,13.37,54.9,8.88,21.48-5,26-20.06,41.3-32.83,13.21-11,28.79-10.66,43.37-18.28,21.18-11.06,26.46-29.82,36-49.68,9-18.64,30.58-45.15,30.47-66.48-.14-24.87-33.64,8.8-55.33,4.26-33.68-7.06-53.49-61.45-7.13-63.92,14.22-.76,58.58,29.13,64.07,26.1,10.64-5.88,11.36-35.92,11.42-46.42"/>
<path class="cls-14" d="m1747.1 1200c-5.81-24.84-1.5-42.57-16.82-62.94-15.91-21.17-11.35-45.13-10.91-72.5 0.21-12.78-0.66-52 14.4-58.19 23.52-9.62 21.87 35.75 27 47.74 11.4 26.58 14.87 9.64 23.94-5.4 10.88-18 31.86-49.43 52-57.27 10.67-4.16 20 3.19 29.41 0 8.86-3 7.69-3.23 10.85-5.51 22.14-16 22.91 2.33 42.55 0.77 5.49-0.43 10.29-7.52 14.78-10 11.2-6.06 20.77-8.52 33.72-9.56 32.09-2.58 53.23-3 75.54 23 19.36 22.62 26.15 53.18 26.17 82.43 0 10.5 1.07 26.61-4.26 35.85-8.86 15.38-7.85 8.77-21.4 3-17.22-7.39-38.36-23.82-58.79-16.83-35.33 12.08-8.67 46.52 14.82 53.38 16.22 4.74 50-19.6 58.29-5.85 7.55 12.57-23.86 70.18-28.5 79.54-17.64 35.6-28.75 43.5-60.53 61.91-22.87 13.25-48.79 34.56-77.16 36.15-30.4 1.7-74.59-15.56-96.22-36.73-23.23-22.64-32.51-55.79-48.88-82.99z"/>
<path class="cls-15" d="M1839.64,838.19c11.56-1.32,20.78-10.4,32.43-11.1a17.6,17.6,0,0,1,13.48-.18q7.48.36,9.56,8.5c17.46-.2,34-13.89,52.6-12.81,10.78.62,85.75,32.72,48.08,39.66-25.28,4.66-27.79-39.84-53.63-26.47-2.51,1.3-13.75,12.19-13.06,16.1,2,11.3,4.63.37,11.41,3.73,5.85,2.89,6.9-6.22,15,1.41.94.88-8.37,7.24-8.9,6.62,11.15,13.05,29.5,16.83,46.84,17.2,9.7.2,53.32-1.05,23.58,19.95-16.14,11.38-32-12.18-48.77-12.69-24.73-.74-49.44,33-75.44,22.16-20.84-8.7-12.24-22.13-40.32-11.29-22.81,8.82-39.42,15.17-64.11,13.18s-24.1-8-10.27-28.55C1792.36,862.38,1811.62,838.39,1839.64,838.19Z"/>
<path class="cls-16" d="m2005.4 1097.7c14.55 6.2 43.94 5.84 48.13 25.11 4.69 21.55-23.38 28.16-39.45 27.34-15.21-0.78-42.43-8.11-45.68-25.59-3.71-19.98 19.53-33.42 37-26.86z"/>
<path class="cls-17" d="m2107.8 923.6a22.48 22.48 0 0 1-0.64 10.42c2.14-1-63-8.64-60.8-3.11-5.25-12.94 25.46-17.41 24-28.68-2.21-16.6-24.22-9.55-28.23-14.55-10.16-12.68 12.84-14.28 22.61-11.21 18.23 5.74 34.33 31.4 43.06 47.13z"/>
<path class="cls-18" d="M1950.5,873.66c18.31,3.89,33.76,9.71,52.41,11.31,8.86.76,35.3,4.6,6.3,13.78-13,4.11-26.24-11.59-40-10.58-1.2.09-43.76,18.46-41.87,12,2.12-7.2,12.85-8.51,17.17-13.36,7-7.81-4.81-6.43-2.39-12.89Z"/>
<path class="cls-19" d="m1947 833.28c16.3-0.85 21.53 9.35 34 15.07 13.35 6.14 22.45 2.17 33.16 6.59 11.84 4.88 7.54 22.31-2.68 27.43-11.16 5.6-23.64-4.78-33.88-7.68-5-1.41-27.83-2.22-29.55-4.13-9.91-11 11.85-4.11 3.84-13.85-2.7-3.28-13.43 4.44-18.29 2.64-10.48-3.85-13.07-16.16 13.4-26.07z"/>
<path class="cls-20" d="m2025.4 846.76c3.91 1.7 17.18 19.87 9.57 23-13 5.35-23.11-28.38-9.57-23z"/>
<path d="m2048.7 1129.6c-8.22 37.3-92.14 4.61-74-22.51 12.25-18.34 82.11 0.96 74 22.51z"/>
<path class="cls-21" d="M1949.78,1259c28.39-11.78.88-14.68,5.21-29.14,5.1-17,8.86-2.74,11.12-7.42,4.44-9.22,5.63-19.33,17.22-24.74,6.72,1.45-1.4,10.59,8.48,10.76,10.2.17,18.65-1.55,27.08-6.9,5.16-3.26,19.43-26.66,26-25.4-2.56,8.71-11.36,22.3-18.22,28.59,2.9-2.66-15.63,18-15.14,26.25.89,14.65-3.76,19.77-18.7,29.47-12,7.76-26.66,10-38.48,17-12.17,7.21-18.86,28-30.83,32.43-9.55-36.32,88.73-40.47,71.31-66.67-9.93-14.93-20.85,3.12-30.37,9.69-14.6,10.06-38.63,13.71-30.7,34.49-.11-.29-43.84,7.21-46.52-16.81-2.78-25,23.36-5.23,25-16.18"/>
<path class="cls-22" d="M2008.92,1207.32c-20.86,5.86-13.76-7-27.79-11.92-8.17-2.89-23.7,5.13-31.91,5.07-16.32-.13-18-3-31.18-11.46-3.07-2-16.62-14.41-20.67-9.84-8.08,9.1,17.74,22.88,20.37,26.95,28.67,44.53-54.73,9.06-67.3,8.66-2.44,1.85,42.71,24.1,46,26.1,34.17,20.46,1.75,5.15-7.65,18.06-12.16,16.7,34.16,43.66,44.38,32.72,4.58-4.89-3.6-12.33-1.54-17.3,3.44-8.25,6.76-9.48,14.32-14.19,5.11-3.2,29.26-20.46,34.51-21.23,11.19-1.65,18.67,4.65,14.76,16.37-3.09,9.29-20.76,13.68-28.65,16.94-13.66,5.65-21,7.42-31,18.43-13,14.32-15.94,25.24-37.25,26.35-24.61,1.27-71-15.37-89-32.57-13.8-13.18-14.72-34.33-27.28-48.09-5.52-6-29.1-14.27-23.95-24.64,5.43-1.86,26.79,24.87,36.71,25.19,6.9.22,10.07-9.77,18.43-6.51,16.14,6.31-4.53,14.06-5,14.76-3.44,4.88-10.82-1.9-12.1,11.42-.6,6.25,5.07,12.36,8.44,16.74,10.36,13.41,30.13,23,45.6,29s41.74,14.69,58.45,10.53c4.44-1.11,16.75-2.73,17.26-9.71,1-13.44-16.15-6.22-22.59-10.22-5.36-3.33-22.24-19.92-21.53-26.92.77-7.56,14.12-11,14.21-15.58.23-11.65-54.22-28.15-46.65-36.41,11.88-13,95.7,36,55.26-19.18-7.19-9.8,17.83-1.89,29,1.68,12.32,4,23.22-3.57,34.89-3.26,11.45.31,10.56,2.61,21.08,5.41,11.26,3,12.53,6.14,24.82,1.67s37.5-24.69,34.27-39.27c-3-13.58-39,2-46.87-.83-10.38-2.12-19.31-11.53-26.65.67-2.67,4.42,5.66,20-1.17,22.18-2.41.77-20.67-70.63-6.67-76.27,1.14,11-3.84,25.32.17,35.69,6,15.65,8.1,9.09,24.82,10.86,10.06,1.07,18.81,5.71,29.22,5.36,5.84-.19,15.44-5.49,20.64-4.35C2055.44,1157.33,2025.77,1202.59,2008.92,1207.32Z"/>
<path class="cls-23" d="m2050.6 1004.1c-1.18-1.1-2.8-1.77-3.27-3.53 1.27 1.02 2.9 1.68 3.27 3.53z"/>
<path class="cls-23" d="m1922.2 991.91c-0.22 0.55-0.35 1.17-1.07 1.32 0.22-0.55 0.34-1.18 1.07-1.32z"/>
<path class="cls-21" d="m1725.9 1102.6a24.44 24.44 0 0 1-2.2 8.91q-1.26-4.5 2.2-8.91z"/>
<path class="cls-21" d="m1725.4 1097.8a5.49 5.49 0 0 1 0.49 4.77 10.45 10.45 0 0 1-0.49-4.77z"/>
<path class="cls-21" d="m1742.1 1027.3c0.87 0.27 1.59 0.7 1.62 1.76a3 3 0 0 1-1.62-1.76z"/>
<path class="cls-21" d="m1744.8 1152.7c0.52 0.8-0.06 1.48-0.26 2.19-0.52-0.8 0.06-1.47 0.26-2.19z"/>
<path class="cls-21" d="m1720.8 1061.2a1.63 1.63 0 0 1 0.44 1.88 1.63 1.63 0 0 1-0.44-1.88z"/>
<path class="cls-21" d="m1775.4 1073.1a1.6 1.6 0 0 1-1.56 1.12 1.6 1.6 0 0 1 1.56-1.12z"/>
<path class="cls-21" d="m1777.5 1070.4c-0.22 0.55-0.35 1.17-1.06 1.32 0.22-0.55 0.34-1.17 1.06-1.32z"/>
<path class="cls-21" d="m1722.1 1068.5c0.46 0.58 0.13 1.13-0.06 1.69-0.44-0.58-0.13-1.14 0.06-1.69z"/>
<path class="cls-21" d="m1724.6 1086.1c0.45 0.58 0.13 1.13-0.06 1.69-0.45-0.58-0.13-1.13 0.06-1.69z"/>
<path class="cls-21" d="m1724.5 1089.5c0.44 0.58 0.13 1.13-0.07 1.69-0.43-0.59-0.13-1.16 0.07-1.69z"/>
<path class="cls-21" d="m1745.3 1148.3c0.45 0.58 0.13 1.13-0.06 1.69-0.45-0.58-0.13-1.14 0.06-1.69z"/>
<path class="cls-21" d="m1745.3 1150c0.45 0.58 0.13 1.14-0.07 1.69-0.44-0.57-0.12-1.12 0.07-1.69z"/>
<path class="cls-24" d="m1896.2 885.84c-1.32-0.31-12.21 7-13.44 4.7-7.48-13.7 23.89-32.64 29.9-43.21 6.24-11-3.59-12.34 13.54-18.19 1.68-0.57 20.39-0.59 20.71-1.13-4 6.83-14.67 8.36-18.11 17.75-2.62 7.12 0.93 13.84 0.4 19.63-1.51 16.12-9.78 27.23-33 20.45z"/>
<path class="cls-25" d="m1946.6 829.7q2.43-4.55-2.7-5c8-6.38 61.27 17.51 59.77 26-1.81 10.34-22.78 0.9-27.86-2.34-10.27-6.55-15.26-24.64-29.21-18.66z"/>
<path class="cls-25" d="m1926 849.46c0.72-1.25 0.55-3 2-3.83-0.74 1.25-0.58 2.97-2 3.83z"/>
<path class="cls-25" d="M1928,845.63c.48-1.27.82-2.63,2.33-3.14A8.13,8.13,0,0,1,1928,845.63Z"/>
<path class="cls-25" d="m1936.9 829.5a2.27 2.27 0 0 1-3.26 1.06z"/>
<path class="cls-25" d="m1936.5 835.09c0.71-1 1.37-2.18 3-1.76-1.04 0.58-1.76 1.61-3 1.76z"/>
<path class="cls-25" d="m1933.6 830.56c-0.81 0.54-1.48-0.06-2.2-0.25 0.8-0.52 1.48 0.06 2.2 0.25z"/>
<path class="cls-25" d="m1930.9 830.12c-0.81 0.53-1.48-0.06-2.2-0.25 0.8-0.52 1.48 0.06 2.2 0.25z"/>
<path class="cls-25" d="m1934.2 838.23c0.32-0.67 0.32-1.57 1.25-1.82-0.33 0.67-0.33 1.59-1.25 1.82z"/>
<path class="cls-25" d="m1935.4 836.41c0.23-0.55 0.35-1.18 1.07-1.32-0.22 0.55-0.35 1.17-1.07 1.32z"/>
<path class="cls-25" d="m1928.2 829.68c-0.58 0.45-1.14 0.13-1.7-0.06 0.59-0.45 1.14-0.13 1.7 0.06z"/>
<path class="cls-26" d="m1990.6 893.34q-7.26-0.54-6.25-7.25 8.51-3.74 13.55 4-1.29 6.41-7.3 3.25z"/>
<path class="cls-27" d="m1932.4 888.71c-5.48 7.39-15.37 12.35-23.81 6.13-7.08-5.21 25.86-11.53 23.81-6.13z"/>
<path class="cls-28" d="m1995 868c4.77 1.8 27.31-22.07 21.55-0.89-2.26 8.31-14 15.44-22.51 12.92-17.19-5.1 0.54-11.03 0.96-12.03z"/>
<path class="cls-29" d="m1974 856c26.63 4.72-25 17.31-25.57 10.43-0.51-5.67 21.15-12.03 25.57-10.43z"/>
<path class="cls-30" d="m2100.5 930c-15.75-5-24.16-3.64-39.36-2.3-6 0.52-20.74 9.93-12.38-5.16 4-7.17 20.47-6.36 23.38-12.89 6.25-14-8.88-7.55-9.53-15.43-3.68-45.02 60.82 48.85 37.89 35.78z"/>
<path class="cls-31" d="m1964.2 1250.7c-17.3 22.66-42.85 3.45-61.38-6.28-4.84-2.54-52.8-22.16-51.44-27.55 0-0.26 58.73 15.45 64.26 13.92 33.11-9.16-26.79-35.14-17.8-50.83 4.37-7.6 28.21 14.75 31.3 16.14 10.19 4.58 37.08-3.7 41.71 7.8 3.24 8-14.69 19.76-15.57 28.95-0.58 5.91 16.41 11.42 8.92 17.85z"/>
<path class="cls-32" d="M2046.24,1041c-.88,14.75,18.17,30.33,9,48.61-6.36,12.74-6.17,8.3-22.52,6.63-13.72-1.4-22.45-9.74-38.11-7.58-52.29,7.21-17.05,92.76-20.94,93.9,5.88-1.72-1.82-18.28,1.65-22.38,9.39-11.13,14.91-2.07,26.92-.44,8,1.07,40.87-5.78,43.82-4.07,13.69,7.94-15.82,35-20.62,38.28-25.7,17.42-27.35,4.58-51.19-.41-14.8-3.09-25.69,4.17-41.78-1.59-3.83-1.37-34-21.19-37.66-12-6.32,16,47.43,35.57,11.26,46.48-9,2.72-60.83-24.33-57.62-5.63,1.32,7.68,33.43,12.59,38.44,15.3,24.7,13.36,8.74,5.51,3.1,17.81-7.66,16.75-4.53,21.76,13.54,33.33,11.69,7.47,33.09,11.45,13.25,24.42-28.3,18.51-91.58-22.17-110.28-36.57-.45-5.68-8-11.59-7.16-17.3,1-6.65,8.46-6.62,9.06-8.33,4.09-11.58,14.28-9.94.4-19.82-7.82-5.56-24.1-1.7-33.47-6.48-16.05-8.18-26.85-27.93-29.25-45.2-2.76-19.92,1-25.49-9.87-41.64-3.43-5.11-9.33-4.55-12.31-12.14-3.31-8.42.64-16.61,1-25.12.61-13.55-8.71-38.7-1.29-51.11,3.67-6.13,18.38-7.33,20-12.44,2.12-6.59-13.49-19-7.74-21.3,7.23-2.89,15.85,14.37,17.39,19.2,6.4,20.18-26.86,44.08,12.84,38.64,15.62-2.14,13.81-6.21,21.74-19.44,9.2-15.35,18.29-25.4,33.8-35.23,15.74-10,27.08-14,45.41-14.46-1.35,0,27.56,2.55,24.27.3-4.79-3.29-6.93-13.1-2.54-18.55,10.43-13,14.13,2.07,20,3.41,11,2.5,3.48,4.78,16.45-.7,13.48-5.68,24.17-12.51,39.41-14.56,22.26-3,49.15-.18,68.16,12.63,10.1,6.81,18.48,16.39,20.79,28.69"/>
<path class="cls-33" d="m1990.3 1252.8c-3.53 7-46.37 29.15-47.31 16.22-0.71-9.74 55.31-39.79 47.31-16.22z"/>
<path class="cls-34" d="m1786.2 879.8c7.39-23.72 32.93-32.13 54-39.26 7.2-2.44 42.66-17.59 45.28-6.74 2.41 9.94-23.87 19.85-30.24 24.61-3.66 2.73-23 6.23-15.82 15.61 4.88 6.4 16.68 0.19 21.56-2.41 4.35-2.32 37-32.46 25.84-3.55-3.88 10.07-26.21 14.72-34.76 18.35-17.93 7.59-83.63 40.59-65.86-6.61z"/>
<path class="cls-35" d="m1849.1 866.29c1.53-2.56 20.78-16.51 23.64-13.76 8.22 7.87-29.34 28.36-23.64 13.76z"/>
<path class="cls-36" d="m1933.2 836.22c-1.8 8.75-8 18.41-9.36 25.75-0.31 1.68 6.59 3.78 4.29 11.58-3.31 11.23-36.07 20.15-40.2 7.62-3.91-11.88 21.53-21.7 26.78-29.69 3-4.59-2.43-13.77 1.7-17 2.69-2.12 20.13-6.9 16.79 1.74z"/>
<path class="cls-37" d="m1977.4 839c-1.75-0.42 17 8.19 16.22 10.87-4.32 15.75-36.72-18.56-16.22-10.87z"/>
<path class="cls-38" d="m2097.6 926.59c-4.48-1.27-37.95-4.74-38.57-6.47s16.93-13.45 16.74-21.16c0-1.59-22.85-19.06-2.17-12.86 12.51 3.75 31.76 43.41 24 40.49z"/>
<path class="cls-39" d="m1956.7 1241c18.81 7.08-13.37 18.56-21.23 17.53-9.81-1.29-19.76-8.19-28.57-12.68-4.15-2.11-53.43-26.73-52.84-28.27 2.32-6.15 57.49 17.84 65 16.35 33.32-6.59-10.14-30.46-15.43-42.28-4.34-9.73-8.91-15.07 5.16-11.21 6.11 1.67 9.62 11.57 14.9 14.46 7.13 3.91 11.62 3.07 19.5 4.41 13.1 2.23 24.39-2.37 21.94 12.39-0.8 4.84-10 10.1-11.5 15.47a18 18 0 0 0-4.47 9 11.19 11.19 0 0 0 7.54 4.83z"/>
<path class="cls-40" d="m1963.6 1186.4c-24.07 1.55-22.91 8.61-45.38-4-11.25-6.32-36.81-17.08-25.06 7 4.75 9.75 25.59 11.08 21 25.49-4.74 14.89-27.57 4-37.23 1.72-6.9-1.64-29.83-10.45-33.2-2.33-6.37 15.37 39.5 15.42 43.29 24.68 6.17 15-11.22 11.41-11.4 27.79-0.21 19.48 31.37 25.82 42.61 36.9 1.89 1.86-42.93 0.52-48.78-1.18-16-4.66-54-16-59.76-33.86-5.32-16.53 18.8-22.33 12.54-37.21-6.06-14.4-43.79-12.17-57-24.42-25.06-23.21-5.94-34.12-15.38-57.92-3.64-9.16-10-5.83-15-11.93-8.84-10.77-8.36-16.3-8.28-29.93 0.08-11.84-8.07-48-2-56.91 5.31-7.83 26.1-9.18 25.79 1.76-0.51 17.36-24.9 14.11 1.87 21.44 15.34 4.2 25 1.69 34.67-11.59 17.17-23.45 25-43.09 56-52.49 10-3 53.51 6.34 56.36-2 2.4-7-21.5-22.34-2.27-23.33 23.15-1.19 1.34 22.62 25.31 13.4 21.54-8.27 34.16-23.26 61.18-23.92 23.32-0.57 52.55 10.61 61.79 34.52 5.77 14.92-3.06 34.9-2.63 52.42 0.56 23.06-0.83 28.25-25.79 27.85-22.89-0.37-43.4-6.77-53.75 19.93-9.27 23.87 3.21 53.31 0.5 78.12z"/>
<path class="cls-41" d="M2044.91,1165.32c-7.5,12.87-24.67,38-42.72,35.84-11.72-1.41-32.58-23.49-26.94-36.32,8-18.25,32.16,2.21,43.8,3.23,4.43.39,28.23-.93,27-7.83Z"/>
<path class="cls-42" d="m1965.9 1265.1c-10-3.83 11.88-21 17.57-18.64 10.1 4.26-11.11 21.11-17.57 18.64z"/>
<path class="cls-43" d="m1829.5 883.46c7.55-14.16 16 2.38 0.84 13-10.29 7.19-39.25 12.28-45.6-1.53-7.25-15.74 17.26-35.74 27.79-42.25 6.79-4.19 15.38-8.88 23.36-9.62 17.07-1.6 8.51 1.89 17.06 6.39 3.7 1.95 16.31-17.77 21.92-18.57 18.32-2.61-3.08 15.9-8 19-12 7.4-33.07 3.59-42.06 14.44-10.8 12.99 3.73 21.73 4.69 19.14z"/>
<path class="cls-44" d="m1864.2 872c1.52-3.21 11.58-16 16-14.5 15.56 5.34-25.37 31.9-16 14.5z"/>
<path class="cls-45" d="m1926.6 872.16c-9.93 13.15-44.8 9.92-23.61-7.29 5.4-4.39 27.65-4.59 23.61 7.29z"/>
<path class="cls-46" d="m2098 923.89c-6-1.85-20.6-12.07-16-18.46 8.54-11.75 24.74 20.68 16 18.46z"/>
<path class="cls-47" d="m1905.4 1179.9c11.22 3.62 13.06 18 23.41 22.53 8.16 3.58 28.82-6.49 34.71 1.93 5.27 7.53-14 19.87-14.2 31.71-0.19 10.69 19.48 0.62 7.72 16.86-6.46 8.91-22.52 3.11-30.35 0.34-11.56-4.09-32.59-28.6-44.69-26.67 17-2.71 49.36 23.58 45.56-5.49-0.88-6.74-29.09-43.82-22.16-41.21z"/>
<path class="cls-48" d="m1930.8 1058.7c29.77 14.24 27 37.77-0.65 49.47-32 13.53-45.47 2.11-69.43-16.26-17-13-35.22-29.12-0.42-38.5 19.9-5.37 51.69-3.5 70.5 5.29z"/>
<path class="cls-49" d="m1985.4 1161.8c5.4 1.08 50.1 19.23 51.29 13.37-1.75 8.63-28.15 22.21-36.24 21-17.05-2.52-16.63-34.96-15.05-34.37z"/>
<path class="cls-50" d="m1788.4 879.93c4.41-13.57 27.27-35.62 43-32.38-5.06-1-20.38 20.52-24 24.27-2.78 2.97-28.86 23.29-19 8.11z"/>
<path class="cls-50" d="M1843.88,844.93c2.13.68,7.36,11.84,2.39,12.34-2.09.21-10.91-10.11-7.8-11.67Z"/>
<path class="cls-51" d="m1928.5 1253.8c-4.36-0.93-41.54-19.4-40.2-23.4 0.16-0.47 46.67 7.53 49.19 8.28 26.59 7.91 14.2 23.85-8.99 15.12z"/>
<path class="cls-52" d="m1964 1208.5c-5.92 29.09-44.06 20.7-35.59 1.6 2.21-4.97 38.77-9.76 35.59-1.6z"/>
<path class="cls-52" d="m1908.4 1191.3q-9.12-2.62-7.64-9.72c5.29-5.41 18.1 13.65 7.64 9.72z"/>
<path class="cls-53" d="m1928.8 1060.4c46.51 11.31-11.5 71.36-53.31 41.22-18.28-13.17-44.94-26.49-18.52-41.53 16.3-9.27 55.32-7.47 71.83 0.31z"/>
<path class="cls-54" d="m1910.5 1239c-0.07 0 44.41 5.92 44.1 9.33-0.97 10.67-45.54 0.78-44.1-9.33z"/>
<path class="cls-55" d="m1955 1212.6c-3.35 6.2-26.17 26.08-23.08 4.45 1.68-11.96 23.49-5.52 23.08-4.45z"/>
<path class="cls-56" d="m1904.6 1057.5c13.58-0.5 35.09 5 39.92 20 6 18.58-19.58 36.62-37.61 34-11.75-1.69-7.62-5.44-13.92-9.56-7.59-5-17.85-10.2-27.71-15.09-7.4-3.68-19.93-5.75-17.72-16.44 2.02-9.84 49.03-12.62 57.04-12.91z"/>
<path class="cls-57" d="m1851.3 1072.4c4.48-10.6 28.23-2.86 36.46-4.34s13.33-8.81 26.39-7.64c18.22 1.63 46.15 22.6 24 39.91-13.64 10.61-92.97-15.06-86.85-27.93z"/>
<path class="cls-58" d="m1941.3 1089c-6.64 17.46-79.28 3.89-84.33-11.13-2.63-7.82 7.36-8.89 11.77-9.77 5.64-2.71 24.82-7.75 34.13-8 14.03-1.91 46.01 8.72 38.43 28.9z"/>
<path class="cls-59" d="m1938.7 1088.4c-10.9 22.4-81.25-11.89-80.75-13.28-0.9 2.52 43-10.05 45-10.32 13.09-1.75 43.09 3.97 35.75 23.6z"/>
<path d="m1899.1 1071.7c2.57-12.87 45.29-1 37.94 15.22-6.59 14.53-63.67-0.76-62.79-7.92 0.8-6.52 22.54 3.1 24.85-7.3z"/>
<path class="cls-5" d="m1912.6 851.48c-3.35 6.68-22.06 17.54-22.33 5.46-0.22-9.82 26.73-23.29 22.33-5.46z"/>
</svg>
