<?xml version="1.0" encoding="UTF-8"?>
<svg viewBox="0 0 4e3 4e3" xmlns="http://www.w3.org/2000/svg">
<defs>
<style>.cls-1{fill:#fff;}.cls-1,.cls-2{stroke:#333;}.cls-1,.cls-2,.cls-4{stroke-linecap:round;stroke-linejoin:round;stroke-width:5px;}.cls-103,.cls-2{fill:#333;}.cls-3{opacity:0.05;}.cls-4{stroke:#000;opacity:0.2;}.cls-5{fill:#a15534;}.cls-6{fill:#060208;}.cls-7{fill:#291816;}.cls-8{fill:#7a6656;}.cls-9{fill:#9b6150;}.cls-10{fill:#b1a085;}.cls-11{fill:#9a593c;}.cls-12{fill:#2d1714;}.cls-13{fill:#786987;}.cls-14{fill:#7c7b71;}.cls-15{fill:#9b8985;}.cls-16{fill:#473a5a;}.cls-17{fill:#8990a9;}.cls-18{fill:#9c5d43;}.cls-19{fill:#81412a;}.cls-20{fill:#4a2b36;}.cls-21{fill:#705653;}.cls-22{fill:#be7352;}.cls-23{fill:#4c404d;}.cls-24{fill:#b87a73;}.cls-25{fill:#a28c77;}.cls-26{fill:#866d66;}.cls-27{fill:#a1583c;}.cls-28{fill:#83412a;}.cls-29{fill:#713529;}.cls-30{fill:#74412e;}.cls-31{fill:#95574e;}.cls-32{fill:#c76f4d;}.cls-33{fill:#2f1420;}.cls-34{fill:#a89383;}.cls-35{fill:#cdb9b2;}.cls-36{fill:#432e35;}.cls-37{fill:#827375;}.cls-38{fill:#1d0c1d;}.cls-39{fill:#220709;}.cls-40{fill:#4d2e29;}.cls-41{fill:#483930;}.cls-42{fill:#ba6c48;}.cls-43{fill:#a75c3d;}.cls-44{fill:#5f2b1e;}.cls-45{fill:#7d402f;}.cls-46{fill:#7c493a;}.cls-47{fill:#61432d;}.cls-48{fill:#da8e6a;}.cls-49{fill:#d58b6a;}.cls-50{fill:#dc8d65;}.cls-51{fill:#cd8568;}.cls-52{fill:#0c0511;}.cls-53{fill:#716164;}.cls-54{fill:#492e2e;}.cls-55{fill:#251625;}.cls-56{fill:#bb775a;}.cls-57{fill:#aa6148;}.cls-58{fill:#a25842;}.cls-59{fill:#b26344;}.cls-60{fill:#0c040f;}.cls-61{fill:#e9d6cb;}.cls-62{fill:#d5c2bd;}.cls-63{fill:#685644;}.cls-64{fill:#d37f5c;}.cls-65{fill:#bd6a49;}.cls-66{fill:#e48a63;}.cls-67{fill:#b96645;}.cls-68{fill:#bd5e37;}.cls-69{fill:#b9704b;}.cls-70{fill:#d78464;}.cls-71{fill:#12081b;}.cls-72{fill:#3d2818;}.cls-73{fill:#e5d5c5;}.cls-74{fill:#614c3c;}.cls-75{fill:#8f4220;}.cls-76{fill:#a05e45;}.cls-77{fill:#a15436;}.cls-78{fill:#88402f;}.cls-79{fill:#751e0b;}.cls-80{fill:#933920;}.cls-81{fill:#af654d;}.cls-82{fill:#b86f5d;}.cls-83{fill:#a85736;}.cls-84{fill:#833f1d;}.cls-85{fill:#f49875;}.cls-86{fill:#564040;}.cls-87{fill:#76614e;}.cls-88{fill:#4d3530;}.cls-89{fill:#803119;}.cls-90{fill:#711107;}.cls-91{fill:#cb7857;}.cls-92{fill:#bd6949;}.cls-93{fill:#d48e74;}.cls-94{fill:#cd7654;}.cls-95{fill:#877060;}.cls-96{fill:#3a231f;}.cls-97{fill:#5f0f0c;}.cls-98{fill:#e28967;}.cls-99{fill:#cf6f47;}.cls-100{fill:#fdecdd;}.cls-101{fill:#130508;}.cls-102{fill:lime;}</style>
</defs>
<title>hat3_1</title>
<path class="cls-1" d="M2898.54,1468c-429.33,147.72-1706.79-116.49-1647.32-292.14a51.08,51.08,0,0,1,4.54-8.17c29.52-213.62,327.48-624.16,966-539.55C2772,701,2951.27,1061.8,2898.54,1468Z"/>
<path class="cls-2" d="m2898.5 1468c-962.22 820-2805.9-6.73-1642.5-302-112.42 175.41 1205.2 452.44 1642.5 302z"/>
<path class="cls-3" d="m2896.3 1466.1c-46.15 15.7-103.88 27.23-171.63 34.27q-19.14 2-39.36 3.5c50.31-404.07-90.84-803.51-699.5-882.24l-0.82-0.1c75.57-4.81 154.6-1.8 236.44 9.05 132.59 17.57 248.49 52.76 344.48 104.6 90 48.58 163.43 112.29 218.37 189.34 51.76 72.49 87.29 157.18 105.76 251.6 17.4 89.23 19.51 186.78 6.26 289.98z"/>
<path class="cls-4" d="m2898.5 1468c-536.66 457.31-1347.5 402.43-1758 213.19 389.28 107.25 951.55 105.41 1393.1-170 145.71 0.81 274.16-12.05 364.81-43.19z"/>
<path class="cls-4" d="m1280.4 1239.1c-265 63.46-380.46 148.56-387 236.06-44.54-113.29 51.54-230.19 362.61-309.19-14.77 23-4.89 47.81 24.39 73.13z"/>
<path class="cls-5" d="m1898.4 774.92c59.1-1.14 92.68 105.35 78.39 154.26-13.75 47.08-123.67 91-166.89 74.57-39.08-14.85 9.42-17.81 1.77-51.42-3-13.39-13.69-38-13.17-51.88 1.79-48.67 45.3-124.45 99.9-125.53z"/>
<path class="cls-6" d="m2139.9 938.14c-4.73-1.09 40-25.26 45.08-27.29 17.4-7 57.3-26.27 76.51-17.39 8.19 3.79 9.59 7.73 6.17 16.53-7.71 19.85-31.91 3.15-37.34 18-2.27 6.2 5 19.85 6.41 25.94a128.27 128.27 0 0 1 3.12 37.39c-1.78 31.57 1.59 62.17 2 93.7 0.34 28.41-3.76 58.3-22.37 81s-43.69 23.31-70.62 28.15c-46.07 8.28-49.77 37.81-62.91 77.32-7.58 22.77-16.25 71.17-46.21 42.59-28.38-27.07-21.93-76.56-14.4-110.79 7.7-34.95 20.55-68.51 41.77-97.44 9.32-12.71 60-83.31 77.66-50.61-9.19-16.93-37.76-114.4-4.87-117.1z"/>
<path class="cls-7" d="m1670.8 1153.7c90.74-110.14 185.44-180.4 328.82-145.76 40.05 9.67 122-9.35 150.51 25 36.15 43.58-37.61 121.5-50.21 169.86-11 42.07-5.4 107.86-43.73 136-39.73 29.16-115.41-0.55-160.42-8.64-87.42-15.7-270.72-43.48-224.97-176.46z"/>
<path class="cls-8" d="m2116.8 868.25c0 25.19-43.08 25.18-43.41 0s43.41-25.38 43.41 0z"/>
<path class="cls-8" d="m2079 857.45c0 34.95-68.32 34.85-67.92 0s67.92-34.96 67.92 0z"/>
<path class="cls-9" d="m2227.5 906.22c0 67.66-121.05 71-126.77 2.3-5.16-61.99 126.77-63.52 126.77-2.3z"/>
<path class="cls-10" d="m1959.1 992.48c0 25.37-46.51 17.61-46.87-7.75s46.87-17.8 46.87 7.75z"/>
<path class="cls-11" d="m1906.1 977.24c0 24.35-47.76 24.37-48.22 0s48.22-24.5 48.22 0z"/>
<path class="cls-12" d="m1891.4 1026.2c0 56.46-108.23 56.46-108.23 0s108.23-56.7 108.23 0z"/>
<path class="cls-12" d="m1798 1061.3c0 53.07-58.66 0-59.49 0 0.81 0 59.49-53.08 59.49 0z"/>
<path class="cls-12" d="m1774.8 1087.1c0 56-90.58 66.19-90.58 10.18s90.58-66.19 90.58-10.18z"/>
<path class="cls-13" d="m2047.5 877c4.3 1 19.39-0.77 27.3 1.57 15.26 4.52 17.08 8.91 25.12 22.64 6.52 11.13 17 17.76 23.68 28 4.64 7.11 3.18 15.43 6.87 22.15-6.61-12.06-7.47-20.84-17.35-31.33-8.39-8.92-12.76-16.32-19.6-26.48-10.66-15.79-27.33-18.55-46.02-16.55z"/>
<path class="cls-14" d="m2024.1 874.55c-23-7.86-10-45.72 11.57-43.87 3.8 0.33 10.58 6.66 12.69 9.71 2.38 3.44 4.11 4 6 8.14 2 4.45-7.36 6.68 2.11 10.47a6.05 6.05 0 0 1-3.83 2.6q-4.92-2.43-2.9-8c-2.4-2.88 3.74-10.36-6.19-10.36-9.47 0-3.31 13.07-13.45 7.45-4.49-2.48 0.21-22.38-13-4.91-10.51 13.92 11.06 18.71 7 28.77z"/>
<path class="cls-15" d="m2056.6 858.84c-6.65 7.75-3.66-9.52-4.17-10.75-2-4.83-9.47-9.85-10.18-15.61 1.35 1.35 32.79 19.69 14.35 26.36z"/>
<path class="cls-8" d="M2060.29,843.17c-6.91-.64,4.25,10.53,4.59,10.77,2.19,1.53,10.08,1.75,13.19,2.53s29.37,11.89,30.57,10.51c-2,2.24-22.73-4.87-22.8-4.57,10.23-3.87-21.57-9.76-23-7.42-.83,1.38,21.52,6.18,22.5,7.46-3,9.53-40.5-14-28.2-20.64Z"/>
<path class="cls-16" d="m2108 853c2.45 0.43-9.71 1.29-11.81 1.18-9.46-0.46-27-11-35.79-6.63-0.94-2.23 43.86 7.74 47.6 5.45z"/>
<path class="cls-17" d="m2060.4 842.9a5.49 5.49 0 0 1-3-1.72c1.45-0.25 1.98 1.1 3 1.72z"/>
<path class="cls-18" d="m2103.8 860.64c-0.11-4.16 7.36-15.62 11.86-16.65 9.67 8.51-10.55 31.16 3.61 41.18 2.83 2 36.21 4.52 36.93 1.31-0.91 4.07-23.6 8.28-26.34 7.9-5.35-0.75-9.05-7.52-15.19-6.49-5.31 0.89-4.69 7.49-8.82 8.88-7 2.35-12.67 7.36-11.62-9.32 0.52-8.39 15.93-17.97 9.57-26.81z"/>
<path class="cls-19" d="M2097.05,899.7c5.15-2.42,13.22-11.12,17.51-11.67,5-.64,7,4,10.79,4.22s7-2.7,9.79-2.6c1.59.06,9.37,1.93,11.41,1.45,1.8-.42,9.87-5.9,11.46-5.66,4.23.65,16.44,15.26,9.82,16.5-1.69.32-10.89-7.23-12.16-7.66-5.08-1.71-19.21.78-26,1.06s-9.06-1-15.4.57C2113.76,896,2096,905.27,2097.05,899.7Z"/>
<path class="cls-20" d="m2096.9 900.38c3.42 0.77 32.09 26.27 31.27 28.22-7.25 1.8-34.34-22.21-31.27-28.22z"/>
<path class="cls-21" d="m2111.1 869.2c-7.22-2.93-10.76 25.92-20.45 18 7.72-0.5 14.86-13.65 20.45-18z"/>
<path class="cls-22" d="m2115.9 844.7c-1.55-1.34 8.24-5.93 10.41-4.92 5.33 2.49-2 9.7-2.78 13.15-1.82 7.62-3.64 23.5 7 13.91 5.7-5.16-1.32-18.88 3.89-24.39 4.68-5 34.92-3 41.62-1.33 8.47 2.06 27.75 6.34 32 14.38 3.55 6.73-1.94 29-11.14 30.59-5.52 0.95-7.57-6.7-11.13-6.59-7.34 0.24-2.91 4.08-7.07 4.91-1.61 0.33-4 6-7 6.07-8.79 0.12-7.32-13.08-11.33-17.26 1.2 1.26-9.95 13.28-12.71 13.33-4.52 0.08-17.39-13.85-11.93-17.44-5.81 3.81-11.63 20.26-20.15 14.91-10.68-6.67 8.33-29.81 0.32-39.32z"/>
<path class="cls-9" d="m2195.1 886.41c10.25 2.19 13.43-25.38 13.48-32 8.8 4.17 0.86 20.67 9.46 24 0.86-3.57-12.59 0.29-13.54 1-4.28 3.17-5.78 14.9-10 18.94-5.08 4.85-9.11 3.37-14.15 6-2.13 1.12-6.77 7.36-9.18 7.31-10.25-0.21-9.16-10.72-0.89-16.62 5.51-3.98 16.68-4.38 24.82-8.63z"/>
<path class="cls-23" d="m2216.7 878.41c5.65 0 43.24 27 48.33 23.91-4 2.44-10.45-1-14.68-0.62 3.65 6 24.55 3.67 12 13.69-5.7 4.53-26 0.32-32.11-1.62 0.2-4.49 30.62 2.7 33.56-0.74 5.88-6.88-24.78-11-31-12.19-4.25-0.78-38.75-7-23.91-13.94 5.8-2.71 29.42 11 32.78 5.56-1.93 2.99-23.71-14.46-24.97-14.05z"/>
<path class="cls-24" d="m2153.8 842c-8.56 4.66-27.87-0.6-37.55 1.1 4.5-13.54 29.62-1.3 37.55-1.1z"/>
<path class="cls-25" d="m1943.2 995.65c-21.12 15.48-166.92 179-179.29 172.85-14.17-7.06 150.68-170.02 179.29-172.85z"/>
<path class="cls-26" d="m1848.9 1067.7c3.4-7.41 95.57-75.24 100.63-76.35-0.86 9.72-87.52 85.65-100.63 76.35z"/>
<path class="cls-27" d="m1866.1 787.5c10.24-0.79 17.78-13.8 29-9.41-3.52 7.32-19.23 6.08-22.69 14.94-1.71 4.37 4.62 18.29 6.37 16.73-7.41 6.62-21.25-5.43-27.39 2.62-6.63 8.69 11.82 3.13 14.18 7.65 1.91 3.67-14.74 5.12-16.82 6-9.57 3.87-15.47 9.87-20.27 19-2.4 4.58-12.78 35.89-9.28 37.09-13.54-4.63 5.06-38 8.91-45 5.06-9.13 10.06-18.61 19.18-23.83 2.56-1.46 18.91-3.85 20.12-6.37 2.61-5.42-12.24-3.24-12.78-4.3-3.44-6.62 7.68-10.22 11.47-15.12z"/>
<path class="cls-28" d="m1814.2 873.29c3.27 16.26 3.68 33 7.26 49.21 3.52 15.94 8.14 19 19.57 28.64 8.2 6.93 13.26 12.42 23.29 15.57 5.41 1.69 7.77-0.55 13.12 2 1.51 0.72-5.59 8.64-9.77 6.58 5.58-9.65-26.56-12.4-34.7-18.66-13-10-12.86-47.32-28.44-43-2.99 0.79-0.36-42.93 9.67-40.34z"/>
<path class="cls-29" d="m1852.2 801.27c3.5 1.58 15.41-1.06 15.71 5.19-0.29-5.94-32.14 17.64-31.82 17.52 0.35-8.37 7.43-20.44 16.11-22.71z"/>
<path class="cls-30" d="m1802.1 912.69c-1.85-0.46 83.06 77.06 83.91 70.29a16 16 0 0 1-14.44 6.69c14.33-14.75-11.55-0.54-13.67-13.08a32.34 32.34 0 0 0 9.18-6.34c-38.08 16.29-55.69-34.43-64.98-57.56z"/>
<path class="cls-31" d="m1961.2 818.28a141.53 141.53 0 0 1 12.79 49.53c0.45 7.15-1.67 15.33 0.12 22.3 1.84 7.14 8.63 12.64 9 20.1 0.39-0.21-17.73-9.81-18.16-10.05-5.71-3.13 2 9.7-7.85-1-3.62-3.9-0.6-12.69-0.35-16.85 0.88-14.25 0.55-26.91 0.45-41.26-0.1-2.68 4.04-22.73 4-22.77z"/>
<path class="cls-10" d="m1946 984.52c-31.85 6.08-43.24 22.63-70.21 37.63-1.74-3.75-11-25.32-9.72-28.52 3.6-9.19 81.83-17.28 79.93-9.11z"/>
<path class="cls-32" d="M1902,775.92c6.92.81,34.11,2.7,34.52,12.67-16.75-3.51-24.84-7.33-41.72-3.48-2.41.55-24.42,3.88-18.53,10.11,1.43,1.52,5.06-1.3,6,1,.58,1.31.56,5.73,1.74,7,9.93,10.88,7.21,10.1,19.94,8.4a83,83,0,0,0,12.2-3c-.15.06,7-5.38,5.16-5.35,19.26-.34,1.42,4.9-5.18,8.33s-15.45,1.53-12.88,14.12c2.35,11.49,8.48,6.46,17.44,9.79,28.78,10.68,35,34.7,24,61-4,9.47-22.74,50.45-36.07,25.15-3.22-6.1,3.26-18.89,4-25,1.47-12.51-2.39-22.05-4.36-34.07-1.28-7.79,1.62-16.74-6.22-22.21-6.06-4.23-21.52,4.67-25.38-4-2-4.48,6.71-8.22,4.92-12.41s-15-.74-16-5.08c1.9,8.08,14.38-9.6,13.29-7.33,1.81-3.79-7.59-8.39-8-11.38-.93-6.07-2.12.63,2.93-9C1880,779.15,1895.25,784.49,1902,775.92Z"/>
<path class="cls-33" d="m1727.1 1284.4c-12-3 58.69 12.22 61.31 17.91-8.05-1.52-52.23-9.98-61.31-17.91z"/>
<path class="cls-33" d="m1792.8 1303.6c4-0.43 32.34 4.75 34.11 8.55-11.45-2.53-22.76-5.64-34.11-8.55z"/>
<path class="cls-33" d="m1829.5 1312.7a14.38 14.38 0 0 1 6.09 1.34c-2.07-0.24-4.21-0.17-6.09-1.34z"/>
<path class="cls-33" d="m1835.9 1314.2c2.2-0.51 5.6 0.9 7.77 1.38-2.2 0.47-5.6-0.9-7.77-1.38z"/>
<path class="cls-33" d="m1844 1315.6c1.12 0.51 2.44 0.09 3.52 0.78-1.22 0.01-2.52 0.15-3.52-0.78z"/>
<path class="cls-33" d="m1788.7 1302.4c1.24 0.44 2.68 0.23 3.77 1.16-1.24-0.43-2.68-0.23-3.77-1.16z"/>
<path class="cls-8" d="m2012.5 858.85c-3.09-6.32 7.87-22.43 15.12-19.11 5.42 2.48-3.65 14.47 6 14.25 5.55-0.12 4.21-13.89 13.1-10.33 7.57 3-0.36 18.78 9.15 17 0.28 0.7-8.75 8.71-10 9.27-10.64 4.82-6.07 0-13-2 1.65 0.46-8.36-7.38-6.2-5.91 1.15 0.87-13.64-4.02-14.17-3.17z"/>
<path class="cls-21" d="m2012.5 858.85c0 2.82 15.83 2 15.36 1.68 10.27 6.28 3.46 12.9 17.62 9.29 11.12-2.84 10.47-11.93 23.49-11.8 9.74 0.09 35.23 6 42.2 11.18-0.66 3-40.9-10-44.74-9.69-10.45 0.86-11.25 7.17-20 11.68-5.39 2.78-5.21 3.55-11.25 3.47-1.79 0-6.33-11-6.87-10.44-6.8 7.12-13.61 3.35-15.81-5.37z"/>
<path class="cls-34" d="m2037.6 845.73c-0.45 5.76-9.23 9.95-8 1 0.8-6.25 9.85-9.38 8-1z"/>
<path class="cls-8" d="m2058.4 856.55c-0.31 1.52-1.65 2.48-2.2 3.89 0.41-1.85 1.04-2.44 2.2-3.89z"/>
<path class="cls-35" d="m2054.8 856.44c-7.85-1.22 1.29-8.39 1.25-8-0.16 1.74 5.12 9.06-1.25 8z"/>
<path class="cls-36" d="m2060.4 847.57q0-4.14 3.46-2c-8.83 6 53.1 15.82 42.82 8.81 2.18-1.85 6.68 7.56 0.39 8.44-5.36 0.75-11-3.09-16-4.23-5.66-1.21-31.31-2.49-30.67-11.02z"/>
<path class="cls-37" d="m2085.7 862.58c-1.93-0.38-24.85-4.34-23.94-7.29 1.48-4.82 29.88 4.18 29.16 6.84z"/>
<path class="cls-38" d="m2106.7 854.43c9.46 2.3-5.42 6-4.63 5.79-1.92 0.54-9.49-2-11.3-2.36-3.79-0.71-32.64-4.41-29.07-10.74 1.98-3.48 41.1 7.64 45 7.31z"/>
<path class="cls-39" d="m2090 883c4.15 1.44-5.21-13.1-9.43-15-12.7-5.63-19.27-2-29.66 5.55 5.48-4 3.72-11.74 11.43-14.39 7.37-2.54 19.26 4 26.21 5.73 3.87 1 16.34 1.08 17.51 5.84 2.21 9.16-15.21 8.53-16.06 12.27z"/>
<path class="cls-40" d="m2089.9 883.39c-3.49-4.93 36.59-9.74-3.21-18.1-6.79-1.43-19.32-7.72-25.7-5.52-4.63 1.58-11.44 12.75-10.23 14.77-5.63-9.39 10.44-16.23 15.09-16.5 12.08-0.69 33.87 8.08 45.3 11.18-1.19 3.67-21.21 16.06-21.25 14.17z"/>
<path class="cls-41" d="m2025.9 868.23a8.46 8.46 0 0 1 2.91-4.85c11.72-3.07-7.29 25.26-2.91 4.85z"/>
<path class="cls-42" d="m2195.1 886.41c-6 7.34-5.59-5.3-10.41-4-5.47 1.51-6 10.2-11.2 10.58-6.43 0.48-7.31-9.41-12.28-10.34-3.67-0.68-5.49 3.08-7.45 3-3.14-0.15-10-0.56-13-0.29-11.27 1-20.46 6.43-25.87-7-1.23-3-2-33.66 2-33.55 5.72 0.15-3.71 29.92-2.85 32.83 5.27 17.83 14-4.6 21-9.35-3.79 2.57 8.33 18.26 12.32 17.91 10.1-0.86 5.79-18.23 15.26-11.64 8.51 5.92-2.11 17.51 12.79 14 4-0.93 1.07-8.8 6.84-9.84 5.41-0.88 7.47 7.37 12.85 7.69z"/>
<path class="cls-43" d="m2152.2 887.36c11-16.21 21.73 10.48 18 13.06-5.12-5.08-8.04-17.42-18-13.06z"/>
<path class="cls-43" d="m2131.5 888.17c1.61-8.9 11.83-2 16.94-0.62-2.62 1.84-12.46-1.29-16.94 0.62z"/>
<path class="cls-33" d="m2132.8 1028.4c-15.46 3.71-11.47 35.48-24.3 43.66-21.23 13.51-30.16 6.42-52.32 0.28-18.8-5.21-34.66-29.17-55.76-36.1-24.46-8-54-6.82-78.82-2.57 12.01-2.06 207.01 1.78 211.2-5.27z"/>
<path class="cls-44" d="M2113.68,915.52c-3.86-.84-12.41-10.84-14.25-14.58,11.16-2.14,18.36-7.53,30.72-7.73,11.25-.18,8.91-.15,13.31,5.66.2.27-5.57,3.57-4.41,4.77,7.08,7.27,7.47-1,12.57.07,1.36.28,17.12,2.85,15.86,10.27-9.3,1.37-4.19-7.82-9.2-9-1.56-.37-4.93.68-5.84.48-.07,0-27.07,3.13-12.64-9.26-5,4.3-14.44-6-19.22.82-6.27,8.94,6.45,16,13,19.27,3.08,1.53,10.13,2.59,13.4,4,6.35,2.68,4.13,6,12.8,7.25,9.39,1.29,13.49-4.65,24.22.51,23.49,11.28,2.92,18.86-13.06,17.39-19.3-1.77-37.28-10.63-49.77-25.52,7.3-2.31,10.24,6.94,15.07,9.78,8.52,5,15.57,8.43,25.65,9.45,1.62.16,30.28,1.13,31.74-.79s-18.27-13.78-20.92-14.12c-10.56-1.36-13.6,5.19-24.43.72-3.6-1.49-8.36-4.78-10.27-5.75-5.24-2.65-9.81-3.78-15.15-6.88-2.94-1.71-2.11-9.82-7-6.92C2110,908.88,2115.6,911.18,2113.68,915.52Z"/>
<path class="cls-45" d="m2154.5 901.32c-1.5 5.51-9.74 9-14 4.09-6.47-7.48 5.76-5.48 3.38-12.47 4.11 0.28 10.92 3.22 10.62 8.38z"/>
<path class="cls-45" d="m2162.6 901.11a15.64 15.64 0 0 1 6.8-2c1.89 1-15.22 18.4 3.21 13-2.34 4.41-18.43-3.48-10.01-11z"/>
<path class="cls-46" d="m2113.7 915.52c-1.57-16.68 2.89-7.21 9.75-3 7.31 4.44 14.23 6.7 22.22 10.42 4.76 2.23 6 5.73 12.08 6.75 5.9 1 11.37-5.12 17.92-4 1.85 0.31 20.59 9.8 18.53 12.6-4.91 6.7-38.55 1.73-44.69-0.59-4.65-1.82-35.14-17.34-35.81-22.18z"/>
<path class="cls-47" d="m1814.3 929.18c9.8 14.92 6 37.49 14.4 51.64 4.33 7.27 30.18 2.63 36 9.51-0.29 5.93-21 12.85-24.33 5.26a25 25 0 0 1 7.76-3.87c11.83-33.8-68.74 25.27-48.37 25.61 3.66 0.06 14.61-79.89 14.54-88.15z"/>
<path class="cls-48" d="m2141.8 866.11c2.44-14.79 16.62-23.43 16.72-2.69 0.1 22.24-23.19 21.66-16.72 2.69z"/>
<path class="cls-49" d="m2167.3 874.9c-0.23-9.45 10.47-31.37 15.83-11.81 3.01 11-15.43 29.75-15.83 11.81z"/>
<path class="cls-50" d="m2128.2 840.67c12.86 1.7 7.73 32.49-1.75 31.84-13.1-0.91-5.14-25.86 1.75-31.84z"/>
<path class="cls-51" d="m2202.2 876c-0.22 9.6-14.33 5.54-13.67-4.46 1.01-15.02 15.49-9.78 13.67 4.46z"/>
<path class="cls-42" d="m2133.6 848.1c3-14.94 17.67 15.41 2.55 16.39-2.08 0.13-2.74-14.63-2.55-16.39z"/>
<path class="cls-43" d="m2176.4 893.71c0.77-6.86 5-16.52 12-8.73 6.78 7.52-6.78 12.38-12 8.73z"/>
<path class="cls-52" d="m2096.7 894.25c-2.83-5.1-45.57-20.59-45.95-19.71 4.66-10.82 16.64-10.94 25.49-8.2 4.11 1.27 11.46 2.49 13.72 6.52 0.58 1.05 9.06 23.21 6.74 21.39z"/>
<path class="cls-53" d="m2217.1 895.29c-1.41-0.31-11-1.78-10.95-4.72 0.14-7.36 36.89 3.6 34.43 8.44-2.04 4.05-20.31-3.08-23.48-3.72z"/>
<path class="cls-54" d="m2204.4 893.47c-6.35-11.22 38.83-3.17 38.42-0.63-0.5 3.13-37.44-7.92-36.71-2.78 1.12 8 62.5 16.85 59.88 21.73 0.98-14.9-58.81-4.86-61.59-18.32z"/>
<path class="cls-55" d="m2241.6 891c0 0.28-28.41 3.27-25.27-10.65 3.74-1.67 22.31 8.31 25.27 10.65z"/>
<path class="cls-56" d="m1856.2 817-5.22-0.45c-6.5-4.31 30.06-13.73 26.66-0.67-1.09 4.12-18.64 1.33-21.44 1.12z"/>
<path class="cls-57" d="M1841,943.49c-1.15-6,5.59-9.49,8.07-13.89,2.84-5,4.43-12.37,6.8-16.21,6.26-10.13,8.8-9,21.94-6.09,9.1,2.05,20.32,9,28.66,1.38,4.26-3.92,7.33-34.11-3.53-33.1-5.74.54,4.68,14.31,1.83,15.74-4.38,2.21-14.77-12.24-13.61-14.9,1.22.25,10.71,12.68,12.11,10.91,2-2.51-8.28-12.52-3.17-15.61,10.17-6.15,13,17.69,12.79,21.5-1,15.25-7.3,21.67-18.46,21.38-6.4-.17-22.2-9.56-31-5.11-6.28,3.18-12.61,20.85-14,27.37-3.11,14.64,2.8,23.15,18.79,24.15,17,1.06,22.3-10,35-18.29,14.56-9.56,16-6.77,9.64,9.92,17-18.48,39.52-47.19,41.34-72.92.72-10.18.72-22.46-6.5-30.36-2-2.2-18.39-8.55-18.07-11.82,1.22.47,10.71,4.07,10.28,3.43-2.4-3.52-29.15-17.73-30.9-12.49,1.75-5.25,34,6.58,33.76,5.6-3-13.54-30-8.88-31.91-17.69-2.49-11.55,24.34-2.26,26-3.9-4.75,4.58-27.68-6.65-21.41,4.9,2.59,4.76,21.13,7.89,26.32,12.4,15.6,13.58,20.06,30.46,17.77,48.69-4.18,33.25-21.79,42.88-40,68.26-1.95,2.72-13.35,29.21-15.59,15.65-.43-2.57,8.57-20.64,8.88-20.68-8.45.91-14.29,12.7-21.55,16.63s-14.67,4.68-22.64,3.76C1862,961.33,1835.51,954.68,1841,943.49Z"/>
<path class="cls-11" d="m1960.4 943.6c-5.72 5.68-4.88-6.37-9.41-3.14-6.74 4.8 5.51 8.48 6.94 12.15-14.21 9.07-4.48 28.75-27.94 17.82 0.36 0.16 21-69.6 26.7-72.39 5.75 11 11-5.61 17.29 5.49-6.55 2.84-22.73 34.65-13.58 40.07z"/>
<path class="cls-58" d="m1960.6 853.13c-8.45 2.81-16.94-21.29-22.13-25.54-6.29-5.15-29.6-5.61-23.71-14.67 3.94-6.07 36.06-1.43 40.23 2.65 7.67 7.51 4.47 27.01 5.61 37.56z"/>
<path class="cls-59" d="m1960.4 943.6c-10.5-1.66 13.44-53.86 21.32-34-11 7-6.51 0.7-8.64 15.4-1.11 8-2.44 17.92-12.68 18.6z"/>
<path class="cls-6" d="m2118.6 1105.3c0.33-1.48 6-30.52 15.83-26.74 8.33 3.18-20.46 47.72-15.83 26.74z"/>
<path class="cls-60" d="m2212.8 940.45c-3-0.61-31.6-17.9-32.17-20.53 0.49 2.29 15.18-14.34 16.33-15.22 7.43-5.75 17.79-10.16 27.82-4.45 15.89 9 1.45 9.27-3.8 18-1.85 3.09-0.39 24.92-8.18 22.2z"/>
<path class="cls-61" d="m1856.2 1031.7c11.65-10.25 54.94-54.56 72.09-43.68 21.27 13.49-76.63 72.76-89.81 69.14-9.04-2.49 18.65-26.09 17.72-25.46z"/>
<path class="cls-62" d="m1927.1 1006.2 3.51-11.35c-1.08-10.24-51 27.27-55.17 28.87 5.91-9.45 50.48-53.26 63.79-34q2.32 13.47-12.13 16.48z"/>
<path class="cls-63" d="m1756.5 1044.4c7.72-5 77.61-82.12 88.84-55 1.89 4.58-79.07 143.54-83.1 143.9-6.35 0.66 32.78-98.98-5.74-88.9z"/>
<path class="cls-64" d="m1915.8 843.6c19.92 3.12 28.62 22.51 26.33 39.95-1 7.75-9.09 32.41-19.77 32.37-12.9 0-3.41-23.18-3.25-32.17 0.08-4.87 0.28-10.91-1.18-15.52-1.25-3.91-7.61-2.65-7.28-11.18-0.14 3.58 3.84-4.75 4.24-5.7-0.23 0.52-5.5-9.52 0.91-7.75z"/>
<path class="cls-65" d="m1903.5 915.22c17.31-13.37 4.94-34.2 2-49.57-1-5.25 2.74-11 1.3-15.67-3.21-10.39-12.16-7.22-15.63-11.51 15.84-12.81 18.13 26.13 18.93 30.34 2.46 13.06 5 20.26 2.6 34.48-1.15 7-6.59 13.73-2.05 20.12 21.47 30.26 37.26-51.86 41.32-53 2.21-0.62-9.54 39.53-11.72 43.24-6.4 10.9-11.8 18.62-20.79 18.77-2.96 0.05-27.56-6.67-15.96-17.2z"/>
<path class="cls-66" d="m1883.2 798.34c6.83-3.62 36.79-2.07 38.23 8.35-0.11-0.79-25.92 9-23.49 9.33-5.16-0.6-22.75-12.55-14.74-17.68z"/>
<path class="cls-67" d="m1891.1 838.47c15.29 3.47 11 9.4 13.43 20.84 2.83 13.22 8.89 22 6.75 37.11-0.73-6.28 3.07-14.86-2-20-1.41-1.42-13.38-6.93-11-0.06 7.87-4.34-1.48-32.41-16.25-27.28-5.71 2-9 21.36-13.12 17.18 2.7-9.82 2.33-15.9 15-18.44 4.36-0.88 18 5.38 20.25 0.23 5.85-13.3-21.62-6.56-24.42-8-12.48-6.54-5.71-18.55-23.48-23.07 3.08-0.74 24 1.93 25.88 5.63 1.8 3.52-6.37 6.34-5.15 8.78 4.19 8.61 3.83 7.76 14.11 7.08z"/>
<path class="cls-68" d="m1931 802.85c-4.35-7.68-3-11.45 5.07-9.29 9.06 2.42 14.11 16.77 21 22.42-5.55-1.29-16.76 0.24-21.2-3.4-5.24-4.24-1.48-5.19-4.87-9.73z"/>
<path class="cls-69" d="m1931.2 808c-3 8.38-29.59-0.55-16.13 12.23 3.66 3.48 32.47 4.22 27.46 13.85-0.37 0.72-35.34-5.33-37.14-7.2-12.97-13.49 16.03-19.72 25.81-18.88z"/>
<path class="cls-70" d="m1887.8 828c8.32 0.92 4 12.43-3.52 10.4-6.77-1.87-2.76-11.9 3.52-10.4z"/>
<path class="cls-71" d="m1920 1110.5c2.32-13.65 42-50.6 49.69-42 8.65 9.56-39.93 44.82-49.69 42z"/>
<path class="cls-72" d="m1754.2 1233.2c4.34 19.64-0.92 47.48-21.77 46.63-28.44-1.16-25.35-70.49-24.9-86.78 1.38-50.22 12-145.45 73.21-159.24-11.91 48.84-59.51 59.63-62.62 116.28-1.1 20 0.5 117.93 22.77 128.54 3.34 1.59 12.2-41.23 13.31-45.43z"/>
<path class="cls-73" d="m2030.8 845.71c0.71-4.45 6.6-4.9 5.57 0.17-0.88 4.3-6.49 5.29-5.57-0.17z"/>
<path class="cls-44" d="m2173.4 913.24c6.16-3.74 2.33-8.94 11.29-6.93q-8.46-1.44-11.29 6.93z"/>
<path class="cls-44" d="m2167.5 914a7.33 7.33 0 0 0 3.66 0.14c-1.26 0.97-2.47 0.67-3.66-0.14z"/>
<path class="cls-74" d="m1760.5 1180.4c-4.8 20.95 8.19 74-8.83 89.08-27.69 24.51-27.38-16.75-30.45-42.23-2.11-17.49-4.3-222.91 53.58-191.34-1.61-0.88-100.91 203.36-34.69 244.1-21.52-13.23 17.16-83.62 20.39-99.61z"/>
<path class="cls-11" d="m1922.6 973.58a116.93 116.93 0 0 1-41.35 15.1 42.32 42.32 0 0 0 15-9c-8.49-12.26-49.68-14.08-48.64-26 3.12 0.4 69.39 10.83 64.52-9.89 0-0.21-22.55 34.13-17.36 32.77 8.75-2.31 29-36.72 33.68-34.88 9.6 3.78-5.03 27.61-5.85 31.9z"/>
<path class="cls-57" d="m1903.6 845.94c2.53 6.79-26.62 2-31.49 7-1.4 1.44 2.2 7.21 1.15 8.89-1.43 2.28-4.26 3.11-5.77 5.18-0.44 0.6-13.93 12.71-11.73 13.1 6.73 1.23 7.16-11.32 15.21-8.35-0.24 0.52-16 13.55-17.53 13-10.51-3.78 13.24-18.56 14.08-20.5 4.09-9.51-4.43-14.82 9.85-17.84 5.76-1.21 24.1 9.09 26.23-0.48z"/>
<path class="cls-75" d="m1847.1 894.69c-6.73-6 5.46-29.51 13.65-30.83 3.74-0.6-10.24 17.31-10.14 17.94 1.94 12.89 9.67-3 12.7-5.43-0.3 4.88-2.57 10-5.32 13.92-1.27 1.8-5.65-2.4-6-1.68-3.45 7.49 4.23 7.33 2.67 12.88a8.64 8.64 0 0 1-7.56-6.8z"/>
<path class="cls-76" d="m1893.7 954.79c-4.29 16.71-43.77 10.38-48.64-3.68 7.92 4.57 14.31 11.35 23.92 12.3 10.63 1.05 15.58-6.41 24.72-8.62z"/>
<path class="cls-77" d="m1863.2 876.39c-13.86 22.22-9.16-3-5.87-2.31a36.1 36.1 0 0 0-5.8 8.58c1.82 5.29 12.74-8.48 15.27-9.62 9.45-4.24 23.33-0.3 28.45 9.08-2.65 0.75-9.55-5.83-12.36-6.65-7.68-2.26-11.65-0.86-19.69 0.92z"/>
<path class="cls-78" d="M1847.1,894.69c.84,12.26,24.87,11.93,33.08,13.16,5,.74,13.46,4.07,18.21,2.83,2.58-.67,11.54-9.14,11.41-9.15,1.66.13-4.66,9.17-6.38,9.79-6.8,2.46-17.45-.83-24.26-1.86S1844.53,906.44,1847.1,894.69Z"/>
<path class="cls-79" d="m1874 837c7.19 2.92 4.31 5.8-0.79 7-5.47 1.37-5.93-9.73 0.79-7z"/>
<path class="cls-80" d="m1895 848.05c-7.48-1.42-11-9.42-0.48-8.95 7.21 0.33 9.98 11.56 0.48 8.95z"/>
<path class="cls-67" d="m1862.4 824.72c14.79 2.49 2 10.09-0.7 16.13-3.6 8-7.26 14.59-11.38 22.36-5 9.35-6.17 17.1-7.11 27.73-0.44 4.92 0.27 23.21-4.42 26.07-11.5 7-16-38.16-15.52-44.43 1.38-18.65 14.73-53.25 39.13-47.86z"/>
<path class="cls-67" d="m1903.5 915.22c-3.67 10.94 2.61 10.84 9 15.09 4.09 2.73 4.65 0.85 9.29 6 1.53 1.72 11.43-14.6 12.8-15.61 0.62 4.18-12.54 25.35-17.93 20.27 5.91-10.44-32.74 12.43-33 17.33 0.85-13.31 15.5-17.28 12.34-29.75-0.54-2.11-8.74 0.67-8.71-3.62 0.05-12.06 9.98-5.65 16.21-9.71z"/>
<path class="cls-65" d="m1891.2 876.5c-5.31-3.09 9 8.17 10.37 8.77-1.89-15.48-36-29.78-41.74-10.28-1.6 0.13 32.75-7.22 29.9-0.78-0.33 0.72-35.37-6.2-34.89 5.51-0.49-11.94 13.08-8.3 18.55-14.48 6.5-7.34-3.61-15 11-16.86 24.14-3 9.35 40.3 18.35 39.82-5.4 0.29-7.91-9.38-11.54-11.7z"/>
<path class="cls-65" d="M1884.53,956.79c-6.54,11-32.27,2.19-35-8.07-.78-2.9,10.58-36.72,13-39.05.56-.55,1.86,12.6,1.44,14.78-1.24,6.43-8.33,12.4-8.64,18.87-.59,12.47,16.94,21.44,24.56,9.65,2.87-4.44-.49-11,0-15.86.23-2.25,4.08-6.24,4.55-8.74.39-2-3.19-6.67-3-9.14.26-4.3,9-1.21,10-3-6.83,11.69,0,2.71,1.32,15.33C1893.69,941,1884,947,1884.53,956.79Z"/>
<path class="cls-81" d="m1932.9 923.73c3-15.68 16.85-24.4 18.86-42.27 0.81-7.19 2-16.94-1.06-23.66-2.35-5.09-11.56-9.56-12.6-14 32.91 9.66 15.12 66.08-5.2 79.93z"/>
<path class="cls-82" d="m1864.8 913.42-1.28-4.48c-0.09 1.75 33.94-2.08 32.06 5.36-2.43 9.64-25.06-2.13-30.78-0.88z"/>
<path class="cls-83" d="m1929.7 837.57c-5.22-2.77-16.78-1.46-20.45-6.43-2.44-3.3 39 2.89 30.94 10.76-1.37 1.33-9.38-3.71-10.49-4.33z"/>
<path class="cls-77" d="m1904.6 911.76-9.51-1.1c33.82-5.35-2.11-23.61 1.41-26.26 0.45 0.59 5.68 9.76 7.84 6.48 3.67-5.55-9.43-12.32-3-16.35 8.45-5.35 8.98 31.1 3.26 37.23z"/>
<path class="cls-81" d="m1847.2 944.52c6 20.27 25 9.66 39 13.66-8.96 9.82-42.34 1.74-39-13.66z"/>
<path class="cls-81" d="m1916.6 941c1.41 0.42 6.5-2.53 7.8-3.33-1 1.64-12.92 13.4-11.9 15.33-1.44-2.73 3.33-9.53 4.1-12z"/>
<path class="cls-78" d="m1896.5 884.4c1.52 5.66 14.83 8.42 13 14.3-8.91-3.58-19.72-12-20.16-23a29.55 29.55 0 0 1 7.16 8.7z"/>
<path class="cls-81" d="m1909.6 828.07c2.05-5.33 10.55-1.43 12.79 1.48-3.78-1.15-8.71-4.24-12.79-1.48z"/>
<path class="cls-58" d="m1940.2 841.9c0.25-6.36-6.94-5.28-9.42-9.15 1.72 0.69 13.85 5.67 9.42 9.15z"/>
<path class="cls-67" d="m1911.2 896.75c1 3.13 1.13 12.22-3.47 12.69 4.85-3.02 2.22-8.3 3.47-12.69z"/>
<path class="cls-76" d="m1912.1 941.68c-0.69 1-6.46 3.89-7 4.17a14.14 14.14 0 0 1 7-4.17z"/>
<path class="cls-81" d="m1911.1 956.87c-2 3.71 0.12-1.9 0.27-0.89a3.4 3.4 0 0 1-0.27 0.89z"/>
<path class="cls-84" d="m1925.2 812.24c3.32 1.42 28.39 11.09 21.77 17 1.6-1.4-48.03-6.96-21.77-17z"/>
<path class="cls-85" d="m1935.4 872.51c-3 15.55-19.36-11.75-15.5-17.92 5.59-8.93 16.5 11.05 15.5 17.92z"/>
<path class="cls-86" d="m1834.3 998.52-5.73 13a50.3 50.3 0 0 0 24-12.28c-39.49 7.89-31.17 73-35.27 75.34 0.21-0.12-39.39 23.19-32 27-1.98-34.09 24.1-81.85 49-103.06z"/>
<path class="cls-87" d="m1816.4 999.2c3.61-8.16 34.18-24.32 31.86-8.22-1.39 9.63-27.93 21.63-31.86 8.22z"/>
<path class="cls-88" d="m1867.9 1006.3c-8.28-5.68-44.05 25.61-47.85 32.79 11.17-21.13 41.48-3.35 52.48-25-2.22-2.09-65.59 46.76-63 51.87-12.52-24.61 35.13-68.47 58.37-59.66z"/>
<path class="cls-89" d="m1889.3 875.75c4.72 6.9 10.07 13.78 14.42 19.56 2.13 2.85 10.31 1.64 4 10.46-7.1 9.9-33.72 3.54-42.76 0.46-5.61-1.91-17.39-5.72-17-13.2 0.38-6.62 4.82-0.64 7.58-4.53 5.77-8.08 22.32-27.3 33.76-12.75z"/>
<path class="cls-57" d="m1871 871.71c2.16-1.29 18.08 0.58 18.73 3.48-4.89-2.98-13.15-3.35-18.73-3.48z"/>
<path class="cls-77" d="m1879.5 909.59c-1.38 0.38-2.6-0.41-3.9-0.54 1.37-0.38 2.59 0.4 3.9 0.54z"/>
<path class="cls-77" d="m1869.5 907.39a4.34 4.34 0 0 1-3.52-0.78z"/>
<path class="cls-90" d="m1896 840.56c10.63 3.45-4.1 11.06-6.3 3.15-0.75-2.55 5.25-3.36 6.3-3.15z"/>
<path class="cls-91" d="m1827.2 875.33c3-13.52 6.24-42.44 25.81-43.07 16.27-0.53 5.32 15.37-0.37 24.48-4.76 7.62-9.24 11-11 20.27-1.1 5.75 3.73 19.64-1.28 24.12-12.04 10.74-15.7-17.42-13.16-25.8z"/>
<path class="cls-92" d="m1884.5 956.79c-0.6-2.55 0.79-4.55 1.81-6.66-0.54 2.24-1.51 4.36-1.81 6.66z"/>
<path class="cls-93" d="m1889.6 874.46c-3.31-6.6-29.26-2.57-30.54 0.25 8-17.47 48.8-3.47 43.22 10.62-0.74 1.87-11.44-10.1-12.68-10.87z"/>
<path class="cls-94" d="m1864.8 913.42c6.88-5.2 20.12 9.67 21 15.72 1 7-5.51 2.94-6.2 7.32-0.65 4.19 2.82 6.28 1.35 11.14-2.57 8.48-12.13 17.55-22.06 7.34-8.54-8.77 3.74-30.61 5.91-41.52z"/>
<path class="cls-78" d="M1909.86,901.48c-1.06-.79-.6-1.8-.39-2.77Z"/>
<path class="cls-95" d="m1822.4 993.9c4.32-5 19.7-12.33 23.81-3.74-0.57-1.16-18.2 16.96-23.81 3.74z"/>
<path class="cls-96" d="m1869.3 1007.6c5 10.1-42.37 38.57-48.81 33.93-6.12-4.41 41.93-36.53 48.81-33.93z"/>
<path class="cls-97" d="m1894.3 908.81c-8.94-2.28-29.53 2.38-35.68-6.78-4.42-6.6 2.55-23.21 9.17-27.13 14.86-8.79 20 6.84 28.13 15.5 3 3.22 11.91 5.33 12.34 10.08 0.75 8.65-7.25 9.82-13.96 8.33z"/>
<path class="cls-98" d="m1837.7 849.1c0.77-3.85 13.36-15 16.83-8.82 1.64 2.89-17.8 27.72-16.83 8.82z"/>
<path class="cls-99" d="m1958.3 816.26c-9.93-2.14-15.71-24.84-25.2-24.29-3.13 0.18-0.45 4.34-2.37 5.09-0.76 0.3-1.11 4.54-6 6.25-8.1 2.83-20.62-3.19-29-4.85-4.72-0.93-20.17-0.29-19.5-7 0.61-6.15 20.42-9.11 25.54-9.58 25.75-2.31 43 14.72 56.53 34.38z"/>
<path class="cls-100" d="m1757.1 1142.7c2.42-3 38.36-52.7 55.6-70.87 12.51-13.19 24.39-30.32 41-38.63 3.53-1.78 39.37-8.61 31.14 1.71-30 37.62-74.19 84.14-109.13 118.48-4 3.93-16.75 31.45-24.86 31.85-23.25 1.15-1.1-36.25 6.25-42.54z"/>
<path class="cls-101" d="m1624.9 1245.7a131.49 131.49 0 0 1-47.7-21.64c-1.67-6.44 49.46-62.67 55.09-73.29 13-24.54 19.41-75.33 57-78.41 67.13-5.51-9.37 43.33 7.37 76.07 8.33-7.93 21.25 40.11-13 12.21-25.14 22 56 116.07 48.49 123.19-14.03 13.25-92.64-29.56-107.25-38.13z"/>
<path class="cls-102" d="M1894.37,781.83a72,72,0,0,1,31.38,7.18,64.17,64.17,0,0,1,24.07,20c9.44,13.14,15.71,30.68,17.64,49.37a74.82,74.82,0,0,1-.43,13.94c-.57,6.34-1.17,12.89,0,19.23,1,5.35,3.39,9.52,5.51,13.21,2.38,4.15,4.26,7.42,4.07,11.8-.43,9.73-6.42,14.54-14,20.63-4.71,3.78-9.57,7.69-13.5,13.15-6.25,8.7-8.69,18.42-7.06,28.12,2,11.7,9.61,22.78,21.54,31.21,16.36,11.56,36.38,13.16,55.57,13.16,4.29,0,8.58-.09,12.73-.17s7.94-.16,11.74-.16c1,0,2,0,3.06,0l8.48.09c20.83.21,42.37.43,62.5,3.75,1.1.19,2.12.39,3.11.58a32,32,0,0,0,6.13.81,10.23,10.23,0,0,0,9.47-5.48c1.33-2.5,2-5.78,2.13-11,.21-7.12-1.52-13.8-3.19-20.26-1.43-5.54-2.79-10.77-2.86-15.93v-.74c-.24-19-.51-40.57-17.33-54.85-6.13-5.2-9.9-11.12-13.9-17.38a132.35,132.35,0,0,0-8.64-12.41c-6.61-8.17-15.11-10.25-23.33-12.25-1.37-.34-2.8-.69-4.2-1.06-5.88-1.57-12.5-1.8-19.5-2-17.74-.62-28.79-1.85-32.63-13.8a14.52,14.52,0,0,1,2.06-13.65c4-5.56,11.92-9.29,19.58-9.29a19.09,19.09,0,0,1,10.61,3c13.46,8.91,23.33,13.08,40.63,17.15,5.15,1.2,8.5,1.94,11.59,1.94,7.19,0,10.88-4.08,15.54-9.25,6-6.7,9.13-7.22,12.82-7.22a74.54,74.54,0,0,1,7.86.65c2.1.24,4.48.51,7.13.73.9.08,1.84.12,2.79.12a60.85,60.85,0,0,0,10.14-1.07,51.07,51.07,0,0,1,7.92-.89l.92,0c11.34.52,34,7.34,40.81,13.35,3.22,2.85,4.78,7.69,6.42,12.82.69,2.16,1.41,4.4,2.29,6.6,4.53,11.4,7.95,13.44,16.55,16.35,1.46.5,3.11,1.06,5,1.79,1,.39,2.24.83,3.59,1.33,4.05,1.47,9.59,3.49,14.32,5.78,6.7,3.24,8.09,5.26,8.3,5.62,1.93,3.39,1.83,5.06,1.65,5.38-.38.64-2.89,2.05-7.91,2.05a26,26,0,0,1-3.64-.25c-.62-.08-1.33-.19-2.1-.31A94,94,0,0,0,2234,912h0c-8.86,0-14.85,2.58-17.82,7.67-3.7,6.33-.82,15.91,2,25.17a69.7,69.7,0,0,1,1.93,7.16c.52,3.6.69,7.3.88,11.21a100.92,100.92,0,0,0,1.66,16.15c1,5,2.42,9.82,3.75,14.46,2.23,7.76,4.33,15.1,4.84,23,.38,5.86.2,11.68,0,17.84a174,174,0,0,0,.23,21.62c1.65,17.83,4.13,44.77-1.78,63.34l-1.71,5.41c-6.82,21.77-12.21,39-30.48,52.6-13.64,10.18-34.05,16.84-60.66,19.8a36.92,36.92,0,0,1-4.12.17c-1.14,0-2.32,0-3.52,0s-2.59,0-3.91,0a38.45,38.45,0,0,0-11.54,1.34c-12,3.9-18.23,15.64-23.23,25.07l-.7,1.33c-11.57,21.72-17.54,45.36-23.31,68.23-2.16,8.56-4.39,17.42-6.87,26-.56,1.94-1.06,3.87-1.53,5.74-2.27,9-3.93,14.55-9.3,16.77a13.87,13.87,0,0,1-5.07.72,80.86,80.86,0,0,1-11.11-1.12c-3.11-.44-6-.87-8.78-1a1144.83,1144.83,0,0,1-192.7-27.31,1234.79,1234.79,0,0,1-185.73-58.47c-14.43-5.82-29.53-12.31-44.89-19.29-2-.9-4.36-1.75-6.91-2.65-4.44-1.58-13.68-4.86-15-7.67,0-.06-.07-.15.09-.58,0-.06.65-1.57,5.08-4.79,3.26-2.38,7.36-4.8,11-6.93a87.59,87.59,0,0,0,9.13-5.84c11.72-9.3,23.67-20,31.65-34.82,4.89-9.1,6.2-20.93,7.46-32.38,1.68-15.23,3.27-29.61,12.3-35.46a51.87,51.87,0,0,1,10-4.55c4.54-1.7,9.24-3.47,13.75-6.61,1.92-1.34,3.79-2.68,5.59-4,4.59-3.29,8.92-6.4,13.91-9.36,8.36-5,16.53-10.37,24.43-15.59,6.85-4.52,13.92-9.2,21-13.52,8.11-4.94,16.25-9.1,24.86-13.51,3.47-1.78,7.06-3.61,10.62-5.49,10.94-5.78,12.57-9.33,14.76-18.81.2-.85.41-1.76.65-2.76,2.62-10.76,6.51-19.25,13.42-29.3.7-1,1.9-2.48,3.17-4,3.59-4.37,6-7.46,7.11-10.45,4.32-11.85-4.38-35.82-9-43.44a38,38,0,0,0-5.51-6.92c-2.23-2.33-2.91-3-3.2-6.35-.69-7.81,3.54-21.54,8-30.3,3-5.87,6-11.86,8.93-17.66,6.31-12.57,12.84-25.58,19.81-38.11,14.23-25.6,30.13-39.09,48.6-41.22a73,73,0,0,1,8.23-.47m0-6.57a79.64,79.64,0,0,0-9,.51c-25.22,2.91-42,23.74-53.6,44.56-10.26,18.45-19.29,37.37-28.84,56-4.46,8.69-9.61,24-8.74,33.88.78,8.83,5.24,8.9,9.66,16.12s11.74,28.82,8.48,37.75c-1.23,3.36-7.12,9.54-9.52,13-7,10.19-11.44,19.35-14.39,31.48-2.41,9.91-1.83,11.89-12.1,17.31-12,6.36-24.07,12-35.83,19.2-15.39,9.37-29.94,19.9-45.39,29.06-7.28,4.33-13.2,8.93-19.9,13.61-7.35,5.13-16.23,6.28-23.56,11-19.56,12.68-11.38,50.55-22,70.25-7.19,13.39-18.19,23.45-30,32.79-5.86,4.65-24.56,13.08-27.26,20.43-4.09,11.12,16.93,15.35,25.27,19.15q22.37,10.17,45.15,19.41c121.07,48.82,250,79.17,380.53,86.24,5.78.32,13.58,2.16,20.25,2.16a20,20,0,0,0,7.58-1.23c10.47-4.33,11.51-16,14.63-26.74,9.08-31.26,14.18-63.88,29.67-92.94,4.72-8.87,10.19-20,20.16-23.24a32.67,32.67,0,0,1,9.51-1c2.49,0,5.05.09,7.43.09a45.63,45.63,0,0,0,4.85-.21c21.41-2.38,46.36-8,63.86-21.07,21.59-16.1,26.79-37,34.52-61.28,6.18-19.4,3.92-45.82,2.06-65.93-1.21-13.08.64-26.12-.21-39.29-.88-13.54-6-25.31-8.72-38.35-1.85-8.83-1.18-18-2.47-27-.92-6.37-8-22.48-4.73-28.08,2-3.42,6.89-4.41,12.15-4.41,5.6,0,11.62,1.11,15.05,1.59a33.74,33.74,0,0,0,4.55.31c9.53,0,19.4-4.2,12-17.25-4-7-22.2-12.8-29.57-15.62-11.31-4.32-13.17-2.72-17.83-14.43-3-7.51-4.23-16.4-10.46-21.91-8.37-7.41-32.61-14.44-44.87-15-.4,0-.81,0-1.21,0-6.09,0-11.91,2-18.06,2-.74,0-1.49,0-2.24-.09-6.54-.56-11.36-1.41-15.54-1.41-6.17,0-10.92,1.87-17.7,9.38-4.62,5.13-6.63,7.09-10.66,7.09-2.36,0-5.41-.67-10.08-1.77-16.06-3.77-25.37-7.52-38.51-16.23a25.62,25.62,0,0,0-14.24-4c-16.45,0-33.71,13.43-27.89,31.53,7.81,24.29,39,15.46,56.69,20.17,9.49,2.53,17.94,3.47,24.11,11.1,8.48,10.47,12.41,21.33,23.4,30.66,14.73,12.51,14.78,32.34,15,50.67.16,12.3,6.41,23.94,6.05,35.9-.24,8.07-1.69,10.08-5,10.08-2,0-4.67-.72-8.17-1.3-23.4-3.86-48.3-3.63-72-3.93-1,0-2.09,0-3.14,0-7.85,0-16.14.32-24.47.32-18.47,0-37.14-1.6-51.78-12-16.65-11.76-26.37-31.42-12.93-50.13,9.62-13.37,27.86-17.67,28.73-37.32.49-11-7.84-16.6-9.68-26.5-1.88-10.11,1.59-22.07.5-32.64-1.89-18.31-8-37.48-18.85-52.54-13.65-19-36.83-29.92-60.78-29.92Z"/>
<path class="cls-103" d="M1894.37,775.26c24,0,47.13,10.93,60.78,29.92,10.82,15.06,17,34.23,18.85,52.54,1.09,10.57-2.38,22.53-.5,32.64,1.84,9.9,10.17,15.49,9.68,26.5-.87,19.65-19.11,23.95-28.73,37.32-13.44,18.71-3.72,38.37,12.93,50.13,14.64,10.35,33.31,12,51.78,12,8.33,0,16.62-.32,24.47-.32,1,0,2.1,0,3.14,0,23.67.3,48.57.07,72,3.93,3.5.58,6.17,1.3,8.17,1.3,3.34,0,4.79-2,5-10.08.36-12-5.89-23.6-6.05-35.9-.23-18.33-.28-38.16-15-50.67-11-9.33-14.92-20.19-23.4-30.66-6.17-7.63-14.62-8.57-24.11-11.1-17.69-4.71-48.88,4.12-56.69-20.17-5.82-18.1,11.44-31.53,27.89-31.53a25.62,25.62,0,0,1,14.24,4c13.14,8.71,22.45,12.46,38.51,16.23,4.67,1.1,7.72,1.77,10.08,1.77,4,0,6-2,10.66-7.09,6.78-7.51,11.53-9.38,17.7-9.38,4.18,0,9,.85,15.54,1.41.75.06,1.5.09,2.24.09,6.15,0,12-2,18.06-2,.4,0,.81,0,1.21,0,12.26.55,36.5,7.58,44.87,15,6.23,5.51,7.47,14.4,10.46,21.91,4.66,11.71,6.52,10.11,17.83,14.43,7.37,2.82,25.56,8.58,29.57,15.62,7.43,13.05-2.44,17.25-12,17.25a33.74,33.74,0,0,1-4.55-.31c-3.43-.48-9.45-1.59-15.05-1.59-5.26,0-10.15,1-12.15,4.41-3.27,5.6,3.81,21.71,4.73,28.08,1.29,8.93.62,18.12,2.47,27,2.73,13,7.84,24.81,8.72,38.35.85,13.17-1,26.21.21,39.29,1.86,20.11,4.12,46.53-2.06,65.93-7.73,24.31-12.93,45.18-34.52,61.28-17.5,13.06-42.45,18.69-63.86,21.07a45.63,45.63,0,0,1-4.85.21c-2.38,0-4.94-.09-7.43-.09a32.67,32.67,0,0,0-9.51,1c-10,3.24-15.44,14.37-20.16,23.24-15.49,29.06-20.59,61.68-29.67,92.94-3.12,10.71-4.16,22.41-14.63,26.74a20,20,0,0,1-7.58,1.23c-6.67,0-14.47-1.84-20.25-2.16-130.5-7.07-259.46-37.42-380.53-86.24q-22.79-9.19-45.15-19.41c-8.34-3.8-29.36-8-25.27-19.15,2.7-7.35,21.4-15.78,27.26-20.43,11.76-9.34,22.76-19.4,30-32.79,10.59-19.7,2.41-57.57,22-70.25,7.33-4.75,16.21-5.9,23.56-11,6.7-4.68,12.62-9.28,19.9-13.61,15.45-9.16,30-19.69,45.39-29.06,11.76-7.16,23.78-12.84,35.83-19.2,10.27-5.42,9.69-7.4,12.1-17.31,3-12.13,7.39-21.29,14.39-31.48,2.4-3.48,8.29-9.66,9.52-13,3.26-8.93-4-30.52-8.48-37.75s-8.88-7.29-9.66-16.12c-.87-9.86,4.28-25.19,8.74-33.88,9.55-18.59,18.58-37.51,28.84-56,11.58-20.82,28.38-41.65,53.6-44.56a79.64,79.64,0,0,1,9-.51m0-10h0a87.65,87.65,0,0,0-10.12.58c-13.65,1.57-26.29,7.69-37.58,18.17-8.52,7.91-16.25,18.2-23.62,31.46-7.13,12.84-13.74,26-20.13,38.73-2.89,5.76-5.88,11.72-8.86,17.52-3.92,7.64-11,25.68-9.81,39.33.81,9.12,4.82,13.31,7.75,16.36a22.62,22.62,0,0,1,3.34,4.1c1.6,2.61,4.16,8.76,6,15.44,2.19,8.16,2,12.4,1.7,13.54a62.31,62.31,0,0,1-4.4,5.76c-1.5,1.83-2.91,3.56-4,5.14-8,11.69-12.78,22.09-15.87,34.79-.26,1.06-.48,2-.69,2.93a28.69,28.69,0,0,1-1.29,4.66c-.11.15-.87,1-5.07,3.23-3.46,1.83-7,3.65-10.43,5.4-8.5,4.35-17.29,8.85-25.92,14.1-7.36,4.48-14.57,9.25-21.54,13.85-7.74,5.12-15.75,10.41-23.76,15.16-5.61,3.34-10.44,6.81-15.12,10.16-1.76,1.27-3.57,2.57-5.4,3.85-2.8,2-6.34,3.28-10.09,4.69a65.79,65.79,0,0,0-13.19,6.15c-15.62,10.13-17.81,30-19.75,47.55-1.09,9.88-2.22,20.09-5.59,26.36-6.56,12.21-17,21.48-27.35,29.69-1.3,1-4.33,2.81-7.26,4.54-11.76,7-20.31,12.47-23.18,20.27a17,17,0,0,0,.47,13.34c4.25,9.07,15.45,13.05,24.46,16.24,2.2.78,4.27,1.52,5.59,2.12,15.58,7.08,30.9,13.67,45.55,19.58a1250.23,1250.23,0,0,0,188.24,59.25A1160.26,1160.26,0,0,0,2022.89,1357c2,.11,4.58.48,7.31.88a96.58,96.58,0,0,0,13.48,1.29,29.32,29.32,0,0,0,11.4-2c13.33-5.51,16.49-18,19-28,.46-1.82.9-3.53,1.38-5.19,2.57-8.83,4.84-17.83,7-26.54,5.78-22.91,11.24-44.55,21.86-64.49l.72-1.36c3.79-7.14,8.08-15.24,13.71-17.07a25.1,25.1,0,0,1,6.42-.53c1.17,0,2.42,0,3.62,0s2.54,0,3.81,0a52.73,52.73,0,0,0,6-.27c29.57-3.29,52.69-11,68.73-23,22.57-16.84,29.28-38.25,36.39-60.92.55-1.76,1.11-3.55,1.68-5.35,6.93-21.77,4.26-50.72,2.49-69.88a161,161,0,0,1-.17-19.58c.2-6.28.41-12.77,0-19.43-.63-9.65-3.08-18.2-5.45-26.47-1.3-4.55-2.54-8.86-3.46-13.28a88.64,88.64,0,0,1-1.33-13.55c-.19-4.13-.4-8.4-1-12.79A72.51,72.51,0,0,0,2234,940a97.43,97.43,0,0,1-2.91-11.32,22.44,22.44,0,0,1,2.89-.17h0a80.92,80.92,0,0,1,11.37,1.15l2.31.35a43.29,43.29,0,0,0,5.92.4c10.48,0,18.37-3.65,22.23-10.29,2.52-4.32,4.28-11.63-1.56-21.9-4.89-8.59-17.62-13.78-31.36-18.78l-3.34-1.24c-2.22-.85-4.11-1.49-5.63-2a27.18,27.18,0,0,1-3.9-1.49c-.1-.1-.86-1-2.58-5.29-.66-1.68-1.26-3.55-1.9-5.54-2-6.37-4.59-14.3-11.22-20.17-10.87-9.62-37.92-16.9-51-17.49-.54,0-1.1,0-1.66,0a64.38,64.38,0,0,0-10.6,1.11,47.93,47.93,0,0,1-7.46.85c-.49,0-.95,0-1.4-.06-2.4-.2-4.56-.45-6.64-.69a86.92,86.92,0,0,0-9.74-.75c-9.71,0-17,3.67-25.12,12.68-.91,1-2.67,3-3.61,3.77a65.86,65.86,0,0,1-7.42-1.49c-15.31-3.59-23.55-7.06-35.28-14.83a35.6,35.6,0,0,0-19.76-5.71c-13.1,0-25.73,6.17-33,16.1a31.05,31.05,0,0,0-4.44,28.49c3.45,10.76,10.78,18.1,21.75,21.82,8.38,2.85,17.78,3.17,26.08,3.46,6,.21,11.74.41,15.81,1.49,1.57.42,3.07.79,4.53,1.14,7.41,1.82,11.42,2.93,14.38,6.59a114.07,114.07,0,0,1,7.55,10.9c4.48,7,9.12,14.28,17.14,21.09,11.07,9.4,11.27,25.44,11.49,42.43v.74c.1,7.16,1.77,13.62,3.39,19.88,1.39,5.38,2.71,10.48,2.67,15.09l-1.58-.28c-21.38-3.53-43.57-3.75-65-4l-8.44-.09c-1.08,0-2.17,0-3.27,0-4,0-8.09.08-12.08.16s-8.26.16-12.39.16c-16.46,0-33.42-1.22-46-10.11-8.17-5.78-13.55-13.22-14.76-20.43-.9-5.39.46-10.53,4.18-15.7,2.6-3.62,6.4-6.67,10.42-9.9,8.65-7,19.42-15.59,20.18-32.82.41-9.18-3.28-15.62-6.25-20.79-1.67-2.9-3.11-5.4-3.59-8-.76-4.09-.29-9.25.2-14.72s1-11.28.41-17.12c-2.22-21.52-9.56-41.89-20.67-57.34-15.34-21.35-41.09-34.09-68.9-34.09Z"/>
</svg>
