<?xml version="1.0" encoding="UTF-8"?>
<svg viewBox="0 0 4e3 4e3" xmlns="http://www.w3.org/2000/svg">
<defs>
<style>.cls-1{opacity:0.1;}.cls-2{fill:#290c0d;}.cls-2,.cls-4{stroke:#333;}.cls-2,.cls-3,.cls-4{stroke-miterlimit:10;stroke-width:5px;}.cls-3{stroke:#000;opacity:0.2;}.cls-4{fill:#ab8c74;}</style>
</defs>
<title>hat5</title>
<path class="cls-1" d="m2853.3 1376.7a1455.9 1455.9 0 0 1-197.09 42.26c-181 26-375.09 20.07-571.9-23-264-57.76-496.72-169.1-679.77-317.62 164.06-145.41 371-244 596.2-259.85 319.41-22.45 464.56 50.1 499.6 20.46 42.31-35.84-124.33-75.99-146.52-139.48-26.81-76.51 395.59 127.1 331.57 261.08-5 10.51-55.44 94-417.61-23.77 251.32 81.54 463.53 220.78 585.52 439.92z"/>
<path class="cls-2" d="m2820.7 1119.4a39.44 39.44 0 0 1-21.12 5.12 3599.5 3599.5 0 0 1-1229-266.65c3.06-9.44 8.44-19 16.31-28.74 8.51-10.5 17.75-22.56 27.65-35.94 155.67-210.5 471-747.57 575.23-727.56 80.66 15.47 75.55 77.58 189.17 103.48s120.2-60.37 172.94-49.2c146.24 31 179.95 632.55 249.47 928.13 6.28 26.6 12.68 50.61 19.35 71.36z"/>
<path class="cls-3" d="m2820.7 1119.4a39.35 39.35 0 0 1-21.12 5.12 3599.5 3599.5 0 0 1-1229-266.65c3.06-9.43 8.44-19 16.31-28.73 8.51-10.51 17.75-22.57 27.65-35.94q9.23-12.47 19.17-26.42c303.32 99.99 642.77 217.58 967.87 222.18 191.37 2.73-201.16-593-141.42-822.6 41.36-16.6 55.88-54.08 91.75-46.48 146.23 31 179.95 632.55 249.47 928.13 6.25 26.63 12.65 50.64 19.32 71.39z"/>
<path class="cls-2" d="m3412.5 1015.9c-292.72 306.59-792.83 451.73-1312.2 338.1-542.9-118.76-953.3-464.09-1072-893.16-12.42-44.93 51.31-68.1 71.32-26 79.25 166.82 230.28 318 433.5 380.26q26.33 8.07 53.79 14.11c91.65 20.06 177.36 35.19 264.8 50.31a3522.5 3522.5 0 0 0 693.63 149.4c81.21 21.59 160.58 43.84 241.55 67q23.43 6.69 47.08 11.14c186.81 35.28 380.81-31.41 529.22-146.11 36.21-28.02 80.93 21.86 49.33 54.95z"/>
<path class="cls-4" d="m2839.9 1089.4a37.23 37.23 0 0 1-5.88 17.64 38.41 38.41 0 0 1-13.28 12.46 39.44 39.44 0 0 1-21.12 5.12 3599.5 3599.5 0 0 1-1229-266.65l-13.09-5.39a39.07 39.07 0 0 1-24.39-37.46 37 37 0 0 1 3-13.06 38.62 38.62 0 0 1 38.37-23.07 39.65 39.65 0 0 1 12.32 2.92q13.86 5.74 27.78 11.38 117.17 47.43 237.15 86.25a3522.5 3522.5 0 0 0 693.63 149.4q127.5 14.26 256 19.2l1.08 0.05c21.23 0.8 38 18.36 37.53 39.48 0.02 0.57-0.06 1.15-0.1 1.73z"/>
<path class="cls-3" d="m2840 1087.6c0 0.59 0 1.17-0.08 1.75a37.19 37.19 0 0 1-5.92 17.64 38.41 38.41 0 0 1-13.28 12.46 39.35 39.35 0 0 1-21.12 5.12 3599.5 3599.5 0 0 1-1229-266.65q-6.55-2.68-13.09-5.39a39.07 39.07 0 0 1-24.39-37.45 37 37 0 0 1 3-13.06 3.13 3.13 0 0 1 0.15-0.32 39.5 39.5 0 0 0 21.27 20.83q6.54 2.72 13.09 5.39a3599.5 3599.5 0 0 0 1229 266.65 39.35 39.35 0 0 0 21.12-5.12 38.41 38.41 0 0 0 13.25-12.46 37.74 37.74 0 0 0 2.91-5.39 38 38 0 0 1 3.09 16z"/>
<path class="cls-3" d="m3412.5 1015.9c-292.73 306.6-792.83 451.73-1312.2 338.11-542.9-118.76-953.33-464.1-1072-893.17-6.28-22.7 6.89-39.85 24-45.82 123.73 422.49 531.07 761.54 1068 879 510.64 111.71 1002.6-26.7 1297.2-322.78 8.01 12.92 8.61 30.36-5.05 44.66z"/>
</svg>
