<?xml version="1.0" encoding="UTF-8"?>
<svg viewBox="0 0 4e3 4e3" xmlns="http://www.w3.org/2000/svg">
<defs>
<style>.cls-1{fill:#232323;}.cls-1,.cls-2{stroke:#333;}.cls-1,.cls-2,.cls-3{stroke-miterlimit:10;stroke-width:5px;}.cls-2{fill:#111;}.cls-3{stroke:#000;}</style>
</defs>
<title>hat1</title>
<path class="cls-1" d="m2257.8 832.85q-74.82 12-147.92 28.91c-281.61 65.06-542.76 184.78-775.54 354.26q-62.28 45.32-121.85 95.32c-31.68 26.54-71.08 29.27-88.86 4.74q-15.91-22.12-31.83-44.23c-17.79-24.46-6-68.38 27.3-96.63q45.3-38.46 92.16-74.28c263.9-202 564.76-340.18 891.28-407.82q55.56-11.52 112.09-20.35c43.31-6.76 84.7 13.08 91.85 42.63q6.56 26.58 13.08 53.16c7.14 29.59-20.76 57.68-61.76 64.29z"/>
<path class="cls-2" d="m2102.5 693.12c-326.52 67.63-627.36 205.88-891.27 407.81q2-153.32 15.56-308.34c5.94-69.66 54-140.4 126.42-179.74a2288.9 2288.9 0 0 1 341.89-151.71c41-14.35 85.91-9.55 116.57 11.56 101.1 69.35 198.18 143.11 290.83 220.42z"/>
<path class="cls-3" d="m2257.8 832.85q-74.84 12-147.92 28.91c-281.61 65.06-542.76 184.78-775.54 354.26q-62.28 45.33-121.84 95.32c-31.69 26.54-71.09 29.27-88.87 4.74l-31.83-44.23c-5.17-7.1-7.84-15.83-8.21-25.35q14.52 20.16 29 40.33c17.79 24.54 57.19 21.82 88.88-4.71q59.54-50 121.86-95.28c232.82-169.4 494-289 775.65-354q73.07-16.87 147.93-28.87c41-6.61 68.92-34.68 61.77-64.27q-4.92-20-9.85-40a43 43 0 0 1 7.62 15.75l13.08 53.16c7.18 29.54-20.73 57.61-61.73 64.24z"/>
</svg>
