<?xml version="1.0" encoding="UTF-8"?>
<svg viewBox="0 0 4e3 4e3" xmlns="http://www.w3.org/2000/svg">
<defs>
<style>.cls-1,.cls-4{opacity:0.1;}.cls-2{fill:#f2f2f2;}.cls-2,.cls-3,.cls-4{stroke:#333;stroke-miterlimit:10;stroke-width:5px;}.cls-3{fill:#010101;}.cls-4,.cls-6{fill:#333;}.cls-5{fill:#fbdd11;}</style>
</defs>
<title>hat4(colorable)</title>
<g data-name="hat10(colorable)">
<path class="cls-1" d="m2962.6 1775a10.06 10.06 0 0 1-8.5-6.2c-218.06-510-974.77-575.76-1453.2-507.32-131 18.73-241.06 47.53-313.56 80a10.69 10.69 0 0 1-3.15 0.87 1151.5 1151.5 0 0 1 172.15-218.75c379.48-68.1 1044.5-117.29 1486.3 234.62 68.11 115.01 110.72 252.78 119.96 416.78z"/>
<path class="cls-2" d="m2613.8 241a143.72 143.72 0 0 1-47.51 108.2c-38.34-37-76.5-59.62-113.09-63.76-25.82-2.92-64.66 4.21-113 20.08a144.09 144.09 0 1 1 273.6-64.52z"/>
<path class="cls-3" d="m1209.2 1310.5a10.19 10.19 0 0 1-13.75-12.88c200.66-526.53 1070.7-1033.3 1257.8-1012.2 264.15 29.9 609.58 1021.7 520.72 1450.4-2 9.81-15.48 11.12-19.38 1.89-274.4-649.59-1412.1-578.49-1745.4-427.31z"/>
<path class="cls-2" d="m2954.6 1737.8c-274.39-649.59-1412.1-578.46-1745.4-427.27a10.19 10.19 0 0 1-13.75-12.9c43.69-114.64 119.12-228.34 212.32-335.87 405.68-96.39 1255.3-54.34 1565.3 426 24.52 159.35 23 241.26 0.84 348.22-2.03 9.75-15.48 11.07-19.37 1.82z"/>
<path class="cls-2" d="m2864.1 914c-298.36-227.2-767.38-287.91-1118.3-265.83 145.74-112.17 296.37-205.62 423.57-269.63 170.81 16.59 352 53.83 509.71 118.4 66.8 112.22 132.29 259.06 185.05 417.06z"/>
<path class="cls-2" d="m2954.6 1737.8c-274.39-649.59-1412.1-578.46-1745.4-427.27a10.19 10.19 0 0 1-13.75-12.9c43.69-114.64 119.12-228.34 212.32-335.87 405.68-96.39 1255.3-54.34 1565.3 426 24.52 159.35 23 241.26 0.84 348.22-2.03 9.75-15.48 11.07-19.37 1.82z"/>
<path class="cls-2" d="m2864.1 914c-298.36-227.2-767.38-287.91-1118.3-265.83 145.74-112.17 296.37-205.62 423.57-269.63 170.81 16.59 352 53.83 509.71 118.4 66.8 112.22 132.29 259.06 185.05 417.06z"/>
<path class="cls-4" d="M2613.81,241a143.72,143.72,0,0,1-47.51,108.2c-22-21.23-43.93-37.73-65.55-48.71A144.15,144.15,0,0,0,2454.37,99q7-.75,14.11-.81A144.08,144.08,0,0,1,2613.81,241Z"/>
</g>
<path class="cls-5" d="M2330.6,1213.48l-1.82,0c-4.58-.09-9-.57-13.76-1.09l-1-.11-.18,0c-3-.79-6.12-1.44-9.37-2.13-3.66-.77-7.44-1.56-11.17-2.58a164.58,164.58,0,0,1-31.84-11.81,137.3,137.3,0,0,1-54-48.52,170.75,170.75,0,0,1-18.67-38.78,31.83,31.83,0,0,1-1.89-11.41,11.83,11.83,0,0,1,6.89-10.86c3.86-1.87,8-2.16,11.52-2.21h.69a74.69,74.69,0,0,1,10.68.84,67.34,67.34,0,0,1,11.72,3c10.93,3.59,20.4,9.4,31.25,17l6.25,4.36c8.5,5.89,17.28,12,25.41,18.78a164,164,0,0,1,13,12.14,13.83,13.83,0,0,0,8.62,4.54,12,12,0,0,0,1.48.08,17.3,17.3,0,0,0,5.09-.83,158.15,158.15,0,0,0,24.31-10.24c14.19-7.16,27-16.87,39-29.68a56.54,56.54,0,0,1,39.66-18.33c1.32-.06,2.61-.09,3.85-.09a54.33,54.33,0,0,1,17,2.47c6.58,2.14,10.34,6.62,10.87,13a21.23,21.23,0,0,1-1.15,8,156.6,156.6,0,0,1-11.38,28,154.24,154.24,0,0,1-51.24,56.84c-12,8-23.67,13.42-35.81,16.56A95.9,95.9,0,0,1,2330.6,1213.48Z"/>
<path class="cls-6" d="M2206,1086.42a74.14,74.14,0,0,1,10.32.82,66.49,66.49,0,0,1,11.29,2.94c11.22,3.69,21,10,30.59,16.69,10.65,7.47,21.5,14.65,31.49,23a157.49,157.49,0,0,1,12.83,11.94,16.35,16.35,0,0,0,10.14,5.3,15.29,15.29,0,0,0,1.78.1,19.89,19.89,0,0,0,5.81-.94,158.94,158.94,0,0,0,24.71-10.4,143,143,0,0,0,39.7-30.19,54.08,54.08,0,0,1,38-17.55c1.24-.06,2.49-.09,3.74-.09a51.76,51.76,0,0,1,16.2,2.35c5.61,1.82,8.71,5.41,9.16,10.77a18.94,18.94,0,0,1-1,7,154.09,154.09,0,0,1-11.2,27.57,150.93,150.93,0,0,1-50.42,55.93,114.49,114.49,0,0,1-35,16.22,93.05,93.05,0,0,1-23.41,3l-1.77,0c-4.74-.09-9.45-.63-14.39-1.16-6.65-1.73-13.66-2.83-20.51-4.7a164.41,164.41,0,0,1-31.37-11.63,134.37,134.37,0,0,1-53-47.64,167.66,167.66,0,0,1-18.4-38.22,29.83,29.83,0,0,1-1.76-10.53c.14-4,1.85-6.95,5.48-8.7,3.31-1.6,6.86-1.91,10.47-2h.66m0-5h-.73a29.12,29.12,0,0,0-12.57,2.46c-5.22,2.52-8.09,7-8.31,13a34.41,34.41,0,0,0,2,12.29,173.63,173.63,0,0,0,18.94,39.35,139.91,139.91,0,0,0,55,49.39,167.31,167.31,0,0,0,32.32,12c3.79,1,7.61,1.83,11.3,2.61,3.23.68,6.28,1.32,9.27,2.1l.35.09.36,0,.86.09c4.78.52,9.29,1,14,1.1l1.87,0a98.61,98.61,0,0,0,24.66-3.2c12.41-3.21,24.37-8.74,36.57-16.9a156.67,156.67,0,0,0,52.06-57.76,160.5,160.5,0,0,0,11.57-28.46,23.4,23.4,0,0,0,1.24-8.9c-.61-7.31-5.08-12.67-12.59-15.12a56.78,56.78,0,0,0-17.75-2.59c-1.28,0-2.62,0-4,.1a58.9,58.9,0,0,0-41.36,19.11c-11.86,12.59-24.39,22.13-38.31,29.16a156.16,156.16,0,0,1-23.93,10.08,14.62,14.62,0,0,1-4.34.72,12,12,0,0,1-1.21-.06,11.49,11.49,0,0,1-7.1-3.79A163.67,163.67,0,0,0,2292.9,1126c-8.21-6.86-17-13-25.58-18.91l-6.25-4.35c-11-7.75-20.68-13.66-31.9-17.35a71.14,71.14,0,0,0-12.15-3.14,76.71,76.71,0,0,0-11-.87Z"/>
<path class="cls-5" d="M2331.73,1126.41c-8.34,0-16.61-1.63-23.71-3.16-5.79-1.25-10.71-4.12-15.18-7-12.07-7.89-27.86-18.42-42.9-29.94-5.16-4-10-8.39-14.58-12.69l-2.13-2c-2.16-2-4.19-3.91-6.74-4.89a12,12,0,0,0-4.36-.79,18.59,18.59,0,0,0-4.78.7c-6.79,1.78-13.28,4.88-19,7.62a146,146,0,0,0-26.9,16.07,162.77,162.77,0,0,0-18.15,16.62c-10.21,10.65-22.59,16.7-36.81,18-1.91.17-3.83.26-5.73.26a62.31,62.31,0,0,1-17.39-2.48c-7.07-2-11.46-8-10.9-14.86v-.1l.94-5.75,0-.1a106.6,106.6,0,0,1,6-17.3,160,160,0,0,1,44-57.73,130.2,130.2,0,0,1,42.83-24.18,100.88,100.88,0,0,1,29.88-5.15h1.2c9.19,0,18,1.6,26.33,3.23a156.18,156.18,0,0,1,16.2,4.16c14.35,4.47,26.51,10,37.19,16.86,13,8.4,23.45,17.57,31.88,28a168.1,168.1,0,0,1,23,37.55,120.39,120.39,0,0,1,6.87,18.83,27.76,27.76,0,0,1,.82,8.66,10.76,10.76,0,0,1-6.3,9.6c-3.71,1.76-7.63,1.93-11,2Z"/>
<path class="cls-6" d="M2207.29,1000c8.74,0,17.31,1.5,25.86,3.18a153.31,153.31,0,0,1,15.94,4.1,147.64,147.64,0,0,1,36.57,16.57c11.8,7.61,22.45,16.53,31.29,27.51a165,165,0,0,1,22.65,37,117.78,117.78,0,0,1,6.72,18.43,25.3,25.3,0,0,1,.76,7.89,8.3,8.3,0,0,1-4.88,7.5c-3.17,1.5-6.55,1.69-10,1.72h-.49c-7.87,0-15.55-1.46-23.19-3.1-5.27-1.14-9.88-3.78-14.34-6.69-14.55-9.5-28.94-19.25-42.75-29.82-5.6-4.29-10.71-9.13-15.88-13.92-2.49-2.3-4.91-4.73-8.19-6a14.62,14.62,0,0,0-5.26-1,21.25,21.25,0,0,0-5.42.78c-6.81,1.79-13.13,4.76-19.45,7.78a150.5,150.5,0,0,0-27.35,16.35,167.25,167.25,0,0,0-18.42,16.87c-9.64,10-21.31,16-35.23,17.22-1.85.17-3.68.25-5.51.25a59.64,59.64,0,0,1-16.69-2.38c-6-1.74-9.57-6.63-9.11-12.26l.9-5.54a102.51,102.51,0,0,1,5.87-16.88,156.67,156.67,0,0,1,43.27-56.84,127,127,0,0,1,42-23.72,97.92,97.92,0,0,1,29.14-5h1.15m0-5h-1.22a103.86,103.86,0,0,0-30.63,5.27,132.85,132.85,0,0,0-43.65,24.64,162.4,162.4,0,0,0-44.64,58.63,108.33,108.33,0,0,0-6.14,17.7l-.06.21,0,.21-.44,2.69-.47,2.86,0,.2,0,.2c-.65,8,4.46,15.07,12.7,17.46a65,65,0,0,0,18.09,2.58c2,0,4-.09,6-.27,14.83-1.34,27.75-7.65,38.39-18.74A158.83,158.83,0,0,1,2173,1092.3a143.62,143.62,0,0,1,26.45-15.8c5.62-2.69,12-5.73,18.56-7.46a16.45,16.45,0,0,1,4.15-.61,9.54,9.54,0,0,1,3.47.63c2.09.8,3.86,2.46,5.92,4.38l.66.61,1.47,1.37c4.68,4.34,9.52,8.82,14.77,12.85,15.1,11.56,30.94,22.13,43,30,4.67,3,9.84,6,16,7.38,7.22,1.56,15.65,3.22,24.25,3.22h.53c3.65,0,7.9-.23,12.07-2.2a13.32,13.32,0,0,0,7.73-11.7,30.35,30.35,0,0,0-.9-9.44,122.64,122.64,0,0,0-7-19.21,170.85,170.85,0,0,0-23.32-38.11c-8.6-10.69-19.23-20-32.48-28.58-10.86-7-23.23-12.61-37.79-17.15a159.52,159.52,0,0,0-16.47-4.23c-8.4-1.65-17.39-3.27-26.82-3.27Z"/>
</svg>
