<?xml version="1.0" encoding="UTF-8"?>
<svg viewBox="0 0 4e3 4e3" xmlns="http://www.w3.org/2000/svg">
<defs>
<style>.cls-1,.cls-4{opacity:0.1;}.cls-2{fill:#f2f2f2;}.cls-2,.cls-3,.cls-4{stroke:#333;stroke-miterlimit:10;stroke-width:5px;}.cls-3{fill:#010101;}.cls-4{fill:#333;}</style>
</defs>
<title>hat4(colorable)</title>
<g data-name="hat10(colorable)">
<path class="cls-1" d="m2962.6 1775a10.06 10.06 0 0 1-8.5-6.2c-218.06-510-974.77-575.76-1453.2-507.32-131 18.73-241.06 47.53-313.56 80a10.69 10.69 0 0 1-3.15 0.87 1151.5 1151.5 0 0 1 172.15-218.75c379.48-68.1 1044.5-117.29 1486.3 234.62 68.11 115.01 110.72 252.78 119.96 416.78z"/>
<path class="cls-2" d="m2613.8 241a143.72 143.72 0 0 1-47.51 108.2c-38.34-37-76.5-59.62-113.09-63.76-25.82-2.92-64.66 4.21-113 20.08a144.09 144.09 0 1 1 273.6-64.52z"/>
<path class="cls-3" d="m1209.2 1310.5a10.19 10.19 0 0 1-13.75-12.88c200.66-526.53 1070.7-1033.3 1257.8-1012.2 264.15 29.9 609.58 1021.7 520.72 1450.4-2 9.81-15.48 11.12-19.38 1.89-274.4-649.59-1412.1-578.49-1745.4-427.31z"/>
<path class="cls-2" d="m2954.6 1737.8c-274.39-649.59-1412.1-578.46-1745.4-427.27a10.19 10.19 0 0 1-13.75-12.9c43.69-114.64 119.12-228.34 212.32-335.87 405.68-96.39 1255.3-54.34 1565.3 426 24.52 159.35 23 241.26 0.84 348.22-2.03 9.75-15.48 11.07-19.37 1.82z"/>
<path class="cls-2" d="m2864.1 914c-298.36-227.2-767.38-287.91-1118.3-265.83 145.74-112.17 296.37-205.62 423.57-269.63 170.81 16.59 352 53.83 509.71 118.4 66.8 112.22 132.29 259.06 185.05 417.06z"/>
<path class="cls-2" d="m2954.6 1737.8c-274.39-649.59-1412.1-578.46-1745.4-427.27a10.19 10.19 0 0 1-13.75-12.9c43.69-114.64 119.12-228.34 212.32-335.87 405.68-96.39 1255.3-54.34 1565.3 426 24.52 159.35 23 241.26 0.84 348.22-2.03 9.75-15.48 11.07-19.37 1.82z"/>
<path class="cls-2" d="m2864.1 914c-298.36-227.2-767.38-287.91-1118.3-265.83 145.74-112.17 296.37-205.62 423.57-269.63 170.81 16.59 352 53.83 509.71 118.4 66.8 112.22 132.29 259.06 185.05 417.06z"/>
<path class="cls-4" d="M2613.81,241a143.72,143.72,0,0,1-47.51,108.2c-22-21.23-43.93-37.73-65.55-48.71A144.15,144.15,0,0,0,2454.37,99q7-.75,14.11-.81A144.08,144.08,0,0,1,2613.81,241Z"/>
</g>
</svg>
