<?xml version="1.0" encoding="UTF-8"?>
<svg viewBox="0 0 4e3 4e3" xmlns="http://www.w3.org/2000/svg">
<defs>
<style>.cls-1{opacity:0.1;}.cls-2{fill:#232323;}.cls-2,.cls-3,.cls-4{stroke:#333;stroke-miterlimit:10;stroke-width:7.23px;}.cls-3{fill:#1a1a1a;}.cls-4{fill:#4d4d4d;}</style>
</defs>
<title>hat7</title>
<path class="cls-1" d="m2822 1325.2c-19.26 11.4-34.6 19.5-42.56 23.74-198.51 105.76-394.31 83.88-614.82 59.23-175.19-19.57-373.19-43.9-579.34-174.77-51.18-32.49-129.19-82.78-189.53-147.2 165.42-149.71 375.71-251.6 605-267.72 319.41-22.45 464.56 50.1 499.6 20.46 42.29-35.81-124.35-75.96-146.54-139.45-26.81-76.51 395.59 127.1 331.57 261.08-5 10.51-55.44 94-417.61-23.77 231.03 74.96 429.01 198.68 554.23 388.4z"/>
<path class="cls-2" d="m2117.4 901.43c290.86 49.72 436.29 74.58 578 27.73 88.19-29.16 155.72-75.33 228.88-48.84 62.92 22.78 98.82 88 105.4 139.1 18.33 142.42-202.79 258.49-242.29 279.54-198.51 105.76-394.31 83.88-614.82 59.23-175.19-19.58-373.18-43.9-579.33-174.77-94.58-60-280.8-180.9-277.85-339.3 1.42-76.31 47.91-168.41 118.85-178.06 57.88-7.87 105.32 42.77 170.65 87.83 115.48 79.67 247.82 102.29 512.51 147.54z"/>
<path class="cls-3" d="m2337.8 89.65c26.23 4.38 162.64 27.53 337.9 75.24 160.87 43.8 210.13 68.83 230.62 108.33 20.68 39.88 1.51 75.06-26.05 143.65 0 0-51.63 128.49-86.47 275-45.17 190-69.73 361.37-69.73 361.37-1.09 7.54-2.63 18.45-7 30.49a128 128 0 0 1-24.27 37.23c-60.26 63-211.25 62.28-211.25 62.28-201.18-1-347-23.13-347-23.13a2000.5 2000.5 0 0 1-337.7-81.73c-48-16.16-162-56.65-178.21-123.66-7.23-29.83-6.5-67.26-6.5-67.26 14.57-89.29 19.49-180 33.35-269.36 25.44-164.12 3-409-0.47-446.67-1.6-17.44-4.61-47.47 16.08-74.33 31.2-40.47 101.21-54.22 263.9-50.1 139.37 3.44 264.87 18 412.8 42.65z"/>
<path class="cls-4" d="m2755.8 869.27c-20.76 107.47-31.73 184-31.73 184-1.08 7.54-2.62 18.45-7 30.48a128 128 0 0 1-24.27 37.24c-60.26 63-211.25 62.27-211.25 62.27-201.18-1-347-23.13-347-23.13a1999.5 1999.5 0 0 1-337.7-81.73c-48-16.16-162-56.64-178.21-123.66-7.23-29.83-6.5-67.26-6.5-67.26 11.11-68.09 16.61-137 24.74-205.5q0.73 3.84 1.64 7.56c17 70.09 136.18 112.43 186.37 129.33a2092.4 2092.4 0 0 0 353.17 85.47s152.44 23.15 362.85 24.19c0.02 0 148.4 0.73 214.89-59.26z"/>
</svg>
