<?xml version="1.0" encoding="UTF-8"?>
<svg viewBox="0 0 4e3 4e3" xmlns="http://www.w3.org/2000/svg">
<defs>
<style>.cls-1,.cls-4{fill:#bfbfbf;}.cls-1,.cls-3,.cls-4{stroke:#333;}.cls-1,.cls-2,.cls-3,.cls-4,.cls-5{stroke-miterlimit:10;}.cls-1,.cls-2{stroke-width:5px;}.cls-2,.cls-5,.cls-6{stroke:#000;}.cls-2,.cls-5{opacity:0.1;}.cls-3{fill:#e2e2e2;}.cls-3,.cls-4,.cls-5,.cls-6{stroke-width:4.81px;}.cls-6{stroke-linecap:round;stroke-linejoin:round;opacity:0.15;}</style>
</defs>
<title>hat6</title>
<path class="cls-1" d="m2308.9 949.19a554.25 554.25 0 0 0 29.47-68.19c8.67-24.41-20.72-44.3-40.13-27.14-165 145.9-409 184-616.73 77.22-188.47-96.84-297.35-287.35-299.07-485.48-0.22-25.68-34.62-34.28-46.9-11.72q-3.2 5.87-6.27 11.84c-139 270.51-32.45 602.52 238.07 741.56s602.54 32.44 741.56-238.09z"/>
<path class="cls-2" d="m2334.6 891.13a556.89 556.89 0 0 1-25.77 58.07c-139 270.52-471 377.11-741.56 238.08s-377.11-471-238.07-741.56q3.07-6 6.27-11.84a24.2 24.2 0 0 1 14.08-11.88c-87 274.16 52.65 572.52 324.37 678.88 246.65 96.54 520.78 3.05 660.68-209.75z"/>
<path class="cls-1" d="m1835.3 999.82a555.09 555.09 0 0 1-37.43-86.77c-6.5-19.54 17.31-34.9 32.51-21 167.71 153.28 420.3 192.19 631.9 78.73 192.54-103.24 298.74-304.54 290.08-509.1-0.87-20.53 26.22-28.78 37-11.29q8.68 14.13 16.63 28.93c143.74 268.05 43 601.87-225.09 745.61s-601.88 42.94-745.6-225.11z"/>
<path class="cls-2" d="m2580.9 1224.9c-268.06 143.72-601.88 42.94-745.6-225.11q-12.93-24.11-23.23-48.87c136.6 206.23 400.74 301 644.17 214.1 286.45-102.27 435.75-417.39 333.48-703.84q-3.11-8.68-6.47-17.2a20.32 20.32 0 0 1 6.1 6.38q8.7 14.12 16.64 28.93c143.74 268.05 42.96 601.87-225.09 745.61z"/>
<path class="cls-3" d="m2957.8 1612.3c-1.38 15.38-14.88 14.75-27.27 4.42-196.09-163.45-577.36-254.5-976.21-251.28-314.78 2.55-637.82 45.72-840.55 155.42-13.24 7.16-29.88-1.51-30.3-15.71-16.18-558.15 456.79-914.93 951.79-918.93 494.38-4 978.72 398.29 922.54 1026.1z"/>
<path class="cls-4" d="m2971.2 1619.5c-1.4 15.6-21.48 23-34 12.57-173.34-144.49-484.48-239.34-829.35-259.16-50.49-2.91-101.68-4.2-153.28-3.81h-1.19c-319.3 2.58-647 46.38-852.61 157.64-13.43 7.26-30.31-1.53-30.73-15.93a935.08 935.08 0 0 1 5-128.76 5.68 5.68 0 0 1 3.16-4.42c214.9-109.31 547-152.63 870.83-155.26 3.85 0 7.72-0.06 11.57-0.07a6 6 0 0 0 6.13-5.28l50.6-632.86a6 6 0 0 1 6-5.29q6.08-0.12 12.15-0.17a925.61 925.61 0 0 1 129.49 8.08 5.83 5.83 0 0 1 5.25 6.07l-50.24 628.33a5.88 5.88 0 0 0 5.73 6.11c352.78 22.6 669.91 120.67 847.74 268.9a5.8 5.8 0 0 1 2.14 4.34 1110 1110 0 0 1-4.39 118.97z"/>
<ellipse class="cls-3" cx="2090.6" cy="665.73" rx="47.66" ry="44.16"/>
<ellipse class="cls-3" cx="2077.3" cy="801.47" rx="47.66" ry="44.16"/>
<ellipse class="cls-3" cx="2066.6" cy="937.19" rx="47.66" ry="44.16"/>
<ellipse class="cls-3" cx="2057.3" cy="1059.4" rx="47.66" ry="44.16"/>
<ellipse class="cls-3" cx="2045.9" cy="1181.6" rx="47.66" ry="44.16"/>
<path class="cls-5" d="m2017.1 586.52-50.41 630.54a6 6 0 0 1-6.12 5.28l-11.58 0.06c-318.4 2.59-644.79 44.52-859.91 149.82q2.25-19.35 5.3-38.31c215-97.59 530-136.8 837.61-139.3l11.58-0.07a6 6 0 0 0 6.12-5.28l48.13-602.06q9.63-0.44 19.28-0.68z"/>
<path class="cls-6" d="M2971.16,1619.53c-1.4,15.6-21.48,23-34,12.57-173.34-144.49-484.48-239.34-829.35-259.16-50.49-2.91-101.68-4.21-153.28-3.82h-1.19c-319.3,2.59-647,46.38-852.61,157.64-13.43,7.27-30.31-1.53-30.73-15.92q-.75-25.95-.13-51.32c0,1.66.08,3.32.13,5,.42,14.4,17.3,23.19,30.73,15.93,205.64-111.26,533.31-155.06,852.61-157.65h1.19c51.6-.39,102.79.9,153.28,3.81,344.87,19.82,656,114.67,829.35,259.16,12.56,10.47,32.64,3,34-12.57q3.35-37.41,4.19-73.78a5,5,0,0,1,.15,1.15A1110,1110,0,0,1,2971.16,1619.53Z"/>
<path class="cls-3" d="m1107.8 1523q23.24-12.24 48.41-23.37-22 10.17-42.44 21.21a21.16 21.16 0 0 1-5.97 2.16z"/>
<path class="cls-5" d="m2961.9 1486.9c-179.79-143-490.94-237.43-836.25-259.56a5.85 5.85 0 0 1-5.72-6.1l50.1-626.07q9.12 1.27 18.22 2.75l-48.28 603.86a5.87 5.87 0 0 0 5.72 6.11c331.9 21.26 632.24 109.32 814.71 243.1q1.04 17.81 1.5 35.91z"/>
</svg>
