<?xml version="1.0" encoding="UTF-8"?>
<svg viewBox="0 0 4e3 4e3" xmlns="http://www.w3.org/2000/svg">
<defs>
<style>.cls-1{fill:#00f3ff;opacity:0.5;}.cls-2{fill:none;stroke:#333;stroke-miterlimit:10;stroke-width:35px;}.cls-3{fill:#333;}.cls-4{fill:#7f6145;}.cls-5{opacity:0.2;}</style>
</defs>
<title>glasses2_1</title>
<circle class="cls-1" cx="2377.1" cy="1736.6" r="374.35"/>
<circle class="cls-2" transform="translate(-531.77 2189.5) rotate(-45)" cx="2377.1" cy="1736.6" r="374.35"/>
<circle class="cls-1" cx="1625.2" cy="1742.3" r="374.35"/>
<circle class="cls-2" cx="1625.2" cy="1742.3" r="374.35"/>
<path class="cls-3" d="M2796.13,1672.06c16,3.55,31.67,7.63,47.24,12.29s31,10,46.24,16.11a315.84,315.84,0,0,1,44.91,22,172.35,172.35,0,0,1,21.26,15,104.85,104.85,0,0,1,18.72,19.94,14.7,14.7,0,0,1-20.23,20.65l-1.32-.89c-9.74-6.58-22.34-10.68-35.56-13.35a267.1,267.1,0,0,0-41.31-4.62c-14.11-.58-28.39-.41-42.68.29s-28.59,2-42.66,3.72a46.41,46.41,0,1,1,4.14-91.43Z"/>
<path class="cls-3" d="m1206.1 1762.1c-14.1-1.5-28.43-2.5-42.72-3s-28.58-0.38-42.68 0.45a267.63 267.63 0 0 0-41.22 5.34c-13.17 2.91-25.7 7.22-35.33 14l-1.27 0.89a14.7 14.7 0 0 1-20.62-20.28 104.84 104.84 0 0 1 18.38-20.25 171.9 171.9 0 0 1 21-15.37 314.93 314.93 0 0 1 44.52-22.78c15.14-6.42 30.47-12 46-16.91s31.09-9.3 47-13.12l1.06-0.26a46.42 46.42 0 0 1 21.68 90.27 47.4 47.4 0 0 1-15.8 1.02z"/>
<path class="cls-4" d="M1781,2081c0,76.35,100,169,218.77,168,109.48-.95,216.23-92.55,216.23-167.78,0-60.53-125.95-113.77-216.23-113C1915.94,1969,1781,2009.38,1781,2081Z"/>
<path class="cls-5" d="M2216,2081.21c0,75.23-106.76,166.83-216.23,167.78C1881,2250,1781,2157.35,1781,2081a55.51,55.51,0,0,1,.8-9.44c42.79,52.91,125.12,97,217.46,96.3,86.31-.67,171.11-45.93,214.93-99.27A45.85,45.85,0,0,1,2216,2081.21Z"/>
</svg>
