<?xml version="1.0" encoding="UTF-8"?>
<svg viewBox="0 0 4e3 4e3" xmlns="http://www.w3.org/2000/svg">
<defs>
<style>.cls-1{fill:#1a1a1a;stroke:#333;stroke-miterlimit:10;stroke-width:5px;}.cls-2{opacity:0.5;}.cls-3{fill:#7f6145;}.cls-4{opacity:0.2;}</style>
</defs>
<title>glasses5</title>
<path class="cls-1" d="m2963.4 1788.5a25 25 0 0 1-14.6-4.72c-2.61-1.88-12.52-7-48-14.27-27.31-5.55-62.53-11-103.3-17.28-154.7-23.87-388.49-60-553.59-161.56a25 25 0 1 1 26.21-42.58c156.5 96.32 384.28 131.47 535 154.73 100.45 15.5 149.76 23.69 172.94 40.39a25 25 0 0 1-14.63 45.29z"/>
<path class="cls-1" d="m2108.5 1528.9a24.85 24.85 0 0 1-14.59-4.72c-7.43-5.35-23.79-15.82-44.51-29.06-64-40.91-183-117-293.53-205.33-61.79-49.35-113.66-96.73-154.17-140.82-49.28-53.64-81.15-95.77-98.86-141.64-5-12.88-0.88-23 11.94-28.1 7.38-3 24.52-17.44 29.49-4.56 29 75.1 112.75 172.17 242.8 276.05 108.47 86.65 226.08 161.86 289.27 202.27 22.2 14.2 38.24 24.46 46.8 30.63a25 25 0 0 1-14.64 45.28z"/>
<path class="cls-2" d="M2130.61,1508.11a22.52,22.52,0,0,1-35.27,14c-7.49-5.4-23.88-15.88-44.62-29.15-63.92-40.88-182.9-117-293.33-205.17-61.68-49.27-113.45-96.56-153.88-140.56-45.55-49.57-79.7-92.5-98.37-140.85-4.47-11.59-.91-20,10.59-24.9l.57-.25c.84,2.87,2.77,9.62,4,12.79,17.7,45.87,48.1,81.26,97.38,134.9,40.51,44.09,92.38,91.47,154.16,140.82,110.53,88.29,229.58,164.43,293.54,205.33,20.71,13.25,37.08,23.71,44.51,29.07a24.93,24.93,0,0,0,20.73,3.94Z"/>
<path class="cls-2" d="m2985.9 1765.2a22.5 22.5 0 0 1-35.59 16.55c-3.41-2.45-14.31-7.63-49-14.68-27.37-5.57-62.6-11-103.42-17.31-154.5-23.84-388-59.87-552.66-161.21a22.52 22.52 0 0 1-3-36.11 25 25 0 0 0 11.71 18.23c165.1 101.62 398.89 137.69 553.59 161.57 40.77 6.29 76 11.72 103.3 17.28 35.51 7.22 45.42 12.38 48 14.26a25 25 0 0 0 27.05 1.42z"/>
<path class="cls-1" d="m2467.8 1415.6c64.64 42.54 94.76 98.49 106.51 121 69.07 132.11 29 268.11 17.13 309.61-17.69 61.84-67.43 235.67-209.34 270.63-155.59 38.33-290.89-122.59-312.28-148-13.54-16.11-105.81-129.32-98.82-290.57 1.71-39.46 4.8-110.87 53.31-180.31 68.67-98.29 176.26-120.58 204.68-126 38.72-7.38 142.24-19.91 238.81 43.64z"/>
<path class="cls-2" d="m2573.8 1894.9c-9.81 28.65-23.45 62.52-42.59 95.35-39.38 67.55-89.74 109.3-149.68 124.06-139.09 34.26-263-91.53-309.77-147.21-9.65-11.47-34.49-43.23-56.77-90.31-30.44-64.32-44.4-131.12-41.48-198.54 1.67-38.49 4.78-110.14 52.87-179a282.58 282.58 0 0 1 21-26.53c-4.66 25.87-5.64 48.56-6.37 65.41-7 161.25 85.28 274.46 98.82 290.56 21.39 25.44 156.69 186.36 312.28 148 51.92-12.69 91.5-44.11 121.69-81.79z"/>
<path class="cls-3" d="M1781,2083c0,76.35,100,169,218.77,168,109.48-.95,216.23-92.55,216.23-167.78,0-60.53-125.95-113.77-216.23-113C1915.94,1971,1781,2011.38,1781,2083Z"/>
<path class="cls-4" d="M2216,2083.21c0,75.23-106.76,166.83-216.23,167.78C1881,2252,1781,2159.35,1781,2083a55.51,55.51,0,0,1,.8-9.44c42.79,52.91,125.12,97,217.46,96.3,86.31-.67,171.11-45.93,214.93-99.27A45.85,45.85,0,0,1,2216,2083.21Z"/>
</svg>
