<?xml version="1.0" encoding="UTF-8"?>
<svg viewBox="0 0 4e3 4e3" xmlns="http://www.w3.org/2000/svg">
<defs>
<style>.cls-1{fill:#ffcd98;stroke:#333;stroke-width:5px;}.cls-1,.cls-2,.cls-5{stroke-miterlimit:10;}.cls-2,.cls-3,.cls-4{fill:none;stroke-linecap:round;}.cls-2,.cls-3,.cls-4,.cls-5{stroke:#b99e78;}.cls-2,.cls-4{stroke-width:18.88px;}.cls-3,.cls-4{stroke-linejoin:round;}.cls-3{stroke-width:20px;}.cls-5{fill:#92ff92;stroke-width:9.44px;}.cls-6{opacity:0.1;}.cls-7{fill:#7f6145;}.cls-8{opacity:0.2;}</style>
</defs>
<title>glasses3_2</title>
<path class="cls-1" d="m2139.7 2009.4c-88.95 50.92-166.2 61.57-279.52 2.6-37.32 46.14-410.49-335.42-595.43-304.37q1.23-5.57 2.56-11.09c62.79-262.73 276.37-492.77 464.22-492.77 172.41 0 245.31 116.94 268 116.74 19.15-0.16 112.39-116.74 268-116.74 185.65 0 395.44 224 461.33 482.45q1.39 5.48 2.7 11c-173.73-18.9-554 358.13-591.86 312.18z"/>
<path class="cls-2" d="m1906 1653.4c11-8.05 47-32.34 99-31.35 52.19 1 87.39 26.86 98 35.33"/>
<path class="cls-3" d="m1032.5 1771.8c28.88-17.5 73.7-39.07 126.29-52.44 76-19.34 153.7-12.66 193.56-6.55"/>
<path class="cls-4" d="m1779 1555.5a1518.3 1518.3 0 0 0 215.13 16.16 1519.8 1519.8 0 0 0 242.64-18.57"/>
<path class="cls-3" d="m2969.2 1770c-25.37-19.45-71.23-43.65-136.56-59.34-75.62-18.16-161.68-9.72-193.89-2"/>
<path class="cls-5" d="m1334.6 1835.5c1.35 154.89 79.39 335 263.32 331.08s379.65-267.58 378.1-445.72c-0.67-76.43-70.59-164.53-282.59-162.68-128.83 1.12-361.25-0.18-358.83 277.32z"/>
<path class="cls-5" d="m2661 1825.4c1.36 154.89-73.52 336.29-257.5 335.63s-381.95-264.09-383.5-442.23c-0.67-76.43 65.38-162.57 277.38-164.42 128.83-1.12 361.19-6.52 363.62 271.02z"/>
<path class="cls-6" d="m1967.6 1766.8c-12.12 76-53.72 163.87-114.78 239.36-36.68 45.35-78.37 83.48-120.57 110.27-46.12 29.28-91.36 44.58-134.46 45.49-63.44 1.33-117.62-19.35-161-61.49-60.1-58.33-96.54-157.37-97.48-264.92-0.29-32.93 2.82-63 9.27-90q-0.45 10.93-0.35 22.53c1.32 151.76 77.78 328.19 258 324.4 143.08-3.01 302.55-169.72 361.37-325.64z"/>
<path class="cls-6" d="m2563.4 2092c-42.45 42.66-95.91 64.29-158.94 64.29h-1c-43.06-0.16-88.43-14.83-134.85-43.62-42.39-26.3-84.47-64.07-121.68-109.23-59-71.62-100.65-154.78-115.87-228.46 63.64 152.67 223.07 311.44 364 311.95 180.25 0.64 253.62-177.09 252.29-328.85q-0.08-8.4-0.44-16.46c6 25.32 9.1 53.31 9.36 83.79 0.91 107.59-33.8 207.22-92.87 266.59z"/>
<path class="cls-7" d="M1781,2081c0,76.35,100,169,218.77,168,109.48-.95,216.23-92.55,216.23-167.78,0-60.53-125.95-113.77-216.23-113C1915.94,1969,1781,2009.38,1781,2081Z"/>
<path class="cls-8" d="M2216,2081.21c0,75.23-106.76,166.83-216.23,167.78C1881,2250,1781,2157.35,1781,2081a55.51,55.51,0,0,1,.8-9.44c42.79,52.91,125.12,97,217.46,96.3,86.31-.67,171.11-45.93,214.93-99.27A45.85,45.85,0,0,1,2216,2081.21Z"/>
</svg>
