<?xml version="1.0" encoding="UTF-8"?>
<svg viewBox="0 0 4e3 4e3" xmlns="http://www.w3.org/2000/svg">
<defs>
<style>.cls-1{fill:#f7ca4d;}.cls-2{fill:#333;}.cls-3{fill:#dbad49;}.cls-4{fill:#aefffd;opacity:0.4;}.cls-5{fill:#7f6145;}.cls-6{opacity:0.2;}</style>
</defs>
<title>glasses4</title>
<path class="cls-1" d="M2915.47,1806.21a89.59,89.59,0,0,1-28.34-4.72l-.57-.2c-17.33-5.89-32.07-16.52-41.54-29.91-10.29-14.57-13.3-30.72-8.47-45.48s16.83-26,33.74-31.5a75,75,0,0,1,23.32-3.58,89.39,89.39,0,0,1,28.34,4.71l.53.18c17.35,5.9,32.11,16.53,41.58,29.93,10.29,14.57,13.3,30.72,8.47,45.47-3.93,12-12.57,21.63-25,27.88A71.64,71.64,0,0,1,2915.47,1806.21Zm-19.67-84a40.39,40.39,0,0,0-12.49,1.89c-7.37,2.41-12.44,6.86-14.3,12.52s-.4,12.35,4.13,18.76c5.17,7.32,13.47,13.21,23.36,16.58l.38.13a52.56,52.56,0,0,0,16.38,2.72,37.52,37.52,0,0,0,16.76-3.62c3.57-1.8,8.2-5.12,10.05-10.75s.4-12.36-4.13-18.76c-5.17-7.33-13.48-13.22-23.4-16.6l-.35-.12A52,52,0,0,0,2895.8,1722.19Z"/>
<path class="cls-2" d="M2893.61,1693.32a87.43,87.43,0,0,1,27.55,4.58l.52.17c16.85,5.74,31.17,16,40.33,29,9.83,13.91,12.72,29.27,8.14,43.25-3.71,11.34-11.92,20.48-23.73,26.43a68.83,68.83,0,0,1-31,7,87.58,87.58,0,0,1-27.55-4.59l-.57-.19c-16.82-5.73-31.12-16-40.28-29-9.83-13.9-12.72-29.27-8.14-43.25s16-24.62,32.14-29.9a72.61,72.61,0,0,1,22.54-3.46m19.65,84a39.89,39.89,0,0,0,17.88-3.89c4-2,9.19-5.75,11.31-12.21s.53-13.91-4.47-21c-5.47-7.75-14.22-14-24.64-17.51l-.35-.12a54.39,54.39,0,0,0-17.19-2.89,42.6,42.6,0,0,0-13.26,2c-8.15,2.66-13.8,7.67-15.9,14.11s-.54,13.91,4.46,21c5.47,7.75,14.21,14,24.59,17.51l.4.13a54.53,54.53,0,0,0,17.17,2.85m-19.65-89h0a77.43,77.43,0,0,0-24.09,3.71c-17.7,5.78-30.25,17.54-35.34,33.1s-2,32.46,8.8,47.69c9.77,13.82,24.95,24.77,42.76,30.84l.58.19a91.86,91.86,0,0,0,29.15,4.86,74,74,0,0,0,33.19-7.49c13-6.55,22.1-16.69,26.24-29.33,5.08-15.52,2-32.46-8.8-47.7-9.77-13.82-25-24.77-42.81-30.85l-.53-.18a92.26,92.26,0,0,0-29.15-4.84Zm19.65,84a50,50,0,0,1-15.59-2.59l-.39-.14c-9.37-3.19-17.23-8.75-22.1-15.64-4.06-5.75-5.4-11.62-3.79-16.54s6.11-8.77,12.7-10.92a37.56,37.56,0,0,1,11.71-1.77,49.27,49.27,0,0,1,15.61,2.63l.33.11c9.42,3.21,17.29,8.77,22.16,15.67,4.06,5.74,5.4,11.62,3.79,16.54s-5.65,7.71-8.8,9.3a35,35,0,0,1-15.63,3.35Z"/>
<path class="cls-3" d="m2866.6 1735.8c2.1-6.43 7.75-11.45 15.9-14.11 9.06-3 19.88-2.65 30.45 0.87l0.35 0.12c10.42 3.55 19.17 9.77 24.64 17.52a29.78 29.78 0 0 1 4.7 9.86c1.6-6.19-0.08-13.19-4.78-19.86-5.48-7.75-14.23-14-24.64-17.52l-0.36-0.12c-10.57-3.52-21.38-3.83-30.45-0.87-8.15 2.66-13.79 7.68-15.9 14.12a19.69 19.69 0 0 0-0.23 11.12c0.09-0.38 0.2-0.76 0.32-1.13z"/>
<path class="cls-3" d="m2971.9 1751.6a42.24 42.24 0 0 1-1.87 8.76c-3.71 11.34-11.92 20.48-23.73 26.42-16.61 8.36-37.93 9.22-58.5 2.36l-0.56-0.19c-16.82-5.73-31.13-16-40.29-29a54.09 54.09 0 0 1-9.92-24.5c-1.23 11.47 2.2 23.44 10 34.5 9.16 13 23.46 23.26 40.28 29l0.57 0.19c20.57 6.86 41.89 6 58.5-2.36 11.81-5.94 20-15.08 23.73-26.42a42.89 42.89 0 0 0 1.79-18.76z"/>
<path class="cls-1" d="m2795.4 1780.6a94.06 94.06 0 0 1-11.93-0.77l-0.6-0.08c-18.14-2.45-34.65-10-46.52-21.35-12.91-12.31-19-27.58-17.09-43s11.5-28.73 27-37.42c11.25-6.3 24.74-9.63 39-9.63a93.43 93.43 0 0 1 11.89 0.77l0.55 0.07c18.17 2.46 34.7 10 46.57 21.35 12.91 12.32 19 27.58 17.08 43-1.54 12.52-8.16 23.65-19.14 32.18-12.29 9.59-28.94 14.88-46.81 14.88zm-9.13-81.17a44 44 0 0 0-21.47 5.18c-6.77 3.79-10.9 9.13-11.62 15s2 12.2 7.66 17.61c6.49 6.19 15.77 10.37 26.12 11.77h0.41a54.64 54.64 0 0 0 6.87 0.44c9.87 0 19.15-2.81 25.47-7.71 3.15-2.45 7.06-6.61 7.78-12.49s-2-12.2-7.66-17.62c-6.49-6.18-15.78-10.36-26.17-11.76h-0.37a55.41 55.41 0 0 0-7.02-0.42z"/>
<path class="cls-2" d="M2785.3,1670.89a90.6,90.6,0,0,1,11.57.75l.54.07c17.64,2.38,33.69,9.73,45.18,20.68,12.32,11.76,18.12,26.27,16.32,40.88-1.45,11.84-7.74,22.39-18.19,30.5-12,9.33-28.1,14.35-45.33,14.35a91.58,91.58,0,0,1-11.61-.75l-.59-.08c-17.61-2.38-33.64-9.72-45.13-20.68-12.32-11.75-18.12-26.27-16.32-40.87s11-27.25,25.77-35.54c10.93-6.11,24-9.31,37.79-9.31m8.94,81.15c10.39,0,20.14-2.92,27-8.24,3.53-2.74,7.91-7.42,8.74-14.16s-2.17-13.75-8.43-19.72c-6.86-6.55-16.65-11-27.56-12.44l-.37,0a57.27,57.27,0,0,0-7.35-.48,46.64,46.64,0,0,0-22.7,5.5c-7.48,4.18-12,10.19-12.87,16.91s2.16,13.76,8.42,19.73c6.86,6.55,16.64,11,27.51,12.43l.42.06a56.49,56.49,0,0,0,7.2.46m-8.94-86.15h0c-14.69,0-28.61,3.44-40.23,9.95-16.25,9.09-26.3,23-28.3,39.29s4.35,32.23,17.84,45.1c12.25,11.68,29.26,19.5,47.91,22l.61.08a95.71,95.71,0,0,0,12.26.8c18.43,0,35.61-5.47,48.4-15.4,11.51-8.94,18.46-20.65,20.09-33.84,2-16.22-4.35-32.23-17.84-45.11-12.25-11.67-29.28-19.49-48-22l-.55-.08a97.06,97.06,0,0,0-12.23-.79Zm8.94,81.15a51.75,51.75,0,0,1-6.57-.42l-.41,0c-9.81-1.33-18.59-5.27-24.7-11.1-5.09-4.85-7.54-10.35-6.91-15.49s4.3-9.78,10.36-13.17a41.51,41.51,0,0,1,20.25-4.86,52.77,52.77,0,0,1,6.72.44l.35,0c9.85,1.33,18.65,5.27,24.76,11.09,5.09,4.86,7.54,10.36,6.91,15.5s-4.06,8.66-6.84,10.82c-5.88,4.57-14.6,7.19-23.92,7.19Z"/>
<path class="cls-3" d="m2750.7 1719.4c0.82-6.71 5.4-12.73 12.88-16.91 8.32-4.65 19-6.44 30-5h0.36c10.91 1.47 20.7 5.89 27.56 12.44a29.68 29.68 0 0 1 6.51 8.77c0.38-6.39-2.62-12.93-8.52-18.57-6.87-6.55-16.66-11-27.56-12.44h-0.37c-11-1.41-21.72 0.37-30 5-7.48 4.19-12.05 10.2-12.88 16.92a19.78 19.78 0 0 0 1.92 11c0.02-0.43 0.05-0.82 0.1-1.21z"/>
<path class="cls-3" d="M2857,1714.52a41.89,41.89,0,0,1-.14,9c-1.46,11.85-7.75,22.4-18.19,30.5-14.69,11.41-35.44,16.37-56.95,13.6l-.59-.08c-17.6-2.37-33.63-9.71-45.12-20.67a54.13,54.13,0,0,1-14.46-22.13c1,11.49,6.68,22.58,16.48,31.92,11.49,11,27.5,18.3,45.11,20.68l.6.08c21.5,2.76,42.26-2.19,56.94-13.6,10.45-8.11,16.74-18.66,18.19-30.5A42.76,42.76,0,0,0,2857,1714.52Z"/>
<path class="cls-1" d="m2679.4 1775.6a94.21 94.21 0 0 1-11.94-0.77l-0.6-0.08c-18.13-2.45-34.65-10-46.52-21.35-12.91-12.31-19-27.57-17.08-43s11.5-28.73 27-37.42c11.26-6.29 24.74-9.62 39-9.62a93.29 93.29 0 0 1 11.89 0.76l0.55 0.08c18.17 2.45 34.71 10 46.57 21.35 12.91 12.31 19 27.58 17.09 43-1.54 12.53-8.16 23.65-19.14 32.18-12.31 9.59-28.95 14.87-46.82 14.87zm-9.14-81.16a44.11 44.11 0 0 0-21.47 5.17c-6.77 3.79-10.89 9.13-11.62 15s2 12.2 7.67 17.61c6.48 6.19 15.76 10.37 26.12 11.77h0.4a54.68 54.68 0 0 0 6.88 0.44c9.87 0 19.15-2.81 25.46-7.71 3.15-2.45 7.06-6.61 7.79-12.49s-2-12.2-7.67-17.61c-6.49-6.19-15.78-10.37-26.17-11.77h-0.36a55.66 55.66 0 0 0-7.03-0.41z"/>
<path class="cls-2" d="M2669.25,1665.91a90.58,90.58,0,0,1,11.57.74l.54.07c17.65,2.39,33.69,9.73,45.18,20.69,12.32,11.75,18.12,26.26,16.33,40.87-1.46,11.84-7.75,22.39-18.2,30.5-12,9.33-28.09,14.35-45.33,14.35a91.58,91.58,0,0,1-11.61-.75l-.59-.08c-17.61-2.37-33.64-9.72-45.12-20.68-12.33-11.75-18.13-26.26-16.33-40.87s10.95-27.25,25.77-35.53c10.93-6.12,24-9.31,37.79-9.31m8.94,81.14c10.39,0,20.14-2.91,27-8.24,3.53-2.74,7.91-7.42,8.74-14.16s-2.16-13.75-8.43-19.72c-6.86-6.55-16.65-11-27.55-12.44l-.37,0a57.52,57.52,0,0,0-7.36-.47,46.62,46.62,0,0,0-22.69,5.49c-7.48,4.19-12.06,10.19-12.88,16.92s2.16,13.75,8.42,19.72c6.87,6.55,16.64,11,27.51,12.44l.42,0a56.49,56.49,0,0,0,7.2.46m-8.94-86.14h0c-14.69,0-28.6,3.44-40.23,9.94-16.25,9.09-26.3,23-28.29,39.29s4.34,32.23,17.84,45.1c12.24,11.68,29.25,19.5,47.9,22l.61.08a97.53,97.53,0,0,0,12.26.79c18.43,0,35.62-5.47,48.4-15.4,11.52-8.94,18.46-20.64,20.09-33.84,2-16.21-4.34-32.23-17.84-45.1-12.25-11.68-29.28-19.5-48-22l-.55-.07a95.22,95.22,0,0,0-12.23-.79Zm8.94,81.14a51.48,51.48,0,0,1-6.56-.42l-.41-.05c-9.82-1.33-18.6-5.27-24.71-11.09-5.09-4.86-7.54-10.36-6.91-15.5s4.31-9.78,10.36-13.16a41.54,41.54,0,0,1,20.25-4.86,52.74,52.74,0,0,1,6.72.43l.35,0c9.86,1.33,18.65,5.27,24.76,11.1,5.09,4.85,7.55,10.35,6.91,15.49s-4.06,8.67-6.84,10.82c-5.88,4.57-14.6,7.19-23.92,7.19Z"/>
<path class="cls-3" d="m2634.6 1714.4c0.82-6.71 5.4-12.73 12.88-16.91 8.32-4.65 19-6.43 30.05-5h0.36c10.91 1.48 20.7 5.89 27.56 12.44a29.8 29.8 0 0 1 6.51 8.77c0.38-6.38-2.62-12.93-8.52-18.57-6.87-6.54-16.65-11-27.55-12.44h-0.38c-11.05-1.42-21.72 0.36-30.05 5-7.48 4.18-12.05 10.19-12.87 16.92a19.67 19.67 0 0 0 1.91 11c0.02-0.43 0.05-0.82 0.1-1.21z"/>
<path class="cls-3" d="M2741,1709.53a42,42,0,0,1-.14,9c-1.46,11.84-7.75,22.39-18.19,30.5-14.69,11.4-35.44,16.36-56.95,13.59l-.58-.07c-17.61-2.38-33.64-9.72-45.13-20.68a54.13,54.13,0,0,1-14.46-22.13c1,11.5,6.68,22.58,16.48,31.93,11.49,11,27.5,18.29,45.11,20.67l.6.08c21.51,2.76,42.26-2.19,56.95-13.6,10.44-8.1,16.73-18.66,18.19-30.5A42.92,42.92,0,0,0,2741,1709.53Z"/>
<ellipse class="cls-4" cx="2263.2" cy="1731.7" rx="317.26" ry="339.69"/>
<path class="cls-1" d="m2269.3 2106.8c-92.4 0-179.61-38.2-245.54-107.58-66.71-70.19-103.9-164-104.71-264.1s34.83-194.59 100.39-266 153.28-111.31 246.89-112.19h2.83c92.61 0 179.93 38.2 245.86 107.58 66.71 70.19 103.9 164 104.71 264.1 1.69 206.74-154.1 376.4-347.28 378.21zm0.16-670.31h-2.42c-73.61 0.69-142.57 32-194.18 88.27s-79.75 130.74-79.1 209.66 29.94 152.85 82.5 208.15c51.87 54.58 120.36 84.63 192.86 84.64h2.72c152-1.42 274.61-135.07 273.28-297.93-0.64-78.92-29.94-152.85-82.51-208.15-51.92-54.59-120.5-84.64-193.15-84.64z"/>
<path class="cls-2" d="M2269.12,1359.39c91.91,0,178.44,37.77,244.05,106.8,66.27,69.73,103.21,162.92,104,262.4,1.68,205.36-153,373.9-344.81,375.69h-3.11c-91.76,0-178.21-37.85-243.74-106.8-66.27-69.73-103.21-162.92-104-262.4s34.6-193.35,99.73-264.31,152.16-110.51,245.07-111.38h2.81m-.09,670.32,2.75,0c153.39-1.43,277.09-136.21,275.75-300.45-.65-79.56-30.19-154.09-83.19-209.85-52.41-55.14-121.55-85.41-194.92-85.41h-2.5c-74.3.69-143.91,32.33-196,89.08s-80.41,131.81-79.76,211.37,30.19,154.09,83.19,209.85c52.35,55.08,121.34,85.42,194.67,85.42m.09-675.32h-2.85c-94.31.88-182.64,41-248.71,113s-101.87,167-101,267.73,38.25,195.15,105.4,265.81c66.41,69.87,154.25,108.35,247.36,108.35h3.16c194.56-1.82,351.46-172.61,349.76-380.73-.82-100.76-38.25-195.15-105.4-265.81-66.41-69.87-154.36-108.35-247.67-108.35Zm-.09,670.32c-71.8,0-139.65-29.79-191.05-83.86-52.12-54.85-81.18-128.16-81.81-206.45s27.22-152.14,78.44-208S2194.06,1439.67,2267,1439h2.45c72,0,139.9,29.78,191.29,83.85,52.13,54.85,81.18,128.16,81.82,206.45,1.32,161.48-120.16,294-270.8,295.41l-2.7,0Z"/>
<path class="cls-3" d="m2271.8 2029.7c-74.36 0.77-144.42-29.64-197.43-85.41s-82.54-130.3-83.17-209.86c-0.62-74.5 24.18-145.06 70.14-200.34-3.45 3.36-6.81 6.86-10.11 10.46-52.09 56.75-80.42 131.83-79.78 211.39s30.2 154.08 83.2 209.85 123.07 86.16 197.43 85.39c81.68-0.76 155-39.34 205.41-100.07-48.97 48.2-114.11 77.89-185.69 78.59z"/>
<path class="cls-3" d="m2513.2 1466.2c-66.28-69.73-153.92-107.56-246.87-106.79s-179.93 40.43-245.08 111.39c-3.26 3.56-6.45 7.16-9.57 10.85 63.89-64.25 146.77-99.91 234.92-100.74 93-0.79 180.59 37.06 246.85 106.79s103.22 162.91 104 262.39c0.79 97.3-33.52 186.34-90.25 253.28 68.39-68.73 110.85-166.65 110-274.76-0.8-99.49-37.74-192.68-104-262.41z"/>
<path class="cls-5" d="M1781,2081c0,76.35,100,169,218.77,168,109.48-.95,216.23-92.55,216.23-167.78,0-60.53-125.95-113.77-216.23-113C1915.94,1969,1781,2009.38,1781,2081Z"/>
<path class="cls-6" d="M2216,2081.21c0,75.23-106.76,166.83-216.23,167.78C1881,2250,1781,2157.35,1781,2081a55.51,55.51,0,0,1,.8-9.44c42.79,52.91,125.12,97,217.46,96.3,86.31-.67,171.11-45.93,214.93-99.27A45.85,45.85,0,0,1,2216,2081.21Z"/>
</svg>
